<?xml version="1.0" standalone="no"?>
<!DOCTYPE svg PUBLIC "-//W3C//DTD SVG 1.1//EN" "http://www.w3.org/Graphics/SVG/1.1/DTD/svg11.dtd" >
<svg xmlns="http://www.w3.org/2000/svg" xmlns:xlink="http://www.w3.org/1999/xlink" version="1.1">
<metadata>
Created by FontForge 20170731 at Tue Oct 13 00:50:29 2020
 By Aleksey,,,
Copyright (c) 2011-2012 Durotype, www.durotype.com. All rights reserved.
</metadata>
<defs>
<font id="Flexo-BoldIt" horiz-adv-x="1210" >
  <font-face 
    font-family="Flexo"
    font-weight="700"
    font-style="italic"
    font-stretch="normal"
    units-per-em="2048"
    panose-1="0 0 0 0 0 0 0 0 0 0"
    ascent="1618"
    descent="-430"
    x-height="1094"
    cap-height="1432"
    bbox="-402 -511 2643 1969"
    underline-thickness="102"
    underline-position="-345"
    slope="-9"
    unicode-range="U+0020-FB04"
  />
<missing-glyph horiz-adv-x="1278" 
d="M128 0v1475h1022v-1475h-1022zM578 737l-347 537v-1074zM987 105l-347 538l-348 -538h695zM987 1369h-695l348 -537zM1048 1274l-347 -537l347 -537v1074z" />
    <glyph glyph-name="f_f" unicode="ff" horiz-adv-x="1454" 
d="M162 1094h177l15 96q27 165 127.5 253.5t272.5 88.5q78 0 162 -12l-50 -191h-83q-140 0 -162 -138l-15 -97h429l15 96q27 165 127.5 253.5t272.5 88.5q78 0 162 -12l-51 -191h-82q-139 0 -162 -138l-16 -97h221l-33 -207h-220l-141 -887h-267l141 887h-429l-140 -887
h-268l141 887h-177z" />
    <glyph glyph-name="fi" unicode="fi" horiz-adv-x="1318" 
d="M1118 0h-270l141 887h-416l-140 -887h-268l141 887h-177l33 207h177l15 96q27 165 127.5 253.5t272.5 88.5q78 0 162 -12l-50 -191h-83q-138 0 -161 -138l-16 -97h685zM1038 1325q0 20 5 53q14 86 53.5 120t128.5 34q75 0 106.5 -23.5t31.5 -79.5q0 -19 -5 -51
q-14 -87 -53 -121t-129 -34q-75 0 -106.5 23.5t-31.5 78.5z" />
    <glyph glyph-name="fl" unicode="fl" horiz-adv-x="1305" 
d="M339 1094l15 96q26 165 127 253.5t273 88.5q290 0 587 -15l-192 -1218q-7 -51 -7 -80q0 -81 43 -160l-254 -113q-64 94 -64 219q0 54 10 113l166 1051h-260q-139 0 -162 -138l-16 -97h221l-33 -207h-220l-141 -887h-267l141 887h-177l33 207h177z" />
    <glyph glyph-name="f_f_i" unicode="ffi" horiz-adv-x="2014" 
d="M339 1094l15 96q27 165 127.5 253.5t272.5 88.5q76 0 162 -12l-50 -191h-83q-140 0 -162 -138l-15 -97h429l15 96q27 165 127.5 253.5t272.5 88.5q78 0 162 -12l-50 -191h-83q-140 0 -162 -138l-16 -97h686l-174 -1094h-269l141 887h-417l-140 -887h-267l141 887h-429
l-140 -887h-268l141 887h-177l33 207h177zM1872 1223q-75 0 -106.5 23.5t-31.5 78.5q0 20 5 53q14 86 53.5 120t128.5 34q74 0 106 -23.5t32 -78.5q0 -19 -5 -52q-14 -87 -53 -121t-129 -34z" />
    <glyph glyph-name="f_f_l" unicode="ffl" horiz-adv-x="2001" 
d="M1522 1094l-33 -207h-220l-140 -887h-267l140 887h-429l-140 -887h-267l140 887h-177l33 207h177l15 96q26 165 127 253.5t273 88.5q78 0 162 -12l-50 -191h-83q-140 0 -162 -138l-15 -97h429l15 96q26 165 127 253.5t273 88.5q291 0 588 -15l-193 -1218q-7 -51 -7 -79
q0 -82 43 -161l-253 -113q-64 94 -64 219q0 54 10 113l166 1051h-261q-140 0 -162 -138l-15 -97h220z" />
    <glyph glyph-name="f_b" unicode="fb" horiz-adv-x="1932" 
d="M339 1094l15 96q27 165 127.5 253.5t272.5 88.5q290 0 587 -15l-68 -431q110 23 208 23q211 0 309 -83.5t98 -282.5q0 -85 -18 -196q-26 -162 -71 -269.5t-119 -172.5t-171.5 -92.5t-235.5 -27.5q-116 0 -227 25.5t-189 76.5q11 125 24 207l164 1035h-262
q-140 0 -162 -138l-15 -97h220l-33 -207h-220l-140 -887h-268l141 887h-177l33 207h177zM1306 199q48 0 87 10.5t66.5 26.5t50 44t36 54.5t25 66t17.5 70t13 76.5q17 111 17 162q0 91 -49 138t-176 47q-73 0 -154 -24l-78 -495q-14 -88 -17 -147q56 -29 162 -29z" />
    <glyph glyph-name="f_f_b" unicode="ffb" horiz-adv-x="2628" 
d="M1268 887l-140 -887h-267l141 887h-429l-140 -887h-268l141 887h-177l33 207h177l15 96q27 165 127.5 253.5t272.5 88.5q76 0 162 -12l-50 -191h-83q-140 0 -162 -138l-15 -97h429l15 96q27 165 127.5 253.5t272.5 88.5q291 0 588 -15l-69 -431q108 23 209 23
q210 0 308 -83.5t98 -282.5q0 -85 -18 -196q-26 -162 -71.5 -269.5t-119.5 -172.5t-171.5 -92.5t-235.5 -27.5q-116 0 -226.5 25.5t-188.5 76.5q8 116 23 207l165 1035h-262q-140 0 -162 -138l-16 -97h221l-33 -207h-221zM1840 228q56 -29 162 -29q48 0 87 10.5t66.5 26.5
t50 44t36 54.5t25 66t17.5 70t13 76.5q17 111 17 162q0 91 -49 138t-176 47q-73 0 -154 -24l-78 -495q-14 -88 -17 -147z" />
    <glyph glyph-name="f_f_h" unicode="ffh" horiz-adv-x="2642" 
d="M606 1094h429l15 96q27 165 127.5 253.5t272.5 88.5q291 0 588 -15l-70 -443q118 35 243 35q109 0 184 -19.5t115.5 -57.5t57 -84.5t16.5 -110.5q0 -56 -14 -145l-110 -692h-268l106 666q9 51 9 89q0 71 -42.5 101.5t-153.5 30.5q-94 0 -179 -34l-135 -853h-268l211 1329
h-261q-139 0 -162 -138l-16 -97h221l-33 -207h-220l-141 -887h-267l141 887h-429l-140 -887h-267l140 887h-177l33 207h177l15 96q26 165 127 253.5t273 88.5q78 0 162 -12l-50 -191h-83q-138 0 -161 -138z" />
    <glyph glyph-name="f_f_j" unicode="ffj" horiz-adv-x="2043" 
d="M573 887l-140 -887h-267l140 887h-177l33 207h177l15 96q26 165 127 253.5t273 88.5q78 0 162 -12l-50 -191h-83q-140 0 -162 -138l-15 -97h429l15 96q27 165 127.5 253.5t272.5 88.5q78 0 162 -12l-51 -191h-82q-140 0 -162 -138l-16 -97h728l-171 -1078
q-37 -235 -155 -334.5t-349 -99.5q-36 0 -72 3l54 202q44 5 71.5 10t61 17.5t53.5 31.5t37 52t24 79l144 910h-458l-141 -887h-267l141 887h-429zM1776 1325q0 20 5 53q14 86 53.5 120t128.5 34q74 0 106 -23.5t32 -78.5q0 -25 -4 -52q-14 -86 -53.5 -120.5t-129.5 -34.5
q-75 0 -106.5 23.5t-31.5 78.5z" />
    <glyph glyph-name="f_f_k" unicode="ffk" horiz-adv-x="2572" 
d="M1895 616l442 478h306l-483 -504l331 -590h-324l-283 544l-87 -544h-266l210 1329h-262q-139 0 -162 -138l-16 -97h221l-33 -207h-220l-141 -887h-267l141 887h-429l-140 -887h-268l141 887h-177l33 207h177l15 96q27 165 127.5 253.5t272.5 88.5q78 0 162 -12l-50 -191
h-83q-140 0 -162 -138l-15 -97h429l15 96q27 165 127.5 253.5t272.5 88.5q291 0 588 -15z" />
    <glyph glyph-name="f_h" unicode="fh" horiz-adv-x="1945" 
d="M129 887l33 207h177l14 96q26 165 127.5 253.5t273.5 88.5q290 0 587 -15l-70 -443q118 35 244 35q109 0 184 -19.5t115 -57.5t56.5 -84.5t16.5 -110.5q0 -56 -14 -145l-109 -692h-267l105 666q9 51 9 89q0 71 -42.5 101.5t-154.5 30.5q-95 0 -178 -34l-135 -853h-268
l211 1329h-262q-138 0 -161 -138l-16 -97h221l-33 -207h-220l-141 -887h-267l140 887h-176z" />
    <glyph glyph-name="f_j" unicode="fj" horiz-adv-x="1346" 
d="M605 1094h728l-171 -1078q-37 -235 -155 -334.5t-349 -99.5q-36 0 -72 3l54 202q56 6 89 14t69.5 27t57.5 55.5t30 93.5l144 910h-457l-141 -887h-267l140 887h-176l33 207h177l14 96q26 165 127.5 253.5t273.5 88.5q78 0 162 -12l-50 -191h-84q-139 0 -161 -138z
M1080 1325q0 20 5 53q14 86 54 120t129 34q74 0 105.5 -23.5t31.5 -78.5q0 -19 -5 -52q-14 -87 -53 -121t-129 -34q-75 0 -106.5 23.5t-31.5 78.5z" />
    <glyph glyph-name="f_k" unicode="fk" horiz-adv-x="1875" 
d="M162 1094h177l15 96q27 165 127.5 253.5t272.5 88.5q290 0 587 -15l-142 -901l441 478h307l-483 -504l331 -590h-324l-283 544l-87 -544h-267l211 1329h-263q-138 0 -161 -138l-16 -97h221l-33 -207h-220l-141 -887h-267l141 887h-177z" />
    <glyph glyph-name=".notdef" horiz-adv-x="1278" 
d="M128 0v1475h1022v-1475h-1022zM578 737l-347 537v-1074zM987 105l-347 538l-348 -538h695zM987 1369h-695l348 -537zM1048 1274l-347 -537l347 -537v1074z" />
    <glyph glyph-name=".null" horiz-adv-x="0" 
 />
    <glyph glyph-name="nonmarkingreturn" horiz-adv-x="682" 
 />
    <glyph glyph-name="space" unicode=" " horiz-adv-x="522" 
 />
    <glyph glyph-name="exclam" unicode="!" horiz-adv-x="591" 
d="M237 -15q-75 0 -106.5 23.5t-31.5 78.5q0 19 5 52q14 86 53.5 120.5t128.5 34.5q74 0 105.5 -23.5t31.5 -78.5q0 -20 -5 -53q-14 -86 -53 -120t-128 -34zM190 419l118 1013h314l-201 -1013h-231z" />
    <glyph glyph-name="quotedbl" unicode="&#x22;" horiz-adv-x="822" 
d="M182 936l72 581h235l-110 -581h-197zM548 936l73 581h234l-110 -581h-197z" />
    <glyph glyph-name="numbersign" unicode="#" horiz-adv-x="1180" 
d="M459 1027l123 405h189l-123 -405h201l123 405h188l-122 -405h174l-30 -189h-201l-72 -242h179l-30 -189h-208l-123 -407h-189l123 407h-200l-124 -407h-188l123 407h-192l31 189h219l72 242h-201l30 189h228zM519 596h201l72 242h-200z" />
    <glyph glyph-name="dollar" unicode="$" horiz-adv-x="1040" 
d="M691 392q3 18 3 33q0 25 -6 45t-22.5 36t-28.5 26t-42 22.5t-44.5 17.5t-53.5 18q-68 23 -113.5 42t-89.5 46.5t-69.5 59.5t-41 77t-15.5 102q0 44 7 89q30 187 134 279t287 112l31 192h190l-30 -187q164 -7 321 -42l-59 -216q-184 30 -295 30q-43 0 -72.5 -1.5t-73 -9.5
t-72 -22t-52.5 -42.5t-30 -68.5q-3 -21 -3 -38q0 -37 12 -61.5t45.5 -43t59.5 -27.5t87 -27q11 -3 17 -5q165 -47 239.5 -120.5t74.5 -204.5q0 -45 -9 -101q-30 -187 -135.5 -285t-287.5 -123l-31 -194h-190l29 186q-174 4 -342 42l62 223q207 -32 351 -32q116 0 179 37
t79 136z" />
    <glyph glyph-name="percent" unicode="%" horiz-adv-x="1729" 
d="M421 588q-144 0 -203 59t-59 186q0 73 17 180q14 91 32 155t46.5 118t68.5 86t97.5 49.5t134.5 17.5q144 0 203.5 -59t59.5 -187q0 -75 -17 -180q-14 -90 -32 -154t-46.5 -118t-69 -86t-98 -49.5t-134.5 -17.5zM611 1013q19 120 19 163q0 57 -21.5 85t-74.5 28
q-35 0 -61 -14t-42 -34.5t-29 -60.5t-20 -73.5t-16 -93.5q-19 -123 -19 -164q0 -56 21.5 -83.5t73.5 -27.5q29 0 52 8t39.5 27t28 39.5t21 56t15 65.5t13.5 79zM1277 -7q-144 0 -202.5 58.5t-58.5 185.5q0 68 18 181q18 114 42 188t66.5 130.5t108.5 82t162 25.5
q144 0 202.5 -59t58.5 -186q0 -76 -17 -181q-18 -114 -42.5 -188t-67 -130.5t-108.5 -81.5t-162 -25zM1468 418q19 122 19 165q0 56 -21.5 83.5t-74.5 27.5q-29 0 -52 -8t-39.5 -27.5t-27.5 -39.5t-20.5 -56.5t-15 -65.5t-13.5 -79q-19 -122 -19 -163q0 -56 21.5 -84
t74.5 -28q29 0 52 8t39.5 27t27.5 39.5t20.5 56.5t15 65t13.5 79zM294 -29l1060 1490h185l-1060 -1490h-185z" />
    <glyph glyph-name="ampersand" unicode="&#x26;" horiz-adv-x="1375" 
d="M760 731l183 -248q43 74 69 197l242 -11q-58 -230 -174 -387l204 -282h-327l-68 100q-79 -62 -174 -88.5t-225 -26.5q-210 0 -313 79.5t-103 240.5q0 53 8 101q22 139 105.5 228.5t226.5 149.5q-30 49 -43.5 73.5t-28 71t-14.5 95.5q0 34 6 73q15 94 55.5 162.5
t101 108.5t132 59t156.5 19q145 0 237 -64t92 -199q0 -38 -5 -67q-40 -257 -343 -385zM649 889q182 86 201 206q3 23 3 41q0 103 -113 103q-60 0 -102.5 -35.5t-54.5 -111.5q-4 -28 -4 -38q0 -75 70 -165zM767 277l-242 342q-84 -50 -124.5 -98.5t-53.5 -130.5
q-2 -12 -2 -33q0 -79 59 -120.5t143 -41.5q122 0 220 82z" />
    <glyph glyph-name="quotesingle" unicode="'" horiz-adv-x="456" 
d="M182 936l72 581h235l-111 -581h-196z" />
    <glyph glyph-name="parenleft" unicode="(" horiz-adv-x="650" 
d="M507 -224l-173 -129q-223 218 -223 620q0 131 27 303q22 138 57 259.5t91.5 243.5t142.5 229.5t198 190.5l132 -128q-261 -225 -350 -795q-30 -189 -30 -336q0 -312 128 -458z" />
    <glyph glyph-name="parenright" unicode=")" horiz-adv-x="650" 
d="M233 1365l173 128q223 -218 223 -619q0 -142 -27 -304q-22 -138 -57 -259.5t-91.5 -243.5t-142.5 -229.5t-198 -190.5l-131 129q259 220 350 794q28 183 28 328q0 316 -127 467z" />
    <glyph glyph-name="asterisk" unicode="*" horiz-adv-x="908" 
d="M720 1470l137 -87l-157 -214h243q-4 -29 -13.5 -86.5t-14.5 -86.5h-242l87 -215l-163 -84q-12 29 -41.5 100t-44.5 109l-152 -209l-137 86l154 213h-240l28 173h240q-15 36 -44 107.5t-44 106.5l166 87q14 -36 42.5 -106t42.5 -106q29 41 83.5 116t69.5 96z" />
    <glyph glyph-name="plus" unicode="+" horiz-adv-x="1154" 
d="M527 718l61 392h232l-62 -392h383l-37 -231h-383l-62 -394h-232l63 394h-382l37 231h382z" />
    <glyph glyph-name="comma" unicode="," horiz-adv-x="548" 
d="M6 -266l212 546h297l-291 -546h-218z" />
    <glyph glyph-name="hyphen" unicode="-" horiz-adv-x="782" 
d="M151 435l35 219h530l-35 -219h-530z" />
    <glyph glyph-name="period" unicode="." horiz-adv-x="530" 
d="M439 198q0 -20 -5 -55q-14 -90 -53 -124t-130 -34q-76 0 -106.5 22.5t-30.5 78.5q0 20 5 57q14 90 53 123.5t129 33.5q75 0 106.5 -23t31.5 -79z" />
    <glyph glyph-name="slash" unicode="/" horiz-adv-x="906" 
d="M-30 -165l829 1647h230l-831 -1647h-228z" />
    <glyph glyph-name="zero" unicode="0" horiz-adv-x="1248" 
d="M567 -15q-233 0 -329.5 97.5t-96.5 307.5q0 117 29 304q24 151 53.5 257.5t76.5 196.5t112.5 143.5t159 82.5t219.5 29q234 0 330 -97t96 -307q0 -112 -30 -305q-24 -151 -53.5 -257.5t-76 -196.5t-112 -143.5t-159 -82.5t-219.5 -29zM416 414q0 -101 40.5 -151.5
t141.5 -50.5q37 0 68.5 7.5t56.5 19.5t46 34t36.5 44t29.5 57t23.5 65.5t19 77t16 84t15.5 93.5q32 205 32 281q0 101 -41 151.5t-141 50.5q-47 0 -85.5 -12.5t-66 -31.5t-50.5 -56t-37.5 -70.5t-28.5 -91t-22 -102.5t-20 -119q-33 -212 -33 -280z" />
    <glyph glyph-name="one" unicode="1" horiz-adv-x="769" 
d="M288 0l176 1107q-134 -33 -309 -53l24 225q210 31 387 110h217l-220 -1389h-275z" />
    <glyph glyph-name="two" unicode="2" horiz-adv-x="1144" 
d="M263 1356q250 47 455 47q98 0 173.5 -14t136.5 -45.5t93 -88.5t32 -137q0 -34 -6 -73q-30 -189 -146.5 -312.5t-331.5 -204.5q-77 -29 -126 -56.5t-81 -63t-49.5 -71.5t-34.5 -94h641l-38 -243h-955q44 133 68 200t62 153.5t70.5 130.5t83.5 96t113 87t147 70
q145 59 211 115t80 148q4 30 4 43q0 74 -65.5 99.5t-236.5 25.5q-133 0 -309 -29z" />
    <glyph glyph-name="three" unicode="3" horiz-adv-x="1127" 
d="M1120 1044q-35 -221 -238 -313q84 -35 126 -92t42 -143q0 -30 -6 -68q-20 -125 -69.5 -212t-128.5 -137t-176 -72t-225 -22q-182 0 -416 48l66 219q225 -31 337 -31q159 0 231 39.5t91 157.5q4 34 4 47q0 117 -121 132q-116 16 -281 16h-25l33 207q142 3 312 27
q135 19 158 167q3 21 3 38q0 39 -15.5 64t-48 36.5t-67 15.5t-88.5 4q-129 0 -371 -31l7 216q238 46 423 46q77 0 138.5 -6.5t121.5 -25t100 -49t64.5 -82t24.5 -120.5q0 -36 -6 -76z" />
    <glyph glyph-name="four" unicode="4" horiz-adv-x="1201" 
d="M637 0l50 313h-458q-161 0 -161 111q0 17 3 35q13 87 132 217l550 598q69 75 121.5 102t114.5 27q53 0 85.5 -31.5t32.5 -92.5q0 -13 -4 -41l-112 -706h167l-35 -219h-166l-50 -313h-270zM801 1031l-445 -499h366z" />
    <glyph glyph-name="five" unicode="5" horiz-adv-x="1143" 
d="M476 874q43 3 86 3q95 0 165 -7t137.5 -27.5t110 -55.5t68 -94t25.5 -141q0 -52 -10 -111q-38 -239 -184.5 -347.5t-402.5 -108.5q-224 0 -429 49l64 219q209 -31 339 -31q87 0 138.5 8t93 34t63.5 74t34 127q3 18 3 35q0 50 -25 82.5t-73.5 48t-98 20.5t-120.5 5
q-148 0 -289 -7l168 740h837l-38 -241h-600z" />
    <glyph glyph-name="six" unicode="6" horiz-adv-x="1215" 
d="M1147 447q-17 -109 -55 -190.5t-90 -133t-125 -82.5t-151.5 -43.5t-178.5 -12.5q-231 0 -327 95t-96 283q0 86 19 202q26 166 57.5 284t80 216t111 159t154.5 103t207.5 59t271.5 17q49 0 167 -3l-13 -219q-30 -1 -78 -1.5t-84.5 -1t-86 -3t-87.5 -7.5t-82.5 -15
t-78.5 -25t-69 -38.5t-59.5 -53.5t-43 -72t-27.5 -93q134 18 236 18q106 0 182.5 -14.5t136.5 -50t89.5 -99t29.5 -157.5q0 -58 -10 -121zM579 213q147 0 210 52t84 186q5 29 5 62q0 93 -56.5 128t-171.5 35q-87 0 -214 -19q-11 -44 -24 -122q-13 -82 -13 -128
q0 -91 40.5 -142.5t139.5 -51.5z" />
    <glyph glyph-name="seven" unicode="7" horiz-adv-x="1050" 
d="M1128 1171l-702 -1171h-312l733 1147h-662l38 242h799q70 0 107 -28.5t37 -78.5q0 -7 -2 -23q-5 -35 -36 -88z" />
    <glyph glyph-name="eight" unicode="8" horiz-adv-x="1216" 
d="M551 -15q-106 0 -186 16t-142 51t-94.5 97t-32.5 149q0 44 7 89q18 119 81.5 192t186.5 140q-75 46 -112.5 104.5t-37.5 146.5q0 36 8 84q56 349 547 349q442 0 442 -283q0 -37 -5 -66q-20 -123 -71 -195t-177 -136q83 -53 124.5 -113.5t41.5 -150.5q0 -33 -6 -71
q-15 -97 -53.5 -169t-90 -116t-123 -71t-144.5 -37t-163 -10zM371 350q0 -81 55.5 -112.5t159.5 -31.5q73 0 124.5 14t92.5 57t52 116q6 33 6 59q0 74 -57 109t-212 51q-190 -39 -218 -219q-3 -23 -3 -43zM949 1019q3 21 3 39q0 52 -29 82t-71.5 39t-109.5 9q-42 0 -74 -3.5
t-64.5 -14t-55 -29t-39.5 -49t-24 -73.5q-4 -30 -4 -44q0 -32 11.5 -55.5t40 -43.5t81 -32t130.5 -16q97 25 144.5 66t60.5 125z" />
    <glyph glyph-name="nine" unicode="9" horiz-adv-x="1217" 
d="M178 941q17 109 55 190.5t90 133t124.5 82.5t151 43.5t178.5 12.5q231 0 327 -94.5t96 -282.5q0 -94 -18 -203q-26 -166 -57.5 -284t-80 -215.5t-111.5 -159t-155 -103.5t-207.5 -59t-271.5 -17q-49 0 -167 3l13 220q31 1 86.5 1.5t95.5 1.5t95 4t96.5 11t89 21.5
t82.5 36.5t67 54t53 76.5t31 102.5q-125 -17 -235 -17q-85 0 -150 8.5t-121 30.5t-92 58t-56 92t-20 131q0 52 11 121zM447 876q0 -93 56.5 -128t170.5 -35q93 0 215 18q9 34 23 122q13 82 13 130q0 90 -40.5 141.5t-139.5 51.5q-147 0 -209.5 -52t-83.5 -186q-5 -29 -5 -62
z" />
    <glyph glyph-name="colon" unicode=":" horiz-adv-x="591" 
d="M116 86q0 20 5 57q14 89 53.5 123t129.5 34q76 0 107 -22.5t31 -79.5q0 -20 -5 -55q-14 -90 -52.5 -124t-130.5 -34q-75 0 -106.5 22.5t-31.5 78.5zM367 702q-75 0 -106.5 22.5t-31.5 77.5q0 25 6 58q14 89 53 123t129 34q76 0 107 -22.5t31 -78.5q0 -28 -5 -56
q-14 -90 -53 -124t-130 -34z" />
    <glyph glyph-name="semicolon" unicode=";" horiz-adv-x="591" 
d="M428 702q-75 0 -106.5 22.5t-31.5 77.5q0 25 6 58q14 90 53 123.5t129 33.5q76 0 107 -22.5t31 -78.5q0 -28 -5 -56q-14 -90 -53 -124t-130 -34zM-4 -266l212 546h296l-290 -546h-218z" />
    <glyph glyph-name="less" unicode="&#x3c;" horiz-adv-x="1236" 
d="M106 498l33 207l1092 434l-40 -244l-749 -293l657 -295l-38 -243z" />
    <glyph glyph-name="equal" unicode="=" horiz-adv-x="1262" 
d="M127 265l37 233h996l-37 -233h-996zM197 705l37 233h996l-37 -233h-996z" />
    <glyph glyph-name="greater" unicode="&#x3e;" horiz-adv-x="1236" 
d="M140 307l750 295l-657 293l39 244l953 -434l-32 -207l-1092 -434z" />
    <glyph glyph-name="question" unicode="?" horiz-adv-x="1065" 
d="M567 419h-235l16 135q2 19 7 49q12 72 40.5 117t65.5 63.5t79.5 27.5t85 17t79 24t64 56.5t38.5 106.5q5 35 5 57q0 75 -52.5 103.5t-186.5 28.5q-177 0 -341 -32l-11 226q206 48 423 48q91 0 156 -6.5t127 -26t100 -53t61 -90.5t23 -136q0 -51 -11 -120
q-16 -100 -51 -171.5t-78.5 -108t-93 -59.5t-97.5 -33.5t-88 -21t-68 -31.5t-35 -57zM243 86q0 20 5 53q14 86 53.5 120.5t128.5 34.5q74 0 106 -23.5t32 -78.5q0 -20 -5 -53q-14 -86 -53.5 -120t-128.5 -34q-75 0 -106.5 23t-31.5 78z" />
    <glyph glyph-name="at" unicode="@" horiz-adv-x="1788" 
d="M825 -183q-349 0 -526 132.5t-177 417.5q0 83 15 180q31 197 107.5 338.5t197.5 227.5t276.5 125.5t357.5 39.5q75 0 135.5 -14t109.5 -44.5t76 -84.5t27 -128q0 -28 -7 -77l-68 -426q-20 -120 -41 -204q-74 -44 -192.5 -70.5t-246.5 -26.5q-187 0 -273.5 64.5
t-86.5 195.5q0 36 8 84q24 149 105.5 233.5t240.5 113.5q73 14 314 28q5 33 5 55q0 57 -33.5 80t-113.5 23q-140 0 -245.5 -26t-191 -86t-139.5 -164.5t-78 -256.5q-13 -77 -13 -146q0 -209 123 -297.5t366 -88.5q139 0 243 26.5t188 87t137 164.5t77 254q12 71 12 146
q0 26 -4 70l242 68q7 -46 7 -107q0 -82 -15 -177q-60 -380 -290.5 -555t-628.5 -175zM1121 566l31 193q-153 -5 -224 -25q-86 -24 -121.5 -58.5t-49.5 -122.5q-4 -32 -4 -44q0 -68 44 -93.5t137 -25.5q31 0 82 10t77 25q16 62 28 141z" />
    <glyph glyph-name="A" unicode="A" horiz-adv-x="1347" 
d="M267 0h-293l613 1247q98 199 263 199q163 0 197 -199l213 -1247h-303l-51 355h-478zM528 578h346l-83 578z" />
    <glyph glyph-name="B" unicode="B" horiz-adv-x="1287" 
d="M1283 1057q-18 -111 -85 -198.5t-174 -126.5q180 -64 180 -264q0 -35 -8 -85q-15 -97 -57.5 -169.5t-99 -115.5t-135.5 -69t-156.5 -35t-174.5 -9q-262 0 -473 39l219 1383q206 39 463 39q82 0 147.5 -6.5t135.5 -26.5t117 -53t77 -90.5t30 -135.5q0 -35 -6 -77z
M1006 1078q0 37 -12.5 62.5t-33 40.5t-56 23.5t-71 11t-87.5 2.5q-85 0 -176 -11l-58 -370h183q52 0 91 4t78 16.5t65 33.5t45.5 56.5t27.5 84.5q4 34 4 46zM662 626h-185l-63 -398q86 -12 189 -12q55 0 95 4t80 16.5t66.5 34.5t46.5 58.5t28 87.5q5 30 5 49q0 50 -19 82.5
t-57 49t-81 22.5t-105 6z" />
    <glyph glyph-name="C" unicode="C" horiz-adv-x="1128" 
d="M1006 28q-163 -43 -374 -43q-268 0 -380.5 104t-112.5 336q0 108 28 291q21 132 47.5 231.5t65.5 183.5t91 141t123 97t162.5 58.5t207.5 18.5q210 0 360 -43l-61 -224q-144 24 -285 24q-71 0 -127 -13.5t-95.5 -33t-70.5 -58t-49.5 -71.5t-34.5 -92.5t-23.5 -101.5
t-19.5 -117q-27 -170 -27 -239q0 -60 13.5 -103.5t45.5 -77t90 -50.5t143 -17q144 0 293 24z" />
    <glyph glyph-name="D" unicode="D" horiz-adv-x="1343" 
d="M318 1406q216 40 464 40q151 0 254.5 -26.5t164.5 -83t87 -135.5t26 -192q0 -105 -29 -293q-20 -130 -44.5 -224t-63 -181t-91.5 -144t-128 -100t-176 -62.5t-231 -19.5q-248 0 -451 40zM571 1199l-153 -966q64 -11 131 -11q78 0 139 14t103.5 33.5t76 60t52.5 73.5
t36 94t24.5 102t19.5 117q26 158 26 233q0 62 -14.5 107t-49.5 81t-99 54t-158 18q-60 0 -134 -10z" />
    <glyph glyph-name="E" unicode="E" horiz-adv-x="1142" 
d="M143 346l117 740q9 55 25 100t35 79t48 60.5t56 44t65.5 30t70.5 19.5t78 10.5t80 4.5t84 1q188 0 380 -10l-35 -226h-388q-65 0 -103 -7.5t-64 -30.5t-38 -57.5t-22 -97.5l-26 -162h558l-37 -231h-558l-28 -186q-9 -51 -9 -86q0 -64 37 -86.5t137 -22.5h388l-36 -225
q-220 -11 -383 -11q-58 0 -97 1.5t-89.5 7t-83.5 15.5t-68 29.5t-55.5 46.5t-33.5 67.5t-13 92.5q0 46 8 90z" />
    <glyph glyph-name="F" unicode="F" horiz-adv-x="1083" 
d="M377 0h-285l172 1086q9 55 25 100t35.5 79t48 60.5t55.5 44t66 30t71 19.5t78 10.5t80 4.5t84 1q140 0 380 -10l-36 -226h-388q-65 0 -103 -7.5t-64 -30.5t-38 -57.5t-22 -97.5l-25 -162h557l-36 -231h-558z" />
    <glyph glyph-name="G" unicode="G" horiz-adv-x="1294" 
d="M709 577l36 224h498l-85 -536q-9 -56 -28.5 -99t-44.5 -72t-64.5 -50t-76.5 -32t-93 -17.5t-102 -8t-115 -1.5q-269 0 -381 104t-112 336q0 116 27 291q32 201 78 332t126 224t199.5 133.5t293.5 40.5q248 0 443 -42l-61 -224q-157 25 -368 25q-71 0 -127 -13.5
t-95.5 -33t-70.5 -58.5t-49.5 -72t-34.5 -93t-24 -102t-20 -117q-26 -163 -26 -239q0 -125 63.5 -188t227.5 -63q54 0 88 7.5t52.5 25.5t26 38t13.5 54l35 226h-229z" />
    <glyph glyph-name="H" unicode="H" horiz-adv-x="1383" 
d="M1022 850l92 582h286l-226 -1432h-287l97 613h-505l-97 -613h-286l227 1432h285l-91 -582h505z" />
    <glyph glyph-name="I" unicode="I" horiz-adv-x="587" 
d="M93 0l227 1432h286l-226 -1432h-287z" />
    <glyph glyph-name="J" unicode="J" horiz-adv-x="847" 
d="M430 434l158 998h287l-151 -956q-29 -181 -84 -285t-157 -155t-268 -51q-62 0 -129 12.5t-111 34.5l58 217q90 -33 191 -33q171 0 206 218z" />
    <glyph glyph-name="K" unicode="K" horiz-adv-x="1271" 
d="M608 1432l-105 -664l572 664h331l-612 -685l393 -747h-346l-349 703l-111 -703h-285l227 1432h285z" />
    <glyph glyph-name="L" unicode="L" horiz-adv-x="1018" 
d="M147 346l173 1086h285l-160 -1005q-8 -45 -8 -87q0 -64 37 -86t137 -22h364l-35 -226q-250 -10 -361 -10q-58 0 -97 1.5t-89.5 7t-83.5 15.5t-68 29.5t-55.5 46.5t-33.5 67.5t-13 92.5q0 46 8 90z" />
    <glyph glyph-name="M" unicode="M" horiz-adv-x="1683" 
d="M706 1266l162 -715l392 710q49 90 111 137.5t125 47.5q81 0 115.5 -34t34.5 -114q0 -18 -4 -64l-141 -1234h-275l129 1026h-1l-364 -702q-69 -134 -177 -134t-136 134l-149 700h-1l-196 -1024h-264l251 1235q22 110 72 160.5t142 50.5q133 0 174 -180z" />
    <glyph glyph-name="N" unicode="N" horiz-adv-x="1422" 
d="M710 1258l306 -876l167 1050h256l-195 -1229q-34 -218 -207 -218q-79 0 -126.5 41.5t-84.5 147.5l-306 880l-167 -1054h-257l195 1229q34 217 207 217q75 0 125.5 -43.5t86.5 -144.5z" />
    <glyph glyph-name="O" unicode="O" horiz-adv-x="1348" 
d="M616 -15q-255 0 -364 103t-109 335q0 127 27 293q32 201 79 334t126 224.5t193.5 131.5t278.5 40q255 0 364 -103t109 -336q0 -115 -27 -291q-25 -160 -60 -275.5t-88 -205t-126.5 -143t-172.5 -80.5t-230 -27zM460 716q-31 -188 -31 -269q0 -111 48.5 -166.5
t171.5 -55.5q56 0 101 13t77.5 32.5t58.5 56.5t42.5 72t31.5 93t23.5 104t20.5 120q30 193 30 268q0 112 -48.5 167.5t-171.5 55.5q-56 0 -101 -13t-77 -32.5t-58 -56.5t-42.5 -72t-31.5 -93t-23.5 -104t-20.5 -120z" />
    <glyph glyph-name="P" unicode="P" horiz-adv-x="1237" 
d="M465 536l-85 -536h-285l223 1407q212 39 464 39q92 0 160.5 -7.5t135.5 -29t110 -58.5t69 -98.5t26 -146.5q0 -54 -10 -114q-18 -112 -57.5 -194t-93.5 -133t-130.5 -82t-157 -42.5t-183.5 -11.5q-93 0 -186 7zM501 766q65 -8 172 -8q144 0 220.5 50.5t97.5 183.5
q5 30 5 65q0 87 -56 124.5t-187 37.5q-93 0 -182 -12z" />
    <glyph glyph-name="Q" unicode="Q" horiz-adv-x="1349" 
d="M1124 -165l-207 -135q-5 3 -35.5 19t-39.5 21t-36.5 21.5t-39 26.5t-34.5 28t-34.5 34t-27.5 37.5t-26 46t-17 51.5q-255 0 -364 103.5t-109 336.5q0 115 27 291q32 201 79 334t126 224.5t193.5 131.5t278.5 40q255 0 364 -103t109 -335q0 -119 -28 -292
q-47 -301 -137 -464t-258 -225q17 -33 38 -59t52 -50t54.5 -39t71.5 -44zM660 225q39 0 73 5.5t61.5 18t50.5 27t41.5 38.5t33 46.5t27 57t21 63.5t17.5 72.5t15 77.5t14 85q31 200 31 268q0 112 -49 167.5t-172 55.5q-56 0 -101 -13t-77 -32.5t-58 -56.5t-42.5 -72
t-31.5 -93t-23.5 -104t-20.5 -120q-30 -193 -30 -269q0 -111 48.5 -166.5t171.5 -55.5z" />
    <glyph glyph-name="R" unicode="R" horiz-adv-x="1292" 
d="M466 546l-87 -546h-284l223 1407q212 39 462 39q91 0 160 -7.5t136.5 -29t110.5 -58t69.5 -98t26.5 -145.5q0 -43 -10 -111q-29 -182 -114 -283t-222 -141l230 -573h-328l-202 540q-73 0 -171 6zM503 777q57 -7 172 -7q143 0 219.5 49t97.5 179q5 28 5 61
q0 86 -56.5 123.5t-188.5 37.5q-84 0 -181 -13z" />
    <glyph glyph-name="S" unicode="S" horiz-adv-x="1110" 
d="M739 439q0 29 -11 53t-25.5 38.5t-45 30t-51 23t-62.5 21.5q-2 1 -3 1t-3 1t-3 1q-69 23 -116.5 43t-93 48.5t-72 61.5t-42.5 79.5t-16 104.5q0 48 8 92q35 224 174 316.5t393 92.5q202 0 394 -44l-61 -223q-182 31 -304 31q-36 0 -61 -1t-63 -5.5t-64.5 -14t-53.5 -25
t-43.5 -42t-22.5 -60.5q-4 -28 -4 -40q0 -22 5.5 -39.5t13 -31t24 -25.5t29.5 -19.5t40 -17t44.5 -14.5t51.5 -15l21 -6q170 -49 247 -124.5t77 -210.5q0 -42 -10 -104q-36 -229 -183 -329.5t-406 -100.5q-203 0 -398 44l64 230q215 -32 362 -32q120 0 185.5 37.5
t81.5 139.5q3 18 3 35z" />
    <glyph glyph-name="T" unicode="T" horiz-adv-x="1045" 
d="M1179 1432l-37 -235h-345l-190 -1197h-286l190 1197h-343l37 235h974z" />
    <glyph glyph-name="U" unicode="U" horiz-adv-x="1341" 
d="M1365 1432l-150 -950q-18 -116 -56.5 -203t-91 -142.5t-125 -90t-152.5 -48t-180 -13.5q-87 0 -155 10.5t-126.5 35.5t-96.5 66t-59.5 103.5t-21.5 145.5q0 67 11 136l150 950h281l-152 -966q-7 -47 -7 -74q0 -87 50 -125t164 -38q135 0 199.5 54.5t84.5 182.5l153 966
h280z" />
    <glyph glyph-name="V" unicode="V" horiz-adv-x="1294" 
d="M1435 1432l-598 -1253q-49 -102 -109 -148t-138 -46q-81 0 -125 44.5t-61 149.5l-204 1253h303l143 -1105l497 1105h292z" />
    <glyph glyph-name="W" unicode="W" horiz-adv-x="1785" 
d="M227 1432h286l17 -1093h1l283 725q44 110 100 159t128 49q73 0 113.5 -48.5t47.5 -159.5l50 -724h1l365 1092h280l-457 -1242q-40 -107 -96.5 -156t-135.5 -49q-81 0 -124 48t-51 156l-56 731l-282 -731q-78 -204 -240 -204q-79 0 -120 48.5t-46 155.5z" />
    <glyph glyph-name="X" unicode="X" horiz-adv-x="1314" 
d="M756 970l354 462h308l-546 -695l345 -737h-328l-222 491l-368 -491h-316l572 729l-328 703h325z" />
    <glyph glyph-name="Y" unicode="Y" horiz-adv-x="1219" 
d="M782 552l-88 -552h-285l87 552l-312 880h307l195 -594l392 594h296z" />
    <glyph glyph-name="Z" unicode="Z" horiz-adv-x="1137" 
d="M1148 1214l-723 -973h599l-38 -241h-809q-143 0 -143 92q0 12 1 19q8 49 52 107l727 975h-566l37 239h774q144 0 144 -91q0 -5 -2 -19q-7 -48 -53 -108z" />
    <glyph glyph-name="bracketleft" unicode="[" horiz-adv-x="656" 
d="M556 1271l-221 -1394h195l-33 -211h-444l287 1814h445l-33 -209h-196z" />
    <glyph glyph-name="backslash" unicode="\" horiz-adv-x="906" 
d="M551 -165l-308 1647h228l308 -1647h-228z" />
    <glyph glyph-name="bracketright" unicode="]" horiz-adv-x="656" 
d="M216 1271l33 209h445l-287 -1814h-443l33 211h194l221 1394h-196z" />
    <glyph glyph-name="asciicircum" unicode="^" horiz-adv-x="1037" 
d="M562 1432h205l217 -819h-238l-131 505l-292 -505h-238z" />
    <glyph glyph-name="underscore" unicode="_" horiz-adv-x="1022" 
d="M-6 -289l10 103h1025l-11 -103h-1024z" />
    <glyph glyph-name="grave" unicode="`" horiz-adv-x="529" 
d="M350 1153l-207 328h277l134 -328h-204z" />
    <glyph glyph-name="a" unicode="a" horiz-adv-x="1115" 
d="M1062 757l-73 -463q-19 -115 -41 -207q-187 -102 -496 -102q-190 0 -277.5 65.5t-87.5 198.5q0 42 7 85q24 150 107.5 236.5t243.5 111.5q118 18 349 28q5 30 5 49q0 69 -41.5 101.5t-131.5 32.5q-163 0 -383 -28l10 202q244 42 427 42q87 0 153 -12.5t121.5 -42
t85 -84.5t29.5 -134q0 -30 -7 -79zM514 507q-77 -18 -110 -52t-46 -117q-3 -21 -3 -38q0 -61 39.5 -84.5t121.5 -23.5q120 0 194 30q15 55 30 147l26 163q-184 -9 -252 -25z" />
    <glyph glyph-name="b" unicode="b" horiz-adv-x="1173" 
d="M724 1109q210 0 307.5 -83.5t97.5 -282.5q0 -91 -17 -196q-26 -162 -71.5 -269.5t-119.5 -172.5t-171.5 -92.5t-235.5 -27.5q-116 0 -226.5 25.5t-188.5 76.5q6 101 23 207l194 1223h268l-69 -431q108 23 209 23zM481 870l-78 -495q-14 -88 -17 -147q56 -29 162 -29
q48 0 87 10.5t66.5 26.5t49.5 44t35.5 54t25 66t17.5 70.5t13 76.5q18 118 18 162q0 91 -49 138t-176 47q-75 0 -154 -24z" />
    <glyph glyph-name="c" unicode="c" horiz-adv-x="953" 
d="M828 27q-170 -42 -357 -42q-79 0 -139.5 18.5t-99 50t-62.5 78.5t-33.5 99t-9.5 116q0 94 19 210q18 114 43 196t67 152.5t102.5 113t148 66.5t204.5 24q150 0 280 -42l-53 -200q-121 25 -190 25q-77 0 -127.5 -11t-85 -31.5t-57 -64t-35 -93.5t-26.5 -135
q-20 -127 -20 -177q0 -93 52 -133t192 -40q71 0 197 26z" />
    <glyph glyph-name="d" unicode="d" horiz-adv-x="1176" 
d="M884 1086l68 431h268l-194 -1223q-17 -103 -42 -207q-94 -51 -213 -76.5t-235 -25.5q-228 0 -332 82.5t-104 285.5q0 91 17 194q25 159 70 266.5t115.5 173.5t162 94t218.5 28q101 0 201 -23zM703 894q-54 0 -96.5 -9.5t-72.5 -23.5t-53.5 -41.5t-37.5 -51.5t-25.5 -66
t-17.5 -72.5t-14 -82.5q-16 -96 -16 -154q0 -92 44 -143t156 -51q105 0 172 29q14 58 29 147l78 495q-70 24 -146 24z" />
    <glyph glyph-name="e" unicode="e" horiz-adv-x="1147" 
d="M140 547q48 302 176.5 432t394.5 130q114 0 193 -23.5t124.5 -70.5t65.5 -109t20 -147q0 -78 -18 -191q-5 -39 -17 -87q-90 -17 -244 -33t-272 -22l-178 -9q0 -3 -1.5 -18.5t-1.5 -23.5q0 -97 55 -134t168 -37q158 0 390 29l-9 -206q-256 -42 -476 -42q-107 0 -183 27
t-119.5 79t-63.5 119.5t-20 155.5q0 77 16 181zM407 603l185 10q157 9 245 21q3 10 9 44q6 38 6 68q0 77 -41 115.5t-133 38.5q-58 0 -101.5 -15t-71.5 -39.5t-48 -64.5t-30.5 -80.5t-19.5 -97.5z" />
    <glyph glyph-name="f" unicode="f" horiz-adv-x="758" 
d="M621 1191l-16 -97h221l-33 -207h-221l-140 -887h-267l140 887h-176l33 207h177l14 96q26 165 127.5 253.5t273.5 88.5q78 0 162 -12l-51 -191h-83q-139 0 -161 -138z" />
    <glyph glyph-name="g" unicode="g" horiz-adv-x="1178" 
d="M71 -372l54 202q222 -32 384 -32q107 0 165 50.5t74 152.5l5 32q-108 -23 -208 -23q-210 0 -308.5 83t-98.5 281q0 85 16 185q25 157 71.5 263t121 169.5t171.5 90.5t232 27q117 0 228 -25t188 -76q-8 -107 -24 -208l-137 -863q-13 -83 -46.5 -146.5t-78.5 -102.5
t-107 -63.5t-125.5 -33.5t-139.5 -9q-186 0 -437 46zM423 559q-16 -98 -16 -149q0 -91 49.5 -138t176.5 -47q75 0 154 24l74 471q14 88 17 146q-56 29 -162 29q-64 0 -112.5 -19.5t-78 -48.5t-51 -77t-32 -89.5t-19.5 -101.5z" />
    <glyph glyph-name="h" unicode="h" horiz-adv-x="1190" 
d="M1009 0h-268l106 666q8 45 8 89q0 71 -42 101.5t-154 30.5q-95 0 -178 -34l-135 -853h-268l240 1517h268l-70 -443q118 35 243 35q110 0 185 -19.5t115 -57.5t56.5 -84.5t16.5 -110.5q0 -62 -13 -145z" />
    <glyph glyph-name="i" unicode="i" horiz-adv-x="549" 
d="M594 1429q0 -19 -5 -51q-14 -86 -53.5 -120.5t-128.5 -34.5q-75 0 -106.5 23.5t-31.5 78.5q0 20 5 53q14 86 53.5 120t128.5 34q75 0 106.5 -23.5t31.5 -79.5zM80 0l173 1094h269l-174 -1094h-268z" />
    <glyph glyph-name="j" unicode="j" horiz-adv-x="556" 
d="M426 1223q-74 0 -105.5 23t-31.5 78q0 21 5 54q14 86 53.5 120t128.5 34q74 0 106 -23.5t32 -78.5q0 -25 -4 -52q-14 -86 -53.5 -120.5t-130.5 -34.5zM95 -23l177 1117h270l-171 -1078q-37 -235 -155 -334.5t-349 -99.5q-35 0 -71 3l53 202q44 5 71.5 10t60.5 17.5
t53 31.5t37 52t24 79z" />
    <glyph glyph-name="k" unicode="k" horiz-adv-x="1118" 
d="M585 1517l-143 -901l442 478h306l-483 -504l331 -590h-323l-284 544l-86 -544h-267l240 1517h267z" />
    <glyph glyph-name="l" unicode="l" horiz-adv-x="531" 
d="M104 278l196 1239h268l-193 -1218q-7 -49 -7 -78q0 -82 44 -162l-254 -113q-64 94 -64 219q0 54 10 113z" />
    <glyph glyph-name="m" unicode="m" horiz-adv-x="1716" 
d="M1646 697l-110 -697h-267l106 672q8 50 8 83q0 69 -35.5 102t-121.5 33q-82 0 -158 -36q1 -9 1 -28q0 -52 -12 -129l-110 -697h-267l107 672q7 42 7 82q0 69 -34.5 102.5t-116.5 33.5q-81 0 -142 -29q-15 -56 -30 -146l-113 -715h-266l127 800q17 106 42 208
q202 101 470 101q165 0 249 -63q175 63 337 63q99 0 167.5 -20t105.5 -59t52.5 -86.5t15.5 -111.5q0 -54 -12 -135z" />
    <glyph glyph-name="n" unicode="n" horiz-adv-x="1184" 
d="M471 715l-113 -715h-266l126 800q18 110 43 208q202 101 495 101q89 0 155 -13t108 -35t68 -56.5t36 -73.5t10 -90q0 -53 -14 -144l-111 -697h-266l106 672q9 51 9 89q0 69 -41 99t-146 31q-101 0 -169 -30q-15 -56 -30 -146z" />
    <glyph glyph-name="o" unicode="o" horiz-adv-x="1158" 
d="M533 -15q-217 0 -313 84t-96 277q0 87 18 201q49 307 177.5 434.5t392.5 127.5q216 0 312.5 -85.5t96.5 -278.5q0 -87 -18 -198q-48 -305 -177.5 -433.5t-392.5 -128.5zM391 368q0 -93 38.5 -128t133.5 -35q128 0 185 71.5t88 270.5q17 108 17 173q0 94 -39 132t-133 38
q-87 0 -137 -29.5t-81 -102t-53 -211.5q-19 -117 -19 -179z" />
    <glyph glyph-name="p" unicode="p" horiz-adv-x="1175" 
d="M378 9l-66 -412h-267l190 1203q15 93 43 208q185 101 448 101q228 0 332 -82.5t104 -285.5q0 -91 -17 -194q-25 -159 -70 -266.5t-115.5 -173.5t-162.5 -94t-219 -28q-95 0 -200 24zM558 200q54 0 96.5 9.5t72.5 23.5t53.5 41.5t37.5 51.5t26 66t18 72.5t14 82.5
q16 96 16 155q0 92 -44 142.5t-156 50.5q-105 0 -172 -29q-18 -71 -30 -146l-78 -496q70 -24 146 -24z" />
    <glyph glyph-name="q" unicode="q" horiz-adv-x="1174" 
d="M1137 800l-190 -1203h-268l66 412q-113 -24 -209 -24q-210 0 -307.5 83.5t-97.5 282.5q0 91 17 196q26 162 71.5 269.5t119.5 172.5t171 92.5t235 27.5q117 0 228 -25t188 -76q-5 -93 -24 -208zM874 866q-56 29 -162 29q-48 0 -87 -10.5t-66.5 -26.5t-50 -44t-36 -54.5
t-25 -66t-17.5 -70t-13 -76.5q-18 -118 -18 -162q0 -91 49.5 -138t176.5 -47q73 0 154 24l78 496q14 88 17 146z" />
    <glyph glyph-name="r" unicode="r" horiz-adv-x="723" 
d="M356 0h-266l127 800q17 106 42 208q185 101 448 101q66 0 107 -5l-56 -219q-29 4 -77 4q-112 0 -183 -34q-15 -55 -30 -147z" />
    <glyph glyph-name="s" unicode="s" horiz-adv-x="983" 
d="M635 329q0 20 -7.5 36.5t-17 26t-29.5 19t-33 14t-40 12.5t-39 12q-40 13 -62 21t-57 23t-55 28t-45 34.5t-38 45t-22 55.5t-9 70q0 30 6 65q50 318 434 318q199 0 386 -45l-57 -199q-150 31 -267 31q-35 0 -56 -0.5t-55.5 -5.5t-55.5 -14.5t-39 -28t-22 -45.5
q-4 -23 2.5 -42t17 -30.5t32.5 -23.5t37 -17t44 -14.5t42 -14.5q124 -46 158 -64q97 -53 116 -145q6 -28 6 -60q0 -35 -6 -75q-15 -94 -57.5 -160.5t-107.5 -102.5t-140.5 -52t-169.5 -16q-206 0 -376 48l58 202q172 -33 287 -33h38.5t40 2t44 5.5t37.5 11t36 18.5t24 28.5
t15 39.5q2 16 2 22z" />
    <glyph glyph-name="t" unicode="t" horiz-adv-x="783" 
d="M383 1359l274 44l-49 -309h215l-32 -207h-216l-90 -566q-3 -21 -3 -37q0 -48 26 -68.5t84 -20.5q44 0 91 3l-10 -194q-110 -19 -186 -19q-145 0 -213 55.5t-68 170.5q0 35 8 83l94 593h-175l33 207h175z" />
    <glyph glyph-name="u" unicode="u" horiz-adv-x="1180" 
d="M149 398l111 696h267l-107 -672q-8 -45 -8 -90q0 -70 40 -99.5t144 -29.5q100 0 168 30q15 55 30 147l114 714h266l-127 -800q-17 -103 -42 -207q-204 -102 -495 -102q-110 0 -185 19t-115.5 56t-57.5 83t-17 110q0 56 14 145z" />
    <glyph glyph-name="v" unicode="v" horiz-adv-x="1144" 
d="M1233 1094l-478 -942q-85 -167 -229 -167q-72 0 -115.5 40.5t-59.5 126.5l-180 942h282l125 -819l384 819h271z" />
    <glyph glyph-name="w" unicode="w" horiz-adv-x="1631" 
d="M184 1094h273l37 -814l239 553q76 177 204 177q129 0 149 -177l62 -551l296 812h264l-381 -928q-74 -181 -215 -181q-139 0 -164 180l-70 505l-226 -504q-82 -181 -222 -181q-72 0 -111.5 44t-48.5 138z" />
    <glyph glyph-name="x" unicode="x" horiz-adv-x="1177" 
d="M675 767l265 327h287l-444 -524l300 -570h-312l-181 362l-290 -362h-294l478 565l-278 529h306z" />
    <glyph glyph-name="y" unicode="y" horiz-adv-x="1105" 
d="M622 419l316 675h272l-736 -1497h-272l245 480l-270 1017h283z" />
    <glyph glyph-name="z" unicode="z" horiz-adv-x="1088" 
d="M1057 912l-599 -690h494l-35 -222h-763q-52 0 -77.5 24.5t-18.5 65.5q6 42 51 94l604 698h-487l33 212h753q50 0 76.5 -24t19.5 -65q-7 -43 -51 -93z" />
    <glyph glyph-name="braceleft" unicode="{" horiz-adv-x="662" 
d="M439 216l-16 -102q-11 -68 -11 -105q0 -61 29.5 -96.5t105.5 -45.5l-52 -189q-86 7 -143 22.5t-101.5 46t-65 82.5t-20.5 129q0 52 11 127q24 150 24 235q0 80 -24.5 117t-82.5 43l30 187q89 9 131 92.5t76 302.5q19 116 54 192.5t93 121t128 65t174 28.5l-8 -188
q-46 -6 -80 -22t-54 -36t-34.5 -54t-20.5 -62t-14 -74l-16 -103q-25 -146 -47 -205q-45 -116 -136 -152q85 -46 85 -198q0 -54 -15 -159z" />
    <glyph glyph-name="bar" unicode="|" horiz-adv-x="530" 
d="M154 -403v1920h224v-1920h-224z" />
    <glyph glyph-name="braceright" unicode="}" horiz-adv-x="663" 
d="M313 930l17 103q11 70 11 106q0 61 -30 96.5t-106 45.5l52 188q86 -7 143.5 -22.5t102 -46.5t65 -83t20.5 -129q0 -52 -11 -126q-25 -165 -25 -234q0 -81 25 -118.5t83 -42.5l-30 -187q-90 -9 -131.5 -92.5t-75.5 -302.5q-19 -116 -53.5 -192.5t-93 -121t-128 -65
t-173.5 -28.5l7 189q46 6 80 22t54 35.5t34 54t20.5 62t13.5 73.5l16 102q9 59 19.5 103t30.5 98.5t54 94.5t79 61q-89 41 -89 182q0 59 19 175z" />
    <glyph glyph-name="asciitilde" unicode="~" horiz-adv-x="1235" 
d="M1000 851h220q-48 -198 -146 -302t-214 -104q-67 0 -118.5 18t-82.5 43.5t-57 51t-56.5 43.5t-65.5 18q-87 0 -142 -166h-220q48 197 145.5 301t213.5 104q67 0 118.5 -18t83 -43.5t57.5 -51t56.5 -43.5t65.5 -18q84 0 142 167z" />
    <glyph glyph-name="uni00A0" unicode="&#xa0;" horiz-adv-x="522" 
 />
    <glyph glyph-name="exclamdown" unicode="&#xa1;" horiz-adv-x="575" 
d="M383 787q-75 0 -106.5 23.5t-31.5 79.5q0 26 4 51q14 86 53.5 120.5t128.5 34.5q75 0 106.5 -23.5t31.5 -78.5q0 -20 -5 -53q-14 -86 -53 -120t-128 -34zM45 -351l203 1013h230l-119 -1013h-314z" />
    <glyph glyph-name="cent" unicode="&#xa2;" horiz-adv-x="887" 
d="M811 390l-10 -200q-116 -29 -238 -37l-30 -188h-178l30 189q-75 9 -127.5 39t-81.5 77t-41.5 103t-12.5 126q0 82 19 205q19 122 46.5 206.5t74 154.5t119 110.5t174.5 55.5l31 193h178l-29 -185q119 -5 224 -40l-51 -194q-127 25 -184 25q-62 0 -105.5 -6t-77 -23
t-54.5 -39t-37.5 -62t-26.5 -83.5t-21 -112.5q-19 -117 -19 -172q0 -90 51 -129t187 -39q66 0 190 26z" />
    <glyph glyph-name="sterling" unicode="&#xa3;" horiz-adv-x="1195" 
d="M313 599h-194l32 207h165q3 86 21 202q18 114 68.5 194t128 122.5t164 60.5t194.5 18q58 0 105 -9t79.5 -22t66 -39t54.5 -47.5t54 -59.5l-166 -168q-54 57 -102 84t-120 27q-127 0 -183 -48t-73 -159q-11 -67 -14 -156h294l-32 -207h-276q-6 -66 -12 -99
q-18 -108 -97 -263h237q177 0 347 26l-11 -220q-172 -43 -475 -43h-314q-62 0 -91.5 25t-29.5 65q0 6 2 20q4 27 27.5 67t49.5 78t52.5 100t37.5 129q8 49 11 115z" />
    <glyph glyph-name="currency" unicode="&#xa4;" horiz-adv-x="1306" 
d="M1062 433l152 -146l-158 -157l-150 152q-120 -72 -253 -72q-140 0 -255 71l-151 -152l-155 158l151 147q-72 112 -72 251q0 138 73 255l-152 150l155 156l152 -153q117 71 254 71t253 -70l150 151l158 -155l-152 -147q76 -116 76 -258q0 -136 -76 -252zM653 429
q102 0 178.5 74.5t76.5 181.5t-74 184t-181 77q-103 0 -178.5 -76t-75.5 -185q0 -105 73.5 -180.5t180.5 -75.5z" />
    <glyph glyph-name="yen" unicode="&#xa5;" horiz-adv-x="1146" 
d="M499 1389l150 -567l338 567h270l-381 -626h146l-26 -169h-222l-35 -58l-12 -75h248l-26 -166h-249l-46 -295h-274l46 295h-245l26 166h246l12 75l-17 58h-219l25 169h145l-180 626h280z" />
    <glyph glyph-name="brokenbar" unicode="&#xa6;" horiz-adv-x="490" 
d="M133 -289v661h225v-661h-225zM133 743v660h225v-660h-225z" />
    <glyph glyph-name="section" unicode="&#xa7;" horiz-adv-x="1120" 
d="M1155 1400l-57 -199q-168 34 -334 34q-185 0 -205 -122q-5 -33 9 -60.5t49.5 -52t66 -40.5t82.5 -39q46 -20 75.5 -35t71 -38.5t68 -48.5t52 -57t38 -72t12.5 -86q0 -28 -4 -55q-26 -162 -200 -265q56 -70 56 -160q0 -27 -4 -50q-12 -79 -50.5 -141t-90 -100.5
t-118.5 -64t-132 -35.5t-135 -10q-206 0 -389 45l58 205q167 -35 332 -35h41t43 2.5t46.5 6.5t41 13t38.5 22t26.5 33t16.5 46q4 22 -0.5 41.5t-20.5 36.5t-30.5 29.5t-45 28.5t-49 24.5t-56.5 25.5q-39 17 -59 26.5t-56 27.5t-56.5 32.5t-48.5 36t-44 43.5t-32 49.5t-23 60
t-7 69.5q0 36 5 63q26 167 198 272q-46 67 -46 143q0 21 3 45q25 157 152.5 254t321.5 97q203 0 390 -46zM830 507q2 14 2 22q0 47 -36.5 86t-117.5 81q-28 14 -97.5 42t-104.5 48q-86 -45 -99 -129q-2 -16 -2 -24q0 -88 134 -157q33 -17 109 -46t111 -48q89 48 101 125z
" />
    <glyph glyph-name="dieresis" unicode="&#xa8;" horiz-adv-x="871" 
d="M315 1168q-51 0 -83 32t-32 81q0 8 2 22q9 57 54.5 96t101.5 39q49 0 79.5 -31t30.5 -80q0 -8 -2 -24q-9 -57 -52.5 -96t-98.5 -39zM724 1168q-50 0 -82 31.5t-32 80.5q0 7 2 23q9 57 54 96t101 39q50 0 80 -31t30 -80q0 -16 -1 -24q-9 -57 -52.5 -96t-99.5 -39z" />
    <glyph glyph-name="copyright" unicode="&#xa9;" horiz-adv-x="1633" 
d="M1003 595h170q-12 -139 -111.5 -224t-236.5 -85q-181 0 -277.5 120t-96.5 312q0 83 24.5 159t70 136t118 96t161.5 36q58 0 114.5 -17.5t106 -51t84 -90t43.5 -127.5h-170q-11 69 -58.5 106.5t-119.5 37.5q-87 0 -140 -76.5t-53 -208.5q0 -133 51 -207t142 -74
q67 0 116 42.5t62 115.5zM817 1446q199 0 367 -97t266 -264.5t98 -366.5q0 -149 -58 -284.5t-155.5 -234t-233 -156.5t-284.5 -58q-199 0 -367 98.5t-265.5 267t-97.5 367.5q0 149 57.5 284t155.5 232t233 154.5t284 57.5zM817 1293q-158 0 -288.5 -75.5t-205.5 -207.5
t-75 -292q0 -162 75 -295t205.5 -208.5t288.5 -75.5t289 75.5t206 208.5t75 295q0 120 -44 226.5t-120 183t-182 121t-224 44.5z" />
    <glyph glyph-name="ordfeminine" unicode="&#xaa;" horiz-adv-x="836" 
d="M823 1169l-51 -316q-13 -81 -28 -141q-129 -71 -342 -71q-132 0 -192.5 45t-60.5 136q0 23 5 58q31 204 244 238q75 12 236 18q3 20 3 36q0 47 -28 69t-88 22q-119 0 -265 -19l7 137q166 29 296 29q60 0 105.5 -8.5t83.5 -28.5t58.5 -58t20.5 -92q0 -29 -4 -54zM445 999
q-51 -12 -74 -36t-32 -81q-2 -10 -2 -27q0 -41 26.5 -57t81.5 -16q82 0 133 20q3 14 19 101l18 113q-121 -6 -170 -17z" />
    <glyph glyph-name="guillemotleft" unicode="&#xab;" horiz-adv-x="1132" 
d="M369 530l201 -424h-250l-227 424l361 424h250zM831 530l199 -424h-248l-228 424l362 424h248z" />
    <glyph glyph-name="logicalnot" unicode="&#xac;" horiz-adv-x="1253" 
d="M1195 823l-103 -644h-239l65 411h-757l37 233h997z" />
    <glyph glyph-name="uni00AD" unicode="&#xad;" horiz-adv-x="782" 
d="M151 435l35 219h530l-35 -219h-530z" />
    <glyph glyph-name="registered" unicode="&#xae;" horiz-adv-x="1042" 
d="M468 959v-189h-112v485h176q101 0 146.5 -37t45.5 -110q0 -102 -87 -131l101 -207h-125l-91 189h-54zM77 1003q0 184 130 313.5t315 129.5q184 0 313.5 -129.5t129.5 -313.5q0 -121 -59 -223.5t-161 -162t-223 -59.5q-184 0 -314.5 130t-130.5 315zM855 1003
q0 142 -96.5 239.5t-236.5 97.5t-237 -97.5t-97 -239.5q0 -144 96.5 -241.5t237.5 -97.5t237 97.5t96 241.5zM517 1162h-49v-109h51q95 0 95 55q0 29 -23 41.5t-74 12.5z" />
    <glyph glyph-name="macron" unicode="&#xaf;" horiz-adv-x="866" 
d="M214 1214l28 170h615l-28 -170h-615z" />
    <glyph glyph-name="degree" unicode="&#xb0;" horiz-adv-x="802" 
d="M401 798q-134 0 -229.5 95t-95.5 229t95.5 229t229.5 95t229.5 -95t95.5 -229t-95.5 -229t-229.5 -95zM401 953q71 0 120 49t49 120t-49 120t-120 49t-120 -49.5t-49 -119.5q0 -71 49 -120t120 -49z" />
    <glyph glyph-name="plusminus" unicode="&#xb1;" horiz-adv-x="1185" 
d="M567 884l50 320h238l-51 -320h379l-37 -231h-379l-51 -322h-237l51 322h-380l37 231h380zM47 -1l37 232h996l-37 -232h-996z" />
    <glyph glyph-name="twosuperior" unicode="&#xb2;" horiz-adv-x="706" 
d="M226 1647q159 30 282 30q267 0 267 -175q0 -20 -3 -44q-18 -113 -90 -187.5t-202 -124.5q-77 -29 -109 -61.5t-50 -90.5h377l-25 -160h-590q27 81 41.5 122.5t37.5 94t43 79.5t51 58.5t69 53t90 42.5q81 33 117.5 64t45.5 83q2 18 2 23q0 40 -36 54t-130 14
q-65 0 -193 -20z" />
    <glyph glyph-name="threesuperior" unicode="&#xb3;" horiz-adv-x="695" 
d="M755 1459q-19 -122 -133 -184q91 -44 91 -138q0 -20 -3 -41q-24 -147 -115.5 -208t-251.5 -61q-112 0 -257 30l42 145q135 -19 210 -19q87 0 126 21t49 86q3 15 3 28q0 62 -61 70q-60 8 -166 8h-25l21 138q99 3 194 16q70 10 82 91q2 14 2 20q0 40 -29.5 52.5t-89.5 12.5
q-61 0 -229 -21l4 144q153 29 263 29q48 0 86 -4t75 -15.5t61.5 -30.5t39.5 -50t15 -73q0 -12 -4 -46z" />
    <glyph glyph-name="acute" unicode="&#xb4;" horiz-adv-x="529" 
d="M131 1153l238 328h277l-311 -328h-204z" />
    <glyph glyph-name="mu" unicode="&#xb5;" horiz-adv-x="1278" 
d="M71 -403l237 1497h247l-105 -660q-5 -33 -5 -57q0 -79 39.5 -125.5t113.5 -46.5q233 0 298 413l75 476h249l-106 -670q-16 -96 -16 -141q0 -93 69 -118l-28 -180q-232 0 -267 186q-130 -186 -310 -186q-110 0 -171 75l-73 -463h-247z" />
    <glyph glyph-name="paragraph" unicode="&#xb6;" horiz-adv-x="1298" 
d="M632 -315h-202l141 884q-184 7 -295 108.5t-111 253.5q0 28 5 63q35 216 193 327t408 111h553l-277 -1747h-201l249 1569h-214z" />
    <glyph glyph-name="periodcentered" unicode="&#xb7;" horiz-adv-x="557" 
d="M300 430q-76 0 -107 22t-31 77q0 25 6 58q14 90 53 123.5t129 33.5q76 0 107 -22.5t31 -78.5q0 -29 -5 -56q-14 -90 -53 -123.5t-130 -33.5z" />
    <glyph glyph-name="cedilla" unicode="&#xb8;" horiz-adv-x="439" 
d="M47 -191l142 191h146l-90 -116q55 -6 93.5 -39t38.5 -86q0 -7 -2 -21q-14 -91 -88 -135t-175 -44q-94 0 -162 47l54 105q63 -35 123 -35q72 0 81 55q5 29 -25 48t-65 24.5t-71 5.5z" />
    <glyph glyph-name="onesuperior" unicode="&#xb9;" horiz-adv-x="486" 
d="M237 836l103 648q-89 -19 -180 -29l15 148q127 18 237 66h144l-132 -833h-187z" />
    <glyph glyph-name="ordmasculine" unicode="&#xba;" horiz-adv-x="855" 
d="M447 641q-149 0 -215.5 57.5t-66.5 190.5q0 59 12 137q33 210 121.5 297t271.5 87q150 0 216 -58t66 -191q0 -60 -12 -135q-33 -209 -122 -297t-271 -88zM352 903q0 -65 26.5 -89t90.5 -24q86 0 124 49t60 187q12 82 12 119q0 65 -26.5 90.5t-91.5 25.5
q-86 0 -123.5 -47.5t-59.5 -187.5q-12 -75 -12 -123z" />
    <glyph glyph-name="guillemotright" unicode="&#xbb;" horiz-adv-x="1133" 
d="M662 530l-362 -424h-248l333 424l-199 424h248zM1123 530l-362 -424h-249l335 424l-201 424h250z" />
    <glyph glyph-name="onequarter" unicode="&#xbc;" horiz-adv-x="1526" 
d="M1116 0l29 184h-256q-106 0 -106 73q0 7 2 23q8 51 81 131l324 352q42 46 74.5 62.5t73.5 16.5q37 0 59 -21t22 -60q0 -15 -1 -24l-65 -408h98l-23 -145h-98l-29 -184h-185zM449 1430h144l-132 -833h-188l103 647q-75 -16 -180 -28l15 147q136 20 238 67zM1415 1461
l-1060 -1490h-185l1060 1490h185zM986 329h183l40 250z" />
    <glyph glyph-name="onehalf" unicode="&#xbd;" horiz-adv-x="1698" 
d="M1107 812q159 30 282 30q127 0 197.5 -38.5t70.5 -133.5q0 -20 -3 -44q-18 -113 -90 -188.5t-202 -125.5q-77 -29 -109 -62t-50 -91h376l-25 -159h-589q27 81 41.5 122.5t37.5 94t43 79.5t51 58.5t69 53t90 42.5q80 33 116.5 64t45.5 83q2 16 2 22q0 40 -36 54.5
t-129 14.5q-77 0 -195 -20zM200 1216l15 147q136 20 238 67h144l-132 -833h-187l102 647q-80 -17 -180 -28zM1233 1461h186l-1060 -1490h-184z" />
    <glyph glyph-name="threequarters" unicode="&#xbe;" horiz-adv-x="1667" 
d="M1259 0l30 184h-257q-106 0 -106 73q0 7 2 23q8 53 81 131l324 352q42 45 75 62t73 17q37 0 59.5 -20.5t22.5 -60.5q0 -6 -2 -24l-65 -408h98l-23 -145h-98l-30 -184h-184zM786 1219q-19 -121 -132 -183q90 -43 90 -138q0 -20 -3 -41q-24 -148 -115 -208.5t-252 -60.5
q-103 0 -257 30l42 145q142 -20 209 -20q86 0 125.5 21.5t50.5 86.5q0 1 1.5 11t1.5 15q0 63 -62 72q-60 8 -164 8h-26l21 138q112 3 194 16q68 10 81 91q2 14 2 20q0 39 -29 51.5t-88 12.5q-70 0 -230 -20l4 143q158 30 262 30q61 0 106.5 -7t86.5 -25t63 -54t22 -88
q0 -12 -4 -46zM1558 1461l-1060 -1490h-185l1060 1490h185zM1129 329h182l40 250z" />
    <glyph glyph-name="questiondown" unicode="&#xbf;" horiz-adv-x="1065" 
d="M583 662h235l-17 -135q-2 -21 -7 -50q-11 -72 -39.5 -117t-65.5 -63t-79.5 -27t-85 -17t-79 -24t-64 -56.5t-38.5 -106.5q-5 -35 -5 -57q0 -75 52.5 -103.5t186.5 -28.5q182 0 340 31l13 -225q-210 -49 -424 -49q-91 0 -156 6.5t-127 26t-100 53.5t-61 91t-23 136
q0 51 11 120q16 100 50.5 171.5t78 108t93 59.5t97 33.5t87.5 21t68.5 31.5t35.5 57zM769 1096q75 0 106 -23t31 -79q0 -20 -5 -53q-14 -86 -53 -120t-128 -34q-74 0 -105.5 23.5t-31.5 79.5q0 26 4 51q14 86 53.5 120.5t128.5 34.5z" />
    <glyph glyph-name="Agrave" unicode="&#xc0;" horiz-adv-x="1346" 
d="M266 0h-293l614 1247q98 199 263 199q162 0 196 -199l214 -1247h-303l-51 355h-479zM764 1573l-236 266h297l157 -266h-218zM528 578h346l-83 578z" />
    <glyph glyph-name="Aacute" unicode="&#xc1;" horiz-adv-x="1347" 
d="M267 0h-293l613 1247q98 199 263 199q163 0 197 -199l213 -1247h-302l-51 355h-479zM755 1561l242 266h296l-319 -266h-219zM528 578h346l-83 578z" />
    <glyph glyph-name="Acircumflex" unicode="&#xc2;" horiz-adv-x="1347" 
d="M267 0h-293l613 1247q98 199 263 199q163 0 197 -199l213 -1247h-303l-51 355h-478zM822 1827h164l212 -267h-211l-100 142l-148 -142h-208zM529 578h345l-82 578z" />
    <glyph glyph-name="Atilde" unicode="&#xc3;" horiz-adv-x="1347" 
d="M1053 1817h139q-28 -121 -89.5 -186t-127.5 -65q-42 0 -72.5 17t-44.5 37t-30.5 37t-33.5 17q-46 0 -77 -103h-139q28 121 89 186t127 65q42 0 72.5 -17t44.5 -37t30.5 -37t33.5 -17q45 0 78 103zM-26 0l613 1247q98 199 263 199q163 0 197 -199l213 -1247h-302l-51 355
h-479l-161 -355h-293zM874 578l-83 578l-263 -578h346z" />
    <glyph glyph-name="Adieresis" unicode="&#xc4;" horiz-adv-x="1346" 
d="M661 1556q-51 0 -83 32t-32 81q0 14 1 21q9 57 55 96.5t102 39.5q49 0 79.5 -31.5t30.5 -80.5q0 -8 -2 -24q-9 -57 -52.5 -95.5t-98.5 -38.5zM1070 1556q-50 0 -82 31.5t-32 80.5q0 8 2 22q9 57 53.5 96.5t100.5 39.5q50 0 80.5 -31.5t30.5 -80.5q0 -8 -2 -24
q-9 -57 -52 -95.5t-99 -38.5zM267 0h-293l613 1247q98 199 263 199q162 0 196 -199l214 -1247h-303l-51 355h-478zM528 578h346l-83 578z" />
    <glyph glyph-name="Aring" unicode="&#xc5;" horiz-adv-x="1347" 
d="M1108 1790q0 -17 -3 -35q-13 -88 -85 -151t-159 -63q-78 0 -128.5 51.5t-50.5 128.5q0 16 3 34q14 89 85 151.5t158 62.5q78 0 129 -51t51 -128zM267 0h-293l613 1247q98 199 263 199q163 0 197 -199l213 -1247h-303l-51 355h-478zM878 1650q43 0 77.5 30.5t42.5 74.5
q7 44 -18.5 75t-68.5 31t-78 -31t-42 -75q-7 -43 18.5 -74t68.5 -31zM528 578h346l-83 578z" />
    <glyph glyph-name="AE" unicode="&#xc6;" horiz-adv-x="1835" 
d="M267 0h-293l611 1234q32 64 72.5 107t90.5 65.5t100 31t115 8.5q126 0 200 -55q44 20 104 30t106.5 12t122.5 2q188 0 380 -10l-36 -226h-387q-125 0 -167 -36.5t-61 -156.5l-26 -162h558l-36 -231h-558l-29 -186q-9 -51 -9 -86q0 -64 37 -86.5t138 -22.5h387l-36 -225
q-218 -11 -383 -11q-58 0 -97 1.5t-89.5 7t-83.5 15.5t-68 29.5t-55.5 46.5t-33.5 67.5t-13 92.5q0 37 8 90l2 9h-408zM532 578h341l82 516q4 30 4 40q0 72 -65 72q-73 0 -119 -100z" />
    <glyph glyph-name="Ccedilla" unicode="&#xc7;" horiz-adv-x="1128" 
d="M1164 1179q-144 24 -285 24q-71 0 -127 -13.5t-95.5 -32.5t-70.5 -58t-49.5 -72t-34.5 -93t-24 -101.5t-20 -116.5q-27 -170 -27 -239q0 -60 13.5 -103.5t45.5 -77t90.5 -50.5t143.5 -17q143 0 292 24l-10 -225q-135 -36 -316 -42l-72 -92q55 -6 94 -39t39 -85
q0 -15 -1 -22q-15 -91 -89.5 -135t-175.5 -44q-95 0 -162 46l54 105q63 -35 124 -35q30 0 52.5 13.5t27.5 42.5t-25 48t-65 24.5t-71 5.5l126 169q-220 16 -313.5 120.5t-93.5 316.5q0 120 28 291q21 132 47.5 231.5t66 183.5t91.5 141t123 97t162.5 58.5t207.5 18.5
q210 0 360 -43z" />
    <glyph glyph-name="Egrave" unicode="&#xc8;" horiz-adv-x="1141" 
d="M1182 1425l-35 -226h-388q-65 0 -103 -7.5t-64 -30.5t-38 -57.5t-22 -97.5l-26 -162h558l-37 -231h-558l-29 -186q-9 -51 -9 -87q0 -64 37 -86t137 -22h388l-36 -225q-218 -11 -382 -11q-58 0 -97 1.5t-89.5 7t-83.5 15.5t-68 29.5t-55.5 46.5t-33.5 67.5t-13 92.5
q0 46 8 90l117 740q9 55 25 100t35 79t48 60.5t56 44t65.5 30t70.5 19.5t78 10.5t80 4.5t84 1q188 0 380 -10zM779 1550l-235 266h296l158 -266h-219z" />
    <glyph glyph-name="Eacute" unicode="&#xc9;" horiz-adv-x="1142" 
d="M143 346l117 740q9 55 25 100t35 79t48 60.5t56 44t65.5 30t70.5 19.5t78 10.5t80 4.5t84 1q188 0 380 -10l-35 -226h-388q-65 0 -103 -7.5t-64 -30.5t-38 -57.5t-22 -97.5l-26 -162h558l-36 -231h-559l-28 -186q-9 -51 -9 -87q0 -64 37 -86t137 -22h387l-36 -225
q-218 -11 -382 -11q-58 0 -97 1.5t-89.5 7t-83.5 15.5t-68 29.5t-55.5 46.5t-33.5 67.5t-13 92.5q0 46 8 90zM645 1550l241 266h296l-319 -266h-218z" />
    <glyph glyph-name="Ecircumflex" unicode="&#xca;" horiz-adv-x="1141" 
d="M1182 1425l-36 -226h-388q-86 0 -129 -16.5t-63.5 -55t-33.5 -121.5l-26 -162h558l-37 -231h-558l-29 -186q-9 -51 -9 -87q0 -64 37 -86t137 -22h388l-36 -225q-220 -11 -383 -11q-51 0 -85.5 1t-79.5 4.5t-75.5 11.5t-64.5 20t-56 31.5t-41 46t-28 63t-9 82.5t8 90
l117 740q9 55 25 100t35 79t48 60.5t56 44t65.5 30t70.5 19.5t78 10.5t80 4.5t84 1q188 0 380 -10zM755 1816h164l212 -267h-211l-99 142l-149 -142h-208z" />
    <glyph glyph-name="Edieresis" unicode="&#xcb;" horiz-adv-x="1140" 
d="M1181 1425l-36 -226h-387q-65 0 -103 -7.5t-64 -30.5t-38 -57.5t-22 -97.5l-26 -162h558l-37 -231h-558l-29 -186q-9 -51 -9 -85q0 -64 37.5 -87t137.5 -23h387l-35 -225q-220 -11 -384 -11q-58 0 -97 1.5t-89.5 7t-83 16t-67.5 29.5t-55 46.5t-33 68t-13 92.5q0 43 7 89
l117 740q9 55 25 100t35.5 79t48 60.5t55.5 44t65.5 30t70.5 19.5t78 10.5t80 4.5t84 1q188 0 380 -10zM595 1546q-51 0 -82.5 32t-31.5 81q0 15 1 22q9 57 54.5 96t101.5 39q49 0 79.5 -31t30.5 -80q0 -16 -1 -24q-9 -57 -53 -96t-99 -39zM1005 1546q-50 0 -82 31.5
t-32 80.5q0 9 2 23q9 57 53.5 96t100.5 39q50 0 80.5 -31t30.5 -80q0 -8 -2 -24q-9 -57 -52 -96t-99 -39z" />
    <glyph glyph-name="Igrave" unicode="&#xcc;" horiz-adv-x="586" 
d="M93 0l227 1432h286l-227 -1432h-286zM386 1555l-235 266h296l158 -266h-219z" />
    <glyph glyph-name="Iacute" unicode="&#xcd;" horiz-adv-x="586" 
d="M93 0l227 1432h286l-227 -1432h-286zM359 1555l243 266h296l-320 -266h-219z" />
    <glyph glyph-name="Icircumflex" unicode="&#xce;" horiz-adv-x="586" 
d="M439 1811h164l212 -267h-211l-100 142l-148 -142h-209zM93 0l227 1432h286l-227 -1432h-286z" />
    <glyph glyph-name="Idieresis" unicode="&#xcf;" horiz-adv-x="586" 
d="M278 1542q-51 0 -83 32t-32 81q0 7 2 21q9 57 54 96t101 39q49 0 80 -31t31 -80q0 -8 -2 -24q-9 -57 -52.5 -95.5t-98.5 -38.5zM687 1542q-50 0 -82 31.5t-32 80.5q0 6 2 22q9 57 53.5 96t100.5 39q50 0 81 -31t31 -80q0 -8 -2 -24q-9 -57 -52.5 -95.5t-99.5 -38.5zM93 0
l227 1432h286l-227 -1432h-286z" />
    <glyph glyph-name="Eth" unicode="&#xd0;" horiz-adv-x="1386" 
d="M241 642h-109l30 191h109l91 573q214 40 464 40q151 0 254.5 -26.5t164 -83.5t86.5 -135.5t26 -191.5q0 -112 -28 -293q-17 -111 -37 -194.5t-50 -163t-69 -135.5t-93 -103t-123.5 -75.5t-160 -44t-202.5 -15.5q-248 0 -451 40zM526 642l-65 -409q64 -11 132 -11
q78 0 139 14t103.5 33.5t76 60t52.5 73t36 94.5t24.5 102t19.5 117q26 158 26 232q0 62 -14.5 107.5t-49.5 81.5t-99 54t-158 18q-61 0 -135 -10l-58 -366h205l-31 -191h-204z" />
    <glyph glyph-name="Ntilde" unicode="&#xd1;" horiz-adv-x="1422" 
d="M709 1258l307 -876l167 1050h256l-195 -1229q-34 -218 -207 -218q-79 0 -127 41.5t-85 147.5l-306 880l-166 -1054h-257l195 1229q34 217 207 217q75 0 125 -43.5t86 -144.5zM1096 1816h139q-28 -121 -89.5 -186.5t-127.5 -65.5q-34 0 -60 11t-41.5 27t-27.5 32.5
t-24.5 27.5t-26.5 11q-47 0 -78 -104h-140q28 121 90 186.5t128 65.5q42 0 72.5 -17t44.5 -37t30.5 -37t33.5 -17q44 0 77 103z" />
    <glyph glyph-name="Ograve" unicode="&#xd2;" horiz-adv-x="1348" 
d="M616 -15q-255 0 -364 103.5t-109 336.5q0 115 27 291q21 133 48.5 234.5t67 185t90.5 140.5t120 96t155 56.5t196 17.5q255 0 364 -103t109 -335q0 -125 -27 -292q-25 -160 -60 -275.5t-88 -205t-126.5 -143t-172.5 -80.5t-230 -27zM1004 716q30 193 30 269
q0 111 -48.5 166.5t-171.5 55.5q-39 0 -73 -5.5t-61.5 -18t-50.5 -27t-41.5 -38.5t-33 -46.5t-27 -57t-21 -63.5t-17.5 -72.5t-15 -77.5t-14 -85q-30 -193 -30 -269q0 -111 48.5 -166.5t171.5 -55.5q56 0 101 13t77 32.5t58 56.5t42.5 72t31.5 93t23.5 104t20.5 120z
M815 1554l-236 266h297l157 -266h-218z" />
    <glyph glyph-name="Oacute" unicode="&#xd3;" horiz-adv-x="1348" 
d="M616 -15q-255 0 -364 103t-109 336q0 126 27 292q21 133 48.5 234.5t67 185t90.5 140.5t120 96t155 56.5t196 17.5q255 0 364 -102.5t109 -335.5q0 -125 -27 -292q-25 -160 -60 -275.5t-88 -205t-126.5 -143t-172.5 -80.5t-230 -27zM430 447q0 -111 48.5 -166.5
t170.5 -55.5q39 0 73 5.5t61.5 18t50.5 27t41.5 38.5t33 46.5t27 57t21 63.5t17.5 72.5t15 77.5t14 85q31 200 31 270q0 111 -48.5 166t-171.5 55q-39 0 -73 -5.5t-61.5 -18t-50.5 -27t-41.5 -38.5t-33 -46.5t-27 -57t-21 -63.5t-17.5 -72.5t-15 -77.5t-14 -85
q-30 -193 -30 -269zM706 1554l242 266h296l-319 -266h-219z" />
    <glyph glyph-name="Ocircumflex" unicode="&#xd4;" horiz-adv-x="1348" 
d="M616 -15q-255 0 -364 103t-109 336q0 126 27 292q21 133 48.5 234.5t67 185t90.5 140.5t120 96t155 56.5t196 17.5q255 0 364 -103t109 -335q0 -119 -28 -292q-32 -201 -79 -334t-126 -225t-193 -132t-278 -40zM430 447q0 -111 48.5 -166.5t170.5 -55.5q39 0 73 5.5
t61.5 18t50.5 27t41.5 38.5t33 46.5t27 57t21 63.5t17.5 72.5t15 77.5t14 85q31 200 31 270q0 111 -48.5 166t-171.5 55q-39 0 -73 -5.5t-61.5 -18t-50.5 -27t-41.5 -38.5t-33 -46.5t-27 -57t-21 -63.5t-17.5 -72.5t-15 -77.5t-14 -85q-30 -193 -30 -269zM822 1821h164
l212 -268h-211l-100 142l-148 -142h-208z" />
    <glyph glyph-name="Otilde" unicode="&#xd5;" horiz-adv-x="1348" 
d="M1052 1800h139q-28 -121 -89.5 -186t-127.5 -65q-42 0 -72.5 17t-44.5 37t-30 37t-33 17q-47 0 -78 -103h-140q28 121 90 186.5t128 65.5q42 0 72.5 -17t44.5 -37t30.5 -37t33.5 -17q44 0 77 102zM170 716q32 201 79.5 334t127 224.5t193.5 131.5t278 40
q255 0 363.5 -103t108.5 -335q0 -125 -27 -292q-25 -160 -60 -275.5t-88 -205t-126.5 -143t-172.5 -80.5t-230 -27q-255 0 -364 103.5t-109 336.5q0 115 27 291zM814 1207q-56 0 -101 -13t-77 -32.5t-58 -56.5t-42.5 -72t-31.5 -93t-23.5 -104t-20.5 -120q-30 -193 -30 -269
q0 -111 48.5 -166.5t171.5 -55.5q56 0 101 13t77 32.5t58 56.5t42.5 72t31.5 93t23.5 104t20.5 120q30 193 30 268q0 112 -48.5 167.5t-171.5 55.5z" />
    <glyph glyph-name="Odieresis" unicode="&#xd6;" horiz-adv-x="1348" 
d="M616 -15q-255 0 -364 103t-109 336q0 126 27 292q21 133 48.5 234.5t67 185t90.5 140.5t120 96t155 56.5t196 17.5q255 0 364 -103t109 -335q0 -119 -28 -292q-32 -201 -79 -334t-126 -225t-193 -132t-278 -40zM429 447q0 -111 48.5 -166.5t171.5 -55.5q56 0 101 13
t77 32.5t58 56.5t42.5 72t31.5 93t23.5 104t20.5 120q31 188 31 270q0 111 -48.5 166t-171.5 55q-39 0 -73 -5.5t-61.5 -18t-50.5 -27t-41.5 -38.5t-33 -46.5t-27 -57t-21 -63.5t-17.5 -72.5t-15 -77.5t-14 -85q-31 -200 -31 -269zM659 1537q-51 0 -83 32t-32 81q0 8 2 22
q9 57 54.5 96t101.5 39q49 0 79.5 -31t30.5 -80q0 -8 -2 -24q-9 -57 -52.5 -96t-98.5 -39zM1069 1537q-50 0 -82 32t-32 81q0 8 2 22q9 57 53.5 96t100.5 39q50 0 80.5 -31t30.5 -80q0 -8 -2 -24q-9 -57 -52 -96t-99 -39z" />
    <glyph glyph-name="multiply" unicode="&#xd7;" horiz-adv-x="1067" 
d="M802 144l-246 299l-340 -299l-130 158l340 299l-245 299l183 158l244 -297l339 298l128 -159l-338 -297l245 -299z" />
    <glyph glyph-name="Oslash" unicode="&#xd8;" horiz-adv-x="1348" 
d="M360 23l-114 -164l-147 105l115 166q-71 98 -71 293q0 125 27 293q21 133 48.5 234.5t67 185t90.5 140.5t120 96t155 56.5t196 17.5q156 0 255 -37l114 164l148 -105l-116 -167q72 -102 72 -295q0 -114 -27 -290q-25 -160 -60 -275.5t-88 -205t-126.5 -143t-172.5 -80.5
t-230 -27q-153 0 -256 38zM814 1207q-39 0 -73 -5.5t-61.5 -18t-50.5 -27t-41.5 -38.5t-33 -46.5t-27 -57t-21 -63.5t-17.5 -72.5t-15 -77.5t-14 -85q-31 -194 -30 -275h1l513 741q-47 25 -130 25zM1033 991l-514 -741q47 -25 130 -25q39 0 73 5.5t61.5 18t50.5 27
t41.5 38.5t33 46.5t27 57t21.5 63t18 72.5t15 78t14 85q31 194 30 275h-1z" />
    <glyph glyph-name="Ugrave" unicode="&#xd9;" horiz-adv-x="1341" 
d="M1366 1432l-150 -950q-19 -116 -57.5 -203t-91 -142.5t-125 -90t-152.5 -48t-180 -13.5q-87 0 -155 10.5t-126.5 35.5t-96.5 66t-59.5 103.5t-21.5 145.5q0 67 11 136l151 950h281l-153 -966q-7 -47 -7 -73q0 -87 50 -125.5t165 -38.5q135 0 199 54.5t84 182.5l153 966
h281zM802 1544l-234 266h295l158 -266h-219z" />
    <glyph glyph-name="Uacute" unicode="&#xda;" horiz-adv-x="1341" 
d="M1365 1432l-150 -950q-23 -144 -75 -243t-132.5 -153.5t-176 -77.5t-221.5 -23q-87 0 -155 10.5t-126.5 35.5t-96.5 66t-59.5 103.5t-21.5 145.5q0 67 11 136l150 950h282l-154 -966q-7 -47 -7 -73q0 -87 50 -125.5t165 -38.5q135 0 199 54.5t84 182.5l154 966h280z
M704 1544l242 266h295l-319 -266h-218z" />
    <glyph glyph-name="Ucircumflex" unicode="&#xdb;" horiz-adv-x="1341" 
d="M1366 1432l-150 -950q-19 -116 -57.5 -203t-91 -142.5t-125 -90t-152.5 -48t-180 -13.5q-87 0 -155 10.5t-126.5 35.5t-96.5 65.5t-59.5 103t-21.5 145.5q0 68 11 137l151 950h281l-153 -966q-7 -47 -7 -74q0 -87 50 -125t164 -38q135 0 199.5 54.5t84.5 182.5l153 966
h281zM825 1811h164l211 -267h-211l-99 141l-149 -141h-208z" />
    <glyph glyph-name="Udieresis" unicode="&#xdc;" horiz-adv-x="1341" 
d="M1366 1432l-151 -950q-18 -116 -56.5 -203t-91 -142.5t-125 -90t-152.5 -48t-180 -13.5q-87 0 -155 10.5t-126.5 35.5t-96.5 66t-59.5 103.5t-21.5 145.5q0 67 11 136l151 950h281l-153 -966q-7 -47 -7 -73q0 -87 50 -125.5t165 -38.5q135 0 199 54.5t84 182.5l153 966
h281zM654 1542q-51 0 -83 31.5t-32 80.5q0 7 2 23q9 57 54 96t101 39q49 0 80 -31t31 -80q0 -8 -2 -24q-9 -57 -52.5 -96t-98.5 -39zM1063 1542q-50 0 -82 32t-32 81q0 8 2 22q9 57 53.5 96t100.5 39q50 0 81 -31t31 -80q0 -8 -2 -24q-9 -57 -52.5 -96t-99.5 -39z" />
    <glyph glyph-name="Yacute" unicode="&#xdd;" horiz-adv-x="1219" 
d="M782 552l-88 -552h-285l88 552l-313 880h308l195 -594l391 594h297zM653 1538l242 266h296l-320 -266h-218z" />
    <glyph glyph-name="Thorn" unicode="&#xde;" horiz-adv-x="1209" 
d="M80 0l227 1432h285l-38 -239q84 6 173 6q91 0 159.5 -7t136 -28t111 -57t70 -97t26.5 -144q0 -43 -10 -110q-17 -109 -57 -189.5t-94 -129.5t-131 -78.5t-156.5 -40.5t-181.5 -11q-79 0 -185 6l-50 -313h-285zM451 543q64 -8 172 -8q142 0 218.5 47t96.5 174q5 37 5 59
q0 84 -56.5 120t-188.5 36q-92 0 -181 -12z" />
    <glyph glyph-name="germandbls" unicode="&#xdf;" horiz-adv-x="1273" 
d="M493 964l-152 -964h-268l153 964q49 306 186 437t406 131q219 0 325.5 -80t106.5 -215q0 -34 -4 -62q-11 -67 -42 -119.5t-70.5 -82t-84 -56.5t-82 -45t-65 -45t-32.5 -60q-5 -34 10 -58t44.5 -38.5t65.5 -27.5t74 -31t69 -43.5t51 -70t20 -105.5q0 -34 -6 -73
q-28 -176 -141 -255.5t-282 -79.5q-170 0 -326 51l55 202q157 -36 256 -36q148 0 166 111q2 18 2 26q0 40 -24.5 67.5t-61.5 41t-79.5 32.5t-79.5 41t-61.5 68t-24.5 111q0 32 6 69q12 79 53 133.5t91 83t99.5 53t87 60t45.5 85.5q1 6 1 18q0 50 -47.5 79.5t-145.5 29.5
q-132 0 -197.5 -75.5t-96.5 -271.5z" />
    <glyph glyph-name="agrave" unicode="&#xe0;" horiz-adv-x="1116" 
d="M1062 757l-72 -463q-17 -103 -42 -207q-187 -102 -496 -102q-190 0 -277.5 65.5t-87.5 198.5q0 42 7 85q24 150 108 236.5t244 111.5q117 18 348 28q5 30 5 49q0 69 -41.5 101.5t-131.5 32.5q-163 0 -383 -28l10 202q244 42 427 42q87 0 153 -12.5t121.5 -42t85 -84.5
t29.5 -134q0 -30 -7 -79zM514 507q-77 -18 -110 -52t-46 -117q-3 -21 -3 -38q0 -61 39.5 -84.5t121.5 -23.5q120 0 194 30q15 55 30 147l26 163q-184 -9 -252 -25zM694 1560l135 -329h-204l-207 329h276z" />
    <glyph glyph-name="aacute" unicode="&#xe1;" horiz-adv-x="1116" 
d="M1063 757l-73 -463q-17 -103 -42 -207q-187 -102 -496 -102q-190 0 -277.5 65.5t-87.5 198.5q0 42 7 85q24 150 108 236t245 112q116 18 347 28q5 30 5 50q0 68 -41.5 100.5t-131.5 32.5q-163 0 -383 -28l11 202q244 42 427 42q87 0 153 -12.5t121.5 -42t85 -84.5
t29.5 -134q0 -30 -7 -79zM515 507q-77 -18 -110.5 -52t-46.5 -117q-3 -21 -3 -38q0 -61 39.5 -84.5t121.5 -23.5q120 0 194 30q15 55 30 147l26 163q-183 -9 -251 -25zM1088 1558l-311 -328h-205l239 328h277z" />
    <glyph glyph-name="acircumflex" unicode="&#xe2;" horiz-adv-x="1115" 
d="M1062 757l-73 -463q-19 -118 -42 -207q-187 -102 -495 -102q-190 0 -277.5 65t-87.5 198q0 43 7 86q24 150 107.5 236.5t243.5 111.5q119 18 349 28q5 45 5 48q0 69 -41.5 102t-131.5 33q-161 0 -383 -28l10 202q244 42 427 42q87 0 153 -12.5t121.5 -41.5t85 -84
t29.5 -134q0 -29 -7 -80zM514 507q-76 -18 -109.5 -52t-46.5 -117q-3 -21 -3 -38q0 -61 39.5 -84.5t121.5 -23.5q120 0 194 30q15 55 30 147l26 163q-184 -9 -252 -25zM1024 1223h-197l-87 175l-145 -175h-195l285 330h154z" />
    <glyph glyph-name="atilde" unicode="&#xe3;" horiz-adv-x="1115" 
d="M1063 757l-74 -463q-19 -115 -41 -207q-187 -102 -496 -102q-190 0 -277.5 65.5t-87.5 198.5q0 43 7 85q24 150 108 236.5t244 111.5q117 18 348 28q5 30 5 49q0 69 -41.5 101.5t-131.5 32.5q-161 0 -383 -28l10 202q244 42 427 42q69 0 124 -7t106 -26t85.5 -49
t54.5 -78t20 -112q0 -29 -7 -80zM648 1527q34 0 60.5 -11.5t41.5 -28t26.5 -33t24 -28t26.5 -11.5q46 0 78 107h140q-29 -126 -91 -194t-128 -68q-34 0 -60 11.5t-41.5 28t-27.5 33t-24.5 28t-26.5 11.5q-45 0 -78 -107h-140q29 125 91.5 193.5t128.5 68.5zM514 507
q-77 -18 -110 -52t-46 -117q-3 -21 -3 -38q0 -61 39.5 -84.5t121.5 -23.5q120 0 194 30q15 55 30 147l26 163q-183 -9 -252 -25z" />
    <glyph glyph-name="adieresis" unicode="&#xe4;" horiz-adv-x="1116" 
d="M1063 757l-73 -463q-17 -103 -42 -207q-187 -102 -496 -102q-190 0 -277.5 65.5t-87.5 198.5q0 42 7 85q24 150 108.5 236.5t244.5 111.5q117 18 347 28q5 30 5 50q0 68 -41.5 100.5t-131.5 32.5q-163 0 -383 -28l11 202q244 42 427 42q87 0 153 -12.5t121.5 -42
t85 -84.5t29.5 -134q0 -30 -7 -79zM515 507q-77 -18 -110.5 -52t-46.5 -117q-3 -21 -3 -38q0 -61 39.5 -84.5t121.5 -23.5q121 0 194 30q15 55 30 147l27 163q-183 -9 -252 -25zM401 1385q9 57 54.5 96t101.5 39q49 0 79.5 -31t30.5 -80q0 -8 -2 -24q-9 -57 -52.5 -96
t-98.5 -39q-51 0 -83 31.5t-32 80.5q0 7 2 23zM811 1385q9 57 54 96t101 39q50 0 80.5 -31t30.5 -80q0 -8 -2 -24q-9 -57 -52.5 -96t-98.5 -39q-50 0 -82.5 32t-32.5 81q0 8 2 22z" />
    <glyph glyph-name="aring" unicode="&#xe5;" horiz-adv-x="1116" 
d="M1063 757l-73 -463q-17 -103 -42 -207q-186 -102 -495 -102q-190 0 -278 65.5t-88 198.5q0 42 7 85q24 150 108.5 236.5t244.5 111.5q117 18 347 28q5 30 5 49q0 69 -41.5 101.5t-131.5 32.5q-161 0 -383 -28l11 202q244 42 427 42q87 0 153 -12.5t121.5 -42t85 -84.5
t29.5 -134q0 -30 -7 -79zM514 507q-77 -18 -110 -52t-46 -117q-3 -21 -3 -38q0 -61 40 -84.5t122 -23.5q119 0 193 30q15 55 30 147l26 163q-184 -9 -252 -25zM525 1419q14 89 85.5 151.5t158.5 62.5q78 0 128.5 -51t50.5 -128q0 -17 -3 -35q-13 -88 -85 -151t-159 -63
q-78 0 -128.5 51.5t-50.5 128.5q0 16 3 34zM718 1314q43 0 78 30.5t43 74.5q7 44 -18.5 75t-68.5 31t-78 -31t-42 -75q-2 -12 -2 -18q0 -38 25 -62.5t63 -24.5z" />
    <glyph glyph-name="ae" unicode="&#xe6;" horiz-adv-x="1775" 
d="M1191 426l-178 -9q0 -3 -1.5 -18.5t-1.5 -23.5q0 -97 55 -134t168 -37q158 0 390 29l-9 -206q-256 -42 -476 -42q-169 0 -261 69q-169 -69 -425 -69q-190 0 -277.5 65.5t-87.5 198.5q0 43 7 85q24 150 107.5 236.5t243.5 111.5q116 18 349 28q4 24 4 50q0 69 -41 101
t-131 32q-165 0 -383 -28l10 202q244 42 427 42q225 0 316 -88q125 88 342 88q114 0 193.5 -23.5t125 -70t65.5 -109t20 -147.5q0 -78 -18 -191q-8 -44 -18 -87q-90 -17 -243.5 -33t-271.5 -22zM766 532q-184 -9 -252 -25q-77 -18 -110.5 -52t-46.5 -117q-3 -21 -3 -38
q0 -61 40 -84.5t122 -23.5q118 0 194 30q15 55 30 147zM1220 613q157 9 245 21q3 10 9 44q6 38 6 67q0 78 -41 116.5t-133 38.5q-58 0 -101.5 -15t-71.5 -39.5t-48 -64.5t-30.5 -80.5t-19.5 -97.5z" />
    <glyph glyph-name="ccedilla" unicode="&#xe7;" horiz-adv-x="953" 
d="M938 867q-121 25 -190 25q-77 0 -127.5 -11t-85 -31.5t-57 -64t-35 -93.5t-26.5 -135q-20 -129 -20 -177q0 -93 52.5 -133t191.5 -40q71 0 197 26l-10 -206q-120 -29 -244 -38l-75 -95q56 -6 95 -39t39 -85q0 -7 -2 -23q-14 -91 -88 -134.5t-176 -43.5q-95 0 -163 46
l56 105q63 -35 123 -35q30 0 52.5 13.5t27.5 42.5t-25 48t-65 24.5t-71 5.5l124 167q-71 4 -125 24.5t-88.5 52.5t-56.5 77.5t-30.5 95.5t-8.5 111q0 94 19 210q18 114 43 196t67 152.5t102.5 113t148 66.5t204.5 24q150 0 281 -42z" />
    <glyph glyph-name="egrave" unicode="&#xe8;" horiz-adv-x="1146" 
d="M140 547q48 302 176 432t394 130q114 0 193 -23.5t124.5 -70t65.5 -109t20 -147.5q0 -84 -17 -191q-6 -44 -18 -87q-90 -17 -244 -33t-272 -22l-178 -9q-2 -30 -2 -42q0 -97 55 -134t168 -37q158 0 390 29l-9 -206q-256 -42 -476 -42q-107 0 -183 26.5t-119.5 78
t-63.5 119t-20 155.5q0 79 16 183zM407 603l185 10q157 9 245 21q1 4 8 44q7 44 7 69q0 77 -41 115t-133 38q-58 0 -101.5 -15t-71.5 -39.5t-48 -64.5t-30.5 -80.5t-19.5 -97.5zM765 1560l135 -329h-205l-207 329h277z" />
    <glyph glyph-name="eacute" unicode="&#xe9;" horiz-adv-x="1146" 
d="M140 547q48 302 176 432t394 130q114 0 193 -23.5t124.5 -70t65.5 -109t20 -147.5q0 -84 -17 -191q-10 -58 -17 -87q-93 -17 -248 -33.5t-268 -21.5l-179 -9q-2 -30 -2 -42q0 -97 54.5 -134t167.5 -37q159 0 391 29l-10 -206q-256 -42 -475 -42q-207 0 -296.5 99
t-89.5 281q0 78 16 182zM406 603l186 10q157 9 245 21q3 10 9 44q6 38 6 67q0 78 -41.5 116.5t-133.5 38.5q-58 0 -101.5 -15t-71.5 -39.5t-48 -64.5t-30.5 -80.5t-19.5 -97.5zM1131 1555l-311 -329h-204l239 329h276z" />
    <glyph glyph-name="ecircumflex" unicode="&#xea;" horiz-adv-x="1146" 
d="M140 547q48 302 176 432t394 130q114 0 193 -23.5t124.5 -70t65.5 -109t20 -147.5q0 -84 -17 -191q-5 -39 -17 -87q-91 -17 -245 -33t-271 -22l-178 -9q-3 -22 -3 -43q0 -96 55 -133t168 -37q158 0 390 29l-9 -206q-259 -42 -476 -42q-107 0 -183 27t-119.5 79
t-63.5 119.5t-20 155.5q0 77 16 181zM407 603l185 10q157 9 245 21q3 10 9 44q6 38 6 67q0 78 -41.5 116.5t-133.5 38.5q-71 0 -120.5 -21t-78.5 -64.5t-44.5 -91.5t-26.5 -120zM1055 1223h-198l-86 175l-145 -175h-195l285 330h153z" />
    <glyph glyph-name="edieresis" unicode="&#xeb;" horiz-adv-x="1147" 
d="M140 547q48 302 176 432t394 130q114 0 193.5 -23.5t125 -70t65.5 -109t20 -147.5q0 -78 -18 -191q-5 -39 -17 -87q-227 -41 -516 -55l-179 -9q-2 -30 -2 -41q0 -98 54.5 -135t168.5 -37q158 0 390 29l-9 -206q-256 -42 -477 -42q-107 0 -182.5 26.5t-119.5 78
t-63.5 118.5t-19.5 156q0 79 16 183zM441 1385q9 57 54.5 96t101.5 39q49 0 79.5 -31t30.5 -80q0 -8 -2 -24q-9 -57 -52.5 -96t-98.5 -39q-51 0 -83 31.5t-32 80.5q0 7 2 23zM851 1385q9 57 54 96t101 39q49 0 79.5 -31t30.5 -80q0 -16 -1 -24q-9 -57 -52.5 -96t-99.5 -39
q-50 0 -82 31.5t-32 80.5q0 7 2 23zM407 603l185 10q157 9 245 21q3 10 9 44q6 38 6 67q0 78 -41 116.5t-133 38.5q-72 0 -121.5 -21t-78.5 -64.5t-44.5 -91.5t-26.5 -120z" />
    <glyph glyph-name="igrave" unicode="&#xec;" horiz-adv-x="549" 
d="M80 0l173 1094h269l-173 -1094h-269zM311 1246l-207 328h276l136 -328h-205z" />
    <glyph glyph-name="iacute" unicode="&#xed;" horiz-adv-x="549" 
d="M80 0l173 1094h269l-173 -1094h-269zM308 1246l239 328h276l-311 -328h-204z" />
    <glyph glyph-name="icircumflex" unicode="&#xee;" horiz-adv-x="549" 
d="M385 1581h154l185 -329h-197l-86 174l-146 -174h-195zM80 0l173 1094h269l-174 -1094h-268z" />
    <glyph glyph-name="idieresis" unicode="&#xef;" horiz-adv-x="549" 
d="M211 1260q-51 0 -83 31t-32 80q0 7 2 23q9 57 54.5 96t101.5 39q49 0 79.5 -31t30.5 -80q0 -16 -1 -24q-9 -57 -52.5 -95.5t-99.5 -38.5zM621 1260q-50 0 -82 31t-32 80q0 7 2 23q9 57 53.5 96t100.5 39q50 0 80.5 -31t30.5 -80q0 -8 -2 -24q-9 -57 -52 -95.5t-99 -38.5z
M80 0l173 1094h269l-173 -1094h-269z" />
    <glyph glyph-name="eth" unicode="&#xf0;" horiz-adv-x="1145" 
d="M925 1421l182 64l55 -126l-170 -61q99 -223 99 -499q0 -125 -21 -252q-48 -305 -177 -433.5t-392 -128.5q-217 0 -313.5 84t-96.5 277q0 87 18 201q46 291 174 414.5t390 123.5q69 0 126 -17q-21 73 -54 143l-180 -63l-54 128l167 58q-35 56 -84 119l249 79
q43 -50 82 -111zM803 547q15 92 15 152q0 92 -39 129t-135 37q-127 0 -182.5 -66t-84.5 -252q-18 -111 -18 -179q0 -93 39 -128t134 -35q127 0 183 71t88 271z" />
    <glyph glyph-name="ntilde" unicode="&#xf1;" horiz-adv-x="1184" 
d="M471 715l-113 -715h-266l127 800q17 106 42 208q202 101 496 101q89 0 155 -13t108 -35t68 -56.5t36 -73.5t10 -90q0 -55 -14 -144l-111 -697h-267l107 672q8 45 8 89q0 69 -40.5 99t-145.5 31q-101 0 -170 -30q-15 -56 -30 -146zM949 1528h140q-29 -126 -91 -194
t-128 -68q-41 0 -71.5 17.5t-44.5 38.5t-30 38.5t-33 17.5q-47 0 -78 -107h-140q29 125 91 193.5t128 68.5q41 0 71.5 -17.5t44.5 -38.5t30.5 -38.5t33.5 -17.5q45 0 77 107z" />
    <glyph glyph-name="ograve" unicode="&#xf2;" horiz-adv-x="1158" 
d="M533 -15q-217 0 -313 84t-96 277q0 87 18 201q49 307 177.5 434.5t392.5 127.5q216 0 312.5 -85.5t96.5 -278.5q0 -87 -18 -198q-48 -305 -177.5 -433.5t-392.5 -128.5zM410 547q-18 -111 -18 -179q0 -93 38.5 -128t133.5 -35q127 0 183.5 71t88.5 271q17 108 17 173
q0 94 -39 132t-133 38q-128 0 -183.5 -69.5t-87.5 -273.5zM681 1231l-207 329h277l134 -329h-204z" />
    <glyph glyph-name="oacute" unicode="&#xf3;" horiz-adv-x="1158" 
d="M533 -15q-217 0 -313 84t-96 277q0 87 18 201q49 307 177 434.5t392 127.5q217 0 313.5 -85.5t96.5 -278.5q0 -87 -18 -198q-48 -305 -177.5 -433.5t-392.5 -128.5zM392 369q0 -94 38.5 -129t133.5 -35q127 0 184 71.5t88 270.5q17 110 17 174q0 94 -38.5 131.5
t-133.5 37.5q-128 0 -183.5 -69.5t-87.5 -273.5q-18 -111 -18 -178zM586 1240l239 329h277l-311 -329h-205z" />
    <glyph glyph-name="ocircumflex" unicode="&#xf4;" horiz-adv-x="1158" 
d="M1121 745q0 -87 -18 -198q-49 -305 -177.5 -433.5t-392.5 -128.5q-217 0 -313 84.5t-96 277.5q0 86 18 200q49 307 177 434.5t392 127.5q217 0 313.5 -85.5t96.5 -278.5zM410 547q-19 -117 -19 -179q0 -93 38.5 -128t133.5 -35q128 0 185 71.5t88 270.5q17 108 17 173
q0 95 -39 132.5t-134 37.5q-87 0 -136.5 -29.5t-80 -101.5t-53.5 -212zM704 1559h153l186 -329h-198l-86 174l-146 -174h-195z" />
    <glyph glyph-name="otilde" unicode="&#xf5;" horiz-adv-x="1158" 
d="M924 1516h140q-29 -126 -91 -194t-128 -68q-42 0 -72.5 17.5t-44.5 38.5t-30 38.5t-33 17.5q-47 0 -78 -107h-139q28 125 90.5 193.5t128.5 68.5q42 0 72.5 -17.5t44.5 -38.5t30 -38.5t33 -17.5q45 0 77 107zM1121 745q0 -87 -18 -198q-49 -305 -178 -433.5t-392 -128.5
q-217 0 -313 84.5t-96 277.5q0 86 18 200q49 307 177.5 434.5t392.5 127.5q216 0 312.5 -85.5t96.5 -278.5zM564 205q127 0 183.5 71t88.5 271q17 110 17 174q0 94 -38.5 131.5t-133.5 37.5q-128 0 -183.5 -69.5t-87.5 -273.5q-18 -111 -18 -179q0 -93 38.5 -128t133.5 -35z
" />
    <glyph glyph-name="odieresis" unicode="&#xf6;" horiz-adv-x="1158" 
d="M1121 745q0 -87 -18 -198q-48 -305 -177.5 -433.5t-392.5 -128.5q-217 0 -313 84.5t-96 277.5q0 86 18 200q49 307 177.5 434.5t392.5 127.5q217 0 313 -85.5t96 -278.5zM391 368q0 -93 39 -128t134 -35q127 0 184 71.5t88 270.5q17 108 17 173q0 94 -39 132t-133 38
q-87 0 -137 -29.5t-81 -102t-53 -211.5q-19 -117 -19 -179zM532 1250q-51 0 -83 31.5t-32 80.5q0 15 1 23q9 57 54.5 96t101.5 39q49 0 80 -31.5t31 -80.5q0 -7 -2 -23q-9 -57 -52.5 -96t-98.5 -39zM941 1250q-50 0 -82 31.5t-32 80.5q0 7 2 23q9 57 53.5 96t100.5 39
q50 0 80.5 -31.5t30.5 -80.5q0 -15 -1 -23q-9 -57 -52.5 -96t-99.5 -39z" />
    <glyph glyph-name="divide" unicode="&#xf7;" horiz-adv-x="1154" 
d="M405 163q0 8 2 26q10 65 62 110.5t115 45.5q57 0 93.5 -37.5t36.5 -93.5q0 -7 -2 -25q-10 -65 -62 -110.5t-116 -45.5q-57 0 -93 37t-36 93zM665 858q-57 0 -93 37t-36 93q0 8 2 26q10 65 62 110t115 45q57 0 93 -36.5t36 -92.5q0 -8 -2 -26q-11 -65 -62 -110.5
t-115 -45.5zM108 485l37 233h996l-37 -233h-996z" />
    <glyph glyph-name="oslash" unicode="&#xf8;" horiz-adv-x="1158" 
d="M312 17l-102 -140l-99 72l96 132q-83 84 -83 266q0 86 18 200q49 307 177.5 434.5t392.5 127.5q137 0 221 -32l102 140l100 -72l-98 -134q84 -87 84 -266q0 -87 -18 -198q-49 -305 -178 -433.5t-392 -128.5q-131 0 -221 32zM393 337l391 536q-37 17 -103 17
q-128 0 -183.5 -69.5t-87.5 -273.5q-18 -109 -18 -178q0 -22 1 -32zM851 756l-390 -535q38 -16 103 -16q127 0 183.5 71t88.5 271q17 107 17 171q0 14 -2 38z" />
    <glyph glyph-name="ugrave" unicode="&#xf9;" horiz-adv-x="1180" 
d="M150 398l110 696h267l-107 -672q-8 -45 -8 -90q0 -69 40 -99t145 -30q99 0 167 30q15 55 30 147l114 714h266l-127 -800q-17 -103 -42 -207q-204 -102 -494 -102q-110 0 -185 19t-115.5 56t-57.5 83t-17 110q0 54 14 145zM677 1246l-208 328h278l134 -328h-204z" />
    <glyph glyph-name="uacute" unicode="&#xfa;" horiz-adv-x="1180" 
d="M150 398l110 696h267l-107 -672q-8 -45 -8 -90q0 -69 40 -99t145 -30q99 0 167 30q15 55 30 147l114 714h266l-127 -800q-17 -103 -42 -207q-204 -102 -494 -102q-110 0 -185 19t-115.5 56t-57.5 83t-17 110q0 56 14 145zM611 1258l239 329h276l-311 -329h-204z" />
    <glyph glyph-name="ucircumflex" unicode="&#xfb;" horiz-adv-x="1180" 
d="M149 398l111 696h267l-107 -672q-8 -45 -8 -90q0 -70 40 -99.5t144 -29.5q102 0 168 30q15 55 30 147l114 714h266l-127 -800q-17 -103 -42 -207q-204 -102 -495 -102q-110 0 -185 19t-115.5 56t-57.5 83t-17 110q0 56 14 145zM717 1593h154l185 -329h-198l-86 174
l-146 -174h-195z" />
    <glyph glyph-name="udieresis" unicode="&#xfc;" horiz-adv-x="1180" 
d="M150 398l110 696h267l-107 -672q-8 -45 -8 -89q0 -70 40.5 -100t144.5 -30q99 0 167 30q15 55 30 147l114 714h266l-127 -800q-19 -118 -42 -207q-204 -102 -494 -102q-110 0 -185 19t-115.5 56t-57.5 83t-17 110q0 54 14 145zM543 1273q-51 0 -83 32t-32 81q0 7 2 21
q9 57 54 96t101 39q49 0 80 -31.5t31 -80.5q0 -7 -2 -23q-9 -57 -52.5 -95.5t-98.5 -38.5zM951 1273q-50 0 -81.5 31t-31.5 80q0 7 2 23q9 57 53.5 96t100.5 39q50 0 80.5 -31.5t30.5 -80.5q0 -15 -1 -23q-9 -57 -53 -95.5t-100 -38.5z" />
    <glyph glyph-name="yacute" unicode="&#xfd;" horiz-adv-x="1105" 
d="M622 419l317 675h271l-736 -1497h-272l245 480l-270 1017h283zM603 1233l239 329h277l-311 -329h-205z" />
    <glyph glyph-name="thorn" unicode="&#xfe;" horiz-adv-x="1187" 
d="M25 -403l290 1835h268l-55 -346q108 23 209 23q210 0 307.5 -83.5t97.5 -282.5q0 -85 -18 -196q-25 -159 -69.5 -266.5t-115 -173.5t-162 -94t-218.5 -28q-96 0 -201 24l-66 -412h-267zM392 224q70 -24 146 -24q54 0 96.5 9.5t72.5 23.5t53.5 41.5t37.5 51.5t25.5 66
t17.5 72.5t14 82.5q18 108 18 162q0 91 -49 138t-176 47q-76 0 -153 -24z" />
    <glyph glyph-name="ydieresis" unicode="&#xff;" horiz-adv-x="1106" 
d="M536 1254q-51 0 -82.5 31.5t-31.5 80.5q0 15 1 23q9 57 54.5 96t101.5 39q49 0 79.5 -31.5t30.5 -80.5q0 -15 -1 -23q-9 -57 -53 -96t-99 -39zM946 1254q-50 0 -81.5 31t-31.5 80q0 16 1 24q9 57 54 96t101 39q50 0 80.5 -32t30.5 -81q0 -6 -2 -22q-9 -57 -53 -96
t-99 -39zM623 419l316 675h272l-736 -1497h-273l245 480l-269 1017h283z" />
    <glyph glyph-name="Abreve" unicode="&#x102;" horiz-adv-x="1347" 
d="M624 1810h149q-1 -50 27 -83.5t84 -33.5t94.5 33.5t53.5 83.5h150q-27 -112 -108 -182t-211 -70q-122 0 -181 62.5t-59 165.5q0 16 1 24zM-26 0l613 1247q98 199 263 199q163 0 197 -199l213 -1247h-303l-51 355h-478l-161 -355h-293zM874 578l-82 578l-263 -578h345z
" />
    <glyph glyph-name="abreve" unicode="&#x103;" horiz-adv-x="1115" 
d="M1062 757l-73 -463q-19 -115 -41 -207q-187 -102 -496 -102q-190 0 -277.5 65.5t-87.5 198.5q0 42 7 85q24 150 108 236.5t244 111.5q117 18 348 28q5 30 5 49q0 69 -41.5 101.5t-131.5 32.5q-163 0 -383 -28l10 202q244 42 427 42q87 0 153 -12.5t121.5 -42t85 -84.5
t29.5 -134q0 -30 -7 -79zM514 507q-77 -18 -110 -52t-46 -117q-3 -21 -3 -38q0 -61 39.5 -84.5t121.5 -23.5q120 0 194 30q15 55 30 147l26 163q-184 -9 -252 -25zM643 1528q-2 -57 25 -95t83 -38t95.5 38t56.5 95h149q-31 -129 -113.5 -209t-211.5 -80q-119 0 -177 68.5
t-58 181.5q0 13 2 39h149z" />
    <glyph glyph-name="Aogonek" unicode="&#x104;" horiz-adv-x="1347" 
d="M1183 -265l23 -102q-42 -31 -95.5 -49t-99.5 -18q-79 0 -127.5 38.5t-48.5 107.5q0 16 3 32q10 68 63.5 136t119.5 120h-63l-51 355h-479l-161 -355h-294l615 1247q98 199 262 199q163 0 197 -199l213 -1247h-92q-145 -125 -158 -212q-2 -14 -2 -20q0 -31 17 -49t47 -18
q61 0 111 34zM529 578h346l-83 578z" />
    <glyph glyph-name="aogonek" unicode="&#x105;" horiz-adv-x="1115" 
d="M243 865l10 202q244 42 427 42q87 0 153 -12.5t121.5 -42t85 -84.5t29.5 -134q0 -30 -7 -79l-73 -463q-19 -118 -42 -207q-61 -33 -124 -53q-134 -119 -148 -204q-2 -14 -2 -20q0 -31 17 -49t47 -18q58 0 110 35l24 -104q-42 -31 -95.5 -48.5t-100.5 -17.5q-79 0 -127 39
t-48 108q0 20 2 31q16 101 128 209q-81 -10 -178 -10q-190 0 -277.5 65.5t-87.5 198.5q0 42 7 85q24 150 108 236.5t244 111.5q117 18 348 28q4 24 4 50q0 68 -41.5 100.5t-130.5 32.5q-163 0 -383 -28zM514 507q-77 -18 -110 -52t-46 -117q-3 -21 -3 -38q0 -61 39.5 -84.5
t121.5 -23.5q120 0 194 30q15 55 30 147l26 163q-184 -9 -252 -25z" />
    <glyph glyph-name="Cacute" unicode="&#x106;" horiz-adv-x="1128" 
d="M1006 28q-163 -43 -373 -43q-269 0 -381 104t-112 336q0 116 27 291q21 132 47.5 231.5t66 183.5t91.5 141t123 97t162.5 58.5t207.5 18.5q209 0 359 -43l-61 -224q-144 24 -285 24q-71 0 -127 -13.5t-95.5 -33t-70.5 -58t-49.5 -71.5t-34.5 -92.5t-23.5 -101.5
t-19.5 -117q-27 -170 -27 -239q0 -60 13.5 -103.5t45.5 -77t90.5 -50.5t143.5 -17q143 0 292 24zM1213 1819l-319 -266h-219l242 266h296z" />
    <glyph glyph-name="cacute" unicode="&#x107;" horiz-adv-x="953" 
d="M828 27q-170 -42 -357 -42q-98 0 -167 27t-106.5 78.5t-54 113.5t-16.5 143q0 94 19 210q18 114 43 196t67 152.5t102.5 113t148 66.5t204.5 24q150 0 280 -42l-53 -200q-121 25 -190 25q-77 0 -127.5 -11t-85 -31.5t-57 -64t-35 -93.5t-26.5 -135q-20 -129 -20 -177
q0 -93 52.5 -133t191.5 -40q71 0 197 26zM1027 1558l-311 -328h-204l238 328h277z" />
    <glyph glyph-name="Ccaron" unicode="&#x10c;" horiz-adv-x="1128" 
d="M1006 28q-163 -43 -373 -43q-269 0 -381 104t-112 336q0 116 27 291q21 132 47.5 231.5t66 183.5t91.5 141t123 97t162.5 58.5t207.5 18.5q209 0 359 -43l-61 -224q-144 24 -285 24q-71 0 -127 -13.5t-95.5 -33t-70.5 -58t-49.5 -71.5t-34.5 -92.5t-23.5 -101.5
t-19.5 -117q-27 -170 -27 -239q0 -60 13.5 -103.5t45.5 -77t90.5 -50.5t143.5 -17q143 0 292 24zM843 1678l149 142h208l-292 -267h-165l-211 267h211z" />
    <glyph glyph-name="ccaron" unicode="&#x10d;" horiz-adv-x="953" 
d="M828 27q-170 -42 -357 -42q-79 0 -139.5 18.5t-99 50t-62.5 78.5t-33.5 99t-9.5 116q0 94 19 210q18 114 43 196t67 152.5t102.5 113t148 66.5t204.5 24q150 0 280 -42l-53 -200q-121 25 -190 25q-77 0 -127.5 -11t-85 -31.5t-57 -64t-35 -93.5t-26.5 -135
q-20 -129 -20 -177q0 -93 52.5 -133t191.5 -40q71 0 197 26zM693 1386l146 175h195l-286 -330h-153l-186 330h198z" />
    <glyph glyph-name="Dcaron" unicode="&#x10e;" horiz-adv-x="1343" 
d="M318 1406q216 40 464 40q151 0 254.5 -26.5t164.5 -83t87 -135.5t26 -192q0 -112 -28 -293q-17 -111 -37 -194.5t-50 -163t-69 -135.5t-93 -103t-123.5 -75.5t-160 -44t-202.5 -15.5q-248 0 -451 40zM571 1199l-153 -966q66 -11 131 -11q78 0 139 14t103.5 33.5t76 60
t52.5 73.5t36 94t24.5 102t19.5 117q26 158 26 233q0 62 -14.5 107t-49.5 81t-99 54t-158 18q-62 0 -134 -10zM847 1680l148 142h209l-292 -267h-164l-212 267h211z" />
    <glyph glyph-name="dcaron" unicode="&#x10f;" horiz-adv-x="1175" 
d="M884 1086l68 431h267l-194 -1223q-17 -103 -42 -207q-187 -102 -448 -102q-228 0 -331.5 82.5t-103.5 285.5q0 91 17 194q25 159 70 266.5t115.5 173.5t162 94t218.5 28q99 0 201 -23zM703 894q-42 0 -77.5 -6t-62.5 -14.5t-49.5 -25.5t-38.5 -33t-29 -42t-21.5 -47
t-16.5 -55t-12.5 -59t-10.5 -65q-16 -96 -16 -154q0 -92 44 -143t156 -51q105 0 172 29q15 55 30 147l78 495q-72 24 -146 24zM1624 1517l-219 -413h-165l162 413h222z" />
    <glyph glyph-name="Dcroat" unicode="&#x110;" horiz-adv-x="1386" 
d="M241 642h-109l30 191h109l91 573q214 40 464 40q151 0 254.5 -26.5t164 -83.5t86.5 -135.5t26 -191.5q0 -112 -28 -293q-17 -111 -37 -194.5t-50 -163t-69 -135.5t-93 -103t-123.5 -75.5t-160 -44t-202.5 -15.5q-248 0 -451 40zM526 642l-65 -409q64 -11 132 -11
q78 0 139 14t103.5 33.5t76 60t52.5 73t36 94.5t24.5 102t19.5 117q26 158 26 232q0 62 -14.5 107.5t-49.5 81.5t-99 54t-158 18q-61 0 -135 -10l-58 -366h205l-31 -191h-204z" />
    <glyph glyph-name="dcroat" unicode="&#x111;" horiz-adv-x="1175" 
d="M701 1223l24 153h204l23 141h267l-23 -141h133l-24 -153h-133l-147 -929q-17 -103 -42 -207q-187 -102 -448 -102q-228 0 -331.5 82.5t-103.5 285.5q0 91 17 194q25 159 69.5 266.5t115 173.5t162.5 94t219 28q100 0 200 -23l21 137h-203zM703 894q-54 0 -96.5 -9.5
t-72.5 -23.5t-53.5 -41.5t-37.5 -51.5t-26 -66t-18 -72.5t-14 -82.5q-16 -94 -16 -154q0 -92 44 -143t156 -51q105 0 172 29q17 69 30 147l78 495q-70 24 -146 24z" />
    <glyph glyph-name="Eogonek" unicode="&#x118;" horiz-adv-x="1141" 
d="M1147 1199h-388q-65 0 -103 -7.5t-64 -30.5t-38 -57.5t-22 -97.5l-26 -162h558l-37 -231h-558l-29 -186q-9 -51 -9 -85q0 -64 37.5 -87t137.5 -23h388l-36 -225q-19 -1 -63 -2.5t-59 -2.5q-144 -122 -159 -214q-2 -14 -2 -20q0 -31 17 -49t47 -18q59 0 111 35l23 -103
q-42 -31 -95.5 -49t-100.5 -18q-79 0 -127 39t-48 108q0 20 2 31q10 67 62 134.5t117 119.5q-84 -2 -108 -2q-58 0 -97 1.5t-89.5 7t-83.5 15.5t-68 29.5t-55.5 46.5t-33.5 67.5t-13 92.5q0 46 8 90l118 740q11 70 34 124.5t51 91t71 62.5t81 39.5t95.5 21t100.5 9t108 1.5
q188 0 380 -10z" />
    <glyph glyph-name="eogonek" unicode="&#x119;" horiz-adv-x="1146" 
d="M140 547q48 302 176 432t394 130q114 0 193 -23.5t124.5 -70t65.5 -109t20 -147.5q0 -84 -17 -191q-5 -39 -17 -87q-93 -17 -248 -33.5t-268 -21.5l-179 -9q-2 -30 -2 -42q0 -97 54.5 -134t167.5 -37q159 0 391 29l-10 -206q-101 -18 -200 -28q-134 -119 -148 -205
q-2 -14 -2 -21q0 -65 63 -65q61 0 111 34l23 -103q-42 -31 -95.5 -49t-99.5 -18q-79 0 -127.5 39t-48.5 108q0 21 2 32q18 113 160 237q-54 -3 -113 -3q-207 0 -296.5 99t-89.5 281q0 78 16 182zM407 603l185 10q158 9 244 21q5 16 10 44q6 38 6 67q0 78 -41.5 116.5
t-133.5 38.5q-58 0 -101.5 -15t-71.5 -39.5t-47.5 -64.5t-30 -80.5t-19.5 -97.5z" />
    <glyph glyph-name="Ecaron" unicode="&#x11a;" horiz-adv-x="1141" 
d="M1182 1425l-35 -226h-388q-65 0 -103 -7.5t-64 -30.5t-38 -57.5t-22 -97.5l-26 -162h558l-37 -231h-558l-29 -186q-9 -51 -9 -87q0 -64 37 -86t137 -22h388l-36 -225q-218 -11 -382 -11q-58 0 -97 1.5t-89.5 7t-83.5 15.5t-68 29.5t-55.5 46.5t-33.5 67.5t-13 92.5
q0 46 8 90l117 740q9 55 25 100t35 79t48 60.5t56 44t65.5 30t70.5 19.5t78 10.5t80 4.5t84 1q188 0 380 -10zM495 1816h212l99 -142l149 142h208l-291 -267h-165z" />
    <glyph glyph-name="ecaron" unicode="&#x11b;" horiz-adv-x="1146" 
d="M140 547q48 302 176 432t394 130q114 0 193 -23.5t124.5 -70t65.5 -109t20 -147.5q0 -84 -17 -191q-10 -58 -17 -87q-93 -17 -248 -33.5t-268 -21.5l-178 -9q-3 -22 -3 -43q0 -96 55 -133t168 -37q158 0 390 29l-10 -206q-256 -42 -475 -42q-207 0 -296.5 99t-89.5 281
q0 78 16 182zM407 603l185 10q157 9 245 21q3 10 9 44q6 38 6 68q0 77 -41.5 115.5t-133.5 38.5q-71 0 -120.5 -21t-78.5 -64.5t-44.5 -91.5t-26.5 -120zM748 1379l145 176h195l-285 -330h-154l-185 330h197z" />
    <glyph glyph-name="Gbreve" unicode="&#x11e;" horiz-adv-x="1294" 
d="M709 577l36 224h498l-85 -536q-9 -56 -28.5 -99t-44.5 -72t-64.5 -50t-76.5 -32t-93 -17.5t-102 -8t-115 -1.5q-268 0 -380.5 104.5t-112.5 336.5q0 115 27 290q32 201 78 332t126 224t199.5 133.5t293.5 40.5q248 0 443 -42l-61 -224q-157 25 -368 25q-71 0 -127 -13.5
t-95.5 -33t-70.5 -58.5t-49.5 -72t-34.5 -93t-24 -102t-20 -117q-26 -163 -26 -239q0 -61 13.5 -104.5t45.5 -78t90 -51.5t143 -17q53 0 87 7.5t52.5 25.5t26 38t13.5 54l35 226h-229zM626 1807h149q-1 -50 27.5 -83.5t84.5 -33.5t94 33.5t54 83.5h149q-28 -112 -109 -182
t-210 -70q-121 0 -180.5 62t-59.5 164q0 17 1 26z" />
    <glyph glyph-name="gbreve" unicode="&#x11f;" horiz-adv-x="1178" 
d="M72 -372l54 202q222 -32 384 -32q106 0 163 50t75 153l5 32q-108 -23 -208 -23q-210 0 -308.5 82.5t-98.5 280.5q0 84 16 186q25 157 71.5 263t121 169.5t171.5 90.5t232 27q117 0 228 -25t188 -76q-8 -107 -24 -208l-137 -863q-13 -83 -46.5 -146.5t-78.5 -102.5
t-107 -63.5t-125.5 -33.5t-139.5 -9q-185 0 -436 46zM423 559q-16 -98 -16 -149q0 -91 49.5 -138t176.5 -47q75 0 154 24l74 471q14 88 17 146q-56 29 -162 29q-64 0 -112.5 -19.5t-78 -48.5t-51 -77t-32 -89.5t-19.5 -101.5zM537 1528h149q-2 -57 25 -95t83 -38t95.5 38
t55.5 95h149q-30 -128 -112.5 -208.5t-211.5 -80.5q-119 0 -177 68.5t-58 181.5q0 13 2 39z" />
    <glyph glyph-name="Idotaccent" unicode="&#x130;" horiz-adv-x="587" 
d="M481 1542q-52 0 -85 33t-33 83q0 7 2 23q10 60 56.5 100t104.5 40q51 0 83 -32t32 -83q0 -16 -1 -25q-9 -59 -54.5 -99t-104.5 -40zM93 0l227 1432h286l-226 -1432h-287z" />
    <glyph glyph-name="dotlessi" unicode="&#x131;" horiz-adv-x="549" 
d="M80 0l173 1094h269l-174 -1094h-268z" />
    <glyph glyph-name="Lacute" unicode="&#x139;" horiz-adv-x="1017" 
d="M147 346l173 1086h285l-160 -1005q-9 -51 -9 -86q0 -64 37 -86.5t138 -22.5h364l-35 -226q-250 -10 -361 -10q-58 0 -97 1.5t-89.5 7t-83.5 15.5t-68 29.5t-55.5 46.5t-33.5 67.5t-13 92.5q0 46 8 90zM908 1821l-319 -266h-219l242 266h296z" />
    <glyph glyph-name="lacute" unicode="&#x13a;" horiz-adv-x="531" 
d="M300 1517h268l-193 -1218q-7 -51 -7 -79q0 -82 43 -161l-253 -113q-64 94 -64 219q0 54 10 113zM584 1875h295l-319 -266h-218z" />
    <glyph glyph-name="Lcaron" unicode="&#x13d;" horiz-adv-x="1018" 
d="M147 346l173 1086h285l-160 -1005q-8 -45 -8 -87q0 -64 37 -86t137 -22h364l-35 -226q-250 -10 -361 -10q-58 0 -97 1.5t-89.5 7t-83.5 15.5t-68 29.5t-55.5 46.5t-33.5 67.5t-13 92.5q0 46 8 90zM1061 1432l-220 -413h-165l162 413h223z" />
    <glyph glyph-name="lcaron" unicode="&#x13e;" horiz-adv-x="532" 
d="M104 278l196 1239h268l-193 -1218q-6 -43 -6 -79q0 -82 43 -161l-254 -113q-64 94 -64 219q0 54 10 113zM589 1104l161 413h223l-219 -413h-165z" />
    <glyph glyph-name="Lslash" unicode="&#x141;" horiz-adv-x="1108" 
d="M299 738l111 694h285l-79 -498l344 213l-33 -207l-344 -214l-47 -299q-9 -51 -9 -87q0 -64 37 -86t137 -22h364l-36 -226q-250 -10 -359 -10q-58 0 -97 1.5t-89.5 7t-83.5 15.5t-68.5 29.5t-56 46.5t-33.5 67.5t-13 92.5q0 37 8 90l29 184l-193 -120l33 208z" />
    <glyph glyph-name="lslash" unicode="&#x142;" horiz-adv-x="623" 
d="M511 804l-80 -505q-7 -49 -7 -78q0 -82 44 -162l-255 -113q-63 92 -63 219q0 53 10 113l50 314l-198 -137l35 214l196 138l113 710h268l-80 -499l207 145l-34 -215z" />
    <glyph glyph-name="Nacute" unicode="&#x143;" horiz-adv-x="1422" 
d="M709 1258l308 -876l166 1050h256l-195 -1229q-34 -218 -207 -218q-79 0 -127 41.5t-85 147.5l-306 880l-166 -1054h-257l195 1229q34 217 207 217q75 0 125 -43t86 -145zM995 1818h295l-319 -266h-218z" />
    <glyph glyph-name="nacute" unicode="&#x144;" horiz-adv-x="1184" 
d="M471 715l-113 -715h-266l126 800q15 93 43 208q202 101 496 101q89 0 155 -13t108 -35t68 -56.5t36 -73.5t10 -90q0 -55 -14 -144l-111 -697h-267l107 672q8 45 8 89q0 69 -40.5 99t-145.5 31q-102 0 -170 -30q-15 -56 -30 -146zM605 1234l239 329h277l-311 -329h-205z
" />
    <glyph glyph-name="Ncaron" unicode="&#x147;" horiz-adv-x="1423" 
d="M710 1258l306 -876l167 1050h256l-194 -1229q-34 -218 -208 -218q-79 0 -126.5 41.5t-84.5 147.5l-306 880l-167 -1054h-257l195 1229q34 217 207 217q75 0 125.5 -43.5t86.5 -144.5zM818 1812l100 -142l149 142h208l-291 -267h-165l-211 267h210z" />
    <glyph glyph-name="ncaron" unicode="&#x148;" horiz-adv-x="1184" 
d="M471 715l-113 -715h-266l127 800q19 118 41 208q202 101 496 101q89 0 155 -13t108 -35t68 -56.5t36 -73.5t10 -90q0 -53 -14 -144l-110 -697h-267l107 672q8 45 8 89q0 69 -40.5 99t-145.5 31q-102 0 -170 -30q-15 -56 -30 -146zM485 1559h197l87 -175l145 175h195
l-285 -329h-154z" />
    <glyph glyph-name="Ohungarumlaut" unicode="&#x150;" horiz-adv-x="1348" 
d="M616 -15q-255 0 -364 103t-109 336q0 126 27 292q21 133 48.5 234.5t67 185t90.5 140.5t120 96t155 56.5t196 17.5q255 0 364 -103t109 -336q0 -115 -27 -291q-32 -201 -79 -334t-126 -225t-193.5 -132t-278.5 -40zM460 716q-30 -193 -30 -270q0 -111 48 -166t171 -55
q44 0 80.5 7.5t65.5 20t53.5 35.5t42.5 45.5t33.5 58t26 67t21 78.5t17 85t15.5 94q30 193 30 268q0 112 -48.5 167.5t-171.5 55.5q-56 0 -101 -13t-77 -32.5t-58 -56.5t-42.5 -72t-31.5 -93t-23.5 -104t-20.5 -120zM528 1559l232 265h286l-306 -265h-212zM926 1559l233 265
h286l-306 -265h-213z" />
    <glyph glyph-name="ohungarumlaut" unicode="&#x151;" horiz-adv-x="1158" 
d="M1121 745q0 -87 -18 -198q-48 -305 -177.5 -433.5t-392.5 -128.5q-217 0 -313 84.5t-96 277.5q0 86 18 200q49 307 177 434.5t392 127.5q217 0 313.5 -85.5t96.5 -278.5zM391 368q0 -93 39 -128t134 -35q127 0 184 71.5t88 270.5q17 108 17 173q0 94 -39 132t-133 38
q-128 0 -183.5 -69.5t-87.5 -273.5q-19 -117 -19 -179zM407 1248l230 328h267l-298 -328h-199zM780 1248l229 328h267l-298 -328h-198z" />
    <glyph glyph-name="OE" unicode="&#x152;" horiz-adv-x="1944" 
d="M1949 1199h-388q-65 0 -102.5 -7.5t-63.5 -30.5t-38 -57.5t-22 -97.5l-27 -162h558l-36 -231h-558l-30 -186q-8 -45 -8 -86q0 -64 37 -86.5t137 -22.5h388l-36 -225q-220 -11 -383 -11q-143 0 -234 16t-143 70q-141 -97 -384 -97q-255 0 -364 103t-109 336q0 126 27 292
q21 133 48.5 234.5t67 185t90.5 140.5t120 96t155 56.5t196 17.5q245 0 354 -96q70 54 164.5 69.5t239.5 15.5q188 0 380 -10zM460 716q-30 -193 -30 -269q0 -111 48.5 -166.5t170.5 -55.5q56 0 101 13t77.5 32.5t58.5 56.5t42.5 72t31.5 93t23.5 104t20.5 120
q30 193 30 269q0 111 -48.5 166.5t-171.5 55.5q-39 0 -73 -5.5t-61.5 -18t-50.5 -27t-41.5 -38.5t-33 -46.5t-27 -57t-21 -63.5t-17.5 -72.5t-15 -77.5t-14 -85z" />
    <glyph glyph-name="oe" unicode="&#x153;" horiz-adv-x="1842" 
d="M1042 1003q125 106 365 106q113 0 192.5 -23.5t125 -70t65.5 -108.5t20 -147q0 -79 -18 -192q-5 -39 -17 -87q-209 -38 -517 -55l-178 -9q-2 -30 -2 -42q0 -97 55 -134t168 -37q159 0 391 29l-10 -206q-256 -42 -476 -42q-211 0 -303 110q-127 -110 -370 -110
q-217 0 -313 84t-96 277q0 87 18 201q49 307 177.5 434.5t392.5 127.5q236 0 330 -106zM853 720q0 95 -38.5 132.5t-133.5 37.5q-128 0 -183.5 -69.5t-87.5 -273.5q-18 -111 -18 -180q0 -93 38.5 -127.5t133.5 -34.5q127 0 184 71.5t88 270.5q17 107 17 173zM1102 603
l186 10q156 9 244 21q5 16 10 44q6 38 6 68q0 77 -41.5 115.5t-133.5 38.5q-58 0 -101.5 -15t-71.5 -39.5t-48 -64.5t-30.5 -80.5t-19.5 -97.5z" />
    <glyph glyph-name="Racute" unicode="&#x154;" horiz-adv-x="1291" 
d="M466 546l-87 -546h-284l222 1407q212 39 463 39q91 0 160 -7.5t136 -29t110 -58t69.5 -98t26.5 -145.5q0 -50 -9 -111q-29 -182 -114.5 -283t-222.5 -141l230 -573h-328l-202 540q-72 0 -170 6zM502 777q57 -7 172 -7q143 0 219.5 49t97.5 179q5 28 5 61
q0 86 -56.5 123.5t-188.5 37.5q-83 0 -181 -13zM1199 1821l-318 -266h-219l241 266h296z" />
    <glyph glyph-name="racute" unicode="&#x155;" horiz-adv-x="724" 
d="M469 708l-113 -708h-266l127 800q17 106 42 208q185 101 448 101q67 0 108 -5l-56 -219q-29 4 -77 4q-111 0 -184 -34q-12 -46 -29 -147zM635 1564h277l-310 -328h-206z" />
    <glyph glyph-name="Rcaron" unicode="&#x158;" horiz-adv-x="1291" 
d="M466 546l-87 -546h-284l222 1407q212 39 463 39q91 0 159.5 -7.5t136 -29t110.5 -58t69.5 -98t26.5 -145.5q0 -50 -9 -111q-30 -182 -115 -283t-222 -141l230 -573h-328l-202 540q-72 0 -170 6zM503 777q57 -7 171 -7q143 0 219.5 49t97.5 179q6 33 6 61
q0 86 -56.5 123.5t-188.5 37.5q-84 0 -182 -13zM844 1680l148 142h209l-292 -267h-164l-212 267h211z" />
    <glyph glyph-name="rcaron" unicode="&#x159;" horiz-adv-x="723" 
d="M468 708l-112 -708h-266l128 800q21 131 41 208q185 101 448 101q66 0 107 -5l-56 -219q-29 4 -76 4q-113 0 -184 -34q-15 -55 -30 -147zM499 1559l87 -175l145 175h195l-285 -329h-154l-185 329h197z" />
    <glyph glyph-name="Sacute" unicode="&#x15a;" horiz-adv-x="1110" 
d="M739 438q0 22 -6.5 41t-13.5 32t-26 26.5t-30 21t-39.5 18.5t-41 15t-47.5 16q-69 23 -116.5 43t-93 48.5t-72 61.5t-42.5 79.5t-16 104.5q0 48 8 92q35 224 174 316.5t393 92.5q202 0 394 -44l-61 -223q-182 31 -304 31q-36 0 -61 -1t-62.5 -5.5t-64.5 -14t-54 -25
t-43.5 -42t-22.5 -60.5q-4 -28 -4 -40q0 -22 5.5 -39.5t13 -31t24 -25.5t29.5 -19.5t40 -17t44.5 -14.5t51.5 -15l21 -6q170 -49 247 -124.5t77 -210.5q0 -42 -10 -104q-36 -229 -182.5 -329.5t-405.5 -100.5q-204 0 -398 44l63 230q215 -32 362 -32q120 0 185.5 37.5
t81.5 139.5q3 18 3 34zM1166 1826l-320 -266h-218l241 266h297z" />
    <glyph glyph-name="sacute" unicode="&#x15b;" horiz-adv-x="983" 
d="M453 785q0 -23 9.5 -40.5t32.5 -30.5t38 -20t50.5 -18.5t46.5 -15.5q125 -46 161 -66q96 -52 114 -147q5 -26 5 -56q0 -35 -6 -75q-15 -94 -57.5 -160.5t-107.5 -102.5t-140.5 -52t-169.5 -16q-207 0 -375 48l57 202q172 -33 287 -33h38.5t40 2t44 5.5t37.5 11t36 18.5
t24 28.5t15 39.5q2 16 2 22q0 20 -7.5 36.5t-17 26t-29.5 19t-33 14t-39.5 12.5t-38.5 12q-40 13 -62 21t-57.5 23t-55.5 28t-45 34.5t-38 45t-22 55.5t-9 70q0 30 6 65q50 318 434 318q199 0 386 -45l-57 -199q-151 31 -267 31q-35 0 -56 -0.5t-56 -5.5t-55.5 -14.5
t-39 -28t-22.5 -45.5q-1 -6 -1 -17zM1051 1571l-312 -329h-204l239 329h277z" />
    <glyph glyph-name="Scedilla" unicode="&#x15e;" horiz-adv-x="1111" 
d="M611 -2l-81 -104q55 -6 94.5 -39t39.5 -86q0 -8 -2 -22q-15 -91 -89 -134.5t-175 -43.5q-96 0 -163 46l54 105q63 -35 124 -35q30 0 52.5 13.5t27.5 42.5t-25 48t-65 24.5t-71 5.5l123 167q-2 0 -6 -0.5t-6 -0.5q-204 0 -399 44l64 230q215 -32 363 -32q120 0 184.5 37.5
t80.5 139.5q3 18 3 34q0 22 -6 41t-13.5 32t-26 26.5t-30 21t-39.5 18.5t-41 15.5t-47 15.5q-87 29 -143 55t-104.5 65t-71 92.5t-22.5 125.5q0 38 8 91q18 115 63 194.5t119 126.5t167.5 67.5t218.5 20.5q203 0 395 -44l-62 -223q-182 31 -304 31q-36 0 -61 -1t-63 -5.5
t-64.5 -14t-53.5 -25t-43.5 -42t-22.5 -60.5q-4 -30 -4 -40q0 -37 14 -62.5t42 -42.5t63 -29.5t84 -26.5q6 -1 9 -2t8 -2.5t9 -2.5q170 -49 247 -124.5t77 -210.5q0 -49 -9 -104q-30 -189 -135.5 -289t-285.5 -128z" />
    <glyph glyph-name="scedilla" unicode="&#x15f;" horiz-adv-x="983" 
d="M565 -5l-78 -101q55 -6 93.5 -39.5t38.5 -85.5q0 -14 -1 -22q-14 -91 -88.5 -134.5t-176.5 -43.5q-95 0 -162 46l55 105q63 -35 123 -35q72 0 80 55q5 29 -25 48t-64.5 24.5t-70.5 5.5l124 167q-205 3 -360 48l58 202q172 -33 287 -33q32 0 45 0.5t46 2.5t51 9t40.5 18
t35 30t16.5 45q2 16 2 23q0 20 -7.5 36t-17 26t-29.5 19t-33 13.5t-39.5 12.5t-38.5 12q-41 13 -62 20.5t-57 23t-55.5 28.5t-44.5 34.5t-37.5 44.5t-22 55.5t-9.5 70.5q0 30 6 65q50 318 433 318q198 0 387 -45l-57 -199q-151 31 -267 31q-35 0 -56 -0.5t-56 -5.5
t-55.5 -14.5t-39 -28t-22.5 -45.5q-1 -6 -1 -17q0 -23 9.5 -40.5t32.5 -30.5t38 -20t50.5 -18.5t46.5 -15.5q125 -46 161 -66q96 -52 114 -147q5 -26 5 -56q0 -35 -6 -75q-44 -277 -339 -321z" />
    <glyph glyph-name="Scaron" unicode="&#x160;" horiz-adv-x="1110" 
d="M739 438q0 22 -6.5 41t-13.5 32t-26 26.5t-30 21t-39.5 18.5t-41 15t-47.5 16q-69 23 -116.5 43t-93 48.5t-72 61.5t-42.5 79.5t-16 104.5q0 48 8 92q35 224 174 316.5t393 92.5q202 0 394 -44l-61 -223q-182 31 -304 31q-36 0 -61 -1t-62.5 -5.5t-64.5 -14t-54 -25
t-43.5 -42t-22.5 -60.5q-4 -28 -4 -40q0 -22 5.5 -39.5t13 -31t24 -25.5t29.5 -19.5t40 -17t44.5 -14.5t51.5 -15l21 -6q170 -49 247 -124.5t77 -210.5q0 -42 -10 -104q-36 -229 -182.5 -329.5t-405.5 -100.5q-204 0 -398 44l63 230q215 -32 362 -32q120 0 185.5 37.5
t81.5 139.5q3 18 3 34zM785 1684l149 142h208l-292 -267h-164l-212 267h211z" />
    <glyph glyph-name="scaron" unicode="&#x161;" horiz-adv-x="984" 
d="M635 330q0 20 -7.5 36t-17.5 26t-29.5 19t-33 13.5t-39.5 12.5l-39 12q-41 13 -62 20.5t-57 23t-55.5 28.5t-44.5 34.5t-37.5 44.5t-22 55.5t-9.5 70.5q0 30 6 65q50 318 434 318q199 0 386 -45l-57 -199q-150 31 -267 31q-35 0 -56 -0.5t-55.5 -5.5t-55.5 -14.5t-39 -28
t-22 -45.5q-2 -12 -2 -17q0 -23 9.5 -40.5t32.5 -30.5t38 -20t50.5 -18.5t46.5 -15.5q126 -46 162 -66q98 -54 115 -152q4 -24 4 -51q0 -26 -7 -75q-15 -94 -57.5 -160.5t-107.5 -102.5t-140.5 -52t-169.5 -16q-205 0 -375 48l58 202q169 -33 286 -33h38.5t40 2t44 5.5
t37.5 11t36 18.5t24 28.5t15 39.5q2 16 2 23zM670 1386l146 175h195l-285 -330h-155l-185 330h198z" />
    <glyph glyph-name="uni0162" unicode="&#x162;" horiz-adv-x="1044" 
d="M1179 1432l-37 -235h-346l-189 -1197h-286l190 1197h-344l38 235h974zM197 -503l150 383h207l-204 -383h-153z" />
    <glyph glyph-name="uni0163" unicode="&#x163;" horiz-adv-x="782" 
d="M382 1359l274 44l-49 -309h216l-33 -207h-216l-90 -566q-3 -21 -3 -37q0 -47 26.5 -68t84.5 -21q44 0 91 3l-11 -194q-110 -19 -186 -19q-144 0 -212 55.5t-68 170.5q0 42 7 83l95 593h-175l32 207h175zM149 -511l149 383h208l-205 -383h-152z" />
    <glyph glyph-name="Tcaron" unicode="&#x164;" horiz-adv-x="1045" 
d="M1179 1432l-37 -235h-345l-189 -1197h-287l190 1197h-343l37 235h974zM417 1800h210l101 -142l148 142h208l-292 -268h-164z" />
    <glyph glyph-name="tcaron" unicode="&#x165;" horiz-adv-x="783" 
d="M383 1359l273 44l-49 -309h216l-33 -207h-215l-90 -566q-4 -28 -4 -38q0 -47 26.5 -67.5t84.5 -20.5q44 0 90 3l-10 -194q-110 -19 -186 -19q-144 0 -212 55.5t-68 169.5q0 36 8 84l94 593h-175l32 207h175zM730 1224l162 413h223l-220 -413h-165z" />
    <glyph glyph-name="Uring" unicode="&#x16e;" horiz-adv-x="1341" 
d="M1365 1432l-150 -950q-18 -116 -56.5 -203t-91 -142.5t-125 -90t-152.5 -48t-180 -13.5q-87 0 -155 10.5t-126.5 35.5t-96.5 66t-59.5 103.5t-21.5 145.5q0 67 11 136l150 950h281l-153 -966q-7 -47 -7 -73q0 -87 50 -125.5t165 -38.5q135 0 199.5 54.5t84.5 182.5
l152 966h281zM850 1507q-77 0 -127.5 51.5t-50.5 128.5q0 21 2 33q14 89 86 152t159 63q78 0 128 -51t50 -128q0 -18 -3 -36q-13 -88 -85 -150.5t-159 -62.5zM868 1615q43 0 78 31t42 74q7 44 -18.5 75.5t-68.5 31.5t-78 -31.5t-42 -75.5t18.5 -74.5t68.5 -30.5z" />
    <glyph glyph-name="uring" unicode="&#x16f;" horiz-adv-x="1180" 
d="M150 398l110 696h267l-107 -672q-8 -45 -8 -90q0 -70 40 -99.5t144 -29.5q100 0 168 30q15 55 30 147l114 714h266l-127 -800q-17 -103 -42 -207q-204 -102 -494 -102q-110 0 -185 19t-115.5 56t-57.5 83t-17 110q0 54 14 145zM979 1439q0 -17 -3 -35q-13 -88 -85 -151
t-159 -63q-77 0 -127.5 51.5t-50.5 128.5q0 22 2 34q14 89 86 151.5t159 62.5q78 0 128 -51t50 -128zM750 1299q43 0 77.5 30.5t42.5 74.5q7 44 -18.5 75t-68.5 31t-78.5 -31.5t-42.5 -74.5t19 -74t69 -31z" />
    <glyph glyph-name="Uhungarumlaut" unicode="&#x170;" horiz-adv-x="1341" 
d="M1367 1432l-151 -950q-23 -144 -75 -243t-132.5 -153.5t-176 -77.5t-221.5 -23q-110 0 -190.5 17t-143 57t-94.5 112t-32 175q0 67 11 136l151 950h281l-153 -966q-7 -47 -7 -74q0 -87 50.5 -125t164.5 -38q135 0 199 54.5t84 182.5l153 966h282zM508 1561l232 266h286
l-306 -266h-212zM906 1561l232 266h286l-306 -266h-212z" />
    <glyph glyph-name="uhungarumlaut" unicode="&#x171;" horiz-adv-x="1179" 
d="M149 398l111 696h267l-107 -672q-8 -45 -8 -90q0 -70 40 -99.5t144 -29.5q102 0 168 30q15 55 30 147l114 714h265l-127 -800q-19 -115 -41 -207q-204 -102 -494 -102q-110 0 -185.5 19t-116 56t-57.5 83t-17 110q0 54 14 145zM427 1264l230 328h267l-298 -328h-199z
M799 1264l230 328h268l-299 -328h-199z" />
    <glyph glyph-name="Ydieresis" unicode="&#x178;" horiz-adv-x="1219" 
d="M605 1536q-51 0 -83 31t-32 80q0 7 2 23q9 57 54 96t101 39q50 0 80 -30.5t30 -79.5q0 -7 -2 -25q-9 -57 -52 -95.5t-98 -38.5zM1014 1536q-51 0 -82.5 31.5t-31.5 80.5q0 8 2 22q9 57 54 96t101 39q49 0 79.5 -31t30.5 -80q0 -16 -1 -24q-9 -57 -52.5 -95.5t-99.5 -38.5
zM782 552l-88 -552h-285l87 552l-312 880h307l195 -594l392 594h296z" />
    <glyph glyph-name="Zacute" unicode="&#x179;" horiz-adv-x="1137" 
d="M1149 1214l-724 -973h599l-38 -241h-808q-144 0 -144 92q0 5 2 19q8 48 51 107l728 975h-567l38 239h774q143 0 143 -91q0 -5 -2 -19q-7 -48 -52 -108zM608 1544l241 266h296l-319 -266h-218z" />
    <glyph glyph-name="zacute" unicode="&#x17a;" horiz-adv-x="1089" 
d="M1057 912l-599 -690h494l-35 -222h-762q-52 0 -77.5 24.5t-18.5 65.5q6 42 51 94l603 698h-487l33 212h753q51 0 77 -24t19 -65q-7 -43 -51 -93zM570 1246l239 328h276l-310 -328h-205z" />
    <glyph glyph-name="Zdotaccent" unicode="&#x17b;" horiz-adv-x="1137" 
d="M1148 1214l-723 -973h599l-38 -241h-809q-144 0 -144 91q0 6 2 20q8 49 52 107l727 975h-566l37 239h774q144 0 144 -91q0 -5 -2 -19q-7 -48 -53 -108zM760 1542q-52 0 -85.5 33t-33.5 84q0 7 2 23q10 60 56.5 100t104.5 40q52 0 84 -32t32 -83q0 -7 -2 -25
q-9 -59 -54.5 -99.5t-103.5 -40.5z" />
    <glyph glyph-name="zdotaccent" unicode="&#x17c;" horiz-adv-x="1089" 
d="M1058 912l-600 -690h494l-35 -222h-762q-52 0 -77.5 24.5t-18.5 65.5q6 43 50 94l604 698h-487l33 212h754q50 0 76 -24t19 -65q-6 -42 -50 -93zM697 1236q-52 0 -85 33t-33 83q0 7 2 23q9 59 56 99.5t105 40.5q51 0 83 -32t32 -83q0 -7 -2 -25q-9 -59 -54.5 -99
t-103.5 -40z" />
    <glyph glyph-name="Zcaron" unicode="&#x17d;" horiz-adv-x="1137" 
d="M1149 1214l-724 -973h599l-38 -241h-808q-144 0 -144 92q0 5 2 19q8 48 51 107l727 975h-566l38 239h774q143 0 143 -92q0 -4 -2 -18q-8 -49 -52 -108zM477 1811h211l100 -142l148 142h209l-292 -267h-164z" />
    <glyph glyph-name="zcaron" unicode="&#x17e;" horiz-adv-x="1089" 
d="M1057 912l-599 -690h494l-35 -222h-762q-52 0 -77.5 24.5t-18.5 65.5q6 42 51 94l603 698h-487l33 212h754q50 0 76 -24t19 -65q-7 -43 -51 -93zM452 1575h197l87 -175l145 175h196l-286 -329h-153z" />
    <glyph glyph-name="florin" unicode="&#x192;" horiz-adv-x="995" 
d="M369 888l25 188q22 164 130 245.5t274 81.5q83 0 163 -16l-29 -210q-62 10 -106 10q-48 0 -81 -17.5t-51.5 -51.5t-27.5 -67.5t-16 -82.5l-11 -80h255l-28 -208h-255l-73 -535q-29 -211 -146.5 -317t-317.5 -106q-45 0 -80 5l28 208h32q97 0 148 45.5t64 139.5l75 560
h-220l28 208h220z" />
    <glyph glyph-name="uni0218" unicode="&#x218;" horiz-adv-x="1111" 
d="M739 439q0 25 -6 45.5t-22.5 37t-29.5 27t-43.5 23t-46.5 18t-55 18.5q-87 29 -143 55t-104.5 65t-71 92.5t-22.5 125.5q0 38 8 91q18 115 63 194.5t119 126.5t167.5 67.5t218.5 20.5q202 0 394 -44l-61 -223q-182 31 -304 31q-36 0 -61 -1t-63 -5.5t-64.5 -14t-53.5 -25
t-43.5 -42t-22.5 -60.5q-4 -30 -4 -40q0 -37 14 -62.5t42 -42.5t63 -29.5t84 -26.5q6 -1 9 -2t8 -2.5t9 -2.5q170 -49 247 -124.5t77 -210.5q0 -49 -9 -104q-36 -229 -183 -329.5t-406 -100.5q-204 0 -399 44l64 230q215 -32 363 -32q120 0 184.5 37.5t80.5 139.5q3 18 3 35
zM630 -126l-204 -383h-153l150 383h207z" />
    <glyph glyph-name="uni0219" unicode="&#x219;" horiz-adv-x="984" 
d="M635 330q0 20 -7.5 36t-17 26t-29.5 19.5t-32.5 13.5t-40 12.5t-38.5 11.5q-41 13 -62 20.5t-57 23t-55.5 28.5t-45 34.5t-38 44.5t-22 55.5t-9.5 70.5q0 30 6 65q50 318 434 318q200 0 387 -45l-57 -199q-151 31 -268 31q-35 0 -56 -0.5t-55.5 -5.5t-55.5 -14.5t-39 -28
t-22 -45.5q-2 -12 -2 -17q0 -23 9.5 -40.5t32.5 -30.5t38 -20t50.5 -18.5t46.5 -15.5q125 -46 161 -65q97 -53 115 -148q5 -26 5 -56q0 -28 -7 -75q-15 -94 -57 -160.5t-107.5 -102.5t-140.5 -52t-169 -16q-206 0 -376 48l58 202q172 -33 287 -33h38.5t39.5 2t43.5 5.5
t38 11t36 18.5t23.5 28.5t15 39.5q2 16 2 23zM582 -122l-204 -383h-153l150 383h207z" />
    <glyph glyph-name="uni021A" unicode="&#x21a;" horiz-adv-x="1045" 
d="M1200 1432l-37 -235h-346l-189 -1197h-286l190 1197h-344l38 235h974zM218 -503l149 383h208l-204 -383h-153z" />
    <glyph glyph-name="uni021B" unicode="&#x21b;" horiz-adv-x="783" 
d="M402 1359l274 44l-49 -309h216l-33 -207h-216l-90 -566q-3 -21 -3 -37q0 -47 26.5 -68t84.5 -21q44 0 91 3l-11 -194q-110 -19 -186 -19q-144 0 -212 55.5t-68 170.5q0 42 7 83l95 593h-175l33 207h175zM169 -511l149 383h208l-205 -383h-152z" />
    <glyph glyph-name="circumflex" unicode="&#x2c6;" horiz-adv-x="729" 
d="M415 1482h155l185 -329h-198l-86 174l-145 -174h-195z" />
    <glyph glyph-name="caron" unicode="&#x2c7;" horiz-adv-x="685" 
d="M161 1482h197l87 -175l145 175h195l-285 -329h-154z" />
    <glyph glyph-name="uni02C9" unicode="&#x2c9;" horiz-adv-x="866" 
d="M214 1214l28 170h615l-28 -170h-615z" />
    <glyph glyph-name="breve" unicode="&#x2d8;" horiz-adv-x="666" 
d="M181 1462h149q-2 -57 25.5 -95.5t83.5 -38.5q55 0 94.5 38.5t55.5 95.5h149q-30 -129 -112.5 -209.5t-211.5 -80.5q-119 0 -177 69t-58 183q0 12 2 38z" />
    <glyph glyph-name="dotaccent" unicode="&#x2d9;" horiz-adv-x="426" 
d="M296 1174q-52 0 -85 33t-33 83q0 16 1 24q10 60 56 100t105 40q52 0 84 -32t32 -83q0 -7 -2 -25q-10 -60 -54.5 -100t-103.5 -40z" />
    <glyph glyph-name="ring" unicode="&#x2da;" horiz-adv-x="568" 
d="M356 1124q-78 0 -128.5 52t-50.5 129q0 21 2 33q13 89 85.5 152t159.5 63q78 0 128.5 -51.5t50.5 -128.5q0 -17 -3 -35q-13 -88 -85 -151t-159 -63zM373 1233q43 0 78 31t42 74q7 44 -18 75.5t-68 31.5t-78.5 -31.5t-42.5 -75.5q-7 -43 18.5 -74t68.5 -31z" />
    <glyph glyph-name="ogonek" unicode="&#x2db;" horiz-adv-x="437" 
d="M196 0h146q-151 -127 -165 -218q-2 -14 -2 -20q0 -31 16.5 -49t46.5 -18q62 0 112 34l22 -103q-42 -31 -95 -49t-99 -18q-79 0 -127.5 39t-48.5 108q0 16 3 32q11 71 67 141t124 121z" />
    <glyph glyph-name="tilde" unicode="&#x2dc;" horiz-adv-x="742" 
d="M643 1438h140q-28 -125 -90 -193t-129 -68q-42 0 -72.5 17.5t-44.5 38.5t-30 38.5t-33 17.5q-46 0 -77 -107h-140q29 125 91 193t128 68q42 0 72.5 -17.5t44 -38t29.5 -38t33 -17.5q46 0 78 106z" />
    <glyph glyph-name="hungarumlaut" unicode="&#x2dd;" horiz-adv-x="881" 
d="M130 1146l229 328h267l-298 -328h-198zM502 1146l229 328h267l-298 -328h-198z" />
    <glyph glyph-name="uni03A9" unicode="&#x3a9;" horiz-adv-x="1542" 
d="M1219 743q7 43 7 96q0 76 -19 144t-55.5 124t-98 88.5t-139.5 32.5q-175 0 -305.5 -140.5t-163.5 -347.5q-9 -58 -9 -113q0 -153 62.5 -276.5t157.5 -187.5l-26 -163h-596l34 218h236q-131 180 -131 413q0 66 10 130q31 198 143 355t276 243.5t349 86.5q169 0 295 -77
t188.5 -202.5t62.5 -281.5q0 -59 -9 -117q-26 -165 -106 -305t-190 -245h236l-35 -218h-594l26 163q141 79 251.5 230t142.5 350z" />
    <glyph glyph-name="uni03BC" unicode="&#x3bc;" horiz-adv-x="1278" 
d="M71 -403l237 1497h247l-105 -660q-5 -33 -5 -57q0 -79 39.5 -125.5t113.5 -46.5q233 0 298 413l75 476h249l-106 -670q-16 -96 -16 -141q0 -93 69 -118l-28 -180q-232 0 -267 186q-130 -186 -310 -186q-110 0 -171 75l-73 -463h-247z" />
    <glyph glyph-name="pi" unicode="&#x3c0;" horiz-adv-x="1377" 
d="M1262 190l-51 -205q-116 0 -197.5 23t-127 67.5t-65 100.5t-19.5 131q0 53 12 135q34 213 98 431h-254q-139 -626 -256 -873h-271q91 198 154 395.5t130 475.5h-40q-52 0 -93 -12t-100 -41l-38 149q137 127 357 127h955l-60 -221h-243q-44 -139 -80 -360q-9 -59 -9 -106
q0 -217 198 -217z" />
    <glyph glyph-name="uni200A" unicode="&#x200a;" horiz-adv-x="44" 
 />
    <glyph glyph-name="uni2010" unicode="&#x2010;" horiz-adv-x="782" 
d="M151 435l35 219h530l-35 -219h-530z" />
    <glyph glyph-name="endash" unicode="&#x2013;" horiz-adv-x="1217" 
d="M151 441l33 207h968l-33 -207h-968z" />
    <glyph glyph-name="emdash" unicode="&#x2014;" horiz-adv-x="2152" 
d="M151 441l33 207h1902l-32 -207h-1903z" />
    <glyph glyph-name="quoteleft" unicode="&#x2018;" horiz-adv-x="510" 
d="M131 998l276 519h207l-202 -519h-281z" />
    <glyph glyph-name="quoteright" unicode="&#x2019;" horiz-adv-x="510" 
d="M131 998l201 519h282l-276 -519h-207z" />
    <glyph glyph-name="quotesinglbase" unicode="&#x201a;" horiz-adv-x="521" 
d="M6 -253l202 519h282l-277 -519h-207z" />
    <glyph glyph-name="quotedblleft" unicode="&#x201c;" horiz-adv-x="910" 
d="M131 998l276 519h207l-202 -519h-281zM532 998l275 519h207l-200 -519h-282z" />
    <glyph glyph-name="quotedblright" unicode="&#x201d;" horiz-adv-x="910" 
d="M131 998l201 519h282l-276 -519h-207zM532 998l201 519h281l-275 -519h-207z" />
    <glyph glyph-name="quotedblbase" unicode="&#x201e;" horiz-adv-x="922" 
d="M6 -253l202 519h282l-276 -519h-208zM407 -253l202 519h281l-276 -519h-207z" />
    <glyph glyph-name="dagger" unicode="&#x2020;" horiz-adv-x="1122" 
d="M551 1096l58 364h265l-57 -364h363l-37 -230h-363l-178 -1124h-265l178 1124h-358l37 230h357z" />
    <glyph glyph-name="daggerdbl" unicode="&#x2021;" horiz-adv-x="1166" 
d="M361 -258l106 670h-358l36 228h358l43 271h-358l37 231h358l50 318h263l-50 -318h361l-37 -231h-360l-44 -271h361l-36 -228h-360l-106 -670h-264z" />
    <glyph glyph-name="bullet" unicode="&#x2022;" horiz-adv-x="759" 
d="M379 401q-119 0 -202.5 84t-83.5 203t83.5 202.5t202.5 83.5t202.5 -84t83.5 -202q0 -119 -83.5 -203t-202.5 -84z" />
    <glyph glyph-name="ellipsis" unicode="&#x2026;" horiz-adv-x="1816" 
d="M114 86q0 20 5 57q14 89 53 123t129 34q76 0 107.5 -23t31.5 -79q0 -20 -5 -55q-14 -90 -53 -124t-131 -34q-75 0 -106 22.5t-31 78.5zM894 -15q-75 0 -106.5 22.5t-31.5 78.5q0 20 5 57q14 89 53.5 123t129.5 34q75 0 106 -22.5t31 -79.5q0 -27 -4 -55q-14 -90 -53 -124
t-130 -34zM1398 86q0 20 5 57q14 90 53.5 123.5t129.5 33.5q76 0 107 -22.5t31 -79.5q0 -20 -5 -55q-14 -90 -52.5 -124t-130.5 -34q-76 0 -107 22.5t-31 78.5z" />
    <glyph glyph-name="perthousand" unicode="&#x2030;" horiz-adv-x="2461" 
d="M421 588q-144 0 -203 59t-59 186q0 73 17 180q14 91 32 155t46.5 118t68.5 86t97.5 49.5t134.5 17.5q144 0 203.5 -59t59.5 -187q0 -75 -17 -180q-14 -90 -32 -154t-46.5 -118t-69 -86t-98 -49.5t-134.5 -17.5zM347 850q0 -56 21 -84t74 -28q29 0 52 8t39.5 27t28 39.5
t21 56t15 65.5t13.5 79q19 120 19 163q0 57 -21.5 85t-74.5 28q-35 0 -61 -14t-42 -34.5t-29 -60.5t-20 -73.5t-16 -93.5q-19 -122 -19 -163zM1280 -7q-144 0 -203 58.5t-59 185.5q0 74 17 181q18 114 42.5 188t67 130.5t108.5 82t162 25.5q144 0 202.5 -59t58.5 -186
q0 -74 -17 -181q-18 -114 -42 -188t-66.5 -130.5t-108.5 -81.5t-162 -25zM1206 255q0 -56 21 -84t74 -28q29 0 52 8t39.5 27t28 39.5t21 56t15 65.5t13.5 79q19 122 19 164q0 56 -21.5 84t-74.5 28q-29 0 -52 -8t-39.5 -27.5t-27.5 -39.5t-20.5 -56.5t-15 -65.5t-13.5 -79
q-19 -122 -19 -163zM2010 -7q-144 0 -203 58.5t-59 185.5q0 74 17 181q18 114 42.5 188t67 130.5t108.5 82t162 25.5q144 0 203 -59t59 -186q0 -76 -17 -181q-18 -114 -42.5 -188t-67 -130.5t-108.5 -81.5t-162 -25zM2200 418q19 120 19 163q0 57 -21.5 85t-74.5 28
q-29 0 -52 -8t-39.5 -27.5t-27.5 -39.5t-20.5 -56.5t-15 -65.5t-13.5 -79q-19 -123 -19 -164q0 -56 21.5 -83.5t74.5 -27.5q35 0 61 14t42 34t29 59.5t20 74t16 93.5zM295 -29l1059 1490h186l-1060 -1490h-185z" />
    <glyph glyph-name="guilsinglleft" unicode="&#x2039;" horiz-adv-x="670" 
d="M369 530l200 -424h-249l-227 424l361 424h249z" />
    <glyph glyph-name="guilsinglright" unicode="&#x203a;" horiz-adv-x="671" 
d="M662 530l-362 -424h-248l334 424l-200 424h248z" />
    <glyph glyph-name="fraction" unicode="&#x2044;" horiz-adv-x="326" 
d="M-402 -29l1059 1490h185l-1059 -1490h-185z" />
    <glyph glyph-name="uni2070" unicode="&#x2070;" horiz-adv-x="766" 
d="M152 1073q0 57 18 179q14 91 32 155t46.5 118t68.5 86t97.5 49.5t134.5 17.5q144 0 203.5 -59t59.5 -187q0 -69 -18 -180q-14 -91 -32 -154.5t-46.5 -117.5t-68.5 -86t-97.5 -49.5t-134.5 -17.5q-144 0 -203.5 59t-59.5 187zM359 1252q-18 -115 -18 -163
q0 -56 21.5 -83.5t74.5 -27.5q35 0 61 13.5t42 34t29 59.5t20 73.5t16 93.5q19 122 19 164q0 56 -22 84t-74 28q-29 0 -52 -8t-39.5 -27.5t-28 -39.5t-21 -56t-15 -66t-13.5 -79z" />
    <glyph glyph-name="uni2074" unicode="&#x2074;" horiz-adv-x="734" 
d="M441 834l28 185h-255q-106 0 -106 72q0 14 1 22q9 54 81 132l324 352q43 46 75.5 63t73.5 17q37 0 59 -21t22 -61q0 -6 -2 -24l-64 -407h97l-22 -145h-98l-29 -185h-185zM533 1413l-223 -249h183z" />
    <glyph glyph-name="uni2075" unicode="&#x2075;" horiz-adv-x="704" 
d="M378 1369q8 0 20.5 0.5t16.5 0.5q58 0 101 -4t84 -16.5t67 -34t41.5 -57.5t15.5 -86q0 -30 -6 -67q-23 -145 -112.5 -210.5t-246.5 -65.5q-136 0 -266 31l42 145q149 -21 212 -21q91 0 127.5 25.5t50.5 109.5q2 14 2 19q0 27 -14 45t-41 26t-54 11t-66 3q-83 0 -183 -5
l102 453h519l-26 -158h-354z" />
    <glyph glyph-name="uni2076" unicode="&#x2076;" horiz-adv-x="747" 
d="M771 1104q-13 -82 -44.5 -138t-81 -86.5t-107.5 -43t-135 -12.5q-142 0 -201.5 58t-59.5 172q0 52 11 120q16 99 34.5 170t48 129.5t67.5 95t93.5 61.5t125.5 35.5t165 10.5q6 0 18.5 -0.5t38 -1t54.5 -0.5l-9 -145q-20 -1 -61 -1.5t-70 -1.5t-68.5 -5t-69 -15t-58.5 -28
t-49.5 -46t-30.5 -68q83 9 125 9q135 0 202.5 -43t67.5 -153q0 -33 -6 -73zM424 975q79 0 113 29t46 103q3 19 3 35q0 50 -30.5 69t-92.5 19q-45 0 -113 -8q-5 -20 -13 -66q-6 -39 -6 -75q0 -106 93 -106z" />
    <glyph glyph-name="uni2077" unicode="&#x2077;" horiz-adv-x="647" 
d="M755 1529l-415 -693h-210l430 675h-385l25 158h484q52 0 76.5 -22.5t18.5 -61.5q-2 -19 -24 -56z" />
    <glyph glyph-name="uni2078" unicode="&#x2078;" horiz-adv-x="745" 
d="M406 827q-135 0 -208 43.5t-73 147.5q0 22 5 54q11 69 47 112t105 83q-83 55 -83 148q0 25 4 49q33 214 336 214q273 0 273 -173q0 -20 -3 -41q-11 -71 -40 -114t-100 -81q46 -31 69 -67.5t23 -88.5q0 -11 -4 -41q-12 -73 -43.5 -123t-81 -75.5t-103 -36t-123.5 -10.5z
M313 1051q0 -44 30 -60.5t86 -16.5q61 0 98 21.5t46 79.5q3 18 3 33q0 40 -31 59.5t-115 28.5q-100 -22 -115 -121q-2 -18 -2 -24zM628 1444q2 16 2 21q0 41 -29 55.5t-84 14.5q-60 0 -94.5 -18.5t-42.5 -72.5q0 -3 -1.5 -11.5t-1.5 -12.5q0 -36 30.5 -56t111.5 -25
q51 14 76.5 36.5t32.5 68.5z" />
    <glyph glyph-name="uni2079" unicode="&#x2079;" horiz-adv-x="746" 
d="M173 1401q13 82 44.5 138t81 86.5t107.5 43t135 12.5q142 0 201 -57.5t59 -170.5q0 -52 -11 -121q-16 -100 -34.5 -170.5t-47.5 -129t-67 -95t-93.5 -61.5t-125.5 -35.5t-165 -10.5q-42 0 -111 2l9 144q20 1 61.5 1.5t70 1.5t68.5 5t69 15t58 28t49.5 46t30.5 68
q-83 -9 -125 -9q-135 0 -202.5 42.5t-67.5 153.5q0 34 6 73zM520 1531q-79 0 -113.5 -29t-45.5 -103q-3 -19 -3 -35q0 -51 30.5 -70t92.5 -19q52 0 113 9q5 27 12 65q8 52 8 75q0 107 -94 107z" />
    <glyph glyph-name="uni2080" unicode="&#x2080;" horiz-adv-x="766" 
d="M152 -1q0 57 18 179q14 91 32 155t46.5 118t68.5 86t97.5 49.5t134.5 17.5q144 0 203.5 -59t59.5 -187q0 -69 -18 -180q-14 -91 -32 -154.5t-46.5 -117.5t-68.5 -86t-97.5 -49.5t-134.5 -17.5q-144 0 -203.5 59t-59.5 187zM359 178q-18 -115 -18 -163q0 -56 21.5 -83.5
t74.5 -27.5q35 0 61 13.5t42 34t29 59.5t20 73.5t16 93.5q19 122 19 164q0 56 -22 84t-74 28q-29 0 -52 -8t-39.5 -27.5t-28 -39.5t-21 -56t-15 -66t-13.5 -79z" />
    <glyph glyph-name="uni2081" unicode="&#x2081;" horiz-adv-x="486" 
d="M237 -238l103 648q-89 -19 -180 -29l15 148q127 18 237 66h144l-132 -833h-187z" />
    <glyph glyph-name="uni2082" unicode="&#x2082;" horiz-adv-x="706" 
d="M226 573q159 30 282 30q267 0 267 -175q0 -21 -3 -45q-18 -112 -90 -186.5t-202 -124.5q-77 -29 -109 -61.5t-50 -90.5h377l-25 -160h-590q27 81 41.5 122.5t37.5 94t43 79.5t51 58.5t69 53t90 42.5q81 33 117.5 64t45.5 83q2 18 2 23q0 40 -36 54t-130 14
q-65 0 -193 -20z" />
    <glyph glyph-name="uni2083" unicode="&#x2083;" horiz-adv-x="695" 
d="M755 385q-19 -122 -133 -184q91 -44 91 -138q0 -20 -3 -41q-24 -147 -115.5 -208t-251.5 -61q-112 0 -257 30l42 145q142 -20 210 -20q86 0 125.5 21.5t49.5 86.5q3 15 3 28q0 62 -61 70q-60 8 -166 8h-25l21 138q99 3 194 16q70 10 82 91q2 14 2 20q0 40 -29.5 52.5
t-89.5 12.5q-61 0 -229 -21l4 144q153 29 263 29q48 0 86 -4t75 -15.5t61.5 -30.5t39.5 -50t15 -73q0 -12 -4 -46z" />
    <glyph glyph-name="uni2084" unicode="&#x2084;" horiz-adv-x="734" 
d="M441 -240l28 185h-255q-106 0 -106 72q0 14 1 22q9 54 81 132l324 352q43 46 75.5 63t73.5 17q37 0 59 -21t22 -61q0 -6 -2 -24l-64 -407h97l-22 -145h-98l-29 -185h-185zM533 339l-223 -249h183z" />
    <glyph glyph-name="uni2085" unicode="&#x2085;" horiz-adv-x="704" 
d="M378 295q8 0 20.5 0.5t16.5 0.5q58 0 101 -4t84 -16.5t67 -34t41.5 -57.5t15.5 -86q0 -30 -6 -67q-23 -145 -112.5 -210.5t-246.5 -65.5q-136 0 -266 31l42 145q149 -21 212 -21q91 0 127.5 25.5t50.5 109.5q2 14 2 19q0 27 -14 45t-41 26t-54 11t-66 3q-83 0 -183 -5
l102 453h519l-26 -158h-354z" />
    <glyph glyph-name="uni2086" unicode="&#x2086;" horiz-adv-x="747" 
d="M771 30q-13 -82 -44.5 -138t-81 -86.5t-107.5 -43t-135 -12.5q-142 0 -201.5 58t-59.5 172q0 52 11 120q16 99 34.5 170t48 129.5t67.5 95t93.5 61.5t125.5 35.5t165 10.5q6 0 18.5 -0.5t38 -1t54.5 -0.5l-9 -145q-20 -1 -61 -1.5t-70 -1.5t-68.5 -5t-69 -15t-58.5 -28
t-49.5 -46t-30.5 -68q83 9 125 9q135 0 202.5 -43t67.5 -153q0 -33 -6 -73zM424 -99q79 0 113 29t46 103q3 20 3 35q0 50 -30.5 69t-92.5 19q-36 0 -113 -9q-6 -22 -13 -65q-6 -39 -6 -75q0 -106 93 -106z" />
    <glyph glyph-name="uni2087" unicode="&#x2087;" horiz-adv-x="647" 
d="M755 455l-415 -693h-210l430 675h-385l25 158h484q52 0 76.5 -22.5t18.5 -61.5q-2 -19 -24 -56z" />
    <glyph glyph-name="uni2088" unicode="&#x2088;" horiz-adv-x="745" 
d="M406 -247q-135 0 -208 43.5t-73 147.5q0 22 5 54q11 69 47 112t105 83q-83 55 -83 148q0 25 4 49q33 214 336 214q273 0 273 -173q0 -20 -3 -41q-11 -71 -40 -114t-100 -81q46 -31 69 -67.5t23 -88.5q0 -11 -4 -41q-12 -73 -43.5 -123t-81 -75.5t-103 -36t-123.5 -10.5z
M313 -23q0 -44 30 -60.5t86 -16.5q61 0 98 21.5t46 79.5q3 18 3 33q0 40 -31 59.5t-115 28.5q-100 -22 -115 -121q-2 -18 -2 -24zM628 370q2 16 2 21q0 41 -29 55.5t-84 14.5q-60 0 -94.5 -18.5t-42.5 -72.5q0 -3 -1.5 -11.5t-1.5 -12.5q0 -36 30.5 -56t111.5 -25
q51 14 76.5 36.5t32.5 68.5z" />
    <glyph glyph-name="uni2089" unicode="&#x2089;" horiz-adv-x="746" 
d="M173 327q13 82 44.5 138t81 86.5t107.5 43t135 12.5q142 0 201 -57.5t59 -170.5q0 -53 -11 -122q-16 -100 -34.5 -170.5t-47.5 -129t-67 -95t-93.5 -61.5t-125.5 -35.5t-165 -10.5q-7 0 -111 3l9 144q20 1 61.5 1.5t70 1.5t68.5 5t69 15t58 28t49.5 46t30.5 68
q-83 -9 -125 -9q-135 0 -202.5 42.5t-67.5 153.5q0 34 6 73zM520 457q-79 0 -113.5 -29t-45.5 -103q-3 -19 -3 -35q0 -51 30.5 -70t92.5 -19q52 0 113 9q5 27 12 65q8 52 8 75q0 107 -94 107z" />
    <glyph glyph-name="Euro" unicode="&#x20ac;" horiz-adv-x="1108" 
d="M908 650l-55 -152h-336q0 -2 -1.5 -23t-1.5 -32q0 -110 48.5 -166t168.5 -56q115 0 248 27l-14 -219q-142 -44 -319 -44q-222 0 -315.5 95.5t-93.5 308.5q0 44 5 109h-148l56 152h110l3.5 21t3.5 23l9 56h-130l57 152h104q65 266 192.5 383.5t371.5 117.5q172 0 304 -45
l-55 -218q-127 27 -240 27q-131 0 -197 -66.5t-100 -198.5h420l-57 -152h-394l-16 -100h372z" />
    <glyph glyph-name="uni2113" unicode="&#x2113;" horiz-adv-x="1040" 
d="M109 313l-48 140l200 125q20 125 36.5 213.5t42.5 192.5t53.5 174.5t68 140.5t88 111.5t111.5 67t140 25.5q111 0 166.5 -66t55.5 -174q0 -35 -6 -73q-50 -312 -517 -653q-7 -88 -7 -136q0 -120 32.5 -180t111.5 -60q50 0 106 32.5t137 102.5l77 -108
q-182 -203 -395 -203q-314 0 -316 405zM759 1338q-23 0 -43 -11t-37 -35.5t-30.5 -48.5t-27 -67t-22 -72.5t-19.5 -83t-16 -81t-15 -83t-13 -74.5q122 112 191 210t85 204q6 40 6 58q0 84 -59 84z" />
    <glyph glyph-name="trademark" unicode="&#x2122;" horiz-adv-x="1961" 
d="M1805 573h-175v592h-1l-231 -592h-116l-231 591h-1v-591h-175v859h243l225 -574l222 574h240v-859zM758 1432v-152h-255v-707h-175v707h-255v152h685z" />
    <glyph glyph-name="Omega" unicode="&#x2126;" horiz-adv-x="1542" 
d="M1219 743q7 43 7 96q0 76 -19 144t-55.5 124t-98 88.5t-139.5 32.5q-175 0 -305.5 -140.5t-163.5 -347.5q-9 -58 -9 -113q0 -153 62.5 -276.5t157.5 -187.5l-26 -163h-596l34 218h236q-131 180 -131 413q0 66 10 130q31 198 143 355t276 243.5t349 86.5q169 0 295 -77
t188.5 -202.5t62.5 -281.5q0 -59 -9 -117q-26 -165 -106 -305t-190 -245h236l-35 -218h-594l26 163q141 79 251.5 230t142.5 350z" />
    <glyph glyph-name="estimated" unicode="&#x212e;" horiz-adv-x="1660" 
d="M1356 305h126q-125 -153 -282 -236.5t-366 -83.5q-163 0 -302.5 51.5t-236.5 141t-151.5 214t-54.5 266.5q0 134 53 255.5t147 214.5t236 148t309 55q171 0 308.5 -51t228.5 -142.5t144 -212.5t66 -267h-1166v-455q172 -145 419 -145q327 0 522 247zM415 1112v-381h840
v381q-185 147 -421 147q-250 0 -419 -147z" />
    <glyph glyph-name="uni2190" unicode="&#x2190;" horiz-adv-x="1393" 
d="M532 485l303 -380h-264l-463 496l463 496h264l-303 -379h848v-233h-848z" />
    <glyph glyph-name="uni2191" unicode="&#x2191;" horiz-adv-x="1114" 
d="M721 814v-849h-233v849l-380 -303v264l496 463l496 -463v-264z" />
    <glyph glyph-name="uni2192" unicode="&#x2192;" horiz-adv-x="1393" 
d="M1380 601l-463 -496h-264l304 380h-849v233h849l-304 379h264z" />
    <glyph glyph-name="uni2193" unicode="&#x2193;" horiz-adv-x="1113" 
d="M1100 692v-264l-496 -463l-496 463v264l380 -304v850h233v-850z" />
    <glyph glyph-name="uni21E8" unicode="&#x21e8;" horiz-adv-x="1637" 
d="M954 323h-838v558h838v341l641 -620l-641 -621v342zM1453 602l-399 379v-201h-839v-357h839v-201z" />
    <glyph glyph-name="partialdiff" unicode="&#x2202;" horiz-adv-x="1111" 
d="M380 1241l-22 163q177 113 357 113q194 0 289 -127.5t95 -356.5q0 -103 -20 -228q-38 -242 -130.5 -426t-232.5 -289t-309 -105q-164 0 -248.5 99t-84.5 256q0 43 8 96q38 235 187 380.5t369 145.5q114 0 192 -80q8 65 8 137q0 301 -204 301q-69 0 -126.5 -19t-127.5 -60
zM342 358q0 -82 29 -134t89 -52q58 0 111.5 42.5t93.5 114.5t70 152t51 170q-58 117 -167 117q-68 0 -126.5 -48t-94.5 -122t-50 -162q-6 -39 -6 -78z" />
    <glyph glyph-name="Delta" unicode="&#x2206;" horiz-adv-x="1361" 
d="M1268 154l-25 -154h-1238l23 151l691 1281h272zM983 211l-188 884l-471 -884h659z" />
    <glyph glyph-name="product" unicode="&#x220f;" horiz-adv-x="1573" 
d="M1697 1475l-36 -230h-222l-240 -1517h-271l240 1517h-463l-240 -1517h-271l240 1517h-223l36 230h1450z" />
    <glyph glyph-name="summation" unicode="&#x2211;" horiz-adv-x="1251" 
d="M256 1475h1094l-35 -221h-732l363 -624l-609 -663h806l-38 -239h-1148l26 161l650 711l-403 707z" />
    <glyph glyph-name="minus" unicode="&#x2212;" horiz-adv-x="1153" 
d="M108 485l36 233h996l-36 -233h-996z" />
    <glyph glyph-name="uni2215" unicode="&#x2215;" horiz-adv-x="326" 
d="M-402 -29l1059 1490h185l-1059 -1490h-185z" />
    <glyph glyph-name="uni2219" unicode="&#x2219;" horiz-adv-x="557" 
d="M300 430q-76 0 -107 22t-31 77q0 25 6 58q14 90 53 123.5t129 33.5q76 0 107 -22.5t31 -78.5q0 -29 -5 -56q-14 -90 -53 -123.5t-130 -33.5z" />
    <glyph glyph-name="radical" unicode="&#x221a;" horiz-adv-x="1165" 
d="M1352 1761l-723 -1890h-220l-147 826l-146 -54l-26 178l381 144l106 -668l554 1464h221z" />
    <glyph glyph-name="infinity" unicode="&#x221e;" horiz-adv-x="1675" 
d="M130 601q24 149 139 261.5t259 112.5q182 0 319 -195q60 62 101 100t101.5 82.5t122 66.5t125.5 22q159 0 245.5 -102.5t86.5 -258.5q0 -47 -7 -89q-19 -120 -80 -221t-163 -165t-224 -64q-52 0 -99.5 16.5t-82 39.5t-71 62.5t-59 71t-53.5 79.5q-195 -190 -380 -190
q-128 0 -206.5 89.5t-78.5 219.5q0 27 5 62zM493 756q-55 0 -97 -42t-54 -113q-3 -18 -3 -36q0 -55 29 -85.5t76 -30.5q98 0 245 152q-55 84 -101.5 119.5t-94.5 35.5zM1409 660q0 82 -40 126.5t-107 44.5q-118 0 -310 -230q118 -229 237 -229q79 0 138.5 60.5t76.5 168.5
q5 26 5 59z" />
    <glyph glyph-name="integral" unicode="&#x222b;" horiz-adv-x="772" 
d="M941 1448q-54 47 -121 47q-48 0 -85.5 -31t-61 -87.5t-37 -109.5t-24.5 -123q-26 -163 -60 -488.5t-60 -493.5q-11 -71 -31.5 -139.5t-58 -141.5t-86.5 -128t-121.5 -90t-157.5 -35q-53 0 -114.5 20.5t-93.5 44.5l76 183q57 -46 145 -46q84 0 129 83t73 258
q25 154 61.5 495t60.5 495q13 79 32.5 147.5t56 141t85.5 123.5t124.5 83.5t167.5 32.5q49 0 98 -19t81 -43z" />
    <glyph glyph-name="approxequal" unicode="&#x2248;" horiz-adv-x="1313" 
d="M900 434q79 0 163.5 29.5t148.5 87.5q-6 -38 -18.5 -116t-18.5 -116q-64 -58 -148.5 -87.5t-163.5 -29.5q-65 0 -123 20t-95 43.5t-92 43.5t-114 20q-79 0 -163.5 -29.5t-148.5 -87.5l37 232q64 58 148.5 87.5t163.5 29.5q64 0 122.5 -20t95.5 -43.5t92 -43.5t114 -20z
M233 883q64 58 148.5 87.5t164.5 29.5q65 0 123 -20t95 -43.5t92 -43.5t113 -20q79 0 163.5 29.5t148.5 87.5q-6 -39 -18 -116t-18 -116q-64 -58 -148.5 -87.5t-164.5 -29.5q-65 0 -123 20t-95 43.5t-91.5 43.5t-113.5 20q-79 0 -163.5 -29.5t-148.5 -87.5z" />
    <glyph glyph-name="notequal" unicode="&#x2260;" horiz-adv-x="1262" 
d="M127 265l38 233h362l122 207h-452l37 233h552l174 296h180l-173 -296h263l-37 -233h-363l-122 -207h453l-38 -233h-551l-174 -296h-181l174 296h-264z" />
    <glyph glyph-name="lessequal" unicode="&#x2264;" horiz-adv-x="1262" 
d="M160 664l30 191l1089 400l-38 -239l-727 -257l645 -256l-38 -240zM47 -52l37 232h1024l-37 -232h-1024z" />
    <glyph glyph-name="greaterequal" unicode="&#x2265;" horiz-adv-x="1262" 
d="M166 503l727 256l-646 257l38 239l961 -400l-30 -191l-1088 -401zM77 -52l38 232h1024l-37 -232h-1025z" />
    <glyph glyph-name="lozenge" unicode="&#x25ca;" horiz-adv-x="1156" 
d="M1139 717l-525 -774h-202l-282 774l526 772h202zM555 209l334 508l-173 509l-335 -509z" />
    <glyph glyph-name="zero.numerator" horiz-adv-x="766" 
d="M152 834q0 57 18 179q14 91 32 155t46.5 118t68.5 86t97.5 49.5t134.5 17.5q144 0 203.5 -59t59.5 -187q0 -69 -18 -180q-14 -91 -32 -154.5t-46.5 -117.5t-68.5 -86t-97.5 -49.5t-134.5 -17.5q-144 0 -203.5 59t-59.5 187zM359 1013q-18 -115 -18 -163q0 -56 21.5 -83.5
t74.5 -27.5q35 0 61 13.5t42 34t29 59.5t20 73.5t16 93.5q19 122 19 164q0 56 -22 84t-74 28q-29 0 -52 -8t-39.5 -27.5t-28 -39.5t-21 -56t-15 -66t-13.5 -79z" />
    <glyph glyph-name="one.numerator" horiz-adv-x="486" 
d="M237 597l103 648q-89 -19 -180 -29l15 148q127 18 237 66h144l-132 -833h-187z" />
    <glyph glyph-name="two.numerator" horiz-adv-x="706" 
d="M226 1408q159 30 282 30q267 0 267 -175q0 -21 -3 -45q-18 -112 -90 -186.5t-202 -124.5q-77 -29 -109 -61.5t-50 -90.5h377l-25 -160h-590q27 81 41.5 122.5t37.5 94t43 79.5t51 58.5t69 53t90 42.5q81 33 117.5 64t45.5 83q2 18 2 23q0 40 -36 54t-130 14
q-65 0 -193 -20z" />
    <glyph glyph-name="three.numerator" horiz-adv-x="695" 
d="M755 1220q-19 -122 -133 -184q91 -44 91 -138q0 -20 -3 -41q-24 -147 -115.5 -208t-251.5 -61q-112 0 -257 30l42 145q142 -20 210 -20q86 0 125.5 21.5t49.5 86.5q3 15 3 28q0 62 -61 70q-60 8 -166 8h-25l21 138q99 3 194 16q70 10 82 91q2 14 2 20q0 40 -29.5 52.5
t-89.5 12.5q-61 0 -229 -21l4 144q153 29 263 29q48 0 86 -4t75 -15.5t61.5 -30.5t39.5 -50t15 -73q0 -12 -4 -46z" />
    <glyph glyph-name="four.numerator" horiz-adv-x="734" 
d="M441 595l28 185h-255q-106 0 -106 72q0 14 1 22q9 54 81 132l324 352q43 46 75.5 63t73.5 17q37 0 59 -21t22 -61q0 -6 -2 -24l-64 -407h97l-22 -145h-98l-29 -185h-185zM533 1174l-223 -249h183z" />
    <glyph glyph-name="five.numerator" horiz-adv-x="704" 
d="M378 1130q8 0 20.5 0.5t16.5 0.5q58 0 101 -4t84 -16.5t67 -34t41.5 -57.5t15.5 -86q0 -29 -6 -67q-23 -145 -112.5 -210.5t-246.5 -65.5q-136 0 -266 31l42 145q149 -21 212 -21q91 0 127.5 25.5t50.5 109.5q2 14 2 19q0 27 -14 45t-41 26t-54 11t-66 3q-83 0 -183 -5
l102 453h519l-26 -158h-354z" />
    <glyph glyph-name="six.numerator" horiz-adv-x="747" 
d="M771 865q-13 -82 -44.5 -138t-81 -86.5t-107.5 -43t-135 -12.5q-142 0 -201.5 58t-59.5 172q0 52 11 120q16 99 34.5 170t48 129.5t67.5 95t93.5 61.5t125.5 35.5t165 10.5q6 0 18.5 -0.5t38 -1t54.5 -0.5l-9 -145q-20 -1 -61 -1.5t-70 -1.5t-68.5 -5t-69 -15t-58.5 -28
t-49.5 -46t-30.5 -68q83 9 125 9q135 0 202.5 -43t67.5 -153q0 -32 -6 -73zM424 736q79 0 113 29t46 103q3 20 3 35q0 50 -30.5 69t-92.5 19q-45 0 -113 -8q-5 -20 -13 -66q-6 -39 -6 -75q0 -106 93 -106z" />
    <glyph glyph-name="seven.numerator" horiz-adv-x="647" 
d="M755 1290l-415 -693h-210l430 675h-385l25 158h484q52 0 76.5 -22.5t18.5 -61.5q-2 -19 -24 -56z" />
    <glyph glyph-name="eight.numerator" horiz-adv-x="745" 
d="M406 588q-135 0 -208 43.5t-73 147.5q0 22 5 54q11 69 47 112t105 83q-83 55 -83 148q0 25 4 49q33 214 336 214q273 0 273 -173q0 -20 -3 -41q-11 -71 -40 -114t-100 -81q46 -31 69 -67.5t23 -88.5q0 -11 -4 -41q-12 -73 -43.5 -123t-81 -75.5t-103 -36t-123.5 -10.5z
M313 812q0 -44 30 -60.5t86 -16.5q61 0 98 21.5t46 79.5q3 18 3 33q0 40 -31 59.5t-115 28.5q-100 -22 -115 -121q-2 -18 -2 -24zM628 1205q2 16 2 21q0 41 -29 55.5t-84 14.5q-60 0 -94.5 -18.5t-42.5 -72.5q0 -3 -1.5 -11.5t-1.5 -12.5q0 -36 30.5 -56t111.5 -25
q51 14 76.5 36.5t32.5 68.5z" />
    <glyph glyph-name="nine.numerator" horiz-adv-x="746" 
d="M173 1162q13 82 44.5 138t81 86.5t107.5 43t135 12.5q142 0 201 -57.5t59 -170.5q0 -52 -11 -121q-16 -100 -34.5 -170.5t-47.5 -129t-67 -95.5t-93.5 -62t-125.5 -35.5t-165 -10.5q-7 0 -111 3l9 144q20 1 61.5 1.5t70 1.5t68.5 5t69 15t58 28t49.5 46t30.5 68
q-83 -9 -125 -9q-135 0 -202.5 42.5t-67.5 153.5q0 34 6 73zM520 1292q-79 0 -113.5 -29t-45.5 -103q-3 -20 -3 -35q0 -51 30.5 -70t92.5 -19q52 0 113 9q5 27 12 65q8 52 8 75q0 107 -94 107z" />
    <glyph glyph-name="zero.denominator" horiz-adv-x="766" 
d="M152 238q0 58 18 180q14 91 32 155t46.5 118t68.5 86t97.5 49.5t134.5 17.5q144 0 203.5 -59t59.5 -187q0 -69 -18 -180q-14 -91 -32 -154.5t-46.5 -117.5t-68.5 -86t-97.5 -49.5t-134.5 -17.5q-144 0 -203.5 59t-59.5 186zM359 418q-18 -115 -18 -164q0 -56 21.5 -83.5
t74.5 -27.5q35 0 61 14t42 34t29 59.5t20 74t16 93.5q19 122 19 164q0 56 -22 84t-74 28q-29 0 -52 -8t-39.5 -27.5t-28 -39.5t-21 -56t-15 -66t-13.5 -79z" />
    <glyph glyph-name="one.denominator" horiz-adv-x="486" 
d="M237 2l103 647q-79 -17 -180 -28l15 148q127 18 237 66h144l-132 -833h-187z" />
    <glyph glyph-name="two.denominator" horiz-adv-x="706" 
d="M226 812q159 30 282 30q126 0 196.5 -39.5t70.5 -134.5q0 -21 -3 -45q-18 -112 -90 -186.5t-202 -124.5q-77 -29 -109 -62t-50 -91h377l-25 -159h-590q27 81 41.5 122.5t37.5 94t43 79.5t51 58.5t69 53t90 42.5q81 33 117.5 64t45.5 83q2 18 2 23q0 40 -36 54t-130 14
q-65 0 -193 -20z" />
    <glyph glyph-name="three.denominator" horiz-adv-x="695" 
d="M755 624q-19 -121 -133 -183q91 -44 91 -139q0 -19 -3 -40q-24 -147 -115.5 -208t-251.5 -61q-112 0 -257 30l42 145q142 -20 210 -20q86 0 125.5 21.5t49.5 86.5q3 15 3 27q0 62 -61 70q-67 9 -166 9h-25l21 138q99 3 194 16q70 10 82 90q2 14 2 21q0 40 -29.5 52
t-89.5 12q-69 0 -229 -20l4 143q158 30 263 30q60 0 106 -7.5t86.5 -25.5t62.5 -53.5t22 -87.5q0 -12 -4 -46z" />
    <glyph glyph-name="four.denominator" horiz-adv-x="734" 
d="M441 0l28 184h-255q-106 0 -106 73q0 14 1 22q8 53 81 131l324 353q42 46 75 62.5t74 16.5q37 0 59 -20.5t22 -60.5q0 -6 -2 -24l-64 -408h97l-22 -145h-98l-29 -184h-185zM533 579l-223 -250h183z" />
    <glyph glyph-name="five.denominator" horiz-adv-x="704" 
d="M378 535h37q58 0 101 -4t84 -16.5t67 -34t41.5 -57.5t15.5 -86q0 -29 -6 -67q-23 -145 -112.5 -210.5t-246.5 -65.5q-136 0 -266 31l42 145q142 -20 212 -20q92 0 128 25t50 109q2 14 2 20q0 27 -14 45t-41 26t-54 11t-66 3q-83 0 -183 -5l102 452h519l-26 -158h-354z
" />
    <glyph glyph-name="six.denominator" horiz-adv-x="747" 
d="M771 270q-13 -82 -44.5 -138t-81 -86.5t-107.5 -43t-135 -12.5q-142 0 -201.5 57.5t-59.5 171.5q0 52 11 120q16 99 34.5 170t48 129.5t67.5 95t93.5 61.5t125.5 35.5t165 10.5q6 0 18.5 -0.5t38 -1t54.5 -0.5l-9 -145q-20 -1 -61 -1t-70 -1.5t-68.5 -5.5t-69 -14.5
t-58.5 -27.5t-49.5 -46t-30.5 -68q74 8 125 8q135 0 202.5 -42.5t67.5 -152.5q0 -33 -6 -73zM424 141q79 0 113 28.5t46 102.5q3 19 3 35q0 50 -30.5 69.5t-92.5 19.5q-36 0 -113 -9q-5 -20 -13 -66q-6 -39 -6 -74q0 -106 93 -106z" />
    <glyph glyph-name="seven.denominator" horiz-adv-x="647" 
d="M755 695l-415 -693h-210l430 675h-385l25 158h484q52 0 76.5 -22.5t18.5 -61.5q-2 -19 -24 -56z" />
    <glyph glyph-name="eight.denominator" horiz-adv-x="745" 
d="M406 -7q-135 0 -208 43.5t-73 147.5q0 21 5 53q11 69 47 112.5t105 83.5q-83 55 -83 148q0 25 4 49q33 214 336 214q273 0 273 -174q0 -19 -3 -40q-11 -71 -40 -114t-100 -81q46 -31 69 -67.5t23 -88.5q0 -11 -4 -41q-12 -73 -43.5 -123t-81 -75.5t-103 -36t-123.5 -10.5
zM313 217q0 -44 30 -61t86 -17q60 0 97.5 22t46.5 80q3 18 3 32q0 40 -31 59.5t-115 28.5q-100 -23 -115 -120q-2 -18 -2 -24zM628 610q2 16 2 21q0 41 -29 55t-84 14q-60 0 -94.5 -18t-42.5 -72q0 -3 -1.5 -11.5t-1.5 -12.5q0 -36 31 -56.5t111 -25.5q51 14 76.5 36.5
t32.5 69.5z" />
    <glyph glyph-name="nine.denominator" horiz-adv-x="746" 
d="M173 567q13 82 44.5 138t81 86.5t107.5 43t135 12.5q142 0 201 -57.5t59 -171.5q0 -52 -11 -121q-16 -100 -34.5 -170.5t-47.5 -129t-67 -95t-93.5 -61.5t-125.5 -35.5t-165 -10.5q-7 0 -111 3l9 144q20 1 61.5 1.5t70 1.5t68.5 5t69 15t58 28t49.5 46t30.5 68
q-83 -9 -125 -9q-135 0 -202.5 42.5t-67.5 153.5q0 34 6 73zM520 696q-80 0 -114 -28.5t-45 -102.5q-3 -20 -3 -35q0 -51 30.5 -70t92.5 -19q52 0 113 9q5 27 12 65q8 52 8 75q0 106 -94 106z" />
    <glyph glyph-name="zero.onum" horiz-adv-x="1148" 
d="M527 -15q-218 0 -308 85.5t-90 269.5q0 102 23 243q17 105 37 184t51 149t72.5 117t99 81.5t132.5 50.5t172 16q218 0 307 -84.5t89 -268.5q0 -96 -24 -245q-20 -127 -45.5 -216.5t-67.5 -166t-101.5 -121.5t-145 -69.5t-201.5 -24.5zM394 371q0 -84 36 -126t127 -42
q42 0 75 9.5t57.5 25t44 44t32 55.5t23.5 71.5t18 80.5t16 94q24 153 24 214q0 83 -35.5 124.5t-126.5 41.5q-42 0 -75.5 -9.5t-57.5 -24.5t-43.5 -43.5t-32.5 -55.5t-24 -71.5t-18 -81t-16 -94.5q-24 -151 -24 -212z" />
    <glyph glyph-name="one.onum" horiz-adv-x="715" 
d="M265 0l143 898q-130 -32 -278 -47l22 216q198 29 356 100h204l-185 -1167h-262z" />
    <glyph glyph-name="two.onum" horiz-adv-x="1036" 
d="M228 1142q225 39 413 39q89 0 157.5 -12t123.5 -39.5t84.5 -77t29.5 -119.5q0 -29 -6 -62q-26 -162 -130 -265.5t-297 -171.5q-123 -43 -172.5 -86.5t-75.5 -120.5h573l-36 -227h-866q26 76 42 119.5t38.5 100.5t39 89.5t40 74t46 66t52.5 53.5t64 49.5t75.5 41
t92.5 39.5q129 48 186.5 91t68.5 111q2 10 2 28q0 57 -59 76.5t-213 19.5q-117 0 -279 -24z" />
    <glyph glyph-name="three.onum" horiz-adv-x="1039" 
d="M326 651q137 3 288 25q115 16 137 146q3 18 3 31q0 65 -48.5 85.5t-145.5 20.5q-116 0 -342 -29l6 208q227 43 391 43q71 0 127.5 -6t112 -23.5t92.5 -45.5t59.5 -75.5t22.5 -111.5q0 -27 -7 -71q-32 -196 -206 -283q72 -33 108 -84t36 -128q0 -29 -6 -64
q-15 -93 -48 -162.5t-80 -116t-113 -75.5t-141 -41.5t-168 -12.5q-164 0 -384 44l62 211q204 -28 311 -28q71 0 117 6.5t83 25t57 52.5t29 88q4 30 4 41q0 102 -107 116q-102 14 -256 14h-26z" />
    <glyph glyph-name="four.onum" horiz-adv-x="1104" 
d="M570 -105l45 284h-409q-152 0 -152 105q0 16 3 34q13 83 122 200l499 543q64 69 113 94.5t106 25.5q51 0 81.5 -30t30.5 -88q0 -17 -3 -38l-101 -635h152l-33 -211h-152l-45 -284h-257zM717 818l-382 -428h314z" />
    <glyph glyph-name="five.onum" horiz-adv-x="1055" 
d="M441 701q46 2 71 2q88 0 152.5 -6.5t126.5 -25.5t100.5 -51.5t62 -87t23.5 -129.5q0 -47 -9 -103q-35 -221 -169.5 -320t-370.5 -99q-201 0 -397 45l61 211q183 -29 314 -29q77 0 122.5 7t82.5 30t56 65t30 112q3 16 3 31q0 35 -16 61t-40.5 40t-63.5 22.5t-75.5 11
t-86.5 2.5q-146 0 -269 -8l155 685h773l-37 -231h-546z" />
    <glyph glyph-name="six.onum" horiz-adv-x="1118" 
d="M1056 411q-16 -101 -51 -175.5t-82.5 -122t-114.5 -76.5t-139.5 -40.5t-164.5 -11.5q-213 0 -301.5 88t-88.5 261q0 71 17 185q24 152 53 260t73.5 197.5t102 145t141.5 94t190 54t249 15.5q50 0 157 -3l-12 -210q-32 -2 -92.5 -3t-99.5 -2t-95.5 -7t-95 -15.5t-83.5 -29
t-74 -46.5t-54 -69t-36 -96q118 14 207 14q78 0 137.5 -8t111 -28t84.5 -53.5t51.5 -85t18.5 -120.5q0 -59 -9 -112zM535 204q130 0 185 46t74 165q5 33 5 54q0 81 -50 112t-152 31q-86 0 -189 -15q-9 -36 -20 -107q-11 -72 -11 -113q0 -81 35.5 -127t122.5 -46z" />
    <glyph glyph-name="seven.onum" horiz-adv-x="967" 
d="M1029 960l-641 -1066h-296l665 1041h-598l37 232h732q66 0 100.5 -27t34.5 -74q0 -8 -2 -22q-7 -42 -32 -84z" />
    <glyph glyph-name="eight.onum" horiz-adv-x="1117" 
d="M1041 425q0 -31 -6 -68q-14 -89 -49.5 -156t-83 -107.5t-113 -65.5t-132.5 -34t-150 -9q-97 0 -171 14.5t-131 47t-87 90t-30 138.5q0 31 7 82q17 109 72.5 175t163.5 126q-66 41 -97.5 93t-31.5 130q0 37 6 80q51 324 505 324q407 0 407 -262q0 -29 -6 -62
q-17 -110 -62.5 -176t-155.5 -124q73 -47 109 -101.5t36 -134.5zM777 362q5 32 5 52q0 65 -50.5 95.5t-186.5 45.5q-168 -39 -192 -193q-3 -21 -3 -38q0 -71 49.5 -98t141.5 -27q99 0 160 35.5t76 127.5zM450 892q0 -58 50.5 -90t182.5 -39q82 23 125.5 59.5t54.5 107.5
q3 18 3 34q0 66 -48 89.5t-138 23.5q-47 0 -81.5 -5.5t-66.5 -20.5t-52 -45t-27 -76q-3 -21 -3 -38z" />
    <glyph glyph-name="nine.onum" horiz-adv-x="1120" 
d="M154 755q16 101 51 175.5t82.5 122t114.5 76.5t139.5 40.5t164.5 11.5q213 0 301.5 -87.5t88.5 -260.5q0 -69 -17 -185q-24 -152 -52.5 -260t-73 -197.5t-102 -145.5t-142 -94.5t-190.5 -54t-249 -15.5q-50 0 -157 3l12 211q32 2 92.5 3t99.5 2t96 7t95.5 15.5t83 29
t74 46.5t54.5 69t36 96q-129 -15 -207 -15q-98 0 -168.5 13.5t-126 46t-83 91.5t-27.5 145q0 52 10 111zM412 696q0 -81 50 -111.5t151 -30.5q79 0 189 16q10 37 21 106q11 72 11 114q0 81 -35.5 126.5t-123.5 45.5q-130 0 -184.5 -46t-73.5 -165q-5 -33 -5 -55z" />
    <glyph glyph-name="dollar.onum" horiz-adv-x="958" 
d="M629 361q3 15 3 28q0 31 -12 53.5t-39 39.5t-53 27.5t-72 25.5q-62 20 -104 37.5t-82.5 43t-64.5 55t-38 71.5t-14 94q0 41 7 82q27 172 122 257t262 104l27 175h185l-27 -170q147 -7 292 -40l-57 -208q-172 28 -273 28q-26 0 -44.5 -0.5t-46.5 -3t-48 -7.5t-43.5 -14
t-39 -22t-27.5 -32.5t-16 -44.5q-2 -11 -2 -31q0 -16 3 -30t10.5 -25.5t14 -20t21.5 -17t23 -13t28.5 -11.5t29.5 -10t33.5 -9.5t33.5 -9.5q151 -44 219.5 -112.5t68.5 -190.5q0 -37 -8 -90q-27 -172 -123.5 -262.5t-261.5 -113.5l-29 -177h-185l27 169q-157 4 -312 40
l60 213q188 -29 325 -29q103 0 158.5 32.5t68.5 118.5z" />
    <glyph glyph-name="cent.onum" horiz-adv-x="820" 
d="M750 367l-9 -194q-106 -27 -217 -35l-28 -171h-173l27 172q-131 18 -184.5 100.5t-53.5 216.5q0 78 17 189q18 110 43 188t67.5 142t108.5 101.5t158 51.5l29 175h173l-27 -167q104 -5 205 -38l-50 -188q-122 23 -172 23q-55 0 -93.5 -5.5t-68.5 -20t-48.5 -34t-33 -55
t-23 -74t-18.5 -99.5q-17 -104 -17 -154q0 -80 45 -114.5t165 -34.5q58 0 178 25z" />
    <glyph glyph-name="Euro.onum" horiz-adv-x="1023" 
d="M843 602l-56 -150h-303q-2 -30 -2 -44q0 -97 42.5 -146.5t149.5 -49.5q91 0 230 26l-12 -211q-138 -42 -297 -42q-204 0 -290 88t-86 284q0 44 3 95h-137l56 150h99l13 77h-120l57 151h93q60 242 177 348.5t341 106.5q162 0 284 -43l-54 -209q-133 26 -223 26
q-114 0 -173.5 -57.5t-89.5 -171.5h383l-56 -151h-357l-12 -77h340z" />
    <glyph glyph-name="sterling.onum" horiz-adv-x="1102" 
d="M284 544h-176l31 199h149q3 78 19 177q13 86 47 150.5t80.5 105t110 66t129 35t144.5 9.5q66 0 115.5 -11t89 -36t65.5 -50t64 -69l-160 -162q-49 52 -94 77.5t-109 25.5q-112 0 -160.5 -42.5t-64.5 -139.5q-10 -62 -13 -136h269l-32 -199h-249q-1 -9 -11 -84
q-15 -98 -85 -232h208q163 0 320 25l-11 -212q-166 -41 -438 -41h-285q-59 0 -87 24t-28 63q0 5 2 19q4 26 25 62.5t44.5 71t48 90.5t33.5 116q8 50 9 98z" />
    <glyph glyph-name="yen.onum" horiz-adv-x="1060" 
d="M469 1273l134 -505l301 505h258l-345 -568h129l-26 -166h-204l-29 -47l-10 -61h226l-26 -163h-226l-42 -268h-261l43 268h-223l26 163h223l9 61l-13 47h-202l26 166h128l-163 568h267z" />
    <glyph glyph-name="zero.tnum" 
d="M547 -15q-233 0 -329 97.5t-96 307.5q0 117 29 304q24 151 53.5 257.5t76.5 196.5t112.5 143.5t159 82.5t219.5 29q234 0 330 -97t96 -307q0 -112 -30 -305q-24 -151 -53.5 -257.5t-76.5 -196.5t-112.5 -143.5t-159 -82.5t-219.5 -29zM397 414q0 -101 40.5 -151.5
t141.5 -50.5q37 0 68.5 7.5t56.5 19.5t46 34t36.5 44t29.5 57t23.5 65.5t19 77t16 84t15.5 93.5q32 205 32 281q0 101 -41 151.5t-141 50.5q-47 0 -85.5 -12.5t-66 -31.5t-50.5 -56t-37.5 -70.5t-28.5 -91t-22 -102.5t-20 -119q-33 -212 -33 -280z" />
    <glyph glyph-name="one.tnum" 
d="M509 0l176 1107q-134 -33 -309 -53l23 225q211 31 388 110h217l-220 -1389h-275z" />
    <glyph glyph-name="two.tnum" 
d="M296 1356q250 47 455 47q98 0 174 -14t136.5 -45.5t93 -88.5t32.5 -137q0 -28 -7 -73q-30 -189 -146.5 -312.5t-331.5 -204.5q-77 -29 -126 -56.5t-81 -63t-49.5 -71.5t-34.5 -94h642l-39 -243h-955q44 133 68 200t62 153.5t70.5 130.5t83.5 96t113 87t147 70
q145 59 211 115t80 148q4 30 4 43q0 74 -65.5 99.5t-235.5 25.5q-133 0 -309 -29z" />
    <glyph glyph-name="three.tnum" 
d="M1162 1044q-35 -221 -238 -313q167 -70 167 -235q0 -37 -5 -68q-20 -125 -69.5 -212t-128.5 -137t-176 -72t-225 -22q-182 0 -416 48l65 219q225 -31 338 -31q159 0 231 39.5t91 157.5q4 34 4 47q0 117 -122 132q-116 16 -280 16h-25l33 207q142 3 312 27q135 19 158 167
q3 21 3 38q0 39 -15.5 64t-48.5 36.5t-67.5 15.5t-88.5 4q-128 0 -370 -31l7 216q238 46 423 46q77 0 138.5 -6.5t121.5 -25t100 -49t64.5 -82t24.5 -120.5q0 -36 -6 -76z" />
    <glyph glyph-name="four.tnum" 
d="M641 0l50 313h-458q-86 0 -123 28.5t-37 82.5q0 17 3 35q13 87 132 217l550 598q69 75 121 102t114 27q53 0 85.5 -31.5t32.5 -92.5q0 -13 -4 -41l-112 -706h167l-34 -219h-167l-50 -313h-270zM806 1031l-446 -499h366z" />
    <glyph glyph-name="five.tnum" 
d="M510 874q44 3 86 3q95 0 165 -7t137.5 -27.5t110 -55.5t68 -94t25.5 -141q0 -52 -10 -111q-38 -239 -184.5 -347.5t-402.5 -108.5q-224 0 -429 49l63 219q209 -31 340 -31q87 0 138.5 8t93 34t63.5 74t34 127q3 18 3 35q0 50 -25 82.5t-73.5 48t-98 20.5t-120.5 5
q-148 0 -289 -7l167 740h838l-38 -241h-600z" />
    <glyph glyph-name="six.tnum" 
d="M1144 447q-17 -109 -55 -190.5t-90 -133t-124.5 -82.5t-151 -43.5t-178.5 -12.5q-231 0 -327 95t-96 283q0 92 18 202q26 166 57.5 284t80 216t111 159t154.5 103t207.5 59t271.5 17q50 0 168 -3l-13 -219q-30 -1 -78 -1.5t-84.5 -1t-86 -3t-87.5 -7.5t-82.5 -15
t-78.5 -25t-69 -38.5t-59.5 -53.5t-43 -72t-27.5 -93q134 18 235 18q107 0 183.5 -14.5t136 -50t89.5 -99t30 -157.5q0 -52 -11 -121zM576 213q147 0 210 52t84 186q6 34 6 62q0 93 -56.5 128t-171.5 35q-88 0 -215 -19q-11 -44 -24 -122q-12 -75 -12 -128q0 -91 40 -142.5
t139 -51.5z" />
    <glyph glyph-name="seven.tnum" 
d="M1208 1171l-702 -1171h-312l733 1147h-662l38 242h799q70 0 107 -28.5t37 -78.5q0 -7 -2 -23q-5 -35 -36 -88z" />
    <glyph glyph-name="eight.tnum" 
d="M548 -15q-106 0 -186 16t-142 51t-94.5 97t-32.5 149q0 44 7 89q13 82 49 143.5t86.5 103t131.5 85.5q-75 46 -112 104.5t-37 146.5q0 36 8 84q56 349 547 349q442 0 442 -283q0 -37 -5 -66q-20 -123 -71 -195t-177 -136q83 -53 124.5 -113.5t41.5 -150.5q0 -33 -6 -71
q-15 -97 -53.5 -169t-90 -116t-123 -71t-144.5 -37t-163 -10zM367 350q0 -81 56 -112.5t160 -31.5q73 0 124.5 14t92.5 57t52 116q6 33 6 59q0 74 -57 109t-212 51q-190 -39 -218 -219q-4 -30 -4 -43zM946 1019q3 21 3 39q0 52 -29 82t-71.5 39t-109.5 9q-42 0 -74 -3.5
t-64.5 -14t-55 -29t-39.5 -49t-24 -73.5q-4 -30 -4 -44q0 -32 11.5 -55.5t40 -43.5t81 -32t130.5 -16q97 25 144.5 66t60.5 125z" />
    <glyph glyph-name="nine.tnum" 
d="M174 941q17 109 55 190.5t90 133t124.5 82.5t151 43.5t178.5 12.5q231 0 327 -94.5t96 -282.5q0 -94 -18 -203q-26 -166 -57.5 -284t-80 -216t-111 -159t-154.5 -103t-207.5 -59t-271.5 -17q-50 0 -168 3l13 220q31 1 86.5 1.5t95.5 1.5t95.5 4t96.5 11t89 21.5t83 36.5
t67 54t53 76.5t31 102.5q-125 -17 -236 -17q-85 0 -150 8.5t-121 30.5t-92 58t-56 92t-20 131q0 52 11 121zM443 876q0 -93 56.5 -128t170.5 -35q93 0 215 18q11 44 24 122q12 75 12 130q0 91 -40 142t-139 51q-147 0 -209.5 -52t-83.5 -186q-6 -34 -6 -62z" />
    <glyph glyph-name="dollar.tnum" 
d="M776 392q3 18 3 33q0 25 -6 45t-22.5 36t-28.5 26t-42 22.5t-44.5 17.5t-53.5 18q-68 23 -113.5 42t-89.5 46.5t-69.5 59.5t-41 77t-15.5 102q0 44 7 89q30 187 134 279t287 112l31 192h189l-29 -187q164 -7 321 -42l-59 -216q-184 30 -295 30q-43 0 -72.5 -1.5t-73 -9.5
t-72 -22t-52.5 -42.5t-30 -68.5q-3 -21 -3 -38q0 -37 12 -61.5t45.5 -43t59.5 -27.5t87 -27q11 -3 17 -5q165 -47 239 -120.5t74 -204.5q0 -52 -8 -101q-30 -187 -136 -285t-288 -123l-30 -194h-190l29 186q-175 4 -343 42l63 223q207 -32 351 -32q116 0 179 37t79 136z" />
    <glyph glyph-name="cent.tnum" 
d="M973 390l-10 -200q-115 -29 -239 -37l-29 -188h-178l29 189q-75 9 -127.5 39t-81.5 77t-41.5 103t-12.5 126q0 82 19 205q19 121 46.5 206t74.5 155t119.5 110.5t174.5 55.5l31 193h178l-30 -185q120 -5 225 -40l-51 -194q-127 25 -185 25q-62 0 -105.5 -6t-77 -23
t-54.5 -39t-37 -62t-26 -83.5t-21 -112.5q-19 -117 -19 -172q0 -90 50.5 -129t186.5 -39q67 0 191 26z" />
    <glyph glyph-name="Euro.tnum" 
d="M959 650l-55 -152h-336q0 -2 -1.5 -23t-1.5 -32q0 -110 48.5 -166t168.5 -56q115 0 248 27l-14 -219q-142 -44 -319 -44q-222 0 -315.5 95.5t-93.5 308.5q0 44 5 109h-148l56 152h110l3.5 21t3.5 23l9 56h-130l57 152h104q65 266 192.5 383.5t371.5 117.5q172 0 304 -45
l-55 -218q-127 27 -240 27q-131 0 -197 -66.5t-100 -198.5h420l-57 -152h-394l-16 -100h372z" />
    <glyph glyph-name="sterling.tnum" 
d="M321 599h-194l32 207h165q3 86 21 202q18 114 68.5 194t128 122.5t163.5 60.5t195 18q58 0 105 -9t79.5 -22t66 -39t54.5 -47.5t54 -59.5l-166 -168q-54 57 -102 84t-120 27q-127 0 -183 -48t-73 -159q-11 -67 -14 -156h294l-32 -207h-276q-6 -66 -12 -99
q-18 -108 -97 -263h237q177 0 347 26l-11 -220q-172 -43 -475 -43h-314q-62 0 -91.5 25t-29.5 65q0 6 2 20q4 27 27.5 67t49.5 78t52.5 100t37.5 129q8 49 11 115z" />
    <glyph glyph-name="yen.tnum" 
d="M531 1389l150 -567l338 567h270l-381 -626h146l-26 -169h-222l-35 -58l-12 -75h248l-26 -166h-249l-46 -295h-274l46 295h-245l26 166h246l11 75l-16 58h-219l25 169h145l-180 626h280z" />
    <glyph glyph-name="period.tnum" horiz-adv-x="605" 
d="M476 198q0 -20 -5 -55q-14 -90 -52.5 -124t-129.5 -34q-76 0 -107 23t-31 78q0 20 5 57q14 90 53.5 123.5t129.5 33.5q75 0 106 -22.5t31 -79.5z" />
    <glyph glyph-name="comma.tnum" horiz-adv-x="605" 
d="M35 -266l212 546h297l-291 -546h-218z" />
    <glyph glyph-name="colon.tnum" horiz-adv-x="605" 
d="M123 86q0 20 5 57q14 89 53 123t129 34q76 0 107.5 -23t31.5 -79q0 -20 -5 -55q-14 -90 -52.5 -124t-130.5 -34q-75 0 -106.5 22.5t-31.5 78.5zM374 702q-75 0 -106.5 22.5t-31.5 77.5q0 30 5 58q13 89 53 123t130 34q76 0 107 -22.5t31 -78.5q0 -28 -5 -56
q-14 -90 -53 -124t-130 -34z" />
    <glyph glyph-name="semicolon.tnum" horiz-adv-x="605" 
d="M436 702q-76 0 -107.5 22.5t-31.5 77.5q0 25 6 58q14 90 53 123.5t129 33.5q76 0 107 -22.5t31 -78.5q0 -28 -5 -56q-14 -90 -52.5 -124t-129.5 -34zM4 -266l211 546h297l-291 -546h-217z" />
    <glyph glyph-name="zero.onum_tnum" horiz-adv-x="1112" 
d="M508 -15q-218 0 -307.5 85.5t-89.5 269.5q0 102 23 243q20 127 45.5 217t68 166t102 121t145.5 69.5t202 24.5q218 0 307 -84.5t89 -268.5q0 -102 -23 -245q-17 -105 -37 -183.5t-50.5 -148.5t-72 -117.5t-98.5 -82t-132 -50.5t-172 -16zM375 371q0 -84 36 -126t127 -42
q42 0 75 9.5t57.5 25t44 44t32 55.5t23.5 71.5t18 80.5t16 94q25 160 25 214q0 83 -35.5 124.5t-126.5 41.5q-42 0 -75.5 -9.5t-58 -25t-44 -43.5t-32 -55t-24 -71.5t-18.5 -81.5t-16 -94q-24 -151 -24 -212z" />
    <glyph glyph-name="one.onum_tnum" horiz-adv-x="1112" 
d="M464 0l142 898q-130 -32 -278 -47l22 216q198 29 356 100h205l-185 -1167h-262z" />
    <glyph glyph-name="two.onum_tnum" horiz-adv-x="1112" 
d="M266 1142q225 39 414 39q89 0 157.5 -12t123.5 -39.5t84 -77t29 -119.5q0 -35 -5 -62q-26 -161 -130.5 -265t-297.5 -172q-123 -43 -172.5 -86.5t-75.5 -120.5h574l-37 -227h-865q24 69 38 108.5t34.5 92.5t35 83t35 70.5t38.5 63.5t43.5 52.5t51 48.5t59 41t71 39
t83.5 34q129 48 186.5 91t68.5 111q2 10 2 28q0 57 -59 76.5t-213 19.5q-116 0 -278 -24z" />
    <glyph glyph-name="three.onum_tnum" horiz-adv-x="1112" 
d="M362 651q138 3 289 25q115 16 137 146q2 12 2 31q0 65 -48.5 85.5t-145.5 20.5q-116 0 -342 -29l7 208q227 43 390 43q71 0 127.5 -6t112 -23.5t92.5 -45.5t59.5 -75.5t22.5 -111.5q0 -33 -6 -71q-32 -195 -207 -283q72 -33 108 -84t36 -128q0 -35 -5 -64
q-18 -115 -64 -195.5t-118.5 -126.5t-161.5 -66t-207 -20q-164 0 -384 44l62 211q204 -28 311 -28q71 0 117 6.5t83 25t57 52.5t29 88q4 30 4 41q0 102 -106 116q-102 14 -257 14h-26z" />
    <glyph glyph-name="four.onum_tnum" horiz-adv-x="1112" 
d="M574 -105l45 284h-409q-152 0 -152 105q0 16 3 34q14 84 121 200l500 543q64 69 113 94.5t106 25.5q51 0 81.5 -30t30.5 -88q0 -17 -3 -38l-101 -635h152l-34 -211h-151l-45 -284h-257zM721 818l-382 -428h314z" />
    <glyph glyph-name="five.onum_tnum" horiz-adv-x="1112" 
d="M470 701q46 2 71 2q88 0 152.5 -6.5t126.5 -25.5t100.5 -51.5t62 -87t23.5 -129.5q0 -47 -9 -103q-35 -221 -169.5 -320t-370.5 -99q-201 0 -397 45l61 211q183 -29 313 -29q77 0 122.5 7t83 30t56.5 65t30 112q3 16 3 31q0 35 -16 61t-40.5 40t-63.5 22.5t-75.5 11
t-86.5 2.5q-146 0 -269 -8l155 685h772l-36 -231h-546z" />
    <glyph glyph-name="six.onum_tnum" horiz-adv-x="1112" 
d="M1052 411q-16 -101 -50.5 -175.5t-82.5 -122t-114.5 -76.5t-139 -40.5t-164.5 -11.5q-213 0 -301.5 88t-88.5 261q0 78 16 185q24 152 53 260t73.5 197.5t102 145t141.5 94t190 54t249 15.5q50 0 157 -3l-12 -210q-32 -2 -92.5 -3t-99.5 -2t-95.5 -7t-95 -15.5t-83.5 -29
t-74 -46.5t-54 -69t-36 -96q118 14 208 14q78 0 137.5 -8t111 -28t84.5 -53.5t51.5 -85t18.5 -120.5q0 -53 -10 -112zM531 204q130 0 185 46t74 165q5 33 5 54q0 82 -50 112.5t-151 30.5q-87 0 -190 -15q-9 -36 -20 -107q-11 -72 -11 -113q0 -81 35.5 -127t122.5 -46z" />
    <glyph glyph-name="seven.onum_tnum" horiz-adv-x="1112" 
d="M1101 960l-640 -1066h-297l666 1041h-598l37 232h731q66 0 101 -27t35 -74q0 -8 -2 -22q-6 -40 -33 -84z" />
    <glyph glyph-name="eight.onum_tnum" horiz-adv-x="1112" 
d="M1038 425q0 -31 -6 -68q-14 -89 -49.5 -156t-83 -107.5t-113 -65.5t-132.5 -34t-150 -9q-97 0 -171 14.5t-131 47t-87 90t-30 138.5q0 31 7 82q17 109 72.5 175t163.5 126q-66 41 -98 93t-32 130q0 29 7 80q51 324 505 324q406 0 406 -262q0 -35 -5 -62
q-17 -110 -62.5 -176t-155.5 -124q73 -47 109 -101.5t36 -134.5zM774 362q5 32 5 52q0 65 -50.5 95.5t-186.5 45.5q-168 -39 -192 -193q-3 -21 -3 -38q0 -71 49.5 -98t141.5 -27q99 0 160 35.5t76 127.5zM447 892q0 -58 50.5 -90t182.5 -39q82 23 125.5 59.5t54.5 107.5
q3 18 3 34q0 66 -48 89.5t-138 23.5q-47 0 -81.5 -5.5t-66.5 -20.5t-52 -45t-27 -76q-3 -21 -3 -38z" />
    <glyph glyph-name="nine.onum_tnum" horiz-adv-x="1112" 
d="M150 755q16 101 51 175.5t82.5 122t114.5 76.5t139.5 40.5t164.5 11.5q213 0 301.5 -87.5t88.5 -260.5q0 -69 -17 -185q-24 -152 -52.5 -260t-73 -197.5t-102.5 -145.5t-142.5 -94.5t-190.5 -54t-249 -15.5q-49 0 -156 3l11 211q32 2 92.5 3t99.5 2t96 7t95.5 15.5t83 29
t74 46.5t54.5 69t36 96q-129 -15 -207 -15q-98 0 -168.5 13.5t-125.5 46t-82.5 91.5t-27.5 145q0 52 10 111zM407 696q0 -81 50 -111.5t151 -30.5q80 0 190 16q7 27 20 106q12 78 12 114q0 81 -35.5 126.5t-123.5 45.5q-130 0 -185 -46t-74 -165q-5 -33 -5 -55z" />
    <glyph glyph-name="dollar.onum_tnum" horiz-adv-x="1112" 
d="M706 361q2 10 2 28q0 58 -41.5 87.5t-133.5 58.5q-62 20 -104 37.5t-82.5 43t-64.5 55t-38 71.5t-14 94q0 41 7 82q27 172 122 257t262 104l27 175h185l-27 -170q145 -7 291 -40l-56 -208q-172 28 -274 28q-26 0 -44.5 -0.5t-46.5 -3t-48 -7.5t-43 -14t-38.5 -22
t-27.5 -32.5t-16 -44.5q-2 -11 -2 -31q0 -15 3 -28t7 -23t13 -19t16 -15.5t21 -13.5t22.5 -11t26 -10t27 -9t30.5 -8.5t30 -8.5q151 -44 220 -113t69 -190q0 -37 -8 -90q-27 -172 -124 -262.5t-262 -113.5l-28 -177h-185l27 169q-157 4 -312 40l60 213q188 -29 325 -29
q103 0 158.5 32.5t68.5 118.5z" />
    <glyph glyph-name="cent.onum_tnum" horiz-adv-x="1112" 
d="M896 367l-9 -194q-106 -27 -217 -35l-27 -171h-174l27 172q-131 18 -184.5 100.5t-53.5 216.5q0 78 17 189q18 110 43 188t68 142t109 101.5t158 51.5l28 175h174l-27 -167q103 -5 204 -38l-49 -188q-122 23 -173 23q-55 0 -93.5 -5.5t-68.5 -20t-48.5 -34t-33 -55
t-23 -74t-18.5 -99.5q-17 -104 -17 -154q0 -80 45 -114.5t165 -34.5q58 0 178 25z" />
    <glyph glyph-name="Euro.onum_tnum" horiz-adv-x="1112" 
d="M887 602l-56 -150h-303q-1 -15 -1 -44q0 -97 42 -146.5t149 -49.5q92 0 231 26l-13 -211q-138 -42 -297 -42q-204 0 -290 88t-86 284q0 27 4 95h-137l55 150h99l13 77h-120l57 151h94q60 242 176.5 348.5t340.5 106.5q162 0 284 -43l-54 -209q-133 26 -223 26
q-114 0 -173.5 -57.5t-89.5 -171.5h384l-57 -151h-357l-12 -77h340z" />
    <glyph glyph-name="sterling.onum_tnum" horiz-adv-x="1112" 
d="M289 544h-176l31 199h149q3 78 19 177q13 86 47 150.5t80.5 105t110 66t129 35t144.5 9.5q66 0 115.5 -11t89 -36.5t65 -49.5t63.5 -69l-159 -162q-49 52 -94 77.5t-109 25.5q-112 0 -160.5 -42.5t-64.5 -139.5q-10 -62 -13 -136h269l-32 -199h-249q-1 -9 -11 -84
q-15 -98 -85 -232h208q163 0 320 25l-11 -212q-166 -41 -438 -41h-285q-59 0 -87 24t-28 63q0 12 1 19q4 26 25.5 62.5t45 71t48 90.5t33.5 116q8 50 9 98z" />
    <glyph glyph-name="yen.onum_tnum" horiz-adv-x="1112" 
d="M495 1273l134 -505l301 505h258l-346 -568h130l-26 -166h-204l-29 -47l-10 -61h225l-25 -163h-226l-42 -268h-261l43 268h-223l25 163h223l10 61l-13 47h-202l26 166h128l-164 568h268z" />
    <glyph glyph-name="parenleft.case" horiz-adv-x="650" 
d="M507 -81l-173 -129q-223 218 -223 620q0 131 27 303q22 138 57 259.5t91.5 243.5t142.5 229.5t198 190.5l132 -128q-261 -225 -350 -795q-30 -189 -30 -336q0 -312 128 -458z" />
    <glyph glyph-name="parenright.case" horiz-adv-x="650" 
d="M233 1508l173 128q223 -218 223 -619q0 -142 -27 -304q-22 -138 -57 -259.5t-91.5 -243.5t-142.5 -229.5t-198 -190.5l-131 129q259 220 350 794q28 183 28 329q0 315 -127 466z" />
    <glyph glyph-name="bracketleft.case" horiz-adv-x="656" 
d="M556 1414l-221 -1394h195l-33 -211h-444l287 1814h445l-33 -209h-196z" />
    <glyph glyph-name="bracketright.case" horiz-adv-x="656" 
d="M216 1414l33 209h445l-287 -1814h-443l33 211h194l221 1394h-196z" />
    <glyph glyph-name="braceleft.case" horiz-adv-x="662" 
d="M439 359l-16 -102q-11 -68 -11 -105q0 -61 29.5 -96.5t105.5 -45.5l-52 -189q-86 7 -143 22.5t-101.5 46t-65 82.5t-20.5 129q0 52 11 127q24 150 24 235q0 80 -24.5 117t-82.5 43l30 187q89 9 131 93t76 303q19 116 54 192t93 120.5t128 65t174 28.5l-8 -188
q-46 -6 -80 -22t-54 -36t-34.5 -54t-20.5 -62t-14 -74l-16 -103q-25 -146 -47 -205q-45 -116 -136 -152q85 -46 85 -198q0 -54 -15 -159z" />
    <glyph glyph-name="braceright.case" horiz-adv-x="663" 
d="M313 1073l17 103q11 70 11 106q0 61 -30 96.5t-106 45.5l52 188q86 -7 143.5 -22.5t102 -46t65 -82.5t20.5 -129q0 -52 -11 -126q-25 -165 -25 -235q0 -81 25 -118.5t83 -42.5l-30 -187q-90 -9 -131.5 -92.5t-75.5 -302.5q-19 -116 -53.5 -192.5t-93 -121t-128 -65
t-173.5 -28.5l7 189q46 6 80 22t54 35.5t34 54t20.5 62t13.5 73.5l16 102q9 59 19.5 103t30.5 98.5t54 94.5t79 61q-89 41 -89 182q0 59 19 175z" />
    <glyph glyph-name="questiondown.case" horiz-adv-x="1065" 
d="M583 1005h235l-17 -134q-2 -21 -7 -50q-11 -72 -39.5 -117t-65.5 -63.5t-79.5 -27.5t-85 -17t-79 -24t-64 -56.5t-38.5 -106.5q-5 -35 -5 -56q0 -75 52.5 -103.5t186.5 -28.5q182 0 340 31l13 -226q-206 -48 -424 -48q-91 0 -156 6.5t-127 26t-100 53t-61 90.5t-23 136
q0 51 11 120q16 100 50.5 171.5t78 108t93 59.5t97 33.5t87.5 21t68.5 31.5t35.5 57zM769 1439q75 0 106 -23t31 -78q0 -20 -5 -53q-14 -86 -53 -120t-128 -34q-75 0 -106 23t-31 79q0 27 4 52q14 86 53.5 120t128.5 34z" />
    <glyph glyph-name="exclamdown.case" horiz-adv-x="575" 
d="M383 1131q-75 0 -106.5 23.5t-31.5 78.5q0 27 4 52q14 86 53.5 120t128.5 34q75 0 106.5 -23.5t31.5 -78.5q0 -19 -5 -52q-14 -86 -53 -120t-128 -34zM45 -7l203 1012h230l-119 -1012h-314z" />
    <glyph glyph-name="at.case" horiz-adv-x="1788" 
d="M825 -15q-349 0 -526 132.5t-177 417.5q0 83 15 181q31 197 107.5 338.5t197.5 227t276.5 125t357.5 39.5q75 0 135.5 -14t109.5 -44.5t76 -84.5t27 -128q0 -28 -7 -77l-68 -426q-19 -118 -41 -203q-75 -44 -193 -71t-246 -27q-187 0 -273.5 64.5t-86.5 195.5q0 37 8 85
q24 149 105.5 233t240.5 113q81 15 314 29q5 33 5 54q0 57 -33.5 80.5t-113.5 23.5q-140 0 -245.5 -26t-191 -86t-139.5 -164.5t-78 -256.5q-13 -77 -13 -146q0 -209 123 -297.5t366 -88.5q139 0 243 26.5t188 87t137 164.5t77 254q12 71 12 145q0 27 -4 71l242 68
q7 -46 7 -107q0 -83 -15 -177q-60 -380 -290.5 -555.5t-628.5 -175.5zM1121 734l31 193q-153 -5 -224 -25q-86 -24 -121.5 -58.5t-49.5 -122.5q-4 -32 -4 -44q0 -68 44 -93.5t137 -25.5q31 0 82 10t77 25q16 62 28 141z" />
    <glyph glyph-name="guilsinglleft.case" horiz-adv-x="670" 
d="M369 716l200 -424h-249l-227 424l361 424h249z" />
    <glyph glyph-name="guilsinglright.case" horiz-adv-x="671" 
d="M662 716l-362 -424h-248l334 424l-200 424h248z" />
    <glyph glyph-name="guillemotleft.case" horiz-adv-x="1132" 
d="M369 716l201 -424h-250l-227 424l361 424h250zM831 716l199 -424h-248l-228 424l362 424h248z" />
    <glyph glyph-name="guillemotright.case" horiz-adv-x="1132" 
d="M662 716l-362 -424h-248l333 424l-199 424h248zM1123 716l-362 -424h-249l335 424l-201 424h250z" />
    <glyph glyph-name="hyphen.case" horiz-adv-x="782" 
d="M151 606l35 219h530l-35 -219h-530z" />
    <glyph glyph-name="endash.case" horiz-adv-x="1219" 
d="M151 612l33 207h968l-33 -207h-968z" />
    <glyph glyph-name="emdash.case" horiz-adv-x="2154" 
d="M151 612l33 207h1902l-32 -207h-1903z" />
    <glyph glyph-name="periodcentered.case" horiz-adv-x="557" 
d="M300 559q-76 0 -107 22t-31 77q0 25 6 58q14 90 53 123.5t129 33.5q76 0 107 -22.5t31 -78.5q0 -28 -5 -56q-14 -90 -53 -123.5t-130 -33.5z" />
    </font>
</defs>
</svg>
