<?xml version="1.0" standalone="no"?>
<!DOCTYPE svg PUBLIC "-//W3C//DTD SVG 1.1//EN" "http://www.w3.org/Graphics/SVG/1.1/DTD/svg11.dtd" >
<svg xmlns="http://www.w3.org/2000/svg" xmlns:xlink="http://www.w3.org/1999/xlink" version="1.1">
<metadata>
Created by FontForge 20170731 at Tue Oct 13 00:50:28 2020
 By Aleksey,,,
Copyright (c) 2011-2012 Durotype, www.durotype.com. All rights reserved.
</metadata>
<defs>
<font id="Flexo-Black" horiz-adv-x="1155" >
  <font-face 
    font-family="Flexo Black"
    font-weight="900"
    font-stretch="normal"
    units-per-em="2048"
    panose-1="0 0 0 0 0 0 0 0 0 0"
    ascent="1618"
    descent="-430"
    x-height="1094"
    cap-height="1432"
    bbox="-376 -527 2793 1975"
    underline-thickness="102"
    underline-position="-345"
    unicode-range="U+0020-FB04"
  />
<missing-glyph horiz-adv-x="1220" 
d="M1121 0h-1021v1475h1021v-1475zM549 737l-347 537v-1074zM958 105l-347 538l-348 -538h695zM958 1369h-695l348 -537zM1019 1274l-347 -537l347 -537v1074z" />
    <glyph glyph-name="f_f" unicode="ff" horiz-adv-x="1597" 
d="M1553 810h-209v-810h-359v810h-398v-810h-358v810h-171v284h171v75q0 175 94.5 269t283.5 94q103 0 220 -16l-28 -252h-93q-67 0 -93 -24t-26 -81v-65h398v75q0 175 94.5 269t283.5 94q103 0 220 -16l-27 -252h-94q-66 0 -92 -24t-26 -81v-65h209v-284z" />
    <glyph glyph-name="fi" unicode="fi" horiz-adv-x="1459" 
d="M229 1094v75q0 175 94.5 269t283.5 94q103 0 220 -16l-28 -252h-93q-67 0 -93 -24t-26 -81v-65h741v-1094h-363v810h-378v-810h-358v810h-171v284h171zM942 1350q0 98 45.5 140t157.5 42t158 -42t46 -140t-46 -140t-158 -42t-157.5 42t-45.5 140z" />
    <glyph glyph-name="fl" unicode="fl" horiz-adv-x="1456" 
d="M58 810v284h171v75q0 175 94.5 269t283.5 94q354 0 710 -15v-1208q0 -68 15.5 -118.5t53.5 -107.5l-325 -150q-104 125 -104 335v996h-251q-67 0 -93 -24t-26 -81v-65h210v-284h-210v-810h-358v810h-171z" />
    <glyph glyph-name="f_f_i" unicode="ffi" horiz-adv-x="2216" 
d="M229 1094v75q0 175 94.5 269t283.5 94q103 0 220 -16l-28 -252h-93q-67 0 -93 -24t-26 -81v-65h398v75q0 175 94.5 269t283.5 94q103 0 220 -16l-27 -252h-94q-66 0 -92 -24t-26 -81v-65h740v-1094h-363v810h-377v-810h-359v810h-398v-810h-358v810h-171v284h171z
M1902 1168q-113 0 -158.5 42t-45.5 140t45.5 140t158.5 42q112 0 157.5 -42t45.5 -140t-45.5 -140t-157.5 -42z" />
    <glyph glyph-name="f_f_l" unicode="ffl" horiz-adv-x="2212" 
d="M229 1094v75q0 175 94.5 269t283.5 94q103 0 220 -16l-28 -252h-93q-67 0 -93 -24t-26 -81v-65h398v75q0 175 94.5 269t283.5 94q355 0 711 -15v-1208q0 -69 15 -119t53 -107l-324 -150q-53 64 -79 143t-26 192v996h-251q-66 0 -92 -24t-26 -81v-65h209v-284h-209v-810
h-359v810h-398v-810h-358v810h-171v284h171z" />
    <glyph glyph-name="f_b" unicode="fb" horiz-adv-x="2062" 
d="M58 810v284h171v75q0 175 94.5 269t283.5 94q354 0 710 -15v-417q68 9 142 9q133 0 224.5 -27.5t156 -92.5t94.5 -173.5t30 -268.5q0 -163 -30 -270.5t-97 -172.5t-164.5 -92t-243.5 -27q-126 0 -249.5 28.5t-213.5 85.5q-9 100 -9 224v941h-251q-67 0 -93 -24t-26 -81
v-65h210v-284h-210v-810h-358v810h-171zM1429 275q36 0 64 9t46 22t31 36.5t19.5 43t10 52t4 53.5t0.5 56q0 39 -1 63t-5 56t-12 51.5t-23 41t-36 33t-52.5 19t-72.5 7.5q-48 0 -85 -9v-375q0 -85 7 -147q40 -12 105 -12z" />
    <glyph glyph-name="f_f_b" unicode="ffb" horiz-adv-x="2818" 
d="M58 1094h171v75q0 175 94.5 269t283.5 94q103 0 220 -16l-28 -252h-93q-67 0 -93 -24t-26 -81v-65h398v75q0 175 94.5 269t283.5 94q355 0 711 -15v-417q68 9 142 9q133 0 224.5 -27.5t156 -92.5t94.5 -173.5t30 -268.5q0 -163 -30 -270.5t-97 -172.5t-164.5 -92
t-243.5 -27q-126 0 -250 28.5t-214 85.5q-9 100 -9 224v941h-251q-66 0 -92 -24t-26 -81v-65h209v-284h-209v-810h-359v810h-398v-810h-358v810h-171v284zM2074 434q0 -85 7 -147q41 -12 105 -12q36 0 64 9t46 22t31 36.5t19.5 43t10 52t4 53.5t0.5 56q0 45 -1.5 73
t-7.5 63.5t-19.5 56.5t-35.5 40.5t-57 28.5t-82 9q-46 0 -84 -9v-375z" />
    <glyph glyph-name="f_f_h" unicode="ffh" horiz-adv-x="2841" 
d="M587 1094h398v75q0 175 94.5 269t283.5 94q355 0 711 -15v-429q87 21 182 21q86 0 154 -12.5t114.5 -32.5t80 -53.5t52.5 -67.5t30 -82t14 -90t3 -99v-672h-361v648q0 92 -30 126.5t-131 34.5q-60 0 -108 -14v-795h-361v1264h-251q-66 0 -92 -24t-26 -81v-65h209v-284
h-209v-810h-359v810h-398v-810h-358v810h-171v284h171v75q0 175 94.5 269t283.5 94q103 0 220 -16l-28 -252h-93q-67 0 -93 -24t-26 -81v-65z" />
    <glyph glyph-name="f_f_j" unicode="ffj" horiz-adv-x="2264" 
d="M229 1094v75q0 175 94.5 269t283.5 94q103 0 220 -16l-28 -252h-93q-67 0 -93 -24t-26 -81v-65h398v75q0 175 94.5 269t283.5 94q103 0 220 -16l-27 -252h-94q-66 0 -92 -24t-26 -81v-65h786v-1047q0 -255 -113.5 -360t-376.5 -105q-68 0 -115 5l30 268q56 7 85.5 13
t63 22.5t48 47.5t14.5 79v793h-422v-810h-359v810h-398v-810h-358v810h-171v284h171zM1948 1168q-113 0 -158.5 42t-45.5 140t45.5 140t158.5 42q112 0 157.5 -42t45.5 -140t-45.5 -140t-157.5 -42z" />
    <glyph glyph-name="f_f_k" unicode="ffk" horiz-adv-x="2816" 
d="M2074 628l287 466h418l-323 -491l337 -603h-434l-285 559v-559h-360v1264h-252q-66 0 -92 -24t-26 -81v-65h209v-284h-209v-810h-359v810h-398v-810h-358v810h-171v284h171v75q0 175 94.5 269t283.5 94q103 0 220 -16l-28 -252h-93q-67 0 -93 -24t-26 -81v-65h398v75
q0 175 94.5 269t283.5 94q355 0 711 -15v-889z" />
    <glyph glyph-name="f_h" unicode="fh" horiz-adv-x="2084" 
d="M1317 795v-795h-361v1264h-250q-67 0 -93 -24t-26 -81v-65h210v-284h-210v-810h-358v810h-171v284h171v75q0 175 94.5 269t283.5 94q354 0 710 -15v-429q87 21 182 21q86 0 154 -12.5t115 -32.5t80.5 -53.5t52.5 -67.5t30 -82t14 -90t3 -99v-672h-361v648q0 92 -30 126.5
t-131 34.5q-61 0 -109 -14z" />
    <glyph glyph-name="f_j" unicode="fj" horiz-adv-x="1508" 
d="M587 1159v-65h787v-1047q0 -255 -113.5 -360t-376.5 -105q-68 0 -115 5l29 268q45 5 69.5 9.5t56 15t47.5 26.5t27.5 44t11.5 67v793h-423v-810h-358v810h-171v284h171v75q0 175 94.5 269t283.5 94q103 0 220 -16l-28 -252h-93q-67 0 -93 -24t-26 -81zM1191 1532
q112 0 158 -42t46 -140t-46 -140t-158 -42t-157.5 42t-45.5 140t45.5 140t157.5 42z" />
    <glyph glyph-name="f_k" unicode="fk" horiz-adv-x="2060" 
d="M587 1159v-65h210v-284h-210v-810h-358v810h-171v284h171v75q0 175 94.5 269t283.5 94q354 0 710 -15v-889l287 466h418l-322 -491l337 -603h-434l-286 559v-559h-359v1264h-252q-67 0 -93 -24t-26 -81z" />
    <glyph glyph-name=".notdef" horiz-adv-x="1220" 
d="M1121 0h-1021v1475h1021v-1475zM549 737l-347 537v-1074zM958 105l-347 538l-348 -538h695zM958 1369h-695l348 -537zM1019 1274l-347 -537l347 -537v1074z" />
    <glyph glyph-name=".null" horiz-adv-x="0" 
 />
    <glyph glyph-name="nonmarkingreturn" horiz-adv-x="682" 
 />
    <glyph glyph-name="space" unicode=" " horiz-adv-x="491" 
 />
    <glyph glyph-name="exclam" unicode="!" horiz-adv-x="672" 
d="M336 349q112 0 157.5 -42t45.5 -140t-45.5 -140t-157.5 -42t-157.5 42t-45.5 140t45.5 140t157.5 42zM544 1432l-50 -1009h-316l-50 1009h416z" />
    <glyph glyph-name="quotedbl" unicode="&#x22;" horiz-adv-x="940" 
d="M95 1517h304l-22 -646h-260zM540 1517h305l-22 -646h-260z" />
    <glyph glyph-name="numbersign" unicode="#" horiz-adv-x="1247" 
d="M1174 1041v-233h-209l-28 -182h179v-233h-215l-60 -393h-237l60 393h-163l-59 -393h-236l60 393h-192v233h228l28 182h-203v233h237l59 391h238l-61 -391h163l60 391h236l-60 -391h175zM538 626h162l28 182h-162z" />
    <glyph glyph-name="dollar" unicode="$" horiz-adv-x="1114" 
d="M106 326q224 -35 377 -35q90 0 130.5 26.5t40.5 87.5q0 54 -38 83t-138 61q-81 26 -138 50.5t-110 60t-84.5 79.5t-50 105.5t-18.5 140.5q0 192 89.5 288.5t269.5 120.5v193h250v-187q181 -11 333 -49l-34 -283q-197 36 -328 36q-46 0 -76 -2.5t-64.5 -11.5t-52 -30.5
t-17.5 -54.5q0 -58 40.5 -82t163.5 -57q217 -58 300 -157.5t83 -286.5q0 -191 -90 -293t-267 -131v-196h-251v185q-178 8 -356 49z" />
    <glyph glyph-name="percent" unicode="%" horiz-adv-x="1811" 
d="M380 582q-102 0 -167 25.5t-101 82t-49 131t-13 189.5t13 189.5t49 131.5t101 82.5t167 25.5q101 0 166.5 -25.5t101 -82.5t49 -131.5t13.5 -189.5t-13.5 -189.5t-49 -131t-101 -82t-166.5 -25.5zM380 774q21 0 36 6.5t24 23.5t14.5 33.5t8 49t3 55.5t0.5 68
q0 44 -0.5 68t-3 56t-8 49t-15 33.5t-24 23.5t-35.5 7q-16 0 -28 -3.5t-21 -14t-15.5 -19.5t-10 -28.5t-6 -33t-3.5 -41.5t-1 -45v-52v-52t1 -45t3.5 -41.5t6 -33t10 -28.5t15.5 -19t21 -13.5t28 -3.5zM1410 -7q-101 0 -166.5 25.5t-101 82t-48.5 131t-13 189.5t13 189.5
t48.5 131.5t101 82.5t166.5 25.5q102 0 167 -25.5t101 -82.5t49 -131.5t13 -189.5t-13 -189.5t-49 -131t-101 -82t-167 -25.5zM1410 185q21 0 36 6.5t24 23.5t14.5 33.5t8 49t3 55.5t0.5 68t-0.5 68.5t-3 56t-8 49t-14.5 33.5t-24 23.5t-36 6.5q-16 0 -28 -3.5t-21 -13.5
t-15.5 -19.5t-10 -29t-6 -33t-3.5 -41.5t-1 -45v-52v-52t1 -45t3.5 -41.5t6 -33t10 -28.5t15.5 -19t21 -13.5t28 -3.5zM1433 1461l-841 -1490h-234l840 1490h235z" />
    <glyph glyph-name="ampersand" unicode="&#x26;" horiz-adv-x="1444" 
d="M1427 0h-443l-62 73q-64 -45 -148.5 -66.5t-214.5 -21.5q-251 0 -375 109t-124 330q0 137 60.5 224.5t175.5 141.5q-25 35 -31.5 45t-25 43t-24.5 55t-13 60t-7 80q0 100 32 173.5t90.5 116.5t133.5 63t168 20q66 0 124.5 -11.5t111 -38.5t90.5 -67t60 -100.5t22 -135.5
q0 -140 -68 -234.5t-173 -145.5l123 -127q11 45 14 97l312 -14q-19 -217 -93 -352zM530 1070q0 -77 63 -140q101 53 101 142q0 95 -82 95t-82 -97zM721 306l-234 259q-41 -30 -57 -66t-16 -85q0 -67 49 -107t123 -40q81 0 135 39z" />
    <glyph glyph-name="quotesingle" unicode="'" horiz-adv-x="494" 
d="M378 871h-261l-22 646h305z" />
    <glyph glyph-name="parenleft" unicode="(" horiz-adv-x="725" 
d="M672 -176l-211 -177q-374 283 -374 924q0 640 374 922l212 -174q-65 -59 -111 -152t-69 -199t-32.5 -202t-9.5 -195q0 -559 221 -747z" />
    <glyph glyph-name="parenright" unicode=")" horiz-adv-x="725" 
d="M265 -353l-211 177q221 188 221 747q0 99 -9.5 195t-32.5 202t-69 199t-111 152l212 174q107 -81 182.5 -187.5t116 -229t57.5 -244.5t17 -261q0 -642 -373 -924z" />
    <glyph glyph-name="asterisk" unicode="*" horiz-adv-x="920" 
d="M568 694l-108 187l-109 -187l-176 99l109 190h-218v199h218l-110 191l177 100l109 -189l108 189l177 -100l-113 -191h222v-199h-220l109 -192z" />
    <glyph glyph-name="plus" unicode="+" horiz-adv-x="1166" 
d="M1092 742v-279h-368v-370h-283v370h-366v279h366v368h283v-368h368z" />
    <glyph glyph-name="comma" unicode="," horiz-adv-x="642" 
d="M562 357l-241 -618h-280l137 618h384z" />
    <glyph glyph-name="hyphen" unicode="-" horiz-adv-x="804" 
d="M122 679h561v-269h-561v269z" />
    <glyph glyph-name="period" unicode="." horiz-adv-x="594" 
d="M92 178q0 110 43.5 150.5t161.5 40.5q117 0 160.5 -40.5t43.5 -150.5t-43 -151.5t-161 -41.5t-161.5 41.5t-43.5 151.5z" />
    <glyph glyph-name="slash" unicode="/" horiz-adv-x="961" 
d="M38 -165l581 1647h295l-581 -1647h-295z" />
    <glyph glyph-name="zero" unicode="0" horiz-adv-x="1276" 
d="M638 -15q-132 0 -225.5 29t-153.5 82.5t-94.5 143.5t-47.5 196.5t-13 257.5t13 257.5t47.5 196.5t94.5 143.5t153.5 82.5t225.5 29t225.5 -29t153.5 -82.5t94.5 -143.5t47.5 -196.5t13 -257.5t-13 -257.5t-47.5 -196.5t-94.5 -143.5t-153.5 -82.5t-225.5 -29zM638 291
q39 0 67 11t45.5 41t27.5 56t14 83.5t5 95t1 116.5q0 78 -1 116.5t-5 95.5t-14.5 84t-27.5 56.5t-45 41t-67 11.5q-24 0 -43.5 -4t-34.5 -15t-27 -22t-20.5 -31.5t-14.5 -37.5t-10 -47t-6.5 -52t-3.5 -60.5t-1 -64v-71.5q0 -78 1 -116.5t5 -95t14.5 -83.5t27.5 -56.5
t45.5 -40.5t67.5 -11z" />
    <glyph glyph-name="one" unicode="1" horiz-adv-x="848" 
d="M705 0h-370v1016q-91 -22 -277 -38l-16 302q221 34 381 109h282v-1389z" />
    <glyph glyph-name="two" unicode="2" horiz-adv-x="1190" 
d="M478 321h600v-321h-1021q52 292 80 387q49 164 141 254q79 77 226 139q108 46 154 85.5t46 97.5q0 77 -54.5 101t-219.5 24q-129 0 -312 -32l-36 294q263 53 485 53q91 0 163 -9.5t139 -35.5t112 -67.5t71.5 -108t26.5 -155.5q0 -198 -97.5 -324.5t-311.5 -207.5
q-106 -40 -145 -78.5t-47 -95.5z" />
    <glyph glyph-name="three" unicode="3" horiz-adv-x="1159" 
d="M529 1403q90 0 161.5 -8.5t142.5 -33.5t118 -66.5t76 -111t29 -163.5q0 -91 -42.5 -168t-132.5 -121q112 -44 153 -109.5t41 -175.5q0 -130 -37 -220.5t-111 -142.5t-171.5 -75t-231.5 -23q-27 0 -54.5 1t-49 2t-51 4t-45.5 4.5t-47.5 6.5t-43 6.5t-45 7.5t-40.5 7t-44 8
t-41 8l41 295q250 -33 367 -33q121 0 170.5 27t49.5 107q0 109 -111 123q-143 17 -294 17h-18v275q137 3 312 29q50 8 74 34.5t24 79.5q0 58 -43 78.5t-125 20.5q-126 0 -394 -34l-39 290q268 54 452 54z" />
    <glyph glyph-name="four" unicode="4" horiz-adv-x="1254" 
d="M668 0v293h-381q-123 0 -174 47.5t-51 136.5q0 34 3 54.5t29 74t79 120.5l411 529q71 91 125 119.5t133 28.5q82 0 133.5 -53.5t51.5 -153.5v-607h156v-296h-156v-293h-359zM427 589h242v334z" />
    <glyph glyph-name="five" unicode="5" horiz-adv-x="1186" 
d="M1058 1389v-319h-574l-11 -161q23 1 70 1q70 0 126.5 -5t114.5 -18t102 -34.5t83 -56.5t64.5 -82t40 -112.5t14.5 -146.5q0 -246 -136 -358t-404 -112q-239 0 -474 56l40 295q240 -34 367 -34q129 0 175 33.5t46 138.5q0 82 -62 110.5t-206 28.5q-138 0 -325 -10l54 786
h895z" />
    <glyph glyph-name="six" unicode="6" horiz-adv-x="1245" 
d="M1065 1399l29 -284h-38q-26 0 -81 0.5t-83 0.5q-58 0 -102.5 -2.5t-94.5 -9.5t-85 -21.5t-65 -36.5t-45.5 -57t-15.5 -80q82 10 159 10q103 0 180.5 -12.5t145 -43.5t110 -82t66.5 -131t24 -188q0 -113 -26 -196.5t-72 -137t-117 -86t-151 -45t-184 -12.5q-126 0 -218 27
t-150.5 75t-93.5 124t-48.5 162t-13.5 201q0 164 13 280.5t46 213.5t87 157.5t140.5 102t201 58.5t272.5 17q71 0 210 -4zM799 467q0 93 -48 129t-140 36q-77 0 -145 -10q-3 -39 -3 -84q0 -43 3 -75.5t12.5 -66.5t25 -55.5t43.5 -35.5t66 -14q109 0 147.5 37.5t38.5 138.5z
" />
    <glyph glyph-name="seven" unicode="7" horiz-adv-x="1101" 
d="M657 1065h-600v324h803q102 0 156.5 -45t54.5 -124q0 -44 -26 -105l-498 -1115h-412z" />
    <glyph glyph-name="eight" unicode="8" horiz-adv-x="1235" 
d="M82 403q0 59 14.5 106t45 84.5t63.5 64.5t84 60q-87 48 -138 121t-51 198q0 366 520 366q519 0 519 -366q0 -118 -41.5 -185.5t-147.5 -127.5q47 -29 80.5 -56.5t64 -65.5t45.5 -87.5t15 -109.5q0 -101 -28 -176.5t-74.5 -121.5t-117.5 -74t-145.5 -38t-169.5 -10
q-126 0 -220 20.5t-168 67.5t-112 130t-38 200zM791 409q0 58 -16 88.5t-66 50.5t-152 33q-111 -34 -111 -172q0 -70 44.5 -97.5t129.5 -27.5q171 0 171 125zM790 1000q0 62 -42.5 87t-127.5 25q-82 0 -124.5 -24.5t-42.5 -87.5q0 -33 7.5 -54.5t30.5 -41.5t69.5 -31
t120.5 -15q56 19 82.5 50t26.5 92z" />
    <glyph glyph-name="nine" unicode="9" horiz-adv-x="1247" 
d="M179 -10l-29 284h38q26 0 81 -0.5t83 -0.5q58 0 102.5 2.5t94.5 9.5t85 21.5t65 36.5t45.5 57t15.5 80q-82 -10 -159 -10q-103 0 -180.5 12.5t-145 43.5t-110 82t-66.5 131t-24 188q0 113 26 196.5t72 136.5t117 85.5t151 45t184 12.5q126 0 218 -27t150.5 -75t93 -123.5
t48 -161.5t13.5 -201q0 -164 -12.5 -281t-46 -213.5t-87 -157t-140 -102.5t-201 -59t-272.5 -17q-36 0 -210 5zM780 851q0 54 -5.5 93.5t-20 76.5t-46 56.5t-78.5 19.5q-109 0 -147 -37t-38 -138q0 -93 48 -129t140 -36q76 0 144 10q3 39 3 84z" />
    <glyph glyph-name="colon" unicode=":" horiz-adv-x="667" 
d="M129 178q0 110 43.5 150.5t161.5 40.5q117 0 160.5 -40.5t43.5 -150.5t-43 -151.5t-161 -41.5t-161.5 41.5t-43.5 151.5zM129 844q0 110 43.5 150.5t161.5 40.5q117 0 160.5 -40.5t43.5 -150.5t-43 -151.5t-161 -41.5t-161.5 41.5t-43.5 151.5z" />
    <glyph glyph-name="semicolon" unicode=";" horiz-adv-x="682" 
d="M598 844q0 -110 -43.5 -151.5t-161.5 -41.5t-161 41.5t-43 151.5t43 150.5t161 40.5q117 0 161 -41t44 -150zM337 -261h-280l137 618h384z" />
    <glyph glyph-name="less" unicode="&#x3c;" horiz-adv-x="1278" 
d="M71 720l1066 419v-290l-643 -247l643 -248v-290l-1066 420v236z" />
    <glyph glyph-name="equal" unicode="=" horiz-adv-x="1270" 
d="M127 238v281h1017v-281h-1017zM127 684v280h1017v-280h-1017z" />
    <glyph glyph-name="greater" unicode="&#x3e;" horiz-adv-x="1278" 
d="M141 849v290l1066 -419v-236l-1066 -420v290l644 248z" />
    <glyph glyph-name="question" unicode="?" horiz-adv-x="1132" 
d="M316 423l-6 140q-2 24 -2 48q0 76 20 125t51.5 69.5t70 30.5t76.5 15.5t69.5 17t51.5 43.5t20 86q0 67 -42.5 96.5t-147.5 29.5q-206 0 -363 -36l-64 303q213 55 457 55q76 0 134.5 -4t118.5 -16.5t103 -33t82 -54.5t62.5 -81.5t37.5 -113.5t14 -149q0 -100 -22.5 -173
t-59 -111.5t-80.5 -63t-88.5 -36t-81.5 -22t-61 -29.5t-25 -51l-3 -85h-322zM477 -15q-113 0 -158.5 42t-45.5 140t45.5 140t158.5 42q112 0 157.5 -42t45.5 -140t-45.5 -140t-157.5 -42z" />
    <glyph glyph-name="at" unicode="@" horiz-adv-x="1792" 
d="M1671 845q43 -131 43 -298q0 -380 -206 -555t-611 -175q-406 0 -612 175t-206 555q0 197 55 338.5t164 227.5t261.5 125.5t357.5 39.5q88 0 159 -18t129.5 -57.5t90.5 -110.5t32 -170v-416q0 -101 -11 -209q-65 -46 -183 -74t-255 -28q-224 0 -323.5 87t-99.5 265
q0 154 71 240t236 115q76 14 291 27q0 70 -32 96.5t-116 26.5q-135 0 -231.5 -24.5t-169.5 -81t-109 -156t-36 -243.5q0 -142 35 -240.5t106.5 -155.5t167 -82t228.5 -25q134 0 230.5 24.5t168 81.5t107 155.5t35.5 241.5q0 133 -28 223zM1054 567v174q-134 -5 -194 -22
q-74 -20 -101 -52.5t-27 -109.5q0 -86 43.5 -117.5t143.5 -31.5q26 0 68 8.5t62 20.5q5 49 5 130z" />
    <glyph glyph-name="A" unicode="A" horiz-adv-x="1392" 
d="M408 0h-394l407 1183q49 142 114.5 202.5t165.5 60.5q95 0 163 -64.5t114 -198.5l401 -1183h-404l-85 297h-401zM570 596h236l-120 426z" />
    <glyph glyph-name="B" unicode="B" horiz-adv-x="1311" 
d="M627 1446q75 0 138.5 -6t134 -21t124 -44.5t98 -73.5t68.5 -111.5t24 -154.5q0 -94 -56 -179.5t-156 -123.5q105 -36 168 -117.5t63 -210.5q0 -103 -32.5 -179t-84.5 -121t-130.5 -72.5t-157.5 -37t-179 -9.5q-280 0 -508 42v1373q216 46 486 46zM520 587v-284
q56 -8 124 -8q104 0 157 29.5t53 112.5q0 38 -11 65.5t-29.5 43.5t-47.5 25.5t-58.5 12.5t-70.5 3h-117zM521 1133v-259h116q100 0 152.5 28t52.5 108q0 34 -10.5 58t-27 38t-46 21.5t-58.5 9.5t-73 2q-63 0 -106 -6z" />
    <glyph glyph-name="C" unicode="C" horiz-adv-x="1168" 
d="M1078 340l35 -304q-167 -51 -406 -51q-121 0 -213 18.5t-159.5 58.5t-112 97.5t-71.5 142t-38.5 183.5t-11.5 231t11.5 231.5t38.5 183.5t71.5 141t112 97t159.5 58.5t213 18.5q236 0 406 -52l-33 -301q-162 28 -325 28q-53 0 -94.5 -11t-69.5 -27.5t-47.5 -47.5
t-30.5 -60.5t-16.5 -76.5t-7 -85t-1.5 -97q0 -47 0.5 -76.5t3.5 -69.5t8 -64.5t14 -55t23 -49t34 -37.5t46 -29.5t60.5 -17t77.5 -6.5q170 0 323 29z" />
    <glyph glyph-name="D" unicode="D" horiz-adv-x="1369" 
d="M141 29v1371q220 46 488 46q116 0 206 -15.5t157.5 -43.5t115.5 -75.5t79 -103.5t49 -135t25 -163t7 -194t-7 -194t-25 -163.5t-49 -135.5t-79 -103t-115.5 -75.5t-157.5 -44t-206 -15.5q-271 0 -488 44zM524 1123v-815q36 -4 67 -4q48 0 87 7t68 17.5t51 31t37 39
t25 50.5t15.5 56t8 65.5t3 69t0.5 76.5t-0.5 76.5t-3 69t-8 65.5t-15.5 56t-25 50.5t-37 39t-51 31t-68 17.5t-87 7q-22 0 -67 -5z" />
    <glyph glyph-name="E" unicode="E" horiz-adv-x="1218" 
d="M517 882h524v-310h-524v-125q0 -82 24 -108t104 -26h420v-303q-258 -14 -414 -14q-53 0 -89.5 1t-84 5t-80.5 11.5t-71.5 21t-64 32.5t-51.5 47.5t-40.5 65t-24 85t-9.5 107.5v690q0 59 9.5 107.5t24 84.5t40.5 64.5t51.5 47.5t64.5 32t71 20t80.5 11t84 5t89.5 1
q225 0 414 -11v-305h-420q-80 0 -104 -25.5t-24 -106.5v-105z" />
    <glyph glyph-name="F" unicode="F" horiz-adv-x="1149" 
d="M524 0h-382v1062q0 59 9.5 107.5t24 84.5t40.5 64.5t51.5 47.5t64.5 32t71.5 20t80.5 11t83.5 5t89.5 1q68 0 240 -5.5t175 -5.5v-305h-421q-80 0 -103.5 -25.5t-23.5 -106.5v-105h522v-310h-522v-572z" />
    <glyph glyph-name="G" unicode="G" horiz-adv-x="1326" 
d="M669 542v298h545v-538q0 -50 -8.5 -90.5t-21.5 -71.5t-37 -54.5t-48 -40t-61 -28t-69.5 -17.5t-80.5 -9.5t-86.5 -4.5t-95.5 -1q-145 0 -248.5 28t-173 82t-110 145t-57.5 204t-17 272q0 133 11.5 233t38.5 184.5t72 141t112.5 96t159 57.5t212.5 18q268 0 484 -49
l-33 -298q-177 27 -403 27q-53 0 -94.5 -11t-69.5 -28t-47.5 -48t-30.5 -61t-16.5 -77.5t-7 -86t-1.5 -98.5q0 -61 1.5 -100t7 -87t16.5 -78t30 -61t47 -47.5t68.5 -27.5t93.5 -11q76 0 100.5 25t24.5 96v117h-207z" />
    <glyph glyph-name="H" unicode="H" horiz-adv-x="1415" 
d="M527 571v-571h-383v1432h383v-542h360v542h384v-1432h-384v571h-360z" />
    <glyph glyph-name="I" unicode="I" horiz-adv-x="664" 
d="M524 1432v-1432h-383v1432h383z" />
    <glyph glyph-name="J" unicode="J" horiz-adv-x="928" 
d="M408 1432h384v-932q0 -143 -22 -237t-75.5 -158.5t-142.5 -92t-224 -27.5q-76 0 -158 15t-134 44l32 285q121 -44 208 -44q61 0 96.5 37.5t35.5 137.5v972z" />
    <glyph glyph-name="K" unicode="K" horiz-adv-x="1339" 
d="M933 748l407 -748h-461l-355 703v-703h-382v1432h382v-664l368 664h445z" />
    <glyph glyph-name="L" unicode="L" horiz-adv-x="1094" 
d="M1050 313v-304q-299 -13 -393 -13q-53 0 -89.5 1t-84 5t-80.5 11.5t-71.5 21t-64 32.5t-51.5 47.5t-40.5 65t-24 85t-9.5 107.5v1060h382v-985q0 -82 23.5 -108t104.5 -26h398z" />
    <glyph glyph-name="M" unicode="M" horiz-adv-x="1695" 
d="M1588 0h-368l-11 871h-2l-156 -489q-63 -199 -204 -199q-73 0 -120.5 48.5t-83.5 150.5l-170 486l-1 -1l-8 -867h-356l54 1158q7 152 58.5 220t167.5 68q163 0 257 -243l200 -523l201 518q47 121 114.5 184.5t147.5 63.5q125 0 172 -61t55 -229z" />
    <glyph glyph-name="N" unicode="N" horiz-adv-x="1477" 
d="M988 538v894h346v-1148q0 -299 -226 -299q-103 0 -168 52.5t-135 198.5l-315 660v-896h-346v1149q0 297 225 297q96 0 166.5 -56.5t136.5 -193.5z" />
    <glyph glyph-name="O" unicode="O" horiz-adv-x="1370" 
d="M685 -15q-171 0 -283 40t-179.5 132t-95 225t-27.5 334t27.5 334t95 224.5t179.5 131.5t283 40t283 -40t179.5 -131.5t95 -224.5t27.5 -334t-27.5 -334t-95 -225t-179.5 -132t-283 -40zM685 307q32 0 58.5 6.5t46 16t34.5 29.5t25 36.5t16.5 49.5t10 55t5 66t2 70.5
t0.5 79.5v71.5t-1.5 64.5t-4 61t-7.5 52.5t-12.5 48t-18 38t-25 32.5t-33 22t-43 15.5t-53.5 4.5t-53.5 -4.5t-43 -15.5t-33 -22t-25 -32.5t-18 -38t-12.5 -48t-7.5 -52.5t-4 -61t-1.5 -64.5v-71.5q0 -53 0.5 -79.5t2 -70.5t5 -66t10 -55t16.5 -49.5t25 -36.5t34.5 -29.5
t46 -16t58.5 -6.5z" />
    <glyph glyph-name="P" unicode="P" horiz-adv-x="1286" 
d="M142 0v1402q222 44 485 44q76 0 136.5 -4.5t123 -17.5t110 -35t90 -58t69.5 -85t43 -118t16 -155q0 -116 -28 -201t-76 -138t-123 -84.5t-157.5 -43.5t-190.5 -12q-49 0 -117 4v-498h-381zM523 1133v-327q45 -5 108 -5q105 0 156 37.5t51 134.5q0 92 -43.5 129.5
t-159.5 37.5q-62 0 -112 -7z" />
    <glyph glyph-name="Q" unicode="Q" horiz-adv-x="1370" 
d="M685 -15q-171 0 -283 40t-179.5 132t-95 225t-27.5 334t27.5 334t95 224.5t179.5 131.5t283 40t283 -40t179.5 -131.5t95 -224.5t27.5 -334q0 -265 -51 -421t-173 -231q30 -42 69.5 -75.5t70 -52t97.5 -55.5l-255 -181q-9 5 -35.5 17.5t-38.5 18.5t-37.5 19t-39.5 22
t-37 24t-37.5 28t-33.5 31.5t-32.5 36.5t-27 41t-24.5 47zM685 307q32 0 58.5 6.5t46 16t34.5 29.5t25 36.5t16.5 49.5t10 55t5 66t2 70.5t0.5 79.5v71.5t-1.5 64.5t-4 61t-7.5 52.5t-12.5 48t-18 38t-25 32.5t-33 22t-43 15.5t-53.5 4.5t-53.5 -4.5t-43 -15.5t-33 -22
t-25 -32.5t-18 -38t-12.5 -48t-7.5 -52.5t-4 -61t-1.5 -64.5v-71.5q0 -53 0.5 -79.5t2 -70.5t5 -66t10 -55t16.5 -49.5t25 -36.5t34.5 -29.5t46 -16t58.5 -6.5z" />
    <glyph glyph-name="R" unicode="R" horiz-adv-x="1346" 
d="M523 508v-508h-381v1402q222 44 485 44q89 0 158 -7t139.5 -25t120.5 -51.5t90 -84t60 -126.5t20 -174q0 -170 -58 -270.5t-169 -148.5l313 -559h-432l-269 504q-53 2 -77 4zM523 1133v-315q45 -5 108 -5q105 0 156 36t51 130q0 87 -44 124t-159 37q-62 0 -112 -7z" />
    <glyph glyph-name="S" unicode="S" horiz-adv-x="1157" 
d="M506 300q93 0 134.5 27.5t41.5 90.5q0 56 -39.5 86t-142.5 62q-84 26 -142.5 51.5t-113 62.5t-87 82t-51.5 108.5t-19 144.5q0 121 34 205t103.5 133.5t164.5 71t227 21.5q222 0 442 -54l-35 -291q-209 37 -338 37q-38 0 -63 -1t-57 -7t-51 -16t-32.5 -29.5t-13.5 -47.5
q0 -60 42 -85t169 -59q223 -60 308.5 -162.5t85.5 -295.5q0 -240 -137.5 -345t-409.5 -105q-215 0 -446 52l37 300q231 -37 389 -37z" />
    <glyph glyph-name="T" unicode="T" horiz-adv-x="1095" 
d="M33 1116v316h1029v-316h-325v-1116h-383v1116h-321z" />
    <glyph glyph-name="U" unicode="U" horiz-adv-x="1375" 
d="M1238 1432v-934q0 -120 -26 -209.5t-71.5 -147t-116.5 -93t-152 -49.5t-186 -14q-133 0 -229 23.5t-171.5 80t-113.5 158.5t-38 251v934h377v-950q0 -96 37.5 -133t137.5 -37q98 0 136 37t38 133v950h378z" />
    <glyph glyph-name="V" unicode="V" horiz-adv-x="1348" 
d="M679 466l262 966h394l-391 -1205q-41 -128 -106 -185t-162 -57q-101 0 -161 52.5t-105 189.5l-397 1205h408z" />
    <glyph glyph-name="W" unicode="W" horiz-adv-x="1785" 
d="M1756 1432l-255 -1185q-30 -140 -88 -201t-156 -61q-106 0 -169 58.5t-93 201.5l-108 526h-2l-97 -526q-25 -133 -93 -196.5t-168 -63.5q-99 0 -157 60t-88 201l-253 1186h385l135 -946h2l97 497q58 295 246 295q90 0 152.5 -68.5t93.5 -227.5l96 -494h1l142 944h377z
" />
    <glyph glyph-name="X" unicode="X" horiz-adv-x="1375" 
d="M677 411l-246 -411h-428l469 728l-452 704h438l233 -385l239 385h415l-449 -696l476 -736h-441z" />
    <glyph glyph-name="Y" unicode="Y" horiz-adv-x="1305" 
d="M844 549v-549h-382v549l-463 883h413l242 -497l252 497h400z" />
    <glyph glyph-name="Z" unicode="Z" horiz-adv-x="1173" 
d="M560 323h523v-323h-807q-106 0 -160.5 38t-54.5 111q0 58 41 128l492 834h-495v321h776q214 0 214 -149q0 -58 -41 -128z" />
    <glyph glyph-name="bracketleft" unicode="[" horiz-adv-x="729" 
d="M142 1480h528v-286h-188v-1241h187v-287h-527v1814z" />
    <glyph glyph-name="backslash" unicode="\" horiz-adv-x="961" 
d="M629 -165l-581 1647h295l581 -1647h-295z" />
    <glyph glyph-name="bracketright" unicode="]" horiz-adv-x="729" 
d="M248 1194h-189v286h528v-1814h-527v287h188v1241z" />
    <glyph glyph-name="asciicircum" unicode="^" horiz-adv-x="1079" 
d="M659 1432l360 -846h-297l-182 435l-182 -435h-297l361 846h237z" />
    <glyph glyph-name="underscore" unicode="_" horiz-adv-x="1026" 
d="M-6 -186h1038v-103h-1038v103z" />
    <glyph glyph-name="grave" unicode="`" horiz-adv-x="589" 
d="M350 1487l188 -340h-271l-260 340h343z" />
    <glyph glyph-name="a" unicode="a" horiz-adv-x="1126" 
d="M514 -15q-234 0 -338.5 89t-104.5 277q0 154 75.5 243t246.5 118q96 16 269 24q0 49 -30 66.5t-101 17.5q-171 0 -400 -30l-29 273q251 46 446 46q80 0 145 -10t126 -35.5t102.5 -66t66 -106t24.5 -151.5v-417q0 -124 -9 -224q-185 -114 -489 -114zM662 424v76
q-105 -8 -153 -21q-47 -12 -66 -37t-19 -87q0 -49 29.5 -69.5t86.5 -20.5q68 0 115 12q7 62 7 147z" />
    <glyph glyph-name="b" unicode="b" horiz-adv-x="1222" 
d="M117 323v1194h361v-417q68 9 142 9q133 0 224.5 -27.5t156 -92.5t94.5 -173.5t30 -268.5q0 -163 -30 -270.5t-97 -172.5t-164.5 -92t-243.5 -27q-126 0 -249.5 28.5t-213.5 85.5q-10 111 -10 224zM478 434q0 -85 7 -147q41 -12 105 -12q36 0 64 9t46 22t31 36.5t19.5 43
t10 52t4 53.5t0.5 56q0 45 -1.5 73t-7.5 63.5t-19.5 56.5t-35.5 40.5t-57 28.5t-82 9q-46 0 -84 -9v-375z" />
    <glyph glyph-name="c" unicode="c" horiz-adv-x="979" 
d="M907 1059l-29 -262q-149 32 -217 32q-70 0 -111.5 -13t-64.5 -48t-30 -82t-7 -130q0 -48 1 -77t5.5 -63t13.5 -53t24.5 -38.5t38.5 -29t56 -15.5t77 -6q75 0 215 31l30 -271q-177 -49 -398 -49q-78 0 -140.5 17t-106 46t-76 73t-51.5 91t-30.5 107.5t-15.5 115t-4 121.5
q0 114 12 196t44.5 152.5t87.5 113.5t142 67t208 24q180 0 326 -50z" />
    <glyph glyph-name="d" unicode="d" horiz-adv-x="1225" 
d="M745 1100v417h361v-1194q0 -124 -9 -224q-90 -57 -213.5 -85.5t-249.5 -28.5q-146 0 -243.5 27t-165 92t-97.5 172.5t-30 270.5q0 160 30 268.5t94.5 173.5t156 92.5t224.5 27.5q75 0 142 -9zM745 809q-38 9 -84 9q-47 0 -82 -9t-57 -28.5t-35.5 -40.5t-19.5 -56.5
t-7.5 -63.5t-1.5 -73q0 -41 1 -65.5t6 -61t16.5 -58.5t30 -44t49.5 -32.5t73 -10.5q64 0 105 12q6 53 6 147v375z" />
    <glyph glyph-name="e" unicode="e" 
d="M560 -15q-111 0 -195.5 28t-138 76t-87 120.5t-46.5 154t-13 183.5q0 302 112.5 432t388.5 130q101 0 178.5 -17t131 -52t88.5 -80.5t54.5 -111.5t27.5 -135.5t8 -160.5q0 -34 -4 -102q-195 -38 -475 -55l-152 -9q3 -62 44 -85t141 -23q159 0 399 30l30 -276
q-270 -47 -492 -47zM428 634l115 6q108 6 165 15q2 16 2 26q0 74 -30 109.5t-99 35.5q-49 0 -81 -13.5t-47 -42t-20 -59t-5 -77.5z" />
    <glyph glyph-name="f" unicode="f" horiz-adv-x="841" 
d="M58 1094h171v75q0 175 94.5 269t283.5 94q103 0 220 -16l-28 -252h-93q-67 0 -93 -24t-26 -81v-65h210v-284h-210v-810h-358v810h-171v284z" />
    <glyph glyph-name="g" unicode="g" horiz-adv-x="1208" 
d="M725 19q-67 -9 -142 -9q-132 0 -224 27.5t-156.5 91t-94.5 169t-30 261.5q0 157 31.5 263.5t100 169.5t165.5 90t238 27q126 0 250 -28.5t214 -85.5q9 -100 9 -223v-814q0 -87 -25 -154t-67 -108.5t-104 -67.5t-128.5 -36t-147.5 -10q-201 0 -479 54l29 271
q253 -34 400 -34q161 0 161 146zM725 310v351q0 84 -7 146q-44 13 -105 13q-46 0 -79.5 -16.5t-51.5 -41t-28.5 -62t-13 -69t-2.5 -72.5q0 -35 1 -58.5t5.5 -53t12.5 -48.5t23 -39.5t36 -32t52.5 -19t72.5 -7.5q47 0 84 9z" />
    <glyph glyph-name="h" unicode="h" horiz-adv-x="1249" 
d="M1112 672v-672h-361v648q0 92 -30 126.5t-131 34.5q-60 0 -108 -14v-795h-362v1517h362v-429q87 21 182 21q86 0 154 -12.5t114.5 -32.5t80 -53.5t52.5 -67.5t30 -82t14 -90t3 -99z" />
    <glyph glyph-name="i" unicode="i" horiz-adv-x="627" 
d="M313 1532q112 0 157.5 -42t45.5 -140t-45.5 -140t-157.5 -42q-113 0 -158.5 42t-45.5 140t45.5 140t158.5 42zM495 0h-363v1094h363v-1094z" />
    <glyph glyph-name="j" unicode="j" horiz-adv-x="633" 
d="M135 17v1077h364v-1047q0 -255 -113.5 -360t-376.5 -105q-67 0 -115 5l29 268q45 5 69.5 9.5t56 15t47.5 26.5t27.5 44t11.5 67zM520 1350q0 -98 -46 -140t-158 -42t-157.5 42t-45.5 140t45.5 140t157.5 42t158 -42t46 -140z" />
    <glyph glyph-name="k" unicode="k" horiz-adv-x="1222" 
d="M765 0l-285 559v-559h-360v1517h360v-889l287 466h418l-323 -491l337 -603h-434z" />
    <glyph glyph-name="l" unicode="l" horiz-adv-x="610" 
d="M111 268v1249h360v-1208q0 -69 15 -119t53 -107l-324 -150q-104 125 -104 335z" />
    <glyph glyph-name="m" unicode="m" horiz-adv-x="1690" 
d="M118 0v772q0 123 9 223q185 114 481 114q152 0 249 -50q155 50 292 50q107 0 185 -23t123 -59.5t71.5 -94t34.5 -114.5t8 -133v-685h-357v662q0 78 -25.5 115.5t-98.5 37.5q-38 0 -74 -11q7 -44 7 -119v-685h-358v662q0 74 -22.5 113.5t-82.5 39.5q-44 0 -78 -12
q-7 -62 -7 -147v-656h-357z" />
    <glyph glyph-name="n" unicode="n" horiz-adv-x="1185" 
d="M117 0v772q0 123 9 223q185 114 480 114q87 0 156 -10.5t117.5 -28.5t83 -48t55.5 -62.5t32.5 -79t15.5 -91t4 -104.5v-685h-357v662q0 86 -26 119t-106 34q-55 0 -100 -12q-7 -62 -7 -147v-656h-357z" />
    <glyph glyph-name="o" unicode="o" 
d="M578 -15q-273 0 -385.5 128t-112.5 434q0 305 112.5 433.5t385.5 128.5t385 -128t112 -434q0 -307 -112 -434.5t-385 -127.5zM578 281q86 0 112 52t26 214q0 161 -26 214t-112 53t-112.5 -53t-26.5 -214q0 -162 26.5 -214t112.5 -52z" />
    <glyph glyph-name="p" unicode="p" horiz-adv-x="1224" 
d="M481 -6v-397h-361v1175q0 123 9 223q90 57 213.5 85.5t249.5 28.5q146 0 243.5 -27t165 -92t97.5 -172.5t30 -270.5q0 -160 -30 -268.5t-95 -173.5t-156.5 -92.5t-224.5 -27.5q-74 0 -141 9zM481 286q37 -9 84 -9q41 0 72.5 7.5t52.5 19t36 32.5t23 40.5t12 51.5t5 56
t1 63q0 35 -0.5 56t-4 53.5t-10 52.5t-19.5 43.5t-31 36.5t-46 22t-64 9q-61 0 -105 -13q-6 -53 -6 -146v-375z" />
    <glyph glyph-name="q" unicode="q" horiz-adv-x="1223" 
d="M1104 772v-1175h-361v397q-67 -9 -141 -9q-133 0 -224.5 27.5t-156.5 92.5t-95 173.5t-30 268.5q0 163 30 270.5t97.5 172.5t165 92t243.5 27q126 0 249.5 -28.5t213.5 -85.5q9 -100 9 -223zM743 661q0 93 -6 146q-44 13 -105 13q-36 0 -64 -9t-46 -22t-31 -36.5
t-19.5 -43.5t-10 -52.5t-4 -53.5t-0.5 -56q0 -39 1 -63t5 -56t12 -51.5t23 -40.5t36 -32.5t52.5 -19t72.5 -7.5q47 0 84 9v375z" />
    <glyph glyph-name="r" unicode="r" horiz-adv-x="767" 
d="M473 0h-357v772q0 123 9 223q90 57 214 85.5t250 28.5q75 0 130 -8l-29 -292q-50 5 -69 5q-84 0 -142 -28q-6 -66 -6 -147v-639z" />
    <glyph glyph-name="s" unicode="s" horiz-adv-x="1010" 
d="M443 267q25 0 40.5 0.5t35 4t30.5 9.5t18.5 17t7.5 27q0 14 -6 25t-13.5 17.5t-22.5 13.5t-26 10.5t-32.5 9t-32.5 9.5q-57 18 -98 34t-91.5 46t-82 65.5t-53.5 91.5t-22 124q0 338 404 338q214 0 429 -53l-33 -260q-168 37 -288 37q-39 0 -60 -1t-46.5 -6t-37 -16.5
t-11.5 -30.5q0 -15 7 -26.5t24.5 -20.5t31 -14t45 -15t47.5 -15q133 -45 177 -69q111 -61 139 -176q12 -48 12 -108q0 -80 -22.5 -141t-61.5 -100t-96 -64t-120.5 -35t-140.5 -10q-230 0 -418 56l34 266q192 -40 313 -40h20z" />
    <glyph glyph-name="t" unicode="t" horiz-adv-x="870" 
d="M782 266l28 -256q-132 -25 -235 -25q-184 0 -269.5 81.5t-85.5 248.5v498h-164v281h164v251l357 58v-309h203v-281h-203v-452q0 -100 94 -100q62 0 111 5z" />
    <glyph glyph-name="u" unicode="u" horiz-adv-x="1181" 
d="M1061 1094v-771q0 -124 -9 -224q-185 -114 -478 -114q-87 0 -155 10.5t-116.5 28.5t-83 48t-55.5 62.5t-32.5 79t-15.5 91t-4 104.5v685h358v-662q0 -85 26.5 -119t103.5 -34q52 0 97 12q7 62 7 147v656h357z" />
    <glyph glyph-name="v" unicode="v" horiz-adv-x="1189" 
d="M602 393l192 701h367l-322 -905q-72 -204 -245 -204q-171 0 -243 204l-322 905h377z" />
    <glyph glyph-name="w" unicode="w" horiz-adv-x="1607" 
d="M27 1094h366l116 -688h1l74 357q52 251 224 251q165 0 222 -251l80 -353h1l114 684h355l-221 -867q-31 -124 -88 -183t-143 -59q-176 0 -243 241l-84 299l-73 -298q-30 -120 -94 -181t-151 -61q-89 0 -144 56.5t-88 187.5z" />
    <glyph glyph-name="x" unicode="x" horiz-adv-x="1238" 
d="M606 291l-189 -291h-400l400 563l-374 531h414l174 -261l173 261h391l-374 -526l401 -568h-421z" />
    <glyph glyph-name="y" unicode="y" horiz-adv-x="1188" 
d="M12 1094h383l216 -550l169 550h369l-509 -1497h-370l178 487z" />
    <glyph glyph-name="z" unicode="z" horiz-adv-x="1080" 
d="M962 852l-389 -554h402v-298h-757q-72 0 -113 34t-41 91q0 55 45 119l392 563h-398v287h750q70 0 111 -33.5t41 -90.5q0 -56 -43 -118z" />
    <glyph glyph-name="braceleft" unicode="{" horiz-adv-x="742" 
d="M60 447v253q87 8 112.5 73.5t25.5 264.5q0 74 9 131.5t25 101t45 74.5t63 52.5t85.5 35.5t105 22t128.5 14l33 -260q-30 -3 -54 -9t-40.5 -16.5t-28.5 -19t-19.5 -25.5t-11.5 -27.5t-5.5 -32.5t-2 -32.5t-0.5 -36.5v-131q0 -46 -1.5 -76.5t-7.5 -72t-18 -69t-34.5 -52.5
t-54.5 -38q32 -15 55 -44t34.5 -59t18 -75.5t7.5 -77t1 -80.5v-98q0 -29 0.5 -41t3 -36.5t8.5 -36t17.5 -29t28.5 -26.5t43.5 -17.5t60.5 -12.5l-33 -260q-88 7 -148 17t-115.5 29t-89.5 49t-60 76t-37 110t-11 151q0 105 -4.5 162.5t-20 98.5t-41.5 56t-72 20z" />
    <glyph glyph-name="bar" unicode="|" horiz-adv-x="564" 
d="M141 -403v1920h282v-1920h-282z" />
    <glyph glyph-name="braceright" unicode="}" horiz-adv-x="742" 
d="M213 1010q0 33 -1 48.5t-5 42t-14 40t-27.5 30t-46.5 25.5t-69 13l34 260q106 -8 174 -21.5t127.5 -41.5t91.5 -74.5t49.5 -118t17.5 -175.5q0 -198 26 -264t113 -74v-253q-37 -4 -60.5 -15.5t-40 -32.5t-24.5 -61.5t-11 -92t-3 -135.5q0 -87 -11 -151t-36.5 -110
t-59.5 -76t-89.5 -49.5t-115.5 -29t-148 -16.5l-34 260q34 4 60.5 12.5t43.5 17.5t29 26t17.5 29.5t8.5 36t3.5 36.5t0.5 41v98q0 49 1 80.5t7.5 77t18 75.5t34.5 59t55 44q-32 13 -55 38t-34.5 52t-18 69t-7.5 72t-1 77v131z" />
    <glyph glyph-name="asciitilde" unicode="~" horiz-adv-x="1236" 
d="M890 875h267q-19 -221 -107 -337.5t-212 -116.5q-68 0 -121 17.5t-85 42t-58.5 49t-57.5 42t-67 17.5q-74 0 -102 -160h-268q19 220 107 336.5t212 116.5q68 0 121 -17t85.5 -41.5t59.5 -49.5t58 -42t66 -17q73 0 102 160z" />
    <glyph glyph-name="uni00A0" unicode="&#xa0;" horiz-adv-x="491" 
 />
    <glyph glyph-name="exclamdown" unicode="&#xa1;" horiz-adv-x="649" 
d="M324 1096q113 0 158.5 -42t45.5 -140t-45.5 -140t-158.5 -42q-112 0 -157.5 42t-45.5 140t45.5 140t157.5 42zM482 658l50 -1009h-415l50 1009h315z" />
    <glyph glyph-name="cent" unicode="&#xa2;" horiz-adv-x="949" 
d="M850 460l29 -263q-107 -30 -230 -41v-190h-235v188q-84 11 -145.5 48.5t-96.5 87.5t-56 122.5t-27.5 139.5t-6.5 152q0 95 8.5 166t30.5 134.5t59.5 107t95.5 74t138 43.5v193h235v-185q120 -9 228 -46l-28 -254q-149 31 -211 31q-68 0 -108 -12.5t-62.5 -46t-29.5 -79.5
t-7 -126q0 -47 1 -75.5t5.5 -61t13 -51t23.5 -37.5t38 -28t54.5 -15t74.5 -6q67 0 209 30z" />
    <glyph glyph-name="sterling" unicode="&#xa3;" horiz-adv-x="1238" 
d="M262 571h-189v266h153q-7 79 -7 151q0 97 27 170.5t73 119.5t113.5 74.5t141 39.5t163.5 11q65 0 119 -10.5t91 -24t80.5 -45.5t69 -54.5t75.5 -71.5l-185 -220q-67 63 -118 91t-124 28q-92 0 -126.5 -35t-34.5 -116q0 -61 5 -108h285v-266h-264q1 -20 1 -59
q0 -95 -37 -202h163q189 0 371 29l31 -289q-186 -50 -498 -50h-299q-91 0 -135.5 41t-44.5 105q0 34 16 73t35.5 71.5t35.5 88t16 118.5q0 37 -3 74z" />
    <glyph glyph-name="currency" unicode="&#xa4;" horiz-adv-x="1325" 
d="M1106 439l154 -148l-198 -198l-155 157q-117 -63 -245 -63q-131 0 -247 62l-156 -156l-194 198l154 150q-66 115 -66 244q0 134 66 249l-154 152l194 196l158 -158q115 63 245 63q132 0 246 -61l154 155l198 -195l-154 -150q69 -118 69 -251t-69 -246zM662 457
q89 0 156 67t67 161q0 96 -65 164t-158 68q-90 0 -155 -67.5t-65 -164.5q0 -93 63.5 -160.5t156.5 -67.5z" />
    <glyph glyph-name="yen" unicode="&#xa5;" horiz-adv-x="1243" 
d="M1066 463v-206h-265v-257h-360v257h-263v206h263v73l-29 62h-234v208h140l-265 583h370l201 -480l210 480h357l-266 -583h141v-208h-236l-29 -63v-72h265z" />
    <glyph glyph-name="brokenbar" unicode="&#xa6;" horiz-adv-x="525" 
d="M122 -289v661h282v-661h-282zM122 743v660h282v-660h-282z" />
    <glyph glyph-name="section" unicode="&#xa7;" horiz-adv-x="1174" 
d="M474 203q-43 17 -64 26t-61.5 28t-62.5 32t-55.5 36t-52.5 43.5t-42 50t-34.5 60.5t-20 70t-8.5 83q0 166 127 266q-49 73 -49 169q0 168 121.5 273.5t332.5 105.5q220 0 440 -54l-34 -261q-199 39 -374 39q-129 0 -129 -80q0 -18 12 -35.5t28 -31t45.5 -29t51.5 -25
t59 -24.5q49 -20 80 -33.5t77 -37.5t75.5 -45.5t63.5 -54.5t53.5 -67.5t32.5 -81t13 -98.5q0 -87 -35 -147t-96 -108q59 -77 59 -190q0 -85 -30 -151.5t-79 -108.5t-116 -69.5t-135 -38.5t-143 -11q-225 0 -439 52l34 268q197 -39 373 -39q29 0 41 0.5t38 2t38.5 6.5
t28 13.5t22 23t6.5 34.5q0 28 -29 54t-56.5 39t-92.5 40q-9 4 -14 6zM527 520q34 -17 113.5 -44.5t110.5 -43.5q23 20 23 66q0 41 -39 77.5t-119 75.5q-28 13 -100.5 39t-106.5 44q-25 -20 -25 -72q0 -72 143 -142z" />
    <glyph glyph-name="dieresis" unicode="&#xa8;" horiz-adv-x="925" 
d="M241 1141q-69 0 -115.5 46.5t-46.5 115.5t46.5 115t115.5 46t115 -46t46 -115t-46 -115.5t-115 -46.5zM688 1141q-69 0 -116 46.5t-47 115.5t47 115t116 46t114.5 -46t45.5 -115t-45.5 -115.5t-114.5 -46.5z" />
    <glyph glyph-name="copyright" unicode="&#xa9;" horiz-adv-x="1601" 
d="M959 621h192q-13 -146 -111.5 -235t-233.5 -89q-119 0 -203 56.5t-123.5 150t-39.5 214.5q0 110 40.5 203t125.5 153.5t200 60.5q123 0 224 -78t121 -224h-192q-10 64 -51.5 99t-101.5 35q-73 0 -118 -66.5t-45 -182.5q0 -115 43 -180.5t120 -65.5q56 0 98.5 40t54.5 109
zM801 -15q-149 0 -284.5 58t-233 156.5t-155.5 234t-58 284.5q0 199 98 366.5t266 264.5t367 97q149 0 284 -57.5t233 -154.5t155.5 -232t57.5 -284q0 -199 -97.5 -367.5t-265.5 -267t-367 -98.5zM801 171q149 0 272 71.5t194 197t71 278.5q0 151 -71 275.5t-194 196
t-272 71.5q-227 0 -382.5 -157t-155.5 -386q0 -153 71 -278.5t194.5 -197t272.5 -71.5z" />
    <glyph glyph-name="ordfeminine" unicode="&#xaa;" horiz-adv-x="842" 
d="M395 629q-163 0 -236.5 61.5t-73.5 191.5q0 104 54 166t171 83q65 12 190 16q0 41 -21.5 55t-71.5 14q-120 0 -280 -21l-20 183q174 32 311 32q56 0 101.5 -7t88.5 -24.5t72 -45.5t46 -73.5t17 -104.5v-293q0 -74 -6 -154q-129 -79 -342 -79zM500 933v58q-83 -8 -110 -15
q-32 -8 -46.5 -27t-14.5 -64q0 -68 84 -68q49 0 82 9q5 43 5 107z" />
    <glyph glyph-name="guillemotleft" unicode="&#xab;" horiz-adv-x="1255" 
d="M353 961h317l-277 -431l277 -432h-317l-306 432zM871 961h318l-278 -431l278 -432h-318l-305 432z" />
    <glyph glyph-name="logicalnot" unicode="&#xac;" horiz-adv-x="1282" 
d="M104 554v281h1017v-667h-291v386h-726z" />
    <glyph glyph-name="uni00AD" unicode="&#xad;" horiz-adv-x="804" 
d="M122 679h561v-269h-561v269z" />
    <glyph glyph-name="registered" unicode="&#xae;" horiz-adv-x="1004" 
d="M465 790h-122v453h169q95 0 138 -35.5t43 -105.5q0 -90 -74 -123l92 -189h-134l-81 169h-31v-169zM58 1003q0 184 130 313.5t315 129.5q184 0 313.5 -129.5t129.5 -313.5q0 -121 -59 -223.5t-161 -162t-223 -59.5t-223.5 59.5t-162 162t-59.5 223.5zM816 1003
q0 134 -90.5 225.5t-222.5 91.5q-133 0 -224 -91.5t-91 -225.5q0 -135 91 -227t224 -92q132 0 222.5 92t90.5 227zM465 1139v-76h35q75 0 75 39q0 37 -77 37h-33z" />
    <glyph glyph-name="macron" unicode="&#xaf;" horiz-adv-x="876" 
d="M106 1194v209h664v-209h-664z" />
    <glyph glyph-name="degree" unicode="&#xb0;" horiz-adv-x="809" 
d="M404 756q-142 0 -243.5 101t-101.5 244t101.5 244t243.5 101q143 0 244.5 -101.5t101.5 -243.5t-101.5 -243.5t-244.5 -101.5zM404 947q65 0 110 45t45 109q0 65 -45.5 110t-109.5 45t-109 -45t-45 -110t45 -109.5t109 -44.5z" />
    <glyph glyph-name="plusminus" unicode="&#xb1;" horiz-adv-x="1196" 
d="M1107 924v-280h-364v-288h-290v288h-363v280h363v288h290v-288h364zM90 -10v280h1017v-280h-1017z" />
    <glyph glyph-name="twosuperior" unicode="&#xb2;" horiz-adv-x="737" 
d="M668 831h-632q35 201 58 265q35 101 114 157q41 28 102 54q62 26 87.5 48t25.5 56q0 43 -30.5 57t-122.5 14q-77 0 -196 -21l-23 185q166 34 300 34q56 0 101 -6t86.5 -21.5t69.5 -41t44.5 -66.5t16.5 -95q0 -117 -61.5 -194.5t-190.5 -127.5q-55 -21 -78 -43t-29 -52
h358v-202z" />
    <glyph glyph-name="threesuperior" unicode="&#xb3;" horiz-adv-x="717" 
d="M328 1681q71 0 124.5 -9.5t101.5 -33.5t74 -72t26 -119q0 -116 -102 -172q65 -27 89 -67t24 -104q0 -153 -85.5 -216.5t-254.5 -63.5q-21 0 -40.5 0.5t-44 3t-36.5 3.5t-42.5 6t-36.5 6t-44.5 7.5t-41.5 7.5l26 186q162 -21 228 -21q67 0 94 15t27 60q0 63 -56 69
q-79 10 -176 10h-20v174q91 1 195 17q50 8 50 64q0 32 -23.5 43t-67.5 11q-73 0 -245 -22l-24 183q168 34 281 34z" />
    <glyph glyph-name="acute" unicode="&#xb4;" horiz-adv-x="589" 
d="M51 1147l188 340h343l-260 -340h-271z" />
    <glyph glyph-name="mu" unicode="&#xb5;" horiz-adv-x="1326" 
d="M1129 1094v-657q0 -32 0.5 -47.5t2 -41.5t5 -39.5t10 -32t16.5 -29.5t24.5 -21t34.5 -17v-224q-136 0 -222 35t-124 89q-58 -70 -117.5 -97t-142.5 -27q-37 0 -76 10.5t-61 27.5v-426h-330v1497h332v-647q0 -83 37.5 -135t100.5 -52q46 0 78.5 18t51.5 47t29.5 78.5
t14 99t3.5 120.5v471h333z" />
    <glyph glyph-name="paragraph" unicode="&#xb6;" horiz-adv-x="1362" 
d="M538 -315v861q-140 9 -251 69.5t-171.5 156.5t-60.5 210q0 222 149.5 336t417.5 114h592v-1747h-247v1527h-182v-1527h-247z" />
    <glyph glyph-name="periodcentered" unicode="&#xb7;" horiz-adv-x="650" 
d="M325 395q-119 0 -162 41t-43 151t43.5 151t161.5 41q117 0 161 -41t44 -151t-43.5 -151t-161.5 -41z" />
    <glyph glyph-name="cedilla" unicode="&#xb8;" horiz-adv-x="447" 
d="M37 -204l122 204h183l-74 -116q64 -12 108 -52t44 -98q0 -64 -37.5 -106.5t-92.5 -60t-125 -17.5q-102 0 -190 52l46 122q77 -39 141 -39q53 0 53 46q0 20 -18.5 33.5t-48.5 20t-57 9t-54 2.5z" />
    <glyph glyph-name="onesuperior" unicode="&#xb9;" horiz-adv-x="534" 
d="M444 833h-241v605q-65 -13 -166 -21l-11 189q140 21 236 67h182v-840z" />
    <glyph glyph-name="ordmasculine" unicode="&#xba;" horiz-adv-x="850" 
d="M77 1020q0 212 78.5 301t269.5 89t269.5 -89t78.5 -301q0 -213 -78.5 -302t-269.5 -89t-269.5 89t-78.5 302zM524 1020q0 116 -19 154t-80 38t-80 -38t-19 -154q0 -117 19 -154.5t80 -37.5q62 0 80.5 37.5t18.5 154.5z" />
    <glyph glyph-name="guillemotright" unicode="&#xbb;" horiz-adv-x="1255" 
d="M67 98l278 432l-278 431h318l305 -431l-305 -432h-318zM586 98l277 432l-277 431h317l306 -431l-306 -432h-317z" />
    <glyph glyph-name="onequarter" unicode="&#xbc;" horiz-adv-x="1604" 
d="M1454 0h-236v175h-217q-79 0 -111.5 29.5t-32.5 87.5q0 19 3 34.5t19 46.5t46 69l246 316q43 56 77 73.5t85 17.5q53 0 87 -33.5t34 -95.5v-358h93v-187h-93v-175zM455 1430v-840h-241v605q-50 -10 -166 -21l-11 190q137 20 236 66h182zM475 -29h-235l840 1490h236z
M1219 362v165l-120 -165h120z" />
    <glyph glyph-name="onehalf" unicode="&#xbd;" horiz-adv-x="1778" 
d="M1694 202v-202h-632q35 201 58 265q35 101 114 157q41 28 102 54q62 27 88 49t26 55q0 43 -31 57t-123 14q-73 0 -196 -22l-23 186q166 34 301 34q71 0 124 -10t98.5 -34.5t69.5 -71.5t24 -114q0 -117 -61 -195t-190 -128q-55 -21 -78 -42.5t-29 -51.5h358zM215 590v605
q-50 -10 -166 -21l-10 190q135 20 235 66h183v-840h-242zM241 -29l840 1490h236l-841 -1490h-235z" />
    <glyph glyph-name="threequarters" unicode="&#xbe;" horiz-adv-x="1740" 
d="M357 1439q71 0 124.5 -9.5t101.5 -33.5t74 -72t26 -119q0 -116 -102 -172q65 -27 89 -67t24 -104q0 -154 -85.5 -217t-254.5 -63q-21 0 -40.5 0.5t-44 3t-36.5 3.5t-42.5 6t-36.5 6t-44.5 7.5t-41.5 7.5l25 186q169 -22 229 -22q66 0 93.5 15.5t27.5 60.5q0 63 -57 69
q-79 10 -175 10h-21v173q85 1 196 18q26 5 38 19t12 44q0 32 -23.5 43.5t-67.5 11.5q-73 0 -245 -22l-24 183q168 34 281 34zM1064 442l246 316q43 56 77 73.5t85 17.5q53 0 87.5 -34t34.5 -95v-358h93v-187h-93v-175h-236v175h-218q-79 0 -111.5 29.5t-32.5 87.5
q0 19 3 34.5t19 46.5t46 69zM1220 1461h234l-840 -1490h-235zM1238 362h121v165z" />
    <glyph glyph-name="questiondown" unicode="&#xbf;" horiz-adv-x="1132" 
d="M491 573l4 85h322l6 -140q1 -12 1 -49q0 -76 -20 -125t-51.5 -69t-69.5 -30t-76.5 -15.5t-70 -17t-51.5 -43.5t-20 -86q0 -67 42.5 -96.5t147.5 -29.5q206 0 363 36l64 -303q-217 -56 -456 -56q-76 0 -134.5 4.5t-118.5 16.5t-103 33t-82 55t-62.5 81.5t-37.5 113.5
t-14 149q0 100 22.5 173t59 111.5t80.5 63t88 36t81 22t61 29.5t25 51zM656 732q-112 0 -158 42t-46 140t46 140t158 42t157.5 -42t45.5 -140t-45.5 -140t-157.5 -42z" />
    <glyph glyph-name="Agrave" unicode="&#xc0;" horiz-adv-x="1392" 
d="M408 0h-394l407 1183q49 142 114.5 202.5t165.5 60.5q95 0 163 -64.5t114 -198.5l401 -1183h-404l-85 297h-401zM645 1843l201 -275h-290l-278 275h367zM570 596h236l-120 426z" />
    <glyph glyph-name="Aacute" unicode="&#xc1;" horiz-adv-x="1392" 
d="M408 0h-394l407 1183q49 142 114.5 202.5t165.5 60.5q95 0 163 -64.5t114 -198.5l401 -1183h-404l-85 297h-401zM558 1556l201 275h367l-279 -275h-289zM570 596h236l-120 426z" />
    <glyph glyph-name="Acircumflex" unicode="&#xc2;" horiz-adv-x="1392" 
d="M408 0h-394l407 1183q49 142 114.5 202.5t165.5 60.5q95 0 163 -64.5t114 -198.5l401 -1183h-404l-85 297h-401zM790 1832l287 -277h-265l-114 119l-117 -119h-262l283 277h188zM570 596h236l-120 426z" />
    <glyph glyph-name="Atilde" unicode="&#xc3;" horiz-adv-x="1392" 
d="M845 1835h174q-11 -138 -70 -213t-134 -75q-43 0 -79 18t-55.5 39t-39 39t-33.5 18q-44 0 -61 -109h-174q11 138 70 213.5t134 75.5q44 0 80 -18t55.5 -39t39 -39t33.5 -18q44 0 60 108zM14 0l407 1183q49 142 114.5 202.5t165.5 60.5q95 0 163 -64.5t114 -198.5
l401 -1183h-404l-85 297h-401l-81 -297h-394zM806 596l-120 426l-116 -426h236z" />
    <glyph glyph-name="Adieresis" unicode="&#xc4;" horiz-adv-x="1392" 
d="M408 0h-394l407 1183q49 142 114.5 202.5t165.5 60.5q95 0 163 -64.5t114 -198.5l401 -1183h-404l-85 297h-401zM476 1529q-69 0 -116 46t-47 115t47 115.5t116 46.5t114.5 -46.5t45.5 -115.5t-45.5 -115t-114.5 -46zM922 1529q-69 0 -116 46t-47 115t47 115.5t116 46.5
t114.5 -46.5t45.5 -115.5t-45.5 -115t-114.5 -46zM570 596h236l-120 426z" />
    <glyph glyph-name="Aring" unicode="&#xc5;" horiz-adv-x="1392" 
d="M408 0h-394l407 1183q49 142 114.5 202.5t165.5 60.5q95 0 163 -64.5t114 -198.5l401 -1183h-404l-85 297h-401zM697 1535q-91 0 -155.5 65t-64.5 156t64.5 155t155.5 64t155.5 -64t64.5 -155q0 -92 -64.5 -156.5t-155.5 -64.5zM697 1662q39 0 66.5 27.5t27.5 66.5
t-27.5 66.5t-66.5 27.5t-66.5 -27.5t-27.5 -66.5t27.5 -66.5t66.5 -27.5zM570 596h236l-120 426z" />
    <glyph glyph-name="AE" unicode="&#xc6;" horiz-adv-x="1882" 
d="M14 0l414 1207q25 74 62 122.5t87 73t102.5 34t124.5 9.5q135 0 212 -39q93 28 300 28q225 0 414 -11v-305h-421q-80 0 -103.5 -25.5t-23.5 -106.5v-105h523v-310h-523v-125q0 -82 23.5 -108t103.5 -26h421v-303q-258 -14 -414 -14q-64 0 -106 1.5t-98 8t-92.5 18.5
t-77.5 34t-66.5 53.5t-45 78.5t-26.5 107h-310l-84 -297h-396zM712 1066l-133 -470h222v472q0 57 -37 57q-21 0 -32 -14t-20 -45z" />
    <glyph glyph-name="Ccedilla" unicode="&#xc7;" horiz-adv-x="1168" 
d="M1113 1394l-33 -301q-162 28 -325 28q-53 0 -94.5 -11t-69.5 -27.5t-47.5 -47.5t-30.5 -60.5t-16.5 -76.5t-7 -85t-1.5 -97q0 -47 0.5 -76.5t3.5 -69.5t8 -64.5t14 -55t23 -49t34 -37.5t46 -29.5t60.5 -17t77.5 -6.5q170 0 323 29l35 -304q-123 -40 -319 -49l-58 -92
q63 -12 107 -52.5t44 -98.5q0 -64 -37.5 -106.5t-92.5 -59.5t-125 -17q-103 0 -189 51l45 123q79 -40 141 -40q54 0 54 46q0 20 -18.5 33.5t-48.5 20t-57 9t-54 2.5l108 182q-151 10 -251 57.5t-157.5 140.5t-80.5 218.5t-23 311.5q0 132 11.5 231.5t38.5 183.5t71.5 141
t112 97t159.5 58.5t213 18.5q236 0 406 -52z" />
    <glyph glyph-name="Egrave" unicode="&#xc8;" horiz-adv-x="1218" 
d="M517 882h524v-310h-524v-125q0 -82 24 -108t104 -26h420v-303q-258 -14 -414 -14q-53 0 -89.5 1t-84 5t-80.5 11.5t-71.5 21t-64 32.5t-51.5 47.5t-40.5 65t-24 85t-9.5 107.5v690q0 59 9.5 107.5t24 84.5t40.5 64.5t51.5 47.5t64.5 32t71 20t80.5 11t84 5t89.5 1
q225 0 414 -11v-305h-420q-80 0 -104 -25.5t-24 -106.5v-105zM865 1545h-290l-278 275h367z" />
    <glyph glyph-name="Eacute" unicode="&#xc9;" horiz-adv-x="1218" 
d="M517 882h524v-310h-524v-125q0 -82 24 -108t104 -26h420v-303q-258 -14 -414 -14q-53 0 -89.5 1t-84 5t-80.5 11.5t-71.5 21t-64 32.5t-51.5 47.5t-40.5 65t-24 85t-9.5 107.5v690q0 59 9.5 107.5t24 84.5t40.5 64.5t51.5 47.5t64.5 32t71 20t80.5 11t84 5t89.5 1
q225 0 414 -11v-305h-420q-80 0 -104 -25.5t-24 -106.5v-105zM647 1820h367l-278 -275h-290z" />
    <glyph glyph-name="Ecircumflex" unicode="&#xca;" horiz-adv-x="1218" 
d="M517 882h524v-310h-524v-125q0 -82 24 -108t104 -26h420v-303q-258 -14 -414 -14q-53 0 -89.5 1t-84 5t-80.5 11.5t-71.5 21t-64 32.5t-51.5 47.5t-40.5 65t-24 85t-9.5 107.5v690q0 59 9.5 107.5t24 84.5t40.5 64.5t51.5 47.5t64.5 32t71 20t80.5 11t84 5t89.5 1
q225 0 414 -11v-305h-420q-80 0 -104 -25.5t-24 -106.5v-105zM1011 1544h-264l-115 119l-117 -119h-262l283 277h188z" />
    <glyph glyph-name="Edieresis" unicode="&#xcb;" horiz-adv-x="1218" 
d="M517 882h524v-310h-524v-125q0 -82 24 -108t104 -26h420v-303q-258 -14 -414 -14q-53 0 -89.5 1t-84 5t-80.5 11.5t-71.5 21t-64 32.5t-51.5 47.5t-40.5 65t-24 85t-9.5 107.5v690q0 59 9.5 107.5t24 84.5t40.5 64.5t51.5 47.5t64.5 32t71 20t80.5 11t84 5t89.5 1
q225 0 414 -11v-305h-420q-80 0 -104 -25.5t-24 -106.5v-105zM250 1681q0 69 47 115t116 46t114.5 -46t45.5 -115t-45.5 -115.5t-114.5 -46.5t-116 46.5t-47 115.5zM696 1681q0 69 47 115t116 46t114.5 -46t45.5 -115t-45.5 -115.5t-114.5 -46.5t-116 46.5t-47 115.5z" />
    <glyph glyph-name="Igrave" unicode="&#xcc;" horiz-adv-x="664" 
d="M524 1432v-1432h-383v1432h383zM296 1825l200 -275h-290l-277 275h367z" />
    <glyph glyph-name="Iacute" unicode="&#xcd;" horiz-adv-x="664" 
d="M524 1432v-1432h-383v1432h383zM168 1550l201 275h367l-279 -275h-289z" />
    <glyph glyph-name="Icircumflex" unicode="&#xce;" horiz-adv-x="664" 
d="M424 1816l288 -277h-265l-115 119l-117 -119h-262l283 277h188zM524 1432v-1432h-383v1432h383z" />
    <glyph glyph-name="Idieresis" unicode="&#xcf;" horiz-adv-x="664" 
d="M111 1515q-69 0 -116 46t-47 115t47 115.5t116 46.5t114.5 -46.5t45.5 -115.5t-45.5 -115t-114.5 -46zM557 1515q-69 0 -116 46t-47 115t47 115.5t116 46.5t114.5 -46.5t45.5 -115.5t-45.5 -115t-114.5 -46zM524 1432v-1432h-383v1432h383z" />
    <glyph glyph-name="Eth" unicode="&#xd0;" horiz-adv-x="1407" 
d="M179 621h-103v230h103v549q220 46 488 46q116 0 206 -15.5t157.5 -43.5t115.5 -75.5t79 -103.5t49 -135t25 -163t7 -194t-7 -194t-25 -163.5t-49 -135.5t-79 -103t-115.5 -75.5t-157.5 -44t-206 -15.5q-271 0 -488 44v592zM561 621v-313q36 -4 68 -4q48 0 87 7t68 17.5
t51 31t37 39t25 50.5t15.5 56t8 65.5t3 69t0.5 76.5t-0.5 76.5t-3 69t-8 65.5t-15.5 56t-25 50.5t-37 39t-51 31t-68 17.5t-87 7q-23 0 -68 -5v-272h192v-230h-192z" />
    <glyph glyph-name="Ntilde" unicode="&#xd1;" horiz-adv-x="1477" 
d="M421 1551q11 138 70 213.5t134 75.5q44 0 80 -18t55.5 -39.5t39 -39.5t33.5 -18q44 0 60 109h174q-11 -138 -70 -213t-134 -75q-43 0 -79 18t-55.5 39t-39 39t-33.5 18q-44 0 -61 -109h-174zM988 538v894h346v-1148q0 -299 -226 -299q-103 0 -168 52.5t-135 198.5
l-315 660v-896h-346v1149q0 297 225 297q96 0 166.5 -56.5t136.5 -193.5z" />
    <glyph glyph-name="Ograve" unicode="&#xd2;" horiz-adv-x="1370" 
d="M685 -15q-171 0 -283 40t-179.5 132t-95 225t-27.5 334t27.5 334t95 224.5t179.5 131.5t283 40t283 -40t179.5 -131.5t95 -224.5t27.5 -334t-27.5 -334t-95 -225t-179.5 -132t-283 -40zM685 307q32 0 58.5 6.5t46 16t34.5 29.5t25 36.5t16.5 49.5t10 55t5 66t2 70.5
t0.5 79.5v71.5t-1.5 64.5t-4 61t-7.5 52.5t-12.5 48t-18 38t-25 32.5t-33 22t-43 15.5t-53.5 4.5t-53.5 -4.5t-43 -15.5t-33 -22t-25 -32.5t-18 -38t-12.5 -48t-7.5 -52.5t-4 -61t-1.5 -64.5v-71.5q0 -53 0.5 -79.5t2 -70.5t5 -66t10 -55t16.5 -49.5t25 -36.5t34.5 -29.5
t46 -16t58.5 -6.5zM684 1824l201 -275h-290l-278 275h367z" />
    <glyph glyph-name="Oacute" unicode="&#xd3;" horiz-adv-x="1370" 
d="M685 -15q-171 0 -283 40t-179.5 132t-95 225t-27.5 334t27.5 334t95 224.5t179.5 131.5t283 40t283 -40t179.5 -131.5t95 -224.5t27.5 -334t-27.5 -334t-95 -225t-179.5 -132t-283 -40zM685 307q32 0 58.5 6.5t46 16t34.5 29.5t25 36.5t16.5 49.5t10 55t5 66t2 70.5
t0.5 79.5v71.5t-1.5 64.5t-4 61t-7.5 52.5t-12.5 48t-18 38t-25 32.5t-33 22t-43 15.5t-53.5 4.5t-53.5 -4.5t-43 -15.5t-33 -22t-25 -32.5t-18 -38t-12.5 -48t-7.5 -52.5t-4 -61t-1.5 -64.5v-71.5q0 -53 0.5 -79.5t2 -70.5t5 -66t10 -55t16.5 -49.5t25 -36.5t34.5 -29.5
t46 -16t58.5 -6.5zM495 1549l201 275h366l-278 -275h-289z" />
    <glyph glyph-name="Ocircumflex" unicode="&#xd4;" horiz-adv-x="1370" 
d="M685 -15q-171 0 -283 40t-179.5 132t-95 225t-27.5 334t27.5 334t95 224.5t179.5 131.5t283 40t283 -40t179.5 -131.5t95 -224.5t27.5 -334t-27.5 -334t-95 -225t-179.5 -132t-283 -40zM685 307q32 0 58.5 6.5t46 16t34.5 29.5t25 36.5t16.5 49.5t10 55t5 66t2 70.5
t0.5 79.5v71.5t-1.5 64.5t-4 61t-7.5 52.5t-12.5 48t-18 38t-25 32.5t-33 22t-43 15.5t-53.5 4.5t-53.5 -4.5t-43 -15.5t-33 -22t-25 -32.5t-18 -38t-12.5 -48t-7.5 -52.5t-4 -61t-1.5 -64.5v-71.5q0 -53 0.5 -79.5t2 -70.5t5 -66t10 -55t16.5 -49.5t25 -36.5t34.5 -29.5
t46 -16t58.5 -6.5zM777 1826l288 -278h-265l-114 119l-118 -119h-261l282 278h188z" />
    <glyph glyph-name="Otilde" unicode="&#xd5;" horiz-adv-x="1370" 
d="M834 1819h174q-11 -138 -70 -213t-134 -75q-43 0 -79 17.5t-55.5 39t-39 39t-33.5 17.5q-44 0 -61 -108h-173q11 138 70 213t134 75q44 0 80 -18t55 -39t38.5 -39t33.5 -18q44 0 60 109zM1270 716q0 -201 -27.5 -334t-95 -225t-179.5 -132t-283 -40t-283 40t-179.5 132
t-95 225t-27.5 334t27.5 334t95 224.5t179.5 131.5t283 40t283 -40t179.5 -131.5t95 -224.5t27.5 -334zM487 716q0 -53 0.5 -79.5t2 -70.5t5 -66t10 -55t16.5 -49.5t25 -36.5t34.5 -29.5t46 -16t58.5 -6.5t58.5 6.5t46 16t34.5 29.5t25 36.5t16.5 49.5t10 55t5 66t2 70.5
t0.5 79.5v71.5t-1.5 64.5t-4 61t-7.5 52.5t-12.5 48t-18 38t-25 32.5t-33 22t-43 15.5t-53.5 4.5t-53.5 -4.5t-43 -15.5t-33 -22t-25 -32.5t-18 -38t-12.5 -48t-7.5 -52.5t-4 -61t-1.5 -64.5v-71.5z" />
    <glyph glyph-name="Odieresis" unicode="&#xd6;" horiz-adv-x="1370" 
d="M465 1510q-69 0 -116 46.5t-47 115.5t47 115.5t116 46.5t114.5 -46.5t45.5 -115.5t-45.5 -115.5t-114.5 -46.5zM685 -15q-171 0 -283 40t-179.5 132t-95 225t-27.5 334t27.5 334t95 224.5t179.5 131.5t283 40t283 -40t179.5 -131.5t95 -224.5t27.5 -334t-27.5 -334
t-95 -225t-179.5 -132t-283 -40zM685 307q32 0 58.5 6.5t46 16t34.5 29.5t25 36.5t16.5 49.5t10 55t5 66t2 70.5t0.5 79.5v71.5t-1.5 64.5t-4 61t-7.5 52.5t-12.5 48t-18 38t-25 32.5t-33 22t-43 15.5t-53.5 4.5t-53.5 -4.5t-43 -15.5t-33 -22t-25 -32.5t-18 -38t-12.5 -48
t-7.5 -52.5t-4 -61t-1.5 -64.5v-71.5q0 -53 0.5 -79.5t2 -70.5t5 -66t10 -55t16.5 -49.5t25 -36.5t34.5 -29.5t46 -16t58.5 -6.5zM911 1510q-69 0 -116 46.5t-47 115.5t47 115.5t116 46.5t114.5 -46.5t45.5 -115.5t-45.5 -115.5t-114.5 -46.5z" />
    <glyph glyph-name="multiply" unicode="&#xd7;" horiz-adv-x="1064" 
d="M719 603l270 -271l-185 -188l-272 271l-271 -271l-185 187l270 270l-271 272l189 185l269 -270l271 271l183 -187z" />
    <glyph glyph-name="Oslash" unicode="&#xd8;" horiz-adv-x="1370" 
d="M1221 1473l-93 -174q76 -85 109 -227t33 -356q0 -201 -27.5 -334t-95 -225t-179.5 -132t-283 -40q-138 0 -240 27l-96 -182l-200 129l92 174q-76 84 -108.5 226t-32.5 357q0 201 27.5 334t95 224.5t179.5 131.5t283 40q138 0 240 -27l96 182zM685 1126q-29 0 -53.5 -4.5
t-43 -15.5t-33 -22t-25 -32.5t-18 -38t-12.5 -48t-7.5 -52.5t-4 -61t-1.5 -64.5v-71.5q0 -83 1 -118h1l274 517q-35 11 -78 11zM881 831l-273 -513q35 -11 77 -11q32 0 58.5 6.5t46 16t34.5 29.5t25 36.5t16.5 49.5t10 55t5 66t2 70.5t0.5 79.5q0 81 -1 115h-1z" />
    <glyph glyph-name="Ugrave" unicode="&#xd9;" horiz-adv-x="1375" 
d="M1238 1432v-934q0 -120 -26 -209.5t-71.5 -147t-116.5 -93t-152 -49.5t-186 -14q-133 0 -229 23.5t-171.5 80t-113.5 158.5t-38 251v934h377v-950q0 -96 37.5 -133t137.5 -37q98 0 136 37t38 133v950h378zM681 1815l201 -276h-290l-277 276h366z" />
    <glyph glyph-name="Uacute" unicode="&#xda;" horiz-adv-x="1375" 
d="M1238 1432v-934q0 -120 -26 -209.5t-71.5 -147t-116.5 -93t-152 -49.5t-186 -14q-133 0 -229 23.5t-171.5 80t-113.5 158.5t-38 251v934h377v-950q0 -96 37.5 -133t137.5 -37q98 0 136 37t38 133v950h378zM501 1539l201 276h367l-279 -276h-289z" />
    <glyph glyph-name="Ucircumflex" unicode="&#xdb;" horiz-adv-x="1375" 
d="M1238 1432v-934q0 -120 -26 -209.5t-71.5 -147t-116.5 -93t-152 -49.5t-186 -14q-133 0 -229 23.5t-171.5 80t-113.5 158.5t-38 251v934h377v-950q0 -96 37.5 -133t137.5 -37q98 0 136 37t38 133v950h378zM787 1816l288 -277h-265l-114 118l-118 -118h-262l283 277h188z
" />
    <glyph glyph-name="Udieresis" unicode="&#xdc;" horiz-adv-x="1375" 
d="M1238 1432v-934q0 -120 -26 -209.5t-71.5 -147t-116.5 -93t-152 -49.5t-186 -14q-133 0 -229 23.5t-171.5 80t-113.5 158.5t-38 251v934h377v-950q0 -96 37.5 -133t137.5 -37q98 0 136 37t38 133v950h378zM463 1515q-69 0 -116 46.5t-47 115.5t47 115t116 46t115 -46
t46 -115t-46 -115.5t-115 -46.5zM909 1515q-68 0 -115 46.5t-47 115.5t46.5 115t115.5 46t115 -46t46 -115t-46 -115.5t-115 -46.5z" />
    <glyph glyph-name="Yacute" unicode="&#xdd;" horiz-adv-x="1305" 
d="M844 549v-549h-382v549l-463 883h413l242 -497l252 497h400zM476 1533l201 275h367l-278 -275h-290z" />
    <glyph glyph-name="Thorn" unicode="&#xde;" horiz-adv-x="1246" 
d="M498 1432v-217q68 2 105 2q76 0 136.5 -4.5t123 -17.5t110 -34t90 -56.5t69.5 -83t43 -114.5t16 -151q0 -113 -28 -196t-76 -134.5t-123.5 -82.5t-158 -42.5t-190.5 -11.5q-32 0 -117 5v-294h-381v1432h381zM610 911q-62 0 -112 -7v-302q36 -5 108 -5q105 0 156 34.5
t51 124.5q0 86 -43.5 120.5t-159.5 34.5z" />
    <glyph glyph-name="germandbls" unicode="&#xdf;" horiz-adv-x="1384" 
d="M881 270q31 0 60 17t29 57q0 30 -21 50.5t-54 32.5t-73.5 24.5t-81 34.5t-73.5 54t-54 90t-21 137q0 59 22 106.5t55 76t71.5 55t71.5 45.5t55 45t22 56q0 38 -49 60.5t-135 22.5q-122 0 -173 -62t-51 -221v-951h-362v951q0 313 133 447t441 134q281 0 419 -104.5
t138 -276.5q0 -64 -22 -116t-55 -83.5t-72 -59t-72 -45.5t-55 -40t-22 -46q0 -28 21 -47t55 -31t74.5 -25t81.5 -35t75 -54t55 -89t21 -133q0 -98 -31 -169.5t-87.5 -112.5t-128 -60.5t-161.5 -19.5q-76 0 -184.5 16t-189.5 40l34 266q178 -37 294 -37z" />
    <glyph glyph-name="agrave" unicode="&#xe0;" horiz-adv-x="1126" 
d="M514 -15q-234 0 -338.5 89t-104.5 277q0 154 75.5 243t246.5 118q96 16 269 24q0 49 -30 66.5t-101 17.5q-171 0 -400 -30l-29 273q251 46 446 46q80 0 145 -10t126 -35.5t102.5 -66t66 -106t24.5 -151.5v-417q0 -124 -9 -224q-185 -114 -489 -114zM662 424v76
q-105 -8 -153 -21q-47 -12 -66 -37t-19 -87q0 -49 29.5 -69.5t86.5 -20.5q68 0 115 12q7 62 7 147zM184 1566h343l188 -340h-271z" />
    <glyph glyph-name="aacute" unicode="&#xe1;" horiz-adv-x="1126" 
d="M514 -15q-234 0 -338.5 89t-104.5 277q0 154 75.5 243t246.5 118q96 16 269 24q0 49 -30 66.5t-101 17.5q-171 0 -400 -30l-29 273q251 46 446 46q80 0 145 -10t126 -35.5t102.5 -66t66 -106t24.5 -151.5v-417q0 -124 -9 -224q-185 -114 -489 -114zM662 424v76
q-105 -8 -153 -21q-47 -12 -66 -37t-19 -87q0 -49 29.5 -69.5t86.5 -20.5q68 0 115 12q7 62 7 147zM668 1224h-271l188 340h343z" />
    <glyph glyph-name="acircumflex" unicode="&#xe2;" horiz-adv-x="1126" 
d="M514 -15q-234 0 -338.5 89t-104.5 277q0 154 75.5 243t246.5 118q96 16 269 24q0 49 -30 66.5t-101 17.5q-171 0 -400 -30l-29 273q251 46 446 46q80 0 145 -10t126 -35.5t102.5 -66t66 -106t24.5 -151.5v-417q0 -124 -9 -224q-185 -114 -489 -114zM662 424v76
q-105 -8 -153 -21q-47 -12 -66 -37t-19 -87q0 -49 29.5 -69.5t86.5 -20.5q68 0 115 12q7 62 7 147zM569 1363l-110 -146h-245l265 342h175l270 -342h-248z" />
    <glyph glyph-name="atilde" unicode="&#xe3;" horiz-adv-x="1126" 
d="M514 -15q-234 0 -338.5 89t-104.5 277q0 154 75.5 243t246.5 118q96 16 269 24q0 49 -30 66.5t-101 17.5q-171 0 -400 -30l-29 273q251 46 446 46q80 0 145 -10t126 -35.5t102.5 -66t66 -106t24.5 -151.5v-417q0 -124 -9 -224q-185 -114 -489 -114zM417 1246h-174
q11 144 70 222.5t134 78.5q44 0 80 -18.5t55.5 -41t39 -41t33.5 -18.5q44 0 60 113h174q-11 -144 -70 -222t-134 -78q-43 0 -79 18.5t-55.5 40.5t-39 40.5t-33.5 18.5q-44 0 -61 -113zM424 355q0 -49 29.5 -69.5t86.5 -20.5q68 0 115 12q7 62 7 147v76q-105 -8 -153 -21
q-47 -12 -66 -37t-19 -87z" />
    <glyph glyph-name="adieresis" unicode="&#xe4;" horiz-adv-x="1126" 
d="M514 -15q-234 0 -338.5 89t-104.5 277q0 154 75.5 243t246.5 118q96 16 269 24q0 49 -30 66.5t-101 17.5q-171 0 -400 -30l-29 273q251 46 446 46q80 0 145 -10t126 -35.5t102.5 -66t66 -106t24.5 -151.5v-417q0 -124 -9 -224q-185 -114 -489 -114zM662 424v76
q-105 -8 -153 -21q-47 -12 -66 -37t-19 -87q0 -49 29.5 -69.5t86.5 -20.5q68 0 115 12q7 62 7 147zM507 1385q0 -69 -45.5 -115.5t-114.5 -46.5t-116 46.5t-47 115.5t47 115.5t116 46.5t114.5 -46.5t45.5 -115.5zM953 1385q0 -69 -45.5 -115.5t-114.5 -46.5t-116 46.5
t-47 115.5t47 115.5t116 46.5t114.5 -46.5t45.5 -115.5z" />
    <glyph glyph-name="aring" unicode="&#xe5;" horiz-adv-x="1126" 
d="M514 -15q-234 0 -338.5 89t-104.5 277q0 154 75.5 243t246.5 118q96 16 269 24q0 49 -30 66.5t-101 17.5q-171 0 -400 -30l-29 273q251 46 446 46q80 0 145 -10t126 -35.5t102.5 -66t66 -106t24.5 -151.5v-417q0 -124 -9 -224q-185 -114 -489 -114zM662 424v76
q-105 -8 -153 -21q-47 -12 -66 -37t-19 -87q0 -49 29.5 -69.5t86.5 -20.5q68 0 115 12q7 62 7 147zM780 1419q0 -91 -64 -155.5t-156 -64.5q-91 0 -155.5 64.5t-64.5 155.5t64.5 155.5t155.5 64.5t155.5 -64.5t64.5 -155.5zM466 1419q0 -39 27.5 -66.5t66.5 -27.5t66.5 27.5
t27.5 66.5t-27.5 66.5t-66.5 27.5t-66.5 -27.5t-27.5 -66.5z" />
    <glyph glyph-name="ae" unicode="&#xe6;" horiz-adv-x="1735" 
d="M548 1109q198 0 308 -63q111 63 305 63q101 0 178.5 -17t131 -52t89 -80.5t55 -111.5t27.5 -135.5t8 -160.5q0 -34 -4 -102q-195 -38 -475 -55l-152 -9q3 -62 44 -85t141 -23q159 0 399 30l30 -276q-270 -47 -493 -47q-159 0 -261 55q-150 -55 -365 -55q-234 0 -338.5 89
t-104.5 277q0 154 75.5 243t246.5 118q96 16 269 24q0 49 -30 66.5t-101 17.5q-171 0 -400 -30l-29 273q251 46 446 46zM662 424v76q-105 -8 -153 -21q-47 -12 -66 -37t-19 -87q0 -49 29.5 -69.5t86.5 -20.5q68 0 115 12q7 62 7 147zM1291 681q0 73 -30.5 109t-99.5 36
q-49 0 -81 -13.5t-47 -42t-20 -59t-5 -77.5l116 6q108 6 165 15q2 16 2 26z" />
    <glyph glyph-name="ccedilla" unicode="&#xe7;" horiz-adv-x="979" 
d="M907 1059l-29 -262q-149 32 -217 32q-70 0 -111.5 -13t-64.5 -48t-30 -82t-7 -130q0 -48 1 -77t5.5 -63t13.5 -53t24.5 -38.5t38.5 -29t56 -15.5t77 -6q75 0 215 31l30 -271q-106 -31 -241 -42l-63 -98q64 -12 108 -52t44 -98q0 -64 -37.5 -106.5t-92.5 -60t-125 -17.5
q-101 0 -189 52l45 122q77 -39 141 -39q53 0 53 46q0 20 -18.5 33.5t-48.5 20t-56.5 9t-53.5 2.5l107 180q-100 4 -173.5 39.5t-115 87t-66.5 128.5t-32.5 149.5t-7.5 165.5q0 114 12 196t44.5 152.5t87.5 113.5t142 67t208 24q180 0 326 -50z" />
    <glyph glyph-name="egrave" unicode="&#xe8;" 
d="M560 -15q-111 0 -195.5 28t-138 76t-87 120.5t-46.5 154t-13 183.5q0 302 112.5 432t388.5 130q101 0 178.5 -17t131 -52t88.5 -80.5t54.5 -111.5t27.5 -135.5t8 -160.5q0 -34 -4 -102q-195 -38 -475 -55l-152 -9q3 -62 44 -85t141 -23q159 0 399 30l30 -276
q-270 -47 -492 -47zM428 634l115 6q108 6 165 15q2 16 2 26q0 74 -30 109.5t-99 35.5q-49 0 -81 -13.5t-47 -42t-20 -59t-5 -77.5zM251 1566h343l188 -340h-271z" />
    <glyph glyph-name="eacute" unicode="&#xe9;" 
d="M560 -15q-111 0 -195.5 28t-138 76t-87 120.5t-46.5 154t-13 183.5q0 302 112.5 432t388.5 130q101 0 178.5 -17t131 -52t88.5 -80.5t54.5 -111.5t27.5 -135.5t8 -160.5q0 -34 -4 -102q-195 -38 -475 -55l-152 -9q3 -62 44 -85t141 -23q159 0 399 30l30 -276
q-270 -47 -492 -47zM428 634l115 6q108 6 165 15q2 16 2 26q0 74 -30 109.5t-99 35.5q-49 0 -81 -13.5t-47 -42t-20 -59t-5 -77.5zM707 1221h-271l188 340h343z" />
    <glyph glyph-name="ecircumflex" unicode="&#xea;" 
d="M560 -15q-111 0 -195.5 28t-138 76t-87 120.5t-46.5 154t-13 183.5q0 302 112.5 432t388.5 130q101 0 178.5 -17t131 -52t88.5 -80.5t54.5 -111.5t27.5 -135.5t8 -160.5q0 -34 -4 -102q-195 -38 -475 -55l-152 -9q3 -62 44 -85t141 -23q159 0 399 30l30 -276
q-270 -47 -492 -47zM428 634l115 6q108 6 165 15q2 16 2 26q0 74 -30 109.5t-99 35.5q-49 0 -81 -13.5t-47 -42t-20 -59t-5 -77.5zM594 1363l-110 -146h-244l264 342h176l269 -342h-248z" />
    <glyph glyph-name="edieresis" unicode="&#xeb;" 
d="M560 -15q-111 0 -195.5 28t-138 76t-87 120.5t-46.5 154t-13 183.5q0 302 112.5 432t388.5 130q101 0 178.5 -17t131 -52t88.5 -80.5t54.5 -111.5t27.5 -135.5t8 -160.5q0 -34 -4 -102q-195 -38 -475 -55l-152 -9q3 -62 44 -85t141 -23q159 0 399 30l30 -276
q-270 -47 -492 -47zM543 1385q0 -69 -45.5 -115.5t-114.5 -46.5t-116 46.5t-47 115.5t47 115.5t116 46.5t114.5 -46.5t45.5 -115.5zM428 634l115 6q108 6 165 15q2 16 2 26q0 74 -30 109.5t-99 35.5q-49 0 -81 -13.5t-47 -42t-20 -59t-5 -77.5zM989 1385q0 -69 -45.5 -115.5
t-114.5 -46.5t-116 46.5t-47 115.5t47 115.5t116 46.5t114.5 -46.5t45.5 -115.5z" />
    <glyph glyph-name="igrave" unicode="&#xec;" horiz-adv-x="627" 
d="M495 0h-363v1094h363v-1094zM274 1580l188 -340h-271l-260 340h343z" />
    <glyph glyph-name="iacute" unicode="&#xed;" horiz-adv-x="627" 
d="M495 0h-363v1094h363v-1094zM165 1240l188 340h343l-260 -340h-271z" />
    <glyph glyph-name="icircumflex" unicode="&#xee;" horiz-adv-x="627" 
d="M399 1587l270 -341h-248l-107 146l-110 -146h-245l265 341h175zM495 0h-363v1094h363v-1094z" />
    <glyph glyph-name="idieresis" unicode="&#xef;" horiz-adv-x="627" 
d="M92 1233q-69 0 -116 46t-47 115t47 115.5t116 46.5t115 -46.5t46 -115.5t-46 -115t-115 -46zM538 1233q-69 0 -116 46t-47 115t47 115.5t116 46.5t115 -46.5t46 -115.5t-46 -115t-115 -46zM495 0h-363v1094h363v-1094z" />
    <glyph glyph-name="eth" unicode="&#xf0;" horiz-adv-x="1156" 
d="M748 1451l172 64l99 -156l-155 -58q207 -322 207 -754q0 -306 -112.5 -434t-385.5 -128t-385 127.5t-112 434.5q0 291 111.5 414t382.5 124q31 0 54 -5q-22 46 -66 108l-168 -61l-99 157l144 52q-40 43 -89 90l323 106q39 -36 79 -81zM573 790q-85 0 -111.5 -49
t-26.5 -194q0 -162 26 -214t112 -52q87 0 113 52t26 214q0 144 -27 193.5t-112 49.5z" />
    <glyph glyph-name="ntilde" unicode="&#xf1;" horiz-adv-x="1185" 
d="M117 0v772q0 123 9 223q185 114 480 114q87 0 156 -10.5t117.5 -28.5t83 -48t55.5 -62.5t32.5 -79t15.5 -91t4 -104.5v-685h-357v662q0 86 -26 119t-106 34q-55 0 -100 -12q-7 -62 -7 -147v-656h-357zM751 1547h174q-11 -144 -70 -222t-134 -78q-43 0 -79 18.5
t-55.5 40.5t-39 40.5t-33.5 18.5q-44 0 -61 -113h-173q11 144 70 222.5t134 78.5q44 0 80 -18.5t55 -41t38.5 -41t33.5 -18.5q44 0 60 113z" />
    <glyph glyph-name="ograve" unicode="&#xf2;" 
d="M578 -15q-273 0 -385.5 128t-112.5 434q0 305 112.5 433.5t385.5 128.5t385 -128t112 -434q0 -307 -112 -434.5t-385 -127.5zM578 281q86 0 112 52t26 214q0 161 -26 214t-112 53t-112.5 -53t-26.5 -214q0 -162 26.5 -214t112.5 -52zM576 1566l188 -340h-271l-260 340
h343z" />
    <glyph glyph-name="oacute" unicode="&#xf3;" 
d="M578 -15q-273 0 -385.5 128t-112.5 434q0 305 112.5 433.5t385.5 128.5t385 -128t112 -434q0 -307 -112 -434.5t-385 -127.5zM578 281q86 0 112 52t26 214q0 161 -26 214t-112 53t-112.5 -53t-26.5 -214q0 -162 26.5 -214t112.5 -52zM400 1234l188 340h343l-260 -340
h-271z" />
    <glyph glyph-name="ocircumflex" unicode="&#xf4;" 
d="M578 -15q-273 0 -385.5 128t-112.5 434q0 305 112.5 433.5t385.5 128.5t385 -128t112 -434q0 -307 -112 -434.5t-385 -127.5zM578 281q86 0 112 52t26 214q0 161 -26 214t-112 53t-112.5 -53t-26.5 -214q0 -162 26.5 -214t112.5 -52zM664 1565l269 -342h-247l-107 147
l-110 -147h-245l264 342h176z" />
    <glyph glyph-name="otilde" unicode="&#xf5;" 
d="M727 1535h174q-11 -144 -70 -222.5t-134 -78.5q-43 0 -79 18.5t-55.5 41t-39 41t-33.5 18.5q-44 0 -61 -113h-174q11 144 70 222t134 78q44 0 80 -18.5t55.5 -40.5t39 -40.5t33.5 -18.5q44 0 60 113zM1075 547q0 -307 -112 -434.5t-385 -127.5t-385.5 128t-112.5 434
q0 305 112.5 433.5t385.5 128.5t385 -128t112 -434zM439 547q0 -162 26.5 -214t112.5 -52t112 52t26 214q0 161 -26 214t-112 53t-112.5 -53t-26.5 -214z" />
    <glyph glyph-name="odieresis" unicode="&#xf6;" 
d="M357 1223q-69 0 -116 46.5t-47 115.5t47 115.5t116 46.5t114.5 -46.5t45.5 -115.5t-45.5 -115.5t-114.5 -46.5zM578 -15q-273 0 -385.5 128t-112.5 434q0 305 112.5 433.5t385.5 128.5t385 -128t112 -434q0 -307 -112 -434.5t-385 -127.5zM578 281q86 0 112 52t26 214
q0 161 -26 214t-112 53t-112.5 -53t-26.5 -214q0 -162 26.5 -214t112.5 -52zM803 1223q-69 0 -116 46.5t-47 115.5t47 115.5t116 46.5t114.5 -46.5t45.5 -115.5t-45.5 -115.5t-114.5 -46.5z" />
    <glyph glyph-name="divide" unicode="&#xf7;" horiz-adv-x="1166" 
d="M583 17q-73 0 -125 51.5t-52 125.5t51.5 126t125.5 52t126 -52t52 -126t-52 -125.5t-126 -51.5zM583 831q-74 0 -125.5 51.5t-51.5 125.5t52 126t125 52q74 0 126 -52t52 -126t-52 -125.5t-126 -51.5zM75 461v281h1017v-281h-1017z" />
    <glyph glyph-name="oslash" unicode="&#xf8;" 
d="M1003 1159l-78 -141q79 -63 114.5 -178t35.5 -293q0 -307 -112 -434.5t-385 -127.5q-121 0 -211 24l-84 -152l-131 78l78 142q-79 63 -114.5 177t-35.5 293q0 305 112.5 433.5t385.5 128.5q125 0 210 -24l85 153zM442 460l193 347q-22 7 -57 7q-86 0 -112.5 -53
t-26.5 -214q0 -41 2 -87h1zM713 635l-192 -347q21 -7 57 -7q86 0 112 52t26 214q0 64 -2 87z" />
    <glyph glyph-name="ugrave" unicode="&#xf9;" horiz-adv-x="1181" 
d="M1061 1094v-771q0 -124 -9 -224q-185 -114 -478 -114q-87 0 -155 10.5t-116.5 28.5t-83 48t-55.5 62.5t-32.5 79t-15.5 91t-4 104.5v685h358v-662q0 -85 26.5 -119t103.5 -34q52 0 97 12q7 62 7 147v656h357zM570 1580l188 -340h-271l-260 340h343z" />
    <glyph glyph-name="uacute" unicode="&#xfa;" horiz-adv-x="1181" 
d="M1061 1094v-771q0 -124 -9 -224q-185 -114 -478 -114q-87 0 -155 10.5t-116.5 28.5t-83 48t-55.5 62.5t-32.5 79t-15.5 91t-4 104.5v685h358v-662q0 -85 26.5 -119t103.5 -34q52 0 97 12q7 62 7 147v656h357zM425 1252l188 340h343l-260 -340h-271z" />
    <glyph glyph-name="ucircumflex" unicode="&#xfb;" horiz-adv-x="1181" 
d="M1061 1094v-771q0 -124 -9 -224q-185 -114 -478 -114q-87 0 -155 10.5t-116.5 28.5t-83 48t-55.5 62.5t-32.5 79t-15.5 91t-4 104.5v685h358v-662q0 -85 26.5 -119t103.5 -34q52 0 97 12q7 62 7 147v656h357zM673 1599l270 -341h-248l-107 146l-110 -146h-245l265 341
h175z" />
    <glyph glyph-name="udieresis" unicode="&#xfc;" horiz-adv-x="1181" 
d="M1061 1094v-771q0 -124 -9 -224q-185 -114 -478 -114q-87 0 -155 10.5t-116.5 28.5t-83 48t-55.5 62.5t-32.5 79t-15.5 91t-4 104.5v685h358v-662q0 -85 26.5 -119t103.5 -34q52 0 97 12q7 62 7 147v656h357zM365 1246q-69 0 -116 46t-47 115t47 115.5t116 46.5
t114.5 -46.5t45.5 -115.5t-45.5 -115t-114.5 -46zM811 1246q-69 0 -116 46t-47 115t47 115.5t116 46.5t114.5 -46.5t45.5 -115.5t-45.5 -115t-114.5 -46z" />
    <glyph glyph-name="yacute" unicode="&#xfd;" horiz-adv-x="1188" 
d="M12 1094h383l216 -550l169 550h369l-509 -1497h-370l178 487zM436 1228l188 339h343l-260 -339h-271z" />
    <glyph glyph-name="thorn" unicode="&#xfe;" horiz-adv-x="1212" 
d="M468 1432v-332q68 9 142 9q133 0 224.5 -27.5t156 -92.5t94.5 -173.5t30 -268.5t-30 -268.5t-94.5 -173.5t-156 -92.5t-224.5 -27.5q-74 0 -142 9v-397h-360v1835h360zM552 818q-46 0 -84 -9v-523q38 -9 84 -9q56 0 95 14.5t60 35.5t32 60.5t13.5 72t2.5 87.5
q0 45 -1.5 73t-7.5 63.5t-19.5 56.5t-35.5 40.5t-57 28.5t-82 9z" />
    <glyph glyph-name="ydieresis" unicode="&#xff;" horiz-adv-x="1188" 
d="M378 1227q-69 0 -116 46.5t-47 115.5t47 115t116 46t114.5 -46t45.5 -115t-45.5 -115.5t-114.5 -46.5zM824 1227q-69 0 -116 46.5t-47 115.5t47 115t116 46t114.5 -46t45.5 -115t-45.5 -115.5t-114.5 -46.5zM12 1094h383l216 -550l169 550h369l-509 -1497h-370l178 487z
" />
    <glyph glyph-name="Abreve" unicode="&#x102;" horiz-adv-x="1392" 
d="M814 1821h190q-12 -122 -89 -198t-219 -76q-141 0 -218.5 76.5t-89.5 197.5h190q8 -46 38.5 -77t79.5 -31t80 31t38 77zM975 0l-85 297h-401l-81 -297h-394l407 1183q49 142 114.5 202.5t165.5 60.5q95 0 163 -64.5t114 -198.5l401 -1183h-404zM806 596l-120 426
l-116 -426h236z" />
    <glyph glyph-name="abreve" unicode="&#x103;" horiz-adv-x="1126" 
d="M514 -15q-234 0 -338.5 89t-104.5 277q0 154 75.5 243t246.5 118q96 16 269 24q0 49 -30 66.5t-101 17.5q-171 0 -400 -30l-29 273q251 46 446 46q80 0 145 -10t126 -35.5t102.5 -66t66 -106t24.5 -151.5v-417q0 -124 -9 -224q-185 -114 -489 -114zM662 424v76
q-105 -8 -153 -21q-47 -12 -66 -37t-19 -87q0 -49 29.5 -69.5t86.5 -20.5q68 0 115 12q7 62 7 147zM581 1418q50 0 80.5 35t37.5 88h190q-12 -140 -89 -227.5t-219 -87.5q-141 0 -218.5 87.5t-89.5 227.5h190q8 -53 38 -88t80 -35z" />
    <glyph glyph-name="Aogonek" unicode="&#x104;" horiz-adv-x="1392" 
d="M1379 0h-119q-133 -130 -133 -217q0 -36 15 -56.5t42 -20.5q69 0 119 39l45 -116q-41 -34 -96.5 -53.5t-106.5 -19.5q-96 0 -158.5 49.5t-62.5 134.5q0 68 45.5 137.5t106.5 122.5h-101l-85 297h-401l-81 -297h-394l407 1183q49 142 114.5 202.5t165.5 60.5
q95 0 163 -64.5t114 -198.5zM806 596l-120 426l-116 -426h236z" />
    <glyph glyph-name="aogonek" unicode="&#x105;" horiz-adv-x="1126" 
d="M1012 323q0 -124 -9 -224q-55 -33 -103 -52q-137 -131 -137 -220q0 -35 15 -55.5t42 -20.5q71 0 120 38l44 -115q-41 -34 -96.5 -53.5t-106.5 -19.5q-97 0 -159 49t-62 134q0 98 99 208q-66 -7 -145 -7q-234 0 -338.5 89t-104.5 277q0 154 75.5 243t246.5 118
q96 16 269 24q0 49 -30 66.5t-101 17.5q-171 0 -400 -30l-29 273q251 46 446 46q80 0 145 -10t126 -35.5t102.5 -66t66 -106t24.5 -151.5v-417zM662 424v76q-105 -8 -153 -21q-47 -12 -66 -37t-19 -87q0 -49 29.5 -69.5t86.5 -20.5q68 0 115 12q7 62 7 147z" />
    <glyph glyph-name="Cacute" unicode="&#x106;" horiz-adv-x="1168" 
d="M1078 340l35 -304q-167 -51 -406 -51q-121 0 -213 18.5t-159.5 58.5t-112 97.5t-71.5 142t-38.5 183.5t-11.5 231t11.5 231.5t38.5 183.5t71.5 141t112 97t159.5 58.5t213 18.5q236 0 406 -52l-33 -301q-162 28 -325 28q-53 0 -94.5 -11t-69.5 -27.5t-47.5 -47.5
t-30.5 -60.5t-16.5 -76.5t-7 -85t-1.5 -97q0 -47 0.5 -76.5t3.5 -69.5t8 -64.5t14 -55t23 -49t34 -37.5t46 -29.5t60.5 -17t77.5 -6.5q170 0 323 29zM768 1548h-289l201 276h366z" />
    <glyph glyph-name="cacute" unicode="&#x107;" horiz-adv-x="979" 
d="M907 1059l-29 -262q-149 32 -217 32q-70 0 -111.5 -13t-64.5 -48t-30 -82t-7 -130q0 -48 1 -77t5.5 -63t13.5 -53t24.5 -38.5t38.5 -29t56 -15.5t77 -6q75 0 215 31l30 -271q-177 -49 -398 -49q-78 0 -140.5 17t-106 46t-76 73t-51.5 91t-30.5 107.5t-15.5 115t-4 121.5
q0 114 12 196t44.5 152.5t87.5 113.5t142 67t208 24q180 0 326 -50zM618 1224h-271l188 340h342z" />
    <glyph glyph-name="Ccaron" unicode="&#x10c;" horiz-adv-x="1168" 
d="M1078 340l35 -304q-167 -51 -406 -51q-121 0 -213 18.5t-159.5 58.5t-112 97.5t-71.5 142t-38.5 183.5t-11.5 231t11.5 231.5t38.5 183.5t71.5 141t112 97t159.5 58.5t213 18.5q236 0 406 -52l-33 -301q-162 28 -325 28q-53 0 -94.5 -11t-69.5 -27.5t-47.5 -47.5
t-30.5 -60.5t-16.5 -76.5t-7 -85t-1.5 -97q0 -47 0.5 -76.5t3.5 -69.5t8 -64.5t14 -55t23 -49t34 -37.5t46 -29.5t60.5 -17t77.5 -6.5q170 0 323 29zM567 1548l-288 277h265l114 -119l118 119h262l-283 -277h-188z" />
    <glyph glyph-name="ccaron" unicode="&#x10d;" horiz-adv-x="979" 
d="M907 1059l-29 -262q-149 32 -217 32q-70 0 -111.5 -13t-64.5 -48t-30 -82t-7 -130q0 -48 1 -77t5.5 -63t13.5 -53t24.5 -38.5t38.5 -29t56 -15.5t77 -6q75 0 215 31l30 -271q-177 -49 -398 -49q-78 0 -140.5 17t-106 46t-76 73t-51.5 91t-30.5 107.5t-15.5 115t-4 121.5
q0 114 12 196t44.5 152.5t87.5 113.5t142 67t208 24q180 0 326 -50zM447 1225l-269 342h247l107 -146l110 146h245l-265 -342h-175z" />
    <glyph glyph-name="Dcaron" unicode="&#x10e;" horiz-adv-x="1369" 
d="M141 29v1371q220 46 488 46q116 0 206 -15.5t157.5 -43.5t115.5 -75.5t79 -103.5t49 -135t25 -163t7 -194t-7 -194t-25 -163.5t-49 -135.5t-79 -103t-115.5 -75.5t-157.5 -44t-206 -15.5q-271 0 -488 44zM524 1123v-815q36 -4 67 -4q48 0 87 7t68 17.5t51 31t37 39
t25 50.5t15.5 56t8 65.5t3 69t0.5 76.5t-0.5 76.5t-3 69t-8 65.5t-15.5 56t-25 50.5t-37 39t-51 31t-68 17.5t-87 7q-22 0 -67 -5zM560 1550l-288 277h265l114 -119l118 119h262l-283 -277h-188z" />
    <glyph glyph-name="dcaron" unicode="&#x10f;" horiz-adv-x="1225" 
d="M745 1100v417h361v-1194q0 -124 -9 -224q-90 -57 -213.5 -85.5t-249.5 -28.5q-146 0 -243.5 27t-165 92t-97.5 172.5t-30 270.5q0 160 30 268.5t94.5 173.5t156 92.5t224.5 27.5q75 0 142 -9zM745 809q-38 9 -84 9q-47 0 -82 -9t-57 -28.5t-35.5 -40.5t-19.5 -56.5
t-7.5 -63.5t-1.5 -73q0 -41 1 -65.5t6 -61t16.5 -58.5t30 -44t49.5 -32.5t73 -10.5q64 0 105 12q6 53 6 147v375zM1186 1078l98 439h272l-170 -439h-200z" />
    <glyph glyph-name="Dcroat" unicode="&#x110;" horiz-adv-x="1407" 
d="M179 621h-103v230h103v549q220 46 488 46q116 0 206 -15.5t157.5 -43.5t115.5 -75.5t79 -103.5t49 -135t25 -163t7 -194t-7 -194t-25 -163.5t-49 -135.5t-79 -103t-115.5 -75.5t-157.5 -44t-206 -15.5q-271 0 -488 44v592zM561 621v-313q36 -4 68 -4q48 0 87 7t68 17.5
t51 31t37 39t25 50.5t15.5 56t8 65.5t3 69t0.5 76.5t-0.5 76.5t-3 69t-8 65.5t-15.5 56t-25 50.5t-37 39t-51 31t-68 17.5t-87 7q-23 0 -68 -5v-272h192v-230h-192z" />
    <glyph glyph-name="dcroat" unicode="&#x111;" horiz-adv-x="1225" 
d="M1231 1205h-125v-882q0 -124 -9 -224q-90 -57 -213.5 -85.5t-249.5 -28.5q-146 0 -243.5 27t-165 92t-97.5 172.5t-30 270.5q0 160 30 268.5t94.5 173.5t156 92.5t224.5 27.5q75 0 142 -9v105h-196v189h196v123h361v-123h125v-189zM745 809q-38 9 -84 9q-47 0 -82 -9
t-57 -28.5t-35.5 -40.5t-19.5 -56.5t-7.5 -63.5t-1.5 -73q0 -41 1 -65.5t6 -61t16.5 -58.5t30 -44t49.5 -32.5t73 -10.5q64 0 105 12q6 53 6 147v375z" />
    <glyph glyph-name="Eogonek" unicode="&#x118;" horiz-adv-x="1218" 
d="M517 882h524v-310h-524v-125q0 -82 24 -108t104 -26h420v-303q-36 -2 -122 -6q-137 -131 -137 -220q0 -35 15 -55.5t42 -20.5q71 0 120 38l44 -115q-41 -34 -96.5 -53.5t-106.5 -19.5q-97 0 -159 49t-62 134q0 67 44 135t105 122q-82 -2 -101 -2q-53 0 -89.5 1t-84 5
t-80.5 11.5t-71.5 21t-64 32.5t-51.5 47.5t-40.5 65t-24 85t-9.5 107.5v690q0 59 9.5 107.5t24 84.5t40.5 64.5t51.5 47.5t64.5 32t71 20t80.5 11t84 5t89.5 1q225 0 414 -11v-305h-420q-80 0 -104 -25.5t-24 -106.5v-105z" />
    <glyph glyph-name="eogonek" unicode="&#x119;" 
d="M1022 308l30 -276q-105 -19 -188 -29q-129 -126 -129 -213q0 -35 15 -55.5t42 -20.5q70 0 119 38l45 -115q-41 -34 -96.5 -53.5t-106.5 -19.5q-97 0 -159 49t-62 134q0 115 130 241q-99 -3 -102 -3q-111 0 -195.5 28t-138 76t-87 120.5t-46.5 154t-13 183.5
q0 302 112.5 432t388.5 130q101 0 178.5 -17t131 -52t88.5 -80.5t54.5 -111.5t27.5 -135.5t8 -160.5q0 -34 -4 -102q-195 -38 -475 -55l-152 -9q3 -62 44 -85t141 -23q159 0 399 30zM581 826q-49 0 -81 -13.5t-47 -42t-20 -59t-5 -77.5l115 6q108 6 165 15q2 16 2 26
q0 74 -30 109.5t-99 35.5z" />
    <glyph glyph-name="Ecaron" unicode="&#x11a;" horiz-adv-x="1218" 
d="M517 882h524v-310h-524v-125q0 -82 24 -108t104 -26h420v-303q-258 -14 -414 -14q-53 0 -89.5 1t-84 5t-80.5 11.5t-71.5 21t-64 32.5t-51.5 47.5t-40.5 65t-24 85t-9.5 107.5v690q0 59 9.5 107.5t24 84.5t40.5 64.5t51.5 47.5t64.5 32t71 20t80.5 11t84 5t89.5 1
q225 0 414 -11v-305h-420q-80 0 -104 -25.5t-24 -106.5v-105zM1000 1821l-283 -277h-188l-288 277h265l115 -118l118 118h261z" />
    <glyph glyph-name="ecaron" unicode="&#x11b;" 
d="M560 -15q-111 0 -195.5 28t-138 76t-87 120.5t-46.5 154t-13 183.5q0 302 112.5 432t388.5 130q101 0 178.5 -17t131 -52t88.5 -80.5t54.5 -111.5t27.5 -135.5t8 -160.5q0 -34 -4 -102q-195 -38 -475 -55l-152 -9q3 -62 44 -85t141 -23q159 0 399 30l30 -276
q-270 -47 -492 -47zM428 634l115 6q108 6 165 15q2 16 2 26q0 74 -30 109.5t-99 35.5q-49 0 -81 -13.5t-47 -42t-20 -59t-5 -77.5zM489 1219l-269 342h248l107 -147l110 147h244l-264 -342h-176z" />
    <glyph glyph-name="Gbreve" unicode="&#x11e;" horiz-adv-x="1326" 
d="M669 542v298h545v-538q0 -50 -8.5 -90.5t-21.5 -71.5t-37 -54.5t-48 -40t-61 -28t-69.5 -17.5t-80.5 -9.5t-86.5 -4.5t-95.5 -1q-145 0 -248.5 28t-173 82t-110 145t-57.5 204t-17 272q0 133 11.5 233t38.5 184.5t72 141t112.5 96t159 57.5t212.5 18q268 0 484 -49
l-33 -298q-177 27 -403 27q-53 0 -94.5 -11t-69.5 -28t-47.5 -48t-30.5 -61t-16.5 -77.5t-7 -86t-1.5 -98.5q0 -61 1.5 -100t7 -87t16.5 -78t30 -61t47 -47.5t68.5 -27.5t93.5 -11q76 0 100.5 25t24.5 96v117h-207zM809 1818h190q-12 -122 -89 -198t-219 -76
q-141 0 -218.5 76.5t-89.5 197.5h190q8 -46 38.5 -77t79.5 -31t80 31t38 77z" />
    <glyph glyph-name="gbreve" unicode="&#x11f;" horiz-adv-x="1208" 
d="M725 19q-67 -9 -142 -9q-132 0 -224 27.5t-156.5 91t-94.5 169t-30 261.5q0 157 31.5 263.5t100 169.5t165.5 90t238 27q126 0 250 -28.5t214 -85.5q9 -100 9 -223v-814q0 -87 -25 -154t-67 -108.5t-104 -67.5t-128.5 -36t-147.5 -10q-201 0 -479 54l29 271
q253 -34 400 -34q161 0 161 146zM725 310v351q0 84 -7 146q-44 13 -105 13q-46 0 -79.5 -16.5t-51.5 -41t-28.5 -62t-13 -69t-2.5 -72.5q0 -35 1 -58.5t5.5 -53t12.5 -48.5t23 -39.5t36 -32t52.5 -19t72.5 -7.5q47 0 84 9zM616 1418q50 0 80.5 35t37.5 88h190
q-12 -140 -89 -227.5t-219 -87.5q-141 0 -218.5 87.5t-89.5 227.5h190q8 -53 38 -88t80 -35z" />
    <glyph glyph-name="Idotaccent" unicode="&#x130;" horiz-adv-x="664" 
d="M163 1682q0 71 49 119.5t120 48.5t119.5 -48.5t48.5 -119.5t-48.5 -120t-119.5 -49t-120 49t-49 120zM524 1432v-1432h-383v1432h383z" />
    <glyph glyph-name="dotlessi" unicode="&#x131;" horiz-adv-x="627" 
d="M495 0h-363v1094h363v-1094z" />
    <glyph glyph-name="Lacute" unicode="&#x139;" horiz-adv-x="1094" 
d="M1050 313v-304q-299 -13 -393 -13q-53 0 -89.5 1t-84 5t-80.5 11.5t-71.5 21t-64 32.5t-51.5 47.5t-40.5 65t-24 85t-9.5 107.5v1060h382v-985q0 -82 23.5 -108t104.5 -26h398zM480 1550h-290l201 275h367z" />
    <glyph glyph-name="lacute" unicode="&#x13a;" horiz-adv-x="610" 
d="M111 268v1249h360v-1208q0 -69 15 -119t53 -107l-324 -150q-104 125 -104 335zM435 1609h-289l201 275h366z" />
    <glyph glyph-name="Lcaron" unicode="&#x13d;" horiz-adv-x="1094" 
d="M1050 313v-304q-299 -13 -393 -13q-53 0 -89.5 1t-84 5t-80.5 11.5t-71.5 21t-64 32.5t-51.5 47.5t-40.5 65t-24 85t-9.5 107.5v1060h382v-985q0 -82 23.5 -108t104.5 -26h398zM753 1432h273l-171 -439h-199z" />
    <glyph glyph-name="lcaron" unicode="&#x13e;" horiz-adv-x="610" 
d="M111 268v1249h360v-1208q0 -69 15 -119t53 -107l-324 -150q-104 125 -104 335zM649 1517h273l-171 -439h-200z" />
    <glyph glyph-name="Lslash" unicode="&#x141;" horiz-adv-x="1178" 
d="M608 750v-303q0 -82 23.5 -108t104.5 -26h398v-304q-299 -13 -393 -13q-53 0 -89.5 1t-84 5t-80.5 11.5t-71.5 21t-64 32.5t-51.5 47.5t-40.5 65t-24 85t-9.5 107.5v127l-174 -114v250l174 114v683h382v-433l308 202v-249z" />
    <glyph glyph-name="lslash" unicode="&#x142;" horiz-adv-x="725" 
d="M726 959l-185 -140v-510q0 -69 15 -119t53 -107l-325 -150q-104 125 -104 335v279l-181 -135v258l181 136v711h361v-440l185 140v-258z" />
    <glyph glyph-name="Nacute" unicode="&#x143;" horiz-adv-x="1477" 
d="M988 538v894h346v-1148q0 -299 -226 -299q-103 0 -168 52.5t-135 198.5l-315 660v-896h-346v1149q0 297 225 297q96 0 166.5 -56.5t136.5 -193.5zM1129 1822l-278 -275h-289l201 275h366z" />
    <glyph glyph-name="nacute" unicode="&#x144;" horiz-adv-x="1185" 
d="M117 0v772q0 123 9 223q185 114 480 114q87 0 156 -10.5t117.5 -28.5t83 -48t55.5 -62.5t32.5 -79t15.5 -91t4 -104.5v-685h-357v662q0 86 -26 119t-106 34q-55 0 -100 -12q-7 -62 -7 -147v-656h-357zM422 1229l188 340h343l-260 -340h-271z" />
    <glyph glyph-name="Ncaron" unicode="&#x147;" horiz-adv-x="1477" 
d="M988 538v894h346v-1148q0 -299 -226 -299q-103 0 -168 52.5t-135 198.5l-315 660v-896h-346v1149q0 297 225 297q96 0 166.5 -56.5t136.5 -193.5zM834 1540h-188l-287 277h265l114 -119l118 119h262z" />
    <glyph glyph-name="ncaron" unicode="&#x148;" horiz-adv-x="1185" 
d="M117 0v772q0 123 9 223q185 114 480 114q87 0 156 -10.5t117.5 -28.5t83 -48t55.5 -62.5t32.5 -79t15.5 -91t4 -104.5v-685h-357v662q0 86 -26 119t-106 34q-55 0 -100 -12q-7 -62 -7 -147v-656h-357zM704 1565h244l-264 -342h-176l-269 342h248l107 -146z" />
    <glyph glyph-name="Ohungarumlaut" unicode="&#x150;" horiz-adv-x="1370" 
d="M685 -15q-171 0 -283 40t-179.5 132t-95 225t-27.5 334t27.5 334t95 224.5t179.5 131.5t283 40t283 -40t179.5 -131.5t95 -224.5t27.5 -334t-27.5 -334t-95 -225t-179.5 -132t-283 -40zM685 307q32 0 58.5 6.5t46 16t34.5 29.5t25 36.5t16.5 49.5t10 55t5 66t2 70.5
t0.5 79.5v71.5t-1.5 64.5t-4 61t-7.5 52.5t-12.5 48t-18 38t-25 32.5t-33 22t-43 15.5t-53.5 4.5t-53.5 -4.5t-43 -15.5t-33 -22t-25 -32.5t-18 -38t-12.5 -48t-7.5 -52.5t-4 -61t-1.5 -64.5v-71.5q0 -53 0.5 -79.5t2 -70.5t5 -66t10 -55t16.5 -49.5t25 -36.5t34.5 -29.5
t46 -16t58.5 -6.5zM283 1554l191 275h359l-266 -275h-284zM743 1554l192 275h358l-266 -275h-284z" />
    <glyph glyph-name="ohungarumlaut" unicode="&#x151;" 
d="M578 -15q-273 0 -385.5 128t-112.5 434q0 305 112.5 433.5t385.5 128.5t385 -128t112 -434q0 -307 -112 -434.5t-385 -127.5zM578 281q86 0 112 52t26 214q0 161 -26 214t-112 53t-112.5 -53t-26.5 -214q0 -162 26.5 -214t112.5 -52zM183 1242l178 340h335l-247 -340
h-266zM613 1242l179 340h334l-247 -340h-266z" />
    <glyph glyph-name="OE" unicode="&#x152;" horiz-adv-x="1965" 
d="M1812 1119h-420q-80 0 -104 -25.5t-24 -106.5v-105h523v-310h-523v-125q0 -82 24 -108t104 -26h420v-303q-258 -14 -414 -14q-128 0 -215.5 11t-152.5 48q-128 -70 -345 -70q-171 0 -283 40t-179.5 132t-95 225t-27.5 334t27.5 334t95 224.5t179.5 131.5t283 40
q221 0 344 -68q65 36 151 46.5t218 10.5q225 0 414 -11v-305zM685 1126q-29 0 -53.5 -4.5t-43 -15.5t-33 -22t-25 -32.5t-18 -38t-12.5 -48t-7.5 -52.5t-4 -61t-1.5 -64.5v-71.5q0 -53 0.5 -79.5t2 -70.5t5 -66t10 -55t16.5 -49.5t25 -36.5t34.5 -29.5t46 -16t58.5 -6.5
t58.5 6.5t46 16t34.5 29.5t25 36.5t16.5 49.5t10 55t5 66t2 70.5t0.5 79.5v71.5t-1.5 64.5t-4 61t-7.5 52.5t-12.5 48t-18 38t-25 32.5t-33 22t-43 15.5t-53.5 4.5z" />
    <glyph glyph-name="oe" unicode="&#x153;" horiz-adv-x="1791" 
d="M1226 395l-152 -9q3 -62 44 -85t141 -23q159 0 399 30l30 -276q-270 -47 -492 -47q-184 0 -295 75q-111 -75 -323 -75q-273 0 -385.5 128t-112.5 434q0 305 112.5 433.5t385.5 128.5q208 0 319 -72q113 72 320 72q101 0 178.5 -17t131 -52t88.5 -80.5t54.5 -111.5
t27.5 -135.5t8 -160.5q0 -34 -4 -102q-195 -38 -475 -55zM716 547q0 161 -26 214t-112 53t-112.5 -53t-26.5 -214q0 -162 26.5 -214t112.5 -52t112 52t26 214zM1064 634l115 6q108 6 165 15q2 16 2 26q0 74 -30 109.5t-99 35.5q-49 0 -81 -13.5t-47 -42t-20 -59t-5 -77.5z
" />
    <glyph glyph-name="Racute" unicode="&#x154;" horiz-adv-x="1346" 
d="M523 508v-508h-381v1402q222 44 485 44q89 0 158 -7t139.5 -25t120.5 -51.5t90 -84t60 -126.5t20 -174q0 -170 -58 -270.5t-169 -148.5l313 -559h-432l-269 504q-53 2 -77 4zM523 1133v-315q45 -5 108 -5q105 0 156 36t51 130q0 87 -44 124t-159 37q-62 0 -112 -7z
M764 1550h-290l201 276h367z" />
    <glyph glyph-name="racute" unicode="&#x155;" horiz-adv-x="767" 
d="M473 0h-357v772q0 123 9 223q90 57 214 85.5t250 28.5q75 0 130 -8l-29 -292q-50 5 -69 5q-84 0 -142 -28q-6 -66 -6 -147v-639zM416 1570h343l-260 -340h-271z" />
    <glyph glyph-name="Rcaron" unicode="&#x158;" horiz-adv-x="1346" 
d="M523 508v-508h-381v1402q222 44 485 44q89 0 158 -7t139.5 -25t120.5 -51.5t90 -84t60 -126.5t20 -174q0 -170 -58 -270.5t-169 -148.5l313 -559h-432l-269 504q-53 2 -77 4zM523 1133v-315q45 -5 108 -5q105 0 156 36t51 130q0 87 -44 124t-159 37q-62 0 -112 -7z
M577 1550l-288 277h265l115 -119l118 119h261l-283 -277h-188z" />
    <glyph glyph-name="rcaron" unicode="&#x159;" horiz-adv-x="767" 
d="M473 0h-357v772q0 123 9 223q90 57 214 85.5t250 28.5q75 0 130 -8l-29 -292q-50 5 -69 5q-84 0 -142 -28q-6 -66 -6 -147v-639zM778 1565l-264 -342h-176l-269 342h247l107 -146l110 146h245z" />
    <glyph glyph-name="Sacute" unicode="&#x15a;" horiz-adv-x="1157" 
d="M506 300q93 0 134.5 27.5t41.5 90.5q0 56 -39.5 86t-142.5 62q-84 26 -142.5 51.5t-113 62.5t-87 82t-51.5 108.5t-19 144.5q0 121 34 205t103.5 133.5t164.5 71t227 21.5q222 0 442 -54l-35 -291q-209 37 -338 37q-38 0 -63 -1t-57 -7t-51 -16t-32.5 -29.5t-13.5 -47.5
q0 -60 42 -85t169 -59q223 -60 308.5 -162.5t85.5 -295.5q0 -240 -137.5 -345t-409.5 -105q-215 0 -446 52l37 300q231 -37 389 -37zM715 1555h-289l201 275h367z" />
    <glyph glyph-name="sacute" unicode="&#x15b;" horiz-adv-x="1010" 
d="M443 267q25 0 40.5 0.5t35 4t30.5 9.5t18.5 17t7.5 27q0 14 -6 25t-13.5 17.5t-22.5 13.5t-26 10.5t-32.5 9t-32.5 9.5q-57 18 -98 34t-91.5 46t-82 65.5t-53.5 91.5t-22 124q0 338 404 338q214 0 429 -53l-33 -260q-168 37 -288 37q-39 0 -60 -1t-46.5 -6t-37 -16.5
t-11.5 -30.5q0 -15 7 -26.5t24.5 -20.5t31 -14t45 -15t47.5 -15q133 -45 177 -69q111 -61 139 -176q12 -48 12 -108q0 -80 -22.5 -141t-61.5 -100t-96 -64t-120.5 -35t-140.5 -10q-230 0 -418 56l34 266q192 -40 313 -40h20zM634 1236h-271l188 340h343z" />
    <glyph glyph-name="Scedilla" unicode="&#x15e;" horiz-adv-x="1157" 
d="M711 -1l-68 -105q64 -12 108 -52t44 -98q0 -64 -37.5 -106.5t-92.5 -60t-125 -17.5q-101 0 -189 52l45 122q77 -39 141 -39q53 0 53 46q0 20 -18.5 33.5t-48.5 20t-56.5 9t-53.5 2.5l106 179q-215 1 -439 52l37 300q231 -37 389 -37q93 0 134.5 27.5t41.5 90.5
q0 56 -39.5 86t-142.5 62q-84 26 -142.5 51.5t-113 62.5t-87 82t-51.5 108.5t-19 144.5q0 121 34 205t103.5 133.5t164.5 71t227 21.5q222 0 442 -54l-35 -291q-209 37 -338 37q-38 0 -63 -1t-57 -7t-51 -16t-32.5 -29.5t-13.5 -47.5q0 -60 42 -85t169 -59
q223 -60 308.5 -162.5t85.5 -295.5q0 -195 -91.5 -300t-270.5 -136z" />
    <glyph glyph-name="scedilla" unicode="&#x15f;" horiz-adv-x="1010" 
d="M645 -2l-67 -104q64 -12 108 -52.5t44 -98.5q0 -64 -37.5 -106.5t-92.5 -60t-125 -17.5q-101 0 -189 52l45 122q77 -39 141 -39q53 0 53 46q0 20 -18.5 33.5t-48.5 20t-56.5 9t-53.5 2.5l107 181q-216 7 -379 55l34 266q192 -40 313 -40h20q25 0 40.5 0.5t35 4t30.5 9.5
t18.5 17t7.5 27q0 14 -6 25t-13.5 17.5t-22.5 13.5t-26 10.5t-32.5 9t-32.5 9.5q-57 18 -98 34t-91.5 46t-82 65.5t-53.5 91.5t-22 124q0 338 404 338q214 0 429 -53l-33 -260q-168 37 -288 37q-39 0 -60 -1t-46.5 -6t-37 -16.5t-11.5 -30.5q0 -15 7 -26.5t24.5 -20.5
t31 -14t45 -15t47.5 -15q133 -45 177 -69q111 -61 139 -176q12 -48 12 -108q0 -286 -290 -337z" />
    <glyph glyph-name="Scaron" unicode="&#x160;" horiz-adv-x="1157" 
d="M506 300q93 0 134.5 27.5t41.5 90.5q0 56 -39.5 86t-142.5 62q-84 26 -142.5 51.5t-113 62.5t-87 82t-51.5 108.5t-19 144.5q0 121 34 205t103.5 133.5t164.5 71t227 21.5q222 0 442 -54l-35 -291q-209 37 -338 37q-38 0 -63 -1t-57 -7t-51 -16t-32.5 -29.5t-13.5 -47.5
q0 -60 42 -85t169 -59q223 -60 308.5 -162.5t85.5 -295.5q0 -240 -137.5 -345t-409.5 -105q-215 0 -446 52l37 300q231 -37 389 -37zM504 1554l-287 277h265l114 -118l118 118h262l-284 -277h-188z" />
    <glyph glyph-name="scaron" unicode="&#x161;" horiz-adv-x="1010" 
d="M443 267q25 0 40.5 0.5t35 4t30.5 9.5t18.5 17t7.5 27q0 14 -6 25t-13.5 17.5t-22.5 13.5t-26 10.5t-32.5 9t-32.5 9.5q-57 18 -98 34t-91.5 46t-82 65.5t-53.5 91.5t-22 124q0 338 404 338q214 0 429 -53l-33 -260q-168 37 -288 37q-39 0 -60 -1t-46.5 -6t-37 -16.5
t-11.5 -30.5q0 -15 7 -26.5t24.5 -20.5t31 -14t45 -15t47.5 -15q133 -45 177 -69q111 -61 139 -176q12 -48 12 -108q0 -80 -22.5 -141t-61.5 -100t-96 -64t-120.5 -35t-140.5 -10q-230 0 -418 56l34 266q192 -40 313 -40h20zM420 1225l-269 342h247l107 -146l110 146h245
l-265 -342h-175z" />
    <glyph glyph-name="uni0162" unicode="&#x162;" horiz-adv-x="1095" 
d="M33 1116v316h1029v-316h-325v-1116h-383v1116h-321zM680 -111l-160 -408h-185l91 408h254z" />
    <glyph glyph-name="uni0163" unicode="&#x163;" horiz-adv-x="870" 
d="M782 266l28 -256q-132 -25 -235 -25q-184 0 -269.5 81.5t-85.5 248.5v498h-164v281h164v251l357 58v-309h203v-281h-203v-452q0 -100 94 -100q62 0 111 5zM648 -119l-159 -408h-185l90 408h254z" />
    <glyph glyph-name="Tcaron" unicode="&#x164;" horiz-adv-x="1095" 
d="M33 1116v316h1029v-316h-325v-1116h-383v1116h-321zM665 1805h262l-283 -277h-188l-288 277h265l114 -119z" />
    <glyph glyph-name="tcaron" unicode="&#x165;" horiz-adv-x="870" 
d="M782 266l28 -256q-132 -25 -235 -25q-184 0 -269.5 81.5t-85.5 248.5v498h-164v281h164v251l357 58v-309h203v-281h-203v-452q0 -100 94 -100q62 0 111 5zM1044 1663l-171 -439h-200l98 439h273z" />
    <glyph glyph-name="Uring" unicode="&#x16e;" horiz-adv-x="1375" 
d="M1238 1432v-934q0 -120 -26 -209.5t-71.5 -147t-116.5 -93t-152 -49.5t-186 -14q-133 0 -229 23.5t-171.5 80t-113.5 158.5t-38 251v934h377v-950q0 -96 37.5 -133t137.5 -37q98 0 136 37t38 133v950h378zM686 1501q-91 0 -155.5 64.5t-64.5 155.5t64.5 155.5t155.5 64.5
t155.5 -64.5t64.5 -155.5t-64 -155.5t-156 -64.5zM686 1627q39 0 66.5 27.5t27.5 66.5t-27.5 66.5t-66.5 27.5t-66.5 -27.5t-27.5 -66.5t27.5 -66.5t66.5 -27.5z" />
    <glyph glyph-name="uring" unicode="&#x16f;" horiz-adv-x="1181" 
d="M1061 1094v-771q0 -124 -9 -224q-185 -114 -478 -114q-87 0 -155 10.5t-116.5 28.5t-83 48t-55.5 62.5t-32.5 79t-15.5 91t-4 104.5v685h358v-662q0 -85 26.5 -119t103.5 -34q52 0 97 12q7 62 7 147v656h357zM588 1184q-91 0 -155.5 65t-64.5 156t64.5 155.5t155.5 64.5
t155.5 -64.5t64.5 -155.5q0 -92 -64.5 -156.5t-155.5 -64.5zM588 1311q39 0 66.5 27.5t27.5 66.5t-27.5 66.5t-66.5 27.5t-66.5 -27.5t-27.5 -66.5t27.5 -66.5t66.5 -27.5z" />
    <glyph glyph-name="Uhungarumlaut" unicode="&#x170;" horiz-adv-x="1375" 
d="M1238 1432v-934q0 -120 -26 -209.5t-71.5 -147t-116.5 -93t-152 -49.5t-186 -14q-133 0 -229 23.5t-171.5 80t-113.5 158.5t-38 251v934h377v-950q0 -96 37.5 -133t137.5 -37q98 0 136 37t38 133v950h378zM271 1556l191 276h358l-265 -276h-284zM731 1556l192 276h358
l-266 -276h-284z" />
    <glyph glyph-name="uhungarumlaut" unicode="&#x171;" horiz-adv-x="1181" 
d="M1061 1094v-771q0 -124 -9 -224q-185 -114 -478 -114q-87 0 -155 10.5t-116.5 28.5t-83 48t-55.5 62.5t-32.5 79t-15.5 91t-4 104.5v685h358v-662q0 -85 26.5 -119t103.5 -34q52 0 97 12q7 62 7 147v656h357zM215 1258l178 340h335l-247 -340h-266zM645 1258l179 340h334
l-247 -340h-266z" />
    <glyph glyph-name="Ydieresis" unicode="&#x178;" horiz-adv-x="1305" 
d="M443 1509q-69 0 -116 46t-47 115t47 115.5t116 46.5t114.5 -46.5t45.5 -115.5t-45.5 -115t-114.5 -46zM889 1509q-69 0 -116 46t-47 115t47 115.5t116 46.5t115 -46.5t46 -115.5t-46 -115t-115 -46zM844 549v-549h-382v549l-463 883h413l242 -497l252 497h400z" />
    <glyph glyph-name="Zacute" unicode="&#x179;" horiz-adv-x="1173" 
d="M560 323h523v-323h-807q-106 0 -160.5 38t-54.5 111q0 58 41 128l492 834h-495v321h776q214 0 214 -149q0 -58 -41 -128zM967 1815l-278 -276h-290l201 276h367z" />
    <glyph glyph-name="zacute" unicode="&#x17a;" horiz-adv-x="1080" 
d="M962 852l-389 -554h402v-298h-757q-72 0 -113 34t-41 91q0 55 45 119l392 563h-398v287h750q70 0 111 -33.5t41 -90.5q0 -56 -43 -118zM568 1580h343l-260 -340h-271z" />
    <glyph glyph-name="Zdotaccent" unicode="&#x17b;" horiz-adv-x="1173" 
d="M560 323h523v-323h-807q-106 0 -160.5 38t-54.5 111q0 58 41 128l492 834h-495v321h776q214 0 214 -149q0 -58 -41 -128zM753 1682q0 -71 -48 -119.5t-119 -48.5t-120 48.5t-49 119.5t49 119.5t120 48.5t119 -48.5t48 -119.5z" />
    <glyph glyph-name="zdotaccent" unicode="&#x17c;" horiz-adv-x="1080" 
d="M962 852l-389 -554h402v-298h-757q-72 0 -113 34t-41 91q0 55 45 119l392 563h-398v287h750q70 0 111 -33.5t41 -90.5q0 -56 -43 -118zM549 1544q71 0 119 -48.5t48 -119.5t-48 -120t-119 -49t-120 49t-49 120t49 119.5t120 48.5z" />
    <glyph glyph-name="Zcaron" unicode="&#x17d;" horiz-adv-x="1173" 
d="M560 323h523v-323h-807q-106 0 -160.5 38t-54.5 111q0 58 41 128l492 834h-495v321h776q214 0 214 -149q0 -58 -41 -128zM691 1539h-188l-288 277h265l114 -119l118 119h262z" />
    <glyph glyph-name="zcaron" unicode="&#x17e;" horiz-adv-x="1080" 
d="M962 852l-389 -554h402v-298h-757q-72 0 -113 34t-41 91q0 55 45 119l392 563h-398v287h750q70 0 111 -33.5t41 -90.5q0 -56 -43 -118zM908 1581l-265 -342h-175l-270 342h248l107 -146l110 146h245z" />
    <glyph glyph-name="florin" unicode="&#x192;" horiz-adv-x="1067" 
d="M377 912l19 145q46 346 435 346q111 0 205 -19l-38 -276q-64 10 -111 10q-35 0 -61 -11t-41.5 -27t-27 -44t-16.5 -51.5t-11 -60.5l-2 -12h245l-37 -272h-245l-63 -469q-31 -229 -157 -339t-362 -110q-54 0 -98 6l36 274h40q97 0 139.5 42.5t52.5 118.5l63 477h-214
l38 272h211z" />
    <glyph glyph-name="uni0218" unicode="&#x218;" horiz-adv-x="1157" 
d="M506 300q93 0 134.5 27.5t41.5 90.5q0 56 -39.5 86t-142.5 62q-84 26 -142.5 51.5t-113 62.5t-87 82t-51.5 108.5t-19 144.5q0 121 34 205t103.5 133.5t164.5 71t227 21.5q222 0 442 -54l-35 -291q-209 37 -338 37q-38 0 -63 -1t-57 -7t-51 -16t-32.5 -29.5t-13.5 -47.5
q0 -60 42 -85t169 -59q223 -60 308.5 -162.5t85.5 -295.5q0 -240 -137.5 -345t-409.5 -105q-215 0 -446 52l37 300q231 -37 389 -37zM498 -117h253l-159 -408h-185z" />
    <glyph glyph-name="uni0219" unicode="&#x219;" horiz-adv-x="1010" 
d="M443 267q25 0 40.5 0.5t35 4t30.5 9.5t18.5 17t7.5 27q0 14 -6 25t-13.5 17.5t-22.5 13.5t-26 10.5t-32.5 9t-32.5 9.5q-57 18 -98 34t-91.5 46t-82 65.5t-53.5 91.5t-22 124q0 338 404 338q214 0 429 -53l-33 -260q-168 37 -288 37q-39 0 -60 -1t-46.5 -6t-37 -16.5
t-11.5 -30.5q0 -15 7 -26.5t24.5 -20.5t31 -14t45 -15t47.5 -15q133 -45 177 -69q111 -61 139 -176q12 -48 12 -108q0 -80 -22.5 -141t-61.5 -100t-96 -64t-120.5 -35t-140.5 -10q-230 0 -418 56l34 266q192 -40 313 -40h20zM428 -113h254l-159 -407h-185z" />
    <glyph glyph-name="uni021A" unicode="&#x21a;" horiz-adv-x="1095" 
d="M33 1116v316h1029v-316h-325v-1116h-383v1116h-321zM680 -111l-160 -408h-185l91 408h254z" />
    <glyph glyph-name="uni021B" unicode="&#x21b;" horiz-adv-x="870" 
d="M782 266l28 -256q-132 -25 -235 -25q-184 0 -269.5 81.5t-85.5 248.5v498h-164v281h164v251l357 58v-309h203v-281h-203v-452q0 -100 94 -100q62 0 111 5zM648 -119l-159 -408h-185l90 408h254z" />
    <glyph glyph-name="circumflex" unicode="&#x2c6;" horiz-adv-x="795" 
d="M483 1488l269 -341h-248l-106 146l-110 -146h-245l264 341h176z" />
    <glyph glyph-name="caron" unicode="&#x2c7;" horiz-adv-x="735" 
d="M477 1488h245l-264 -341h-176l-269 341h248l106 -146z" />
    <glyph glyph-name="uni02C9" unicode="&#x2c9;" horiz-adv-x="876" 
d="M106 1194v209h664v-209h-664z" />
    <glyph glyph-name="breve" unicode="&#x2d8;" horiz-adv-x="680" 
d="M458 1475h190q-12 -140 -89 -228t-219 -88q-141 0 -218.5 88t-89.5 228h190q8 -53 38.5 -88.5t79.5 -35.5q50 0 80.5 35.5t37.5 88.5z" />
    <glyph glyph-name="dotaccent" unicode="&#x2d9;" horiz-adv-x="460" 
d="M62 1314q0 71 49 119.5t120 48.5t119 -48.5t48 -119.5t-48 -119.5t-119 -48.5t-120 48.5t-49 119.5z" />
    <glyph glyph-name="ring" unicode="&#x2da;" horiz-adv-x="559" 
d="M280 1118q-91 0 -155.5 65t-64.5 156t64.5 155.5t155.5 64.5t155.5 -64.5t64.5 -155.5q0 -92 -64.5 -156.5t-155.5 -64.5zM280 1245q39 0 66.5 27.5t27.5 66.5t-27.5 66.5t-66.5 27.5t-66.5 -27.5t-27.5 -66.5t27.5 -66.5t66.5 -27.5z" />
    <glyph glyph-name="ogonek" unicode="&#x2db;" horiz-adv-x="445" 
d="M381 -261l45 -116q-41 -34 -97 -53.5t-107 -19.5q-96 0 -158 49.5t-62 134.5q0 70 48 141.5t111 124.5h183q-139 -133 -139 -223q0 -36 15 -56.5t42 -20.5q69 0 119 39z" />
    <glyph glyph-name="tilde" unicode="&#x2dc;" horiz-adv-x="783" 
d="M541 1458h174q-11 -144 -70 -222.5t-134 -78.5q-43 0 -79 18.5t-55.5 41t-39 41t-33.5 18.5q-44 0 -61 -113h-174q11 144 70 222t134 78q44 0 80 -18.5t55.5 -41t39 -41t33.5 -18.5q44 0 60 114z" />
    <glyph glyph-name="hungarumlaut" unicode="&#x2dd;" horiz-adv-x="1001" 
d="M51 1140l178 340h335l-248 -340h-265zM481 1140l179 340h334l-247 -340h-266z" />
    <glyph glyph-name="uni03A9" unicode="&#x3a9;" horiz-adv-x="1627" 
d="M1542 0h-672v203q129 75 214 215.5t85 324.5q0 77 -23 152.5t-65 138.5t-110 102t-151 39q-107 0 -189.5 -59t-126 -158t-43.5 -219q0 -175 86.5 -320t212.5 -216v-203h-673v271h202q-173 219 -173 488q0 149 54.5 277.5t148.5 218t224.5 140.5t278.5 51q154 0 285.5 -56
t219.5 -150t137.5 -217t49.5 -257q0 -274 -174 -495h202v-271z" />
    <glyph glyph-name="uni03BC" unicode="&#x3bc;" horiz-adv-x="1326" 
d="M1129 1094v-657q0 -32 0.5 -47.5t2 -41.5t5 -39.5t10 -32t16.5 -29.5t24.5 -21t34.5 -17v-224q-136 0 -222 35t-124 89q-58 -70 -117.5 -97t-142.5 -27q-37 0 -76 10.5t-61 27.5v-426h-330v1497h332v-647q0 -83 37.5 -135t100.5 -52q46 0 78.5 18t51.5 47t29.5 78.5
t14 99t3.5 120.5v471h333z" />
    <glyph glyph-name="pi" unicode="&#x3c0;" horiz-adv-x="1431" 
d="M1374 1094l-31 -274h-225q-18 -140 -18 -305q0 -280 233 -280l-23 -250q-132 0 -229.5 24t-157 63.5t-95 100.5t-48.5 126.5t-13 149.5q0 173 25 371h-164q-40 -581 -125 -835h-356q64 203 97.5 393.5t55.5 437.5h-20q-48 0 -84 -13.5t-84 -44.5l-79 189q139 147 373 147
h968z" />
    <glyph glyph-name="uni200A" unicode="&#x200a;" horiz-adv-x="44" 
 />
    <glyph glyph-name="uni2010" unicode="&#x2010;" horiz-adv-x="804" 
d="M122 679h561v-269h-561v269z" />
    <glyph glyph-name="endash" unicode="&#x2013;" horiz-adv-x="1230" 
d="M122 673h987v-258h-987v258z" />
    <glyph glyph-name="emdash" unicode="&#x2014;" horiz-adv-x="2185" 
d="M122 673h1941v-258h-1941v258z" />
    <glyph glyph-name="quoteleft" unicode="&#x2018;" horiz-adv-x="574" 
d="M291 1517h266l-130 -586h-366z" />
    <glyph glyph-name="quoteright" unicode="&#x2019;" horiz-adv-x="574" 
d="M328 931h-267l131 586h365z" />
    <glyph glyph-name="quotesinglbase" unicode="&#x201a;" horiz-adv-x="610" 
d="M305 -248h-266l130 587h366z" />
    <glyph glyph-name="quotedblleft" unicode="&#x201c;" horiz-adv-x="1056" 
d="M61 931l230 586h266l-130 -586h-366zM544 931l228 586h267l-130 -586h-365z" />
    <glyph glyph-name="quotedblright" unicode="&#x201d;" horiz-adv-x="1056" 
d="M557 1517l-229 -586h-267l131 586h365zM1039 1517l-229 -586h-266l129 586h366z" />
    <glyph glyph-name="quotedblbase" unicode="&#x201e;" horiz-adv-x="1091" 
d="M305 -248h-266l130 587h365zM787 -248h-267l131 587h365z" />
    <glyph glyph-name="dagger" unicode="&#x2020;" horiz-adv-x="1190" 
d="M773 826v-1084h-359v1084h-345v311h345v323h359v-323h348v-311h-348z" />
    <glyph glyph-name="daggerdbl" unicode="&#x2021;" horiz-adv-x="1237" 
d="M95 372v308h343v189h-343v313h343v278h357v-278h347v-313h-347v-189h347v-308h-347v-630h-357v630h-343z" />
    <glyph glyph-name="bullet" unicode="&#x2022;" horiz-adv-x="729" 
d="M365 401q-119 0 -202.5 84t-83.5 203t83.5 202.5t202.5 83.5t202.5 -84t83.5 -202q0 -119 -83.5 -203t-202.5 -84z" />
    <glyph glyph-name="ellipsis" unicode="&#x2026;" horiz-adv-x="1904" 
d="M297 -15q-118 0 -161.5 41.5t-43.5 151.5t43.5 150.5t161.5 40.5q117 0 160.5 -40.5t43.5 -150.5t-43 -151.5t-161 -41.5zM952 -15q-118 0 -161 41.5t-43 151.5t43 150.5t161 40.5q117 0 161 -41t44 -150q0 -110 -43.5 -151.5t-161.5 -41.5zM1607 -15q-118 0 -161 41.5
t-43 151.5t43 150.5t161 40.5q117 0 161 -41t44 -150q0 -110 -43.5 -151.5t-161.5 -41.5z" />
    <glyph glyph-name="perthousand" unicode="&#x2030;" horiz-adv-x="2575" 
d="M380 582q-102 0 -167 25.5t-101 82t-49 131t-13 189.5t13 189.5t49 131.5t101 82.5t167 25.5q101 0 166.5 -25.5t101 -82.5t49 -131.5t13.5 -189.5t-13.5 -189.5t-49 -131t-101 -82t-166.5 -25.5zM380 774q21 0 36 6.5t24 23.5t14.5 33.5t8 49t3 55.5t0.5 68
q0 44 -0.5 68t-3 56t-8 49t-15 33.5t-24 23.5t-35.5 7q-16 0 -28 -3.5t-21 -14t-15.5 -19.5t-10 -28.5t-6 -33t-3.5 -41.5t-1 -45v-52v-52t1 -45t3.5 -41.5t6 -33t10 -28.5t15.5 -19t21 -13.5t28 -3.5zM1413 -7q-102 0 -167 25.5t-101 82t-49 131t-13 189.5t13 189.5
t49 131.5t101 82.5t167 25.5q101 0 166.5 -25.5t101 -82.5t48.5 -131.5t13 -189.5t-13 -189.5t-48.5 -131t-101 -82t-166.5 -25.5zM1413 185q16 0 28 3.5t21 13.5t15.5 19t10 28.5t6 33t3.5 41.5t1 45v52q0 45 -0.5 68.5t-3 56t-7.5 49t-14.5 33.5t-24 23.5t-35.5 6.5
t-36 -6.5t-24 -23.5t-14.5 -33.5t-8 -49t-3 -56t-0.5 -68.5t0.5 -68t3 -55.5t8 -49t14.5 -33.5t24 -23.5t36 -6.5zM2174 -7q-101 0 -166.5 25.5t-101 82t-49 131t-13.5 189.5t13.5 189.5t49 131.5t101 82.5t166.5 25.5t166.5 -25.5t101 -82.5t49 -131.5t13.5 -189.5
t-13.5 -189.5t-49 -131t-101 -82t-166.5 -25.5zM2174 185q16 0 28 3.5t21 13.5t15.5 19t10 28.5t6 33t3.5 41.5t1 45v52v52t-1 45t-3.5 41.5t-6 33t-10 29t-15.5 19.5t-21 13.5t-28 3.5t-28 -3.5t-21 -13.5t-15.5 -19.5t-10 -29t-6 -33t-3.5 -41.5t-1 -45v-52v-52t1 -45
t3.5 -41.5t6 -33t10 -28.5t15.5 -19t21 -13.5t28 -3.5zM1433 1461l-841 -1490h-234l840 1490h235z" />
    <glyph glyph-name="guilsinglleft" unicode="&#x2039;" horiz-adv-x="737" 
d="M393 530l277 -432h-317l-306 432l306 431h317z" />
    <glyph glyph-name="guilsinglright" unicode="&#x203a;" horiz-adv-x="737" 
d="M67 98l278 432l-278 431h318l305 -431l-305 -432h-318z" />
    <glyph glyph-name="fraction" unicode="&#x2044;" horiz-adv-x="323" 
d="M-376 -29l841 1490h234l-840 -1490h-235z" />
    <glyph glyph-name="uni2070" unicode="&#x2070;" horiz-adv-x="787" 
d="M64 1252q0 115 13 189.5t49 131.5t101 82.5t167 25.5q101 0 166.5 -25.5t101 -82.5t48.5 -131.5t13 -189.5t-13 -189.5t-48.5 -131t-101 -82t-166.5 -25.5q-102 0 -167 25.5t-101 82t-49 131t-13 189.5zM479 1252q0 45 -0.5 68.5t-3 56t-7.5 49t-14.5 33.5t-24 23.5
t-35.5 6.5t-36 -6.5t-24 -23.5t-14.5 -33.5t-8 -49t-3 -56t-0.5 -68.5t0.5 -68t3 -55.5t8 -49t14.5 -33.5t24 -23.5t36 -6.5q16 0 28 3.5t21 13.5t15.5 19t10 28.5t6 33t3.5 41.5t1 45v52z" />
    <glyph glyph-name="uni2074" unicode="&#x2074;" horiz-adv-x="772" 
d="M400 831v176h-217q-80 0 -112.5 29.5t-32.5 87.5q0 19 3 34t19 46t46 69l246 316q43 56 77 73.5t85 17.5q53 0 87.5 -33.5t34.5 -94.5v-359h93v-186h-93v-176h-236zM401 1193v166l-120 -166h120z" />
    <glyph glyph-name="uni2075" unicode="&#x2075;" horiz-adv-x="734" 
d="M45 861l26 185q154 -22 229 -22q71 0 96.5 19.5t25.5 79.5q0 46 -35 62t-115 16q-104 0 -206 -6l34 479h556v-200h-344l-6 -87q6 0 16.5 0.5t14.5 0.5q62 0 108.5 -6t91 -24t73 -48t46 -80t17.5 -119q0 -149 -83.5 -217t-249.5 -68q-153 0 -295 35z" />
    <glyph glyph-name="uni2076" unicode="&#x2076;" horiz-adv-x="769" 
d="M659 1676l19 -180h-19q-16 0 -55.5 1t-61.5 1q-47 0 -82 -4t-70.5 -15t-55.5 -35t-22 -60q45 5 85 5q80 0 136.5 -12.5t100.5 -43t66 -86t22 -136.5q0 -85 -24 -143t-71 -89t-105.5 -44t-139.5 -13q-96 0 -161 24t-99.5 73t-48.5 110t-14 149q0 119 12 198.5t41.5 141
t83.5 95t133 50t195 16.5q9 0 135 -3zM378 1207q-45 0 -76 -4q-2 -30 -2 -47q0 -67 16 -104.5t63 -37.5q59 0 79.5 21t20.5 79q0 52 -25.5 72.5t-75.5 20.5z" />
    <glyph glyph-name="uni2077" unicode="&#x2077;" horiz-adv-x="681" 
d="M80 833l312 636h-357v204h491q66 0 101 -28t35 -78q0 -30 -16 -65l-299 -669h-267z" />
    <glyph glyph-name="uni2078" unicode="&#x2078;" horiz-adv-x="762" 
d="M173 1267q-51 30 -81.5 74t-30.5 117q0 223 322 223q321 0 321 -223q0 -69 -25 -110.5t-87 -77.5q58 -36 89.5 -79.5t31.5 -110.5q0 -62 -17.5 -107.5t-46 -73.5t-72 -45.5t-89.5 -23.5t-105 -6q-160 0 -246.5 58t-86.5 196q0 65 30.5 106.5t92.5 82.5zM347 1180
q-58 -19 -58 -98q0 -39 24 -54.5t70 -15.5q91 0 91 70q0 48 -23.5 68t-103.5 30zM474 1435q0 35 -22.5 48.5t-68.5 13.5q-44 0 -66.5 -13.5t-22.5 -48.5q0 -37 23.5 -56t99.5 -24q30 11 43.5 28t13.5 52z" />
    <glyph glyph-name="uni2079" unicode="&#x2079;" horiz-adv-x="769" 
d="M109 830l-19 179q3 0 11 0.5t12 0.5q16 0 54 -1t59 -1q47 0 82 4t70.5 15t55.5 34.5t22 59.5q-54 -4 -85 -4q-80 0 -136.5 12.5t-100.5 42.5t-66 85.5t-22 136.5q0 85 24 143t71 89.5t105.5 44.5t139.5 13q96 0 161 -24t99.5 -73t48.5 -110t14 -149q0 -99 -8 -169.5
t-28 -129t-53 -95t-85.5 -61.5t-122.5 -35.5t-167 -10.5q-10 0 -136 3zM390 1298q38 0 76 5q2 30 2 46q0 67 -16 105t-63 38q-59 0 -79.5 -21t-20.5 -79q0 -52 25.5 -73t75.5 -21z" />
    <glyph glyph-name="uni2080" unicode="&#x2080;" horiz-adv-x="787" 
d="M64 178q0 115 13 189.5t49 131.5t101 82.5t167 25.5q101 0 166.5 -25.5t101 -82.5t48.5 -131.5t13 -189.5t-13 -189.5t-48.5 -131t-101 -82t-166.5 -25.5q-102 0 -167 25.5t-101 82t-49 131t-13 189.5zM479 178q0 45 -0.5 68.5t-3 56t-7.5 49t-14.5 33.5t-24 23.5
t-35.5 6.5t-36 -6.5t-24 -23.5t-14.5 -33.5t-8 -49t-3 -56t-0.5 -68.5t0.5 -68t3 -55.5t8 -49t14.5 -33.5t24 -23.5t36 -6.5q16 0 28 3.5t21 13.5t15.5 19t10 28.5t6 33t3.5 41.5t1 45v52z" />
    <glyph glyph-name="uni2081" unicode="&#x2081;" horiz-adv-x="534" 
d="M444 -241h-241v605q-65 -13 -166 -21l-11 189q143 21 236 66h182v-839z" />
    <glyph glyph-name="uni2082" unicode="&#x2082;" horiz-adv-x="737" 
d="M668 -243h-632q35 201 58 265q35 101 114 157q41 28 102 54q62 26 87.5 48t25.5 56q0 43 -30.5 57t-122.5 14q-71 0 -196 -22l-23 186q166 34 300 34q56 0 101 -6t86.5 -21.5t69.5 -41t44.5 -66.5t16.5 -95q0 -117 -61.5 -195t-190.5 -128q-55 -21 -78 -42.5t-29 -51.5
h358v-202z" />
    <glyph glyph-name="uni2083" unicode="&#x2083;" horiz-adv-x="717" 
d="M328 607q71 0 124.5 -9.5t101.5 -33.5t74 -72t26 -119q0 -116 -102 -172q65 -27 89 -67t24 -104q0 -153 -85.5 -216.5t-254.5 -63.5q-21 0 -40.5 0.5t-44 3t-36.5 3.5t-42.5 6t-36.5 6t-44.5 7.5t-41.5 7.5l26 186q162 -21 228 -21q67 0 94 15t27 60q0 63 -56 69
q-79 10 -176 10h-20v174q91 1 195 17q50 8 50 64q0 32 -23.5 43t-67.5 11q-73 0 -245 -22l-24 183q168 34 281 34z" />
    <glyph glyph-name="uni2084" unicode="&#x2084;" horiz-adv-x="772" 
d="M400 -243v176h-217q-80 0 -112.5 29.5t-32.5 87.5q0 19 3 34t19 46t46 69l246 316q43 56 77 73.5t85 17.5q53 0 87.5 -34t34.5 -95v-358h93v-186h-93v-176h-236zM401 119v165l-120 -165h120z" />
    <glyph glyph-name="uni2085" unicode="&#x2085;" horiz-adv-x="734" 
d="M45 -213l26 185q154 -22 229 -22q71 0 96.5 19.5t25.5 79.5q0 46 -35 62t-115 16q-87 0 -206 -7l34 480h556v-200h-344l-6 -87q6 0 16.5 0.5t14.5 0.5q62 0 108.5 -6t91 -24t73 -48t46 -80t17.5 -119q0 -149 -83.5 -217t-249.5 -68q-153 0 -295 35z" />
    <glyph glyph-name="uni2086" unicode="&#x2086;" horiz-adv-x="769" 
d="M659 602l19 -180h-19q-16 0 -55.5 1t-61.5 1q-47 0 -82 -4t-70.5 -15t-55.5 -35t-22 -60q45 5 85 5q80 0 136.5 -12.5t100.5 -43t66 -86t22 -136.5q0 -85 -24 -143t-71 -89.5t-105.5 -44.5t-139.5 -13q-96 0 -161 24t-99.5 73t-48.5 110.5t-14 149.5q0 119 12 198.5
t41.5 141t83.5 95t133 50t195 16.5q9 0 135 -3zM378 133q-45 0 -76 -4q-2 -30 -2 -47q0 -67 16 -104.5t63 -37.5q59 0 79.5 21t20.5 79q0 52 -25.5 72.5t-75.5 20.5z" />
    <glyph glyph-name="uni2087" unicode="&#x2087;" horiz-adv-x="681" 
d="M80 -241l312 636h-357v203h491q66 0 101 -27.5t35 -77.5q0 -30 -16 -65l-299 -669h-267z" />
    <glyph glyph-name="uni2088" unicode="&#x2088;" horiz-adv-x="762" 
d="M173 193q-52 30 -82 74t-30 116q0 224 322 224q321 0 321 -224q0 -69 -25 -110t-87 -77q58 -36 89.5 -79.5t31.5 -110.5q0 -62 -17.5 -107.5t-46 -73.5t-72 -45.5t-89.5 -23.5t-105 -6q-160 0 -246.5 58t-86.5 196q0 65 30.5 106.5t92.5 82.5zM347 106q-58 -19 -58 -98
q0 -39 24 -54.5t70 -15.5q91 0 91 70q0 48 -23.5 68t-103.5 30zM474 361q0 35 -22.5 48.5t-68.5 13.5q-44 0 -66.5 -13.5t-22.5 -48.5q0 -37 23.5 -56t99.5 -24q30 11 43.5 28t13.5 52z" />
    <glyph glyph-name="uni2089" unicode="&#x2089;" horiz-adv-x="769" 
d="M109 -244l-19 179h23q16 0 54 -0.5t59 -0.5q47 0 82 4t70.5 15t55.5 34.5t22 59.5q-54 -4 -85 -4q-80 0 -136.5 12.5t-100.5 42.5t-66 85.5t-22 136.5q0 85 24 143t71 89.5t105.5 44.5t139.5 13q96 0 161 -24t99.5 -73t48.5 -110t14 -149q0 -99 -8 -169.5t-28 -129
t-53 -95t-85.5 -61.5t-122.5 -35.5t-167 -10.5q-10 0 -136 3zM390 224q38 0 76 5q2 30 2 46q0 67 -16 105t-63 38q-59 0 -79.5 -21t-20.5 -79q0 -52 25.5 -73t75.5 -21z" />
    <glyph glyph-name="Euro" unicode="&#x20ac;" horiz-adv-x="1114" 
d="M80 736l39 182h84q25 257 138 371t362 114q196 0 331 -51l-28 -292q-130 27 -251 27q-87 0 -131.5 -43t-60.5 -126h380l-39 -182h-354v-83h336l-39 -181h-285q15 -84 59.5 -127t133.5 -43q135 0 250 27l29 -295q-130 -49 -331 -49q-249 0 -362 114.5t-138 372.5h-137
l38 181h90v83h-114z" />
    <glyph glyph-name="uni2113" unicode="&#x2113;" horiz-adv-x="1104" 
d="M145 288l-95 181l188 125q0 94 2 164.5t7 152.5t14.5 143t25.5 125.5t38.5 110.5t54.5 88.5t72.5 68.5t94.5 41t118 15q145 0 222 -93t77 -234q0 -307 -416 -641q7 -83 17.5 -140.5t29 -103t48 -67t71.5 -21.5q81 0 229 143l126 -140q-168 -221 -402 -221
q-329 0 -407 371zM699 1182q0 110 -54 110q-21 0 -37.5 -17.5t-26.5 -52t-17 -73t-10.5 -93t-5 -99t-2.5 -102.5q75 87 114 165.5t39 161.5z" />
    <glyph glyph-name="trademark" unicode="&#x2122;" horiz-adv-x="1931" 
d="M1587 573v489h-1l-192 -489h-135l-190 489h-2v-489h-204v859h263l204 -518l200 518h261v-859h-204zM500 1250v-677h-203v677h-245v182h693v-182h-245z" />
    <glyph glyph-name="Omega" unicode="&#x2126;" horiz-adv-x="1627" 
d="M1542 0h-672v203q129 75 214 215.5t85 324.5q0 77 -23 152.5t-65 138.5t-110 102t-151 39q-107 0 -189.5 -59t-126 -158t-43.5 -219q0 -175 86.5 -320t212.5 -216v-203h-673v271h202q-173 219 -173 488q0 149 54.5 277.5t148.5 218t224.5 140.5t278.5 51q154 0 285.5 -56
t219.5 -150t137.5 -217t49.5 -257q0 -274 -174 -495h202v-271z" />
    <glyph glyph-name="estimated" unicode="&#x212e;" horiz-adv-x="1644" 
d="M1343 305h126q-125 -153 -282 -236.5t-366 -83.5q-163 0 -302.5 51.5t-236.5 141t-151.5 214t-54.5 266.5q0 134 53 255.5t147 214.5t236 148t309 55q171 0 308.5 -51t228.5 -142.5t144 -212.5t66 -267h-1166v-455q172 -145 419 -145q327 0 522 247zM1242 731v381
q-184 147 -421 147q-249 0 -419 -147v-381h840z" />
    <glyph glyph-name="uni2190" unicode="&#x2190;" horiz-adv-x="1421" 
d="M1347 742v-281h-767l286 -357h-326l-465 498l465 497h326l-286 -357h767z" />
    <glyph glyph-name="uni2191" unicode="&#x2191;" horiz-adv-x="1144" 
d="M1070 772v-326l-357 286v-767h-281v767l-357 -286v326l497 466z" />
    <glyph glyph-name="uni2192" unicode="&#x2192;" horiz-adv-x="1421" 
d="M556 1099h326l465 -497l-465 -498h-327l287 357h-767v281h767z" />
    <glyph glyph-name="uni2193" unicode="&#x2193;" horiz-adv-x="1144" 
d="M713 1238v-767l357 285v-326l-498 -465l-497 465v327l357 -286v767h281z" />
    <glyph glyph-name="uni21E8" unicode="&#x21e8;" horiz-adv-x="1637" 
d="M1595 602l-641 -621v342h-838v558h838v341zM1054 423v-201l399 380l-399 379v-201h-839v-357h839z" />
    <glyph glyph-name="partialdiff" unicode="&#x2202;" horiz-adv-x="1165" 
d="M500 -15q-105 0 -189 38t-136 102.5t-79.5 147.5t-27.5 176q0 239 135.5 387t371.5 148q76 0 151 -33q-32 314 -210 314q-72 0 -134 -21.5t-134 -69.5l-64 213q186 130 380 130q172 0 288.5 -91.5t169.5 -249t53 -374.5q0 -241 -67 -425t-198 -288t-310 -104zM522 227
q45 0 82 37t60.5 100.5t37.5 134t21 150.5q-60 87 -136 87q-79 0 -124.5 -84.5t-45.5 -202.5q0 -90 27 -156t78 -66z" />
    <glyph glyph-name="Delta" unicode="&#x2206;" horiz-adv-x="1451" 
d="M565 1432h331l496 -1248v-184h-1332v180zM723 973l-284 -708h565z" />
    <glyph glyph-name="product" unicode="&#x220f;" horiz-adv-x="1633" 
d="M1001 -272v1462h-366v-1462h-355v1462h-221v285h1516v-285h-219v-1462h-355z" />
    <glyph glyph-name="summation" unicode="&#x2211;" horiz-adv-x="1319" 
d="M968 629l-470 -607h762v-294h-1219v194l524 679l-502 674v200h1166v-277h-691z" />
    <glyph glyph-name="minus" unicode="&#x2212;" horiz-adv-x="1166" 
d="M75 461v281h1017v-281h-1017z" />
    <glyph glyph-name="uni2215" unicode="&#x2215;" horiz-adv-x="323" 
d="M-376 -29l841 1490h234l-840 -1490h-235z" />
    <glyph glyph-name="uni2219" unicode="&#x2219;" horiz-adv-x="650" 
d="M325 395q-119 0 -162 41t-43 151t43.5 151t161.5 41q117 0 161 -41t44 -151t-43.5 -151t-161.5 -41z" />
    <glyph glyph-name="radical" unicode="&#x221a;" horiz-adv-x="1235" 
d="M632 445l295 1316h293l-432 -1890h-277l-272 791l-136 -52l-71 224l421 166z" />
    <glyph glyph-name="infinity" unicode="&#x221e;" horiz-adv-x="1730" 
d="M1213 128q-66 0 -126 20.5t-113 61.5t-91 79.5t-86 96.5q-167 -178 -358 -178q-104 0 -189.5 56t-132 146t-46.5 192q0 158 106 276.5t262 118.5q189 0 358 -183q38 46 67.5 78t72 69t82 59.5t90 38t104.5 15.5q132 0 230.5 -67t147 -173t48.5 -232t-48.5 -232.5
t-147.5 -174t-230 -67.5zM439 470q85 0 197 132q-113 133 -197 133q-47 0 -77.5 -36t-30.5 -97t30.5 -96.5t77.5 -35.5zM1213 393q71 0 116 55t45 154q0 98 -45 153t-116 55q-107 0 -254 -208q146 -209 254 -209z" />
    <glyph glyph-name="integral" unicode="&#x222b;" horiz-adv-x="844" 
d="M791 1393q-39 30 -69 43t-80 13q-36 0 -61 -24.5t-37.5 -71t-17.5 -99.5t-5 -123q0 -159 18 -474.5t18 -481.5q0 -59 -7.5 -118t-25 -122.5t-48.5 -117t-74 -97t-107.5 -68t-142.5 -24.5q-62 0 -137.5 25t-118.5 54l56 220q67 -53 173 -53q72 0 95 68t23 240
q0 150 -16.5 482.5t-16.5 483.5q0 81 9.5 151.5t37 144.5t72 126t120.5 85.5t177 33.5q110 0 226 -78z" />
    <glyph glyph-name="approxequal" unicode="&#x2248;" horiz-adv-x="1321" 
d="M1195 587v-280q-62 -64 -147.5 -96t-169.5 -32q-66 0 -127.5 18.5t-101 41.5t-94.5 41.5t-111 18.5q-83 0 -169 -32.5t-148 -95.5v279q62 64 148 96.5t169 32.5q55 0 104.5 -12.5t87 -30t73.5 -35t79.5 -30t89.5 -12.5q83 0 169 32.5t148 95.5zM127 615v280
q62 63 148 95.5t169 32.5q66 0 127.5 -18.5t101 -41t95 -41t110.5 -18.5q83 0 169 32.5t148 95.5v-280q-62 -64 -147.5 -96t-169.5 -32q-66 0 -127.5 18.5t-101 41t-94.5 41t-111 18.5q-83 0 -169 -32t-148 -96z" />
    <glyph glyph-name="notequal" unicode="&#x2260;" horiz-adv-x="1270" 
d="M127 238v281h358l73 165h-431v280h553l118 270h228l-118 -270h236v-280h-358l-73 -165h431v-281h-553l-118 -269h-227l117 269h-236z" />
    <glyph glyph-name="lessequal" unicode="&#x2264;" horiz-adv-x="1293" 
d="M96 878l1071 393v-284l-612 -212l612 -213v-283l-1071 393v206zM96 -68v280h1071v-280h-1071z" />
    <glyph glyph-name="greaterequal" unicode="&#x2265;" horiz-adv-x="1293" 
d="M127 987v284l1070 -393v-206l-1070 -393v283l611 213zM127 -68v280h1070v-280h-1070z" />
    <glyph glyph-name="lozenge" unicode="&#x25ca;" horiz-adv-x="1243" 
d="M498 1489h248l426 -772l-426 -774h-248l-427 774zM622 291l227 426l-227 427l-228 -427z" />
    <glyph glyph-name="zero.numerator" horiz-adv-x="787" 
d="M64 1010q0 115 13 189.5t49 131.5t101 82.5t167 25.5q101 0 166.5 -25.5t101 -82.5t48.5 -131.5t13 -189.5t-13 -189.5t-48.5 -131t-101 -82t-166.5 -25.5q-102 0 -167 25.5t-101 82t-49 131t-13 189.5zM479 1010q0 45 -0.5 68.5t-3 56t-7.5 49t-14.5 33.5t-24 23.5
t-35.5 6.5t-36 -6.5t-24 -23.5t-14.5 -33.5t-8 -49t-3 -56t-0.5 -68.5t0.5 -68t3 -55.5t8 -49t14.5 -33.5t24 -23.5t36 -6.5q16 0 28 3.5t21 13.5t15.5 19t10 28.5t6 33t3.5 41.5t1 45v52z" />
    <glyph glyph-name="one.numerator" horiz-adv-x="534" 
d="M444 591h-241v605q-65 -13 -166 -21l-11 189q143 21 236 66h182v-839z" />
    <glyph glyph-name="two.numerator" horiz-adv-x="737" 
d="M668 589h-632q35 201 58 265q35 101 114 157q41 28 102 54q62 26 87.5 48t25.5 56q0 43 -30.5 57t-122.5 14q-71 0 -196 -22l-23 186q166 34 300 34q56 0 101 -6t86.5 -21.5t69.5 -41t44.5 -66.5t16.5 -95q0 -117 -61.5 -195t-190.5 -128q-55 -21 -78 -42.5t-29 -51.5
h358v-202z" />
    <glyph glyph-name="three.numerator" horiz-adv-x="717" 
d="M328 1439q71 0 124.5 -9.5t101.5 -33.5t74 -72t26 -119q0 -116 -102 -172q65 -27 89 -67t24 -104q0 -153 -85.5 -216.5t-254.5 -63.5q-21 0 -40.5 0.5t-44 3t-36.5 3.5t-42.5 6t-36.5 6t-44.5 7.5t-41.5 7.5l26 186q162 -21 228 -21q67 0 94 15t27 60q0 63 -56 69
q-79 10 -176 10h-20v173q84 1 195 18q50 8 50 64q0 32 -23.5 43t-67.5 11q-73 0 -245 -22l-24 183q168 34 281 34z" />
    <glyph glyph-name="four.numerator" horiz-adv-x="772" 
d="M400 589v176h-217q-80 0 -112.5 29.5t-32.5 87.5q0 19 3 34t19 46t46 69l246 316q43 56 77 73.5t85 17.5q53 0 87.5 -34t34.5 -95v-358h93v-186h-93v-176h-236zM401 951v165l-120 -165h120z" />
    <glyph glyph-name="five.numerator" horiz-adv-x="734" 
d="M45 619l26 185q154 -22 229 -22q71 0 96.5 19.5t25.5 79.5q0 46 -35 62t-115 16q-87 0 -206 -7l34 480h556v-200h-344l-6 -87q6 0 16.5 0.5t14.5 0.5q62 0 108.5 -6t91 -24t73 -48t46 -80t17.5 -119q0 -149 -83.5 -217t-249.5 -68q-153 0 -295 35z" />
    <glyph glyph-name="six.numerator" horiz-adv-x="769" 
d="M659 1434l19 -180h-19q-16 0 -55.5 1t-61.5 1q-47 0 -82 -4t-70.5 -15t-55.5 -35t-22 -60q45 5 85 5q80 0 136.5 -12.5t100.5 -43t66 -86t22 -136.5q0 -85 -24 -143t-71 -89.5t-105.5 -44.5t-139.5 -13q-96 0 -161 24t-99.5 73t-48.5 110.5t-14 149.5q0 119 12 198.5
t41.5 141t83.5 95t133 50t195 16.5q9 0 135 -3zM378 965q-45 0 -76 -4q-2 -30 -2 -47q0 -67 16 -104.5t63 -37.5q59 0 79.5 21t20.5 79q0 52 -25.5 72.5t-75.5 20.5z" />
    <glyph glyph-name="seven.numerator" horiz-adv-x="681" 
d="M80 591l312 636h-357v203h491q66 0 101 -27.5t35 -77.5q0 -30 -16 -65l-299 -669h-267z" />
    <glyph glyph-name="eight.numerator" horiz-adv-x="762" 
d="M173 1025q-52 30 -82 74t-30 116q0 224 322 224q321 0 321 -224q0 -69 -25 -110t-87 -77q58 -36 89.5 -79.5t31.5 -110.5q0 -62 -17.5 -107.5t-46 -73.5t-72 -45.5t-89.5 -23.5t-105 -6q-160 0 -246.5 58t-86.5 196q0 65 30.5 106.5t92.5 82.5zM347 938q-58 -19 -58 -98
q0 -39 24 -54.5t70 -15.5q91 0 91 70q0 48 -23.5 68t-103.5 30zM474 1193q0 35 -22.5 48.5t-68.5 13.5q-44 0 -66.5 -13.5t-22.5 -48.5q0 -37 23.5 -56t99.5 -24q30 11 43.5 28t13.5 52z" />
    <glyph glyph-name="nine.numerator" horiz-adv-x="769" 
d="M109 588l-19 179h23q16 0 54 -0.5t59 -0.5q47 0 82 4t70.5 15t55.5 34.5t22 59.5q-54 -4 -85 -4q-80 0 -136.5 12.5t-100.5 42.5t-66 85.5t-22 136.5q0 85 24 143t71 89.5t105.5 44.5t139.5 13q96 0 161 -24t99.5 -73t48.5 -110t14 -149q0 -99 -8 -169.5t-28 -129
t-53 -95t-85.5 -61.5t-122.5 -35.5t-167 -10.5q-10 0 -136 3zM390 1056q38 0 76 5q2 30 2 46q0 67 -16 105t-63 38q-59 0 -79.5 -21t-20.5 -79q0 -52 25.5 -73t75.5 -21z" />
    <glyph glyph-name="zero.denominator" horiz-adv-x="787" 
d="M64 421q0 115 13 189.5t49 131.5t101 82.5t167 25.5q101 0 166.5 -25.5t101 -82.5t48.5 -131.5t13 -189.5t-13 -189.5t-48.5 -131t-101 -82t-166.5 -25.5q-102 0 -167 25.5t-101 82t-49 131t-13 189.5zM479 421q0 45 -0.5 68.5t-3 56t-7.5 49t-14.5 33.5t-24 23.5
t-35.5 6.5t-36 -6.5t-24 -23.5t-14.5 -33.5t-8 -49t-3 -56t-0.5 -68.5t0.5 -68t3 -55.5t8 -49t14.5 -33.5t24 -23.5t36 -6.5q16 0 28 3.5t21 13.5t15.5 19t10 28.5t6 33t3.5 41.5t1 45v52z" />
    <glyph glyph-name="one.denominator" horiz-adv-x="534" 
d="M444 2h-241v604q-57 -11 -166 -20l-11 189q143 21 236 66h182v-839z" />
    <glyph glyph-name="two.denominator" horiz-adv-x="737" 
d="M668 0h-632q35 201 58 265q35 101 114 157q41 28 102 54q62 26 87.5 48t25.5 56q0 43 -30.5 57t-122.5 14q-71 0 -196 -22l-23 186q166 34 300 34q56 0 101 -6t86.5 -21.5t69.5 -41t44.5 -66.5t16.5 -95q0 -117 -61.5 -195t-190.5 -128q-55 -21 -78 -42.5t-29 -51.5h358
v-202z" />
    <glyph glyph-name="three.denominator" horiz-adv-x="717" 
d="M328 850q71 0 124.5 -9.5t101.5 -33.5t74 -72t26 -119q0 -116 -102 -172q65 -27 89 -67t24 -104q0 -153 -85.5 -216.5t-254.5 -63.5q-21 0 -40.5 0.5t-44 3t-36.5 3.5t-42.5 6t-36.5 6t-44.5 7.5t-41.5 7.5l26 186q162 -21 228 -21q67 0 94 15t27 60q0 62 -56 68
q-79 10 -176 10h-20v174q84 1 195 18q50 8 50 63q0 32 -23.5 43t-67.5 11q-81 0 -245 -21l-24 182q173 35 281 35z" />
    <glyph glyph-name="four.denominator" horiz-adv-x="772" 
d="M400 0v176h-217q-80 0 -112.5 29t-32.5 87q0 19 3 34.5t19 46.5t46 69l246 316q43 56 77 73.5t85 17.5q53 0 87.5 -34t34.5 -95v-358h93v-186h-93v-176h-236zM401 362v165l-120 -165h120z" />
    <glyph glyph-name="five.denominator" horiz-adv-x="734" 
d="M45 30l26 185q154 -22 229 -22q71 0 96.5 19t25.5 79q0 46 -35 62t-115 16q-104 0 -206 -6l34 479h556v-199h-344l-6 -87q6 0 16.5 0.5t14.5 0.5q62 0 108.5 -6t91 -24t73 -48t46 -80t17.5 -119q0 -149 -83.5 -217.5t-249.5 -68.5q-149 0 -295 36z" />
    <glyph glyph-name="six.denominator" horiz-adv-x="769" 
d="M659 844l19 -179h-19q-16 0 -55.5 1t-61.5 1q-47 0 -82 -4t-70.5 -15.5t-55.5 -35.5t-22 -60q45 5 85 5q80 0 136.5 -12.5t100.5 -42.5t66 -85.5t22 -136.5q0 -85 -24 -143t-71 -89.5t-105.5 -44.5t-139.5 -13q-96 0 -161 24t-99.5 73t-48.5 110.5t-14 149.5
q0 149 18.5 239.5t71.5 152t141.5 85t233.5 23.5q9 0 135 -3zM378 376q-45 0 -76 -4q-2 -30 -2 -48q0 -67 16 -104.5t63 -37.5q59 0 79.5 21.5t20.5 79.5q0 52 -25.5 72.5t-75.5 20.5z" />
    <glyph glyph-name="seven.denominator" horiz-adv-x="681" 
d="M80 2l312 636h-357v203h491q66 0 101 -27.5t35 -77.5q0 -30 -16 -65l-299 -669h-267z" />
    <glyph glyph-name="eight.denominator" horiz-adv-x="762" 
d="M173 436q-52 30 -82 74t-30 116q0 224 322 224q321 0 321 -224q0 -69 -25 -110t-87 -77q58 -36 89.5 -80t31.5 -111q0 -76 -25 -128t-73 -79t-103 -37.5t-129 -10.5q-160 0 -246.5 58t-86.5 196q0 65 30.5 106.5t92.5 82.5zM347 348q-58 -19 -58 -97q0 -39 24 -54.5
t70 -15.5q91 0 91 70q0 48 -23 67.5t-104 29.5zM474 604q0 35 -22.5 48.5t-68.5 13.5q-44 0 -66.5 -13.5t-22.5 -48.5q0 -37 23.5 -56t99.5 -24q30 11 43.5 28t13.5 52z" />
    <glyph glyph-name="nine.denominator" horiz-adv-x="769" 
d="M109 -1l-19 179h23q16 0 54 -1t59 -1q47 0 82 4t70.5 15t55.5 35t22 60q-54 -4 -85 -4q-80 0 -136.5 12.5t-100.5 42.5t-66 85.5t-22 136.5q0 85 24 143t71 89.5t105.5 44.5t139.5 13q96 0 161 -24t99.5 -73t48.5 -110.5t14 -149.5q0 -149 -18.5 -239.5t-71 -152
t-141 -85t-233.5 -23.5q-10 0 -136 3zM390 466q38 0 76 5q2 30 2 47q0 67 -16 105t-63 38q-59 0 -79.5 -21.5t-20.5 -79.5q0 -52 25.5 -73t75.5 -21z" />
    <glyph glyph-name="zero.onum" horiz-adv-x="1172" 
d="M586 -15q-121 0 -207 24.5t-141 70t-87 121.5t-44 165.5t-12 216.5t12 216.5t44 165.5t87 121.5t141 70t207 24.5t207 -24.5t141 -70t87 -121.5t44 -165.5t12 -216.5t-12 -216.5t-44 -165.5t-87 -121.5t-141 -70t-207 -24.5zM586 275q29 0 51 8t36.5 19t24.5 36t15 43.5
t7.5 58.5t3 65t0.5 78t-0.5 78t-3 65t-7.5 58.5t-15 43.5t-24.5 36t-36.5 19t-51 8q-23 0 -41 -5t-32 -11.5t-24.5 -21.5t-17.5 -27.5t-11.5 -37t-7 -41.5t-4 -49.5t-1.5 -53.5v-61v-61t1.5 -53.5t4 -49.5t7 -41.5t11.5 -37t17.5 -27.5t24.5 -21.5t32 -11.5t41 -5z" />
    <glyph glyph-name="one.onum" horiz-adv-x="787" 
d="M390 1167h264v-1167h-349v815q-112 -23 -251 -33l-15 286q193 28 351 99z" />
    <glyph glyph-name="two.onum" horiz-adv-x="1064" 
d="M445 305h519v-305h-913q51 265 79 351q46 143 135 219q68 58 187 105q92 36 131.5 63.5t39.5 63.5q0 49 -46.5 64.5t-186.5 15.5q-112 0 -278 -27l-38 282q245 44 435 44q81 0 145.5 -8.5t124 -30.5t99.5 -58t63.5 -94t23.5 -135q0 -168 -88.5 -277.5t-274.5 -175.5
q-135 -48 -157 -97z" />
    <glyph glyph-name="three.onum" horiz-adv-x="1067" 
d="M488 1181q83 0 148.5 -8t130.5 -31t108.5 -61.5t70 -102.5t26.5 -151q0 -178 -149 -261q97 -41 132.5 -100.5t35.5 -158.5q0 -120 -34 -203t-102 -131t-158 -69t-213 -21q-166 0 -426 50l39 281q243 -32 339 -32q105 0 149 23.5t44 91.5q0 94 -94 105q-139 16 -271 16
h-19v263q131 1 289 26q43 7 63 29t20 67q0 49 -37.5 66t-108.5 17q-119 0 -363 -31l-37 277q245 49 417 49z" />
    <glyph glyph-name="four.onum" horiz-adv-x="1152" 
d="M606 -104v266h-339q-115 0 -162.5 44t-47.5 129q0 30 3.5 50.5t27.5 70t71 109.5l373 479q66 85 115.5 111t122.5 26q77 0 126 -50t49 -144v-543h142v-282h-142v-266h-339zM408 444h199v274z" />
    <glyph glyph-name="five.onum" horiz-adv-x="1093" 
d="M976 1167v-302h-521l-10 -132q19 1 56 1q91 0 160.5 -9.5t136 -36t109.5 -72t69 -121.5t26 -180q0 -227 -124.5 -330t-371.5 -103q-221 0 -438 52l39 280q213 -32 338 -32q114 0 154.5 29.5t40.5 120.5q0 69 -55.5 94t-182.5 25q-148 0 -301 -9l50 725h825z" />
    <glyph glyph-name="six.onum" horiz-adv-x="1144" 
d="M979 1280l27 -271h-37q-26 0 -79 0.5t-78 0.5q-63 0 -108 -3t-93.5 -13t-79.5 -28.5t-52.5 -51t-25.5 -77.5q88 8 137 8q119 0 203 -18.5t149.5 -64.5t98 -130t32.5 -208q0 -104 -24 -181t-66 -126t-107 -79t-138.5 -41.5t-169.5 -11.5q-144 0 -240 36.5t-148 110.5
t-72.5 167t-20.5 226q0 150 11.5 257t42 195.5t80 143.5t128.5 93.5t183.5 54t249.5 15.5q70 0 197 -4zM434 492q0 -47 4.5 -81.5t17.5 -67.5t40 -50t67 -17q95 0 128 32.5t33 120.5q0 79 -41.5 110.5t-121.5 31.5q-67 0 -125 -8q-2 -23 -2 -71z" />
    <glyph glyph-name="seven.onum" horiz-adv-x="1013" 
d="M593 861h-541v306h735q96 0 147 -42t51 -117q0 -43 -24 -98l-453 -1014h-388z" />
    <glyph glyph-name="eight.onum" horiz-adv-x="1134" 
d="M1046 945q0 -106 -36.5 -168t-128.5 -116q87 -54 133.5 -120t46.5 -169q0 -93 -25.5 -162.5t-68.5 -112t-108 -68t-133.5 -35t-155.5 -9.5q-115 0 -202 19t-155 62.5t-103 120t-35 184.5q0 70 25.5 124.5t61 88t94.5 72.5q-49 28 -82 60.5t-57.5 91.5t-24.5 137
q0 339 478 339q476 0 476 -339zM717 375q0 51 -14 77.5t-58 44.5t-133 28q-44 -14 -69 -52t-25 -98q0 -59 39 -82t113 -23q147 0 147 105zM570 1006q-71 0 -108 -20.5t-37 -73.5q0 -28 6.5 -46.5t26.5 -35.5t61 -26.5t105 -13.5q47 16 70 43t23 79q0 53 -36.5 73.5
t-110.5 20.5z" />
    <glyph glyph-name="nine.onum" horiz-adv-x="1145" 
d="M163 -114l-27 271h37q26 0 79 -0.5t78 -0.5q63 0 108 3t93.5 13t79.5 28.5t52.5 51t25.5 77.5q-88 -8 -137 -8q-119 0 -203 18.5t-149.5 64.5t-98 130t-32.5 208q0 104 24 181t66 126t107 79t138.5 41.5t169.5 11.5q144 0 240 -36.5t148 -110.5t72.5 -167t20.5 -226
q0 -150 -11.5 -256.5t-42 -195t-80 -144t-128.5 -93.5t-183.5 -53.5t-249.5 -15.5q-102 0 -197 3zM708 674q0 47 -4.5 81.5t-17.5 67.5t-40 50t-67 17q-95 0 -128 -32.5t-33 -120.5q0 -79 41.5 -110.5t121.5 -31.5q67 0 125 8q2 23 2 71z" />
    <glyph glyph-name="dollar.onum" horiz-adv-x="1026" 
d="M100 309q198 -33 346 -33q79 0 114 22.5t35 73.5q0 47 -33.5 71.5t-122.5 52.5q-94 30 -155.5 59.5t-112.5 75.5t-75 111.5t-24 155.5q0 176 80.5 265t243.5 111v176h241v-169q153 -10 303 -47l-33 -269q-187 34 -302 34q-40 0 -66.5 -2t-57 -9.5t-46 -25.5t-15.5 -46
q0 -20 8.5 -35.5t19.5 -25.5t38.5 -21t48 -17.5t66.5 -19.5q194 -54 272.5 -147t78.5 -262q0 -176 -81.5 -269.5t-241.5 -120.5v-179h-241v168q-164 8 -323 45z" />
    <glyph glyph-name="cent.onum" horiz-adv-x="877" 
d="M785 430l27 -251q-91 -26 -209 -38v-173h-227v171q-76 11 -131.5 45.5t-87.5 80.5t-50.5 112t-24.5 127t-6 139q0 87 7.5 151.5t27.5 123t53.5 98.5t86.5 68.5t125 40.5v176h227v-169q104 -9 207 -43l-27 -242q-139 29 -197 29q-59 0 -94.5 -11t-54.5 -41t-25 -70
t-6 -111q0 -36 0.5 -58.5t3.5 -49.5t8 -42.5t14 -33t22.5 -26.5t32.5 -17.5t44 -11.5t58 -3q59 0 196 29z" />
    <glyph glyph-name="Euro.onum" horiz-adv-x="1028" 
d="M74 665l38 179h75q16 156 64.5 250.5t145 142t250.5 47.5q180 0 308 -49l-27 -278q-125 27 -234 27q-73 0 -112 -36t-53 -104h344l-38 -179h-320v-61h307l-39 -178h-255q14 -70 52.5 -105.5t113.5 -35.5q119 0 233 27l28 -280q-127 -47 -308 -47q-228 0 -332 103.5
t-128 337.5h-126l37 178h80v61h-104z" />
    <glyph glyph-name="sterling.onum" horiz-adv-x="1140" 
d="M239 518h-171v254h137q-5 47 -5 130q0 90 25 157.5t67 110t104.5 69t129.5 36.5t150 10q60 0 110 -10t84 -22.5t75 -42.5t64 -51t71 -67l-177 -210q-63 58 -109.5 84.5t-110.5 26.5q-79 0 -109 -30.5t-30 -99.5q0 -29 4 -91h259v-254h-239q1 -15 1 -47q0 -77 -32 -177
h139q173 0 343 27l28 -274q-170 -47 -458 -47h-271q-86 0 -128 39t-42 100q0 31 14.5 67t32.5 65.5t32.5 79.5t14.5 106q0 31 -3 61z" />
    <glyph glyph-name="yen.onum" horiz-adv-x="1150" 
d="M399 1272l179 -424l186 424h338l-241 -529h124v-201h-216l-24 -52v-57h240v-200h-240v-233h-340v233h-238v200h238v58l-23 51h-215v201h122l-240 529h350z" />
    <glyph glyph-name="zero.tnum" horiz-adv-x="1210" 
d="M605 -15q-132 0 -225.5 29t-153.5 82.5t-94.5 143.5t-47.5 196.5t-13 257.5t13 257.5t47.5 196.5t94.5 143.5t153.5 82.5t225.5 29t225.5 -29t153.5 -82.5t94.5 -143.5t47.5 -196.5t13 -257.5t-13 -257.5t-47.5 -196.5t-94.5 -143.5t-153.5 -82.5t-225.5 -29zM605 291
q39 0 67 11t45.5 41t27.5 56t14 83.5t5 95t1 116.5q0 78 -1 116.5t-5 95.5t-14.5 84t-27.5 56.5t-45 41t-67 11.5q-24 0 -43.5 -4t-34.5 -15t-27 -22t-20.5 -31.5t-14.5 -37.5t-10 -47t-6.5 -52t-3.5 -60.5t-1 -64v-71.5q0 -78 1 -116.5t5 -95t14.5 -83.5t27.5 -56.5
t45.5 -40.5t67.5 -11z" />
    <glyph glyph-name="one.tnum" horiz-adv-x="1210" 
d="M887 0h-370v1016q-91 -22 -278 -38l-16 302q221 34 381 109h283v-1389z" />
    <glyph glyph-name="two.tnum" horiz-adv-x="1210" 
d="M488 321h601v-321h-1021q52 292 80 387q49 164 141 254q79 77 226 139q108 46 154 85.5t46 97.5q0 77 -54.5 101t-219.5 24q-130 0 -313 -32l-36 294q263 53 485 53q91 0 163 -9.5t139 -35.5t112 -67.5t71.5 -108t26.5 -155.5q0 -198 -97 -324.5t-311 -207.5
q-106 -40 -145.5 -78.5t-47.5 -95.5z" />
    <glyph glyph-name="three.tnum" horiz-adv-x="1210" 
d="M555 1403q90 0 161.5 -8.5t142.5 -33.5t117.5 -66.5t75.5 -111t29 -163.5q0 -91 -42.5 -168t-132.5 -121q112 -44 153.5 -109.5t41.5 -175.5q0 -130 -37 -220.5t-111 -142.5t-171.5 -75t-231.5 -23q-27 0 -54.5 1t-49 2t-51.5 4l-45 4.5t-48.5 6.5t-42.5 6t-45.5 7.5
t-40.5 7.5t-45 8l-40 8l42 295q250 -33 366 -33q121 0 170.5 27t49.5 107q0 57 -27 86.5t-83 36.5q-143 17 -294 17h-18v275q137 3 312 29q50 8 74 34.5t24 79.5q0 58 -43 78.5t-125 20.5q-127 0 -395 -34l-38 290q268 54 452 54z" />
    <glyph glyph-name="four.tnum" horiz-adv-x="1210" 
d="M646 0v293h-381q-123 0 -174 47.5t-51 136.5q0 34 3 54.5t29 74t79 120.5l411 529q71 91 125 119.5t133 28.5q82 0 133.5 -53.5t51.5 -153.5v-607h156v-296h-156v-293h-359zM405 589h242v334z" />
    <glyph glyph-name="five.tnum" horiz-adv-x="1210" 
d="M1070 1389v-319h-574l-11 -161q23 1 70 1q70 0 126.5 -5t114.5 -18t102 -34.5t83 -56.5t64.5 -82t40 -112.5t14.5 -146.5q0 -246 -136 -358t-404 -112q-239 0 -474 56l40 295q240 -34 367 -34q129 0 175.5 33.5t46.5 138.5q0 82 -62.5 110.5t-206.5 28.5q-138 0 -325 -10
l54 786h895z" />
    <glyph glyph-name="six.tnum" horiz-adv-x="1210" 
d="M1047 1399l29 -284h-38q-26 0 -81 0.5t-83 0.5q-58 0 -102.5 -2.5t-94.5 -9.5t-85 -21.5t-65 -36.5t-45.5 -57t-15.5 -80q82 10 159 10q103 0 180.5 -12.5t145 -43.5t110 -82t66.5 -131t24 -188q0 -113 -26 -196.5t-72 -137t-117 -86t-151 -45t-184 -12.5q-126 0 -218 27
t-150.5 75t-93.5 124t-48.5 162t-13.5 201q0 164 13 280.5t46 213.5t87 157.5t140.5 102t201 58.5t272.5 17q71 0 210 -4zM781 467q0 93 -48 129t-140 36q-76 0 -144 -10q-4 -52 -4 -84q0 -43 3 -75.5t12.5 -66.5t25 -55.5t43.5 -35.5t66 -14q109 0 147.5 37.5t38.5 138.5z
" />
    <glyph glyph-name="seven.tnum" horiz-adv-x="1210" 
d="M712 1065h-601v324h804q102 0 156.5 -45t54.5 -124q0 -44 -26 -105l-498 -1115h-412z" />
    <glyph glyph-name="eight.tnum" horiz-adv-x="1210" 
d="M69 403q0 59 14.5 106t45 84.5t63.5 64.5t84 60q-87 48 -138 121t-51 198q0 366 520 366q519 0 519 -366q0 -118 -41.5 -185.5t-147.5 -127.5q47 -29 80.5 -56.5t64 -65.5t45.5 -87.5t15 -109.5q0 -101 -28 -176.5t-74.5 -121.5t-117.5 -74t-145.5 -38t-169.5 -10
q-126 0 -220 20.5t-168 67.5t-112 130t-38 200zM778 409q0 58 -16 88.5t-66 50.5t-152 33q-111 -34 -111 -172q0 -70 44.5 -97.5t129.5 -27.5q171 0 171 125zM777 1000q0 62 -42.5 87t-127.5 25q-82 0 -124 -24.5t-42 -87.5q0 -33 7.5 -54.5t30 -41.5t69 -31t120.5 -15
q56 19 82.5 50t26.5 92z" />
    <glyph glyph-name="nine.tnum" horiz-adv-x="1210" 
d="M160 -10l-29 284h39q26 0 81 -0.5t83 -0.5q58 0 102.5 2.5t94.5 9.5t85 21.5t65 36.5t45.5 57t15.5 80q-82 -10 -159 -10q-103 0 -180.5 12.5t-145 43.5t-110 82t-66.5 131t-24 188q0 113 26 196.5t72 136.5t116.5 85.5t150.5 45t184 12.5q126 0 218 -27t150.5 -75
t93.5 -123.5t48.5 -161.5t13.5 -201q0 -164 -12.5 -281t-46 -213.5t-87 -157t-140 -102.5t-201 -59t-272.5 -17q-37 0 -211 5zM762 851q0 54 -5.5 93.5t-20 76.5t-46 56.5t-78.5 19.5q-109 0 -147.5 -37t-38.5 -138q0 -93 48 -129t140 -36q77 0 145 10q3 39 3 84z" />
    <glyph glyph-name="dollar.tnum" horiz-adv-x="1210" 
d="M155 326q224 -35 377 -35q90 0 130.5 26.5t40.5 87.5q0 54 -38 83t-138 61q-81 26 -138 50.5t-110 60t-84.5 79.5t-50 105.5t-18.5 140.5q0 192 89 288.5t269 120.5v193h250v-187q183 -11 334 -49l-34 -283q-197 36 -328 36q-46 0 -76 -2.5t-65 -11.5t-52.5 -30.5
t-17.5 -54.5q0 -58 40.5 -82t164.5 -57q217 -58 300 -157.5t83 -286.5q0 -191 -90 -293t-267 -131v-196h-252v185q-177 8 -355 49z" />
    <glyph glyph-name="cent.tnum" horiz-adv-x="1210" 
d="M980 460l29 -263q-107 -30 -230 -41v-190h-235v188q-84 11 -145.5 48.5t-96.5 87.5t-56 122.5t-27.5 139.5t-6.5 152q0 95 8.5 166t30.5 134.5t59.5 107t95.5 74t138 43.5v193h235v-185q120 -9 228 -46l-28 -254q-149 31 -211 31q-68 0 -108 -12.5t-62 -46.5t-29 -79.5
t-7 -125.5q0 -47 1 -75.5t5.5 -61t13 -51t23.5 -37.5t38 -28t54.5 -15t74.5 -6q66 0 208 30z" />
    <glyph glyph-name="Euro.tnum" horiz-adv-x="1210" 
d="M128 736l39 182h84q25 257 138 371t362 114q197 0 332 -51l-28 -292q-130 27 -252 27q-87 0 -131 -43t-60 -126h379l-39 -182h-354v-83h337l-39 -181h-285q15 -84 59 -127t133 -43q135 0 251 27l29 -295q-130 -49 -332 -49q-249 0 -362 114.5t-138 372.5h-137l38 181h90
v83h-114z" />
    <glyph glyph-name="sterling.tnum" horiz-adv-x="1210" 
d="M248 571h-189v266h152q-6 67 -6 151q0 97 27 170.5t73 119.5t113.5 74.5t141 39.5t163.5 11q65 0 119 -10.5t91 -24t80.5 -45.5t69 -54.5t75.5 -71.5l-185 -220q-67 63 -118 91t-124 28q-92 0 -126.5 -35t-34.5 -116q0 -61 5 -108h285v-266h-264q1 -20 1 -59
q0 -95 -37 -202h163q189 0 371 29l30 -289q-186 -50 -497 -50h-299q-91 0 -135.5 41t-44.5 105q0 34 16 73t35.5 71.5t35.5 88t16 118.5q0 37 -3 74z" />
    <glyph glyph-name="yen.tnum" horiz-adv-x="1210" 
d="M1050 463v-206h-265v-257h-361v257h-263v206h263v73l-28 62h-235v208h140l-265 583h370l201 -480l211 480h356l-266 -583h142v-208h-237l-28 -63v-72h265z" />
    <glyph glyph-name="period.tnum" horiz-adv-x="605" 
d="M98 178q0 110 43 150.5t161 40.5q117 0 161 -41t44 -150q0 -110 -43.5 -151.5t-161.5 -41.5t-161 41.5t-43 151.5z" />
    <glyph glyph-name="comma.tnum" horiz-adv-x="605" 
d="M544 357l-241 -618h-281l137 618h385z" />
    <glyph glyph-name="colon.tnum" horiz-adv-x="605" 
d="M98 178q0 110 43 150.5t161 40.5q117 0 161 -41t44 -150q0 -110 -43.5 -151.5t-161.5 -41.5t-161 41.5t-43 151.5zM98 844q0 110 43 150.5t161 40.5q117 0 161 -41t44 -150q0 -110 -43.5 -151.5t-161.5 -41.5t-161 41.5t-43 151.5z" />
    <glyph glyph-name="semicolon.tnum" horiz-adv-x="605" 
d="M559 844q0 -110 -43 -151.5t-161 -41.5t-161.5 41.5t-43.5 151.5t43.5 150.5t161.5 40.5q117 0 160.5 -40.5t43.5 -150.5zM299 -261h-281l137 618h384z" />
    <glyph glyph-name="zero.onum_tnum" horiz-adv-x="1112" 
d="M556 -15q-121 0 -207 24.5t-141 70t-87 121.5t-44 165.5t-12 216.5t12 216.5t44 165.5t87 121.5t141 70t207 24.5q101 0 177 -16t130.5 -50.5t90 -82t56 -117.5t28.5 -148.5t8 -183.5t-8 -183.5t-28.5 -148.5t-56 -117.5t-90 -82t-130.5 -50.5t-177 -16zM556 275
q29 0 51 8t36.5 19t24.5 36t15 43.5t7.5 58.5t3 65t0.5 78t-0.5 78t-3 65t-7.5 58.5t-15 43.5t-24.5 36t-36.5 19t-51 8q-23 0 -41 -5t-32 -11.5t-24.5 -21.5t-17.5 -27.5t-11.5 -37t-7 -41.5t-4 -49.5t-1.5 -53.5v-61v-61t1.5 -53.5t4 -49.5t7 -41.5t11.5 -37t17.5 -27.5
t24.5 -21.5t32 -11.5t41 -5z" />
    <glyph glyph-name="one.onum_tnum" horiz-adv-x="1112" 
d="M552 1167h265v-1167h-349v815q-112 -23 -251 -33l-15 286q192 28 350 99z" />
    <glyph glyph-name="two.onum_tnum" horiz-adv-x="1112" 
d="M469 305h519v-305h-913q51 265 79 351q46 143 135 219q68 58 187 105q92 36 131.5 63.5t39.5 63.5q0 49 -46.5 64.5t-186.5 15.5q-112 0 -278 -27l-38 282q245 44 435 44q81 0 145.5 -8.5t124 -30.5t99.5 -58t63.5 -94t23.5 -135q0 -168 -88.5 -277.5t-274.5 -175.5
q-135 -48 -157 -97z" />
    <glyph glyph-name="three.onum_tnum" horiz-adv-x="1112" 
d="M511 1181q83 0 148.5 -8t130.5 -31t108 -61.5t69.5 -102.5t26.5 -151q0 -178 -149 -261q97 -41 132.5 -100.5t35.5 -158.5q0 -120 -34 -203t-102 -131t-158 -69t-213 -21q-166 0 -426 50l39 281q243 -32 339 -32q105 0 149 23.5t44 91.5q0 94 -94 105q-139 16 -271 16
h-19v263q131 1 289 26q43 7 63 29t20 67q0 49 -37.5 66t-108.5 17q-119 0 -363 -31l-37 277q245 49 418 49z" />
    <glyph glyph-name="four.onum_tnum" horiz-adv-x="1112" 
d="M586 -104v266h-339q-115 0 -163 44.5t-48 128.5q0 30 3.5 50.5t27.5 70t71 109.5l374 479q66 85 115.5 111t122.5 26q77 0 126 -50t49 -144v-543h142v-282h-142v-266h-339zM388 444h199v274z" />
    <glyph glyph-name="five.onum_tnum" horiz-adv-x="1112" 
d="M986 1167v-302h-521l-10 -132q19 1 56 1q91 0 160.5 -9.5t136 -36t109.5 -72t69 -121.5t26 -180q0 -227 -124.5 -330t-371.5 -103q-221 0 -438 52l39 280q213 -32 338 -32q113 0 153.5 29.5t40.5 120.5q0 70 -55.5 94.5t-181.5 24.5q-148 0 -301 -9l49 725h826z" />
    <glyph glyph-name="six.onum_tnum" horiz-adv-x="1112" 
d="M963 1280l28 -271h-38q-26 0 -79 0.5t-78 0.5q-63 0 -108 -3t-93.5 -13t-79.5 -28.5t-52.5 -51t-25.5 -77.5q88 8 138 8q94 0 165.5 -11t133 -39.5t100.5 -76t61 -121t22 -173.5q0 -104 -24 -181t-66 -126t-107 -79t-138.5 -41.5t-169.5 -11.5q-144 0 -240 36.5
t-148 110.5t-72.5 167t-20.5 226q0 150 11.5 257t42 195.5t80 143.5t128.5 93.5t183.5 54t249.5 15.5q70 0 197 -4zM418 492q0 -47 4.5 -81.5t17.5 -67.5t40 -50t67 -17q95 0 128 32.5t33 120.5q0 79 -41.5 110.5t-121.5 31.5q-67 0 -125 -8q-2 -23 -2 -71z" />
    <glyph glyph-name="seven.onum_tnum" horiz-adv-x="1112" 
d="M643 861h-541v306h735q96 0 147 -42t51 -117q0 -43 -24 -98l-453 -1014h-388z" />
    <glyph glyph-name="eight.onum_tnum" horiz-adv-x="1112" 
d="M1034 945q0 -106 -36.5 -168t-128.5 -116q87 -54 133.5 -120t46.5 -169q0 -93 -25.5 -162.5t-68.5 -112t-108 -68t-133.5 -35t-155.5 -9.5q-115 0 -202 19t-155 62.5t-103 120t-35 184.5q0 101 45.5 163.5t136.5 121.5q-77 44 -121 110t-44 179q0 339 478 339
q476 0 476 -339zM705 375q0 51 -13.5 77.5t-57.5 44.5t-133 28q-44 -14 -69 -52t-25 -98q0 -59 38.5 -82t112.5 -23q147 0 147 105zM558 1006q-71 0 -107.5 -20.5t-36.5 -73.5q0 -28 6.5 -46.5t26 -35.5t60.5 -26.5t105 -13.5q47 16 70 43t23 79q0 53 -36.5 73.5
t-110.5 20.5z" />
    <glyph glyph-name="nine.onum_tnum" horiz-adv-x="1112" 
d="M146 -114l-27 271h37q26 0 79 -0.5t78 -0.5q63 0 108 3t93.5 13t79.5 28.5t52.5 51t25.5 77.5q-88 -8 -137 -8q-119 0 -203 18.5t-149.5 64.5t-98 130t-32.5 208q0 104 24 181t66 126t107 79t138.5 41.5t169.5 11.5q144 0 240 -36.5t148 -110.5t72.5 -167t20.5 -226
q0 -150 -11.5 -256.5t-42 -195t-80 -144t-128.5 -93.5t-183.5 -53.5t-249.5 -15.5q-102 0 -197 3zM691 674q0 47 -4.5 81.5t-17.5 67.5t-40 50t-67 17q-95 0 -128 -32.5t-33 -120.5q0 -79 41.5 -110.5t121.5 -31.5q67 0 125 8q2 23 2 71z" />
    <glyph glyph-name="dollar.onum_tnum" horiz-adv-x="1112" 
d="M143 309q198 -33 346 -33q79 0 114 22.5t35 73.5q0 47 -33.5 71.5t-122.5 52.5q-94 30 -155.5 59.5t-112.5 75.5t-75 111.5t-24 155.5q0 176 80.5 265t243.5 111v176h241v-169q153 -10 303 -47l-33 -269q-187 34 -302 34q-40 0 -66.5 -2t-57 -9.5t-46 -25.5t-15.5 -46
q0 -20 8.5 -35.5t19.5 -25.5t38.5 -21t48 -17.5t66.5 -19.5q194 -54 272.5 -147t78.5 -262q0 -176 -81.5 -269.5t-241.5 -120.5v-179h-241v168q-164 8 -323 45z" />
    <glyph glyph-name="cent.onum_tnum" horiz-adv-x="1112" 
d="M902 430l27 -251q-91 -26 -209 -38v-173h-227v171q-76 11 -131.5 45.5t-87.5 80.5t-50.5 112t-24.5 127t-6 139q0 87 7.5 151.5t27.5 123t53.5 98.5t86.5 68.5t125 40.5v176h227v-169q104 -9 207 -43l-26 -242q-139 29 -197 29q-59 0 -94.5 -11t-55 -40.5t-25.5 -70
t-6 -111.5q0 -48 1.5 -76.5t7.5 -60t17.5 -48t32 -31.5t51 -20.5t74.5 -5.5q58 0 195 29z" />
    <glyph glyph-name="Euro.onum_tnum" horiz-adv-x="1112" 
d="M116 665l38 179h75q16 156 64.5 250.5t145 142t250.5 47.5q180 0 308 -49l-27 -278q-125 27 -234 27q-73 0 -112 -36t-53 -104h343l-37 -179h-320v-61h306l-38 -178h-255q14 -70 52.5 -105.5t113.5 -35.5q119 0 233 27l28 -280q-127 -47 -308 -47q-228 0 -332 103.5
t-128 337.5h-126l37 178h80v61h-104z" />
    <glyph glyph-name="sterling.onum_tnum" horiz-adv-x="1112" 
d="M225 518h-172v254h138q-5 47 -5 130q0 90 25 157.5t67 110t104.5 69t129.5 36.5t150 10q60 0 110 -10t83.5 -22.5t75 -42.5t64 -50.5t70.5 -67.5l-176 -210q-63 58 -109.5 84.5t-110.5 26.5q-79 0 -109 -30.5t-30 -99.5q0 -29 4 -91h259v-254h-239q1 -15 1 -47
q0 -77 -32 -177h139q173 0 343 27l28 -274q-170 -47 -458 -47h-271q-86 0 -128 39t-42 100q0 31 14.5 67t32.5 65.5t32.5 79.5t14.5 106q0 31 -3 61z" />
    <glyph glyph-name="yen.onum_tnum" horiz-adv-x="1112" 
d="M380 1272l179 -424l186 424h338l-241 -529h124v-201h-216l-24 -52v-57h240v-200h-240v-233h-340v233h-239v200h239v58l-23 51h-216v201h123l-240 529h350z" />
    <glyph glyph-name="parenleft.case" horiz-adv-x="725" 
d="M672 -33l-211 -177q-374 283 -374 924q0 640 374 922l212 -174q-65 -59 -111 -152t-69 -199t-32.5 -202t-9.5 -195q0 -559 221 -747z" />
    <glyph glyph-name="parenright.case" horiz-adv-x="725" 
d="M265 -210l-211 177q221 188 221 747q0 99 -9.5 195t-32.5 202t-69 199t-111 152l212 174q107 -81 182.5 -187.5t116 -229t57.5 -244.5t17 -261q0 -642 -373 -924z" />
    <glyph glyph-name="bracketleft.case" horiz-adv-x="729" 
d="M142 1623h528v-286h-188v-1241h187v-287h-527v1814z" />
    <glyph glyph-name="bracketright.case" horiz-adv-x="729" 
d="M248 1337h-189v286h528v-1814h-527v287h188v1241z" />
    <glyph glyph-name="braceleft.case" horiz-adv-x="742" 
d="M60 590v254q87 8 112.5 73t25.5 264q0 74 9 131.5t25 101t45 74.5t63 52.5t85.5 35.5t105 22t128.5 14l33 -260q-30 -3 -54 -9t-40.5 -16.5t-28.5 -19t-19.5 -25.5t-11.5 -27.5t-5.5 -32.5t-2 -32.5t-0.5 -36.5v-131q0 -46 -1.5 -76.5t-7.5 -72t-18 -69t-34.5 -52.5
t-54.5 -38q32 -15 55 -44t34.5 -59t18 -75.5t7.5 -77t1 -80.5v-98q0 -29 0.5 -41t3 -36.5t8.5 -36t17.5 -29t28.5 -26.5t43.5 -17.5t60.5 -12.5l-33 -260q-88 7 -148 17t-115.5 29t-89.5 49t-60 76t-37 110t-11 151q0 105 -4.5 162.5t-20 98.5t-41.5 56t-72 20z" />
    <glyph glyph-name="braceright.case" horiz-adv-x="742" 
d="M213 1153q0 33 -1 48.5t-5 42t-14 40t-27.5 30t-46.5 25.5t-69 13l34 260q106 -8 174 -21.5t127.5 -41.5t91.5 -74.5t49.5 -118t17.5 -175.5q0 -82 3.5 -134t11.5 -93t24.5 -62.5t39.5 -33t60 -14.5v-254q-37 -4 -60.5 -15.5t-40 -32.5t-24.5 -61.5t-11 -92t-3 -135.5
q0 -87 -11 -151t-36.5 -110t-59.5 -76t-89.5 -49.5t-115.5 -29t-148 -16.5l-34 260q34 4 60.5 12.5t43.5 17.5t29 26t17.5 29.5t8.5 36t3.5 36.5t0.5 41v98q0 49 1 80.5t7.5 77t18 75.5t34.5 59t55 44q-32 13 -55 38t-34.5 52t-18 69t-7.5 72t-1 77v131z" />
    <glyph glyph-name="questiondown.case" horiz-adv-x="1132" 
d="M491 917l4 85h322l6 -141q1 -12 1 -48q0 -76 -20 -125t-51.5 -69.5t-69.5 -30.5t-76.5 -15.5t-70 -17t-51.5 -43.5t-20 -86q0 -67 42.5 -96.5t147.5 -29.5q206 0 363 36l64 -302q-217 -56 -456 -56q-76 0 -134.5 4.5t-118.5 16.5t-103 33t-82 55t-62.5 81.5t-37.5 113.5
t-14 149q0 100 22.5 173t59 111.5t80.5 63t88 36t81 22t61 29.5t25 51zM656 1075q-112 0 -158 42t-46 140t46 140t158 42t157.5 -42t45.5 -140t-45.5 -140t-157.5 -42z" />
    <glyph glyph-name="exclamdown.case" horiz-adv-x="649" 
d="M324 1439q113 0 158.5 -42t45.5 -140t-45.5 -140t-158.5 -42q-112 0 -157.5 42t-45.5 140t45.5 140t157.5 42zM482 1002l50 -1009h-415l50 1009h315z" />
    <glyph glyph-name="at.case" horiz-adv-x="1792" 
d="M1671 1013q43 -131 43 -297q0 -380 -206.5 -555.5t-610.5 -175.5q-406 0 -612 175t-206 556q0 197 55 338.5t164.5 227t261.5 125t357 39.5q88 0 159 -18t129.5 -57.5t90.5 -110.5t32 -170v-416q0 -101 -11 -209q-65 -46 -183 -74t-255 -28q-224 0 -323.5 87.5
t-99.5 265.5q0 154 71 239.5t236 114.5q76 14 291 27q0 70 -32 96.5t-116 26.5q-135 0 -231.5 -24t-169.5 -81t-109 -156t-36 -243q0 -142 35 -240.5t106 -156t167 -82.5t229 -25q134 0 230.5 24.5t168 82t107 156t35.5 241.5q0 132 -28 222zM1054 735v174q-134 -5 -194 -22
q-74 -20 -101 -52t-27 -109q0 -87 43.5 -118.5t143.5 -31.5q26 0 68 9t62 21q5 49 5 129z" />
    <glyph glyph-name="guilsinglleft.case" horiz-adv-x="737" 
d="M393 716l277 -432h-317l-306 432l306 431h317z" />
    <glyph glyph-name="guilsinglright.case" horiz-adv-x="737" 
d="M67 284l278 432l-278 431h318l305 -431l-305 -432h-318z" />
    <glyph glyph-name="guillemotleft.case" horiz-adv-x="1255" 
d="M353 1147h317l-277 -431l277 -432h-317l-306 432zM871 1147h318l-278 -431l278 -432h-318l-305 432z" />
    <glyph glyph-name="guillemotright.case" horiz-adv-x="1255" 
d="M67 284l278 432l-278 431h318l305 -431l-305 -432h-318zM586 284l277 432l-277 431h317l306 -431l-306 -432h-317z" />
    <glyph glyph-name="hyphen.case" horiz-adv-x="804" 
d="M122 850h561v-269h-561v269z" />
    <glyph glyph-name="endash.case" horiz-adv-x="1230" 
d="M122 845h987v-259h-987v259z" />
    <glyph glyph-name="emdash.case" horiz-adv-x="2185" 
d="M122 845h1941v-259h-1941v259z" />
    <glyph glyph-name="periodcentered.case" horiz-adv-x="650" 
d="M325 524q-119 0 -162 41t-43 151t43.5 151t161.5 41q117 0 161 -41t44 -151t-43.5 -151t-161.5 -41z" />
    </font>
</defs>
</svg>
