<?xml version="1.0" standalone="no"?>
<!DOCTYPE svg PUBLIC "-//W3C//DTD SVG 1.1//EN" "http://www.w3.org/Graphics/SVG/1.1/DTD/svg11.dtd" >
<svg xmlns="http://www.w3.org/2000/svg" xmlns:xlink="http://www.w3.org/1999/xlink" version="1.1">
<metadata>
Created by FontForge 20170731 at Tue Oct 13 00:50:26 2020
 By Aleksey,,,
Copyright (c) 2011-2012 Durotype, www.durotype.com. All rights reserved.
</metadata>
<defs>
<font id="Flexo-LightIt" horiz-adv-x="1112" >
  <font-face 
    font-family="Flexo Light"
    font-weight="300"
    font-style="italic"
    font-stretch="normal"
    units-per-em="2048"
    panose-1="0 0 0 0 0 0 0 0 0 0"
    ascent="1618"
    descent="-430"
    x-height="1094"
    cap-height="1432"
    bbox="-372 -532 2403 1950"
    underline-thickness="102"
    underline-position="-345"
    slope="-9"
    unicode-range="U+0020-FB04"
  />
<missing-glyph horiz-adv-x="1343" 
d="M161 0v1475h1022v-1475h-1022zM611 737l-347 537v-1074zM1019 105l-347 538l-348 -538h695zM1019 1369h-695l348 -537zM1081 1274l-347 -537l347 -537v1074z" />
    <glyph glyph-name="f_f" unicode="ff" horiz-adv-x="1287" 
d="M170 1094h194l20 123q25 155 113 235t236 80q39 0 70 -6l-23 -89h-40q-210 0 -244 -214l-20 -129h515l20 123q25 155 113 235t236 80q37 0 70 -6l-23 -89h-40q-209 0 -243 -214l-20 -129h247l-15 -95h-248l-158 -999h-112l158 999h-515l-158 -999h-112l159 999h-196z" />
    <glyph glyph-name="fi" unicode="fi" horiz-adv-x="1122" 
d="M909 0h-112l158 999h-494l-159 -999h-112l159 999h-195l15 95h195l19 123q25 155 113 235t236 80q38 0 71 -6l-23 -89h-40q-102 0 -164 -50.5t-80 -163.5l-20 -129h607zM1152 1477q0 -10 -4 -42q-8 -53 -25.5 -73.5t-57.5 -20.5q-31 0 -43.5 12t-12.5 40q0 8 4 42
q8 53 26.5 75t56.5 22q30 0 43 -13t13 -42z" />
    <glyph glyph-name="fl" unicode="fl" horiz-adv-x="1133" 
d="M363 1094l20 123q25 155 113 235t236 80q183 0 413 -15l-194 -1223q-8 -48 -8 -99q0 -111 51 -191l-102 -53q-65 93 -65 221q0 43 10 111l182 1154h-280q-209 0 -243 -214l-20 -129h247l-15 -95h-247l-159 -999h-112l158 999h-194l15 95h194z" />
    <glyph glyph-name="f_f_i" unicode="ffi" horiz-adv-x="1750" 
d="M364 1094l19 123q25 155 113.5 235t236.5 80q37 0 70 -6l-23 -89h-40q-102 0 -164 -50.5t-80 -163.5l-20 -129h515l20 123q25 155 113 235t236 80q38 0 70 -6l-23 -89h-40q-102 0 -164 -50.5t-80 -163.5l-20 -129h607l-173 -1094h-113l159 999h-495l-158 -999h-112
l158 999h-515l-158 -999h-113l159 999h-195l15 95h195zM1693 1341q-31 0 -44 12t-13 40q0 5 1 11.5t2 15.5t2 15q8 54 26 75.5t57 21.5q30 0 42.5 -12.5t12.5 -42.5q0 -18 -3 -42q-8 -53 -25.5 -73.5t-57.5 -20.5z" />
    <glyph glyph-name="f_f_l" unicode="ffl" horiz-adv-x="1761" 
d="M1124 1223l-20 -129h247l-15 -95h-248l-158 -999h-112l158 999h-515l-158 -999h-112l159 999h-196l16 95h194l20 123q25 155 113 235t236 80q38 0 71 -6l-24 -89h-40q-210 0 -244 -214l-20 -129h515l20 123q25 155 113 235t236 80q183 0 413 -15l-194 -1223
q-8 -47 -8 -98q0 -112 51 -192l-101 -53q-66 94 -66 221q0 43 10 111l182 1154h-280q-209 0 -243 -214z" />
    <glyph glyph-name="f_b" unicode="fb" horiz-adv-x="1847" 
d="M364 1094l20 123q25 155 113 235t236 80q184 0 412 -15l-72 -453q175 45 330 45q196 0 284 -81t88 -270q0 -94 -19 -211q-26 -160 -69.5 -267t-113.5 -173t-162 -94t-221 -28q-232 0 -382 85q13 108 25 181l188 1186h-281q-102 0 -164 -50.5t-80 -163.5l-20 -129h248
l-16 -95h-247l-158 -999h-112l159 999h-196l16 95h194zM1206 85q201 0 299 105.5t137 356.5q20 127 20 196q0 145 -72 205t-248 60q-142 0 -285 -47l-101 -638q-11 -67 -26 -182q113 -56 276 -56z" />
    <glyph glyph-name="f_f_b" unicode="ffb" horiz-adv-x="2474" 
d="M1088 999l-158 -999h-112l158 999h-515l-159 -999h-112l159 999h-195l15 95h195l19 123q25 155 113 235t236 80q38 0 71 -6l-23 -89h-40q-102 0 -164 -50.5t-80 -163.5l-20 -129h515l20 123q25 155 113 235t236 80q182 0 412 -15l-72 -453q175 45 330 45q196 0 284 -80.5
t88 -270.5q0 -84 -19 -211q-26 -160 -69.5 -267t-113.5 -173t-162 -94t-221 -28q-232 0 -382 85q10 94 24 181l188 1186h-280q-210 0 -244 -214l-20 -129h248l-15 -95h-248zM1558 141q113 -56 275 -56q201 0 299.5 105.5t137.5 356.5q19 120 19 196q0 145 -72 205t-248 60
q-142 0 -285 -47l-101 -638q-14 -85 -25 -182z" />
    <glyph glyph-name="f_f_h" unicode="ffh" horiz-adv-x="2479" 
d="M476 1094h515l20 123q25 155 113 235t236 80q183 0 413 -15l-73 -455q173 46 339 47q106 1 178.5 -16t112.5 -51t56.5 -78.5t16.5 -106.5q0 -46 -13 -133l-114 -724h-112l109 692q12 79 12 123q0 103 -64 147.5t-234 44.5q-150 0 -303 -50l-152 -957h-111l226 1437h-280
q-209 0 -243 -214l-20 -129h247l-15 -95h-247l-159 -999h-112l158 999h-515l-158 -999h-112l159 999h-196l16 95h194l20 123q25 155 113 235t236 80q39 0 70 -6l-23 -89h-40q-210 0 -244 -214z" />
    <glyph glyph-name="f_f_j" unicode="ffj" horiz-adv-x="1781" 
d="M930 0h-112l158 999h-515l-159 -999h-112l159 999h-195l15 95h195l19 123q25 155 113 235t236 80q38 0 71 -6l-23 -89h-40q-102 0 -164 -50.5t-80 -163.5l-20 -129h515l20 123q25 155 113 235t236 80q38 0 70 -6l-23 -89h-40q-210 0 -244 -214l-20 -129h653l-177 -1111
q-34 -213 -127.5 -307t-261.5 -94q-19 0 -28 1l24 90q42 3 73 9.5t66 24.5t59.5 47t45.5 79.5t32 119.5l166 1046h-540zM1738 1341q-31 0 -43.5 11.5t-12.5 39.5q0 9 4 43q8 54 26 75.5t56 21.5q31 0 44 -12.5t13 -41.5q0 -9 -4 -43q-8 -53 -25.5 -73.5t-57.5 -20.5z" />
    <glyph glyph-name="f_f_k" unicode="ffk" horiz-adv-x="2304" 
d="M1624 583l573 511h143l-613 -544l473 -550h-155l-433 508l-80 -508h-112l227 1437h-280q-210 0 -244 -214l-20 -129h248l-15 -95h-248l-158 -999h-112l158 999h-515l-159 -999h-112l159 999h-195l15 95h195l19 123q25 155 113 235t236 80q38 0 71 -6l-23 -89h-40
q-102 0 -164 -50.5t-80 -163.5l-20 -129h515l20 123q25 155 113 235t236 80q184 0 412 -15z" />
    <glyph glyph-name="f_h" unicode="fh" horiz-adv-x="1851" 
d="M154 999l15 95h194l20 123q25 155 113 235t236 80q183 0 413 -15l-73 -455q175 46 339 47q106 1 178 -16t112 -51t57 -78.5t17 -106.5q0 -46 -13 -133l-114 -724h-112l110 692q11 72 11 122q0 104 -64 148.5t-234 44.5q-148 0 -303 -50l-152 -957h-112l227 1437h-280
q-209 0 -243 -214l-20 -129h247l-15 -95h-247l-159 -999h-112l158 999h-194z" />
    <glyph glyph-name="f_j" unicode="fj" horiz-adv-x="1154" 
d="M496 1223l-20 -129h652l-176 -1111q-34 -213 -128 -307t-262 -94q-18 0 -27 1l24 90q42 3 73 9.5t66 24.5t59.5 47t45.5 79.5t32 119.5l166 1046h-540l-159 -999h-112l159 999h-195l15 95h195l19 123q25 155 113 235t236 80q38 0 70 -6l-22 -89h-40q-102 0 -164 -50.5
t-80 -163.5zM1054 1393q0 5 1 11.5t2 15.5t2 15q8 54 26 75.5t56 21.5q31 0 44 -13t13 -42q0 -10 -4 -42q-8 -53 -25.5 -73.5t-57.5 -20.5q-31 0 -44 12t-13 40z" />
    <glyph glyph-name="f_k" unicode="fk" horiz-adv-x="1676" 
d="M169 1094h195l19 123q25 155 113 235t236 80q183 0 413 -15l-148 -934l573 511h143l-614 -544l474 -550h-155l-432 508l-81 -508h-112l227 1437h-280q-102 0 -164 -50.5t-80 -163.5l-20 -129h247l-15 -95h-247l-159 -999h-112l159 999h-195z" />
    <glyph glyph-name=".notdef" horiz-adv-x="1343" 
d="M161 0v1475h1022v-1475h-1022zM611 737l-347 537v-1074zM1019 105l-347 538l-348 -538h695zM1019 1369h-695l348 -537zM1081 1274l-347 -537l347 -537v1074z" />
    <glyph glyph-name=".null" horiz-adv-x="0" 
 />
    <glyph glyph-name="nonmarkingreturn" horiz-adv-x="682" 
 />
    <glyph glyph-name="space" unicode=" " horiz-adv-x="614" 
 />
    <glyph glyph-name="exclam" unicode="!" horiz-adv-x="447" 
d="M165 -15q-31 0 -44 11.5t-13 39.5q0 9 4 43q8 53 26.5 75t56.5 22q31 0 43.5 -13t12.5 -42q0 -10 -4 -42q-8 -53 -25 -73.5t-57 -20.5zM183 417l141 1015h139l-180 -1015h-100z" />
    <glyph glyph-name="quotedbl" unicode="&#x22;" horiz-adv-x="653" 
d="M206 966l72 551h126l-103 -551h-95zM463 966l72 551h124l-102 -551h-94z" />
    <glyph glyph-name="numbersign" unicode="#" horiz-adv-x="1123" 
d="M243 996h222q93 321 126 436h100l-128 -436h289q4 15 55.5 191t71.5 245h100l-127 -436h182l-16 -97h-195l-105 -364h187l-15 -97h-201l-128 -438h-99l128 438h-289l-128 -438h-99l128 438h-199l15 97h213l105 364h-208zM719 535l105 364h-289l-105 -364h289z" />
    <glyph glyph-name="dollar" unicode="$" horiz-adv-x="993" 
d="M790 363q4 27 4 54q0 51 -17.5 88t-57 65.5t-85 48t-120.5 43.5q-69 22 -113 39t-89.5 43t-70.5 54.5t-41 70t-16 94.5q0 29 7 78q28 178 133.5 261.5t294.5 97.5l31 195h95l-30 -192q165 -1 319 -28l-26 -96q-147 22 -260 22q-74 0 -131.5 -5.5t-112.5 -20.5t-93 -40.5
t-65 -67.5t-36 -99q-7 -41 -7 -78q0 -32 6 -55.5t22 -44t35.5 -36t55.5 -31.5t73 -29t95 -31q75 -23 128.5 -48.5t101 -63t71.5 -91t24 -121.5q0 -31 -6 -69q-28 -181 -135.5 -271.5t-295.5 -108.5l-31 -196h-95l30 191h-10q-192 0 -331 30l28 99q153 -26 313 -26
q67 0 120.5 7t103.5 25.5t86 49t61.5 79t36.5 114.5z" />
    <glyph glyph-name="percent" unicode="%" horiz-adv-x="1625" 
d="M431 598q-131 0 -185 56.5t-54 178.5q0 70 18 186q18 113 41 186t63 128.5t101 80.5t150 25q132 0 186.5 -57.5t54.5 -180.5q0 -69 -18 -182t-41.5 -186t-63.5 -129t-101.5 -81t-150.5 -25zM295 1019q-20 -136 -20 -181q0 -82 36.5 -123.5t129.5 -41.5q48 0 84.5 10.5
t63 34.5t44 50.5t31.5 71t21.5 82t17.5 97.5q20 136 20 179q0 83 -37 124.5t-130 41.5q-41 0 -74 -9t-57 -23t-43 -40t-31.5 -51t-23.5 -65t-17.5 -73t-14.5 -84zM1538 597q0 -68 -18 -183q-18 -113 -41.5 -186.5t-63.5 -129t-101.5 -80.5t-150.5 -25q-131 0 -185 56.5
t-54 177.5q0 71 18 187q18 113 41 185.5t63 128t101 80.5t150 25q132 0 186.5 -57t54.5 -179zM1007 232q0 -82 36.5 -123t128.5 -41q57 0 99 17.5t68 44t45 75.5t28.5 93t21.5 116q20 124 20 180q0 83 -36.5 124t-129.5 41q-57 0 -99 -17.5t-68 -44t-45 -75.5t-28.5 -92.5
t-20.5 -115.5q-20 -125 -20 -182zM282 -29l1060 1490h103l-1060 -1490h-103z" />
    <glyph glyph-name="ampersand" unicode="&#x26;" horiz-adv-x="1321" 
d="M654 760l305 -448q122 148 173 363l107 -6q-73 -280 -218 -447l153 -222h-145l-94 139q-182 -154 -451 -154q-197 0 -293 74.5t-96 225.5q0 49 8 94q12 76 47.5 139t92.5 112t115.5 84t137.5 72q-26 39 -41 64.5t-35.5 66t-30.5 81.5t-10 83q0 17 4 51q13 85 49.5 147
t90 98t116.5 52.5t138 16.5q127 0 207.5 -57t80.5 -177q0 -38 -4 -60q-10 -62 -38.5 -115t-63.5 -90.5t-90.5 -74t-101.5 -59.5t-113 -53zM602 835q53 25 82 39t73.5 38.5t70 45t54 48t43.5 58.5t21 66q5 35 5 57q0 87 -51 124t-145 37q-101 0 -172.5 -54t-89.5 -170
q-3 -18 -3 -36q0 -19 3.5 -38.5t7 -34t13.5 -36t14.5 -31.5t19 -32t17.5 -27.5t19.5 -29t17.5 -24.5zM877 225l-330 485q-55 -27 -93.5 -49t-82 -54.5t-71.5 -66.5t-50.5 -80.5t-30.5 -100.5q-4 -25 -4 -54q0 -63 26.5 -108t73 -68.5t98 -34t112.5 -10.5q196 0 352 141z" />
    <glyph glyph-name="quotesingle" unicode="'" horiz-adv-x="398" 
d="M206 966l72 551h126l-103 -551h-95z" />
    <glyph glyph-name="parenleft" unicode="(" horiz-adv-x="586" 
d="M406 -294l-80 -59q-186 218 -186 598q0 145 28 325q98 621 451 923l60 -59q-88 -77 -159 -185t-116.5 -228.5t-73.5 -228.5t-46 -222q-28 -175 -28 -329q0 -356 150 -535z" />
    <glyph glyph-name="parenright" unicode=")" horiz-adv-x="588" 
d="M272 1434l79 59q187 -220 187 -600q0 -143 -28 -323q-98 -621 -451 -923l-61 59q89 77 160 185.5t116.5 229t73.5 228t46 221.5q28 175 28 328q0 357 -150 536z" />
    <glyph glyph-name="asterisk" unicode="*" horiz-adv-x="949" 
d="M659 719l-113 271l-197 -272l-71 46l203 277h-317l14 88h314l-112 276l86 46l110 -272l200 272l68 -46l-200 -276h314l-14 -88h-315l113 -278z" />
    <glyph glyph-name="plus" unicode="+" horiz-adv-x="1173" 
d="M587 657l69 437h111l-68 -437h428l-17 -109h-429l-70 -440h-111l70 440h-427l17 109h427z" />
    <glyph glyph-name="comma" unicode="," horiz-adv-x="429" 
d="M15 -269l220 514h137l-258 -514h-99z" />
    <glyph glyph-name="hyphen" unicode="-" horiz-adv-x="810" 
d="M183 492l17 104h513l-17 -104h-513z" />
    <glyph glyph-name="period" unicode="." horiz-adv-x="414" 
d="M284 120q0 -9 -4 -41q-8 -53 -25.5 -73.5t-57.5 -20.5q-30 0 -42.5 12t-12.5 40q0 8 4 42q8 54 25.5 75.5t56.5 21.5q30 0 43 -13t13 -43z" />
    <glyph glyph-name="slash" unicode="/" horiz-adv-x="815" 
d="M-18 -165l829 1647h112l-831 -1647h-110z" />
    <glyph glyph-name="zero" unicode="0" horiz-adv-x="1253" 
d="M568 -15q-218 0 -308 95t-90 299q0 119 31 315q24 152 52.5 258t73.5 196t107.5 143.5t151 82.5t207.5 29q218 0 309 -95.5t91 -300.5q0 -125 -30 -313q-24 -151 -53 -257.5t-74 -196.5t-107.5 -143.5t-152 -82.5t-208.5 -29zM1048 694q34 213 34 314q0 146 -66 219.5
t-233 73.5q-74 0 -133.5 -16t-102.5 -41t-77 -70t-56.5 -89.5t-41.5 -114.5t-30.5 -128.5t-25.5 -147.5q-35 -221 -35 -317q0 -144 66 -216.5t232 -72.5q65 0 118.5 10.5t95 34.5t73.5 52t57.5 72.5t43.5 86.5t33.5 105t25.5 115.5t22 129.5z" />
    <glyph glyph-name="one" unicode="1" horiz-adv-x="685" 
d="M339 0l199 1256q-191 -54 -362 -81l10 102q206 32 395 112h92l-220 -1389h-114z" />
    <glyph glyph-name="two" unicode="2" horiz-adv-x="1055" 
d="M262 1365q217 38 403 38q410 0 410 -263q0 -34 -5 -62q-29 -184 -146.5 -299.5t-324.5 -196.5q-99 -39 -167.5 -84.5t-115.5 -106t-76 -125t-58 -160.5h734l-16 -106h-874q36 109 62 178t60 140.5t67.5 116.5t81.5 90t106.5 78t137.5 65q82 33 146.5 68.5t122.5 82
t94.5 105t46.5 126.5q4 27 4 56q0 105 -84 148.5t-276 43.5q-157 0 -337 -30z" />
    <glyph glyph-name="three" unicode="3" horiz-adv-x="1066" 
d="M1032 1081q-42 -265 -276 -349v-1q80 -21 138.5 -90.5t58.5 -178.5q0 -34 -5 -62q-18 -117 -65.5 -199t-123.5 -128.5t-169 -67t-215 -20.5q-198 0 -363 35l30 100q219 -29 310 -29q225 0 336.5 65.5t138.5 233.5q4 25 4 54q0 96 -58.5 153t-159.5 68q-80 8 -211 8h-60
l15 94q142 3 275 23q114 17 187.5 87t89.5 170q5 29 5 64q0 51 -17.5 86t-45 55t-76 30.5t-94 13.5t-116.5 3q-130 0 -328 -29l3 98q191 35 370 35q74 0 132 -6t115.5 -22.5t95 -44.5t61 -74t23.5 -109q0 -37 -5 -66z" />
    <glyph glyph-name="four" unicode="4" horiz-adv-x="1188" 
d="M734 0l54 342h-615q-97 0 -97 67q0 5 2 19q7 46 89 135l694 756q76 84 141 84q57 0 57 -63q0 -8 -2 -26l-138 -873h191l-15 -99h-192l-54 -342h-115zM932 1253l-742 -812h614z" />
    <glyph glyph-name="five" unicode="5" horiz-adv-x="1080" 
d="M318 821q93 6 165 6q81 0 142 -4.5t122 -16t103.5 -33t76.5 -54.5t50.5 -83t16.5 -115q0 -52 -8 -101q-36 -230 -175 -332.5t-384 -102.5q-195 0 -380 37l29 100q164 -29 317 -29q117 0 196 15.5t138.5 54t93 104.5t49.5 167q6 35 6 63q0 48 -14 85t-43.5 61.5
t-66.5 40.5t-91 25t-108.5 12t-127.5 3q-140 0 -240 -6l151 671h764l-17 -106h-660z" />
    <glyph glyph-name="six" unicode="6" horiz-adv-x="1209" 
d="M1116 422q-20 -128 -68.5 -215.5t-125 -135t-166 -67t-210.5 -19.5q-216 0 -306 91.5t-90 271.5q0 93 18 204q27 169 59 289t81 219.5t112.5 161t156.5 104t210 60t275 17.5q28 0 97 -1l-5 -100q-22 -1 -66 -2q-74 -2 -111.5 -3.5t-105.5 -7.5t-105.5 -15t-95 -26.5
t-91.5 -41.5t-77.5 -60.5t-70.5 -83.5t-52.5 -110t-41.5 -140q242 31 379 31q100 0 171.5 -14t127.5 -47t84 -93.5t28 -149.5q0 -49 -11 -117zM557 88q217 0 316.5 77t128.5 260q8 45 8 92q0 69 -22 114t-69.5 69t-108 33t-151.5 9q-103 0 -347 -33q-15 -68 -34 -187
q-14 -82 -14 -154q0 -62 13.5 -110t45 -87.5t91 -61t143.5 -21.5z" />
    <glyph glyph-name="seven" unicode="7" horiz-adv-x="1004" 
d="M1078 1265l-773 -1265h-129l797 1285h-779l17 104h802q98 0 87 -67q-3 -26 -22 -57z" />
    <glyph glyph-name="eight" unicode="8" horiz-adv-x="1217" 
d="M550 -15q-97 0 -172 15t-134 48.5t-90.5 93t-31.5 143.5q0 48 6 84q23 144 100.5 227.5t197.5 125.5q-91 43 -131.5 105.5t-40.5 153.5q0 38 8 88q26 165 157.5 249.5t355.5 84.5q199 0 306.5 -70t107.5 -205q0 -24 -5 -59q-21 -129 -83 -211.5t-195 -135.5
q196 -78 196 -277q0 -30 -7 -79q-15 -91 -51.5 -159t-86 -110t-117.5 -67.5t-137 -35t-153 -9.5zM238 311q0 -65 25 -110t72.5 -69t103 -34t128.5 -10q66 0 118.5 6.5t105 25.5t89.5 50.5t64.5 83t38.5 120.5q4 27 4 57q0 117 -88.5 170.5t-261.5 65.5q-83 -9 -144 -26.5
t-115.5 -49.5t-88.5 -86.5t-46 -130.5q-5 -29 -5 -63zM367 995q0 -204 329 -227q74 11 131 28t110.5 47.5t87 81t44.5 118.5q4 27 4 54q0 60 -24.5 102t-70.5 64t-98.5 31t-120.5 9q-60 0 -108.5 -6t-97.5 -23.5t-84.5 -46t-61.5 -75t-36 -109.5q-4 -34 -4 -48z" />
    <glyph glyph-name="nine" unicode="9" horiz-adv-x="1205" 
d="M194 967q16 103 52 180t85 125.5t118 78t144 41t171 11.5q216 0 306.5 -91t90.5 -272q0 -86 -19 -203q-27 -169 -59 -289t-81 -219.5t-112.5 -161.5t-156.5 -104.5t-210 -60t-275 -17.5q-27 0 -97 1l6 101q23 1 68 2q73 2 110.5 3.5t105.5 7.5t105.5 15t94.5 26.5
t91 41.5t77.5 60.5t70.5 83t52.5 109.5t41.5 140q-234 -30 -379 -30q-100 0 -171.5 13.5t-128 47t-84 93.5t-27.5 149q0 57 10 118zM753 1300q-217 0 -316 -77t-128 -260q-8 -45 -8 -92q0 -69 21.5 -113.5t69 -68.5t108 -33t151.5 -9q103 0 347 33q16 70 34 186
q14 81 14 154q0 62 -13.5 110t-45 88t-90.5 61t-144 21z" />
    <glyph glyph-name="colon" unicode=":" horiz-adv-x="448" 
d="M270 121q0 -10 -4 -42q-9 -53 -25.5 -73.5t-56.5 -20.5q-31 0 -44 12t-13 40q0 8 4 42q8 53 26.5 75t56.5 22q30 0 43 -13t13 -42zM309 773q-31 0 -43.5 11.5t-12.5 39.5q0 9 4 43q8 53 26 74.5t56 21.5q31 0 43.5 -12.5t12.5 -42.5q0 -9 -4 -41q-8 -53 -25 -73.5
t-57 -20.5z" />
    <glyph glyph-name="semicolon" unicode=";" horiz-adv-x="489" 
d="M383 773q-31 0 -44 12t-13 41q0 9 4 41q8 53 26 74.5t57 21.5q31 0 43.5 -12.5t12.5 -42.5q0 -9 -4 -41q-8 -53 -25 -73.5t-57 -20.5zM10 -269l219 514h137l-258 -514h-98z" />
    <glyph glyph-name="less" unicode="&#x3c;" horiz-adv-x="1185" 
d="M135 546l17 110l1014 465l-19 -121l-879 -398l753 -400l-19 -120z" />
    <glyph glyph-name="equal" unicode="=" horiz-adv-x="1288" 
d="M167 341l17 108h967l-17 -108h-967zM233 754l17 108h967l-18 -108h-966z" />
    <glyph glyph-name="greater" unicode="&#x3e;" horiz-adv-x="1185" 
d="M133 202l878 400l-752 398l19 121l866 -465l-16 -110l-1014 -464z" />
    <glyph glyph-name="question" unicode="?" horiz-adv-x="993" 
d="M436 417h-101l26 173q9 60 40 97.5t74 53.5t94 25.5t102.5 23.5t96 38t78.5 77t47 133q10 62 10 100q0 118 -81 160.5t-294 42.5q-130 0 -299 -29l-5 99q177 35 360 35q86 0 147.5 -6t120 -24t94.5 -49t57.5 -83.5t21.5 -125.5q0 -42 -10 -110q-16 -104 -53.5 -175
t-84.5 -104.5t-100.5 -52t-105.5 -28.5t-96.5 -23t-76.5 -45.5t-42 -87.5zM317 -15q-31 0 -43.5 12t-12.5 40q0 8 4 42q8 54 26 75.5t56 21.5q31 0 44 -13t13 -43q0 -9 -4 -41q-8 -53 -25.5 -73.5t-57.5 -20.5z" />
    <glyph glyph-name="at" unicode="@" horiz-adv-x="1874" 
d="M866 -183q-355 0 -534.5 132.5t-179.5 418.5q0 75 16 179q31 197 108 338.5t199.5 227.5t280.5 125.5t363 39.5q316 0 316 -248q0 -32 -6 -71l-73 -462q-14 -85 -34 -182q-186 -83 -401 -83q-174 0 -255.5 58.5t-81.5 180.5q0 36 6 76q20 129 100.5 211.5t209.5 108.5
q111 22 408 32q9 59 9 103q0 97 -51 136t-173 39q-138 0 -248.5 -19.5t-207 -64.5t-166.5 -117t-119 -179.5t-71 -249.5q-14 -90 -14 -160q0 -103 27.5 -182.5t78 -133.5t127 -88.5t170.5 -49.5t212 -15q170 0 301 32.5t235.5 104.5t171 195t94.5 297q18 121 17 205l115 33
q2 -112 -19 -238q-60 -380 -293.5 -555t-637.5 -175zM1255 567l38 237q-271 -5 -371 -29q-190 -45 -218 -224q-5 -33 -5 -56q0 -91 60 -127.5t185 -36.5q132 0 279 54q26 143 32 182z" />
    <glyph glyph-name="A" unicode="A" horiz-adv-x="1313" 
d="M125 0h-121l727 1365q43 81 100 81q30 0 48 -19.5t27 -61.5l289 -1365h-126l-88 424h-633zM401 525h559l-158 760z" />
    <glyph glyph-name="B" unicode="B" horiz-adv-x="1286" 
d="M1249 1095q-45 -287 -264 -363q87 -30 133.5 -92.5t46.5 -178.5q0 -54 -10 -114q-14 -89 -53 -154.5t-91.5 -104.5t-128 -63t-151 -32t-170.5 -8q-242 0 -442 34l221 1397q195 30 426 30q81 0 145.5 -6t131.5 -23.5t111.5 -48t72.5 -82.5t28 -122q0 -32 -6 -69zM654 683
h-312l-91 -575q172 -20 316 -20q86 0 146 5.5t120.5 23.5t99.5 50t68 86t41 130q6 37 6 69q0 57 -20 99t-53 67t-85.5 40t-107.5 20t-128 5zM358 781h312q81 0 141 6.5t117 25t95.5 50t66 83t38.5 122.5q5 28 5 61q0 55 -20 94t-52 62t-84 36.5t-104 17.5t-124 4
q-139 0 -306 -20z" />
    <glyph glyph-name="C" unicode="C" horiz-adv-x="1039" 
d="M946 15q-161 -30 -311 -30q-256 0 -363 102.5t-107 330.5q0 128 27 298q25 159 58 272t84.5 204t124 144.5t172.5 81.5t235 28q163 0 303 -28l-28 -99q-142 22 -229 22q-96 0 -172 -13.5t-133 -36.5t-100.5 -64.5t-73 -87.5t-53 -116.5t-38 -139.5t-30.5 -167
q-29 -186 -29 -283q0 -90 20.5 -152t69.5 -106t133 -64.5t208 -20.5q80 0 236 22z" />
    <glyph glyph-name="D" unicode="D" horiz-adv-x="1346" 
d="M342 1416q195 30 422 30q148 0 248.5 -26.5t159.5 -82.5t84.5 -134t25.5 -190q0 -123 -28 -297q-17 -111 -37 -194.5t-49.5 -163t-67.5 -135.5t-91 -103t-121.5 -75.5t-157 -44t-198.5 -15.5q-214 0 -412 32zM444 1322l-192 -1211q145 -21 255 -21q87 0 159 11t126.5 26
t99.5 47t75.5 58.5t56.5 77t40.5 85t30 100t22.5 105t19 116.5q31 190 31 286q0 65 -12 114.5t-43.5 93.5t-83 72t-132.5 44t-191 16q-87 0 -261 -20z" />
    <glyph glyph-name="E" unicode="E" horiz-adv-x="1064" 
d="M1125 1427l-15 -96h-341q-74 0 -124 -4.5t-91 -18t-65.5 -33t-43.5 -55t-30.5 -77.5t-21.5 -107l-42 -256h642l-16 -101h-642l-44 -285q-13 -81 -13 -127q0 -99 62 -132.5t235 -33.5h341l-16 -99q-139 -6 -337 -6q-54 0 -90 1t-83 6t-78 14.5t-64 26.5t-52 41.5t-31.5 61
t-12.5 82.5q0 27 7 74l130 824q10 62 31 110t47.5 80t66.5 55t75.5 35t89 18.5t93 8t99.5 1.5q144 0 334 -8z" />
    <glyph glyph-name="F" unicode="F" horiz-adv-x="1045" 
d="M232 0h-118l178 1127q10 62 31.5 110t47.5 80t66.5 55t76.5 35t89.5 18.5t93 8t99.5 1.5q197 0 333 -8l-15 -96h-341q-74 0 -124 -4.5t-91 -18t-66 -33t-44.5 -55t-30.5 -77.5t-21 -107l-40 -256h641l-16 -101h-642z" />
    <glyph glyph-name="G" unicode="G" horiz-adv-x="1273" 
d="M809 637l16 100h378l-83 -526q-7 -45 -24.5 -79.5t-40.5 -58t-59 -40.5t-71 -26t-86.5 -14t-95 -6.5t-106.5 -1.5q-255 0 -362 103t-107 332q0 128 27 296q21 133 47 233t64 184.5t88 141t119 96t156.5 57.5t199.5 18q223 0 397 -30l-27 -100q-170 24 -325 24
q-96 0 -172 -13t-132.5 -36t-100 -64.5t-73 -87t-52.5 -116t-37.5 -139.5t-30.5 -168q-30 -196 -30 -286q0 -119 37.5 -191t133 -110.5t260.5 -38.5q74 0 126.5 10t83 25t49 43t26 52.5t13.5 65.5l55 351h-261z" />
    <glyph glyph-name="H" unicode="H" horiz-adv-x="1383" 
d="M1155 785l102 647h118l-227 -1432h-118l109 681h-792l-109 -681h-118l227 1432h118l-102 -647h792z" />
    <glyph glyph-name="I" unicode="I" horiz-adv-x="469" 
d="M119 0l226 1432h119l-227 -1432h-118z" />
    <glyph glyph-name="J" unicode="J" horiz-adv-x="768" 
d="M488 411l161 1021h118l-155 -986q-20 -127 -51.5 -211.5t-85 -142t-130 -82.5t-186.5 -25q-99 0 -178 30l26 96q68 -21 158 -21q50 0 90 8t79 29.5t67.5 57t51.5 92.5t35 134z" />
    <glyph glyph-name="K" unicode="K" horiz-adv-x="1164" 
d="M461 1432l-105 -664l754 664h150l-790 -692l582 -740h-157l-550 703l-111 -703h-118l227 1432h118z" />
    <glyph glyph-name="L" unicode="L" horiz-adv-x="962" 
d="M162 303l178 1129h118l-164 -1038q-13 -81 -13 -126q0 -100 62.5 -133.5t234.5 -33.5h314l-15 -100q-146 -5 -310 -5q-54 0 -90.5 1t-83.5 6t-78 14.5t-64 26.5t-52 41.5t-31.5 61t-12.5 82.5q0 27 7 74z" />
    <glyph glyph-name="M" unicode="M" horiz-adv-x="1711" 
d="M555 1368l300 -1004l623 1004q49 78 102 78q70 0 61 -83l-132 -1363h-118l121 1240l-604 -978q-22 -36 -40 -52t-42 -16t-37 16t-24 52l-289 977l-275 -1239h-114l304 1363q19 83 87 83q54 0 77 -78z" />
    <glyph glyph-name="N" unicode="N" horiz-adv-x="1409" 
d="M514 1367l577 -1200l200 1265h111l-215 -1363q-6 -42 -30 -63t-57 -21q-30 0 -51 19.5t-41 60.5l-575 1201l-201 -1266h-112l216 1362q6 43 30 63.5t57 20.5q53 0 91 -79z" />
    <glyph glyph-name="O" unicode="O" horiz-adv-x="1363" 
d="M622 -15q-243 0 -346.5 101t-103.5 329q0 122 28 301q32 201 78 334t122 224.5t186 131.5t268 40q243 0 346.5 -101t103.5 -329q0 -121 -28 -300q-32 -201 -78 -334t-122.5 -225t-186 -132t-267.5 -40zM1156 716q34 219 34 310q0 77 -16 132t-54.5 97.5t-107 64
t-169.5 21.5q-66 0 -122 -10t-99.5 -26t-80 -45t-63 -58.5t-49 -75t-37.5 -85.5t-29 -99t-23 -107.5t-20 -118.5q-34 -219 -34 -312q0 -76 16 -131t54 -97.5t107 -64t170 -21.5q59 0 110 7t92.5 23t76 35.5t62 50t49.5 60t39.5 73t30.5 81t25 91.5t20 98.5t18 106.5z" />
    <glyph glyph-name="P" unicode="P" horiz-adv-x="1219" 
d="M328 598l-95 -598h-117l224 1414q206 32 425 32q87 0 153 -7t130.5 -27.5t106 -55.5t67 -93t25.5 -138q0 -47 -9 -103q-17 -105 -55 -182.5t-89 -125.5t-124 -76.5t-150 -39.5t-175 -11q-122 0 -317 11zM345 705q137 -15 300 -15q107 0 183.5 15t138.5 51t100 102t53 164
q7 42 7 83q0 126 -86.5 182t-284.5 56q-151 0 -313 -21z" />
    <glyph glyph-name="Q" unicode="Q" horiz-adv-x="1364" 
d="M1025 -235l-100 -65q-5 3 -35.5 19t-39.5 21t-36.5 21.5t-39 26.5t-34.5 28t-34.5 34t-27.5 37.5t-26 46t-17 51.5q-243 0 -347 101t-104 330q0 123 28 300q32 201 78 334t122 224.5t186 131.5t268 40q243 0 346.5 -100.5t103.5 -328.5q0 -121 -28 -301
q-56 -357 -172.5 -524.5t-352.5 -198.5q31 -75 91.5 -123.5t170.5 -104.5zM856 1341q-66 0 -122 -10t-100 -26t-80.5 -45t-63 -58.5t-49 -75t-37.5 -85.5t-29 -99t-23 -107.5t-20 -118.5q-35 -226 -35 -312q0 -76 16 -131t54.5 -97.5t107.5 -64t170 -21.5q117 0 202.5 32.5
t137.5 80.5t89.5 137.5t55 168t38.5 207.5q34 219 34 310q0 77 -16 132t-54 97.5t-107 64t-169 21.5z" />
    <glyph glyph-name="R" unicode="R" horiz-adv-x="1251" 
d="M233 0h-117l224 1414q208 32 425 32q87 0 153 -6.5t131 -27t106.5 -54.5t67 -92t25.5 -137q0 -45 -9 -101q-32 -203 -141.5 -299.5t-291.5 -119.5l253 -609h-137l-242 600h-33q-122 0 -317 11zM347 718q138 -14 300 -14q106 0 182.5 15t139 51t100 100t52.5 159
q7 41 7 81q0 125 -87 179.5t-285 54.5q-143 0 -313 -22z" />
    <glyph glyph-name="S" unicode="S" horiz-adv-x="1032" 
d="M823 431q0 99 -67 151.5t-221 100.5q-72 23 -117 40.5t-92 44t-72.5 56t-42 72t-16.5 97.5q0 28 7 79q33 204 163 289t368 85q172 0 337 -29l-27 -100q-145 23 -268 23q-95 0 -166 -10t-134 -35t-101 -73.5t-50 -121.5q-7 -42 -7 -80q0 -39 11 -67.5t30 -50t58 -41.5
t82 -35.5t116 -38.5q77 -24 132 -50t104 -65t74 -93.5t25 -125.5q0 -33 -6 -71q-33 -211 -171 -304t-384 -93q-188 0 -341 32l29 101q159 -26 323 -26q88 0 153.5 12t123 42t93.5 87t49 141q5 33 5 57z" />
    <glyph glyph-name="T" unicode="T" horiz-adv-x="1003" 
d="M1125 1432l-16 -103h-394l-211 -1329h-118l211 1329h-396l17 103h907z" />
    <glyph glyph-name="U" unicode="U" horiz-adv-x="1341" 
d="M1337 1432l-154 -975q-22 -137 -71.5 -231t-126.5 -146t-167.5 -73.5t-210.5 -21.5q-104 0 -180.5 16.5t-136 54.5t-89.5 106t-30 167q0 54 11 128l154 975h117l-156 -991q-8 -44 -8 -92q0 -131 80.5 -194.5t254.5 -63.5q204 0 307.5 85.5t131.5 264.5l156 991h118z" />
    <glyph glyph-name="V" unicode="V" horiz-adv-x="1244" 
d="M1354 1432l-695 -1364q-22 -44 -44.5 -63.5t-52.5 -19.5q-59 0 -74 83l-257 1364h125l234 -1273l644 1273h120z" />
    <glyph glyph-name="W" unicode="W" horiz-adv-x="1834" 
d="M381 1432l94 -1265l504 1021q41 81 94 81q56 0 69 -82l168 -1019l489 1264h116l-534 -1363q-33 -84 -97 -84q-57 0 -70 84l-171 1025l-507 -1025q-41 -84 -98 -84q-63 0 -69 84l-108 1363h120z" />
    <glyph glyph-name="X" unicode="X" horiz-adv-x="1190" 
d="M670 839l455 593h129l-535 -696l335 -736h-137l-284 627l-480 -627h-131l563 731l-320 701h137z" />
    <glyph glyph-name="Y" unicode="Y" horiz-adv-x="1113" 
d="M645 558l-88 -558h-120l89 558l-308 874h129l261 -747l502 747h125z" />
    <glyph glyph-name="Z" unicode="Z" horiz-adv-x="1059" 
d="M1105 1310l-927 -1207h756l-17 -103h-828q-39 0 -56 13t-13 38q5 29 37 71l927 1206h-714l16 104h786q39 0 56.5 -13.5t13.5 -37.5q-3 -27 -37 -71z" />
    <glyph glyph-name="bracketleft" unicode="[" horiz-adv-x="580" 
d="M463 1383l-257 -1618h217l-16 -99h-325l287 1814h326l-15 -97h-217z" />
    <glyph glyph-name="backslash" unicode="\" horiz-adv-x="815" 
d="M566 -165l-309 1647h112l308 -1647h-111z" />
    <glyph glyph-name="bracketright" unicode="]" horiz-adv-x="581" 
d="M248 1383l16 97h326l-287 -1814h-325l15 99h216l256 1618h-217z" />
    <glyph glyph-name="asciicircum" unicode="^" horiz-adv-x="982" 
d="M567 1432h133l209 -735h-111l-182 623l-379 -623h-111z" />
    <glyph glyph-name="underscore" unicode="_" horiz-adv-x="1021" 
d="M-6 -289l16 103h1017l-16 -103h-1017z" />
    <glyph glyph-name="grave" unicode="`" horiz-adv-x="438" 
d="M350 1177l-179 281h146l128 -281h-95z" />
    <glyph glyph-name="a" unicode="a" horiz-adv-x="1117" 
d="M1035 782l-84 -531q-17 -104 -33 -181q-194 -85 -449 -85q-196 0 -287.5 55.5t-91.5 187.5q0 37 6 79q47 297 316 337q147 22 496 34l10 67q8 53 8 88q0 96 -62.5 135.5t-222.5 39.5q-126 0 -357 -33l5 97q237 37 398 37q64 0 114.5 -6.5t97 -23t77 -44t48.5 -71.5
t18 -103q0 -28 -7 -79zM493 85q176 0 326 54q4 19 32 182l42 262q-315 -5 -460 -32q-102 -20 -153.5 -72.5t-69.5 -168.5q-6 -34 -6 -61q0 -94 66.5 -129t222.5 -35z" />
    <glyph glyph-name="b" unicode="b" horiz-adv-x="1157" 
d="M712 1109q196 0 284.5 -80.5t88.5 -270.5q0 -84 -19 -211q-26 -160 -69.5 -267t-113.5 -173t-162 -94t-221 -28q-232 0 -382 85q10 94 24 181l201 1266h112l-72 -453q174 45 329 45zM367 961l-101 -638q-11 -67 -26 -182q113 -56 276 -56q201 0 298.5 105.5t137.5 356.5
q19 120 19 196q0 145 -71 205t-247 60q-143 0 -286 -47z" />
    <glyph glyph-name="c" unicode="c" horiz-adv-x="884" 
d="M782 15q-154 -30 -264 -30q-102 0 -174 26t-112.5 76.5t-58.5 114.5t-18 149t20 208q18 114 42 195.5t65.5 152t100 113t144 66t199.5 23.5q119 0 223 -28l-24 -91q-89 17 -174 17q-76 0 -134.5 -9t-103 -25t-77.5 -45t-55.5 -61.5t-40 -83t-29 -101t-22.5 -123.5
q-22 -141 -22 -208q0 -65 15.5 -111.5t52.5 -82t103.5 -52.5t164.5 -17q63 0 183 24z" />
    <glyph glyph-name="d" unicode="d" horiz-adv-x="1156" 
d="M985 1064l72 453h112l-201 -1266q-17 -104 -33 -181q-177 -85 -408 -85q-212 0 -309 82.5t-97 279.5q0 86 18 200q49 310 170 436t361 126q154 0 315 -45zM698 1008q-114 0 -189 -23t-126.5 -80t-80 -140.5t-49.5 -217.5q-16 -106 -16 -173q0 -153 71.5 -221t234.5 -68
q161 0 292 56q7 36 32 182l101 638q-128 47 -270 47z" />
    <glyph glyph-name="e" unicode="e" horiz-adv-x="1168" 
d="M172 547q48 303 172.5 432.5t382.5 129.5q211 0 303 -86.5t92 -250.5q0 -64 -12 -138q-19 -103 -21 -114q-93 -16 -256 -31t-279 -20l-282 -11q-3 -50 -3 -92q0 -71 13 -118.5t47.5 -86t100 -56.5t165.5 -18q157 0 381 32l-4 -99q-236 -35 -449 -35q-198 0 -283 97.5
t-85 277.5q0 75 17 187zM284 552l313 15q212 10 392 33q7 30 16 87q7 51 7 82q0 241 -299 241q-105 0 -178.5 -26t-123 -85t-78.5 -141t-49 -206z" />
    <glyph glyph-name="f" unicode="f" horiz-adv-x="659" 
d="M496 1223l-20 -129h247l-15 -95h-247l-159 -999h-112l158 999h-194l15 95h194l20 123q25 155 113 235t236 80q38 0 70 -6l-23 -89h-40q-209 0 -243 -214z" />
    <glyph glyph-name="g" unicode="g" horiz-adv-x="1161" 
d="M109 -380l26 97q209 -33 350 -33q130 0 203.5 27t107 81.5t49.5 154.5l17 108q-174 -45 -328 -45q-197 0 -286 79t-89 267q0 81 19 203q25 156 68.5 261t113 169.5t161.5 92t221 27.5q232 0 382 -85q-13 -108 -25 -181l-148 -934q-12 -79 -41.5 -137.5t-69.5 -94.5
t-96 -57.5t-113.5 -29.5t-130.5 -8q-159 0 -391 38zM292 559q-18 -109 -18 -188q0 -143 71.5 -201.5t248.5 -58.5q142 0 285 47l97 614q11 67 26 182q-111 55 -276 55q-200 0 -298 -103.5t-136 -346.5z" />
    <glyph glyph-name="h" unicode="h" horiz-adv-x="1162" 
d="M1073 724l-114 -724h-112l110 692q11 72 11 122q0 104 -64.5 148.5t-233.5 44.5q-150 0 -303 -50l-151 -957h-112l240 1517h112l-72 -455q173 46 339 47q106 1 178 -16t112 -51t56.5 -79t16.5 -107q0 -45 -13 -132z" />
    <glyph glyph-name="i" unicode="i" horiz-adv-x="417" 
d="M447 1477q0 -10 -4 -42q-9 -53 -25.5 -73.5t-56.5 -20.5q-31 0 -44 12t-13 40q0 8 4 42q8 54 26 75.5t57 21.5q30 0 43 -13t13 -42zM92 0l173 1094h113l-173 -1094h-113z" />
    <glyph glyph-name="j" unicode="j" horiz-adv-x="423" 
d="M380 1341q-31 0 -43.5 11.5t-12.5 39.5l5 43q8 54 25.5 75.5t56.5 21.5q31 0 43.5 -13t12.5 -42q0 -10 -4 -42q-8 -53 -25.5 -73.5t-57.5 -20.5zM104 -47l181 1141h113l-176 -1111q-34 -213 -128 -307t-262 -94q-18 0 -27 1l24 90q42 3 72.5 9.5t65.5 24.5t59.5 47
t45.5 79.5t32 119.5z" />
    <glyph glyph-name="k" unicode="k" horiz-adv-x="988" 
d="M457 1517l-149 -934l574 511h142l-614 -544l475 -550h-156l-432 508l-81 -508h-112l240 1517h113z" />
    <glyph glyph-name="l" unicode="l" horiz-adv-x="427" 
d="M130 283l196 1234h112l-193 -1223q-9 -54 -9 -99q0 -110 52 -191l-102 -53q-66 94 -66 221q0 43 10 111z" />
    <glyph glyph-name="m" unicode="m" horiz-adv-x="1833" 
d="M350 766l-121 -766h-112l133 838q17 104 33 181q99 38 225.5 64t228.5 26q196 0 266 -96q197 96 429 96q90 0 153 -19t97 -56t48.5 -82t14.5 -105q0 -53 -12 -132l-113 -715h-113l109 688q11 71 11 121q0 106 -56.5 152t-196.5 46q-71 0 -161 -21t-171 -61q7 -29 7 -81
t-12 -129l-113 -715h-112l108 688q12 77 12 121q0 106 -57 152t-197 46q-56 0 -145.5 -17.5t-150.5 -41.5q-26 -143 -32 -182z" />
    <glyph glyph-name="n" unicode="n" horiz-adv-x="1211" 
d="M351 766l-122 -766h-112l133 838q8 52 33 181q229 90 498 90q102 0 172 -18t107.5 -53.5t53 -79.5t15.5 -104q0 -59 -13 -139l-114 -715h-112l109 687q12 81 12 126q0 104 -62.5 149.5t-226.5 45.5q-75 0 -177.5 -18t-161.5 -42q-26 -143 -32 -182z" />
    <glyph glyph-name="o" unicode="o" horiz-adv-x="1204" 
d="M556 -15q-211 0 -304 82.5t-93 274.5q0 90 18 205q49 308 174.5 435t382.5 127q211 0 304.5 -84.5t93.5 -275.5q0 -82 -19 -202q-48 -304 -174.5 -433t-382.5 -129zM1000 547q18 114 18 196q0 146 -67.5 205.5t-226.5 59.5q-102 0 -170.5 -20.5t-122 -73t-86 -141
t-54.5 -226.5q-19 -122 -19 -197q0 -149 68 -206t227 -57q136 0 219.5 42.5t134.5 141.5t79 276z" />
    <glyph glyph-name="p" unicode="p" horiz-adv-x="1157" 
d="M251 31l-69 -434h-112l197 1246q13 80 34 181q177 85 409 85q212 0 308.5 -82t96.5 -280q0 -86 -18 -200q-49 -310 -170 -436t-361 -126q-151 0 -315 46zM538 86q114 0 189.5 23t126.5 80t80 140.5t50 217.5q16 106 16 174q0 153 -72 220.5t-235 67.5t-292 -55
q-7 -36 -32 -182l-101 -639q128 -47 270 -47z" />
    <glyph glyph-name="q" unicode="q" horiz-adv-x="1157" 
d="M785 -403l69 434q-179 -46 -329 -46q-195 0 -284 80.5t-89 270.5q0 94 19 211q25 160 69 267.5t114 173t162 93.5t221 28q233 0 383 -85q-13 -108 -25 -181l-197 -1246h-113zM997 954q-111 55 -276 55q-201 0 -299 -105.5t-137 -356.5q-19 -120 -19 -196
q0 -145 71.5 -205t247.5 -60q142 0 285 47l101 639q11 67 26 182z" />
    <glyph glyph-name="r" unicode="r" horiz-adv-x="701" 
d="M228 0h-112l133 843q13 80 34 181q177 85 408 85q61 0 100 -5l-27 -102q-40 3 -89 3q-165 0 -293 -54q-26 -143 -32 -182z" />
    <glyph glyph-name="s" unicode="s" horiz-adv-x="934" 
d="M729 322q0 32 -11.5 56.5t-27.5 41t-53 34t-67 28t-91 30.5q-130 41 -174 64q-113 61 -118 179v11q0 24 5 57q25 158 130.5 222t283.5 64q167 0 331 -34l-27 -92q-137 25 -265 25q-52 0 -86 -1.5t-82.5 -11t-79.5 -26.5t-57 -50.5t-33 -80.5q-3 -26 -3 -45t3 -35.5
t11.5 -30t15.5 -23.5t24.5 -20.5l27.5 -16.5t35.5 -15.5t38 -13.5t46 -14.5t48.5 -15.5q79 -26 128.5 -48t90 -52.5t58 -69.5t17.5 -92q0 -24 -5 -59q-13 -86 -53 -146.5t-102 -93.5t-135 -47.5t-165 -14.5q-173 0 -323 33l26 94q139 -24 268 -24q45 0 74.5 1.5t75 6.5
t76.5 17.5t63 32.5t51.5 53.5t26.5 78.5q3 24 3 44z" />
    <glyph glyph-name="t" unicode="t" horiz-adv-x="686" 
d="M420 1385l116 18l-49 -309h245l-14 -95h-246l-113 -711q-7 -43 -7 -80q0 -75 39.5 -99.5t133.5 -24.5q25 0 50 3l-5 -92q-52 -10 -99 -10q-122 0 -178.5 47t-56.5 150q0 41 7 84l116 733h-201l15 95h201z" />
    <glyph glyph-name="u" unicode="u" horiz-adv-x="1206" 
d="M174 380l113 714h112l-109 -687q-13 -81 -13 -132q0 -102 62 -145t229 -43q74 0 175 17.5t160 41.5q17 87 32 182l122 766h112l-134 -838q-15 -90 -32 -181q-229 -90 -495 -90q-102 0 -172 18t-107.5 53.5t-53 79.5t-15.5 104q0 54 14 140z" />
    <glyph glyph-name="v" unicode="v" horiz-adv-x="1116" 
d="M1175 1094l-563 -1020q-26 -46 -48.5 -67.5t-51.5 -21.5q-30 0 -48 22t-29 67l-233 1020h121l213 -955l524 955h115z" />
    <glyph glyph-name="w" unicode="w" horiz-adv-x="1729" 
d="M340 1094l105 -954l447 780q27 48 47.5 68t47.5 20q29 0 44.5 -21t26.5 -67l184 -779l413 953h112l-449 -1020q-39 -89 -100 -89q-30 0 -46 21t-27 68l-185 773l-444 -773q-27 -47 -49 -68t-52 -21q-63 0 -73 89l-118 1020h116z" />
    <glyph glyph-name="x" unicode="x" horiz-adv-x="1057" 
d="M592 665l349 429h126l-428 -520l291 -574h-135l-238 477l-389 -477h-127l468 570l-264 524h133z" />
    <glyph glyph-name="y" unicode="y" horiz-adv-x="1018" 
d="M557 235l422 859h114l-737 -1497h-113l238 481l-274 1016h122z" />
    <glyph glyph-name="z" unicode="z" horiz-adv-x="1033" 
d="M1035 1003l-825 -903h669l-16 -100h-781q-27 0 -39 11t-9 30q3 22 29 50l826 905h-655l15 98h767q26 0 38.5 -11t9.5 -30q-3 -23 -29 -50z" />
    <glyph glyph-name="braceleft" unicode="{" horiz-adv-x="589" 
d="M337 190l-17 -110q-9 -54 -9 -100q0 -183 134 -211l-25 -91q-108 24 -165 85.5t-57 183.5q0 47 9 102q26 165 26 264q0 95 -26 146.5t-85 68.5l14 91q98 25 149 134t88 346q14 91 44 157.5t74.5 108.5t95.5 66t117 38l-4 -91q-180 -37 -224 -311l-18 -111
q-10 -62 -22.5 -110.5t-36 -107.5t-62.5 -101.5t-91 -63.5q104 -53 104 -233q0 -66 -13 -150z" />
    <glyph glyph-name="bar" unicode="|" horiz-adv-x="477" 
d="M184 -403v1920h110v-1920h-110z" />
    <glyph glyph-name="braceright" unicode="}" horiz-adv-x="590" 
d="M-22 -322l4 91q181 35 224 311l17 110q48 312 211 383q-105 47 -105 228q0 54 15 155l18 111q9 53 9 100q0 182 -134 211l24 91q108 -24 165 -85.5t57 -182.5q0 -47 -9 -102q-26 -165 -26 -265q0 -95 26 -146.5t85 -68.5l-14 -91q-98 -26 -148.5 -134.5t-88.5 -344.5
q-28 -176 -110.5 -259.5t-219.5 -111.5z" />
    <glyph glyph-name="asciitilde" unicode="~" horiz-adv-x="1216" 
d="M1055 790h109q-34 -137 -113 -211.5t-174 -74.5q-60 0 -113 19.5t-92 47t-74.5 54.5t-75.5 46.5t-80 19.5q-62 0 -104.5 -43t-73.5 -135h-109q34 137 112.5 211t174.5 74q60 0 113 -19.5t91.5 -47t74 -54.5t75.5 -46.5t81 -19.5q62 0 104 43.5t74 135.5z" />
    <glyph glyph-name="uni00A0" unicode="&#xa0;" horiz-adv-x="614" 
 />
    <glyph glyph-name="exclamdown" unicode="&#xa1;" horiz-adv-x="423" 
d="M412 1043q0 -7 -4 -41q-8 -54 -26 -75.5t-56 -21.5q-30 0 -43 12.5t-13 42.5q0 18 3 42q8 53 25.5 73.5t57.5 20.5q30 0 43 -12.5t13 -40.5zM57 -351l181 1015h99l-141 -1015h-139z" />
    <glyph glyph-name="cent" unicode="&#xa2;" horiz-adv-x="861" 
d="M519 149l-31 -189h-91l31 193q-151 18 -215 108t-64 243q0 86 18 202q20 125 48 211t77 156.5t124.5 109.5t182.5 51l31 195h91l-30 -189h11q110 0 215 -28l-22 -88q-94 16 -168 16q-65 0 -117 -6t-93 -20t-72 -31.5t-55.5 -46.5t-41 -59.5t-30 -75.5t-22.5 -89t-19 -106
q-20 -127 -20 -201q0 -64 15 -109t51 -79.5t100 -51t159 -16.5q69 0 177 23l-4 -94q-145 -28 -236 -29z" />
    <glyph glyph-name="sterling" unicode="&#xa3;" horiz-adv-x="1137" 
d="M363 653h-212l14 97h199q2 161 22 290q17 105 64 178.5t120 112.5t154.5 55.5t183.5 16.5q103 0 173 -30.5t122 -90.5l-72 -73q-93 89 -232 89q-203 0 -290.5 -71.5t-113.5 -237.5q-12 -74 -12 -218v-21h324l-16 -97h-310q-4 -96 -16 -173q-18 -115 -51.5 -189
t-103.5 -185h393q150 0 305 21l-5 -97q-193 -30 -435 -30h-356q-30 0 -42.5 13.5t-9.5 35.5q2 15 28 56.5t57 89t62 121.5t42 146q12 84 14 191z" />
    <glyph glyph-name="currency" unicode="&#xa4;" horiz-adv-x="1210" 
d="M936 431l142 -137l-76 -76l-141 142q-115 -87 -255 -87q-146 0 -258 88l-140 -143l-75 76l142 139q-87 112 -87 252q0 145 88 255l-143 141l75 75l142 -143q112 87 256 87t255 -84l141 140l76 -75l-142 -138q91 -113 91 -258q0 -144 -91 -254zM604 382q125 0 218.5 88
t93.5 216q0 126 -90.5 216.5t-221.5 90.5q-126 0 -216.5 -89t-90.5 -218q0 -124 89 -214t218 -90z" />
    <glyph glyph-name="yen" unicode="&#xa5;" horiz-adv-x="1044" 
d="M243 1389h123l208 -714l439 714h118l-469 -761h203l-13 -90h-244l-23 -142h244l-15 -91h-243l-49 -305h-115l48 305h-239l14 91h239l23 142h-239l14 90h199z" />
    <glyph glyph-name="brokenbar" unicode="&#xa6;" horiz-adv-x="439" 
d="M165 -289v661h110v-661h-110zM165 743v660h110v-660h-110z" />
    <glyph glyph-name="section" unicode="&#xa7;" horiz-adv-x="1080" 
d="M154 639q28 173 263 280q-95 84 -95 180q0 13 4 41q22 139 134.5 222.5t286.5 83.5q190 0 330 -33l-27 -97q-155 30 -283 30q-134 0 -220.5 -51.5t-101.5 -143.5q-2 -18 -2 -27q0 -35 17 -66t38 -52t65 -46t71.5 -38t83.5 -37q66 -28 109 -51t93.5 -60.5t76.5 -86
t26 -106.5q0 -12 -4 -42q-25 -157 -275 -286q114 -99 114 -213q0 -21 -2 -31q-11 -69 -46 -123.5t-81.5 -88t-107.5 -55.5t-120 -30.5t-123 -8.5q-170 0 -331 35l29 100q171 -30 282 -30q32 0 54 0.5t61.5 4.5t68.5 11t64 21.5t58.5 34.5t42.5 51.5t25 71.5q0 2 1.5 12.5
t1.5 15.5q0 25 -8.5 47.5t-19 39t-34.5 35t-40.5 30t-51.5 28.5t-54 25t-60 26q-57 24 -92 41t-83 47.5t-75 61t-47 76t-20 98.5q0 29 4 53zM904 524q3 18 3 34q0 60 -44.5 107.5t-151.5 98.5q-26 12 -99 41t-119 55q-208 -91 -227 -209q-4 -30 -4 -44q0 -59 37.5 -106
t131.5 -92q39 -19 110 -45.5t121 -51.5q105 49 168.5 98.5t73.5 113.5z" />
    <glyph glyph-name="dieresis" unicode="&#xa8;" horiz-adv-x="712" 
d="M300 1221q-33 0 -52.5 24t-14.5 58t33 57.5t61 23.5t52 -23.5t14 -57.5t-32 -58t-61 -24zM525 1303q5 34 32.5 57.5t61.5 23.5q33 0 52 -23.5t14 -57.5t-32 -58t-60 -24t-53 24t-15 58z" />
    <glyph glyph-name="copyright" unicode="&#xa9;" horiz-adv-x="1704" 
d="M1117 536h100q-13 -124 -112.5 -199t-239.5 -75q-124 0 -211 62.5t-127.5 163.5t-40.5 230q0 86 25 166t71 144.5t119.5 103t163.5 38.5q82 0 155 -26t129 -84t68 -139h-100q-13 76 -83 118t-169 42q-120 0 -197.5 -96.5t-77.5 -266.5q0 -172 74.5 -267.5t200.5 -95.5
q94 0 165.5 49t86.5 132zM852 1446q201 0 369 -96t265 -263.5t97 -368.5q0 -151 -57 -286.5t-154.5 -233.5t-233 -155.5t-286.5 -57.5q-201 0 -369 97.5t-264.5 266t-96.5 369.5q0 151 57 286t154 232t232.5 153.5t286.5 56.5zM852 1357q-175 0 -320.5 -84t-229.5 -231
t-84 -324q0 -134 49.5 -253.5t134 -205t202 -135t248.5 -49.5t248.5 49.5t202.5 135t134.5 205t49.5 253.5q0 133 -49.5 251.5t-134.5 203.5t-202.5 134.5t-248.5 49.5z" />
    <glyph glyph-name="ordfeminine" unicode="&#xaa;" horiz-adv-x="843" 
d="M797 1191l-55 -348q-9 -61 -22 -121q-131 -58 -302 -58q-132 0 -193.5 37t-61.5 126q0 28 4 53q32 198 214 225q89 14 318 22l6 40q5 35 5 56q0 61 -39.5 86.5t-139.5 25.5q-85 0 -242 -23l4 72q162 26 269 26q114 0 176.5 -36t62.5 -130q0 -28 -4 -53zM252 842
q0 -59 42 -81t141 -22q112 0 207 34l46 283q-205 -5 -292 -21q-62 -12 -95 -46t-45 -107q-4 -30 -4 -40z" />
    <glyph glyph-name="guillemotleft" unicode="&#xab;" horiz-adv-x="918" 
d="M265 530l187 -395h-118l-212 395l336 395h119zM599 530l188 -395h-119l-212 395l337 395h118z" />
    <glyph glyph-name="logicalnot" unicode="&#xac;" horiz-adv-x="1286" 
d="M1196 785l-90 -567h-119l73 459h-848l17 108h967z" />
    <glyph glyph-name="uni00AD" unicode="&#xad;" horiz-adv-x="810" 
d="M183 492l17 104h513l-17 -104h-513z" />
    <glyph glyph-name="registered" unicode="&#xae;" horiz-adv-x="1113" 
d="M458 971v-219h-73v520h182q200 0 200 -149q0 -56 -29.5 -93t-83.5 -48l113 -230h-81l-107 219h-121zM113 1003q0 186 129 314.5t315 128.5t314.5 -128.5t128.5 -314.5t-128.5 -315t-314.5 -129t-315 129t-129 315zM930 1003q0 158 -108 266.5t-265 108.5
q-156 0 -264 -108.5t-108 -266.5q0 -159 108 -268t264 -109q157 0 265 109t108 268zM559 1209h-101v-174h104q68 0 101 21t33 67q0 47 -34 66.5t-103 19.5z" />
    <glyph glyph-name="macron" unicode="&#xaf;" horiz-adv-x="823" 
d="M241 1254l15 89h531l-15 -89h-531z" />
    <glyph glyph-name="degree" unicode="&#xb0;" horiz-adv-x="768" 
d="M385 895q-114 0 -195.5 81t-81.5 195t81.5 194.5t195.5 80.5t195 -80.5t81 -194.5t-81 -195t-195 -81zM385 987q76 0 129.5 54t53.5 130t-53.5 129.5t-129.5 53.5q-77 0 -130.5 -53.5t-53.5 -129.5q0 -77 53.5 -130.5t130.5 -53.5z" />
    <glyph glyph-name="plusminus" unicode="&#xb1;" horiz-adv-x="1215" 
d="M626 780l61 387h116l-61 -387h425l-16 -103h-425l-63 -394h-116l63 394h-426l16 103h426zM82 36l18 107h966l-17 -107h-967z" />
    <glyph glyph-name="twosuperior" unicode="&#xb2;" horiz-adv-x="638" 
d="M222 1648q138 24 245 24q248 0 248 -159q0 -17 -3 -38q-18 -110 -88 -179t-194 -117q-104 -41 -152.5 -99t-80.5 -163h425l-12 -78h-527q62 191 119 270t190 133q211 85 232 216q2 11 2 31q0 58 -47.5 82t-153.5 24q-78 0 -204 -18z" />
    <glyph glyph-name="threesuperior" unicode="&#xb3;" horiz-adv-x="643" 
d="M688 1478q-23 -148 -147 -203q43 -18 72 -58.5t29 -98.5q0 -18 -3 -37q-22 -137 -107.5 -193t-235.5 -56q-114 0 -221 23l21 72q137 -18 188 -18q127 0 190 36.5t77 129.5q2 10 2 29q0 53 -32.5 85.5t-87.5 38.5q-40 5 -100 5q-43 0 -66 -1l11 71q93 2 168 13
q62 10 103 48.5t50 93.5q3 20 3 35q0 28 -10 47.5t-25 30.5t-42.5 17t-53 7.5t-65.5 1.5q-77 0 -199 -18l2 71q125 23 225 23q56 0 98 -6.5t80 -22t58.5 -47.5t20.5 -79q0 -19 -3 -40z" />
    <glyph glyph-name="acute" unicode="&#xb4;" horiz-adv-x="438" 
d="M157 1177l218 281h145l-268 -281h-95z" />
    <glyph glyph-name="mu" unicode="&#xb5;" horiz-adv-x="1166" 
d="M106 -403l237 1497h109l-114 -715q-6 -34 -6 -67q0 -97 49.5 -156.5t145.5 -59.5q136 0 236 129.5t132 330.5l85 538h109l-116 -736q-18 -110 -18 -163q0 -100 64 -122l-14 -88q-45 0 -76 16.5t-47 47.5t-22.5 66.5t-6.5 81.5q0 16 2 38h-2q-56 -116 -150 -183t-193 -67
q-72 0 -122.5 28t-93.5 91l-80 -507h-108z" />
    <glyph glyph-name="paragraph" unicode="&#xb6;" horiz-adv-x="1223" 
d="M542 -315h-100l149 941q-187 1 -293 94.5t-106 239.5q0 36 5 63q32 202 173 305.5t362 103.5h492l-277 -1747h-99l262 1655h-306z" />
    <glyph glyph-name="periodcentered" unicode="&#xb7;" horiz-adv-x="425" 
d="M187 544q0 10 4 42q8 54 26 75.5t56 21.5q30 0 43 -13t13 -43q0 -17 -3 -41q-8 -53 -25.5 -73.5t-57.5 -20.5q-31 0 -43.5 12t-12.5 40z" />
    <glyph glyph-name="cedilla" unicode="&#xb8;" horiz-adv-x="437" 
d="M97 -149l111 149h84l-80 -103q59 -2 96.5 -32.5t37.5 -82.5q0 -7 -2 -23q-13 -80 -76 -118.5t-149 -38.5q-77 0 -128 31l35 65q52 -25 107 -25q40 0 73 18.5t40 59.5q7 49 -43 74.5t-106 25.5z" />
    <glyph glyph-name="onesuperior" unicode="&#xb9;" horiz-adv-x="425" 
d="M265 844l116 727q-95 -27 -210 -45l8 74q126 20 236 67h65l-131 -823h-84z" />
    <glyph glyph-name="ordmasculine" unicode="&#xba;" horiz-adv-x="886" 
d="M852 1169q0 -57 -12 -132q-32 -201 -117 -287t-257 -86q-141 0 -204 55.5t-63 183.5q0 59 12 134q32 204 116.5 288.5t256.5 84.5q141 0 204.5 -56.5t63.5 -184.5zM288 909q0 -95 43.5 -132t143.5 -37q128 0 188.5 64.5t87.5 232.5q12 73 12 126q0 94 -43 132.5
t-145 38.5q-128 0 -188 -62t-87 -235q-12 -75 -12 -128z" />
    <glyph glyph-name="guillemotright" unicode="&#xbb;" horiz-adv-x="918" 
d="M546 530l-337 -395h-119l312 395l-186 395h118zM880 530l-337 -395h-118l311 395l-187 395h119z" />
    <glyph glyph-name="onequarter" unicode="&#xbc;" horiz-adv-x="1434" 
d="M1080 0l32 199h-349q-40 0 -53 15t-10 42q4 27 55 84l403 440q47 52 89 52q50 0 40 -60l-79 -500h112l-11 -73h-112l-32 -199h-85zM477 1433h65l-131 -823h-84l115 727q-109 -31 -209 -45l7 74q125 21 237 67zM1314 1461l-1060 -1490h-103l1060 1490h103zM791 272h332
l70 439z" />
    <glyph glyph-name="onehalf" unicode="&#xbd;" horiz-adv-x="1579" 
d="M1021 808q140 24 245 24q247 0 247 -155q0 -18 -3 -39q-17 -110 -87.5 -180t-194.5 -119q-105 -41 -153 -99t-80 -163h427l-12 -77h-528q26 80 44.5 127.5t43.5 94.5t54 76.5t69.5 55.5t96.5 49q98 40 159 91.5t73 124.5q2 11 2 31q0 58 -47 81.5t-154 23.5
q-91 0 -204 -18zM236 1292l7 74q130 22 238 67h64l-130 -823h-84l115 727q-108 -30 -210 -45zM1215 1461h104l-1061 -1490h-103z" />
    <glyph glyph-name="threequarters" unicode="&#xbe;" horiz-adv-x="1588" 
d="M751 1244q-23 -148 -146 -203q43 -18 72 -58t29 -99q0 -18 -3 -37q-21 -137 -107.5 -193t-236.5 -56q-113 0 -220 23l21 73q131 -19 188 -19q127 0 189 36t77 130q3 15 3 29q0 54 -33 86.5t-88 37.5q-43 5 -108 5q-37 0 -57 -1l11 71q100 2 168 12q61 10 102 49t50 94
q3 20 3 36q0 34 -13.5 55.5t-42.5 31.5t-59.5 13t-80.5 3q-76 0 -198 -18l2 72q119 22 225 22q56 0 98 -6.5t80 -22t58.5 -47.5t20.5 -79q0 -12 -4 -40zM1233 0l31 199h-349q-40 0 -53 15t-9 42q5 31 53 84l405 440q46 52 89 52q22 0 33.5 -15t6.5 -45l-80 -500h112l-11 -73
h-112l-32 -199h-84zM1465 1461l-1059 -1490h-103l1059 1490h103zM943 272h332l70 439z" />
    <glyph glyph-name="questiondown" unicode="&#xbf;" horiz-adv-x="994" 
d="M643 664h100l-18 -121q0 -2 -7 -52q-9 -60 -40.5 -97.5t-75 -53.5t-94 -25.5t-102 -23.5t-96 -38t-78.5 -77t-47 -133q-9 -57 -9 -101q0 -117 81.5 -159.5t293.5 -42.5q131 0 298 29l6 -100q-177 -35 -361 -35q-86 0 -147.5 6t-120 24t-94.5 49t-57.5 84t-21.5 126
q0 42 10 110q13 82 39 143.5t59 97t72.5 59.5t81 36t82.5 20.5t78 18t67.5 24.5t52 44t28.5 73zM675 960q0 18 3 42q8 53 26 73.5t57 20.5q31 0 44 -12t13 -40q0 -8 -4 -42q-8 -54 -26 -75.5t-57 -21.5q-31 0 -43.5 12.5t-12.5 42.5z" />
    <glyph glyph-name="Agrave" unicode="&#xc0;" horiz-adv-x="1314" 
d="M981 424h-633l-223 -424h-121l727 1365q43 81 100 81q58 0 76 -81l289 -1365h-126zM802 1592l-203 228h157l148 -228h-102zM402 525h558l-158 760z" />
    <glyph glyph-name="Aacute" unicode="&#xc1;" horiz-adv-x="1314" 
d="M981 424h-633l-223 -424h-121l727 1365q43 81 100 81q58 0 76 -81l288 -1365h-126zM805 1580l221 228h156l-276 -228h-101zM401 525h559l-158 760z" />
    <glyph glyph-name="Acircumflex" unicode="&#xc2;" horiz-adv-x="1314" 
d="M981 424h-633l-223 -424h-121l727 1365q43 81 100 81q58 0 76 -81l288 -1365h-126zM824 1808h118l155 -228h-103l-119 169l-173 -169h-100zM401 525h559l-158 760z" />
    <glyph glyph-name="Atilde" unicode="&#xc3;" horiz-adv-x="1314" 
d="M1034 1780h78q-22 -85 -67.5 -131t-93.5 -46q-30 0 -52.5 10t-35.5 24t-24 28t-24 24t-30 10q-53 0 -84 -92h-78q22 86 67 131.5t94 45.5q36 0 62.5 -15t38.5 -32.5t29 -32.5t37 -15q52 0 83 91zM4 0l727 1365q43 81 100 81q58 0 76 -81l288 -1365h-126l-88 424h-633
l-223 -424h-121zM960 525l-158 760l-401 -760h559z" />
    <glyph glyph-name="Adieresis" unicode="&#xc4;" horiz-adv-x="1314" 
d="M981 424h-633l-223 -424h-121l727 1365q43 81 100 81q58 0 76 -81l288 -1365h-126zM710 1609q-33 0 -52.5 23.5t-14.5 57.5t32.5 58t60.5 24t52.5 -24t14.5 -58t-32 -57.5t-61 -23.5zM1002 1609q-34 0 -53 23.5t-14 57.5t32.5 58t60.5 24t52.5 -24t14.5 -58t-32.5 -57.5
t-60.5 -23.5zM401 525h559l-158 760z" />
    <glyph glyph-name="Aring" unicode="&#xc5;" horiz-adv-x="1314" 
d="M684 1724q0 21 2 32q13 81 78 137.5t144 56.5q72 0 118 -46.5t46 -116.5q0 -16 -3 -31q-13 -81 -78.5 -138.5t-144.5 -57.5q-71 0 -116.5 47t-45.5 117zM758 1756q-1 -7 -1 -20q0 -44 28.5 -73t72.5 -29q50 0 91 35.5t48 86.5q1 7 1 19q0 44 -28.5 73t-73.5 29
q-50 0 -90.5 -35.5t-47.5 -85.5zM981 424h-633l-223 -424h-121l727 1365q43 81 100 81q58 0 76 -81l288 -1365h-126zM401 525h559l-158 760z" />
    <glyph glyph-name="AE" unicode="&#xc6;" horiz-adv-x="1830" 
d="M124 0h-120l688 1293q44 81 119 117t164 36q140 0 185 -106q34 32 78.5 52.5t101.5 29t102.5 11t115.5 2.5q143 0 333 -8l-15 -96h-341q-89 0 -145.5 -8t-98 -25t-66 -53.5t-40 -83.5t-27.5 -125l-40 -256h641l-16 -101h-641l-46 -285q-13 -81 -13 -127q0 -100 62 -133
t235 -33h341l-15 -99q-139 -6 -336 -6q-54 0 -90 1t-83 6t-78 14.5t-64 26.5t-52 41.5t-31.5 61t-12.5 82.5q0 33 6 74l19 121h-597zM401 525h559l97 618q7 51 7 76q0 66 -29 94t-93 28q-32 0 -59 -10t-44.5 -22.5t-37.5 -39t-29 -43t-28 -51.5q-5 -10 -8 -15z" />
    <glyph glyph-name="Ccedilla" unicode="&#xc7;" horiz-adv-x="1039" 
d="M1141 1319q-142 22 -229 22q-75 0 -137.5 -8t-113 -22t-91.5 -39t-72.5 -53t-57 -70t-44 -84.5t-34.5 -101t-27 -115t-23 -132.5q-29 -186 -29 -283q0 -90 20.5 -152t69.5 -106t133 -64.5t208 -20.5q78 0 236 22l-4 -97q-144 -26 -278 -29l-61 -79q59 -2 96 -32.5
t37 -82.5q0 -15 -1 -23q-13 -80 -76 -118.5t-149 -38.5q-77 0 -128 31l35 65q50 -25 106 -25q41 0 74 18t40 59q6 34 -21 58t-61 33.5t-67 9.5l93 125q-228 9 -324 112t-96 320q0 128 27 298q25 159 58 272t84.5 204t124 144.5t172.5 81.5t235 28q163 0 303 -28z" />
    <glyph glyph-name="Egrave" unicode="&#xc8;" horiz-adv-x="1064" 
d="M1125 1427l-15 -96h-341q-74 0 -124 -4.5t-91 -18t-65.5 -33t-43.5 -55t-30.5 -77.5t-21.5 -107l-41 -256h642l-16 -101h-643l-44 -285q-13 -81 -13 -127q0 -99 62 -132.5t235 -33.5h341l-16 -99q-139 -6 -336 -6q-54 0 -90.5 1t-83.5 6t-78 14.5t-64 26.5t-52 41.5
t-31.5 61t-12.5 82.5q0 27 7 74l130 824q10 62 31.5 110t47.5 80t66 55t76 35t89.5 18.5t93 8t99.5 1.5q143 0 333 -8zM813 1569l-205 228h157l149 -228h-101z" />
    <glyph glyph-name="Eacute" unicode="&#xc9;" horiz-adv-x="1064" 
d="M1126 1427l-16 -96h-341q-74 0 -124 -4.5t-91 -18t-65.5 -33t-43.5 -55t-30.5 -77.5t-21.5 -107l-41 -256h642l-16 -101h-643l-44 -285q-13 -81 -13 -127q0 -99 62 -132.5t235 -33.5h341l-16 -99q-139 -6 -336 -6q-54 0 -90.5 1t-83.5 6t-78 14.5t-64 26.5t-52 41.5
t-31.5 61t-12.5 82.5q0 27 7 74l130 824q10 62 31.5 110t47.5 80t66 55t76 35t89.5 18.5t93 8t99.5 1.5q144 0 334 -8zM699 1569l221 228h157l-276 -228h-102z" />
    <glyph glyph-name="Ecircumflex" unicode="&#xca;" horiz-adv-x="1064" 
d="M1125 1427l-15 -96h-341q-89 0 -145.5 -8t-98 -25t-66 -53.5t-40 -83.5t-27.5 -125l-41 -256h642l-16 -101h-642l-44 -285q-13 -81 -13 -127q0 -100 61.5 -133t234.5 -33h341l-15 -99q-139 -6 -337 -6q-54 0 -90 1t-83 6t-78 14.5t-64 26.5t-52 41.5t-31.5 61t-12.5 82.5
q0 27 7 74l130 824q10 62 31 110t47.5 80t66.5 55t75.5 35t89 18.5t93 8t99.5 1.5q144 0 334 -8zM759 1797h118l156 -228h-104l-119 169l-172 -169h-102z" />
    <glyph glyph-name="Edieresis" unicode="&#xcb;" horiz-adv-x="1064" 
d="M1126 1427l-16 -96h-341q-74 0 -124 -4.5t-91 -18t-66 -33t-44.5 -55t-30.5 -77.5t-21 -107l-40 -256h642l-16 -101h-643l-44 -285q-13 -81 -13 -127q0 -99 62 -132.5t235 -33.5h341l-16 -99q-139 -6 -336 -6q-54 0 -90.5 1t-83.5 6t-78 14.5t-64 26.5t-52 41.5t-31.5 61
t-12.5 82.5q0 27 7 74l130 824q10 62 31.5 110t47.5 80t66 55t76 35t89.5 18.5t93 8t99.5 1.5q142 0 334 -8zM652 1599q-34 0 -53.5 24t-14.5 58t32 57.5t61 23.5t53 -23.5t14 -57.5t-32 -58t-60 -24zM944 1599q-33 0 -53 24t-15 58t32.5 57.5t60.5 23.5q34 0 53.5 -23.5
t14.5 -57.5t-32 -58t-61 -24z" />
    <glyph glyph-name="Igrave" unicode="&#xcc;" horiz-adv-x="468" 
d="M119 0l226 1432h118l-226 -1432h-118zM375 1574l-204 228h157l149 -228h-102z" />
    <glyph glyph-name="Iacute" unicode="&#xcd;" horiz-adv-x="468" 
d="M119 0l226 1432h118l-226 -1432h-118zM376 1574l221 228h157l-277 -228h-101z" />
    <glyph glyph-name="Icircumflex" unicode="&#xce;" horiz-adv-x="468" 
d="M401 1792h118l155 -228h-104l-118 169l-173 -169h-101zM119 0l226 1432h118l-226 -1432h-118z" />
    <glyph glyph-name="Idieresis" unicode="&#xcf;" horiz-adv-x="469" 
d="M285 1595q-33 0 -52.5 23.5t-14.5 57.5t32.5 58t60.5 24t52.5 -24t14.5 -58t-32.5 -57.5t-60.5 -23.5zM578 1595q-34 0 -53.5 23.5t-14.5 57.5t32.5 58t60.5 24t52.5 -24t14.5 -58t-32 -57.5t-60 -23.5zM119 0l226 1432h119l-227 -1432h-118z" />
    <glyph glyph-name="Eth" unicode="&#xd0;" horiz-adv-x="1407" 
d="M288 694h-125l14 93h126l100 629q195 30 422 30q148 0 248.5 -26.5t160 -82.5t85 -134t25.5 -190q0 -123 -28 -297q-17 -111 -37 -194.5t-49.5 -163t-67.5 -135.5t-91 -103t-121.5 -75.5t-157 -44t-198.5 -15.5q-215 0 -413 32zM406 694l-93 -583q145 -21 255 -21
q87 0 159 11t126.5 26t99.5 47t75.5 58.5t56.5 77t40.5 85t30 100t22.5 105t19 116.5q31 190 31 286q0 82 -20 140.5t-70 105.5t-142.5 70.5t-228.5 23.5q-88 0 -262 -20l-85 -535h233l-15 -93h-232z" />
    <glyph glyph-name="Ntilde" unicode="&#xd1;" horiz-adv-x="1409" 
d="M432 1266l-200 -1266h-112l216 1362q13 84 86 84q54 0 92 -79l576 -1200l200 1265h112l-216 -1363q-6 -42 -29.5 -63t-56.5 -21q-54 0 -92 80zM1088 1779h78q-23 -85 -68 -131.5t-93 -46.5q-30 0 -52.5 10t-35.5 24.5t-24 28.5t-24 24t-30 10q-53 0 -84 -92h-78
q22 85 67.5 131t93.5 46q36 0 62.5 -15t38.5 -33t29 -33t37 -15q51 0 83 92z" />
    <glyph glyph-name="Ograve" unicode="&#xd2;" horiz-adv-x="1364" 
d="M623 -15q-243 0 -347 101t-104 330q0 123 28 300q32 201 78 334t122.5 224.5t186.5 131.5t268 40q243 0 346.5 -100.5t103.5 -328.5q0 -116 -29 -301q-25 -161 -59 -276t-85 -204.5t-121.5 -143t-165.5 -80.5t-222 -27zM320 716q-34 -219 -34 -312q0 -76 16 -131
t54.5 -97.5t107.5 -64t170 -21.5q66 0 121.5 10t99 26.5t80 45.5t63 58.5t49 75t37.5 85.5t29 99t23 107.5t20 118.5q34 219 34 310q0 77 -16 132t-54 97.5t-106.5 64t-169.5 21.5q-66 0 -122 -10t-99.5 -26t-80 -45t-63 -58.5t-49.5 -74.5t-38 -85.5t-29 -99.5t-23 -107.5
t-20 -118.5zM875 1573l-204 228h157l148 -228h-101z" />
    <glyph glyph-name="Oacute" unicode="&#xd3;" horiz-adv-x="1364" 
d="M623 -15q-243 0 -347 101t-104 330q0 123 28 300q32 201 78 334t122.5 224.5t186.5 131.5t268 40q243 0 346.5 -100.5t103.5 -328.5q0 -116 -29 -301q-25 -161 -59 -276t-85 -204.5t-121.5 -143t-165.5 -80.5t-222 -27zM320 716q-34 -219 -34 -312q0 -76 16 -131
t54.5 -97.5t107.5 -64t170 -21.5q66 0 121.5 10t99 26.5t80 45.5t63 58.5t49 75t37.5 85.5t29 99t23 107.5t20 118.5q34 219 34 310q0 77 -16 132t-54 97.5t-106.5 64t-169.5 21.5q-66 0 -122 -10t-99.5 -26t-80 -45t-63 -58.5t-49.5 -74.5t-38 -85.5t-29 -99.5t-23 -107.5
t-20 -118.5zM783 1573l222 228h156l-276 -228h-102z" />
    <glyph glyph-name="Ocircumflex" unicode="&#xd4;" horiz-adv-x="1363" 
d="M623 -15q-244 0 -347.5 101t-103.5 330q0 121 28 300q32 201 78 334t122.5 224.5t186.5 131.5t268 40q243 0 346 -100t103 -328q0 -122 -28 -302q-25 -161 -59.5 -276t-85 -204.5t-121.5 -143t-166 -80.5t-221 -27zM286 404q0 -76 16 -131t54 -97.5t107 -64t170 -21.5
q59 0 110 7t92.5 23t76 35.5t62 50t49.5 60t39.5 73t30.5 81t25 91.5t20 98.5t18 106.5q34 219 34 310q0 77 -16 132t-54 97.5t-106.5 64t-169.5 21.5q-66 0 -122 -10t-99.5 -26t-80 -45t-63 -58.5t-49.5 -74.5t-38 -85.5t-29 -99.5t-23 -107.5t-20 -118.5
q-34 -219 -34 -312zM850 1801h118l155 -228h-104l-118 169l-173 -169h-101z" />
    <glyph glyph-name="Otilde" unicode="&#xd5;" horiz-adv-x="1363" 
d="M1056 1764h78q-23 -85 -68 -131.5t-93 -46.5q-37 0 -63.5 15t-38 33t-28.5 33t-37 15q-52 0 -83 -92h-78q22 85 67.5 131.5t93.5 46.5q36 0 62.5 -15t38.5 -33t29 -33t37 -15q53 0 83 92zM200 716q32 201 78 334t122 224.5t186 131.5t268 40q243 0 346.5 -101t103.5 -329
q0 -121 -28 -300q-32 -201 -78 -334t-122.5 -225t-186 -132t-267.5 -40q-243 0 -346.5 101t-103.5 329q0 122 28 301zM633 90q117 0 202.5 32.5t137.5 80.5t89.5 137.5t55 168t38.5 207.5q34 219 34 309q0 158 -76 237t-271 79q-66 0 -122 -10t-99.5 -26t-80 -45t-63 -58.5
t-49 -75t-37.5 -85.5t-29 -99t-23 -107.5t-20 -118.5q-34 -219 -34 -311q0 -76 16 -131t54 -98t107 -64.5t170 -21.5z" />
    <glyph glyph-name="Odieresis" unicode="&#xd6;" horiz-adv-x="1363" 
d="M622 -15q-242 0 -346 101t-104 329q0 121 28 301q32 201 77.5 334t122 224.5t186 131.5t267.5 40q243 0 347 -101t104 -329q0 -121 -28 -300q-25 -161 -59.5 -276t-85 -204.5t-121.5 -143t-166 -80.5t-222 -27zM286 405q0 -76 16 -131t54 -98t107 -64.5t170 -21.5
q117 0 202.5 32.5t137.5 80.5t89.5 137.5t55 168t38.5 207.5q34 219 34 310q0 77 -16 132t-54.5 97.5t-107 64t-169.5 21.5q-66 0 -122 -10t-99.5 -26t-80 -45t-63 -58.5t-49 -75t-37.5 -85.5t-29 -99t-23 -107.5t-20 -118.5q-34 -219 -34 -311zM731 1590q-33 0 -52.5 24
t-14.5 58t32 58t60 24t52.5 -24t14.5 -58t-32 -58t-60 -24zM1023 1590q-34 0 -53.5 24t-14.5 58t32.5 58t61.5 24q33 0 52 -24t14 -58t-32 -58t-60 -24z" />
    <glyph glyph-name="multiply" unicode="&#xd7;" horiz-adv-x="1100" 
d="M882 161l-298 362l-411 -362l-64 79l411 361l-296 361l90 80l297 -362l411 361l63 -78l-410 -360l298 -362z" />
    <glyph glyph-name="Oslash" unicode="&#xd8;" horiz-adv-x="1363" 
d="M300 65l-95 -126l-73 51l106 140q-66 98 -66 284q0 122 28 302q32 201 78 334t122 224.5t186 131.5t268 40q215 0 320 -79l97 127l73 -52l-107 -141q66 -99 66 -287q0 -127 -27 -298q-32 -201 -78 -334t-122.5 -225t-186 -132t-267.5 -40q-215 0 -322 80zM1159 1198
l-786 -1038q82 -70 260 -70q117 0 202.5 32.5t137.5 80.5t89.5 137.5t55 168t38.5 207.5q34 219 34 309q0 110 -31 173zM316 233l786 1039q-81 69 -259 69q-66 0 -122 -10t-99.5 -26t-80 -45t-63 -58.5t-49 -75t-37.5 -85.5t-29 -99t-23 -107.5t-20 -118.5
q-34 -219 -34 -312q0 -107 30 -171z" />
    <glyph glyph-name="Ugrave" unicode="&#xd9;" horiz-adv-x="1341" 
d="M1336 1432l-153 -975q-22 -137 -71.5 -231t-126 -146t-167 -73.5t-210.5 -21.5q-104 0 -180.5 16.5t-136 54.5t-90 106t-30.5 167q0 54 11 128l154 975h117l-156 -991q-8 -44 -8 -92q0 -131 80.5 -194.5t254.5 -63.5q203 0 306.5 85t131.5 265l157 991h117zM853 1563
l-204 228h157l148 -228h-101z" />
    <glyph glyph-name="Uacute" unicode="&#xda;" horiz-adv-x="1341" 
d="M1336 1432l-153 -975q-22 -137 -71.5 -231t-126 -146t-167 -73.5t-210.5 -21.5q-104 0 -180.5 16.5t-136 54.5t-90 106t-30.5 167q0 54 11 128l153 975h118l-156 -991q-8 -44 -8 -92q0 -131 80.5 -194.5t254.5 -63.5q203 0 306.5 85t131.5 265l157 991h117zM771 1563
l221 228h156l-275 -228h-102z" />
    <glyph glyph-name="Ucircumflex" unicode="&#xdb;" horiz-adv-x="1341" 
d="M1336 1432l-153 -975q-22 -137 -71.5 -231t-126 -146t-167 -73.5t-210.5 -21.5q-104 0 -180.5 16.5t-136 54.5t-90 106t-30.5 167q0 54 11 128l154 975h117l-156 -991q-8 -44 -8 -92q0 -131 80.5 -194.5t254.5 -63.5q203 0 306.5 85t131.5 265l157 991h117zM843 1791h119
l154 -228h-103l-118 169l-174 -169h-101z" />
    <glyph glyph-name="Udieresis" unicode="&#xdc;" horiz-adv-x="1341" 
d="M1337 1432l-155 -975q-17 -110 -53.5 -192.5t-86.5 -135.5t-119 -85.5t-144.5 -45.5t-170.5 -13q-104 0 -180.5 16.5t-136.5 54.5t-90.5 106t-30.5 166q0 55 11 129l155 975h117l-156 -991q-8 -53 -8 -91q0 -131 80.5 -195t254.5 -64q203 0 306.5 85t131.5 265l158 991
h117zM717 1595q-34 0 -53.5 24t-14.5 58t32.5 58t60.5 24q34 0 53 -24t14 -58t-32 -58t-60 -24zM1009 1595q-33 0 -53 24t-15 58t32.5 58t61.5 24q33 0 52.5 -24t14.5 -58t-32.5 -58t-60.5 -24z" />
    <glyph glyph-name="Yacute" unicode="&#xdd;" horiz-adv-x="1113" 
d="M645 558l-88 -558h-120l89 558l-308 874h129l261 -747l502 747h125zM672 1557l221 228h157l-276 -228h-102z" />
    <glyph glyph-name="Thorn" unicode="&#xde;" horiz-adv-x="1206" 
d="M106 0l226 1432h118l-44 -280q153 17 305 17q86 0 152.5 -7t131 -27.5t106.5 -54.5t67.5 -91.5t25.5 -135.5q0 -50 -8 -97q-13 -85 -41 -151.5t-69 -112.5t-90.5 -77.5t-113.5 -48.5t-130 -24.5t-147 -7.5q-122 0 -317 11l-55 -345h-117zM294 452q138 -15 301 -15
q107 0 182.5 14t138 49t99.5 98t52 158q7 49 7 78q0 123 -87.5 177.5t-284.5 54.5q-152 0 -314 -21z" />
    <glyph glyph-name="germandbls" unicode="&#xdf;" horiz-adv-x="1233" 
d="M367 985l-156 -985h-112l156 985q46 294 170.5 420.5t364.5 126.5q195 0 288 -71.5t93 -191.5q0 -30 -4 -55q-9 -59 -35 -104t-60.5 -73.5t-75 -51.5t-80 -42.5t-73 -41.5t-57.5 -54.5t-31 -75.5q-2 -18 -2 -26q0 -37 20.5 -66t53 -48t71.5 -36.5t78 -38.5t71.5 -48
t53 -70.5t20.5 -99.5q0 -32 -5 -60q-12 -80 -45.5 -138t-83 -91t-107.5 -48.5t-127 -15.5q-129 0 -267 38l25 96q135 -32 203 -32q27 0 44 0.5t48 4t52 10t47.5 20t43.5 32.5t32 48.5t21 67.5q3 20 3 37q0 45 -20 79t-52.5 56t-71.5 41t-78.5 39t-72 44.5t-52.5 64t-20 90.5
q0 26 4 50q9 58 35 102t60 70t74 47t79.5 41t73.5 44t59 62.5t33 90.5q3 15 3 30q0 78 -70 125t-215 47q-185 0 -276 -97t-131 -348z" />
    <glyph glyph-name="agrave" unicode="&#xe0;" horiz-adv-x="1117" 
d="M1036 782l-85 -531q-21 -127 -32 -181q-194 -85 -450 -85q-196 0 -287.5 55.5t-91.5 187.5q0 37 6 79q47 297 316 337q147 22 496 34l11 67q8 44 8 89q0 95 -63 134.5t-222 39.5q-125 0 -358 -33l5 97q237 37 399 37q64 0 114.5 -6.5t97 -23t77 -44t48.5 -71.5t18 -103
q0 -28 -7 -79zM493 85q176 0 327 54q20 107 31 182l41 262q-313 -5 -458 -32q-102 -20 -154 -72.5t-70 -168.5q-6 -34 -6 -61q0 -94 67 -129t222 -35zM637 1537l128 -282h-95l-180 282h147z" />
    <glyph glyph-name="aacute" unicode="&#xe1;" horiz-adv-x="1118" 
d="M1036 782l-84 -531q-17 -104 -33 -181q-194 -85 -450 -85q-196 0 -287.5 55.5t-91.5 187.5q0 37 6 79q47 297 316 337q147 22 496 34l11 67q8 44 8 89q0 95 -63 134.5t-222 39.5q-125 0 -358 -33l5 97q237 37 399 37q64 0 114.5 -6.5t97 -23t77 -44t48.5 -71.5t18 -103
q0 -28 -7 -79zM493 85q177 0 327 54q20 107 31 182l41 262q-313 -5 -458 -32q-102 -20 -154 -72.5t-70 -168.5q-5 -29 -5 -62q0 -94 66 -128.5t222 -34.5zM1003 1535l-269 -281h-94l217 281h146z" />
    <glyph glyph-name="acircumflex" unicode="&#xe2;" horiz-adv-x="1117" 
d="M1035 782l-84 -531q-21 -127 -32 -181q-194 -85 -450 -85q-196 0 -287.5 55t-91.5 187q0 37 6 80q47 297 316 337q147 22 496 34l10 67q8 53 8 88q0 96 -62 135.5t-222 39.5q-125 0 -358 -33l5 97q237 37 398 37q64 0 114.5 -6.5t97 -23t77 -44t48.5 -71.5t18 -103
q0 -28 -7 -79zM493 85q176 0 326 54q17 87 32 182l41 262q-313 -5 -458 -32q-102 -20 -154 -72.5t-70 -168.5q-6 -34 -6 -61q0 -94 66.5 -129t222.5 -35zM936 1247h-97l-102 209l-170 -209h-94l219 282h110z" />
    <glyph glyph-name="atilde" unicode="&#xe3;" horiz-adv-x="1118" 
d="M1036 782l-84 -531q-17 -104 -33 -181q-194 -85 -450 -85q-196 0 -287.5 55.5t-91.5 187.5q0 37 6 79q47 297 316 337q146 22 496 34l11 67q8 44 8 89q0 95 -63 134.5t-222 39.5q-127 0 -358 -33l5 97q237 37 399 37q64 0 114.5 -6.5t97 -23t77 -44t48.5 -71.5t18 -103
q0 -28 -7 -79zM650 1488q30 0 52.5 -10.5t35.5 -25t24 -29t24 -25t30 -10.5q53 0 85 96h77q-24 -89 -69 -137.5t-93 -48.5q-30 0 -52.5 10.5t-35.5 25t-24 29.5t-24 25.5t-30 10.5q-51 0 -83 -96h-79q23 89 68.5 137t93.5 48zM852 321l41 262q-314 -5 -459 -32
q-102 -20 -154 -72.5t-70 -168.5q-5 -29 -5 -61q0 -94 66.5 -129t221.5 -35q177 0 327 54q26 143 32 182z" />
    <glyph glyph-name="adieresis" unicode="&#xe4;" horiz-adv-x="1117" 
d="M1035 782l-84 -531q-21 -127 -32 -181q-194 -85 -450 -85q-196 0 -287.5 55.5t-91.5 187.5q0 37 6 79q47 297 316 337q147 22 496 34l11 67q8 44 8 89q0 95 -63 134.5t-222 39.5q-125 0 -358 -33l5 97q237 37 398 37q64 0 114.5 -6.5t97 -23t77 -44t48.5 -71.5t18 -103
q0 -28 -7 -79zM493 85q176 0 327 54q6 32 17 99.5t14 82.5l42 262q-314 -5 -459 -32q-102 -20 -154 -72.5t-70 -168.5q-6 -34 -6 -61q0 -94 67 -129t222 -35zM602 1467q33 0 52.5 -24t14.5 -58q-6 -34 -33 -58t-60 -24q-34 0 -53 24t-14 58t32 58t61 24zM801 1385
q5 34 32.5 58t60.5 24q34 0 53 -24t14 -58t-32.5 -58t-60.5 -24t-52.5 24t-14.5 58z" />
    <glyph glyph-name="aring" unicode="&#xe5;" horiz-adv-x="1117" 
d="M1035 782l-84 -531q-21 -127 -32 -181q-194 -85 -450 -85q-196 0 -287.5 55.5t-91.5 187.5q0 37 6 79q47 297 316 337q147 22 496 34l11 67q8 44 8 89q0 95 -63 134.5t-222 39.5q-125 0 -358 -33l5 97q237 37 399 37q82 0 141.5 -10.5t110 -37t76.5 -76.5t26 -123
q0 -29 -7 -80zM493 85q176 0 327 54q20 107 31 182l41 262q-313 -5 -458 -32q-102 -20 -154 -72.5t-70 -168.5q-6 -34 -6 -61q0 -94 67 -129t222 -35zM927 1451q0 -17 -3 -32q-13 -81 -78 -138t-145 -57q-71 0 -116.5 46.5t-45.5 116.5q0 21 2 32q13 81 78 138t144 57
q72 0 118 -46.5t46 -116.5zM713 1298q50 0 91 35t48 86q1 7 1 19q0 44 -28.5 73t-73.5 29q-50 0 -90.5 -35.5t-47.5 -85.5q-2 -14 -2 -19q0 -44 28.5 -73t73.5 -29z" />
    <glyph glyph-name="ae" unicode="&#xe6;" horiz-adv-x="1883" 
d="M909 66q-193 -81 -440 -81q-196 0 -287.5 55.5t-91.5 187.5q0 37 6 79q47 297 316 337q147 22 496 34l10 67q9 50 9 88q0 95 -62.5 135t-222.5 40q-127 0 -358 -33l5 97q237 37 399 37q69 0 121.5 -7.5t99 -26t76.5 -53t42 -84.5q65 88 166 129.5t249 41.5q211 0 303 -86
t92 -251q0 -57 -13 -138q-7 -45 -21 -114q-93 -16 -256 -31t-278 -20l-282 -11q-3 -47 -3 -89q0 -71 13.5 -119.5t48.5 -87t100.5 -57t164.5 -18.5q155 0 381 32l-5 -99q-236 -35 -449 -35q-235 0 -316 152zM851 321l42 262q-315 -5 -460 -32q-102 -20 -153.5 -72.5
t-69.5 -168.5q-6 -34 -6 -61q0 -94 66.5 -129t222.5 -35q176 0 326 54q10 57 32 182zM1720 687q7 49 7 80q0 243 -301 243q-107 0 -180.5 -26t-122 -85t-76 -140.5t-47.5 -206.5l312 15q212 10 392 33q7 30 16 87z" />
    <glyph glyph-name="ccedilla" unicode="&#xe7;" horiz-adv-x="884" 
d="M925 990q-89 17 -173 17q-88 0 -153.5 -11t-113 -37t-79 -58.5t-54.5 -88t-36.5 -112t-26.5 -141.5q-22 -141 -22 -208q0 -65 15.5 -111.5t52.5 -82t103.5 -52.5t164.5 -17q64 0 184 24l-5 -97q-149 -28 -242 -30l-61 -78q59 -2 96.5 -32.5t37.5 -82.5q0 -7 -2 -23
q-13 -80 -76 -118.5t-149 -38.5q-76 0 -127 31l34 65q52 -25 107 -25q41 0 73.5 18t39.5 59q6 34 -21 58t-61 33.5t-67 9.5l94 127q-85 7 -145 36.5t-94 78.5t-49 110t-15 139q0 85 20 207q18 114 42 195.5t65.5 152t100 113t144 66t200.5 23.5q118 0 222 -28z" />
    <glyph glyph-name="egrave" unicode="&#xe8;" horiz-adv-x="1168" 
d="M172 547q48 303 172 432.5t382 129.5q212 0 304 -86.5t92 -250.5q0 -64 -12 -138q-19 -103 -21 -114q-93 -16 -256 -31t-279 -20l-282 -11q-4 -64 -4 -91q0 -71 13 -119t47.5 -86.5t100.5 -56.5t166 -18q157 0 381 32l-4 -99q-236 -35 -449 -35q-102 0 -174 26.5t-114 77
t-61 117t-19 153.5q0 74 17 188zM284 552l313 15q212 10 392 33q7 30 16 87q8 46 8 82q0 241 -300 241q-106 0 -179.5 -26t-123 -85t-78 -141t-48.5 -206zM725 1537l128 -282h-95l-180 282h147z" />
    <glyph glyph-name="eacute" unicode="&#xe9;" horiz-adv-x="1168" 
d="M172 547q48 303 172.5 432.5t382.5 129.5q211 0 303 -86t92 -251q0 -64 -12 -138q-19 -103 -21 -114q-93 -16 -256 -31t-279 -20l-282 -11q-4 -64 -4 -91q0 -71 13 -119t47.5 -86.5t100.5 -56.5t166 -18q157 0 381 32l-4 -99q-236 -35 -449 -35q-198 0 -283 97.5
t-85 277.5q0 75 17 187zM284 552l313 15q212 10 392 33q7 30 16 87q7 51 7 82q0 241 -299 241q-106 0 -179.5 -26t-123 -85t-78 -141t-48.5 -206zM1065 1532l-269 -282h-94l217 282h146z" />
    <glyph glyph-name="ecircumflex" unicode="&#xea;" horiz-adv-x="1168" 
d="M172 547q48 303 172 432.5t382 129.5q212 0 304 -86.5t92 -250.5q0 -64 -12 -138q-19 -103 -21 -114q-93 -16 -256 -31t-279 -20l-282 -11q-4 -64 -4 -91q0 -71 13 -119t47.5 -86.5t100.5 -56.5t166 -18q157 0 381 32l-4 -99q-236 -35 -449 -35q-198 0 -283 97.5
t-85 277.5q0 75 17 187zM284 552l313 15q212 10 392 33q7 30 16 87q7 51 7 82q0 241 -299 241q-106 0 -179.5 -26t-123 -85t-78 -141t-48.5 -206zM997 1247h-97l-103 209l-170 -209h-95l219 282h111z" />
    <glyph glyph-name="edieresis" unicode="&#xeb;" horiz-adv-x="1168" 
d="M172 547q48 303 172 432.5t382 129.5q212 0 304 -86.5t92 -250.5q0 -64 -12 -138q-19 -103 -21 -114q-93 -16 -256 -31t-279 -20l-282 -11q-4 -64 -4 -91q0 -71 13 -119t47.5 -86.5t100.5 -56.5t166 -18q157 0 381 32l-4 -99q-236 -35 -449 -35q-102 0 -174 26.5t-114 77
t-61 117t-19 153.5q0 74 17 188zM284 552l313 15q212 10 392 33q7 30 16 87q7 51 7 82q0 241 -299 241q-106 0 -179.5 -26t-123 -85t-78 -141t-48.5 -206zM570 1385q5 34 32 58t61 24q33 0 52.5 -24t14.5 -58t-32 -58t-61 -24q-33 0 -52.5 24t-14.5 58zM955 1467
q33 0 52.5 -24t14.5 -58q-6 -34 -33 -58t-60 -24q-34 0 -53.5 24t-14.5 58t33 58t61 24z" />
    <glyph glyph-name="igrave" unicode="&#xec;" horiz-adv-x="417" 
d="M92 0l173 1094h112l-173 -1094h-112zM298 1269l-180 282h146l129 -282h-95z" />
    <glyph glyph-name="iacute" unicode="&#xed;" horiz-adv-x="417" 
d="M92 0l173 1094h113l-173 -1094h-113zM307 1269l216 282h146l-268 -282h-94z" />
    <glyph glyph-name="icircumflex" unicode="&#xee;" horiz-adv-x="418" 
d="M338 1557h111l134 -281h-97l-103 209l-169 -209h-95zM92 0l173 1094h114l-174 -1094h-113z" />
    <glyph glyph-name="idieresis" unicode="&#xef;" horiz-adv-x="418" 
d="M211 1312q-33 0 -52.5 24t-14.5 58t32.5 58t60.5 24t52.5 -24t14.5 -58t-32 -58t-61 -24zM436 1394q5 34 32.5 58t60.5 24t52 -24t14 -58t-32 -58t-60 -24q-34 0 -53 24t-14 58zM92 0l173 1094h114l-174 -1094h-113z" />
    <glyph glyph-name="eth" unicode="&#xf0;" horiz-adv-x="1182" 
d="M971 1381l179 62l30 -71l-177 -62q88 -221 88 -500q0 -131 -22 -272q-47 -298 -173 -425.5t-382 -127.5q-211 0 -305 82.5t-94 271.5q0 87 18 199q47 299 172.5 423t382.5 124q184 0 274 -72q-22 140 -69 258l-184 -64l-28 72l182 64q-40 83 -91 156l104 33
q58 -74 95 -151zM973 722q0 144 -67.5 202.5t-227.5 58.5q-102 0 -170.5 -20t-121.5 -71t-85.5 -136t-53.5 -218q-18 -112 -18 -192q0 -147 68 -203t227 -56q136 0 219 41.5t133.5 138.5t78.5 271q18 106 18 184z" />
    <glyph glyph-name="ntilde" unicode="&#xf1;" horiz-adv-x="1211" 
d="M350 766l-121 -766h-112l133 838q17 104 33 181q229 90 498 90q102 0 172 -18t107.5 -53.5t53 -79.5t15.5 -104q0 -53 -14 -139l-113 -715h-112l108 687q13 89 13 127q0 104 -62.5 149t-226.5 45q-75 0 -178 -18t-162 -42q-26 -143 -32 -182zM957 1490h78
q-24 -89 -69 -137t-93 -48q-37 0 -63 15.5t-37.5 34.5t-28.5 34.5t-37 15.5q-51 0 -83 -96h-79q24 89 69 137t93 48q36 0 62.5 -15.5t38.5 -34.5t29 -34.5t37 -15.5q51 0 83 96z" />
    <glyph glyph-name="ograve" unicode="&#xf2;" horiz-adv-x="1204" 
d="M556 -15q-211 0 -304 82.5t-93 274.5q0 90 18 205q49 308 174.5 435t382.5 127q211 0 304.5 -84.5t93.5 -275.5q0 -82 -19 -202q-48 -304 -174.5 -433t-382.5 -129zM291 547q-18 -115 -18 -197q0 -149 67.5 -206t226.5 -57q136 0 219.5 42.5t134.5 141.5t79 276
q18 114 18 196q0 146 -67.5 205.5t-226.5 59.5q-102 0 -170.5 -20.5t-122 -73t-86 -141t-54.5 -226.5zM755 1255l-180 282h146l128 -282h-94z" />
    <glyph glyph-name="oacute" unicode="&#xf3;" horiz-adv-x="1204" 
d="M159 342q0 90 18 205q49 307 174.5 434.5t382.5 127.5q210 0 304 -84.5t94 -276.5q0 -81 -19 -201q-48 -304 -174.5 -433t-382.5 -129q-211 0 -304 82.5t-93 274.5zM272 350q0 -149 67.5 -206t226.5 -57q136 0 219.5 42.5t135 141.5t79.5 276q18 114 18 196
q0 146 -67.5 205.5t-226.5 59.5q-102 0 -170.5 -20.5t-122 -73t-86 -141t-54.5 -226.5q-19 -122 -19 -197zM675 1264l218 281h146l-268 -281h-96z" />
    <glyph glyph-name="ocircumflex" unicode="&#xf4;" horiz-adv-x="1204" 
d="M556 -15q-211 0 -304 82.5t-93 274.5q0 90 18 205q49 308 174.5 435t382.5 127q211 0 304.5 -84.5t93.5 -275.5q0 -82 -19 -202q-48 -304 -174.5 -433t-382.5 -129zM272 350q0 -149 67.5 -206t226.5 -57q202 0 297.5 99.5t136.5 360.5q18 114 18 196q0 146 -67.5 205.5
t-226.5 59.5q-102 0 -170.5 -20.5t-122 -73t-86 -141t-54.5 -226.5q-19 -122 -19 -197zM743 1535h111l135 -281h-98l-102 208l-170 -208h-95z" />
    <glyph glyph-name="otilde" unicode="&#xf5;" horiz-adv-x="1204" 
d="M945 1478h77q-23 -89 -68 -137.5t-93 -48.5q-37 0 -63 15.5t-37.5 34.5t-28.5 34.5t-37 15.5q-52 0 -84 -95h-78q23 89 68 137t93 48q30 0 53 -10.5t36 -25t24 -29t24 -25t30 -10.5q52 0 84 96zM177 547q49 308 174.5 435t382.5 127q210 0 304 -84.5t94 -276.5
q0 -81 -19 -201q-48 -304 -174.5 -433t-382.5 -129q-211 0 -304 82.5t-93 274.5q0 90 18 205zM1018 743q0 146 -67.5 205.5t-226.5 59.5q-102 0 -170.5 -20.5t-122 -73t-86 -141t-54.5 -226.5q-19 -123 -19 -198q0 -149 67.5 -205.5t226.5 -56.5q136 0 219.5 42.5t135 141.5
t79.5 276q18 114 18 196z" />
    <glyph glyph-name="odieresis" unicode="&#xf6;" horiz-adv-x="1204" 
d="M159 342q0 90 18 205q49 308 174.5 435t382.5 127q210 0 304 -84.5t94 -276.5q0 -81 -19 -201q-48 -304 -174.5 -433t-382.5 -129q-211 0 -304 82.5t-93 274.5zM272 349q0 -148 67.5 -205t225.5 -57q202 0 297.5 99.5t137.5 360.5q18 114 18 196q0 146 -67.5 205.5
t-226.5 59.5q-102 0 -170.5 -20.5t-122 -73t-86 -141t-54.5 -226.5q-19 -123 -19 -198zM712 1385q-5 -34 -32.5 -58t-61.5 -24q-33 0 -52 24t-14 58t32 58t61 24q33 0 52.5 -24t14.5 -58zM911 1303q-34 0 -53.5 24t-14.5 58t32.5 58t60.5 24t52.5 -24t14.5 -58
q-6 -34 -32.5 -58t-59.5 -24z" />
    <glyph glyph-name="divide" unicode="&#xf7;" horiz-adv-x="1173" 
d="M551 73q-40 0 -64 29t-17 69q7 41 39.5 70t72.5 29t63.5 -29t16.5 -70t-39 -69.5t-72 -28.5zM799 1032q-7 -41 -39.5 -70t-72.5 -29t-63.5 29t-17.5 70q7 41 40 69.5t72 28.5q40 0 64 -28.5t17 -69.5zM143 547l17 109h966l-17 -109h-966z" />
    <glyph glyph-name="oslash" unicode="&#xf8;" horiz-adv-x="1203" 
d="M284 44l-91 -112l-60 48l93 115q-68 82 -68 247q0 83 19 205q49 308 174.5 435t382.5 127q179 0 271 -60l92 113l60 -48l-95 -116q69 -85 69 -250q0 -87 -18 -201q-48 -303 -174.5 -432.5t-382.5 -129.5q-180 0 -272 59zM1018 742q0 104 -32 162l-631 -773
q64 -44 211 -44q202 0 297.5 99.5t136.5 360.5q18 114 18 195zM304 189l630 773q-66 46 -210 46q-102 0 -170.5 -20.5t-122 -73t-86 -141t-54.5 -226.5q-19 -123 -19 -198q0 -103 32 -160z" />
    <glyph glyph-name="ugrave" unicode="&#xf9;" horiz-adv-x="1206" 
d="M174 380l113 714h112l-109 -687q-13 -81 -13 -132q0 -102 62 -145t228 -43q74 0 175.5 17.5t160.5 41.5q4 19 32 182l122 766h111l-133 -838q-15 -90 -32 -181q-229 -90 -495 -90q-102 0 -172 18t-107.5 53.5t-53 79.5t-15.5 104q0 54 14 140zM736 1269l-179 282h146
l128 -282h-95z" />
    <glyph glyph-name="uacute" unicode="&#xfa;" horiz-adv-x="1206" 
d="M174 380l113 714h112l-109 -687q-13 -81 -13 -132q0 -102 62 -145t228 -43q74 0 175.5 17.5t160.5 41.5q26 143 32 182l121 766h112l-133 -838q-21 -127 -32 -181q-229 -90 -495 -90q-102 0 -172 18t-107.5 53.5t-53 79.5t-15.5 104q0 54 14 140zM688 1282l218 281h145
l-268 -281h-95z" />
    <glyph glyph-name="ucircumflex" unicode="&#xfb;" horiz-adv-x="1207" 
d="M174 380l113 714h112l-109 -687q-13 -81 -13 -132q0 -102 62 -145t229 -43q74 0 175 17.5t160 41.5q17 87 32 182l122 766h112l-133 -838q-8 -52 -33 -181q-229 -90 -495 -90q-102 0 -172 18t-107.5 53.5t-53 79.5t-15.5 104q0 54 14 140zM746 1569h111l134 -281h-98
l-102 209l-170 -209h-94z" />
    <glyph glyph-name="udieresis" unicode="&#xfc;" horiz-adv-x="1207" 
d="M174 380l114 714h111l-108 -687q-14 -87 -14 -132q0 -101 62.5 -144.5t228.5 -43.5q74 0 175 17.5t160 41.5q22 108 33 182l121 766h112l-133 -838q-8 -52 -33 -181q-229 -90 -495 -90q-102 0 -172 18t-107.5 53.5t-53 79.5t-15.5 104q0 54 14 140zM619 1325
q-33 0 -52.5 24t-14.5 58t32 58t60 24q34 0 53.5 -24t14.5 -58t-32.5 -58t-60.5 -24zM911 1325q-34 0 -53 24t-14 58t32 58t60 24t52.5 -24t14.5 -58t-32 -58t-60 -24z" />
    <glyph glyph-name="yacute" unicode="&#xfd;" horiz-adv-x="1018" 
d="M557 235l423 859h113l-736 -1497h-114l238 481l-274 1016h122zM627 1257l218 282h146l-269 -282h-95z" />
    <glyph glyph-name="thorn" unicode="&#xfe;" horiz-adv-x="1172" 
d="M53 -403l290 1835h113l-58 -368q174 45 328 45q196 0 284.5 -80.5t88.5 -270.5q0 -94 -19 -211q-49 -310 -170 -436t-362 -126q-151 0 -314 46l-69 -434h-112zM250 133q128 -47 270 -47q114 0 189.5 23t127 80t80.5 140.5t50 217.5q19 120 19 197q0 144 -71.5 204
t-247.5 60q-142 0 -285 -47z" />
    <glyph glyph-name="ydieresis" unicode="&#xff;" horiz-adv-x="1018" 
d="M559 1307q-34 0 -53 24t-14 58t32.5 57.5t60.5 23.5t52 -23.5t14 -57.5t-32 -58t-60 -24zM851 1307q-34 0 -53.5 24t-14.5 58t32.5 57.5t61.5 23.5q33 0 52.5 -23.5t14.5 -57.5t-32 -58t-61 -24zM557 235l422 859h114l-737 -1497h-114l239 481l-274 1016h122z" />
    <glyph glyph-name="Abreve" unicode="&#x102;" horiz-adv-x="1314" 
d="M1034 1784h79q-24 -90 -90.5 -145.5t-173.5 -55.5t-155.5 55.5t-43.5 145.5h78q1 -54 34 -89.5t99 -35.5t110.5 35.5t62.5 89.5zM4 0l727 1365q43 81 101 81q30 0 48 -19.5t27 -61.5l289 -1365h-126l-89 424h-633l-223 -424h-121zM960 525l-158 760l-400 -760h558z" />
    <glyph glyph-name="abreve" unicode="&#x103;" horiz-adv-x="1118" 
d="M1036 782l-84 -531q-17 -104 -33 -181q-194 -85 -450 -85q-196 0 -287.5 55.5t-91.5 187.5q0 37 6 79q47 297 316 337q147 22 496 34l10 67q7 46 7 86q0 97 -61.5 137t-220.5 40q-128 0 -359 -33l5 97q237 37 399 37q64 0 114.5 -6.5t97 -23t77 -44t48.5 -71.5t18 -103
q0 -28 -7 -79zM493 85q177 0 327 54q26 143 32 182l41 262q-316 -5 -459 -32q-102 -20 -154 -72.5t-70 -168.5q-5 -29 -5 -62q0 -94 66 -128.5t222 -34.5zM917 1500h80q-27 -104 -94.5 -168t-174.5 -64q-100 0 -147.5 56.5t-47.5 150.5v25h79q-2 -61 31.5 -102.5t98.5 -41.5
q66 0 111 41t64 103z" />
    <glyph glyph-name="Aogonek" unicode="&#x104;" horiz-adv-x="1314" 
d="M1210 -280l13 -62q-71 -49 -154 -49q-65 0 -104.5 34t-39.5 93q0 14 3 29q10 63 57 125.5t104 109.5h-20l-88 424h-633l-223 -424h-121l727 1365q43 81 101 81t76 -81l287 -1365h-32q-120 -108 -133 -195q-1 -8 -1 -23q0 -39 23 -61.5t65 -22.5q53 0 93 22zM960 525
l-158 760l-401 -760h559z" />
    <glyph glyph-name="aogonek" unicode="&#x105;" horiz-adv-x="1118" 
d="M908 678l10 67q9 50 9 88q0 95 -62.5 135t-222.5 40q-127 0 -358 -33l5 97q237 37 399 37q64 0 114.5 -6.5t96.5 -23t76.5 -44t48.5 -71.5t18 -103q0 -28 -7 -79l-83 -531q-13 -80 -34 -181q-78 -35 -178 -58q-92 -94 -103 -166q-2 -16 -2 -22q0 -39 23.5 -62t65.5 -23
q53 0 93 22l14 -62q-71 -49 -155 -49q-64 0 -104 34t-40 94q0 13 3 28q15 93 112 190q-91 -11 -178 -11q-196 0 -287.5 55.5t-91.5 187.5q0 37 6 79q47 297 316 337q147 22 496 34zM434 551q-102 -20 -154 -72.5t-70 -168.5q-6 -34 -6 -61q0 -94 66.5 -129t222.5 -35
q177 0 327 54q6 32 17 99.5t14 82.5l42 262q-314 -5 -459 -32z" />
    <glyph glyph-name="Cacute" unicode="&#x106;" horiz-adv-x="1039" 
d="M946 15q-161 -30 -311 -30q-256 0 -363 102.5t-107 330.5q0 128 27 298q25 159 58 272t84.5 204t124 144.5t172.5 81.5t235 28q163 0 303 -28l-28 -99q-142 22 -229 22q-75 0 -137.5 -8t-113 -22t-91.5 -39t-72.5 -53t-57 -70t-44 -84.5t-34.5 -101t-27 -115t-23 -132.5
q-29 -186 -29 -283q0 -90 20.5 -152t69.5 -106t133 -64.5t208 -20.5q78 0 236 22zM1118 1800l-276 -228h-102l221 228h157z" />
    <glyph glyph-name="cacute" unicode="&#x107;" horiz-adv-x="884" 
d="M782 15q-154 -30 -264 -30q-102 0 -174 26t-112.5 76.5t-58.5 114.5t-18 149t20 208q18 114 42 195.5t65.5 152t100 113t144 66t199.5 23.5q121 0 223 -28l-24 -91q-89 17 -174 17q-88 0 -153 -11t-112.5 -37t-79 -58.5t-54.5 -88t-36.5 -112t-26.5 -141.5
q-22 -141 -22 -208q0 -65 15.5 -111.5t52.5 -82t103.5 -52.5t164.5 -17q63 0 183 24zM945 1535l-268 -281h-95l217 281h146z" />
    <glyph glyph-name="Ccaron" unicode="&#x10c;" horiz-adv-x="1039" 
d="M946 15q-161 -30 -312 -30q-256 0 -363 102.5t-107 329.5q0 122 28 299q25 159 58 272t84.5 204t124 144.5t172.5 81.5t235 28q162 0 302 -28l-28 -99q-142 22 -228 22q-75 0 -137.5 -8t-113 -22t-91.5 -39t-72.5 -53t-57 -70t-44 -84.5t-34.5 -101t-27 -115t-23 -132.5
q-29 -188 -29 -285q0 -121 37.5 -193t132.5 -110t260 -38q79 0 237 22zM829 1631l173 169h101l-223 -228h-118l-156 228h104z" />
    <glyph glyph-name="ccaron" unicode="&#x10d;" horiz-adv-x="884" 
d="M782 15q-154 -30 -264 -30q-102 0 -174 26t-112.5 76.5t-58.5 114.5t-18 149t20 208q18 114 42 195.5t65.5 152t100 113t144 66t199.5 23.5q121 0 223 -28l-24 -91q-87 17 -174 17q-88 0 -153 -11t-112.5 -37t-79 -58.5t-54.5 -88t-36.5 -112t-26.5 -141.5
q-22 -141 -22 -208q0 -65 15.5 -111.5t52.5 -82t103.5 -52.5t164.5 -17q63 0 183 24zM685 1328l170 209h95l-219 -282h-111l-134 282h97z" />
    <glyph glyph-name="Dcaron" unicode="&#x10e;" horiz-adv-x="1346" 
d="M341 1416q195 30 423 30q196 0 311 -49.5t161.5 -141.5t46.5 -242q0 -117 -29 -297q-21 -130 -45 -224t-61.5 -181t-89.5 -144t-125.5 -100t-172.5 -62.5t-227 -19.5q-215 0 -413 32zM444 1322l-192 -1211q145 -21 255 -21q87 0 159 11t126.5 26t99.5 47t75.5 58.5
t56.5 77t40.5 85t29.5 100t22 105t19 116.5q32 196 32 286q0 65 -12 114.5t-43.5 93.5t-83 72t-133 44t-190.5 16q-89 0 -261 -20zM834 1633l174 169h100l-223 -228h-118l-156 228h105z" />
    <glyph glyph-name="dcaron" unicode="&#x10f;" horiz-adv-x="1155" 
d="M985 1064l72 453h112l-201 -1266q-17 -104 -33 -181q-177 -85 -408 -85q-212 0 -309.5 82.5t-97.5 279.5q0 80 19 200q49 310 170 436t361 126q156 0 315 -45zM699 1008q-115 0 -190 -23t-126.5 -80.5t-80 -140.5t-49.5 -217q-16 -106 -16 -174q0 -152 72 -220t234 -68
q160 0 293 56q7 36 32 182l101 638q-128 47 -270 47zM1519 1517l-216 -430h-81l185 430h112z" />
    <glyph glyph-name="Dcroat" unicode="&#x110;" horiz-adv-x="1407" 
d="M288 694h-125l14 93h126l100 629q195 30 422 30q148 0 248.5 -26.5t160 -82.5t85 -134t25.5 -190q0 -123 -28 -297q-17 -111 -37 -194.5t-49.5 -163t-67.5 -135.5t-91 -103t-121.5 -75.5t-157 -44t-198.5 -15.5q-215 0 -413 32zM406 694l-93 -583q145 -21 255 -21
q87 0 159 11t126.5 26t99.5 47t75.5 58.5t56.5 77t40.5 85t30 100t22.5 105t19 116.5q31 190 31 286q0 82 -20 140.5t-70 105.5t-142.5 70.5t-228.5 23.5q-88 0 -262 -20l-85 -535h233l-15 -93h-232z" />
    <glyph glyph-name="dcroat" unicode="&#x111;" horiz-adv-x="1156" 
d="M1279 1258h-151l-160 -1007q-21 -127 -32 -181q-177 -85 -409 -85q-212 0 -309 82.5t-97 279.5q0 86 18 200q49 310 170.5 436t361.5 126q154 0 315 -45l30 194h-220l13 83h220l28 176h112l-28 -176h151zM699 1008q-115 0 -190 -23t-126.5 -80.5t-80 -140.5t-49.5 -217
q-16 -106 -16 -173q0 -153 71.5 -221t234.5 -68q160 0 293 56q7 36 32 182l101 638q-128 47 -270 47z" />
    <glyph glyph-name="Eogonek" unicode="&#x118;" horiz-adv-x="1064" 
d="M1125 1427l-15 -96h-341q-89 0 -145.5 -8t-98 -25t-66 -53.5t-40 -83.5t-27.5 -125l-41 -256h643l-17 -101h-642l-44 -285q-13 -81 -13 -128q0 -99 61.5 -132t234.5 -33h341l-15 -99q-19 -1 -40 -1.5t-46 -1t-39 -0.5q-115 -106 -130 -194q-2 -16 -2 -23
q0 -39 23.5 -61.5t65.5 -22.5q53 0 93 22l13 -62q-71 -49 -155 -49q-64 0 -104 33.5t-40 93.5q0 14 3 29q10 62 55.5 123.5t102.5 108.5q-46 -1 -136 -1q-54 0 -90.5 1t-83.5 6t-78 14.5t-64 26.5t-52 41.5t-31.5 61t-12.5 82.5q0 27 7 74l130 824q10 62 31.5 110t47.5 80
t66 55t76 35t89.5 18.5t93 8t99.5 1.5q143 0 333 -8z" />
    <glyph glyph-name="eogonek" unicode="&#x119;" horiz-adv-x="1168" 
d="M172 547q48 303 172.5 432.5t382.5 129.5q211 0 303 -86.5t92 -251.5q0 -63 -12 -137q-19 -103 -21 -114q-94 -16 -257 -31t-278 -20l-282 -11q-3 -48 -3 -91q0 -71 13 -118.5t47.5 -86t100.5 -57t166 -18.5q156 0 380 32l-3 -99q-121 -19 -237 -27q-106 -101 -118 -182
q-2 -16 -2 -22q0 -39 23.5 -62t65.5 -23q52 0 92 22l14 -62q-71 -49 -155 -49q-64 0 -103.5 34.5t-39.5 93.5q0 13 3 28q17 109 139 217q-120 -3 -132 -3q-198 0 -283 97.5t-85 277.5q0 75 17 187zM284 552l313 15q212 10 392 33q7 30 16 87q8 46 8 83q0 240 -300 240
q-105 0 -178.5 -26t-123 -85t-78.5 -141t-49 -206z" />
    <glyph glyph-name="Ecaron" unicode="&#x11a;" horiz-adv-x="1064" 
d="M1125 1427l-15 -96h-341q-74 0 -124 -4.5t-91 -18t-65.5 -33t-43.5 -55t-30.5 -77.5t-21.5 -107l-42 -256h643l-17 -101h-642l-44 -285q-13 -81 -13 -127q0 -99 62 -132.5t235 -33.5h341l-16 -99q-139 -6 -337 -6q-54 0 -90 1t-83 6t-78 14.5t-64 26.5t-52 41.5t-31.5 61
t-12.5 82.5q0 27 7 74l130 824q10 62 31 110t47.5 80t66.5 55t75.5 35t89 18.5t93 8t99.5 1.5q144 0 334 -8zM560 1797h104l118 -169l173 169h102l-223 -228h-118z" />
    <glyph glyph-name="ecaron" unicode="&#x11b;" horiz-adv-x="1168" 
d="M172 547q48 303 172 432.5t382 129.5q212 0 304 -86.5t92 -250.5q0 -64 -12 -138q-19 -103 -21 -114q-93 -16 -256 -31t-279 -20l-282 -11q-4 -64 -4 -91q0 -71 13 -119t47.5 -86.5t100.5 -56.5t166 -18q157 0 381 32l-4 -99q-236 -35 -449 -35q-198 0 -283 97.5
t-85 277.5q0 75 17 187zM284 552l313 15q212 10 392 33q7 30 16 87q7 51 7 82q0 241 -299 241q-106 0 -179.5 -26t-123 -85t-78 -141t-48.5 -206zM757 1322l169 209h95l-219 -282h-110l-135 282h97z" />
    <glyph glyph-name="Gbreve" unicode="&#x11e;" horiz-adv-x="1273" 
d="M809 637l16 100h379l-84 -526q-7 -45 -24.5 -79.5t-40.5 -58t-59 -40.5t-70.5 -26t-86 -14t-95 -6.5t-106.5 -1.5q-256 0 -363 103t-107 332q0 128 27 296q21 133 47 233t64 184.5t88 141t119 96t156.5 57.5t199.5 18q223 0 397 -30l-27 -100q-170 24 -324 24
q-85 0 -153 -9t-122 -29.5t-95.5 -47t-74 -69t-55 -86.5t-41.5 -108t-32 -126.5t-26 -148.5q-29 -188 -29 -286q0 -119 37 -191t132.5 -110.5t260.5 -38.5q74 0 126.5 10t83 25t49 43t26 52.5t13.5 65.5l55 351h-261zM669 1781h79q1 -54 34 -89.5t99 -35.5t110 35.5t62 89.5
h79q-23 -90 -89.5 -145.5t-173.5 -55.5t-155.5 55.5t-44.5 145.5z" />
    <glyph glyph-name="gbreve" unicode="&#x11f;" horiz-adv-x="1161" 
d="M109 -380l26 97q209 -33 351 -33q130 0 203.5 27t107 81.5t48.5 154.5l17 108q-174 -45 -328 -45q-197 0 -286 78.5t-89 266.5q0 82 19 204q25 156 68.5 261t113 169.5t161.5 92t221 27.5q232 0 382 -85q-10 -94 -24 -181l-148 -934q-12 -79 -42 -137.5t-70 -94.5
t-96 -57.5t-113.5 -29.5t-130.5 -8q-159 0 -391 38zM292 559q-18 -109 -18 -188q0 -143 71.5 -201.5t248.5 -58.5q142 0 285 47l97 614q11 67 26 182q-111 55 -275 55q-200 0 -298.5 -103.5t-136.5 -346.5zM950 1500h79q-27 -104 -94 -168t-174 -64q-100 0 -148 57.5
t-48 151.5v23h79q-1 -62 31.5 -103t98.5 -41t111.5 41t64.5 103z" />
    <glyph glyph-name="Idotaccent" unicode="&#x130;" horiz-adv-x="469" 
d="M432 1596q-35 0 -56 25.5t-15 60.5q5 35 33.5 60t63.5 25t55 -25t15 -60q-5 -36 -33 -61t-63 -25zM119 0l226 1432h119l-227 -1432h-118z" />
    <glyph glyph-name="dotlessi" unicode="&#x131;" horiz-adv-x="417" 
d="M92 0l173 1094h113l-173 -1094h-113z" />
    <glyph glyph-name="Lacute" unicode="&#x139;" horiz-adv-x="962" 
d="M162 303l178 1129h118l-164 -1038q-13 -80 -13 -125q0 -100 62 -134t235 -34h315l-16 -100q-146 -5 -310 -5q-54 0 -90.5 1t-83.5 6t-78 14.5t-64 26.5t-52 41.5t-31.5 61t-12.5 82.5q0 27 7 74zM750 1802l-276 -228h-102l221 228h157z" />
    <glyph glyph-name="lacute" unicode="&#x13a;" horiz-adv-x="427" 
d="M130 283l196 1234h112l-193 -1223q-8 -47 -8 -98q0 -112 51 -192l-101 -53q-66 94 -66 222q0 49 9 110zM351 1626l220 228h157l-276 -228h-101z" />
    <glyph glyph-name="Lcaron" unicode="&#x13d;" horiz-adv-x="962" 
d="M162 303l178 1129h118l-164 -1038q-13 -81 -13 -126q0 -100 62.5 -133.5t234.5 -33.5h314l-15 -100q-146 -5 -310 -5q-54 0 -90.5 1t-83.5 6t-78 14.5t-64 26.5t-52 41.5t-31.5 61t-12.5 82.5q0 27 7 74zM838 1432l-217 -430h-81l184 430h114z" />
    <glyph glyph-name="lcaron" unicode="&#x13e;" horiz-adv-x="426" 
d="M130 283l196 1234h111l-193 -1223q-8 -47 -8 -98q0 -111 52 -192l-102 -53q-66 94 -66 221q0 43 10 111zM490 1087l185 430h113l-216 -430h-82z" />
    <glyph glyph-name="Lslash" unicode="&#x141;" horiz-adv-x="1052" 
d="M316 706l115 726h118l-102 -638l334 225l-18 -113l-334 -224l-46 -288q-12 -75 -12 -126q0 -100 62.5 -133.5t234.5 -33.5h315l-16 -100q-147 -5 -310 -5q-54 0 -90.5 1t-83.5 6t-78 14.5t-63.5 26.5t-51.5 41.5t-31.5 61t-12.5 82.5q0 33 6 74l46 291l-189 -126l18 111z
" />
    <glyph glyph-name="lslash" unicode="&#x142;" horiz-adv-x="445" 
d="M332 775l-76 -481q-8 -47 -8 -98q0 -112 51 -192l-101 -53q-66 94 -66 221q0 43 10 111l62 394l-170 -131l18 115l170 132l115 724h113l-99 -625l172 134l-19 -117z" />
    <glyph glyph-name="Nacute" unicode="&#x143;" horiz-adv-x="1409" 
d="M514 1367l577 -1200l200 1265h111l-215 -1363q-6 -42 -30 -63t-57 -21q-30 0 -51 19.5t-41 60.5l-576 1201l-200 -1266h-112l216 1362q6 43 30 63.5t57 20.5q29 0 50 -19t41 -60zM816 1571l221 228h156l-275 -228h-102z" />
    <glyph glyph-name="nacute" unicode="&#x144;" horiz-adv-x="1211" 
d="M351 766l-121 -766h-112l132 838q17 104 33 181q229 90 499 90q102 0 172 -18t107 -54t52.5 -79.5t15.5 -103.5q0 -59 -13 -139l-113 -715h-112l108 687q12 82 12 127q0 104 -62 149t-226 45q-75 0 -178 -18t-162 -42q-17 -87 -32 -182zM685 1258l216 282h147l-269 -282
h-94z" />
    <glyph glyph-name="Ncaron" unicode="&#x147;" horiz-adv-x="1409" 
d="M514 1367l576 -1200l201 1265h111l-215 -1363q-6 -42 -30 -63t-57 -21q-30 0 -51 19.5t-41 60.5l-575 1201l-201 -1266h-112l216 1362q6 43 30 63.5t57 20.5q53 0 91 -79zM785 1792l119 -169l173 169h101l-223 -228h-117l-157 228h104z" />
    <glyph glyph-name="ncaron" unicode="&#x148;" horiz-adv-x="1211" 
d="M351 766l-122 -766h-112l133 838q8 52 33 181q229 90 498 90q102 0 172 -18t107.5 -53.5t53 -79.5t15.5 -104q0 -53 -14 -139l-113 -715h-112l109 687q12 81 12 126q0 104 -62.5 149.5t-226.5 45.5q-75 0 -178 -18t-162 -42q-20 -107 -31 -182zM570 1535h97l104 -209
l169 209h95l-220 -281h-110z" />
    <glyph glyph-name="Ohungarumlaut" unicode="&#x150;" horiz-adv-x="1363" 
d="M622 -15q-243 0 -346.5 100.5t-103.5 329.5q0 122 28 301q32 201 78 334t122 224.5t186 131.5t268 40q243 0 346.5 -100.5t103.5 -328.5q0 -122 -28 -301q-25 -161 -59.5 -276t-85 -204.5t-121.5 -143t-166 -80.5t-222 -27zM320 716q-34 -219 -34 -312q0 -76 16 -131
t54 -97.5t107 -64t170 -21.5q117 0 202.5 32.5t137.5 80.5t89.5 137.5t55 168t38.5 207.5q34 219 34 310q0 77 -16 132t-54 97.5t-106.5 64t-169.5 21.5q-66 0 -122 -10t-99.5 -26t-80 -45t-63 -58.5t-49.5 -74.5t-38 -85.5t-29 -99.5t-23 -107.5t-20 -118.5zM668 1578
l211 227h155l-270 -227h-96zM936 1578l212 227h155l-271 -227h-96z" />
    <glyph glyph-name="ohungarumlaut" unicode="&#x151;" horiz-adv-x="1204" 
d="M556 -15q-211 0 -304 82.5t-93 274.5q0 90 18 205q49 308 174.5 435t382.5 127q211 0 304.5 -84.5t93.5 -275.5q0 -82 -19 -202q-48 -304 -174.5 -433t-382.5 -129zM272 350q0 -149 68 -206t227 -57q201 0 296 99.5t137 360.5q18 114 18 196q0 146 -67.5 205.5
t-226.5 59.5q-102 0 -170.5 -20.5t-122 -73t-86 -141t-54.5 -226.5q-19 -122 -19 -197zM560 1271l208 282h144l-263 -282h-89zM810 1271l210 282h144l-264 -282h-90z" />
    <glyph glyph-name="OE" unicode="&#x152;" horiz-adv-x="1997" 
d="M2043 1331h-341q-89 0 -145.5 -8t-98 -25t-66 -53.5t-40 -83.5t-27.5 -125l-41 -256h642l-16 -101h-642l-45 -285q-13 -81 -13 -127q0 -99 62 -132.5t235 -33.5h341l-16 -99q-139 -6 -336 -6q-59 0 -97.5 1.5t-88 7.5t-81.5 18.5t-63.5 33t-49 53.5t-22.5 77
q-75 -105 -188.5 -153.5t-283.5 -48.5q-242 0 -346 101t-104 329q0 121 28 301q32 201 77.5 334t122 224.5t186 131.5t267.5 40q169 0 267.5 -48.5t141.5 -153.5q19 44 47 77t65.5 53.5t74 33t88 18.5t90 7.5t97.5 1.5q144 0 334 -8zM286 406q0 -77 16 -132t54 -98
t107 -64.5t170 -21.5q117 0 202.5 32.5t137.5 80.5t89.5 137.5t55 168t38.5 207.5q34 219 34 309q0 158 -76 237t-271 79q-66 0 -122 -10t-99.5 -26t-80 -45t-63 -58.5t-49 -75t-37.5 -85.5t-29 -99t-23 -107.5t-20 -118.5q-34 -219 -34 -310z" />
    <glyph glyph-name="oe" unicode="&#x153;" horiz-adv-x="1996" 
d="M1110 890q65 114 172 166.5t273 52.5q211 0 303 -86t92 -251q0 -64 -12 -138q-19 -103 -21 -114q-93 -16 -256 -31t-279 -20l-282 -11q-3 -45 -3 -87q0 -72 13 -120.5t48 -87.5t100.5 -57.5t165.5 -18.5q156 0 380 32l-4 -99q-236 -35 -449 -35q-286 0 -345 226
q-66 -118 -174 -172t-276 -54q-211 0 -304 82.5t-93 274.5q0 90 18 205q49 308 174.5 435t382.5 127q165 0 255.5 -52t120.5 -167zM567 87q201 0 296 99.5t137 360.5q18 114 18 196q0 146 -67.5 205.5t-226.5 59.5q-102 0 -170.5 -20.5t-122 -73t-86 -141t-54.5 -226.5
q-19 -122 -19 -197q0 -149 68 -206t227 -57zM1112 552l314 15q210 10 391 33q7 30 16 87q7 49 7 80q0 243 -301 243q-107 0 -180.5 -26t-122 -85t-76.5 -140.5t-48 -206.5z" />
    <glyph glyph-name="Racute" unicode="&#x154;" horiz-adv-x="1251" 
d="M233 0h-117l224 1414q208 32 424 32q87 0 153 -6.5t131 -27t106.5 -54.5t67 -92t25.5 -137q0 -52 -8 -101q-32 -203 -141.5 -299.5t-291.5 -119.5l253 -609h-137l-242 600h-34q-121 0 -316 11zM347 718q138 -14 300 -14q106 0 182.5 15t139 51t100 100t52.5 159
q7 41 7 81q0 125 -87 179.5t-285 54.5q-144 0 -314 -22zM1078 1802l-274 -228h-102l220 228h156z" />
    <glyph glyph-name="racute" unicode="&#x155;" horiz-adv-x="701" 
d="M228 0h-112l133 843q17 104 33 181q178 85 409 85q60 0 99 -5l-26 -102q-39 3 -89 3q-165 0 -293 -54q-17 -87 -32 -182zM675 1541h147l-268 -281h-96z" />
    <glyph glyph-name="Rcaron" unicode="&#x158;" horiz-adv-x="1251" 
d="M233 0h-117l224 1414q208 32 424 32q87 0 153 -6.5t131 -27t106.5 -54.5t67 -92t25.5 -137q0 -52 -8 -101q-32 -203 -141.5 -299.5t-291.5 -119.5l253 -609h-137l-242 600h-34q-121 0 -316 11zM347 718q138 -14 300 -14q106 0 182.5 15t139 51t100 100t52.5 159
q7 41 7 81q0 125 -87 179.5t-285 54.5q-144 0 -314 -22zM807 1633l173 169h101l-223 -228h-118l-156 228h104z" />
    <glyph glyph-name="rcaron" unicode="&#x159;" horiz-adv-x="701" 
d="M228 0h-112l133 843q13 80 34 181q177 85 409 85q60 0 99 -5l-27 -102q-40 3 -89 3q-165 0 -293 -54q-17 -87 -32 -182zM467 1535l103 -209l170 209h94l-218 -281h-112l-134 281h97z" />
    <glyph glyph-name="Sacute" unicode="&#x15a;" horiz-adv-x="1031" 
d="M823 431q0 52 -18 90.5t-58.5 67.5t-88 49.5t-123.5 44.5q-72 23 -116.5 40t-92 43.5t-73 56t-42 72t-16.5 97.5q0 39 7 80q33 204 162.5 289t367.5 85q173 0 337 -29l-26 -100q-145 23 -268 23q-95 0 -165.5 -10t-133.5 -35t-101.5 -73.5t-50.5 -121.5q-8 -48 -8 -80
q0 -39 11 -67.5t30 -50t58.5 -41.5t82.5 -35.5t116 -38.5q77 -24 131.5 -50t103.5 -65t74 -93.5t25 -125.5q0 -33 -6 -71q-33 -211 -170.5 -304t-383.5 -93q-190 0 -341 32l29 101q159 -26 323 -26q70 0 124.5 7t106 26t88 50t63 81t37.5 118q5 33 5 57zM1031 1807
l-276 -228h-102l222 228h156z" />
    <glyph glyph-name="sacute" unicode="&#x15b;" horiz-adv-x="935" 
d="M729 322q0 32 -11.5 56.5t-27.5 41t-53 34t-67 28t-91 30.5q-130 41 -174 64q-113 61 -118 179v11q0 24 5 57q25 158 130.5 222t283.5 64q167 0 331 -34l-27 -92q-137 25 -265 25q-52 0 -86 -1.5t-82.5 -11t-79.5 -26.5t-57 -50.5t-33 -80.5q-3 -26 -3 -45t3 -35.5
t11.5 -30t15.5 -23.5t24.5 -20.5l27.5 -16.5t35.5 -15.5t38 -13.5t46 -14.5t48.5 -15.5q79 -26 129 -48t90 -52.5t58 -69.5t18 -92q0 -24 -5 -59q-13 -86 -53 -146.5t-102 -93.5t-135 -47.5t-165 -14.5q-173 0 -324 33l27 94q139 -24 267 -24q39 0 64 0.5t64.5 4.5t66.5 11
t59 21t52.5 34t37.5 50t23 69q3 24 3 44zM943 1547l-269 -281h-95l217 281h147z" />
    <glyph glyph-name="Scedilla" unicode="&#x15e;" horiz-adv-x="1032" 
d="M525 -7l-67 -86q59 -2 96.5 -32.5t37.5 -82.5q0 -7 -2 -23q-13 -80 -76.5 -118.5t-149.5 -38.5q-76 0 -127 31l35 65q52 -25 107 -25q40 0 73 18t40 59q6 34 -21 58t-61 33.5t-67 9.5l93 125q-15 -1 -48 -1q-188 0 -341 32l29 101q159 -26 323 -26q88 0 153.5 12t123 42
t93.5 87t49 141q5 33 5 57q0 99 -67 151t-221 101q-72 23 -117 40.5t-92 44t-72.5 56t-42 72t-16.5 97.5q0 28 7 79q33 204 163 289t368 85q172 0 337 -29l-27 -100q-145 23 -268 23q-95 0 -166 -10t-134 -35t-101 -73.5t-50 -121.5q-7 -42 -7 -80q0 -39 11 -67.5t30 -50
t58 -41.5t82 -35.5t116 -38.5q77 -24 132 -50t104 -65t74 -93.5t25 -125.5q0 -33 -6 -71q-29 -180 -133 -273.5t-285 -115.5z" />
    <glyph glyph-name="scedilla" unicode="&#x15f;" horiz-adv-x="935" 
d="M504 -9l-67 -84q59 -2 96.5 -33t37.5 -83q0 -7 -2 -23q-13 -80 -76 -118t-149 -38q-78 0 -127 30l35 66q50 -26 107 -26q40 0 73 18.5t40 59.5q7 49 -43 74.5t-106 25.5l93 126q-9 -1 -27 -1q-173 0 -324 33l26 94q139 -24 268 -24q45 0 74.5 1.5t75 6.5t76.5 17.5
t63 32.5t51.5 53.5t26.5 78.5q3 22 3 43q0 32 -11.5 57t-27.5 41.5t-53 34t-67 28.5t-91 30q-130 41 -174 64q-113 61 -118 179v11q0 24 5 57q25 158 130.5 222t283.5 64q167 0 331 -34l-27 -92q-137 25 -265 25q-52 0 -86 -1.5t-82.5 -11t-79.5 -26.5t-57 -50.5t-33 -80.5
q-3 -26 -3 -45t3 -35.5t11.5 -30t15.5 -23.5t24.5 -20.5l27.5 -16.5t35.5 -15.5t38 -13.5t46 -14.5t48.5 -15.5q79 -26 129 -48t90 -52.5t58 -69.5t18 -92q0 -24 -5 -59q-41 -261 -340 -296z" />
    <glyph glyph-name="Scaron" unicode="&#x160;" horiz-adv-x="1031" 
d="M823 431q0 52 -18 90.5t-58.5 67.5t-88 49.5t-123.5 44.5q-72 23 -116.5 40t-92 43.5t-73 56t-42 72t-16.5 97.5q0 39 7 80q33 204 162.5 289t367.5 85q173 0 337 -29l-26 -100q-145 23 -268 23q-95 0 -165.5 -10t-133.5 -35t-101.5 -73.5t-50.5 -121.5q-8 -48 -8 -80
q0 -39 11 -67.5t30 -50t58.5 -41.5t82.5 -35.5t116 -38.5q77 -24 131.5 -50t103.5 -65t74 -93.5t25 -125.5q0 -33 -6 -71q-33 -211 -170.5 -304t-383.5 -93q-190 0 -341 32l29 101q159 -26 323 -26q70 0 124.5 7t106 26t88 50t63 81t37.5 118q5 33 5 57zM734 1638l173 169
h101l-223 -228h-118l-156 228h104z" />
    <glyph glyph-name="scaron" unicode="&#x161;" horiz-adv-x="935" 
d="M304 793q0 -20 3 -36t11.5 -29.5t15.5 -24t24 -20.5t27.5 -16t35.5 -15.5t38.5 -13.5t46 -14.5t48.5 -15.5q79 -26 129 -48t90 -52.5t58 -69.5t18 -92q0 -24 -5 -59q-13 -86 -53 -146.5t-102 -93.5t-135 -47.5t-165 -14.5q-173 0 -324 33l27 94q139 -24 267 -24
q39 0 64 0.5t64.5 4.5t66.5 11t59 21t52.5 34t37.5 50t23 69q3 24 3 44q0 32 -11.5 56.5t-27.5 41t-53 34t-67 28t-91 30.5q-130 41 -174 64q-113 61 -118 179v11q0 24 5 57q25 158 130.5 222t283.5 64q167 0 331 -34l-26 -92q-137 25 -266 25q-52 0 -86 -1.5t-82.5 -11
t-79.5 -26.5t-57 -50.5t-33 -80.5q-3 -26 -3 -45zM639 1328l170 209h95l-219 -282h-111l-135 282h97z" />
    <glyph glyph-name="uni0162" unicode="&#x162;" horiz-adv-x="1003" 
d="M1124 1432l-15 -103h-394l-211 -1329h-119l212 1329h-395l15 103h907zM199 -524l172 400h105l-201 -400h-76z" />
    <glyph glyph-name="uni0163" unicode="&#x163;" horiz-adv-x="686" 
d="M420 1385l116 18l-49 -309h245l-14 -95h-246l-113 -711q-7 -43 -7 -80q0 -75 39.5 -99.5t133.5 -24.5q25 0 50 3l-5 -92q-52 -10 -99 -10q-122 0 -178.5 47t-56.5 150q0 41 7 84l116 733h-201l15 95h201zM148 -532l172 401h105l-201 -401h-76z" />
    <glyph glyph-name="Tcaron" unicode="&#x164;" horiz-adv-x="1003" 
d="M1125 1432l-16 -103h-394l-211 -1329h-118l211 1329h-396l17 103h907zM477 1780h104l118 -169l174 169h100l-223 -228h-118z" />
    <glyph glyph-name="tcaron" unicode="&#x165;" horiz-adv-x="685" 
d="M421 1385l115 18l-49 -309h245l-15 -95h-246l-112 -711q-8 -50 -8 -80q0 -75 39 -99.5t135 -24.5q25 0 50 3l-5 -92q-52 -10 -99 -10q-122 0 -178.5 47t-56.5 150q0 41 7 84l116 733h-202l16 95h202zM634 1234l184 431h113l-216 -431h-81z" />
    <glyph glyph-name="Uring" unicode="&#x16e;" horiz-adv-x="1341" 
d="M1337 1432l-154 -975q-17 -110 -53.5 -192.5t-86.5 -135.5t-119 -85.5t-145 -45.5t-171 -13q-104 0 -180.5 16.5t-136 54.5t-90 106t-30.5 167q0 54 11 128l154 975h117l-156 -991q-8 -44 -8 -92q0 -131 80.5 -194.5t254.5 -63.5q204 0 307.5 85.5t131.5 264.5l157 991
h117zM852 1526q-71 0 -117 47t-46 117q0 14 3 31q13 81 78 138t144 57q71 0 117 -47t46 -117q0 -21 -2 -31q-13 -81 -78 -138t-145 -57zM1003 1721q1 7 1 19q0 44 -28.5 73t-73.5 29q-50 0 -90.5 -35.5t-47.5 -85.5q-2 -14 -2 -20q0 -44 28.5 -73t73.5 -29q50 0 90.5 35.5
t48.5 86.5z" />
    <glyph glyph-name="uring" unicode="&#x16f;" horiz-adv-x="1206" 
d="M174 380l113 714h112l-109 -687q-13 -81 -13 -132q0 -102 62 -145t228 -43q74 0 175.5 17.5t160.5 41.5q26 143 32 182l121 766h112l-133 -838q-21 -127 -32 -181q-229 -90 -495 -90q-102 0 -172 18t-107.5 53.5t-53 79.5t-15.5 104q0 54 14 140zM745 1209q-71 0 -117 47
t-46 117q0 21 2 32q13 81 78 137.5t145 56.5q71 0 117 -46.5t46 -116.5q0 -16 -3 -31q-13 -81 -78 -138.5t-144 -57.5zM895 1405q1 7 1 19q0 44 -28 73t-73 29q-50 0 -90.5 -35.5t-47.5 -85.5q-1 -7 -1 -20q0 -44 28 -73t72 -29q50 0 90.5 35.5t48.5 86.5z" />
    <glyph glyph-name="Uhungarumlaut" unicode="&#x170;" horiz-adv-x="1341" 
d="M1337 1432l-154 -975q-22 -137 -71.5 -231t-126 -146t-167 -73.5t-210.5 -21.5q-104 0 -180.5 16.5t-136 54.5t-90 106t-30.5 167q0 54 11 128l154 975h118l-157 -991q-8 -44 -8 -92q0 -131 80.5 -194.5t254.5 -63.5q204 0 307.5 85.5t131.5 264.5l157 991h117zM637 1580
l212 228h154l-270 -228h-96zM906 1580l212 228h155l-271 -228h-96z" />
    <glyph glyph-name="uhungarumlaut" unicode="&#x171;" horiz-adv-x="1207" 
d="M174 380l114 714h111l-108 -687q-14 -87 -14 -132q0 -102 62.5 -145t228.5 -43q74 0 175 17.5t160 41.5q22 108 33 182l121 766h112l-133 -838q-8 -52 -33 -181q-229 -90 -495 -90q-102 0 -172 18t-107.5 53.5t-53 79.5t-15.5 104q0 54 14 140zM554 1287l209 282h145
l-264 -282h-90zM805 1287l209 282h145l-264 -282h-90z" />
    <glyph glyph-name="Ydieresis" unicode="&#x178;" 
d="M617 1588q-34 0 -53.5 24t-14.5 58t32.5 58t61.5 24t53 -24t14 -58t-32.5 -58t-60.5 -24zM909 1588q-34 0 -53 24t-14 58t32 58t61 24t53 -24t14 -58t-32 -58t-61 -24zM645 558l-88 -558h-120l88 558l-307 874h129l261 -747l502 747h124z" />
    <glyph glyph-name="Zacute" unicode="&#x179;" horiz-adv-x="1059" 
d="M1105 1310l-927 -1207h756l-17 -103h-828q-39 0 -56 13t-13 38q5 29 37 71l927 1206h-714l16 104h786q39 0 56.5 -13.5t13.5 -37.5q-3 -27 -37 -71zM641 1563l222 228h156l-276 -228h-102z" />
    <glyph glyph-name="zacute" unicode="&#x17a;" horiz-adv-x="1033" 
d="M1035 1003l-825 -903h669l-16 -100h-781q-27 0 -39 11t-9 30q3 22 28 50l827 905h-656l16 98h766q27 0 39.5 -11t9.5 -30q-3 -21 -29 -50zM605 1269l217 282h146l-268 -282h-95z" />
    <glyph glyph-name="Zdotaccent" unicode="&#x17b;" horiz-adv-x="1059" 
d="M1105 1310l-927 -1207h756l-17 -103h-828q-77 0 -69 51q5 29 37 71l927 1206h-715l17 104h786q78 0 70 -51q-5 -29 -37 -71zM731 1597q-35 0 -55.5 25t-15.5 60q6 36 34.5 61t63.5 25q34 0 54.5 -25.5t14.5 -60.5q-5 -35 -33 -60t-63 -25z" />
    <glyph glyph-name="zdotaccent" unicode="&#x17c;" horiz-adv-x="1033" 
d="M209 100h670l-16 -100h-781q-26 0 -38.5 11t-9.5 30q3 24 28 50l827 905h-656l16 98h766q26 0 39 -11.5t10 -29.5q-3 -21 -29 -50zM656 1376q5 35 33.5 60t63.5 25t54.5 -24.5t14.5 -60.5t-33 -61t-63 -25t-55.5 25.5t-14.5 60.5z" />
    <glyph glyph-name="Zcaron" unicode="&#x17d;" horiz-adv-x="1060" 
d="M1105 1310l-927 -1207h756l-16 -103h-828q-40 0 -57 13t-13 38q5 29 37 71l927 1206h-714l16 104h786q39 0 56.5 -13.5t13.5 -37.5q-5 -29 -37 -71zM520 1791h104l118 -169l174 169h101l-223 -228h-118z" />
    <glyph glyph-name="zcaron" unicode="&#x17e;" horiz-adv-x="1033" 
d="M210 100h669l-16 -100h-781q-27 0 -39 11t-9 30q3 22 29 50l826 905h-655l15 98h767q26 0 38.5 -11t9.5 -30q-3 -23 -29 -50zM589 1551l103 -209l170 209h95l-219 -282h-111l-134 282h96z" />
    <glyph glyph-name="florin" unicode="&#x192;" horiz-adv-x="913" 
d="M388 848l37 259q18 133 108 214.5t229 81.5q47 0 92 -9l-13 -99q-24 6 -67 6q-104 0 -163 -62t-75 -174l-30 -217h273l-13 -97h-274l-92 -662q-25 -178 -120.5 -272.5t-230.5 -94.5q-29 0 -51 3l14 97h17q95 0 165.5 65.5t88.5 193.5l92 670h-231l13 97h231z" />
    <glyph glyph-name="uni0218" unicode="&#x218;" horiz-adv-x="1031" 
d="M823 431q0 52 -18 90.5t-59 67.5t-87.5 49t-123.5 45q-72 23 -116.5 40t-92 43.5t-73 56t-42 72t-16.5 97.5q0 39 7 80q33 204 163 289t367 85q173 0 338 -29l-27 -100q-145 23 -268 23q-95 0 -165.5 -10t-134 -35t-101.5 -73.5t-50 -121.5q-7 -43 -7 -81q0 -48 14 -80
t54 -59t88.5 -46t140.5 -47q77 -24 131.5 -50t103.5 -65t74 -93.5t25 -125.5q0 -33 -6 -71q-33 -211 -170.5 -304t-383.5 -93q-188 0 -341 32l29 101q159 -26 323 -26q70 0 124.5 7t106 26t88 50t63 81t37.5 118q5 33 5 57zM526 -130l-200 -400h-76l172 400h104z" />
    <glyph glyph-name="uni0219" unicode="&#x219;" horiz-adv-x="934" 
d="M729 322q0 32 -11.5 56.5t-27.5 41t-53 34t-67 28t-91 30.5q-130 41 -174 64q-113 61 -118 179v11q0 24 5 57q25 158 130.5 222t283.5 64q167 0 331 -34l-27 -92q-137 25 -265 25q-52 0 -86 -1.5t-82.5 -11t-79.5 -26.5t-57 -50.5t-33 -80.5q-3 -26 -3 -45t3 -35.5
t11.5 -30t15.5 -23.5t24.5 -20.5l27.5 -16.5t35.5 -15.5t38 -13.5t46 -14.5t48.5 -15.5q158 -51 226 -106t68 -156q0 -22 -5 -59q-13 -86 -52.5 -146.5t-102 -93.5t-135 -47.5t-164.5 -14.5q-173 0 -324 33l27 94q139 -24 267 -24q39 0 64 0.5t64.5 4.5t66.5 11t59 21
t52.5 34t37.5 50t23 69q3 24 3 44zM503 -125l-199 -400h-77l172 400h104z" />
    <glyph glyph-name="uni021A" unicode="&#x21a;" horiz-adv-x="1003" 
d="M1145 1432l-15 -103h-394l-211 -1329h-119l212 1329h-396l16 103h907zM220 -524l171 400h105l-200 -400h-76z" />
    <glyph glyph-name="uni021B" unicode="&#x21b;" horiz-adv-x="686" 
d="M441 1385l116 18l-49 -309h245l-14 -95h-246l-113 -711q-7 -43 -7 -80q0 -75 39.5 -99.5t133.5 -24.5q24 0 50 3l-6 -92q-52 -10 -98 -10q-122 0 -178.5 47t-56.5 150q0 41 7 84l116 733h-201l15 95h201zM169 -532l172 401h104l-200 -401h-76z" />
    <glyph glyph-name="circumflex" unicode="&#x2c6;" horiz-adv-x="643" 
d="M390 1458h111l134 -281h-97l-102 209l-171 -209h-94z" />
    <glyph glyph-name="caron" unicode="&#x2c7;" horiz-adv-x="610" 
d="M200 1458h97l103 -209l169 209h95l-219 -281h-111z" />
    <glyph glyph-name="uni02C9" unicode="&#x2c9;" horiz-adv-x="823" 
d="M241 1254l15 89h531l-15 -89h-531z" />
    <glyph glyph-name="breve" unicode="&#x2d8;" horiz-adv-x="645" 
d="M213 1434h79q-1 -62 31.5 -103.5t98.5 -41.5t111.5 41.5t64.5 103.5h79q-27 -104 -94.5 -168.5t-174.5 -64.5q-100 0 -147.5 57t-47.5 151v25z" />
    <glyph glyph-name="dotaccent" unicode="&#x2d9;" horiz-adv-x="382" 
d="M282 1229q-35 0 -55.5 25t-15.5 60q6 36 34.5 61t63.5 25t55 -25t15 -61q-6 -35 -34 -60t-63 -25z" />
    <glyph glyph-name="ring" unicode="&#x2da;" horiz-adv-x="603" 
d="M214 1307q0 21 2 32q13 81 78 138t144 57q71 0 117 -47t46 -117q0 -16 -3 -31q-13 -81 -78 -138t-144 -57q-71 0 -116.5 46.5t-45.5 116.5zM288 1339q-2 -14 -2 -20q0 -44 29 -73t73 -29q50 0 90.5 35.5t48.5 86.5q1 7 1 19q0 44 -28.5 73t-73.5 29q-49 0 -89.5 -35.5
t-48.5 -85.5z" />
    <glyph glyph-name="ogonek" unicode="&#x2db;" horiz-adv-x="425" 
d="M217 0h72q-125 -112 -139 -201q-2 -16 -2 -23q0 -39 23.5 -61.5t65.5 -22.5q50 0 92 22l14 -62q-73 -50 -154 -50q-64 0 -104 34.5t-40 93.5q0 14 3 29q10 65 60 130t109 111z" />
    <glyph glyph-name="tilde" unicode="&#x2dc;" horiz-adv-x="697" 
d="M619 1400h78q-24 -89 -69 -137t-93 -48q-30 0 -52.5 10.5t-35.5 25t-24 29t-24 25t-30 10.5q-52 0 -84 -95h-78q24 89 69 137t93 48q30 0 52.5 -10.5t35.5 -25t24 -29t24 -25t30 -10.5q53 0 84 95z" />
    <glyph glyph-name="hungarumlaut" unicode="&#x2dd;" horiz-adv-x="679" 
d="M156 1169l208 282h145l-263 -282h-90zM407 1169l209 282h145l-265 -282h-89z" />
    <glyph glyph-name="uni03A9" unicode="&#x3a9;" horiz-adv-x="1469" 
d="M1271 745q10 67 10 122q0 94 -23 177.5t-68.5 151.5t-121 107.5t-172.5 39.5q-145 0 -268 -80.5t-201 -216.5t-105 -305q-10 -67 -10 -135q0 -173 64.5 -312t160.5 -210l-13 -84h-463l16 103h304q-83 89 -132.5 220t-49.5 287q0 83 12 154q48 299 248 490.5t455 191.5
q150 0 262 -74.5t167.5 -197t55.5 -274.5q0 -65 -10 -128q-33 -211 -140.5 -388t-242.5 -281h304l-17 -103h-460l14 84q68 42 132.5 103.5t124 143.5t104 189.5t63.5 224.5z" />
    <glyph glyph-name="uni03BC" unicode="&#x3bc;" horiz-adv-x="1166" 
d="M106 -403l237 1497h109l-114 -715q-6 -34 -6 -67q0 -97 49.5 -156.5t145.5 -59.5q136 0 236 129.5t132 330.5l85 538h109l-116 -736q-18 -110 -18 -163q0 -100 64 -122l-14 -88q-45 0 -76 16.5t-47 47.5t-22.5 66.5t-6.5 81.5q0 16 2 38h-2q-56 -116 -150 -183t-193 -67
q-72 0 -122.5 28t-93.5 91l-80 -507h-108z" />
    <glyph glyph-name="pi" unicode="&#x3c0;" horiz-adv-x="1365" 
d="M1405 989h-274q-69 -210 -113 -479q-16 -101 -16 -168q0 -129 51 -191t162 -62l-25 -104q-167 0 -236.5 76.5t-69.5 218.5q0 74 13 151q44 275 133 558h-444q-162 -747 -274 -989h-129q87 194 155 420t149 571h-94q-103 0 -210 -47l-17 65q97 85 293 85h975z" />
    <glyph glyph-name="uni200A" unicode="&#x200a;" horiz-adv-x="44" 
 />
    <glyph glyph-name="uni2010" unicode="&#x2010;" horiz-adv-x="810" 
d="M183 492l17 104h513l-17 -104h-513z" />
    <glyph glyph-name="endash" unicode="&#x2013;" horiz-adv-x="1263" 
d="M183 496l15 96h968l-15 -96h-968z" />
    <glyph glyph-name="emdash" unicode="&#x2014;" horiz-adv-x="2198" 
d="M183 496l15 96h1903l-16 -96h-1902z" />
    <glyph glyph-name="quoteleft" unicode="&#x2018;" horiz-adv-x="413" 
d="M152 1029l245 488h94l-208 -488h-131z" />
    <glyph glyph-name="quoteright" unicode="&#x2019;" horiz-adv-x="413" 
d="M152 1029l209 488h130l-245 -488h-94z" />
    <glyph glyph-name="quotesinglbase" unicode="&#x201a;" horiz-adv-x="408" 
d="M14 -255l209 488h130l-245 -488h-94z" />
    <glyph glyph-name="quotedblleft" unicode="&#x201c;" horiz-adv-x="672" 
d="M152 1029l244 488h94l-208 -488h-130zM410 1029l245 488h94l-208 -488h-131z" />
    <glyph glyph-name="quotedblright" unicode="&#x201d;" horiz-adv-x="671" 
d="M152 1029l209 488h129l-244 -488h-94zM410 1029l209 488h129l-243 -488h-95z" />
    <glyph glyph-name="quotedblbase" unicode="&#x201e;" horiz-adv-x="666" 
d="M14 -255l210 488h129l-245 -488h-94zM273 -255l209 488h129l-244 -488h-94z" />
    <glyph glyph-name="dagger" unicode="&#x2020;" horiz-adv-x="1072" 
d="M592 1032l67 428h112l-68 -428h401l-16 -102h-401l-188 -1188h-111l188 1188h-392l16 102h392z" />
    <glyph glyph-name="daggerdbl" unicode="&#x2021;" horiz-adv-x="1125" 
d="M418 -258l115 733h-394l17 102h394l63 400h-394l16 103h394l60 380h112l-60 -380h394l-16 -103h-394l-63 -400h394l-17 -102h-394l-115 -733h-112z" />
    <glyph glyph-name="bullet" unicode="&#x2022;" horiz-adv-x="811" 
d="M406 410q-115 0 -196.5 81.5t-81.5 196.5t81 196t197 81q115 0 196 -81t81 -196t-81 -196.5t-196 -81.5z" />
    <glyph glyph-name="ellipsis" unicode="&#x2026;" horiz-adv-x="1698" 
d="M284 120q0 -17 -3 -41q-8 -53 -25.5 -73.5t-57.5 -20.5q-31 0 -43.5 12t-12.5 40q0 8 4 42q8 54 26 75.5t56 21.5q30 0 43 -13t13 -43zM926 121q0 -10 -4 -42q-8 -53 -25 -73.5t-56 -20.5q-31 0 -43.5 12t-12.5 40q0 17 3 42q8 54 26 75.5t57 21.5q30 0 42.5 -13
t12.5 -42zM1569 120q0 -9 -4 -41q-8 -53 -25.5 -73.5t-56.5 -20.5q-31 0 -44 11.5t-13 40.5q0 8 4 42q8 54 26 75.5t57 21.5q30 0 43 -13t13 -43z" />
    <glyph glyph-name="perthousand" unicode="&#x2030;" horiz-adv-x="2303" 
d="M431 598q-131 0 -185.5 56.5t-54.5 178.5q0 70 18 186q18 113 41 186t63 128.5t101 80.5t150 25q132 0 186.5 -57t54.5 -180q0 -75 -17 -183q-18 -113 -41 -186t-63.5 -129t-102 -81t-150.5 -25zM275 838q0 -82 36.5 -123.5t128.5 -41.5q48 0 84.5 10.5t63 34.5t44 50.5
t31.5 71t21.5 82t17.5 97.5q20 124 20 179q0 83 -37 124.5t-130 41.5q-41 0 -74 -9t-57 -23t-43 -40t-31.5 -51t-23.5 -65t-17.5 -73t-14.5 -84q-19 -129 -19 -181zM1163 -7q-131 0 -185 56t-54 178q0 77 17 187q18 112 41 185t63 128.5t101.5 80.5t150.5 25
q132 0 186 -56.5t54 -179.5q0 -76 -17 -183q-18 -113 -41.5 -186.5t-63.5 -129t-101.5 -80.5t-150.5 -25zM1006 232q0 -82 37 -123t129 -41q57 0 99 17.5t68 44t45.5 75.5t29 93t21.5 116q19 129 19 179q0 83 -37 124.5t-130 41.5q-41 0 -74 -9t-57 -23t-43 -40t-31.5 -51
t-23 -65t-17 -73t-14.5 -84q-21 -132 -21 -182zM2216 597q0 -75 -17 -183q-18 -113 -41 -186.5t-63.5 -129t-102 -80.5t-150.5 -25q-131 0 -185.5 56.5t-54.5 177.5q0 71 18 187q14 90 31 152.5t44 116t64 84.5t90.5 48.5t125.5 17.5q132 0 186.5 -57t54.5 -179zM1685 232
q0 -82 37 -123t129 -41q57 0 99 17.5t68 44t45 75.5t28.5 93t21.5 116q20 136 20 179q0 83 -37 124.5t-130 41.5q-41 0 -74 -9t-57 -23t-43 -40t-31.5 -51t-23 -65t-17 -73t-14.5 -84q-21 -132 -21 -182zM283 -29l1059 1490h103l-1060 -1490h-102z" />
    <glyph glyph-name="guilsinglleft" unicode="&#x2039;" horiz-adv-x="584" 
d="M265 530l187 -395h-118l-212 395l336 395h119z" />
    <glyph glyph-name="guilsinglright" unicode="&#x203a;" horiz-adv-x="583" 
d="M546 530l-337 -395h-119l313 395l-187 395h118z" />
    <glyph glyph-name="fraction" unicode="&#x2044;" horiz-adv-x="303" 
d="M-372 -29l1059 1490h103l-1060 -1490h-102z" />
    <glyph glyph-name="uni2070" unicode="&#x2070;" horiz-adv-x="753" 
d="M409 832q-132 0 -186.5 57t-54.5 180q0 68 18 184q18 112 41 185t63 129t101.5 81t150.5 25q132 0 186.5 -57.5t54.5 -180.5q0 -75 -17 -182q-18 -112 -41 -185.5t-63.5 -129.5t-102 -81t-150.5 -25zM680 1253q20 124 20 179q0 83 -37 124.5t-130 41.5q-57 0 -99 -17.5
t-68 -44t-45 -75.5t-28.5 -92.5t-20.5 -115.5q-20 -124 -20 -180q0 -83 36.5 -124t129.5 -41q41 0 74 9t57 23t43.5 40t32 51t23.5 64.5t17.5 73t14.5 84.5z" />
    <glyph glyph-name="uni2074" unicode="&#x2074;" horiz-adv-x="713" 
d="M494 839l31 200h-349q-40 0 -53 15t-10 42q4 29 54 83l404 441q47 52 90 52q50 0 40 -60l-79 -501h112l-11 -72h-113l-31 -200h-85zM606 1550l-401 -439h332z" />
    <glyph glyph-name="uni2075" unicode="&#x2075;" horiz-adv-x="652" 
d="M276 1335q46 4 86 4q58 0 100 -3.5t83 -15t66 -31.5t40.5 -53.5t15.5 -80.5q0 -33 -5 -61q-21 -138 -104.5 -199t-230.5 -61q-119 0 -231 23l20 73q112 -18 193 -18q131 0 191 40.5t77 149.5q3 18 3 35q0 76 -63 101.5t-193 25.5q-83 0 -148 -4l91 406h462l-11 -77h-385z
" />
    <glyph glyph-name="uni2076" unicode="&#x2076;" horiz-adv-x="726" 
d="M737 1093q-23 -148 -107.5 -205t-233.5 -57q-130 0 -184.5 55t-54.5 163q0 51 11 120q19 120 43.5 200.5t63 142t96.5 95t136.5 50t191.5 16.5q3 0 10 -0.5t22 -1t33 -0.5l-5 -72q-157 -5 -204 -13q-149 -23 -216 -126q-35 -53 -53 -130q142 16 211 16q123 0 184.5 -39.5
t61.5 -142.5q0 -32 -6 -71zM404 907q122 0 177 43t72 145q4 25 4 52q0 74 -46.5 100t-149.5 26q-41 0 -193 -19q-11 -46 -19 -102q-8 -46 -8 -87q0 -74 36 -116t127 -42z" />
    <glyph glyph-name="uni2077" unicode="&#x2077;" horiz-adv-x="605" 
d="M712 1582l-453 -741h-94l464 748h-449l12 76h475q34 0 48.5 -12.5t11.5 -34.5q-3 -15 -15 -36z" />
    <glyph glyph-name="uni2078" unicode="&#x2078;" horiz-adv-x="731" 
d="M728 1108q0 -12 -4 -46q-10 -68 -40 -115t-76 -71t-96.5 -34t-114.5 -10q-258 0 -258 180q0 20 5 50q23 149 163 207q-90 48 -90 150q0 28 4 52q16 100 95.5 151t213.5 51q119 0 184 -42t65 -124q0 -17 -3 -36q-12 -74 -45.5 -122t-104.5 -80q102 -48 102 -161zM226 1031
q0 -48 26 -76.5t64 -38t93 -9.5q98 0 157.5 34t74.5 125q3 16 3 31q0 65 -49.5 95.5t-146.5 37.5q-95 -11 -150.5 -47t-68.5 -117q-3 -18 -3 -35zM300 1429q0 -111 184 -126q87 13 141 47t66 106q2 11 2 30q0 44 -25 70t-61 34.5t-88 8.5q-42 0 -75 -6t-64 -20.5t-51 -44
t-26 -72.5q0 -3 -1 -8.5t-1.5 -10t-0.5 -8.5z" />
    <glyph glyph-name="uni2079" unicode="&#x2079;" horiz-adv-x="724" 
d="M182 1412q24 148 109 205t233 57q130 0 184.5 -55t54.5 -163q0 -51 -11 -120q-24 -151 -56.5 -242t-93.5 -152.5t-150.5 -85t-230.5 -23.5q-23 0 -65 1l4 72q157 5 203 13q150 23 218 125q35 53 53 131q-142 -16 -211 -16q-123 0 -185 39.5t-62 142.5q0 32 6 71z
M516 1598q-122 0 -177 -43t-72 -145q-5 -32 -5 -51q0 -74 47 -100t150 -26q49 0 193 18q8 35 18 102q8 48 8 88q0 74 -35.5 115.5t-126.5 41.5z" />
    <glyph glyph-name="uni2080" unicode="&#x2080;" horiz-adv-x="753" 
d="M409 -242q-132 0 -186.5 57t-54.5 179q0 69 18 185q18 112 41 185t63 129t101.5 81t150.5 25q132 0 186.5 -57.5t54.5 -180.5q0 -75 -17 -182q-18 -112 -41 -185.5t-63.5 -129.5t-102 -81t-150.5 -25zM680 179q20 124 20 179q0 83 -37 124.5t-130 41.5q-57 0 -99 -17.5
t-68 -44t-45 -75.5t-28.5 -92.5t-20.5 -115.5q-20 -124 -20 -180q0 -83 36.5 -124.5t129.5 -41.5q57 0 99 17.5t68 44t45 75.5t28.5 93t21.5 116z" />
    <glyph glyph-name="uni2081" unicode="&#x2081;" horiz-adv-x="425" 
d="M265 -230l116 727q-95 -27 -210 -45l8 74q126 20 236 67h65l-131 -823h-84z" />
    <glyph glyph-name="uni2082" unicode="&#x2082;" horiz-adv-x="638" 
d="M222 574q138 24 245 24q248 0 248 -159q0 -17 -3 -38q-18 -110 -88 -179t-194 -117q-104 -41 -152.5 -99t-80.5 -163h425l-12 -78h-527q62 191 119 270t190 133q211 85 232 216q2 11 2 31q0 58 -47.5 82t-153.5 24q-78 0 -204 -18z" />
    <glyph glyph-name="uni2083" unicode="&#x2083;" horiz-adv-x="643" 
d="M688 404q-23 -148 -147 -203q43 -18 72 -58.5t29 -98.5q0 -18 -3 -37q-22 -137 -107.5 -193t-235.5 -56q-114 0 -221 23l21 72q137 -18 188 -18q127 0 190 36.5t77 129.5q2 10 2 28q0 53 -32.5 86t-87.5 39q-40 5 -100 5q-43 0 -66 -1l11 71q100 2 168 12q61 10 102.5 49
t50.5 94q3 20 3 34q0 28 -10 47.5t-25 31t-42.5 17.5t-53 7.5t-65.5 1.5q-77 0 -199 -18l2 71q125 23 225 23q56 0 98 -6.5t80 -22t58.5 -47.5t20.5 -79q0 -19 -3 -40z" />
    <glyph glyph-name="uni2084" unicode="&#x2084;" horiz-adv-x="713" 
d="M494 -235l31 200h-349q-40 0 -53 15t-10 42q4 29 54 83l404 441q47 52 90 52q50 0 40 -60l-79 -501h112l-11 -72h-113l-31 -200h-85zM606 476l-401 -439h332z" />
    <glyph glyph-name="uni2085" unicode="&#x2085;" horiz-adv-x="652" 
d="M276 261q46 4 86 4q58 0 100 -4t83 -15.5t66 -31.5t40.5 -53.5t15.5 -80.5q0 -32 -5 -60q-21 -138 -104.5 -199t-230.5 -61q-119 0 -231 23l20 73q112 -18 193 -18q131 0 191 40.5t77 149.5q3 18 3 35q0 76 -63 101.5t-193 25.5q-83 0 -148 -4l91 406h462l-11 -77h-385z
" />
    <glyph glyph-name="uni2086" unicode="&#x2086;" horiz-adv-x="726" 
d="M737 19q-23 -148 -107.5 -205t-233.5 -57q-130 0 -184.5 55t-54.5 163q0 51 11 120q24 151 56.5 242t93.5 152.5t150.5 85t230.5 23.5q24 0 65 -1l-5 -72q-157 -5 -204 -13q-149 -23 -216 -126q-35 -53 -53 -130q142 16 211 16q123 0 184.5 -39.5t61.5 -142.5
q0 -32 -6 -71zM404 -167q122 0 177 43t72 145q4 25 4 52q0 74 -46.5 99.5t-149.5 25.5q-49 0 -193 -18q-11 -46 -19 -102q-8 -46 -8 -87q0 -74 36 -116t127 -42z" />
    <glyph glyph-name="uni2087" unicode="&#x2087;" horiz-adv-x="605" 
d="M712 508l-453 -741h-94l464 748h-449l12 75h475q34 0 48.5 -12t11.5 -34q-3 -15 -15 -36z" />
    <glyph glyph-name="uni2088" unicode="&#x2088;" horiz-adv-x="731" 
d="M728 34q0 -12 -4 -46q-10 -68 -40 -115t-76 -71t-96.5 -34t-114.5 -10q-258 0 -258 180q0 20 5 50q23 149 163 207q-90 48 -90 150q0 28 4 52q16 100 95.5 151t213.5 51q119 0 184 -42t65 -124q0 -17 -3 -36q-12 -74 -45.5 -122t-104.5 -80q102 -48 102 -161zM226 -43
q0 -48 26 -76.5t64 -38t93 -9.5q98 0 157.5 34t74.5 125q3 16 3 31q0 65 -49.5 95t-146.5 37q-96 -11 -151 -46.5t-68 -116.5q-3 -18 -3 -35zM300 355q0 -111 184 -126q87 13 141 47t66 106q2 11 2 30q0 44 -25 70t-61 34.5t-88 8.5q-42 0 -75 -6t-64 -20.5t-51 -44
t-26 -72.5q0 -3 -1 -8.5t-1.5 -10t-0.5 -8.5z" />
    <glyph glyph-name="uni2089" unicode="&#x2089;" horiz-adv-x="724" 
d="M182 338q24 148 109 205t233 57q130 0 184.5 -55t54.5 -163q0 -51 -11 -120q-24 -151 -56.5 -242t-93.5 -152.5t-150.5 -85t-230.5 -23.5q-23 0 -65 1l4 72q157 5 203 13q150 23 218 125q35 53 53 131q-142 -16 -211 -16q-123 0 -185 39.5t-62 142.5q0 32 6 71zM516 524
q-122 0 -177 -43t-72 -145q-5 -32 -5 -51q0 -74 47 -100t150 -26q49 0 193 18q8 35 18 102q8 48 8 88q0 74 -35.5 115.5t-126.5 41.5z" />
    <glyph glyph-name="Euro" unicode="&#x20ac;" horiz-adv-x="1037" 
d="M829 624l-33 -88h-405q-9 -78 -9 -144q0 -158 69 -231.5t241 -73.5q91 0 216 22l-6 -94q-134 -30 -259 -30q-204 0 -290 92.5t-86 297.5q0 74 9 161h-152l33 88h130l10 70q6 45 15 87h-137l33 88h122q31 143 73 240t105.5 164.5t151 98.5t208.5 31q137 0 250 -27l-25 -97
q-118 22 -208 22q-105 0 -179.5 -26.5t-125 -84.5t-81 -133.5t-54.5 -187.5h477l-34 -88h-460q-9 -53 -14 -87l-11 -70h426z" />
    <glyph glyph-name="uni2113" unicode="&#x2113;" horiz-adv-x="946" 
d="M79 420l193 125q20 125 35.5 212t39.5 190t48.5 171.5t60.5 137.5t77.5 109.5t96.5 65.5t121 25q84 0 126 -56t42 -148q0 -36 -6 -73q-14 -88 -64.5 -181.5t-127 -179.5t-160 -160.5t-180.5 -146.5q-7 -95 -7 -147q0 -145 43 -214.5t145 -69.5q65 0 116.5 29.5
t122.5 93.5l38 -56q-142 -162 -320 -162q-264 0 -264 378q0 51 2 77l-156 -90zM728 1368q-42 0 -78.5 -23t-63.5 -59t-51.5 -92t-40.5 -108t-32.5 -123.5t-25.5 -121.5t-21 -118t-18 -99q190 158 293 288.5t125 272.5q5 32 5 59q0 124 -92 124z" />
    <glyph glyph-name="trademark" unicode="&#x2122;" horiz-adv-x="2000" 
d="M1815 574h-96v754l-2 1l-332 -755h-66l-331 756l-1 -1v-755h-97v858h156l310 -708l305 708h154v-858zM759 1432v-85h-285v-773h-94v773h-285v85h664z" />
    <glyph glyph-name="Omega" unicode="&#x2126;" horiz-adv-x="1469" 
d="M1271 745q10 67 10 122q0 94 -23 177.5t-68.5 151.5t-121 107.5t-172.5 39.5q-145 0 -268 -80.5t-201 -216.5t-105 -305q-10 -67 -10 -135q0 -173 64.5 -312t160.5 -210l-13 -84h-463l16 103h304q-83 89 -132.5 220t-49.5 287q0 83 12 154q48 299 248 490.5t455 191.5
q150 0 262 -74.5t167.5 -197t55.5 -274.5q0 -65 -10 -128q-33 -211 -140.5 -388t-242.5 -281h304l-17 -103h-460l14 84q68 42 132.5 103.5t124 143.5t104 189.5t63.5 224.5z" />
    <glyph glyph-name="estimated" unicode="&#x212e;" horiz-adv-x="1713" 
d="M1384 305h126q-125 -153 -282 -236.5t-366 -83.5q-163 0 -302.5 51.5t-236.5 141t-151.5 214t-54.5 266.5q0 134 53 255.5t147 214.5t236 148t309 55q171 0 308.5 -51t228.5 -142.5t144 -212.5t66 -267h-1166v-455q172 -145 419 -145q327 0 522 247zM443 1112v-381h841
v381q-184 147 -422 147q-250 0 -419 -147z" />
    <glyph glyph-name="uni2190" unicode="&#x2190;" horiz-adv-x="1423" 
d="M345 547l366 -423h-127l-442 477l442 478h127l-366 -423h1031v-109h-1031z" />
    <glyph glyph-name="uni2191" unicode="&#x2191;" horiz-adv-x="1145" 
d="M675 1016v-1033h-109v1033l-424 -367v126l478 443l478 -443v-126z" />
    <glyph glyph-name="uni2192" unicode="&#x2192;" horiz-adv-x="1424" 
d="M1377 601l-443 -477h-127l367 423h-1032v109h1032l-367 423h127z" />
    <glyph glyph-name="uni2193" unicode="&#x2193;" horiz-adv-x="1145" 
d="M1098 554v-127l-477 -444l-479 444v127l424 -367v1031h109v-1031z" />
    <glyph glyph-name="uni21E8" unicode="&#x21e8;" horiz-adv-x="1637" 
d="M954 323h-838v558h838v341l641 -620l-641 -621v342zM1453 602l-399 379v-201h-839v-357h839v-201z" />
    <glyph glyph-name="partialdiff" unicode="&#x2202;" horiz-adv-x="1050" 
d="M403 1312l-11 79q125 79 278 79q168 0 250.5 -119t82.5 -333q0 -115 -20 -235q-37 -235 -122 -414.5t-212 -281.5t-278 -102q-137 0 -207.5 89t-70.5 230q0 43 8 94q34 220 167 356.5t327 136.5q98 0 170.5 -50.5t97.5 -112.5h1q25 161 25 276q0 187 -67 278.5t-208 91.5
q-98 0 -211 -62zM210 323q0 -107 48.5 -177.5t143.5 -70.5q80 0 152 48t125.5 127.5t92 171t61.5 190.5q-78 187 -241 187q-145 0 -247.5 -117t-128.5 -283q-6 -37 -6 -76z" />
    <glyph glyph-name="Delta" unicode="&#x2206;" horiz-adv-x="1270" 
d="M1147 93l-15 -93h-1108l14 90l698 1342h148zM1023 101l-236 1211l-625 -1211h861z" />
    <glyph glyph-name="product" unicode="&#x220f;" horiz-adv-x="1550" 
d="M1657 1475l-17 -108h-241l-259 -1640h-116l260 1640h-677l-260 -1640h-115l260 1640h-244l17 108h1392z" />
    <glyph glyph-name="summation" unicode="&#x2211;" horiz-adv-x="1192" 
d="M276 1475h1003l-16 -104h-849l439 -752l-715 -781h916l-19 -111h-1060l15 96l717 783l-445 777z" />
    <glyph glyph-name="minus" unicode="&#x2212;" horiz-adv-x="1173" 
d="M142 547l17 109h967l-18 -109h-966z" />
    <glyph glyph-name="uni2215" unicode="&#x2215;" horiz-adv-x="303" 
d="M-372 -29l1059 1490h103l-1060 -1490h-102z" />
    <glyph glyph-name="uni2219" unicode="&#x2219;" horiz-adv-x="425" 
d="M187 544q0 10 4 42q8 54 26 75.5t56 21.5q30 0 43 -13t13 -43q0 -17 -3 -41q-8 -53 -25.5 -73.5t-57.5 -20.5q-31 0 -43.5 12t-12.5 40z" />
    <glyph glyph-name="radical" unicode="&#x221a;" horiz-adv-x="1095" 
d="M1241 1732l-699 -1832h-122l-153 863l-147 -56l-13 91l263 99l132 -833l631 1668h108z" />
    <glyph glyph-name="infinity" unicode="&#x221e;" horiz-adv-x="1600" 
d="M1515 678q0 -37 -6 -76q-25 -158 -132.5 -271.5t-259.5 -113.5q-47 0 -90.5 17t-75 40t-67.5 67t-58.5 77.5t-58.5 90.5q-194 -215 -374 -215q-104 0 -167.5 74t-63.5 181q0 29 4 53q19 123 112.5 216t211.5 93q174 0 306 -219q69 74 111.5 115t102 88.5t115 68.5
t113.5 21q132 0 204.5 -87t72.5 -220zM261 557q0 -74 41 -116t107 -42q63 0 136.5 45.5t177.5 157.5q-68 112 -127.5 158t-122.5 46q-76 0 -134.5 -55.5t-73.5 -148.5q-4 -30 -4 -45zM1407 670q0 100 -50 154.5t-135 54.5q-152 0 -375 -277q136 -278 287 -278q99 0 173 73.5
t95 204.5q5 30 5 68z" />
    <glyph glyph-name="integral" unicode="&#x222b;" horiz-adv-x="679" 
d="M876 1531q-35 27 -86 27q-41 0 -76 -14.5t-60.5 -37t-47 -57t-35.5 -67.5t-25.5 -77t-18 -76.5t-13.5 -73.5q-26 -162 -61 -495.5t-62 -505.5q-10 -65 -28 -128.5t-50.5 -131.5t-74 -118.5t-103 -83t-132.5 -32.5q-39 0 -82 11t-64 25l42 101q56 -33 113 -33
q102 0 169 106t96 292q25 158 63 505.5t62 501.5q12 73 29 136.5t49 130.5t74 114.5t105.5 77.5t141.5 30q30 0 66.5 -10t50.5 -22z" />
    <glyph glyph-name="approxequal" unicode="&#x2248;" horiz-adv-x="1310" 
d="M1179 490l-17 -110q-56 -52 -134.5 -78.5t-154.5 -26.5q-62 0 -119 20t-95 44.5t-94 44.5t-117 20q-76 0 -154 -26.5t-134 -78.5l17 111q56 52 134.5 78t154.5 26q62 0 119 -20t94.5 -44t94 -44t116.5 -20q76 0 155 26t134 78zM1244 903l-18 -111q-55 -52 -133.5 -78
t-154.5 -26q-51 0 -97 13.5t-81.5 32t-70.5 37.5t-80 32.5t-95 13.5q-76 0 -154.5 -26.5t-134.5 -78.5l17 111q56 52 134.5 78t155.5 26q62 0 119 -20t94.5 -44t93.5 -44t116 -20q77 0 155.5 26t133.5 78z" />
    <glyph glyph-name="notequal" unicode="&#x2260;" horiz-adv-x="1288" 
d="M167 340l17 108h372l180 305h-503l17 108h549l209 355h91l-209 -355h327l-18 -108h-373l-179 -305h505l-18 -108h-550l-208 -354h-91l208 354h-326z" />
    <glyph glyph-name="lessequal" unicode="&#x2264;" horiz-adv-x="1222" 
d="M190 665l18 108l1004 426l-20 -122l-863 -358l750 -357l-20 -122zM85 4l18 108h937l-18 -108h-937z" />
    <glyph glyph-name="greaterequal" unicode="&#x2265;" horiz-adv-x="1222" 
d="M163 362l863 357l-750 358l20 122l868 -426l-17 -108l-1004 -425zM106 4l18 108h936l-18 -108h-936z" />
    <glyph glyph-name="lozenge" unicode="&#x25ca;" horiz-adv-x="1042" 
d="M1002 718l-482 -751h-122l-245 751l482 747h123zM476 74l406 644l-202 644l-407 -644z" />
    <glyph glyph-name="zero.numerator" horiz-adv-x="753" 
d="M409 598q-132 0 -186.5 57t-54.5 179q0 69 18 185q18 112 41 185t63 129t101.5 81t150.5 25q132 0 186.5 -57.5t54.5 -180.5q0 -75 -17 -182q-18 -112 -41 -185.5t-63.5 -129.5t-102 -81t-150.5 -25zM680 1019q20 124 20 179q0 83 -37 124.5t-130 41.5q-57 0 -99 -17.5
t-68 -44t-45 -75.5t-28.5 -92.5t-20.5 -115.5q-20 -124 -20 -180q0 -83 36.5 -124.5t129.5 -41.5q57 0 99 17.5t68 44t45 75.5t28.5 93t21.5 116z" />
    <glyph glyph-name="one.numerator" horiz-adv-x="425" 
d="M265 610l116 727q-95 -27 -210 -45l8 74q126 20 236 67h65l-131 -823h-84z" />
    <glyph glyph-name="two.numerator" horiz-adv-x="638" 
d="M222 1414q138 24 245 24q248 0 248 -159q0 -17 -3 -38q-18 -110 -88 -179t-194 -117q-104 -41 -152.5 -99t-80.5 -163h425l-12 -78h-527q62 191 119 270t190 133q211 85 232 216q2 11 2 31q0 58 -47.5 82t-153.5 24q-78 0 -204 -18z" />
    <glyph glyph-name="three.numerator" horiz-adv-x="643" 
d="M688 1244q-23 -148 -147 -203q43 -18 72 -58.5t29 -98.5q0 -18 -3 -37q-22 -137 -107.5 -193t-235.5 -56q-114 0 -221 23l21 72q137 -18 188 -18q127 0 190 36.5t77 129.5q2 10 2 28q0 53 -32.5 86t-87.5 39q-32 4 -100 4h-20h-24.5h-21.5l11 71q100 2 168 12
q61 10 102.5 49t50.5 94q3 20 3 34q0 28 -10 47.5t-25 31t-42.5 17.5t-53 7.5t-65.5 1.5q-77 0 -199 -18l2 71q125 23 225 23q56 0 98 -6.5t80 -22t58.5 -47.5t20.5 -79q0 -19 -3 -40z" />
    <glyph glyph-name="four.numerator" horiz-adv-x="713" 
d="M494 605l31 200h-349q-40 0 -53 15t-10 42q4 29 54 83l404 441q47 52 90 52q50 0 40 -60l-79 -501h112l-11 -72h-113l-31 -200h-85zM606 1316l-401 -439h332z" />
    <glyph glyph-name="five.numerator" horiz-adv-x="652" 
d="M276 1101q46 4 86 4q58 0 100 -4t83 -15.5t66 -31.5t40.5 -53.5t15.5 -80.5q0 -32 -5 -60q-21 -138 -104.5 -199t-230.5 -61q-119 0 -231 23l20 73q112 -18 193 -18q131 0 191 40.5t77 149.5q3 18 3 35q0 76 -63 101.5t-193 25.5q-83 0 -148 -4l91 406h462l-11 -77h-385z
" />
    <glyph glyph-name="six.numerator" horiz-adv-x="726" 
d="M737 859q-23 -148 -107.5 -205t-233.5 -57q-130 0 -184.5 55t-54.5 163q0 51 11 120q24 151 56.5 242t93.5 152.5t150.5 85t230.5 23.5q24 0 65 -1l-5 -72q-157 -5 -204 -13q-149 -23 -216 -126q-35 -53 -53 -130q142 16 211 16q123 0 184.5 -39.5t61.5 -142.5
q0 -32 -6 -71zM404 673q122 0 177 43t72 145q4 25 4 51q0 74 -46.5 100t-149.5 26q-49 0 -193 -18q-11 -46 -19 -102q-8 -46 -8 -87q0 -74 36 -116t127 -42z" />
    <glyph glyph-name="seven.numerator" horiz-adv-x="605" 
d="M712 1348l-453 -741h-94l464 748h-449l12 75h475q34 0 48.5 -12t11.5 -34q-3 -15 -15 -36z" />
    <glyph glyph-name="eight.numerator" horiz-adv-x="731" 
d="M728 874q0 -12 -4 -46q-10 -68 -40 -115t-76 -71t-96.5 -34t-114.5 -10q-258 0 -258 180q0 20 5 50q23 149 163 207q-90 48 -90 150q0 28 4 52q16 100 95.5 151t213.5 51q119 0 184 -42t65 -124q0 -17 -3 -36q-12 -74 -45.5 -122t-104.5 -80q102 -48 102 -161zM226 797
q0 -48 26 -76.5t64 -38t93 -9.5q98 0 157.5 34t74.5 125q3 16 3 31q0 65 -49.5 95t-146.5 37q-96 -11 -151 -46.5t-68 -116.5q-3 -18 -3 -35zM300 1195q0 -111 184 -126q87 13 141 47t66 106q2 11 2 30q0 44 -25 70t-61 34.5t-88 8.5q-42 0 -75 -6t-64 -20.5t-51 -44
t-26 -72.5q0 -3 -1 -8.5t-1.5 -10t-0.5 -8.5z" />
    <glyph glyph-name="nine.numerator" horiz-adv-x="724" 
d="M182 1178q24 148 109 205t233 57q130 0 184.5 -55t54.5 -163q0 -51 -11 -120q-19 -120 -43.5 -200.5t-63 -142t-96.5 -95t-136.5 -50t-191.5 -16.5q-3 0 -10 0.5t-22 1t-33 0.5l4 72q157 5 203 13q150 23 218 125q35 53 53 131q-142 -16 -211 -16q-123 0 -185 39.5
t-62 142.5q0 32 6 71zM516 1364q-122 0 -177 -43t-72 -145q-5 -32 -5 -51q0 -74 47 -100.5t150 -26.5q41 0 193 19q8 35 18 102q8 48 8 88q0 74 -35.5 115.5t-126.5 41.5z" />
    <glyph glyph-name="zero.denominator" horiz-adv-x="753" 
d="M409 -7q-132 0 -186.5 57t-54.5 179q0 69 18 185q18 112 41 185t63 129t101.5 81t150.5 25q132 0 186.5 -57.5t54.5 -180.5q0 -75 -17 -182q-18 -112 -41 -185.5t-63.5 -129.5t-102 -81t-150.5 -25zM680 414q20 124 20 179q0 83 -37 124.5t-130 41.5q-57 0 -99 -17.5
t-68 -44t-45 -75.5t-28.5 -92.5t-20.5 -115.5q-20 -124 -20 -181q0 -83 36.5 -124t129.5 -41q57 0 99 17.5t68 44t45 75.5t28.5 93t21.5 116z" />
    <glyph glyph-name="one.denominator" horiz-adv-x="425" 
d="M265 4l116 728q-103 -29 -210 -46l8 75q126 20 236 67h65l-131 -824h-84z" />
    <glyph glyph-name="two.denominator" horiz-adv-x="638" 
d="M222 809q138 24 245 24q248 0 248 -160q0 -17 -3 -38q-18 -110 -88 -178.5t-194 -116.5q-104 -41 -152 -99.5t-81 -163.5h425l-12 -77h-527q62 191 119 270t190 133q211 85 232 216q2 11 2 31q0 58 -47.5 82t-153.5 24q-71 0 -204 -19z" />
    <glyph glyph-name="three.denominator" horiz-adv-x="643" 
d="M688 638q-23 -147 -147 -202q43 -18 72 -59t29 -99q0 -16 -3 -36q-22 -137 -107.5 -193t-235.5 -56q-119 0 -221 22l21 73q144 -19 188 -19q126 0 189 36.5t78 130.5q2 10 2 28q0 54 -32.5 86.5t-87.5 38.5q-32 4 -100 4h-66l11 70q93 2 168 13q61 10 102.5 49t50.5 94
q3 19 3 34q0 28 -10 47.5t-25 31t-42.5 17.5t-53 7.5t-65.5 1.5q-77 0 -199 -18l2 71q125 23 225 23q56 0 98 -6.5t80 -22.5t58.5 -48t20.5 -79q0 -19 -3 -40z" />
    <glyph glyph-name="four.denominator" horiz-adv-x="713" 
d="M494 0l31 200h-349q-40 0 -53 15t-10 42q4 29 54 83l404 440q48 53 90 53q22 0 33.5 -15t6.5 -46l-79 -500h112l-11 -72h-113l-31 -200h-85zM606 711l-401 -439h332z" />
    <glyph glyph-name="five.denominator" horiz-adv-x="652" 
d="M276 496q46 4 86 4q58 0 100 -4t83 -15.5t66 -31.5t40.5 -53.5t15.5 -80.5q0 -33 -5 -60q-21 -138 -104.5 -199.5t-230.5 -61.5q-114 0 -231 24l20 72q105 -17 193 -17q131 0 191 40.5t77 149.5q3 18 3 34q0 40 -17.5 66t-54 39.5t-79 18t-105.5 4.5q-66 0 -148 -5
l91 406h462l-11 -76h-385z" />
    <glyph glyph-name="six.denominator" horiz-adv-x="726" 
d="M737 254q-23 -148 -107.5 -205t-233.5 -57q-130 0 -184.5 55t-54.5 163q0 50 11 119q19 120 43.5 200.5t63 142t96.5 95t136.5 50t191.5 16.5q24 0 65 -1l-5 -73q-157 -5 -204 -13q-149 -23 -216 -126q-35 -53 -53 -130q142 16 211 16q123 0 184.5 -39t61.5 -142
q0 -32 -6 -71zM404 68q122 0 177 43t72 145q4 25 4 51q0 74 -46.5 100t-149.5 26q-49 0 -193 -18q-11 -46 -19 -102q-8 -46 -8 -87q0 -74 36 -116t127 -42z" />
    <glyph glyph-name="seven.denominator" horiz-adv-x="605" 
d="M712 743l-453 -741h-94l464 748h-449l12 75h475q34 0 48.5 -12t11.5 -34q-3 -15 -15 -36z" />
    <glyph glyph-name="eight.denominator" horiz-adv-x="731" 
d="M728 269q0 -13 -4 -47q-10 -68 -40 -114.5t-76 -70.5t-96.5 -34t-114.5 -10q-258 0 -258 180q0 20 5 50q23 149 163 207q-90 48 -90 149q0 29 4 53q16 100 95.5 151t213.5 51q119 0 184 -42t65 -124q0 -16 -3 -36q-12 -74 -45.5 -122t-104.5 -80q102 -48 102 -161z
M226 192q0 -48 26 -76.5t64 -38t93 -9.5q98 0 157.5 34t74.5 125q3 16 3 31q0 65 -49.5 95t-146.5 37q-96 -11 -151 -46.5t-68 -116.5q-3 -18 -3 -35zM300 590q0 -112 184 -127q87 13 141 47t66 106q2 11 2 31q0 44 -25 70t-61 34.5t-88 8.5q-42 0 -75 -6t-64 -21t-51 -44.5
t-26 -72.5q0 -1 -1.5 -11t-1.5 -15z" />
    <glyph glyph-name="nine.denominator" horiz-adv-x="724" 
d="M182 573q24 148 109 204.5t233 56.5q130 0 184.5 -54.5t54.5 -162.5q0 -51 -11 -120q-19 -120 -43.5 -200.5t-63 -142t-96.5 -95t-136.5 -50t-191.5 -16.5q-23 0 -65 1l4 73q157 5 203 13q150 23 218 125q35 53 53 131q-142 -16 -211 -16q-123 0 -185 39.5t-62 142.5
q0 32 6 71zM516 759q-122 0 -177 -43t-72 -145q-5 -32 -5 -51q0 -74 47 -100.5t150 -26.5q41 0 193 19q8 35 18 102q8 48 8 88q0 74 -35.5 115.5t-126.5 41.5z" />
    <glyph glyph-name="zero.onum" horiz-adv-x="1153" 
d="M528 -15q-204 0 -288 83.5t-84 262.5q0 92 25 252q17 106 36.5 184.5t49 148.5t69 117t93.5 81.5t125.5 50.5t162.5 16q204 0 288 -83.5t84 -263.5q0 -99 -24 -251q-20 -127 -45 -217t-65.5 -166t-97.5 -121t-138.5 -69.5t-190.5 -24.5zM265 334q0 -125 59.5 -187
t213.5 -62q66 0 119.5 13t92.5 33.5t69.5 57t50.5 73.5t36.5 93.5t26 105.5t21.5 122q27 166 27 247q0 126 -60.5 188.5t-214.5 62.5q-66 0 -119.5 -13t-92 -33.5t-69 -57.5t-50 -73t-36 -93.5t-26 -106t-21.5 -121.5q-27 -167 -27 -249z" />
    <glyph glyph-name="one.onum" horiz-adv-x="673" 
d="M341 0l164 1036q-188 -54 -355 -79l10 100q204 33 388 110h90l-185 -1167h-112z" />
    <glyph glyph-name="two.onum" horiz-adv-x="1024" 
d="M233 1150q212 31 391 31q403 0 403 -231q0 -15 -4 -49q-24 -154 -136.5 -251t-310.5 -166q-90 -32 -154.5 -69t-110 -84.5t-74 -101t-52.5 -126.5h711l-16 -103h-848q40 112 69.5 180t69 134.5t86 108t110.5 78.5t154 68q79 28 140.5 57t117 66.5t89 85t41.5 101.5
q4 28 4 40q0 88 -82.5 123.5t-271.5 35.5q-145 0 -327 -24z" />
    <glyph glyph-name="three.onum" horiz-adv-x="981" 
d="M941 883q-19 -115 -81.5 -196t-162.5 -122q72 -22 122 -84.5t50 -159.5q0 -32 -4 -59q-14 -87 -45.5 -152.5t-77 -109t-108.5 -70.5t-134.5 -38.5t-161.5 -11.5q-175 0 -335 33l30 99q200 -27 285 -27q203 0 304 58t125 210q3 24 3 47q0 86 -53 138.5t-143 61.5
q-77 8 -185 8h-65l14 93q122 3 255 21q102 15 168.5 78t80.5 152q4 28 4 57q0 45 -16 77t-40.5 49.5t-68 27.5t-85 12.5t-105.5 2.5q-118 0 -303 -27l4 97q183 33 342 33q67 0 120.5 -5.5t106 -21t87.5 -41.5t56.5 -69t21.5 -101q0 -23 -5 -60z" />
    <glyph glyph-name="four.onum" horiz-adv-x="1091" 
d="M660 -106l48 311h-556q-91 0 -91 64q0 6 2 18q8 48 81 127l633 689q72 78 132 78q55 0 55 -60q0 -7 -2 -25l-126 -792h175l-15 -99h-176l-49 -311h-111zM839 1028l-662 -724h547z" />
    <glyph glyph-name="five.onum" horiz-adv-x="996" 
d="M989 1064h-603q-13 -60 -46.5 -208t-46.5 -207q84 6 146 6q74 0 130 -4t112 -14.5t95 -30.5t70.5 -50.5t46.5 -76t15 -105.5q0 -48 -8 -93q-34 -212 -161.5 -306.5t-352.5 -94.5q-184 0 -351 34l29 99q141 -27 292 -27q210 0 306.5 65t124.5 241q5 33 5 56
q0 52 -19.5 89.5t-52.5 60t-87.5 35t-111.5 17t-137 4.5q-116 0 -222 -7l139 620h704z" />
    <glyph glyph-name="six.onum" 
d="M1026 387q-19 -118 -63 -198.5t-114 -124t-152.5 -61.5t-193.5 -18q-199 0 -282 84.5t-83 250.5q0 81 17 186q24 155 53.5 265t74.5 201t103.5 147.5t144 95.5t192.5 55t252 16q28 0 92 -1l-6 -99q-20 -1 -61 -2q-87 -2 -131 -4.5t-120.5 -12t-119 -26t-100.5 -48.5
t-92.5 -77t-67.5 -113t-52 -156q213 28 342 28q92 0 157.5 -12.5t117 -43t77 -86t25.5 -136.5q0 -51 -10 -110zM292 646q-11 -53 -29 -167q-13 -87 -13 -139q0 -56 12 -99.5t40.5 -79.5t82 -55t129.5 -19q133 0 214 31t124.5 96t61.5 176q8 50 8 83q0 119 -75 160.5
t-241 41.5q-105 0 -314 -29z" />
    <glyph glyph-name="seven.onum" horiz-adv-x="924" 
d="M981 1050l-705 -1156h-125l726 1171h-709l17 102h734q48 0 68.5 -17t15.5 -48q-3 -20 -22 -52z" />
    <glyph glyph-name="eight.onum" horiz-adv-x="1118" 
d="M1013 412q0 -28 -7 -75q-13 -84 -46.5 -147t-79 -101.5t-108 -62.5t-126 -32.5t-140.5 -8.5q-89 0 -158 14t-123.5 45t-83.5 86t-29 132q0 35 6 77q21 133 89 208t175 114q-79 39 -114 95.5t-35 138.5q0 31 7 82q25 153 145.5 231t326.5 78q183 0 282 -64.5t99 -189.5
q0 -23 -5 -55q-18 -116 -74 -191t-173 -125q172 -67 172 -249zM225 288q0 -59 22.5 -99.5t65 -62.5t93 -31t116.5 -9q75 0 132.5 10.5t110 37.5t86 79.5t45.5 129.5q5 30 5 52q0 105 -80 153t-235 59q-75 -9 -130 -24t-104.5 -44.5t-80 -78t-41.5 -117.5q-5 -33 -5 -55z
M342 912q0 -185 298 -205q66 9 117 24.5t99.5 43t79 73t39.5 106.5q4 34 4 48q0 54 -22 91.5t-63 57.5t-88.5 28t-109.5 8q-54 0 -98 -5.5t-88 -21t-76 -41t-55.5 -67.5t-32.5 -98q-4 -30 -4 -42z" />
    <glyph glyph-name="nine.onum" horiz-adv-x="1109" 
d="M170 779q15 95 48 165.5t78 115.5t108.5 72.5t132.5 38t157 10.5q199 0 282 -84t83 -250q0 -70 -17 -186q-24 -155 -53.5 -265t-74.5 -201t-103.5 -148t-144 -96t-192.5 -55t-252 -16q-28 0 -92 1l5 99q21 1 61 2q87 2 131.5 4.5t121 12t119 26t100.5 48.5t92.5 77
t67.5 113t52 156q-213 -28 -342 -28q-189 0 -283 60.5t-94 218.5q0 49 9 109zM682 1080q-196 0 -284.5 -69t-115.5 -235q-7 -43 -7 -83q0 -119 75 -160.5t240 -41.5q105 0 314 29q11 51 29 168q13 87 13 139q0 56 -12 99.5t-40.5 79.5t-82 55t-129.5 19z" />
    <glyph glyph-name="dollar.onum" horiz-adv-x="914" 
d="M721 333q4 30 4 44q0 86 -61.5 135t-191.5 91q-63 21 -102.5 36.5t-82 39.5t-65 50.5t-37.5 65t-15 87.5q0 32 6 70q26 164 122.5 241t268.5 90l28 178h94l-28 -175q152 -1 291 -26l-26 -96q-130 21 -240 21q-67 0 -118.5 -5t-101 -18.5t-83.5 -36.5t-58.5 -60.5
t-32.5 -88.5q-6 -39 -6 -68q0 -35 10 -60.5t26.5 -44.5t51 -36.5t71.5 -31t100 -33.5q69 -22 117.5 -45t92.5 -57.5t66.5 -84t22.5 -113.5q0 -34 -5 -63q-26 -166 -124.5 -249t-270.5 -100l-28 -179h-95l27 174h-4q-168 0 -307 29l29 97q140 -24 289 -24q61 0 108.5 6
t93 22.5t77 44t55 71t32.5 102.5z" />
    <glyph glyph-name="cent.onum" horiz-adv-x="796" 
d="M482 135l-27 -172h-91l27 176q-71 8 -121 35t-79 70.5t-41.5 96t-12.5 120.5q0 73 17 185q18 115 44 194t70.5 143.5t113.5 101t167 47.5l27 177h91l-27 -172h6q106 0 201 -25l-23 -88q-84 14 -156 14q-67 0 -119 -8t-91 -21.5t-68 -39t-49 -54t-35 -73t-24.5 -88.5
t-19.5 -108q-19 -119 -19 -183q0 -117 63.5 -173t229.5 -56q56 0 166 22l-3 -94q-129 -25 -217 -27z" />
    <glyph glyph-name="Euro.onum" horiz-adv-x="957" 
d="M417 799h435l-34 -89h-419l-12 -75l-9 -60h389l-33 -88h-367q-8 -63 -8 -129q0 -141 62 -206.5t218 -65.5q77 0 199 21l-6 -94q-117 -28 -240 -28q-189 0 -268 85.5t-79 273.5q0 74 8 143h-139l32 88h118l9 60l12 75h-126l35 89h109q58 260 168 373.5t327 113.5
q118 0 232 -26l-25 -96q-120 21 -193 21q-94 0 -161 -23.5t-112 -75t-72.5 -119t-49.5 -168.5z" />
    <glyph glyph-name="sterling.onum" horiz-adv-x="1046" 
d="M332 595h-194l14 96h180q2 144 21 261q12 78 44 137.5t75.5 96.5t103.5 60t121.5 32t135.5 9q175 0 274 -115l-72 -72q-90 84 -211 84q-182 0 -261.5 -64.5t-102.5 -213.5q-10 -63 -12 -215h297l-16 -96h-282q-4 -91 -14 -153q-16 -104 -46.5 -171.5t-92.5 -166.5h352
q142 0 282 20l-4 -96q-178 -28 -400 -28h-326q-29 0 -41.5 13.5t-9.5 35.5q2 15 25.5 52.5t52 80.5t56.5 110t39 133q10 68 12 170z" />
    <glyph glyph-name="yen.onum" horiz-adv-x="966" 
d="M223 1274h121l187 -645l397 645h117l-429 -694h184l-14 -90h-223l-19 -122h222l-14 -90h-222l-44 -278h-114l45 278h-217l14 90h217l19 122h-217l15 90h179z" />
    <glyph glyph-name="zero.tnum" horiz-adv-x="1210" 
d="M547 -15q-218 0 -308 95t-90 299q0 126 30 315q24 151 52.5 257.5t74 196.5t107.5 143.5t151 82.5t208 29q218 0 309 -95.5t91 -300.5q0 -125 -30 -313q-24 -151 -53 -257.5t-74 -196.5t-107.5 -143.5t-152 -82.5t-208.5 -29zM1026 694q35 219 35 314q0 146 -66.5 219.5
t-233.5 73.5q-58 0 -106.5 -9.5t-87 -25t-70.5 -43.5t-55.5 -56.5t-44 -72.5t-34 -83t-27 -96.5t-22 -104.5t-19.5 -116q-35 -221 -35 -317q0 -144 65.5 -216.5t231.5 -72.5q65 0 118.5 10.5t95 34.5t73.5 52t57.5 72.5t43.5 86.5t33.5 105t25.5 115.5t22 129.5z" />
    <glyph glyph-name="one.tnum" horiz-adv-x="1210" 
d="M602 0l199 1256q-191 -54 -362 -81l10 102q206 32 395 112h92l-220 -1389h-114z" />
    <glyph glyph-name="two.tnum" horiz-adv-x="1210" 
d="M339 1365q217 38 403 38q411 0 411 -263q0 -34 -5 -62q-29 -184 -146.5 -299.5t-324.5 -196.5q-99 -39 -167.5 -84.5t-115.5 -106t-76 -125t-58 -160.5h734l-17 -106h-873q36 109 62 178t60 140.5t67.5 116.5t81.5 90t106.5 78t137.5 65q82 33 146 68.5t122 82t94.5 105
t46.5 126.5q5 33 5 56q0 105 -84 148.5t-276 43.5q-158 0 -338 -30z" />
    <glyph glyph-name="three.tnum" horiz-adv-x="1210" 
d="M1104 1081q-42 -266 -275 -349v-1q80 -21 138.5 -90.5t58.5 -178.5q0 -34 -5 -62q-15 -94 -49.5 -165.5t-84 -118.5t-118 -76.5t-147 -42t-175.5 -12.5q-197 0 -362 35l30 100q219 -29 310 -29q225 0 336.5 65.5t138.5 233.5q4 25 4 54q0 96 -59 153t-160 68
q-80 8 -211 8h-60l16 94q142 3 275 23q113 17 186.5 87t89.5 170q6 35 6 64q0 51 -17.5 86t-45 55t-76.5 30.5t-94.5 13.5t-116.5 3q-129 0 -327 -29l3 98q191 35 370 35q74 0 132 -6t115.5 -22.5t95 -44.5t61 -74t23.5 -109q0 -31 -6 -66z" />
    <glyph glyph-name="four.tnum" horiz-adv-x="1210" 
d="M745 0l54 342h-615q-97 0 -97 67q0 5 2 19q7 46 89 135l694 756q76 84 141 84q57 0 57 -63q0 -8 -2 -26l-138 -873h191l-15 -99h-192l-54 -342h-115zM943 1253l-742 -812h614z" />
    <glyph glyph-name="five.tnum" horiz-adv-x="1210" 
d="M383 821q93 6 165 6q81 0 142 -4.5t122 -16t103.5 -33t76.5 -54.5t50.5 -83t16.5 -115q0 -52 -8 -101q-36 -230 -175 -332.5t-384 -102.5q-195 0 -380 37l29 100q164 -29 317 -29q117 0 196 15.5t138.5 54t93 104.5t49.5 167q6 35 6 63q0 48 -14 85t-43.5 61.5
t-66.5 40.5t-91 25t-108.5 12t-127.5 3q-140 0 -240 -6l151 671h765l-18 -106h-660z" />
    <glyph glyph-name="six.tnum" horiz-adv-x="1210" 
d="M1117 422q-20 -128 -68.5 -215.5t-125 -135t-166 -67t-210.5 -19.5q-216 0 -306 91.5t-90 271.5q0 93 18 204q27 169 59 289t81 219.5t112.5 161t156.5 104t210 60t275 17.5q27 0 96 -1l-4 -100q-22 -1 -66 -2q-74 -2 -111.5 -3.5t-105.5 -7.5t-106 -15t-95 -26.5
t-91.5 -41.5t-78 -60.5t-70.5 -83.5t-52.5 -110t-41.5 -140q242 31 379 31q100 0 172 -14t128 -47t84 -93.5t28 -149.5q0 -49 -11 -117zM558 88q217 0 316 77t128 260q8 45 8 92q0 69 -22 114t-69.5 69t-108 33t-151.5 9q-102 0 -346 -33q-15 -68 -34 -187q-14 -82 -14 -154
q0 -62 13.5 -110t45 -87.5t91 -61t143.5 -21.5z" />
    <glyph glyph-name="seven.tnum" horiz-adv-x="1210" 
d="M1181 1265l-773 -1265h-128l796 1285h-779l17 104h802q50 0 71.5 -17.5t16.5 -49.5q-3 -25 -23 -57z" />
    <glyph glyph-name="eight.tnum" horiz-adv-x="1210" 
d="M546 -15q-97 0 -172 15t-134 48.5t-90.5 93t-31.5 143.5q0 42 7 84q23 144 100.5 227.5t197.5 125.5q-91 43 -131.5 105.5t-40.5 153.5q0 45 7 88q26 165 157.5 249.5t355.5 84.5q199 0 306.5 -70t107.5 -205q0 -24 -5 -59q-21 -129 -83 -211.5t-195 -135.5
q196 -78 196 -277q0 -30 -7 -79q-15 -91 -51.5 -159t-86 -110t-117.5 -67.5t-137 -35t-153 -9.5zM234 311q0 -65 25 -110t72.5 -69t103 -34t128.5 -10q66 0 118.5 6.5t105 25.5t89.5 50.5t64.5 83t38.5 120.5q5 33 5 57q0 117 -89 170.5t-262 65.5q-65 -7 -116 -19t-100 -34
t-83.5 -53t-59 -78.5t-34.5 -108.5q-6 -34 -6 -63zM363 995q0 -204 329 -227q74 11 131 28t110.5 47.5t87 81t44.5 118.5q4 27 4 54q0 60 -24.5 102t-70.5 64t-98.5 31t-120.5 9q-60 0 -108.5 -6t-97.5 -23.5t-84.5 -46t-61.5 -75t-36 -109.5q-4 -34 -4 -48z" />
    <glyph glyph-name="nine.tnum" horiz-adv-x="1210" 
d="M197 967q20 128 68.5 215.5t124.5 134.5t165.5 66.5t210.5 19.5q216 0 306.5 -91t90.5 -272q0 -92 -18 -203q-27 -169 -59 -289t-81 -219.5t-112.5 -161.5t-156.5 -104.5t-210 -60t-275 -17.5q-27 0 -97 1l5 101q23 1 68 2q73 2 110.5 3.5t105.5 7.5t105.5 15t94.5 26.5
t91 41.5t77.5 60.5t70.5 83t52.5 109.5t41.5 140q-234 -30 -379 -30q-100 0 -171.5 13.5t-128 47t-84 93.5t-27.5 149q0 50 11 118zM755 1300q-217 0 -315.5 -76.5t-127.5 -260.5q-8 -45 -8 -92q0 -69 21.5 -113.5t69 -68.5t108 -33t151.5 -9q103 0 347 33q16 70 34 186
q14 81 14 154q0 62 -13.5 110t-45.5 88t-91 61t-144 21z" />
    <glyph glyph-name="dollar.tnum" horiz-adv-x="1210" 
d="M898 363q5 33 5 54q0 51 -17.5 88t-57 65.5t-85.5 48t-121 43.5q-69 22 -112.5 39t-89.5 43t-70.5 54.5t-40.5 70t-16 94.5q0 29 7 78q28 178 133.5 261.5t294.5 97.5l31 195h94l-30 -192q165 -1 319 -28l-26 -96q-147 22 -259 22q-74 0 -131.5 -5.5t-112.5 -20.5
t-93 -40.5t-65 -67.5t-36 -99q-7 -41 -7 -78q0 -32 6 -55.5t22 -44t35.5 -36t55.5 -31.5t73 -29t95 -31q75 -23 128.5 -48.5t101 -63t71.5 -91t24 -121.5q0 -31 -6 -69q-28 -181 -135.5 -271.5t-295.5 -108.5l-31 -196h-95l30 191h-10q-192 0 -331 30l28 99q153 -26 313 -26
q67 0 120 7t103.5 25.5t86 49t61 79t36.5 114.5z" />
    <glyph glyph-name="cent.tnum" horiz-adv-x="1210" 
d="M693 149l-30 -189h-92l31 193q-151 18 -215 108t-64 243q0 79 19 202q20 125 48 211t77 156.5t124.5 109.5t182.5 51l30 195h92l-30 -189h11q110 0 215 -28l-23 -88q-94 16 -168 16t-131.5 -8.5t-101 -24t-75.5 -44t-54 -59.5t-38.5 -80.5t-27 -98t-21.5 -119.5
q-21 -133 -21 -201q0 -64 15 -109t51 -79.5t100 -51t159 -16.5q70 0 178 23l-4 -94q-145 -28 -237 -29z" />
    <glyph glyph-name="Euro.tnum" horiz-adv-x="1210" 
d="M916 624l-34 -88h-404q-9 -78 -9 -144q0 -158 69 -231.5t241 -73.5q91 0 216 22l-6 -94q-134 -30 -259 -30q-205 0 -291 92.5t-86 297.5q0 64 10 161h-152l32 88h131l10 70q6 45 15 87h-137l32 88h123q31 143 73 240t105.5 164.5t151 98.5t208.5 31q136 0 249 -27
l-25 -97q-118 22 -208 22q-105 0 -179.5 -26.5t-124.5 -84.5t-80.5 -133t-54.5 -188h476l-33 -88h-461q-9 -53 -14 -87l-10 -70h426z" />
    <glyph glyph-name="sterling.tnum" horiz-adv-x="1210" 
d="M400 653h-213l15 97h199q2 161 22 290q17 105 64 178.5t120 112.5t154.5 55.5t183.5 16.5q103 0 172.5 -30.5t121.5 -90.5l-72 -73q-93 89 -231 89q-203 0 -290.5 -71.5t-113.5 -237.5q-12 -74 -12 -218v-21h324l-16 -97h-310q-4 -96 -16 -173q-18 -115 -51.5 -189
t-103.5 -185h393q150 0 305 21l-5 -97q-193 -30 -435 -30h-356q-30 0 -42.5 13.5t-9.5 35.5q2 15 28 56.5t57 89t62 121.5t42 146q12 84 14 191z" />
    <glyph glyph-name="yen.tnum" horiz-adv-x="1210" 
d="M326 1389h123l208 -714l439 714h118l-469 -761h203l-13 -90h-244l-23 -142h244l-15 -91h-243l-49 -305h-115l48 305h-239l14 91h239l23 142h-239l14 90h199z" />
    <glyph glyph-name="period.tnum" horiz-adv-x="605" 
d="M380 120q0 -9 -4 -41q-8 -53 -25.5 -73.5t-57.5 -20.5q-30 0 -42.5 12t-12.5 40q0 17 3 42q8 54 26 75.5t57 21.5q30 0 43 -13t13 -43z" />
    <glyph glyph-name="comma.tnum" horiz-adv-x="605" 
d="M103 -269l220 514h137l-258 -514h-99z" />
    <glyph glyph-name="colon.tnum" horiz-adv-x="605" 
d="M348 121q0 -18 -3 -42q-8 -53 -25.5 -73.5t-57.5 -20.5q-31 0 -43.5 12t-12.5 40q0 8 4 42q8 54 26 75.5t56 21.5q30 0 43 -13t13 -42zM388 773q-31 0 -44 11.5t-13 39.5q0 9 4 43q8 53 26 74.5t56 21.5q31 0 44 -13t13 -42q0 -9 -4 -41q-8 -53 -25 -73.5t-57 -20.5z" />
    <glyph glyph-name="semicolon.tnum" horiz-adv-x="605" 
d="M441 773q-31 0 -43.5 12t-12.5 41q0 17 3 41q8 53 26 74.5t57 21.5q31 0 43.5 -12.5t12.5 -42.5q0 -17 -3 -41q-8 -53 -25.5 -73.5t-57.5 -20.5zM68 -269l220 514h136l-257 -514h-99z" />
    <glyph glyph-name="zero.onum_tnum" 
d="M507 -15q-204 0 -288 83.5t-84 262.5q0 92 25 252q17 106 36.5 184.5t49 148.5t69 117t93.5 81.5t125.5 50.5t162.5 16q204 0 288.5 -83.5t84.5 -263.5q0 -99 -24 -251q-17 -105 -36.5 -184t-49 -149t-69.5 -117t-94.5 -81.5t-126 -50.5t-162.5 -16zM244 334
q0 -125 59.5 -187t213.5 -62q66 0 119.5 13t92.5 33.5t69.5 57t50.5 73.5t36.5 93.5t26 105.5t21.5 122q27 166 27 247q0 126 -60.5 188.5t-214.5 62.5q-66 0 -119.5 -13t-92 -33.5t-69 -57.5t-50 -73t-36 -93.5t-26 -106t-21.5 -121.5q-27 -167 -27 -249z" />
    <glyph glyph-name="one.onum_tnum" 
d="M560 0l164 1036q-188 -54 -355 -79l11 100q202 33 387 110h90l-185 -1167h-112z" />
    <glyph glyph-name="two.onum_tnum" 
d="M277 1150q212 31 391 31q403 0 403 -231q0 -15 -4 -49q-24 -154 -137 -251t-311 -166q-90 -32 -154.5 -69t-109.5 -85t-73.5 -101t-52.5 -126h711l-16 -103h-848q40 112 69.5 180t69 134.5t86 108t110.5 78.5t154 68q79 28 140.5 57t117 66.5t89 85t41.5 101.5q4 28 4 40
q0 88 -83 123.5t-272 35.5q-145 0 -327 -24z" />
    <glyph glyph-name="three.onum_tnum" 
d="M1006 883q-38 -234 -243 -318q72 -22 122 -84.5t50 -159.5q0 -26 -5 -59q-17 -108 -60.5 -183.5t-113 -118.5t-154.5 -61.5t-198 -18.5q-175 0 -335 33l29 99q200 -27 285 -27q203 0 304 58t125 210q4 32 4 47q0 86 -53.5 138.5t-143.5 61.5q-77 8 -184 8h-66l15 93
q122 3 255 21q102 15 168 78t80 152q5 35 5 57q0 45 -16 77t-40.5 49.5t-68.5 27.5t-85.5 12.5t-105.5 2.5q-117 0 -302 -27l4 97q183 33 341 33q67 0 120.5 -5.5t106 -21t87.5 -41.5t56.5 -69t21.5 -101q0 -23 -5 -60z" />
    <glyph glyph-name="four.onum_tnum" 
d="M670 -106l49 311h-557q-90 0 -90 64q0 6 2 18q8 48 81 127l633 689q72 78 131 78q56 0 56 -60q0 -4 -1.5 -13.5t-1.5 -11.5l-125 -792h175l-16 -99h-175l-49 -311h-112zM850 1028l-663 -724h548z" />
    <glyph glyph-name="five.onum_tnum" 
d="M1047 1064h-602q-13 -60 -47 -208t-47 -207q84 6 146 6q90 0 154.5 -5.5t127.5 -23t102 -47.5t62.5 -81.5t23.5 -123.5q0 -48 -8 -93q-34 -212 -161.5 -306.5t-352.5 -94.5q-185 0 -352 34l29 99q141 -27 293 -27q210 0 306 65t124 241q5 33 5 56q0 52 -19.5 89.5
t-52.5 60t-87.5 35t-111.5 17t-137 4.5q-116 0 -222 -7l139 620h705z" />
    <glyph glyph-name="six.onum_tnum" 
d="M1026 387q-19 -118 -63 -198.5t-114 -124t-152.5 -61.5t-193.5 -18q-199 0 -282 84.5t-83 250.5q0 81 17 186q24 155 53.5 265t74.5 201t103.5 147.5t144 95.5t192.5 55t252 16q28 0 92 -1l-6 -99q-20 -1 -61 -2q-87 -2 -131 -4.5t-120.5 -12t-119 -26t-100.5 -48.5
t-92.5 -77t-67.5 -113t-52 -156q213 28 342 28q92 0 157.5 -12.5t117 -43t77 -86t25.5 -136.5q0 -51 -10 -110zM292 646q-11 -53 -29 -167q-13 -87 -13 -139q0 -56 12 -99.5t40.5 -79.5t82 -55t129.5 -19q133 0 214 31t124.5 96t61.5 176q8 50 8 83q0 119 -75 160.5
t-241 41.5q-105 0 -314 -29z" />
    <glyph glyph-name="seven.onum_tnum" 
d="M1075 1050l-705 -1156h-125l726 1171h-709l17 102h734q48 0 68.5 -17t15.5 -48q-3 -20 -22 -52z" />
    <glyph glyph-name="eight.onum_tnum" 
d="M1009 412q0 -34 -6 -75q-13 -84 -46.5 -147t-79 -101.5t-108 -62.5t-126 -32.5t-140.5 -8.5q-395 0 -395 277q0 35 6 77q21 133 89 208t176 114q-79 39 -114.5 96t-35.5 138q0 31 7 82q25 153 145.5 231t326.5 78q183 0 282 -64.5t99 -189.5q0 -30 -4 -55
q-18 -116 -74 -191t-173 -125q171 -67 171 -249zM221 288q0 -59 22.5 -99.5t65 -62.5t93 -31t116.5 -9q75 0 132.5 10.5t110 37t86.5 79.5t46 130q4 24 4 52q0 105 -80 153t-235 59q-75 -9 -130 -24t-104.5 -44.5t-80 -78t-41.5 -117.5q-5 -33 -5 -55zM339 912
q0 -185 297 -205q66 9 117 24.5t99.5 43t79 73t39.5 106.5q5 43 5 48q0 44 -15.5 77t-40.5 53t-62.5 33t-77 17.5t-88.5 4.5q-54 0 -98 -5.5t-88 -21t-76 -41t-55.5 -67.5t-32.5 -98q-3 -23 -3 -42z" />
    <glyph glyph-name="nine.onum_tnum" 
d="M172 779q15 95 48 165.5t78 115.5t108.5 72.5t132.5 38t157 10.5q199 0 282 -84t83 -250q0 -64 -18 -186q-24 -155 -53.5 -265t-74.5 -201t-103.5 -148t-143.5 -96t-192 -55t-252 -16q-29 0 -93 1l5 99q21 1 62 2q86 2 130.5 4.5t121 12t119.5 26t101 48.5t92.5 77
t67.5 113t52 156q-213 -28 -343 -28q-189 0 -282.5 60.5t-93.5 218.5q0 49 9 109zM684 1080q-196 0 -284.5 -69t-115.5 -235q-7 -43 -7 -83q0 -119 75 -160.5t240 -41.5q105 0 314 29q11 51 29 168q13 87 13 139q0 56 -12 99.5t-40.5 79.5t-82 55t-129.5 19z" />
    <glyph glyph-name="dollar.onum_tnum" 
d="M820 333q4 30 4 44q0 86 -61.5 135t-191.5 91q-63 21 -102.5 36.5t-82 39.5t-65 50.5t-37.5 65t-15 87.5q0 32 6 70q26 164 122 241t268 90l29 178h94l-28 -175q152 -1 291 -26l-26 -96q-129 21 -240 21q-67 0 -118.5 -5t-101 -18.5t-83.5 -36.5t-58.5 -60.5t-32.5 -88.5
q-6 -39 -6 -68q0 -35 10 -60.5t26.5 -44.5t51 -36.5t71.5 -31t100 -33.5q69 -22 117.5 -45t92.5 -57.5t66.5 -84t22.5 -113.5q0 -34 -5 -63q-26 -166 -124.5 -249t-270.5 -100l-28 -179h-95l27 174h-4q-168 0 -307 29l29 97q140 -24 289 -24q61 0 108.5 6t93 22.5t77 44
t55 71t32.5 102.5z" />
    <glyph glyph-name="cent.onum_tnum" 
d="M640 135l-27 -172h-91l27 176q-71 8 -121 35t-79 70.5t-41.5 96t-12.5 120.5q0 73 17 185q18 115 44 194t70.5 143.5t113.5 101t167 47.5l27 177h91l-27 -172h6q106 0 201 -25l-23 -88q-84 14 -156 14q-67 0 -119 -8t-91 -21.5t-68 -39t-49 -54t-35 -73t-24.5 -88.5
t-19.5 -108q-19 -119 -19 -183q0 -117 63.5 -173t229.5 -56q56 0 166 22l-3 -94q-129 -25 -217 -27z" />
    <glyph glyph-name="Euro.onum_tnum" 
d="M494 799h436l-35 -89h-418l-12 -75l-10 -60h389l-32 -88h-368q-8 -63 -8 -129q0 -141 62 -206.5t218 -65.5q78 0 200 21l-7 -94q-117 -28 -239 -28q-189 0 -268 85.5t-79 273.5q0 74 8 143h-140l33 88h117l9 60l13 75h-126l34 89h109q58 260 168.5 373.5t327.5 113.5
q117 0 231 -26l-24 -96q-120 21 -193 21q-94 0 -161 -23.5t-112.5 -75t-73 -119t-49.5 -168.5z" />
    <glyph glyph-name="sterling.onum_tnum" 
d="M365 595h-194l15 96h180q2 151 20 261q12 78 44 137.5t75.5 96.5t103.5 60t121.5 32t135.5 9q175 0 274 -115l-71 -72q-90 84 -212 84q-182 0 -261.5 -64.5t-102.5 -213.5q-10 -63 -12 -215h297l-15 -96h-283q-4 -91 -14 -153q-16 -104 -46 -172t-92 -166h352
q141 0 281 20l-4 -96q-178 -28 -400 -28h-326q-29 0 -41.5 13.5t-9.5 35.5q2 15 25.5 52.5t52 80.5t56.5 110t39 133q10 68 12 170z" />
    <glyph glyph-name="yen.onum_tnum" 
d="M296 1274h121l187 -645l398 645h116l-429 -694h184l-14 -90h-222l-19 -122h221l-14 -90h-222l-44 -278h-114l45 278h-217l14 90h217l20 122h-217l14 90h179z" />
    <glyph glyph-name="parenleft.case" horiz-adv-x="586" 
d="M406 -151l-80 -59q-186 218 -186 598q0 145 28 325q98 621 451 923l60 -59q-88 -77 -159 -185t-116.5 -228.5t-73.5 -228.5t-46 -222q-28 -175 -28 -329q0 -356 150 -535z" />
    <glyph glyph-name="parenright.case" horiz-adv-x="588" 
d="M272 1577l79 59q187 -220 187 -599q0 -144 -28 -324q-98 -621 -451 -923l-61 59q89 77 160 185.5t116.5 229t73.5 228t46 221.5q28 175 28 329q0 356 -150 535z" />
    <glyph glyph-name="bracketleft.case" horiz-adv-x="580" 
d="M463 1526l-257 -1618h217l-16 -99h-325l287 1814h326l-15 -97h-217z" />
    <glyph glyph-name="bracketright.case" horiz-adv-x="581" 
d="M248 1526l16 97h326l-287 -1814h-325l15 99h216l256 1618h-217z" />
    <glyph glyph-name="braceleft.case" horiz-adv-x="589" 
d="M337 334l-17 -111q-9 -54 -9 -100q0 -183 134 -211l-25 -91q-108 24 -165 85.5t-57 183.5q0 46 9 102q26 165 26 264q0 95 -26 146.5t-85 68.5l14 92q98 25 149 134t88 345q14 91 44 157.5t74.5 108.5t95.5 66t117 38l-4 -91q-180 -37 -224 -311l-18 -111
q-10 -62 -22.5 -110.5t-36 -107.5t-62.5 -101.5t-91 -63.5q104 -53 104 -233q0 -65 -13 -149z" />
    <glyph glyph-name="braceright.case" horiz-adv-x="590" 
d="M-22 -179l4 91q181 35 224 311l17 111q48 311 211 382q-105 47 -105 228q0 54 15 155l18 111q9 52 9 100q0 182 -134 211l24 91q108 -24 165 -85.5t57 -182.5q0 -46 -9 -102q-26 -165 -26 -265q0 -95 26 -146t85 -68l-14 -92q-98 -26 -148.5 -134.5t-88.5 -344.5
q-28 -176 -110.5 -259.5t-219.5 -111.5z" />
    <glyph glyph-name="questiondown.case" horiz-adv-x="994" 
d="M643 1007h100l-18 -121q0 -2 -7 -52q-9 -60 -40.5 -97.5t-75 -53.5t-94 -25.5t-102 -23.5t-96 -38t-78.5 -77t-47 -133q-9 -57 -9 -100q0 -117 81.5 -159.5t293.5 -42.5q137 0 298 28l6 -99q-177 -35 -361 -35q-86 0 -147.5 6t-120 24t-94.5 49t-57.5 84t-21.5 126
q0 41 10 109q13 82 39 143.5t59 97t72.5 59.5t81 36t82.5 20.5t78 18t67.5 24.5t52 44t28.5 73zM675 1304q0 17 3 41q8 53 26 73.5t57 20.5q31 0 44 -12t13 -40q0 -8 -4 -42q-8 -54 -26 -75t-57 -21q-31 0 -43.5 12.5t-12.5 42.5z" />
    <glyph glyph-name="exclamdown.case" horiz-adv-x="423" 
d="M412 1387q0 -8 -4 -42q-8 -53 -26 -74.5t-56 -21.5q-31 0 -43.5 12.5t-12.5 41.5q0 18 3 42q8 53 25.5 73.5t57.5 20.5q31 0 43.5 -12t12.5 -40zM57 -7l181 1014h99l-141 -1014h-139z" />
    <glyph glyph-name="at.case" horiz-adv-x="1874" 
d="M866 -15q-355 0 -534.5 132.5t-179.5 418.5q0 76 16 180q31 197 108 338.5t199.5 227t280.5 125t363 39.5q316 0 316 -247q0 -33 -6 -72l-73 -462q-13 -80 -34 -181q-188 -84 -401 -84q-174 0 -255.5 59t-81.5 181q0 36 6 76q20 129 100.5 211t209.5 108q111 22 408 32
q9 59 9 103q0 97 -51 136t-173 39q-138 0 -248.5 -19t-207 -64t-166.5 -117t-119 -179.5t-71 -249.5q-14 -90 -14 -161q0 -129 41 -220t122.5 -145t192 -78.5t259.5 -24.5q170 0 301 32.5t235.5 104.5t171 195t94.5 297q18 121 17 204l115 33q2 -111 -19 -237
q-60 -380 -293.5 -555.5t-637.5 -175.5zM1255 736l38 236q-276 -6 -371 -28q-190 -45 -218 -224q-5 -33 -5 -56q0 -91 60 -127.5t185 -36.5q132 0 279 54q26 143 32 182z" />
    <glyph glyph-name="guilsinglleft.case" horiz-adv-x="584" 
d="M265 715l187 -395h-118l-212 395l336 396h119z" />
    <glyph glyph-name="guilsinglright.case" horiz-adv-x="583" 
d="M546 715l-337 -395h-119l313 395l-187 396h118z" />
    <glyph glyph-name="guillemotleft.case" horiz-adv-x="918" 
d="M265 715l187 -395h-118l-212 395l336 396h119zM599 715l188 -395h-119l-212 395l337 396h118z" />
    <glyph glyph-name="guillemotright.case" horiz-adv-x="918" 
d="M546 715l-337 -395h-119l312 395l-186 396h118zM880 715l-337 -395h-118l311 395l-187 396h119z" />
    <glyph glyph-name="hyphen.case" horiz-adv-x="810" 
d="M183 664l17 103h513l-17 -103h-513z" />
    <glyph glyph-name="endash.case" horiz-adv-x="1266" 
d="M183 667l15 97h968l-15 -97h-968z" />
    <glyph glyph-name="emdash.case" horiz-adv-x="2201" 
d="M183 667l15 97h1903l-16 -97h-1902z" />
    <glyph glyph-name="periodcentered.case" horiz-adv-x="425" 
d="M187 672q0 10 4 42q8 54 26 75.5t56 21.5q31 0 43.5 -12.5t12.5 -42.5q0 -18 -3 -42q-8 -53 -25.5 -73.5t-57.5 -20.5q-31 0 -43.5 12t-12.5 40z" />
    </font>
</defs>
</svg>
