<?xml version="1.0" standalone="no"?>
<!DOCTYPE svg PUBLIC "-//W3C//DTD SVG 1.1//EN" "http://www.w3.org/Graphics/SVG/1.1/DTD/svg11.dtd" >
<svg xmlns="http://www.w3.org/2000/svg" xmlns:xlink="http://www.w3.org/1999/xlink" version="1.1">
<metadata>
Created by FontForge 20170731 at Tue Oct 13 00:50:30 2020
 By Aleksey,,,
Copyright (c) 2011-2012 Durotype, www.durotype.com. All rights reserved.
</metadata>
<defs>
<font id="Flexo-HeavyIt" horiz-adv-x="1210" >
  <font-face 
    font-family="Flexo Medium"
    font-weight="800"
    font-style="italic"
    font-stretch="normal"
    units-per-em="2048"
    panose-1="0 0 0 0 0 0 0 0 0 0"
    ascent="1618"
    descent="-430"
    x-height="1094"
    cap-height="1432"
    bbox="-415 -519 2736 1972"
    underline-thickness="102"
    underline-position="-345"
    slope="-9"
    unicode-range="U+0020-FB04"
  />
<missing-glyph horiz-adv-x="1251" 
d="M114 0v1475h1022v-1475h-1022zM564 737l-347 537v-1074zM973 105l-347 538l-348 -538h695zM973 1369h-695l348 -537zM1034 1274l-347 -537l347 -537v1074z" />
    <glyph glyph-name="f_f" unicode="ff" horiz-adv-x="1508" 
d="M166 1094h172l13 86q26 170 131 261t283 91q87 0 187 -14l-59 -220h-87q-67 0 -101.5 -29.5t-45.5 -93.5l-13 -81h410l13 86q27 169 131.5 260.5t282.5 91.5q86 0 186 -14l-58 -220h-87q-67 0 -102 -29.5t-46 -93.5l-13 -81h214l-39 -244h-213l-135 -850h-308l135 850
h-410l-134 -850h-308l134 850h-172z" />
    <glyph glyph-name="fi" unicode="fi" horiz-adv-x="1372" 
d="M1177 0h-311l134 850h-393l-134 -850h-308l134 850h-172l39 244h172l13 86q26 170 131 261t283 91q87 0 187 -14l-59 -220h-86q-67 0 -102 -29.5t-46 -93.5l-13 -81h705zM1210 1196q-84 0 -120 26.5t-36 88.5q0 20 5 53q14 92 59.5 130t144.5 38q84 0 120 -26.5t36 -88.5
q0 -20 -5 -53q-14 -92 -59.5 -130t-144.5 -38z" />
    <glyph glyph-name="fl" unicode="fl" horiz-adv-x="1363" 
d="M338 1094l13 86q26 170 131 261t283 91q318 0 639 -15l-192 -1213q-7 -49 -7 -78q0 -79 40 -155l-296 -131q-62 91 -62 218q0 55 10 115l163 1025h-254q-67 0 -102 -29.5t-46 -93.5l-13 -81h214l-39 -244h-214l-134 -850h-307l134 850h-172l39 244h172z" />
    <glyph glyph-name="f_f_i" unicode="ffi" horiz-adv-x="2091" 
d="M339 1094l12 86q26 169 131 260.5t283 91.5q87 0 187 -14l-58 -220h-87q-67 0 -102 -29.5t-46 -93.5l-13 -81h410l14 86q27 169 131 260.5t282 91.5q89 0 187 -14l-58 -220h-88q-67 0 -101.5 -29.5t-45.5 -93.5l-14 -81h705l-173 -1094h-311l135 850h-394l-135 -850h-307
l135 850h-411l-134 -850h-308l135 850h-173l39 244h173zM1928 1196q-84 0 -119.5 26.5t-35.5 88.5q0 20 5 53q14 92 59.5 130t144.5 38q84 0 120 -26.5t36 -88.5q0 -20 -5 -53q-14 -92 -60 -130t-145 -38z" />
    <glyph glyph-name="f_f_l" unicode="ffl" horiz-adv-x="2081" 
d="M1376 1175l-13 -81h213l-39 -244h-212l-135 -850h-308l135 850h-411l-134 -850h-308l135 850h-172l39 244h171l14 86q27 169 131.5 260.5t282.5 91.5q87 0 187 -14l-59 -220h-87q-67 0 -101.5 -29.5t-45.5 -93.5l-14 -81h411l13 86q27 169 131.5 260.5t282.5 91.5
q318 0 639 -15l-193 -1213q-6 -42 -6 -78q0 -79 40 -155l-296 -131q-62 91 -62 217q0 55 10 116l163 1025h-254q-67 0 -102 -29.5t-46 -93.5z" />
    <glyph glyph-name="f_b" unicode="fb" horiz-adv-x="1974" 
d="M338 1094l13 86q26 170 131 261t283 91q318 0 639 -15l-68 -424q91 16 176 16q214 0 314 -83.5t100 -285.5q0 -90 -17 -193q-26 -162 -71.5 -269.5t-121 -173t-174 -92.5t-238.5 -27q-120 0 -233.5 27t-192.5 81q8 100 26 215l157 990h-254q-67 0 -102 -29.5t-46 -93.5
l-13 -81h213l-39 -244h-213l-134 -850h-308l134 850h-172l39 244h172zM1343 235q42 0 76 10t58 24.5t43.5 40t31 49t21.5 59.5t15 62t12 67q15 98 15 142q0 83 -43 125.5t-155 42.5q-62 0 -120 -16l-69 -438q-14 -88 -17 -147q47 -21 132 -21z" />
    <glyph glyph-name="f_f_b" unicode="ffb" horiz-adv-x="2692" 
d="M1325 850l-135 -850h-307l135 850h-411l-134 -850h-308l135 850h-173l39 244h173l12 86q26 169 131 260.5t283 91.5q87 0 187 -14l-58 -220h-87q-67 0 -102 -29.5t-46 -93.5l-13 -81h410l14 86q27 169 131 260.5t282 91.5q318 0 639 -15l-67 -424q91 16 175 16
q214 0 314.5 -84t100.5 -285q0 -84 -18 -193q-26 -162 -72 -269.5t-121 -173t-173.5 -92.5t-238.5 -27q-121 0 -234 27t-192 81q8 100 26 215l156 990h-254q-67 0 -102 -29.5t-46 -93.5l-13 -81h214l-38 -244h-214zM1929 256q46 -21 133 -21q42 0 76 10t58 24.5t43 40.5
t30.5 48.5t21.5 59.5t15 62.5t12 66.5q15 98 15 143q0 82 -43 124.5t-155 42.5q-62 0 -120 -16l-69 -438q-14 -88 -17 -147z" />
    <glyph glyph-name="f_f_h" unicode="ffh" horiz-adv-x="2710" 
d="M646 1094h410l13 86q27 169 131.5 260.5t282.5 91.5q318 0 639 -15l-70 -436q107 28 215 28q111 0 187.5 -20t117 -59t57 -86.5t16.5 -112.5q0 -57 -14 -148l-108 -683h-310l105 657q7 41 7 77q0 62 -37 89t-132 27q-74 0 -144 -25l-131 -825h-309l206 1298h-254
q-67 0 -102 -29.5t-46 -93.5l-13 -81h214l-39 -244h-213l-135 -850h-308l135 850h-410l-134 -850h-308l134 850h-172l39 244h172l13 86q27 169 131.5 260.5t282.5 91.5q87 0 187 -14l-59 -220h-86q-67 0 -102 -29.5t-46 -93.5z" />
    <glyph glyph-name="f_f_j" unicode="ffj" horiz-adv-x="2120" 
d="M1190 0h-308l135 850h-410l-134 -850h-308l134 850h-172l39 244h172l13 86q27 169 131.5 260.5t282.5 91.5q87 0 187 -14l-59 -220h-86q-67 0 -102 -29.5t-46 -93.5l-13 -81h410l13 86q27 169 131.5 260.5t282.5 91.5q88 0 186 -14l-58 -220h-87q-67 0 -102 -29.5
t-46 -93.5l-13 -81h749l-168 -1063q-39 -244 -162 -346.5t-367 -102.5q-51 0 -91 4l62 234q45 5 70.5 9.5t59 16.5t52.5 29t35 47.5t23 73.5l135 854h-436zM1972 1196q-84 0 -120 26.5t-36 87.5q0 21 5 54q14 92 59.5 130t144.5 38q84 0 120 -26.5t36 -88.5q0 -20 -5 -53
q-15 -92 -60 -130t-144 -38z" />
    <glyph glyph-name="f_f_k" unicode="ffk" horiz-adv-x="2662" 
d="M1980 622l400 472h356l-441 -497l285 -597h-372l-239 551l-88 -551h-307l205 1298h-255q-67 0 -102 -29.5t-46 -93.5l-13 -81h214l-39 -244h-213l-135 -850h-308l135 850h-411l-134 -850h-307l134 850h-172l39 244h172l13 86q26 170 131 261t283 91q88 0 186 -14
l-58 -220h-87q-67 0 -101.5 -29.5t-45.5 -93.5l-14 -81h411l13 86q27 169 131.5 260.5t282.5 91.5q318 0 639 -15z" />
    <glyph glyph-name="f_h" unicode="fh" horiz-adv-x="1992" 
d="M127 850l39 244h172l13 86q27 169 131.5 260.5t282.5 91.5q318 0 639 -15l-69 -436q107 28 214 28q111 0 187 -20t117 -59t57.5 -86.5t16.5 -112.5q0 -57 -14 -148l-108 -683h-309l104 657q7 41 7 78q0 62 -36.5 88.5t-132.5 26.5q-73 0 -143 -25l-131 -825h-309
l205 1298h-253q-67 0 -102 -29.5t-46 -93.5l-13 -81h213l-39 -244h-213l-134 -850h-308l134 850h-172z" />
    <glyph glyph-name="f_j" unicode="fj" horiz-adv-x="1402" 
d="M646 1094h748l-169 -1063q-39 -244 -161 -346.5t-367 -102.5q-52 0 -91 4l63 234q45 5 70.5 9.5t58.5 16.5t52 29t35 47.5t23 73.5l136 854h-437l-134 -850h-308l134 850h-172l39 244h172l13 86q27 169 131.5 260.5t282.5 91.5q89 0 187 -14l-58 -220h-87
q-67 0 -102 -29.5t-46 -93.5zM1098 1310q0 21 5 54q14 92 60 130t145 38q83 0 119 -26.5t36 -87.5q0 -21 -5 -54q-14 -92 -59.5 -130t-144.5 -38q-84 0 -120 26.5t-36 87.5z" />
    <glyph glyph-name="f_k" unicode="fk" horiz-adv-x="1944" 
d="M166 1094h173l12 86q26 170 131 261t283 91q318 0 639 -15l-142 -895l400 472h357l-441 -497l285 -597h-373l-239 551l-87 -551h-308l206 1298h-255q-67 0 -102 -29.5t-46 -93.5l-13 -81h213l-39 -244h-213l-134 -850h-308l135 850h-173z" />
    <glyph glyph-name=".notdef" horiz-adv-x="1251" 
d="M114 0v1475h1022v-1475h-1022zM564 737l-347 537v-1074zM973 105l-347 538l-348 -538h695zM973 1369h-695l348 -537zM1034 1274l-347 -537l347 -537v1074z" />
    <glyph glyph-name=".null" horiz-adv-x="0" 
 />
    <glyph glyph-name="nonmarkingreturn" horiz-adv-x="682" 
 />
    <glyph glyph-name="space" unicode=" " horiz-adv-x="506" 
 />
    <glyph glyph-name="exclam" unicode="!" horiz-adv-x="624" 
d="M253 -15q-84 0 -120 26.5t-36 88.5q0 20 5 53q15 92 60 130t144 38q84 0 120 -26.5t36 -88.5q0 -20 -5 -53q-15 -92 -60 -130t-144 -38zM187 421l115 1011h359l-204 -1011h-270z" />
    <glyph glyph-name="quotedbl" unicode="&#x22;" horiz-adv-x="870" 
d="M170 904l77 613h265l-117 -613h-225zM571 904l76 613h266l-117 -613h-225z" />
    <glyph glyph-name="numbersign" unicode="#" horiz-adv-x="1201" 
d="M462 1034l122 398h209l-121 -398h180l123 398h208l-121 -398h173l-33 -211h-204l-64 -213h178l-34 -210h-209l-122 -400h-210l122 400h-181l-122 -400h-209l123 400h-191l33 210h222l65 213h-201l34 211h230zM544 610h180l65 213h-181z" />
    <glyph glyph-name="dollar" unicode="$" horiz-adv-x="1064" 
d="M671 398q2 10 2 28q0 56 -40.5 84t-134.5 60q-84 28 -138.5 54.5t-101 65t-68.5 92t-22 124.5q0 44 7 90q30 190 133.5 283.5t285.5 115.5l30 193h217l-30 -187q158 -8 320 -45l-69 -249q-191 33 -304 33q-40 0 -66.5 -1.5t-64.5 -8t-62.5 -19t-44.5 -36t-25 -57.5
q-2 -11 -2 -31q0 -40 27 -66.5t55 -37t108 -33.5q2 -1 3.5 -1.5t4 -1t4.5 -1.5q168 -49 241 -123.5t73 -204.5q0 -48 -9 -106q-30 -189 -135.5 -289.5t-285.5 -126.5l-31 -195h-217l29 185q-172 5 -341 46l71 255q207 -33 357 -33q103 0 157 32t67 112z" />
    <glyph glyph-name="percent" unicode="%" horiz-adv-x="1751" 
d="M415 585q-147 0 -207.5 59.5t-60.5 188.5q0 57 18 179q18 114 42.5 188.5t67.5 131t110 82t165 25.5q147 0 207 -59.5t60 -188.5q0 -74 -17 -179q-18 -114 -42.5 -188.5t-68 -131t-110 -82t-164.5 -25.5zM361 854q0 -50 18 -74.5t62 -24.5q25 0 44.5 7.5t34 26t24 36
t18 53t13 61t12.5 73.5q18 110 18 156q0 50 -18.5 75.5t-62.5 25.5q-25 0 -44 -7.5t-33.5 -26t-24 -36t-18 -53t-13 -61t-12.5 -73.5q-18 -112 -18 -158zM1300 -7q-146 0 -206 59.5t-60 187.5q0 75 17 180q18 115 42 189t67.5 130.5t110 82t164.5 25.5q147 0 207.5 -60
t60.5 -189q0 -56 -18 -178q-18 -114 -42.5 -188.5t-67.5 -131t-110 -82t-165 -25.5zM1246 263q0 -50 18 -75t62 -25q25 0 44.5 7.5t34 26t24 36t18 53t13 61t12.5 73.5q18 112 18 157q0 50 -18 75t-62 25q-30 0 -52 -13t-36 -31.5t-25.5 -56.5t-17.5 -68.5t-15 -87.5
q-18 -112 -18 -157zM292 -29l1060 1490h206l-1059 -1490h-207z" />
    <glyph glyph-name="ampersand" unicode="&#x26;" horiz-adv-x="1395" 
d="M792 723l143 -190q31 60 50 148l272 -12q-54 -221 -162 -370l217 -299h-379l-59 87q-75 -54 -165.5 -78t-219.5 -24q-421 0 -421 328q0 54 8 102q22 138 100.5 226.5t210.5 145.5q-27 48 -37.5 68t-23.5 64.5t-13 90.5q0 27 7 76q15 97 57 168t104 112t136 60.5t162 19.5
q71 0 130.5 -15t107 -46.5t74.5 -85t27 -125.5q0 -38 -5 -69q-41 -258 -321 -382zM660 909q147 70 163 175q3 19 3 34q0 86 -92 86q-49 0 -83.5 -30t-44.5 -93q-3 -18 -3 -33q0 -66 57 -139zM734 291l-216 302q-64 -40 -96 -83t-42 -108q-3 -15 -3 -29q0 -68 50.5 -105.5
t125.5 -37.5q103 0 181 61z" />
    <glyph glyph-name="quotesingle" unicode="'" horiz-adv-x="470" 
d="M170 904l76 613h266l-117 -613h-225z" />
    <glyph glyph-name="parenleft" unicode="(" horiz-adv-x="679" 
d="M545 -201l-203 -152q-233 217 -233 626q0 135 26 297q22 139 57.5 260.5t93 244t146 229.5t203.5 189l155 -150q-253 -213 -343 -773q-30 -186 -30 -329q0 -304 128 -442z" />
    <glyph glyph-name="parenright" unicode=")" horiz-adv-x="678" 
d="M224 1343l203 150q234 -217 234 -625q0 -136 -26 -298q-101 -637 -500 -923l-154 152q252 203 342 771q27 169 27 315q0 313 -126 458z" />
    <glyph glyph-name="asterisk" unicode="*" horiz-adv-x="905" 
d="M911 990h-230l83 -204l-175 -91l-81 198q-85 -114 -145 -197l-147 92l147 202h-228l30 185h227l-83 203l177 93l81 -201q49 67 145 201l147 -93l-149 -203h231z" />
    <glyph glyph-name="plus" unicode="+" horiz-adv-x="1149" 
d="M515 730l60 380h254l-60 -380h371l-40 -255h-372l-60 -382h-254l60 382h-370l40 255h371z" />
    <glyph glyph-name="comma" unicode="," horiz-adv-x="586" 
d="M1 -264l221 581h335l-311 -581h-245z" />
    <glyph glyph-name="hyphen" unicode="-" horiz-adv-x="785" 
d="M146 423l39 243h539l-38 -243h-540z" />
    <glyph glyph-name="period" unicode="." horiz-adv-x="555" 
d="M262 -15q-86 0 -121 25t-35 88q0 33 5 62q16 99 60 136t146 37q86 0 121.5 -25t35.5 -87q0 -27 -6 -61q-16 -100 -59.5 -137.5t-146.5 -37.5z" />
    <glyph glyph-name="slash" unicode="/" horiz-adv-x="922" 
d="M-35 -165l829 1647h258l-830 -1647h-257z" />
    <glyph glyph-name="zero" unicode="0" horiz-adv-x="1247" 
d="M566 -15q-160 0 -256 46t-136 133.5t-40 228.5q0 116 29 301q24 151 53.5 257.5t77 196.5t113.5 143.5t161 82.5t223 29q237 0 334.5 -97.5t97.5 -308.5q0 -118 -29 -303q-24 -151 -53.5 -257.5t-77 -196.5t-113.5 -143.5t-161 -82.5t-223 -29zM453 429q0 -89 34.5 -134
t118.5 -45q32 0 58.5 7t47.5 17.5t39.5 31.5t31.5 40.5t25 52.5t20.5 60t17 71t14.5 77.5t14 86.5q30 182 30 265q0 91 -34 135.5t-119 44.5q-36 0 -65 -7.5t-52 -25t-40.5 -36.5t-32.5 -53.5t-25 -63t-20 -77.5t-16 -85t-16 -97q-31 -190 -31 -265z" />
    <glyph glyph-name="one" unicode="1" horiz-adv-x="799" 
d="M281 0l168 1064q-117 -29 -294 -46l28 261q216 33 389 110h246l-220 -1389h-317z" />
    <glyph glyph-name="two" unicode="2" horiz-adv-x="1155" 
d="M251 1353q252 50 469 50q100 0 175.5 -13.5t138 -45t95.5 -90t33 -141.5q0 -28 -7 -77q-30 -193 -146.5 -318t-334.5 -206q-89 -33 -140 -67.5t-74.5 -70.5t-40.5 -93h616l-44 -281h-977q96 288 143 388q74 157 183 245q87 68 226 125q130 53 188.5 100.5t70.5 123.5
q3 21 3 37q0 66 -59.5 88.5t-217.5 22.5q-128 0 -310 -31z" />
    <glyph glyph-name="three" unicode="3" horiz-adv-x="1131" 
d="M1129 1032q-16 -99 -73 -177t-155 -124q84 -36 122.5 -89t38.5 -133q0 -33 -6 -72q-16 -103 -52.5 -180.5t-88.5 -129t-124.5 -83.5t-155 -45.5t-185.5 -13.5q-80 0 -163.5 8.5t-131.5 17t-134 25.5l75 256q239 -32 346 -32q139 0 202 33.5t79 132.5q4 28 4 40
q0 99 -108 113q-123 16 -283 16h-21l38 240q145 3 311 28q60 9 93 43.5t44 98.5q2 10 2 29q0 32 -13.5 52.5t-40.5 30.5t-57 13.5t-75 3.5q-130 0 -380 -33l6 252q250 50 437 50q79 0 141 -6.5t123 -26t101.5 -51t65.5 -84t25 -123.5q0 -29 -7 -80z" />
    <glyph glyph-name="four" unicode="4" horiz-adv-x="1214" 
d="M619 0l48 303h-417q-95 0 -136.5 32.5t-41.5 92.5q0 12 4 40q5 29 12.5 51t39.5 71t88 110l519 565q76 83 130.5 110.5t124.5 27.5q61 0 97.5 -36t36.5 -105q0 -20 -3 -44l-104 -659h160l-40 -256h-161l-48 -303h-309zM775 979l-371 -420h304z" />
    <glyph glyph-name="five" unicode="5" horiz-adv-x="1152" 
d="M513 891q52 2 77 2q91 0 159 -7.5t133 -28.5t106.5 -57t66.5 -96t25 -142q0 -55 -10 -115q-38 -242 -186.5 -352t-408.5 -110q-229 0 -442 52l75 256q215 -33 346 -33q149 0 208 39.5t80 169.5q3 18 3 32q0 42 -20 69.5t-60.5 41t-87 18.5t-113.5 5q-164 0 -305 -8
l173 762h856l-43 -279h-582z" />
    <glyph glyph-name="six" unicode="6" horiz-adv-x="1217" 
d="M1201 1400l-15 -251q-26 -1 -82 -1h-56q-60 0 -100 -1t-96.5 -6.5t-94.5 -15.5t-81.5 -29t-71.5 -46t-50.5 -67.5t-31.5 -92.5q108 13 198 13q86 0 152 -9t122.5 -31.5t93 -59t57 -93.5t20.5 -133q0 -59 -10 -123q-18 -111 -56.5 -193.5t-91 -134.5t-126 -84t-153 -44.5
t-180.5 -12.5q-121 0 -205.5 25.5t-133.5 76t-70.5 119t-21.5 161.5q0 87 19 203q26 165 57 282.5t79.5 214.5t111 158t154 102.5t207 58.5t271.5 17q58 0 185 -3zM436 419q0 -79 33.5 -123.5t115.5 -44.5q127 0 180.5 44.5t72.5 162.5q5 33 5 54q0 81 -49 111.5t-147 30.5
q-92 0 -181 -14q-5 -22 -19 -104q-11 -64 -11 -117z" />
    <glyph glyph-name="seven" unicode="7" horiz-adv-x="1064" 
d="M1137 1144l-684 -1144h-357l708 1107h-626l44 282h794q80 0 121 -32t41 -89q0 -4 -0.5 -8.5t-1.5 -10t-1 -8.5q-8 -47 -38 -97z" />
    <glyph glyph-name="eight" unicode="8" horiz-adv-x="1212" 
d="M551 -15q-108 0 -189.5 16t-144.5 52t-96 99t-33 152q0 38 8 91q18 116 80 186.5t180 137.5q-70 43 -107.5 101t-37.5 147q0 30 7 79q57 357 557 357q449 0 449 -289q0 -32 -6 -68q-19 -120 -70 -190t-171 -132q79 -52 120 -112.5t41 -148.5q0 -31 -6 -67
q-15 -99 -54 -172.5t-91 -118.5t-124.5 -72.5t-146.5 -37.5t-165 -10zM821 401q5 33 5 54q0 65 -50.5 95.5t-188.5 46.5q-152 -36 -178 -196q-3 -20 -3 -37q0 -68 47.5 -94t137.5 -26q96 0 156 35t74 122zM511 971q0 -58 50.5 -90t183.5 -39q78 22 117.5 58t51.5 110
q3 16 3 32q0 62 -46 85.5t-135 23.5q-97 0 -152.5 -29.5t-68.5 -111.5q-4 -28 -4 -39z" />
    <glyph glyph-name="nine" unicode="9" horiz-adv-x="1219" 
d="M171 935q22 138 74 231.5t134 144.5t177 71.5t222 20.5q121 0 205 -25.5t133.5 -76t71 -119t21.5 -161.5q0 -86 -19 -202q-26 -165 -57 -282.5t-79.5 -215t-111 -158t-154 -102.5t-207 -59t-271.5 -17q-16 0 -185 4l15 251q26 1 82 1q9 0 27.5 -0.5t28.5 -0.5
q52 0 87.5 1t85 4.5t84.5 11t75.5 19.5t69.5 31.5t55.5 45.5t43.5 63t25 83q-116 -14 -198 -14q-109 0 -187 15t-138.5 51t-90.5 101t-30 160q0 52 11 123zM741 1138q-127 0 -180.5 -45t-72.5 -163q-5 -33 -5 -53q0 -81 49 -112t147 -31q90 0 181 14q5 22 19 104
q11 64 11 118q0 79 -33.5 123.5t-115.5 44.5z" />
    <glyph glyph-name="colon" unicode=":" horiz-adv-x="621" 
d="M268 -15q-86 0 -121 25t-35 87q0 33 5 63q15 99 59.5 136t146.5 37q86 0 121 -25t35 -87q0 -32 -5 -61q-16 -100 -59.5 -137.5t-146.5 -37.5zM377 678q-86 0 -121 24.5t-35 87.5q0 26 6 62q16 99 59.5 136.5t145.5 37.5q85 0 121 -25.5t36 -87.5q0 -27 -6 -61
q-16 -100 -59.5 -137t-146.5 -37z" />
    <glyph glyph-name="semicolon" unicode=";" horiz-adv-x="627" 
d="M442 678q-86 0 -121 24.5t-35 87.5q0 26 6 62q16 99 59.5 136.5t145.5 37.5q85 0 121 -25.5t36 -87.5q0 -27 -6 -61q-16 -100 -59.5 -137t-146.5 -37zM-10 -264l221 581h336l-312 -581h-245z" />
    <glyph glyph-name="less" unicode="&#x3c;" horiz-adv-x="1243" 
d="M103 491l35 221l1100 427l-42 -266l-711 -271l625 -272l-42 -266z" />
    <glyph glyph-name="equal" unicode="=" horiz-adv-x="1253" 
d="M121 253l41 255h996l-41 -255h-996zM191 695l41 255h996l-41 -255h-996z" />
    <glyph glyph-name="greater" unicode="&#x3e;" horiz-adv-x="1243" 
d="M143 330l710 272l-624 271l42 266l965 -427l-35 -221l-1100 -427z" />
    <glyph glyph-name="question" unicode="?" horiz-adv-x="1086" 
d="M600 421h-273l16 137q2 24 7 49q10 65 33 109.5t52 65t64.5 33.5t70.5 16.5t69.5 13.5t63 24t49.5 49t30 88q4 32 4 44q0 63 -46 89.5t-159 26.5q-190 0 -351 -34l-12 262q217 52 439 52q92 0 157.5 -6.5t128.5 -26.5t101.5 -54.5t61.5 -92t23 -138.5q0 -60 -10 -124
q-16 -100 -50.5 -172t-77 -109.5t-90.5 -61.5t-95 -35t-86 -21.5t-66 -30.5t-34 -54zM238 99q0 21 5 54q15 92 60 130t145 38q83 0 119 -26.5t36 -88.5q0 -20 -5 -53q-14 -92 -59.5 -130t-144.5 -38q-84 0 -120 26.5t-36 87.5z" />
    <glyph glyph-name="at" unicode="@" horiz-adv-x="1772" 
d="M388 547q-13 -84 -13 -142q0 -204 119 -290t355 -86q135 0 236.5 25.5t183 84t133.5 160t75 248.5q13 77 13 145q0 36 -5 74l255 72q8 -56 8 -111q0 -83 -15 -180q-60 -380 -290 -555t-627 -175q-348 0 -525 132.5t-177 417.5q0 83 15 180q31 197 107 338.5t197 227.5
t276.5 125.5t356.5 39.5q77 0 138 -14t110 -45t76 -85t27 -129q0 -30 -7 -79l-67 -421q-18 -110 -43 -206q-72 -45 -191 -72.5t-250 -27.5q-190 0 -276.5 65t-86.5 197q0 43 7 86q24 151 107 236.5t245 114.5q67 13 303 27q4 24 4 47q0 53 -31.5 74t-107.5 21
q-136 0 -238 -25t-185 -83.5t-135.5 -161t-76.5 -250.5zM1100 566l30 184q-145 -5 -210 -23q-81 -22 -114.5 -55.5t-46.5 -116.5q-3 -24 -3 -44q0 -64 41.5 -88.5t130.5 -24.5q28 0 74 10t71 23q17 68 27 135z" />
    <glyph glyph-name="A" unicode="A" horiz-adv-x="1356" 
d="M303 0h-338l601 1216q60 122 129 176t159 54q173 0 213 -230l209 -1216h-348l-43 327h-438zM562 586h289l-66 505z" />
    <glyph glyph-name="B" unicode="B" horiz-adv-x="1286" 
d="M1289 1046q-17 -102 -84.5 -189t-172.5 -125q180 -66 180 -261q0 -29 -7 -78q-16 -100 -59 -174t-100 -118.5t-137.5 -71t-158.5 -35.5t-175 -9q-268 0 -482 40l218 1378q211 43 473 43q82 0 148 -6.5t136.5 -27t118 -54t78.5 -93t31 -139.5q0 -31 -7 -80zM969 1060
q0 32 -11 54t-29 35t-49 20t-61.5 9t-76.5 2q-76 0 -142 -9l-50 -316h150q45 0 79 3.5t67.5 14t56 28.5t39.5 48t24 72q3 21 3 39zM661 608h-151l-55 -344q64 -10 156 -10q47 0 82 3.5t69.5 14.5t58 29.5t40.5 50t24 74.5q4 30 4 43q0 43 -16.5 71.5t-49.5 43t-70.5 19.5
t-91.5 5z" />
    <glyph glyph-name="C" unicode="C" horiz-adv-x="1135" 
d="M1022 32q-161 -47 -390 -47q-272 0 -385 104t-113 337q0 117 27 290q21 132 47.5 231.5t66 183.5t92 141t124.5 97t164 58.5t209 18.5q223 0 374 -47l-71 -262q-160 27 -298 27q-49 0 -89.5 -7.5t-72 -19t-58 -33t-45 -41.5t-34.5 -54t-26 -61.5t-20 -71t-16 -76
t-14 -84.5q-24 -151 -24 -220q0 -113 56.5 -170.5t200.5 -57.5q155 0 307 27z" />
    <glyph glyph-name="D" unicode="D" horiz-adv-x="1341" 
d="M311 1403q218 43 474 43q152 0 256 -27t165.5 -83.5t87.5 -136t26 -192.5q0 -111 -28 -291q-20 -129 -45 -224t-63.5 -181.5t-92 -143.5t-129 -100t-177 -62.5t-232.5 -19.5q-255 0 -460 42zM602 1162l-142 -893q46 -7 99 -7q54 0 99 8t79.5 19t63.5 34t48.5 43t36.5 56
t27 61.5t20.5 72.5t15.5 76t14 84q24 158 24 217q0 57 -13 98t-43.5 73.5t-87.5 49t-140 16.5q-47 0 -101 -8z" />
    <glyph glyph-name="E" unicode="E" horiz-adv-x="1166" 
d="M1196 1424l-41 -263h-400q-71 0 -106.5 -14t-52.5 -47t-29 -103l-21 -135h536l-42 -269h-537l-24 -156q-8 -46 -8 -74q0 -53 30.5 -72t112.5 -19h399l-41 -263q-247 -13 -396 -13q-52 0 -87 1t-80.5 4.5t-76.5 11.5t-66 21t-57 33t-41.5 47t-28.5 65t-9 85q0 50 8 95
l114 716q9 57 25.5 104t36 81.5t49 62t56.5 45.5t66.5 31t72 20t79.5 10.5t81.5 4.5t85.5 1q194 0 392 -11z" />
    <glyph glyph-name="F" unicode="F" horiz-adv-x="1104" 
d="M415 0h-328l170 1075q9 57 25.5 104t36.5 81.5t49 62t56.5 45.5t67 31t72 20t79.5 10.5t81.5 4.5t85.5 1q144 0 392 -11l-42 -263h-399q-71 0 -106.5 -14t-52.5 -47t-29 -103l-21 -135h536l-43 -269h-536z" />
    <glyph glyph-name="G" unicode="G" horiz-adv-x="1296" 
d="M697 560l42 260h515l-85 -537q-8 -52 -23.5 -94t-40 -72t-51 -52.5t-65.5 -36.5t-74 -23t-86.5 -13t-93 -5.5t-102.5 -1.5q-271 0 -384.5 104.5t-113.5 337.5q0 116 27 289q25 160 59.5 274t88 204.5t129.5 143.5t180.5 80.5t245.5 27.5q253 0 454 -46l-70 -259
q-167 26 -379 26q-49 0 -89.5 -7.5t-72 -19t-58 -33t-45 -42t-34.5 -54.5t-26 -61.5t-20 -72t-16 -77t-14 -84.5q-24 -153 -24 -223q0 -114 55.5 -171.5t198.5 -57.5q89 0 120 26.5t42 95.5l27 174h-217z" />
    <glyph glyph-name="H" unicode="H" horiz-adv-x="1384" 
d="M989 869l88 563h331l-227 -1432h-331l94 592h-432l-94 -592h-328l227 1432h328l-88 -563h432z" />
    <glyph glyph-name="I" unicode="I" horiz-adv-x="617" 
d="M87 0l227 1432h329l-227 -1432h-329z" />
    <glyph glyph-name="J" unicode="J" horiz-adv-x="877" 
d="M423 447l156 985h330l-150 -945q-22 -139 -57.5 -231t-96.5 -154.5t-150 -89.5t-218 -27q-67 0 -139.5 13.5t-117.5 38.5l67 251q101 -39 193 -39q151 0 183 198z" />
    <glyph glyph-name="K" unicode="K" horiz-adv-x="1291" 
d="M644 1432l-105 -664l520 664h383l-560 -684l338 -748h-397l-295 703l-111 -703h-328l227 1432h328z" />
    <glyph glyph-name="L" unicode="L" horiz-adv-x="1043" 
d="M144 359l171 1073h328l-158 -995q-8 -46 -8 -74q0 -54 30.5 -72.5t113.5 -18.5h376l-42 -265q-261 -11 -372 -11q-59 0 -99 1.5t-91 7t-84.5 16.5t-69 31t-56 48t-34 69.5t-13.5 95.5q0 49 8 94z" />
    <glyph glyph-name="M" unicode="M" horiz-adv-x="1673" 
d="M734 1235l139 -622l338 618q57 105 125.5 160t138.5 55q91 0 129 -37t38 -128q0 -39 -6 -85l-136 -1196h-317l128 951h-1l-299 -600q-83 -164 -204 -164q-63 0 -98.5 40t-52.5 124l-121 598h-1l-171 -949h-305l244 1198q27 131 82 189.5t157 58.5q146 0 193 -211z" />
    <glyph glyph-name="N" unicode="N" horiz-adv-x="1435" 
d="M749 1229l258 -772l154 975h297l-189 -1190q-40 -257 -237 -257q-89 0 -140 47t-93 172l-258 774l-155 -978h-296l189 1191q40 255 237 255q84 0 138.5 -49.5t94.5 -167.5z" />
    <glyph glyph-name="O" unicode="O" horiz-adv-x="1345" 
d="M613 -15q-258 0 -368 103.5t-110 337.5q0 124 27 290q32 201 79.5 334t127.5 224.5t195 131.5t281 40q258 0 368 -103t110 -337q0 -115 -27 -290q-32 -201 -79.5 -334t-127.5 -225t-195 -132t-281 -40zM466 463q0 -99 42 -149t147 -50q38 0 70 7t57 18t46 32.5t36 41.5
t29 54t22.5 61t18 72.5t15 78t14.5 87.5q29 188 29 254q0 99 -42 149t-147 50q-43 0 -78 -7.5t-62 -26t-47.5 -38t-37.5 -55t-28 -64.5t-22 -78.5t-17 -86t-16 -97.5q-29 -188 -29 -253z" />
    <glyph glyph-name="P" unicode="P" horiz-adv-x="1247" 
d="M498 517l-82 -517h-328l223 1405q216 41 473 41q92 0 161.5 -7.5t137.5 -29.5t111 -59.5t69.5 -100.5t26.5 -149q0 -56 -10 -117q-18 -113 -58.5 -197t-95 -136t-132 -83.5t-159.5 -43t-186 -11.5q-43 0 -151 5zM541 785q45 -6 140 -6q124 0 189.5 44t84.5 160q5 37 5 57
q0 76 -48 108.5t-163 32.5q-77 0 -147 -10z" />
    <glyph glyph-name="Q" unicode="Q" horiz-adv-x="1345" 
d="M1157 -143l-241 -157q-6 3 -35.5 18.5t-39.5 21.5t-37 21.5t-39 26t-34.5 28.5t-35 34t-27.5 37.5t-25.5 46t-17.5 51.5q-258 0 -368.5 103.5t-110.5 337.5q0 115 27 290q32 201 79.5 334t127.5 224.5t195.5 131.5t281.5 40q258 0 367.5 -103.5t109.5 -336.5
q0 -123 -27 -290q-45 -284 -127 -444t-232 -228q33 -61 77.5 -98t131.5 -89zM814 1169q-38 0 -70 -7t-57 -18.5t-46 -33t-36 -41.5t-29 -54t-22.5 -61.5t-18 -72.5t-15.5 -78t-14 -87q-29 -188 -29 -253q0 -100 42.5 -149.5t147.5 -49.5q38 0 70 7t56.5 18t46 32.5
t36.5 41.5t28.5 54t22.5 61t18.5 72.5t15 78.5l14.5 87q28 181 28 254q0 99 -42 149t-147 50z" />
    <glyph glyph-name="R" unicode="R" horiz-adv-x="1305" 
d="M499 528l-84 -528h-327l223 1405q215 41 472 41q92 0 161.5 -7.5t137.5 -29.5t111.5 -59t70 -99.5t26.5 -147.5q0 -61 -9 -115q-28 -176 -107 -277t-207 -146l224 -565h-374l-193 522q-30 1 -125 6zM542 797q46 -6 140 -6q123 0 189.5 43t84.5 155q5 33 5 54
q0 74 -49 106.5t-164 32.5q-65 0 -147 -10z" />
    <glyph glyph-name="S" unicode="S" horiz-adv-x="1121" 
d="M710 440q0 57 -41.5 86t-139.5 62q-86 29 -143 56t-104.5 67t-70 94.5t-22.5 128.5q0 47 8 92q36 230 177 325t399 95q204 0 409 -49l-70 -256q-191 34 -315 34q-41 0 -68 -1t-66 -8t-63.5 -19.5t-45.5 -37t-26 -59.5q-3 -18 -3 -32q0 -22 5 -38.5t21 -30.5t26.5 -22
t43.5 -19.5t48.5 -16t62.5 -18.5q173 -49 249 -127t76 -212q0 -42 -10 -109q-37 -234 -186.5 -337t-411.5 -103q-206 0 -413 48l73 263q222 -34 369 -34q106 0 161.5 33t68.5 116q2 10 2 29z" />
    <glyph glyph-name="T" unicode="T" horiz-adv-x="1058" 
d="M1195 1432l-43 -274h-333l-183 -1158h-330l184 1158h-330l44 274h991z" />
    <glyph glyph-name="U" unicode="U" horiz-adv-x="1345" 
d="M1375 1432l-149 -942q-23 -147 -76 -247.5t-135 -156t-178.5 -78.5t-224.5 -23q-111 0 -192.5 17.5t-145 58t-95.5 113t-32 177.5q0 63 12 139l149 942h323l-151 -958q-6 -37 -6 -67q0 -75 42 -106.5t141 -31.5q116 0 170.5 46t72.5 159l151 958h324z" />
    <glyph glyph-name="V" unicode="V" horiz-adv-x="1306" 
d="M1456 1432l-587 -1230q-55 -114 -121 -165.5t-152 -51.5q-89 0 -136 48.5t-67 168.5l-201 1230h349l123 -1038l454 1038h338z" />
    <glyph glyph-name="W" unicode="W" horiz-adv-x="1767" 
d="M213 1432h330l1 -1022l1 -1l230 617q50 134 113.5 191.5t143.5 57.5t125 -58.5t52 -192.5l34 -613h1l328 1021h323l-448 -1214q-45 -124 -106.5 -178.5t-148.5 -54.5q-92 0 -140 53.5t-55 177.5l-39 631h-1l-233 -631q-86 -231 -267 -231q-87 0 -131 54t-51 177z" />
    <glyph glyph-name="X" unicode="X" horiz-adv-x="1330" 
d="M771 1007l325 425h355l-547 -696l347 -736h-378l-204 452l-338 -452h-365l573 728l-330 704h375z" />
    <glyph glyph-name="Y" unicode="Y" horiz-adv-x="1247" 
d="M818 551l-87 -551h-329l88 551l-314 881h355l177 -547l360 547h342z" />
    <glyph glyph-name="Z" unicode="Z" horiz-adv-x="1142" 
d="M1151 1185l-669 -905h558l-45 -280h-800q-166 0 -166 106q0 7 2 23q10 55 56 117l672 907h-527l45 279h767q165 0 165 -105q0 -8 -2 -24q-9 -55 -56 -118z" />
    <glyph glyph-name="bracketleft" unicode="[" horiz-adv-x="685" 
d="M585 1234l-208 -1320h189l-39 -248h-480l287 1814h481l-40 -246h-190z" />
    <glyph glyph-name="backslash" unicode="\" horiz-adv-x="923" 
d="M544 -165l-308 1647h258l308 -1647h-258z" />
    <glyph glyph-name="bracketright" unicode="]" horiz-adv-x="684" 
d="M208 1234l40 246h480l-287 -1814h-478l38 248h189l209 1320h-191z" />
    <glyph glyph-name="asciicircum" unicode="^" horiz-adv-x="1047" 
d="M561 1432h218l218 -832h-264l-120 471l-271 -471h-263z" />
    <glyph glyph-name="underscore" unicode="_" horiz-adv-x="1024" 
d="M-6 -289l5 103h1031l-6 -103h-1030z" />
    <glyph glyph-name="grave" unicode="`" horiz-adv-x="552" 
d="M345 1150l-204 334h305l132 -334h-233z" />
    <glyph glyph-name="a" unicode="a" horiz-adv-x="1109" 
d="M1064 749l-70 -441q-17 -106 -43 -215q-194 -108 -497 -108q-194 0 -284 66t-90 203q0 38 8 88q24 152 109.5 239.5t251.5 114.5q111 18 310 26q3 20 3 35q0 54 -35 77.5t-111 23.5q-155 0 -389 -30l12 237q249 44 436 44q87 0 154.5 -13t124 -43t86.5 -86.5t30 -136.5
q0 -38 -6 -81zM522 493q-63 -15 -91.5 -44.5t-39.5 -102.5q-2 -10 -2 -30q0 -49 33 -69t99 -20q94 0 156 22q15 55 30 147l19 120q-144 -9 -204 -23z" />
    <glyph glyph-name="b" unicode="b" horiz-adv-x="1185" 
d="M724 1109q214 0 313.5 -84t99.5 -285q0 -90 -17 -193q-26 -162 -71.5 -269.5t-121 -173t-174 -92.5t-238.5 -27q-121 0 -234 27t-191 81q7 108 24 215l192 1209h309l-68 -424q91 16 177 16zM508 841l-69 -438q-14 -88 -17 -147q46 -21 133 -21q42 0 76 10t57.5 24
t43 40.5t30.5 49t21.5 59.5t15 62t11.5 67q16 104 16 143q0 82 -43 124.5t-155 42.5q-62 0 -120 -16z" />
    <glyph glyph-name="c" unicode="c" horiz-adv-x="956" 
d="M840 31q-177 -46 -377 -46q-99 0 -168 27.5t-106.5 78.5t-53.5 113t-16 143q0 96 19 210q18 114 43 196t67.5 152.5t103 113t149 66.5t206.5 24q166 0 295 -46l-61 -230q-133 29 -199 29t-111 -10t-75.5 -29.5t-50.5 -58.5t-32 -85t-24 -122q-18 -113 -18 -161
q0 -84 46.5 -120t168.5 -36q68 0 206 28z" />
    <glyph glyph-name="d" unicode="d" horiz-adv-x="1187" 
d="M864 1093l68 424h309l-192 -1209q-17 -106 -43 -215q-95 -54 -217 -81t-243 -27q-233 0 -338.5 83t-105.5 286q0 90 17 193q25 159 70.5 267.5t117.5 173.5t165 93t222 28q87 0 170 -16zM710 857q-47 0 -84.5 -8.5t-64 -21.5t-47.5 -37.5t-33.5 -46t-23 -58.5t-16 -65
t-12.5 -73q-15 -105 -15 -140q0 -81 38 -126.5t134 -45.5q86 0 140 21q14 58 29 147l69 438q-53 16 -114 16z" />
    <glyph glyph-name="e" unicode="e" horiz-adv-x="1139" 
d="M131 547q48 302 178 432t398 130q115 0 194.5 -23.5t125 -70t65.5 -109t20 -148.5q0 -80 -18 -198q-9 -54 -19 -94q-217 -40 -495 -55l-165 -9q-2 -22 -2 -30q0 -75 46.5 -103.5t148.5 -28.5q161 0 393 29l-12 -240q-262 -44 -483 -44q-108 0 -184.5 27t-121 79
t-64.5 119.5t-20 156.5q0 84 15 180zM441 618l151 8q111 5 206 18q2 8 8 36q4 27 4 56q0 65 -33.5 97t-108.5 32q-61 0 -102.5 -17.5t-65.5 -53.5t-36.5 -75.5t-22.5 -100.5z" />
    <glyph glyph-name="f" unicode="f" horiz-adv-x="790" 
d="M659 1175l-14 -81h213l-38 -244h-214l-134 -850h-307l134 850h-172l39 244h172l13 86q27 169 131.5 260.5t282.5 91.5q89 0 187 -14l-59 -220h-87q-67 0 -101.5 -29.5t-45.5 -93.5z" />
    <glyph glyph-name="g" unicode="g" horiz-adv-x="1180" 
d="M60 -368l62 235q224 -33 385 -33q186 0 211 175l2 17q-90 -16 -175 -16q-214 0 -314.5 83t-100.5 282q0 84 16 184q25 157 72 263t123 169.5t174 90.5t235 27q121 0 234 -26.5t191 -80.5q-9 -114 -25 -215l-133 -840q-13 -85 -47.5 -150t-81 -105t-109.5 -65.5t-128 -35
t-143 -9.5q-196 0 -448 50zM455 559q-13 -87 -13 -131q0 -81 43 -123.5t155 -42.5q62 0 120 16l65 413q14 88 17 147q-48 21 -132 21q-55 0 -97.5 -18t-68 -45t-44.5 -70t-28 -79.5t-17 -87.5z" />
    <glyph glyph-name="h" unicode="h" horiz-adv-x="1206" 
d="M1127 683l-108 -683h-310l105 657q7 41 7 77q0 62 -37 89t-132 27q-74 0 -144 -25l-131 -825h-309l240 1517h310l-70 -436q109 28 214 28q112 0 188.5 -20t117 -59.5t57 -86.5t16.5 -112q0 -57 -14 -148z" />
    <glyph glyph-name="i" unicode="i" horiz-adv-x="580" 
d="M627 1417q0 -20 -5 -53q-14 -92 -59.5 -130t-144.5 -38q-84 0 -120 26.5t-36 88.5q0 20 5 53q14 92 59.5 130t144.5 38q84 0 120 -26.5t36 -88.5zM74 0l174 1094h311l-174 -1094h-311z" />
    <glyph glyph-name="j" unicode="j" horiz-adv-x="586" 
d="M438 1196q-84 0 -119.5 26t-35.5 87q0 22 5 55q14 92 59.5 130t144.5 38q84 0 120 -26.5t36 -88.5q0 -20 -5 -53q-15 -92 -60 -130t-145 -38zM92 -4l175 1098h311l-168 -1063q-39 -244 -161.5 -346.5t-366.5 -102.5q-51 0 -91 4l62 234q45 5 70.5 9.5t58.5 16.5t52 29
t35 47.5t23 73.5z" />
    <glyph glyph-name="k" unicode="k" horiz-adv-x="1157" 
d="M617 1517l-142 -895l400 472h356l-441 -497l285 -597h-372l-239 551l-87 -551h-308l240 1517h308z" />
    <glyph glyph-name="l" unicode="l" horiz-adv-x="564" 
d="M99 273l197 1244h309l-192 -1213q-7 -49 -7 -78q0 -77 41 -155l-296 -131q-63 93 -63 217q0 48 11 116z" />
    <glyph glyph-name="m" unicode="m" horiz-adv-x="1687" 
d="M497 686l-109 -686h-306l124 787q15 95 44 215q198 107 479 107q161 0 243 -56q161 56 317 56q101 0 171.5 -20.5t108.5 -60t54 -87.5t16 -113q0 -50 -13 -137l-110 -691h-307l106 667q7 45 7 71q0 59 -29.5 87.5t-101.5 28.5q-63 0 -118 -24q1 -63 -11 -139l-110 -691
h-307l106 667q7 44 7 70q0 58 -27.5 87.5t-92.5 29.5q-62 0 -111 -21q-15 -55 -30 -147z" />
    <glyph glyph-name="n" unicode="n" horiz-adv-x="1174" 
d="M496 686l-108 -686h-306l124 787q17 106 43 215q199 107 493 107q114 0 191.5 -18.5t120 -55.5t60 -84t17.5 -113q0 -50 -15 -147l-109 -691h-307l106 667q7 51 7 77q0 59 -33 84.5t-118 26.5q-80 0 -135 -22q-17 -64 -31 -147z" />
    <glyph glyph-name="o" unicode="o" horiz-adv-x="1145" 
d="M114 348q0 93 17 199q49 306 178.5 434t394.5 128q219 0 316 -85t97 -279q0 -87 -18 -198q-49 -306 -178 -434t-395 -128q-218 0 -315 84.5t-97 278.5zM423 381q0 -80 32 -110t110 -30q106 0 151.5 62.5t74.5 243.5q17 114 17 163q0 81 -32 112t-110 31
q-106 0 -151.5 -61.5t-74.5 -244.5q-17 -107 -17 -166z" />
    <glyph glyph-name="p" unicode="p" horiz-adv-x="1186" 
d="M408 2l-64 -405h-309l188 1190q15 95 44 215q95 54 216.5 80.5t242.5 26.5q233 0 339 -83t106 -286q0 -84 -18 -193q-25 -159 -71 -267.5t-118 -173.5t-165 -93t-221 -28q-80 0 -170 17zM563 237q47 0 84.5 8.5t64 21.5t47.5 37.5t33.5 46t23 58.5t16 65t12.5 73
q14 96 14 140q0 81 -38 126.5t-134 45.5q-85 0 -139 -21q-15 -55 -30 -147l-69 -437q56 -17 115 -17z" />
    <glyph glyph-name="q" unicode="q" horiz-adv-x="1185" 
d="M1156 787l-189 -1190h-309l65 405q-97 -17 -176 -17q-214 0 -314 84t-100 285q0 90 17 193q26 162 72 269.5t121 173t173.5 92.5t238.5 27q121 0 234 -26.5t191 -80.5q-7 -108 -24 -215zM848 838q-46 21 -133 21q-42 0 -76 -10t-57.5 -24t-43 -40.5t-30.5 -49
t-21.5 -59.5t-15 -62t-11.5 -67q-16 -92 -16 -143q0 -82 43 -124.5t155 -42.5q60 0 121 17l68 437q14 88 17 147z" />
    <glyph glyph-name="r" unicode="r" horiz-adv-x="737" 
d="M493 675l-107 -675h-306l125 787q17 106 43 215q95 54 216.5 80.5t242.5 26.5q67 0 117 -7l-65 -253q-42 4 -72 4q-100 0 -164 -31q-15 -55 -30 -147z" />
    <glyph glyph-name="s" unicode="s" horiz-adv-x="987" 
d="M603 316q3 23 -1.5 39.5t-23 29t-29 17.5t-44.5 15t-42 13q-51 17 -84.5 29.5t-76.5 37.5t-67.5 52.5t-42.5 71t-18 96.5q0 35 5 64q52 328 442 328q204 0 399 -49l-66 -228q-159 34 -271 34q-33 0 -52 -0.5t-48.5 -4.5t-46.5 -11.5t-31.5 -22.5t-17.5 -36
q-3 -18 2.5 -33t14 -24.5t28 -19t33 -14.5t40.5 -13.5t40 -13.5q123 -45 161 -67q99 -56 112 -162q3 -20 3 -42q0 -27 -7 -76q-15 -97 -58 -165t-109.5 -105.5t-142.5 -54t-171 -16.5q-216 0 -387 51l66 234q173 -37 294 -37h35t34.5 1.5t36.5 4.5t31 9t29 14.5t19 22
t12 31.5z" />
    <glyph glyph-name="t" unicode="t" horiz-adv-x="817" 
d="M379 1352l315 51l-49 -309h207l-38 -242h-208l-81 -512q-3 -18 -3 -32q0 -81 96 -81q53 0 100 4l-12 -224q-123 -22 -210 -22q-150 0 -220.5 58t-70.5 176q0 37 8 85l86 548h-168l39 242h168z" />
    <glyph glyph-name="u" unicode="u" horiz-adv-x="1169" 
d="M251 1094h307l-106 -667q-7 -41 -7 -77q0 -59 32.5 -84.5t115.5 -25.5q81 0 134 21q15 55 30 147l109 686h306l-124 -786q-15 -95 -44 -215q-200 -108 -490 -108q-113 0 -190.5 18.5t-119.5 56t-59.5 84.5t-17.5 113q0 65 14 146z" />
    <glyph glyph-name="v" unicode="v" horiz-adv-x="1153" 
d="M1250 1094l-470 -924q-94 -185 -249 -185q-78 0 -124 45t-65 140l-177 924h324l104 -763l343 763h314z" />
    <glyph glyph-name="w" unicode="w" horiz-adv-x="1604" 
d="M171 1094h314l22 -752h1l185 457q86 213 231 213q143 0 163 -213l43 -454h1l258 749h305l-368 -899q-86 -210 -240 -210q-152 0 -180 210l-54 405l-174 -405q-90 -210 -249 -210q-79 0 -121 50t-52 162z" />
    <glyph glyph-name="x" unicode="x" horiz-adv-x="1194" 
d="M691 799l239 295h332l-446 -525l301 -569h-360l-163 328l-263 -328h-340l479 564l-280 530h354z" />
    <glyph glyph-name="y" unicode="y" horiz-adv-x="1133" 
d="M639 479l286 615h314l-736 -1497h-315l248 483l-269 1014h328z" />
    <glyph glyph-name="z" unicode="z" horiz-adv-x="1074" 
d="M1046 883l-536 -624h445l-41 -259h-752q-55 0 -85 23.5t-30 64.5q0 5 2 19q8 48 57 106l540 633h-440l39 248h745q53 0 83.5 -23.5t30.5 -64.5q0 -6 -2 -18q-8 -48 -56 -105z" />
    <glyph glyph-name="braceleft" unicode="{" horiz-adv-x="694" 
d="M806 1469l-8 -223q-47 -6 -81 -21t-53.5 -32.5t-33 -49.5t-18.5 -55t-12 -66l-16 -100q-24 -148 -47 -208q-42 -109 -128 -143q81 -44 81 -185q0 -58 -16 -160l-16 -101q-9 -59 -9 -93q0 -56 29.5 -89t106.5 -42l-63 -223q-77 6 -130.5 16.5t-100 30.5t-74 50.5
t-42.5 77.5t-15 111q0 58 12 133q24 152 24 221q0 75 -24.5 108t-82.5 38l35 219q88 8 127 83.5t72 284.5q16 98 43.5 167.5t64.5 115t95 73.5t122 41.5t158 20.5z" />
    <glyph glyph-name="bar" unicode="|" horiz-adv-x="547" 
d="M147 -403v1920h253v-1920h-253z" />
    <glyph glyph-name="braceright" unicode="}" horiz-adv-x="694" 
d="M311 922l16 100q10 57 10 93q0 56 -29.5 88.5t-107.5 42.5l63 223q77 -6 130.5 -16.5t100 -30.5t74 -50.5t42.5 -77.5t15 -111q0 -57 -12 -132q-23 -144 -23 -220q0 -75 24.5 -109t81.5 -39l-35 -219q-88 -9 -126.5 -83t-71.5 -284q-16 -99 -43.5 -168.5t-65 -115
t-95.5 -73.5t-122 -41.5t-157 -20.5l8 223q46 5 80 20t53.5 33t33 49.5t19 56t11.5 65.5l15 101q9 60 19 102t29.5 95t51.5 90.5t76 57.5q-85 37 -85 173q0 51 20 178z" />
    <glyph glyph-name="asciitilde" unicode="~" horiz-adv-x="1224" 
d="M980 863h240q-51 -209 -152 -319.5t-219 -110.5q-67 0 -117.5 17.5t-79.5 43t-53.5 51t-53.5 43t-64 17.5q-79 0 -134 -164h-241q51 209 151.5 319t219.5 110q56 0 101.5 -12.5t72 -31.5t52 -41.5t43.5 -41.5t43.5 -31.5t55.5 -12.5q80 0 135 164z" />
    <glyph glyph-name="uni00A0" unicode="&#xa0;" horiz-adv-x="506" 
 />
    <glyph glyph-name="exclamdown" unicode="&#xa1;" horiz-adv-x="604" 
d="M392 760q-83 0 -119 26.5t-36 88.5q0 26 4 53q14 92 59.5 130t144.5 38q84 0 120 -26.5t36 -87.5q0 -21 -5 -54q-14 -92 -59.5 -130t-144.5 -38zM37 -351l205 1011h269l-115 -1011h-359z" />
    <glyph glyph-name="cent" unicode="&#xa2;" horiz-adv-x="908" 
d="M830 423l-12 -229q-121 -31 -234 -40l-30 -188h-204l30 188q-74 10 -126 40t-81 77.5t-41.5 103t-12.5 125.5q0 83 19 204q19 120 46.5 204.5t74.5 154.5t119 111t173 56l30 193h204l-30 -185q117 -8 220 -43l-58 -223q-134 28 -194 28q-64 0 -107.5 -10t-73 -28.5
t-49 -56.5t-31 -82.5t-23.5 -118.5q-17 -105 -17 -156q0 -81 45 -116.5t163 -35.5q63 0 200 27z" />
    <glyph glyph-name="sterling" unicode="&#xa3;" horiz-adv-x="1204" 
d="M302 586h-190l38 235h157q5 81 19 177q19 117 70.5 199t130 125.5t166 62t197.5 18.5q61 0 110 -10t82 -23t69 -42t56.5 -50.5t58.5 -65.5l-190 -193q-55 59 -102.5 86.5t-118.5 27.5q-109 0 -156.5 -41.5t-63.5 -137.5q-10 -59 -13 -133h287l-37 -235h-267
q-1 -7 -11 -80q-7 -46 -31.5 -112.5t-51.5 -120.5h200q189 0 357 27l-14 -253q-181 -47 -484 -47h-304q-70 0 -104 28.5t-34 75.5q0 7 2 23q5 31 27.5 70.5t48 74.5t51 94t35.5 124q9 56 10 96z" />
    <glyph glyph-name="currency" unicode="&#xa4;" horiz-adv-x="1315" 
d="M1083 436l153 -147l-177 -177l-153 155q-119 -68 -249 -68q-135 0 -251 67l-153 -154l-174 177l152 148q-69 114 -69 248q0 136 70 252l-153 151l174 175l154 -155q115 67 250 67q137 0 250 -65l152 152l177 -174l-153 -148q73 -119 73 -255q0 -131 -73 -249zM657 442
q96 0 168 71t72 172q0 102 -69.5 174.5t-170.5 72.5q-97 0 -167 -72t-70 -175q0 -99 68.5 -171t168.5 -72z" />
    <glyph glyph-name="yen" unicode="&#xa5;" horiz-adv-x="1180" 
d="M538 1389l135 -525l312 525h307l-367 -606h144l-31 -188h-227l-36 -59l-12 -74h255l-30 -185h-254l-44 -277h-311l43 277h-252l30 185h252l11 74l-17 59h-225l30 188h141l-174 606h320z" />
    <glyph glyph-name="brokenbar" unicode="&#xa6;" horiz-adv-x="508" 
d="M128 -289v661h252v-661h-252zM128 743v660h252v-660h-252z" />
    <glyph glyph-name="section" unicode="&#xa7;" horiz-adv-x="1136" 
d="M8 -249l66 235q177 -36 346 -36h38t38 2t41 5.5t35 11t32.5 18t22 27t13.5 38.5q3 19 -1.5 35.5t-19 31.5t-27.5 25.5t-41.5 25.5t-44 22t-51.5 23q-44 20 -67.5 30.5t-64.5 32.5t-63.5 39.5t-52 45.5t-45 56.5t-26.5 67t-11 81.5q0 32 6 66q26 165 184 269
q-37 61 -37 130q0 25 4 48q25 162 157 263.5t332 101.5q209 0 406 -50l-66 -229q-175 37 -346 37q-157 0 -174 -102q-4 -22 5.5 -43t25 -36.5t45 -33t52 -28.5t60.5 -28q57 -25 92.5 -43t84 -50.5t76.5 -65t48.5 -81.5t20.5 -105q0 -25 -5 -60q-25 -155 -184 -260
q45 -63 45 -147q0 -23 -5 -53q-16 -101 -70.5 -175t-133 -114t-161.5 -58t-174 -18q-213 0 -405 48zM474 761q-57 -34 -68 -102q-2 -12 -2 -18q0 -77 126 -144q32 -17 107.5 -45.5t106.5 -45.5q59 36 68 97q7 48 -27 88.5t-115 82.5q-26 14 -94.5 41t-101.5 46z" />
    <glyph glyph-name="dieresis" unicode="&#xa8;" horiz-adv-x="889" 
d="M314 1155q-55 0 -90 34.5t-35 87.5q0 8 2 26q10 63 59 105t111 42q54 0 87.5 -34t33.5 -87q0 -8 -2 -26q-10 -63 -57.5 -105.5t-108.5 -42.5zM737 1155q-55 0 -90 35.5t-35 88.5q0 8 2 24q10 63 58.5 105t110.5 42q54 0 88 -34t34 -87q0 -8 -2 -26q-10 -63 -57.5 -105.5
t-108.5 -42.5z" />
    <glyph glyph-name="copyright" unicode="&#xa9;" horiz-adv-x="1618" 
d="M981 608h181q-12 -143 -111 -230t-235 -87q-121 0 -206 57.5t-125 152t-40 217.5q0 111 41 205t127 155.5t203 61.5q78 0 150 -30t127.5 -98.5t68.5 -164.5h-181q-10 66 -54.5 102.5t-110.5 36.5q-81 0 -130 -72t-49 -196t47.5 -194.5t131.5 -70.5q62 0 107.5 42
t57.5 113zM809 1446q199 0 367 -97t266 -264.5t98 -366.5q0 -149 -58 -284.5t-155.5 -234t-233 -156.5t-284.5 -58q-199 0 -367 98.5t-265.5 267t-97.5 367.5q0 149 57.5 284t155.5 232t233 154.5t284 57.5zM809 1278q-154 0 -281 -74t-200 -202.5t-73 -283.5
q0 -118 43 -223t116.5 -179.5t176.5 -118t218 -43.5t218 43.5t176.5 118t116.5 179.5t43 223q0 155 -73 283.5t-200 202.5t-281 74z" />
    <glyph glyph-name="ordfeminine" unicode="&#xaa;" horiz-adv-x="831" 
d="M826 1163l-48 -306q-15 -89 -29 -147q-134 -75 -345 -75q-136 0 -198.5 45.5t-62.5 139.5q0 28 6 61q16 102 77 163t174 80q78 13 213 17q3 15 3 28q0 38 -24 55t-76 17q-109 0 -271 -21l8 160q169 30 303 30q61 0 108 -9t86 -29.5t60 -59.5t21 -94q0 -22 -5 -55z
M450 988q-42 -10 -62 -31.5t-28 -72.5q-2 -16 -2 -22q0 -35 23 -49.5t68 -14.5q62 0 108 16q10 38 21 103l14 87q-112 -8 -142 -16z" />
    <glyph glyph-name="guillemotleft" unicode="&#xab;" horiz-adv-x="1180" 
d="M397 530l202 -428h-279l-229 428l364 427h279zM881 530l202 -428h-279l-229 428l365 427h278z" />
    <glyph glyph-name="logicalnot" unicode="&#xac;" horiz-adv-x="1254" 
d="M1193 829l-104 -655h-262l63 399h-734l41 256h996z" />
    <glyph glyph-name="uni00AD" unicode="&#xad;" horiz-adv-x="785" 
d="M146 423l39 243h539l-38 -243h-540z" />
    <glyph glyph-name="registered" unicode="&#xae;" horiz-adv-x="1024" 
d="M466 959v-179h-116v469h172q188 0 188 -144q0 -96 -82 -127l97 -198h-130l-86 179h-43zM68 1003q0 184 129.5 313.5t314.5 129.5q184 0 314 -129.5t130 -313.5t-130 -314.5t-314 -130.5t-314 130t-130 315zM836 1003q0 139 -93.5 233t-230.5 94t-230.5 -94t-93.5 -233
q0 -140 93.5 -234.5t230.5 -94.5t230.5 94.5t93.5 234.5zM508 1151h-42v-94h44q85 0 85 48q0 25 -20.5 35.5t-66.5 10.5z" />
    <glyph glyph-name="macron" unicode="&#xaf;" horiz-adv-x="863" 
d="M203 1204l30 190h632l-31 -190h-631z" />
    <glyph glyph-name="degree" unicode="&#xb0;" horiz-adv-x="806" 
d="M402 777q-138 0 -236 98.5t-98 236.5t98 236t236 98t237 -98t99 -236t-99 -236.5t-237 -98.5zM402 950q68 0 115.5 47t47.5 115q0 67 -47.5 114.5t-115.5 47.5q-67 0 -114 -47t-47 -115t46.5 -115t114.5 -47z" />
    <glyph glyph-name="plusminus" unicode="&#xb1;" horiz-adv-x="1179" 
d="M554 903l49 304h260l-49 -304h368l-40 -255h-368l-48 -305h-260l48 305h-368l40 255h368zM43 -5l40 255h996l-40 -255h-996z" />
    <glyph glyph-name="twosuperior" unicode="&#xb2;" horiz-adv-x="714" 
d="M219 1646q164 32 291 32q128 0 200 -39.5t72 -137.5q0 -21 -3 -47q-19 -115 -90.5 -191t-204.5 -126q-67 -25 -97 -52.5t-44 -71.5h365l-28 -180h-604q77 232 133 317t205 145q73 29 106 56t40 70q2 14 2 21q0 37 -33 49t-121 12q-80 0 -195 -21z" />
    <glyph glyph-name="threesuperior" unicode="&#xb3;" horiz-adv-x="699" 
d="M255 1187l25 155q91 1 194 17q60 9 70 78q7 43 -18.5 56.5t-80.5 13.5q-61 0 -235 -21l4 161q158 32 271 32q48 0 86.5 -4t76.5 -16t63 -31t40.5 -51.5t15.5 -75.5q0 -14 -4 -48q-20 -121 -130 -178q90 -41 90 -132q0 -13 -4 -43q-24 -150 -116.5 -212t-255.5 -62
q-96 0 -267 32l49 164q146 -20 215 -20q76 0 110.5 18.5t43.5 73.5q2 18 2 24q0 52 -54 60q-73 9 -166 9h-25z" />
    <glyph glyph-name="acute" unicode="&#xb4;" horiz-adv-x="552" 
d="M129 1150l238 334h306l-310 -334h-234z" />
    <glyph glyph-name="mu" unicode="&#xb5;" horiz-adv-x="1289" 
d="M1185 186l-32 -201q-129 0 -200 44t-92 112q-68 -84 -137.5 -120t-155.5 -36q-99 0 -150 57l-71 -445h-284l237 1497h286l-104 -654q-5 -30 -5 -52q0 -71 34.5 -113.5t98.5 -42.5q115 0 175.5 100t90.5 289l75 473h285l-104 -664q-15 -94 -15 -131q0 -89 68 -113z" />
    <glyph glyph-name="paragraph" unicode="&#xb6;" horiz-adv-x="1315" 
d="M653 -315h-222l139 873q-184 9 -296 112t-112 255q0 28 5 63q35 219 196.5 331.5t417.5 112.5h566l-277 -1747h-221l245 1549h-196z" />
    <glyph glyph-name="periodcentered" unicode="&#xb7;" horiz-adv-x="596" 
d="M160 526q0 26 6 61q16 99 60 136.5t146 37.5q85 0 120.5 -25.5t35.5 -87.5q0 -26 -6 -61q-16 -100 -59 -137t-146 -37q-86 0 -121.5 25t-35.5 88z" />
    <glyph glyph-name="cedilla" unicode="&#xb8;" horiz-adv-x="440" 
d="M35 -197l146 197h163l-90 -116q55 -8 92 -41.5t37 -85.5q0 -14 -1 -21q-15 -92 -91 -136.5t-180 -44.5q-96 0 -170 49l59 113q66 -37 127 -37q62 0 70 51q5 28 -25.5 45t-65 22t-71.5 5z" />
    <glyph glyph-name="onesuperior" unicode="&#xb9;" horiz-adv-x="504" 
d="M234 835l100 627q-71 -15 -174 -25l17 167q130 19 239 67h161l-132 -836h-211z" />
    <glyph glyph-name="ordmasculine" unicode="&#xba;" horiz-adv-x="844" 
d="M852 1158q0 -54 -13 -135q-33 -211 -123 -299.5t-275 -88.5q-152 0 -219.5 58.5t-67.5 192.5q0 52 13 137q33 211 123 299t274 88q153 0 220.5 -59t67.5 -193zM369 906q0 -56 22 -76.5t77 -20.5q74 0 105.5 43.5t51.5 170.5q12 81 12 113q0 56 -22.5 78.5t-76.5 22.5
q-73 0 -104.5 -43t-51.5 -171q-13 -80 -13 -117z" />
    <glyph glyph-name="guillemotright" unicode="&#xbb;" horiz-adv-x="1180" 
d="M689 530l-365 -428h-279l338 428l-202 427h279zM1173 530l-364 -428h-280l338 428l-202 427h279z" />
    <glyph glyph-name="onequarter" unicode="&#xbc;" horiz-adv-x="1549" 
d="M1126 0l29 180h-236q-115 0 -115 79l3 27q8 55 85 140l308 335q46 51 80 67.5t80 16.5q41 0 66 -23.5t25 -66.5q0 -8 -2 -26l-61 -384h95l-27 -165h-94l-29 -180h-207zM443 1430h161l-133 -836h-210l98 626q-75 -15 -173 -24l18 168q133 20 239 66zM1438 1461
l-1059 -1490h-207l1059 1490h207zM1030 345h152l33 209z" />
    <glyph glyph-name="onehalf" unicode="&#xbd;" horiz-adv-x="1719" 
d="M1116 814q159 31 291 31q129 0 201 -39.5t72 -136.5q0 -13 -4 -47q-19 -115 -90.5 -192t-203.5 -126q-68 -26 -97.5 -53.5t-43.5 -71.5h365l-29 -179h-604q17 53 26 79t24 67t23.5 60.5t23.5 50.5t27 46.5t29.5 38t35 35.5t41 29.5t50 29.5t58.5 26q72 29 105.5 56.5
t40.5 70.5q2 14 2 20q0 36 -33 48.5t-121 12.5q-69 0 -195 -21zM189 1196l17 168q133 20 239 66h161l-133 -836h-211l100 626q-75 -15 -173 -24zM1233 1461h207l-1059 -1490h-206z" />
    <glyph glyph-name="threequarters" unicode="&#xbe;" horiz-adv-x="1685" 
d="M1266 0l29 180h-236q-115 0 -115 79q0 9 2 27q8 54 86 140l308 335q46 51 80 67.5t80 16.5q41 0 66 -23t25 -67q0 -8 -2 -26l-61 -384h95l-27 -165h-94l-29 -180h-207zM794 1212q-18 -119 -130 -177q90 -43 90 -132q0 -13 -4 -43q-24 -151 -116.5 -213t-255.5 -62
q-97 0 -266 32l48 165q153 -21 215 -21q76 0 110.5 18.5t43.5 73.5q2 16 2 23q0 54 -54 61q-73 9 -170 9h-21l25 156q100 1 194 16q60 9 70 78q7 42 -18.5 56t-79.5 14q-79 0 -237 -21l5 162q171 32 272 32q61 0 107.5 -7.5t88 -26t63.5 -55t22 -90.5q0 -14 -4 -48z
M1578 1461l-1059 -1490h-207l1059 1490h207zM1170 345h151l33 209z" />
    <glyph glyph-name="questiondown" unicode="&#xbf;" horiz-adv-x="1086" 
d="M571 660h273l-16 -137q-3 -33 -6 -49q-12 -74 -39.5 -121t-63.5 -66.5t-77 -29t-81.5 -16.5t-75 -20.5t-61 -50t-35.5 -96.5q-4 -32 -4 -43q0 -63 45.5 -89.5t158.5 -26.5q191 0 352 34l13 -262q-223 -53 -440 -53q-92 0 -157.5 6.5t-128.5 26.5t-101.5 54.5t-61.5 92.5
t-23 139q0 60 10 124q16 100 50 172t77 109.5t91 61t94.5 34.5t86 21.5t66.5 30.5t34 54zM723 760q-83 0 -119.5 27t-36.5 89q0 20 5 52q14 92 60 130t145 38q84 0 120 -26.5t36 -88.5q0 -20 -5 -53q-14 -92 -59.5 -130t-145.5 -38z" />
    <glyph glyph-name="Agrave" unicode="&#xc0;" horiz-adv-x="1355" 
d="M302 0h-337l600 1216q60 122 129 176t159 54q174 0 214 -230l209 -1216h-348l-43 327h-438zM750 1571l-232 270h327l155 -270h-250zM561 586h290l-67 505z" />
    <glyph glyph-name="Aacute" unicode="&#xc1;" horiz-adv-x="1355" 
d="M302 0h-337l600 1216q60 122 129 176t159 54q173 0 213 -230l210 -1216h-348l-43 327h-438zM745 1558l241 271h326l-317 -271h-250zM561 586h290l-67 505z" />
    <glyph glyph-name="Acircumflex" unicode="&#xc2;" horiz-adv-x="1356" 
d="M303 0h-338l601 1216q60 122 129 176t159 54q173 0 213 -230l209 -1216h-348l-43 327h-438zM822 1830h174l224 -272h-234l-96 131l-142 -131h-231zM562 586h289l-66 505z" />
    <glyph glyph-name="Atilde" unicode="&#xc3;" horiz-adv-x="1355" 
d="M1056 1826h154q-30 -129 -95.5 -199t-135.5 -70q-42 0 -73.5 17.5t-46 38t-31 38t-31.5 17.5q-44 0 -77 -106h-154q30 129 95 199t135 70q42 0 73.5 -17.5t46 -38t31 -38t32.5 -17.5q45 0 77 106zM-35 0l600 1216q60 122 129 176t159 54q174 0 214 -230l209 -1216h-348
l-43 327h-438l-145 -327h-337zM851 586l-67 505l-223 -505h290z" />
    <glyph glyph-name="Adieresis" unicode="&#xc4;" horiz-adv-x="1356" 
d="M656 1543q-55 0 -90.5 35t-35.5 88q0 8 2 24q10 63 59 105.5t111 42.5q54 0 88 -34t34 -88q0 -8 -2 -26q-11 -63 -58 -105t-108 -42zM1078 1543q-55 0 -89.5 34.5t-34.5 88.5q0 16 1 24q10 63 59.5 105.5t110.5 42.5q55 0 88.5 -34t33.5 -88q0 -8 -2 -26
q-11 -63 -58.5 -105t-108.5 -42zM303 0h-338l600 1216q60 121 129.5 175.5t159.5 54.5q173 0 213 -230l209 -1216h-348l-43 327h-438zM561 586h290l-67 505z" />
    <glyph glyph-name="Aring" unicode="&#xc5;" horiz-adv-x="1356" 
d="M683 1720q0 18 3 36q13 89 86 152.5t161 63.5q79 0 130.5 -52t51.5 -130q0 -16 -3 -34q-14 -90 -86.5 -154t-160.5 -64q-78 0 -130 52t-52 130zM303 0h-338l601 1216q60 122 129 176t159 54q173 0 213 -230l209 -1216h-348l-43 327h-438zM884 1655q40 0 73 29.5t40 71.5
q7 41 -17 70.5t-65 29.5q-40 0 -73.5 -29.5t-40.5 -70.5q-7 -42 17.5 -71.5t65.5 -29.5zM562 586h289l-66 505z" />
    <glyph glyph-name="AE" unicode="&#xc6;" horiz-adv-x="1839" 
d="M-35 0l604 1222q34 69 76 114.5t93.5 68.5t102.5 32t119 9q131 0 201 -47q97 36 317 36q193 0 391 -11l-42 -263h-399q-71 0 -106.5 -14t-52.5 -47t-29 -103l-22 -135h537l-42 -269h-537l-25 -156q-7 -41 -7 -74q0 -54 30 -72.5t113 -18.5h399l-41 -263
q-247 -13 -395 -13q-59 0 -99 1.5t-91 7t-84.5 16.5t-69 31t-56 48t-33.5 69.5t-13 95.5q0 29 3 62h-357l-146 -327h-339zM567 586h280l79 496q2 12 2 31q0 54 -46 54q-55 0 -91 -80z" />
    <glyph glyph-name="Ccedilla" unicode="&#xc7;" horiz-adv-x="1135" 
d="M1168 1137q-160 27 -299 27q-44 0 -81 -5t-67 -17t-54.5 -25.5t-44.5 -36t-35 -43t-28 -52.5t-21.5 -58t-17 -65.5t-14 -69.5t-12.5 -76q-24 -151 -24 -220q0 -113 56.5 -170.5t201.5 -57.5q154 0 306 27l-12 -263q-138 -39 -319 -46l-71 -91q55 -8 92.5 -41.5
t37.5 -85.5q0 -8 -2 -22q-15 -92 -91.5 -136t-180.5 -44q-99 0 -169 48l59 113q66 -37 127 -37q63 0 71 51q4 27 -26 44.5t-65 22.5t-71 5l129 175q-221 16 -315 121t-94 319q0 115 27 288q21 132 47.5 231.5t66 183.5t92 141t124.5 97t164 58.5t210 18.5q221 0 374 -47z
" />
    <glyph glyph-name="Egrave" unicode="&#xc8;" horiz-adv-x="1166" 
d="M138 359l113 716q9 57 25.5 104t36 81.5t49 62t57 45.5t67 31t72 20t79.5 10.5t81.5 4.5t85.5 1q194 0 392 -11l-42 -263h-399q-103 0 -137.5 -31.5t-50.5 -132.5l-21 -135h536l-43 -269h-536l-25 -156q-7 -41 -7 -74q0 -54 30.5 -72.5t112.5 -18.5h399l-42 -263
q-247 -13 -395 -13q-59 0 -99 1.5t-91 7t-84.5 16.5t-69 31t-56 48t-33.5 69.5t-13 95.5q0 49 8 94zM765 1547l-232 271h326l156 -271h-250z" />
    <glyph glyph-name="Eacute" unicode="&#xc9;" horiz-adv-x="1166" 
d="M138 359l114 716q9 57 25.5 104t36 81.5t49 62t56.5 45.5t66.5 31t72 20t79.5 10.5t81.5 4.5t85.5 1q194 0 392 -11l-42 -263h-399q-103 0 -137.5 -31.5t-50.5 -132.5l-21 -135h536l-43 -269h-536l-25 -156q-7 -41 -7 -74q0 -54 30.5 -72.5t112.5 -18.5h399l-42 -263
q-247 -13 -395 -13q-52 0 -87 1t-80.5 4.5t-76.5 11.5t-66 21t-57 33t-41.5 47t-28.5 65t-9 85q0 50 8 95zM634 1547l241 271h327l-318 -271h-250z" />
    <glyph glyph-name="Ecircumflex" unicode="&#xca;" horiz-adv-x="1166" 
d="M1196 1424l-42 -263h-399q-102 0 -136.5 -31t-51.5 -133l-21 -135h536l-42 -269h-537l-24 -156q-8 -46 -8 -74q0 -53 30.5 -72t112.5 -19h399l-42 -263q-247 -13 -395 -13q-52 0 -87 1t-80.5 4.5t-76.5 11.5t-66 21t-57 33t-41.5 47t-28.5 65t-9 85q0 50 8 95l114 716
q9 57 25.5 104t36 81.5t49 62t56.5 45.5t66.5 31t72 20t79.5 10.5t81.5 4.5t85.5 1q194 0 392 -11zM755 1819h174l224 -272h-234l-96 130l-142 -130h-231z" />
    <glyph glyph-name="Edieresis" unicode="&#xcb;" horiz-adv-x="1166" 
d="M1196 1424l-43 -263h-398q-102 0 -136.5 -31t-51.5 -133l-22 -135h536l-43 -269h-536l-25 -156q-7 -51 -7 -73q0 -54 30.5 -73t113.5 -19h399l-42 -263q-247 -13 -395 -13q-59 0 -99 1.5t-91 7t-84.5 16.5t-69 31t-56 48t-33.5 69.5t-13 95.5q0 49 8 94l113 716
q9 57 25.5 104t36 81.5t49 62t57 45.5t67 31t72 20t79.5 10.5t81.5 4.5t85.5 1q194 0 392 -11zM591 1533q-55 0 -90 34.5t-35 87.5q0 8 2 26q10 63 59 105t111 42q54 0 87.5 -34t33.5 -88q0 -16 -1 -25q-10 -63 -58 -105.5t-109 -42.5zM1014 1533q-55 0 -89.5 34.5
t-34.5 87.5q0 8 2 26q10 63 59 105t110 42q55 0 88.5 -34t33.5 -87q0 -5 -1.5 -15t-1.5 -11q-10 -63 -57.5 -105.5t-108.5 -42.5z" />
    <glyph glyph-name="Igrave" unicode="&#xcc;" horiz-adv-x="617" 
d="M87 0l227 1432h329l-227 -1432h-329zM388 1552l-232 270h327l155 -270h-250z" />
    <glyph glyph-name="Iacute" unicode="&#xcd;" horiz-adv-x="617" 
d="M87 0l227 1432h329l-227 -1432h-329zM356 1552l242 270h326l-318 -270h-250z" />
    <glyph glyph-name="Icircumflex" unicode="&#xce;" horiz-adv-x="618" 
d="M450 1814h174l225 -272h-235l-97 131l-141 -131h-232zM87 0l227 1432h329l-226 -1432h-330z" />
    <glyph glyph-name="Idieresis" unicode="&#xcf;" horiz-adv-x="618" 
d="M284 1529q-55 0 -89.5 34.5t-34.5 88.5q0 8 2 24q11 63 59.5 105.5t109.5 42.5q54 0 88 -34t34 -88q0 -8 -2 -26q-10 -63 -57.5 -105t-109.5 -42zM707 1529q-55 0 -89.5 34.5t-34.5 87.5q0 7 2 25q10 63 59 105.5t110 42.5q55 0 88.5 -34t33.5 -87q0 -9 -2 -27
q-10 -63 -57.5 -105t-109.5 -42zM87 0l227 1432h329l-226 -1432h-330z" />
    <glyph glyph-name="Eth" unicode="&#xd0;" horiz-adv-x="1382" 
d="M229 632h-105l34 210h104l89 561q218 43 475 43q152 0 255.5 -26.5t165 -83.5t87.5 -136t26 -192q0 -119 -27 -292q-20 -129 -45 -224t-63.5 -181.5t-92 -143.5t-129 -100t-177 -62.5t-232.5 -19.5q-257 0 -460 42zM557 632l-57 -363q47 -7 100 -7q54 0 99 8t79.5 19
t63.5 34t48.5 43t36.5 56t27 61.5t20.5 72.5t15.5 76t14 84q24 158 24 217q0 117 -62.5 177t-222.5 60q-46 0 -102 -8l-51 -320h198l-34 -210h-197z" />
    <glyph glyph-name="Ntilde" unicode="&#xd1;" horiz-adv-x="1435" 
d="M748 1229l259 -772l154 975h297l-189 -1190q-40 -257 -237 -257q-90 0 -141 47t-92 172l-258 774l-155 -978h-296l189 1191q40 255 236 255q84 0 138.5 -49.5t94.5 -167.5zM766 1561h-155q30 129 95.5 199t135.5 70q42 0 74 -17.5t46.5 -38t31 -38t32.5 -17.5
q43 0 76 106h155q-30 -129 -95.5 -199t-135.5 -70q-34 0 -61.5 11.5t-43.5 27.5t-28.5 32t-24.5 27.5t-25 11.5q-46 0 -77 -105z" />
    <glyph glyph-name="Ograve" unicode="&#xd2;" horiz-adv-x="1345" 
d="M614 -15q-258 0 -368.5 103.5t-110.5 337.5q0 115 27 290q32 201 79.5 334t127.5 224.5t195 131.5t281 40q258 0 368 -103t110 -337q0 -123 -27 -290q-32 -201 -79.5 -334t-127 -225t-195 -132t-280.5 -40zM963 716q29 188 29 254q0 99 -42 149t-147 50q-38 0 -70 -7
t-57 -18.5t-46.5 -33t-36.5 -41.5t-29 -54t-22.5 -61.5t-18 -72.5t-15.5 -78t-14 -87q-29 -188 -29 -253q0 -100 42.5 -149.5t148.5 -49.5q38 0 70 7t56.5 18t46 32.5t36.5 41.5t28.5 54t22.5 61.5t18 72.5t15 78t14 87zM793 1552l-232 270h326l156 -270h-250z" />
    <glyph glyph-name="Oacute" unicode="&#xd3;" horiz-adv-x="1346" 
d="M614 -15q-258 0 -368.5 103.5t-110.5 337.5q0 115 27 290q32 201 79.5 334t127.5 224.5t195 131.5t281 40q258 0 368.5 -103t110.5 -337q0 -123 -27 -290q-32 -201 -79.5 -334t-127.5 -225t-195 -132t-281 -40zM466 463q0 -100 42 -149.5t148 -49.5q43 0 77.5 7.5
t62 25.5t48 38t37 54.5t28 64t22 78.5t17.5 86t16 98q29 188 29 254q0 99 -42 149t-147 50q-38 0 -70 -7t-57 -18.5t-46.5 -33t-36.5 -41.5t-29 -54t-22.5 -61.5t-18 -72.5t-15.5 -78t-14 -87q-29 -188 -29 -253zM690 1552l242 270h326l-318 -270h-250z" />
    <glyph glyph-name="Ocircumflex" unicode="&#xd4;" horiz-adv-x="1346" 
d="M614 -15q-258 0 -368.5 103.5t-110.5 337.5q0 115 27 290q32 201 79.5 334t127.5 224.5t195 131.5t281 40q258 0 368.5 -103t110.5 -337q0 -123 -27 -290q-32 -201 -79.5 -334t-127.5 -225t-195 -132t-281 -40zM466 463q0 -99 42.5 -149t147.5 -50q38 0 70 7t57 18
t46 32.5t36 41.5t29 54t22.5 61t18 72.5t15 78t14.5 87.5q29 188 29 253q0 100 -42.5 150t-147.5 50q-38 0 -70 -7t-57 -18.5t-46 -33t-36 -41.5t-29 -54t-22.5 -61.5t-18 -72.5t-15.5 -78t-14 -87q-29 -188 -29 -253zM816 1823h174l224 -272h-235l-96 131l-141 -131h-232z
" />
    <glyph glyph-name="Otilde" unicode="&#xd5;" horiz-adv-x="1346" 
d="M1050 1810h154q-30 -129 -95.5 -199.5t-135.5 -70.5q-42 0 -73.5 17.5t-46 38t-31 38t-31.5 17.5q-44 0 -77 -106h-155q30 129 95.5 199.5t135.5 70.5q42 0 73.5 -17.5t46 -38t31 -38t32.5 -17.5q44 0 77 106zM162 716q32 201 79.5 334t127.5 224.5t195 131.5t281 40
q258 0 368.5 -103t110.5 -337q0 -123 -27 -290q-32 -201 -79.5 -334t-127.5 -225t-195 -132t-281 -40q-258 0 -368.5 103.5t-110.5 337.5q0 115 27 290zM993 969q0 100 -42.5 150t-147.5 50q-38 0 -70 -7t-57 -18.5t-46 -33t-36 -41.5t-29 -54t-22.5 -61.5t-18 -72.5
t-15.5 -78t-14 -87q-29 -188 -29 -253q0 -99 42.5 -149t147.5 -50q38 0 70 7t57 18t46 32.5t36.5 41.5t29 54t22.5 61.5t18 72.5t15 78t14 87q29 188 29 253z" />
    <glyph glyph-name="Odieresis" unicode="&#xd6;" horiz-adv-x="1346" 
d="M613 -15q-258 0 -368 103.5t-110 337.5q0 115 27 290q32 201 79.5 334t127.5 224.5t195 131.5t281 40q258 0 368.5 -103.5t110.5 -337.5q0 -114 -27 -289q-25 -160 -60.5 -276t-88.5 -205t-127.5 -142.5t-174.5 -80.5t-233 -27zM466 463q0 -99 42.5 -149t147.5 -50
q38 0 70 7t56.5 18t46 32.5t36.5 41.5t28.5 54t22.5 61t18.5 72.5t15 78.5l14.5 87q29 188 29 254q0 99 -42 149t-147 50q-38 0 -70 -7t-57 -18.5t-46.5 -33t-36.5 -41.5t-29 -54t-22.5 -61.5t-18 -72.5t-15.5 -78t-14 -87q-29 -188 -29 -253zM648 1524q-54 0 -89 35t-35 88
q0 16 1 25q10 63 59 105t111 42q55 0 88.5 -33.5t33.5 -87.5q0 -8 -2 -26q-10 -63 -58 -105.5t-109 -42.5zM1072 1524q-55 0 -90 35t-35 89q0 8 2 24q10 63 59 105t110 42q55 0 88.5 -34t33.5 -87q0 -8 -2 -26q-10 -63 -57.5 -105.5t-108.5 -42.5z" />
    <glyph glyph-name="multiply" unicode="&#xd7;" horiz-adv-x="1055" 
d="M782 144l-235 286l-324 -286l-141 172l325 285l-235 286l199 171l232 -284l324 285l139 -172l-322 -284l234 -285z" />
    <glyph glyph-name="Oslash" unicode="&#xd8;" horiz-adv-x="1346" 
d="M370 17l-118 -172l-161 116l117 170q-73 102 -73 294q0 125 27 291q32 201 79.5 334t127.5 224.5t195 131.5t281 40q148 0 243 -32l119 173l161 -117l-117 -170q73 -104 73 -295q0 -114 -27 -289q-25 -160 -60.5 -276t-88.5 -205t-127.5 -142.5t-174.5 -80.5t-233 -27
q-147 0 -243 32zM656 264q38 0 70 7t56.5 18t46 32.5t36.5 41.5t28.5 54t22.5 61t18.5 72.5t15 78.5l14.5 87q23 147 27 202l-2 1l-437 -636q41 -19 104 -19zM469 512l438 638q-41 19 -103 19q-38 0 -70 -7t-57 -18.5t-46.5 -33t-36.5 -41.5t-29 -54t-22.5 -61.5t-18 -72.5
t-15.5 -78t-14 -87q-23 -149 -27 -204h1z" />
    <glyph glyph-name="Ugrave" unicode="&#xd9;" horiz-adv-x="1346" 
d="M1376 1432l-150 -942q-19 -118 -57.5 -206.5t-92 -145t-127 -91t-154 -48.5t-182.5 -14q-111 0 -192.5 17.5t-145 58t-96 113t-32.5 177.5q0 63 12 139l149 942h324l-151 -958q-7 -44 -7 -67q0 -75 42 -106.5t141 -31.5q116 0 170.5 46t72.5 159l151 958h325zM787 1542
l-232 270h327l155 -270h-250z" />
    <glyph glyph-name="Uacute" unicode="&#xda;" horiz-adv-x="1345" 
d="M1375 1432l-149 -942q-19 -118 -57.5 -206.5t-92 -145t-127 -91t-154 -48.5t-182.5 -14q-111 0 -193 17.5t-145.5 58t-95.5 113t-32 177.5q0 63 12 139l149 942h324l-152 -958q-6 -37 -6 -67q0 -75 42 -106.5t141 -31.5q116 0 170 46t72 159l152 958h324zM692 1542
l241 270h327l-318 -270h-250z" />
    <glyph glyph-name="Ucircumflex" unicode="&#xdb;" horiz-adv-x="1345" 
d="M1375 1432l-149 -942q-19 -118 -57.5 -206.5t-92 -145t-127 -91t-154 -48.5t-182.5 -14q-111 0 -193 17.5t-145.5 58t-95.5 113t-32 177.5q0 63 12 139l149 942h324l-152 -958q-6 -37 -6 -67q0 -75 42 -106.5t141 -31.5q116 0 170.5 46t72.5 159l151 958h324zM823 1813
h174l223 -272h-234l-96 131l-142 -131h-231z" />
    <glyph glyph-name="Udieresis" unicode="&#xdc;" horiz-adv-x="1345" 
d="M1376 1432l-150 -942q-23 -147 -76 -247.5t-134.5 -156t-178 -78.5t-224.5 -23q-111 0 -192.5 17.5t-145 58t-96 113t-32.5 177.5q0 63 12 139l149 942h324l-151 -958q-7 -44 -7 -67q0 -75 42 -106.5t141 -31.5q116 0 170.5 46t72.5 159l151 958h325zM648 1529
q-55 0 -90.5 35t-35.5 89q0 8 2 24q10 63 59 105t111 42q54 0 87.5 -33.5t33.5 -87.5q0 -17 -1 -26q-10 -63 -57.5 -105.5t-108.5 -42.5zM1070 1529q-55 0 -89.5 35t-34.5 89q0 8 2 24q10 63 58.5 105t109.5 42q55 0 89 -34t34 -87q0 -5 -1.5 -15t-1.5 -11
q-10 -63 -57.5 -105.5t-108.5 -42.5z" />
    <glyph glyph-name="Yacute" unicode="&#xdd;" horiz-adv-x="1247" 
d="M818 551l-87 -551h-329l88 551l-314 881h355l177 -547l360 547h342zM652 1536l241 270h327l-318 -270h-250z" />
    <glyph glyph-name="Thorn" unicode="&#xde;" horiz-adv-x="1215" 
d="M69 0l227 1432h328l-36 -228q90 4 139 4q92 0 161.5 -7t137.5 -29t112 -58.5t70.5 -98t26.5 -146.5q0 -54 -10 -113q-18 -111 -58 -192.5t-95 -132t-132.5 -81t-158.5 -41.5t-185 -11q-63 0 -151 6l-48 -304h-328zM487 571q46 -6 140 -6q123 0 189.5 41t83.5 150
q5 32 5 53q0 72 -49 103t-164 31q-68 0 -148 -10z" />
    <glyph glyph-name="germandbls" unicode="&#xdf;" horiz-adv-x="1313" 
d="M936 347q0 34 -24 57.5t-59.5 35.5t-77 31t-77 41.5t-59.5 70t-24 113.5q0 33 6 72q12 75 51.5 129t88.5 83.5t97 54.5t84 57.5t43 75.5q8 48 -37.5 77t-141.5 29q-126 0 -189 -69t-91 -247l-152 -958h-309l152 958q49 309 193 441.5t429 132.5q234 0 347 -82.5
t113 -223.5q0 -27 -5 -62q-12 -78 -52.5 -136t-90 -90.5t-97.5 -58.5t-84 -54t-41 -61q-5 -30 10.5 -51.5t43.5 -34.5t63.5 -25.5t72 -30.5t67 -43t49.5 -69.5t19 -104.5q0 -34 -6 -73q-15 -94 -55 -162.5t-99.5 -108t-130 -58t-154.5 -18.5q-75 0 -171.5 14.5t-169.5 38.5
l65 233q161 -37 268 -37q26 0 50.5 5.5t51 28t32.5 60.5q1 7 1 19z" />
    <glyph glyph-name="agrave" unicode="&#xe0;" horiz-adv-x="1110" 
d="M1064 749l-70 -441q-17 -106 -43 -215q-193 -108 -496 -108q-195 0 -285 66t-90 203q0 38 8 88q24 152 110 239.5t252 114.5q110 18 309 26q3 20 3 36q0 53 -35 76.5t-111 23.5q-155 0 -389 -30l13 237q249 44 435 44q88 0 155 -13t123.5 -43t86.5 -86.5t30 -136.5
q0 -38 -6 -81zM522 493q-63 -15 -91.5 -44.5t-39.5 -102.5q-2 -10 -2 -30q0 -49 33 -69t100 -20q93 0 155 22q15 55 30 147l19 120q-144 -9 -204 -23zM707 1563l132 -334h-233l-204 334h305z" />
    <glyph glyph-name="aacute" unicode="&#xe1;" horiz-adv-x="1109" 
d="M1064 749l-70 -441q-17 -106 -43 -215q-193 -108 -496 -108q-195 0 -285 66.5t-90 202.5q0 38 8 88q24 152 110 239.5t252 114.5q111 18 309 26q3 20 3 35q0 54 -35 77.5t-111 23.5q-155 0 -389 -30l12 237q249 44 436 44q88 0 155 -13t123.5 -43t86.5 -86.5t30 -136.5
q0 -38 -6 -81zM522 493q-63 -15 -91.5 -44.5t-39.5 -102.5q-3 -15 -3 -29q0 -49 33.5 -69.5t99.5 -20.5q92 0 156 22q19 69 30 147l19 120q-144 -9 -204 -23zM1099 1561l-309 -334h-235l239 334h305z" />
    <glyph glyph-name="acircumflex" unicode="&#xe2;" horiz-adv-x="1109" 
d="M1064 749l-70 -441q-17 -106 -43 -215q-193 -108 -497 -108q-194 0 -284 66t-90 203q0 38 8 88q24 152 109.5 239.5t251.5 114.5q111 18 310 26q3 20 3 35q0 54 -35 77.5t-111 23.5q-155 0 -389 -30l11 237q249 44 436 44q69 0 125.5 -7.5t108 -27t86.5 -50.5t55.5 -80
t20.5 -114q0 -38 -6 -81zM522 493q-63 -15 -91 -44.5t-40 -102.5q-2 -10 -2 -30q0 -49 33 -69t99 -20q94 0 156 22q15 55 30 147l19 120q-144 -9 -204 -23zM1038 1220h-219l-85 161l-137 -161h-217l298 336h163z" />
    <glyph glyph-name="atilde" unicode="&#xe3;" horiz-adv-x="1110" 
d="M1064 749l-70 -441q-17 -106 -43 -215q-193 -108 -496 -108q-196 0 -285.5 66t-89.5 204q0 37 8 87q24 152 110 239.5t252 114.5q111 18 309 26q3 20 3 36q0 53 -35 76.5t-111 23.5q-155 0 -389 -30l13 237q249 44 435 44q87 0 154.5 -13t124 -43t87 -86.5t30.5 -136.5
q0 -30 -7 -81zM643 1537q34 0 61 -12t43 -29t28.5 -34t25 -29t25.5 -12q44 0 77 110h155q-31 -134 -97 -207.5t-136 -73.5q-42 0 -73.5 18t-46 40t-31 40t-31.5 18q-44 0 -78 -110h-154q31 134 96.5 207.5t135.5 73.5zM522 493q-63 -15 -91 -44.5t-40 -102.5q-2 -10 -2 -30
q0 -49 33 -69t100 -20q93 0 155 22q15 55 30 147l20 120q-145 -9 -205 -23z" />
    <glyph glyph-name="adieresis" unicode="&#xe4;" horiz-adv-x="1110" 
d="M1064 749l-70 -441q-17 -106 -43 -215q-193 -108 -496 -108q-195 0 -285 66.5t-90 203.5q0 37 8 87q24 152 110 239.5t252 114.5q111 18 309 26q3 20 3 35q0 54 -35 77.5t-111 23.5q-155 0 -389 -30l12 237q249 44 436 44q69 0 125.5 -7.5t108 -27t86.5 -50.5t55.5 -80
t20.5 -114q0 -30 -7 -81zM522 493q-63 -15 -91.5 -44.5t-39.5 -102.5q-2 -10 -2 -30q0 -49 33 -69t99 -20q94 0 156 22q15 55 30 147l19 120q-144 -9 -204 -23zM379 1385q10 63 59 105t111 42q54 0 87.5 -34t33.5 -88q0 -16 -1 -25q-11 -63 -58.5 -105t-108.5 -42
q-55 0 -90 34.5t-35 87.5q0 7 2 25zM802 1385q10 63 58.5 105t110.5 42q55 0 89 -34t34 -88q0 -7 -2 -25q-11 -63 -58.5 -105t-108.5 -42q-55 0 -90 34.5t-35 88.5q0 8 2 24z" />
    <glyph glyph-name="aring" unicode="&#xe5;" horiz-adv-x="1110" 
d="M1064 749l-70 -441q-17 -106 -43 -215q-193 -108 -496 -108q-195 0 -285 66t-90 203q0 38 8 88q24 152 110 239.5t252 114.5q111 18 309 26q3 20 3 36q0 53 -35 76.5t-111 23.5q-155 0 -389 -30l13 237q249 44 435 44q87 0 154.5 -13t124 -43t87 -86.5t30.5 -136.5
q0 -30 -7 -81zM522 493q-63 -15 -91.5 -44.5t-39.5 -102.5q-2 -10 -2 -29q0 -49 33.5 -69.5t99.5 -20.5q94 0 156 22q15 55 30 147l19 120q-145 -9 -205 -23zM520 1419q14 89 86.5 153t160.5 64q79 0 130.5 -52t51.5 -130q0 -17 -3 -35q-14 -90 -86.5 -153.5t-160.5 -63.5
q-79 0 -130.5 52t-51.5 130q0 17 3 35zM748 1520q-40 0 -73 -30t-40 -71q-7 -42 17 -71t65 -29t74 29t40 71q7 41 -17.5 71t-65.5 30z" />
    <glyph glyph-name="ae" unicode="&#xe6;" horiz-adv-x="1738" 
d="M1179 411l-166 -9q-2 -22 -2 -30q0 -75 46.5 -103.5t149.5 -28.5q161 0 393 29l-12 -240q-262 -44 -483 -44q-163 0 -254 62q-161 -62 -397 -62q-194 0 -284 66t-90 203q0 38 8 88q24 152 110 239.5t251 114.5q111 18 309 26q3 20 3 36q0 53 -34.5 76.5t-110.5 23.5
q-158 0 -389 -30l12 237q246 44 435 44q210 0 305 -76q121 76 326 76q115 0 195 -23.5t125.5 -70t65.5 -109t20 -148.5q0 -80 -18 -198q-9 -54 -19 -94q-217 -40 -495 -55zM726 516q-144 -9 -204 -23q-63 -15 -91.5 -44.5t-39.5 -102.5q-3 -15 -3 -30q0 -49 33 -69t99 -20
q95 0 157 22q15 55 30 147zM1190 626q111 5 206 18q2 8 8 36q5 33 5 56q0 65 -34 97t-109 32q-61 0 -102.5 -17.5t-65.5 -53.5t-36.5 -75.5t-22.5 -100.5z" />
    <glyph glyph-name="ccedilla" unicode="&#xe7;" horiz-adv-x="956" 
d="M941 833q-133 29 -199 29q-55 0 -94.5 -6t-69.5 -22t-50 -37t-35 -58t-24.5 -78t-19.5 -104q-18 -115 -18 -161q0 -84 46.5 -120t168.5 -36q69 0 205 28l-11 -237q-122 -32 -243 -41l-76 -96q55 -8 92.5 -41.5t37.5 -85.5q0 -7 -2 -21q-15 -92 -91 -136.5t-180 -44.5
q-96 0 -170 49l60 113q66 -37 127 -37q62 0 70 51q3 21 -13 36.5t-43.5 22.5t-53.5 10t-52 3l128 173q-89 4 -151.5 33t-96.5 80t-49 111t-15 137q0 87 19 210q18 114 43 196t67.5 152.5t103 113t149 66.5t206.5 24q164 0 295 -46z" />
    <glyph glyph-name="egrave" unicode="&#xe8;" horiz-adv-x="1139" 
d="M131 547q48 302 177.5 432t397.5 130q224 0 315 -88t91 -264q0 -81 -18 -197q-6 -34 -19 -94q-203 -37 -496 -55l-164 -9q-2 -22 -2 -31q0 -74 46.5 -102.5t148.5 -28.5q161 0 393 29l-12 -240q-262 -44 -483 -44q-108 0 -184.5 27t-121 78.5t-64.5 119t-20 156.5
q0 84 15 181zM441 618l151 8q111 5 206 18q2 6 4 21l3 15q5 35 5 57q0 65 -33.5 96.5t-108.5 31.5q-61 0 -102.5 -17.5t-66 -53.5t-37 -76t-21.5 -100zM775 1563l134 -334h-234l-204 334h304z" />
    <glyph glyph-name="eacute" unicode="&#xe9;" horiz-adv-x="1139" 
d="M131 547q48 302 178 432t398 130q115 0 194.5 -23.5t125 -70t65.5 -109t20 -148.5q0 -80 -18 -198q-8 -50 -18 -94q-216 -40 -496 -55l-165 -9q-2 -22 -2 -31q0 -74 46.5 -102.5t148.5 -28.5q161 0 393 29l-12 -240q-259 -44 -482 -44q-210 0 -300.5 99t-90.5 282
q0 85 15 181zM440 618l152 8q111 5 206 18q2 8 8 36q4 27 4 56q0 65 -33.5 97t-108.5 32q-61 0 -102.5 -17.5t-66 -53.5t-37 -76t-22.5 -100zM1141 1558l-310 -334h-233l238 334h305z" />
    <glyph glyph-name="ecircumflex" unicode="&#xea;" horiz-adv-x="1139" 
d="M131 547q48 302 177.5 432t397.5 130q224 0 315.5 -88t91.5 -263q0 -74 -19 -198q-6 -34 -19 -94q-217 -40 -496 -55l-164 -9q-2 -22 -2 -31q0 -74 46.5 -102.5t148.5 -28.5q161 0 393 29l-12 -240q-262 -44 -483 -44q-210 0 -300 99.5t-90 282.5q0 84 15 180zM440 618
l151 8q113 6 207 18q2 6 4 21l3 15q5 33 5 56q0 65 -34 97t-109 32q-61 0 -102.5 -17.5t-65.5 -53.5t-36.5 -75.5t-22.5 -100.5zM1067 1220h-220l-84 161l-138 -161h-216l298 336h162z" />
    <glyph glyph-name="edieresis" unicode="&#xeb;" horiz-adv-x="1139" 
d="M131 547q48 302 178 432t398 130q115 0 194.5 -23.5t125 -70t65.5 -109t20 -148.5q0 -80 -18 -198q-8 -50 -18 -94q-216 -40 -496 -55l-165 -9q-2 -22 -2 -31q0 -74 46.5 -102.5t148.5 -28.5q161 0 393 29l-12 -240q-259 -44 -483 -44q-108 0 -184.5 27t-121 78.5
t-64.5 119t-20 156.5q0 84 15 181zM418 1385q10 63 58.5 105t110.5 42q54 0 87.5 -34t33.5 -88q0 -16 -1 -25q-11 -63 -58.5 -105t-108.5 -42q-55 0 -89.5 34.5t-34.5 87.5q0 7 2 25zM841 1385q10 63 59 105t110 42q55 0 88.5 -34t33.5 -88q0 -7 -2 -25q-11 -63 -58.5 -105
t-108.5 -42q-55 0 -89.5 34.5t-34.5 87.5q0 7 2 25zM440 618l152 8q111 5 206 18q2 6 4 21l3 15q5 33 5 56q0 65 -33.5 97t-108.5 32q-61 0 -102.5 -17.5t-66 -53.5t-37 -76t-22.5 -100z" />
    <glyph glyph-name="igrave" unicode="&#xec;" horiz-adv-x="580" 
d="M74 0l174 1094h311l-174 -1094h-311zM316 1243l-204 334h306l133 -334h-235z" />
    <glyph glyph-name="iacute" unicode="&#xed;" horiz-adv-x="580" 
d="M74 0l174 1094h311l-174 -1094h-311zM303 1243l238 334h306l-311 -334h-233z" />
    <glyph glyph-name="icircumflex" unicode="&#xee;" horiz-adv-x="580" 
d="M397 1584h163l196 -335h-218l-85 161l-138 -161h-217zM74 0l174 1094h311l-174 -1094h-311z" />
    <glyph glyph-name="idieresis" unicode="&#xef;" horiz-adv-x="580" 
d="M218 1247q-55 0 -90 34.5t-35 87.5q0 7 2 25q10 63 58.5 105.5t110.5 42.5q54 0 88 -34.5t34 -88.5q0 -7 -2 -25q-11 -63 -58 -105t-108 -42zM640 1247q-55 0 -89.5 34.5t-34.5 88.5q0 16 1 24q10 63 59 105.5t111 42.5q54 0 88 -34.5t34 -88.5q0 -7 -2 -25
q-11 -63 -58.5 -105t-108.5 -42zM74 0l174 1094h310l-173 -1094h-311z" />
    <glyph glyph-name="eth" unicode="&#xf0;" horiz-adv-x="1139" 
d="M914 1436l180 63l64 -140l-167 -59q102 -222 102 -500q0 -126 -21 -253q-48 -306 -177.5 -434t-395.5 -128q-218 0 -315 84.5t-97 278.5q0 93 17 199q46 291 174.5 414t392.5 124q51 0 90 -11q-19 65 -51 127l-177 -63l-62 141l158 56q-22 33 -79 105l290 92
q31 -35 74 -96zM764 547q15 95 15 142q0 77 -32.5 108.5t-111.5 31.5q-106 0 -151 -58t-71 -224q-17 -107 -17 -166q0 -80 32 -110t110 -30q106 0 151.5 62.5t74.5 243.5z" />
    <glyph glyph-name="ntilde" unicode="&#xf1;" horiz-adv-x="1173" 
d="M496 686l-108 -686h-307l125 787q17 106 43 215q200 107 493 107q114 0 191.5 -18.5t119.5 -55.5t59.5 -84t17.5 -113q0 -56 -14 -147l-110 -691h-307l107 667q7 41 7 77q0 59 -33 84.5t-117 26.5q-82 0 -137 -22q-15 -55 -30 -147zM943 1537h154q-31 -134 -96.5 -207
t-135.5 -73q-34 0 -61 12t-43 28.5t-28.5 33.5t-24.5 29t-25 12q-44 0 -77 -110h-155q31 134 97 207.5t136 73.5q34 0 61 -12t43 -29t28 -34t24.5 -29t25.5 -12q44 0 77 110z" />
    <glyph glyph-name="ograve" unicode="&#xf2;" horiz-adv-x="1145" 
d="M526 -15q-219 0 -315.5 84.5t-96.5 278.5q0 93 17 199q48 306 177.5 434t395.5 128q219 0 316 -85t97 -279q0 -87 -18 -198q-49 -306 -178 -434t-395 -128zM440 547q-17 -107 -17 -166q0 -80 32 -110t110 -30q106 0 151.5 62.5t74.5 243.5q17 114 17 163q0 81 -32.5 112
t-110.5 31q-106 0 -151 -61.5t-74 -244.5zM657 1229l-204 334h306l133 -334h-235z" />
    <glyph glyph-name="oacute" unicode="&#xf3;" horiz-adv-x="1145" 
d="M527 -15q-219 0 -316 84.5t-97 278.5q0 93 17 199q49 306 178.5 434t394.5 128q219 0 316.5 -85t97.5 -279q0 -87 -18 -198q-49 -306 -178 -434t-395 -128zM791 547q17 114 17 163q0 81 -32 112t-110 31q-106 0 -151 -61.5t-74 -244.5q-18 -113 -18 -167q0 -79 32 -109
t110 -30q106 0 151.5 62.5t74.5 243.5zM565 1238l239 333h305l-310 -333h-234z" />
    <glyph glyph-name="ocircumflex" unicode="&#xf4;" horiz-adv-x="1145" 
d="M1117 745q0 -87 -18 -198q-49 -306 -178 -434t-395 -128q-219 0 -315.5 84.5t-96.5 278.5q0 93 17 199q49 307 178 434.5t395 127.5q219 0 316 -85t97 -279zM423 380q0 -80 31.5 -109.5t109.5 -29.5q107 0 152.5 62.5t74.5 243.5q16 107 16 163q0 81 -32 112t-110 31
q-106 0 -151 -61.5t-74 -244.5q-17 -107 -17 -167zM692 1562h163l198 -336h-220l-84 161l-138 -161h-217z" />
    <glyph glyph-name="otilde" unicode="&#xf5;" horiz-adv-x="1145" 
d="M917 1525h155q-31 -134 -97 -207.5t-136 -73.5q-34 0 -61 12t-43 29t-28.5 34t-24.5 29t-25 12q-44 0 -77 -110h-155q31 134 97 207.5t136 73.5q42 0 73.5 -18t46 -40t31 -40t31.5 -18q44 0 77 110zM1117 745q0 -87 -18 -198q-49 -306 -178 -434t-395 -128
q-218 0 -315 84.5t-97 278.5q0 93 17 199q49 306 178.5 434t394.5 128q219 0 316 -85t97 -279zM565 241q106 0 151.5 62.5t74.5 243.5q17 114 17 163q0 80 -32 111.5t-110 31.5q-106 0 -151.5 -61.5t-74.5 -244.5q-17 -107 -17 -166q0 -80 32 -110t110 -30z" />
    <glyph glyph-name="odieresis" unicode="&#xf6;" horiz-adv-x="1145" 
d="M526 -15q-218 0 -315 84.5t-97 278.5q0 93 17 199q49 306 178.5 434t394.5 128q219 0 316 -85t97 -279q0 -87 -18 -198q-48 -306 -177.5 -434t-395.5 -128zM423 381q0 -80 32 -110t110 -30q106 0 151.5 62.5t74.5 243.5q17 114 17 163q0 81 -32 112t-110 31
q-106 0 -151.5 -61.5t-74.5 -244.5q-17 -107 -17 -166zM516 1238q-55 0 -90 34.5t-35 87.5q0 7 2 25q10 63 58.5 105t110.5 42q54 0 88 -34t34 -88q0 -7 -2 -25q-11 -63 -58 -105t-108 -42zM938 1238q-55 0 -89.5 34.5t-34.5 87.5q0 7 2 25q10 63 59 105t110 42
q55 0 88.5 -33.5t33.5 -87.5q0 -8 -2 -26q-11 -63 -58.5 -105t-108.5 -42z" />
    <glyph glyph-name="divide" unicode="&#xf7;" horiz-adv-x="1149" 
d="M530 25q-60 0 -99 39t-39 99q0 10 2 28q11 70 66 118.5t123 48.5q61 0 100 -39.5t39 -99.5q0 -10 -2 -28q-10 -69 -66 -117.5t-124 -48.5zM522 984q0 9 2 27q11 69 66.5 117.5t122.5 48.5q61 0 100 -39.5t39 -99.5q0 -9 -2 -27q-11 -70 -66.5 -118t-123.5 -48
q-60 0 -99 39.5t-39 99.5zM104 473l40 256h996l-40 -256h-996z" />
    <glyph glyph-name="oslash" unicode="&#xf8;" horiz-adv-x="1145" 
d="M313 13l-103 -146l-107 75l97 137q-87 84 -87 268q0 86 18 200q49 306 178.5 434t395.5 128q128 0 212 -28l104 146l108 -75l-99 -138q88 -87 88 -269q0 -87 -18 -198q-49 -306 -178 -434t-395 -128q-129 0 -214 28zM807 702l-322 -449q31 -12 80 -12q106 0 151.5 62.5
t74.5 243.5q16 98 17 155h-1zM425 393l320 448q-27 12 -79 12q-106 0 -151 -61.5t-74 -244.5q-17 -108 -18 -154h2z" />
    <glyph glyph-name="ugrave" unicode="&#xf9;" horiz-adv-x="1169" 
d="M141 403l109 691h307l-105 -667q-8 -46 -8 -77q0 -59 32.5 -84.5t115.5 -25.5q82 0 134 21q15 55 30 147l109 686h307l-125 -786q-15 -95 -44 -215q-200 -108 -490 -108q-113 0 -190 18.5t-119 56t-59.5 84.5t-17.5 113q0 55 14 146zM654 1243l-204 334h305l132 -334
h-233z" />
    <glyph glyph-name="uacute" unicode="&#xfa;" horiz-adv-x="1168" 
d="M141 403l109 691h307l-106 -667q-7 -51 -7 -76q0 -59 32.5 -85t115.5 -26q82 0 134 21q15 55 30 147l109 686h306l-124 -786q-15 -95 -44 -215q-200 -108 -490 -108q-113 0 -190 18.5t-119 56t-59.5 84.5t-17.5 113q0 55 14 146zM592 1255l238 334h305l-310 -334h-233z
" />
    <glyph glyph-name="ucircumflex" unicode="&#xfb;" horiz-adv-x="1169" 
d="M251 1094h306l-105 -667q-8 -46 -8 -77q0 -59 32.5 -84.5t115.5 -25.5t134 21q15 55 30 147l109 686h307l-124 -786q-15 -95 -44 -215q-202 -108 -491 -108q-113 0 -190 18.5t-119 56t-59.5 84.5t-17.5 113q0 65 14 146zM409 1261l299 335h162l197 -335h-219l-84 161
l-138 -161h-217z" />
    <glyph glyph-name="udieresis" unicode="&#xfc;" horiz-adv-x="1169" 
d="M141 403l109 691h307l-105 -667q-7 -41 -7 -77q0 -59 32 -84.5t115 -25.5t134 21q15 55 30 147l109 686h307l-124 -786q-15 -95 -44 -215q-202 -108 -490 -108q-113 0 -190.5 18.5t-119.5 56t-59.5 84.5t-17.5 113q0 55 14 146zM527 1260q-55 0 -89.5 34.5t-34.5 87.5
q0 7 2 25q10 63 59 105.5t111 42.5q54 0 87.5 -34t33.5 -88q0 -8 -2 -26q-10 -63 -57.5 -105t-109.5 -42zM950 1260q-54 0 -89 35t-35 88q0 6 2 24q11 63 59.5 105.5t109.5 42.5q54 0 88 -34t34 -87l-3 -27q-10 -63 -57.5 -105t-108.5 -42z" />
    <glyph glyph-name="yacute" unicode="&#xfd;" horiz-adv-x="1133" 
d="M640 479l285 615h315l-736 -1497h-316l248 483l-268 1014h328zM599 1231l239 333h305l-310 -333h-234z" />
    <glyph glyph-name="thorn" unicode="&#xfe;" horiz-adv-x="1196" 
d="M13 -403l290 1835h310l-54 -339q90 16 175 16q214 0 314 -83.5t100 -285.5q0 -90 -17 -193q-25 -159 -71 -267.5t-118 -173.5t-165 -93t-221 -28q-80 0 -170 17l-64 -405h-309zM426 254q56 -17 115 -17q47 0 84.5 8.5t64 21.5t47.5 37.5t33.5 46t23 58.5t16 65t12.5 73
q15 98 15 142q0 83 -43 125.5t-155 42.5q-62 0 -120 -16z" />
    <glyph glyph-name="ydieresis" unicode="&#xff;" horiz-adv-x="1133" 
d="M537 1241q-55 0 -90 34.5t-35 87.5q0 8 2 26q10 63 59 105t111 42q54 0 87.5 -34t33.5 -87q0 -8 -2 -26q-11 -63 -58 -105.5t-108 -42.5zM960 1241q-55 0 -90 35t-35 89q0 8 2 24q10 63 58.5 105t110.5 42q54 0 88 -34t34 -88q0 -7 -2 -25q-10 -63 -57.5 -105.5
t-108.5 -42.5zM640 479l285 615h315l-736 -1497h-315l247 483l-268 1014h328z" />
    <glyph glyph-name="Abreve" unicode="&#x102;" horiz-adv-x="1356" 
d="M618 1815h167q0 -48 26.5 -80t78.5 -32t89 32t52 80h167q-29 -117 -113.5 -190t-218.5 -73q-127 0 -187.5 66t-60.5 174v23zM-35 0l601 1216q60 122 129 176t159 54q173 0 213 -230l209 -1216h-348l-43 327h-438l-144 -327h-338zM851 586l-66 505l-223 -505h289z" />
    <glyph glyph-name="abreve" unicode="&#x103;" horiz-adv-x="1109" 
d="M1064 749l-70 -441q-17 -106 -43 -215q-193 -108 -496 -108q-195 0 -285 66t-90 203q0 38 8 88q24 152 110 239.5t252 114.5q111 18 309 26q3 20 3 35q0 54 -35 77.5t-111 23.5q-155 0 -389 -30l12 237q249 44 436 44q87 0 154.5 -13t124 -43t86.5 -86.5t30 -136.5
q0 -38 -6 -81zM522 493q-63 -15 -91.5 -44.5t-39.5 -102.5q-2 -10 -2 -30q0 -49 33 -69t99 -20q94 0 156 22q15 55 30 147l19 120q-144 -9 -204 -23zM648 1534q-1 -55 25 -91.5t78 -36.5t89.5 36.5t53.5 91.5h167q-31 -134 -117.5 -217.5t-220.5 -83.5q-124 0 -184 72.5
t-60 190.5q0 12 2 38h167z" />
    <glyph glyph-name="Aogonek" unicode="&#x104;" horiz-adv-x="1356" 
d="M1182 -260l24 -109q-44 -32 -99.5 -51t-103.5 -19q-82 0 -132 40t-50 110q0 20 2 31q10 68 64.5 136.5t122.5 121.5h-81l-44 327h-438l-144 -327h-338l601 1216q60 121 129.5 175.5t159.5 54.5q172 0 212 -230l209 -1216h-104q-148 -128 -161 -214q-1 -7 -1 -21
q0 -61 54 -61q66 0 118 36zM562 586h290l-67 505z" />
    <glyph glyph-name="aogonek" unicode="&#x105;" horiz-adv-x="1110" 
d="M227 828l13 237q249 44 435 44q87 0 154.5 -13t124 -43t87 -86.5t30.5 -136.5q0 -30 -7 -81l-70 -441q-17 -106 -43 -215q-53 -30 -117 -52q-144 -123 -158 -212q-2 -14 -2 -21q0 -29 14.5 -45t40.5 -16q64 0 116 36l25 -109q-44 -32 -99.5 -51t-103.5 -19q-82 0 -132 40
t-50 110q0 21 2 31q16 98 130 209q-78 -9 -162 -9q-196 0 -285.5 66t-89.5 204q0 37 8 87q24 152 110 239.5t252 114.5q110 18 309 26q3 20 3 36q0 53 -35 76.5t-111 23.5q-155 0 -389 -30zM522 493q-63 -15 -91.5 -44.5t-39.5 -102.5q-2 -10 -2 -30q0 -49 33 -69t100 -20
q94 0 155 22q15 55 30 147l20 120q-145 -9 -205 -23z" />
    <glyph glyph-name="Cacute" unicode="&#x106;" horiz-adv-x="1136" 
d="M1022 32q-161 -47 -388 -47q-272 0 -386 105t-114 338q0 115 27 288q21 132 48 231.5t66.5 183.5t92 141t124.5 97t164 58.5t209 18.5q223 0 374 -47l-70 -262q-160 27 -300 27q-44 0 -81 -5t-67 -17t-54.5 -25.5t-44.5 -36t-35 -43t-27.5 -52.5t-21 -57.5t-17 -65.5
t-14 -70t-12.5 -76q-24 -151 -24 -220q0 -113 56.5 -170.5t200.5 -57.5q153 0 307 27zM1234 1821l-317 -270h-251l242 270h326z" />
    <glyph glyph-name="cacute" unicode="&#x107;" horiz-adv-x="956" 
d="M840 31q-177 -46 -377 -46q-99 0 -168 27.5t-106.5 78.5t-53.5 113t-16 143q0 86 19 210q18 114 43 196t67.5 152.5t103 113t149 66.5t206.5 24q166 0 295 -46l-61 -230q-133 29 -199 29t-111 -10t-75.5 -29.5t-50.5 -58.5t-32 -85t-24 -122q-18 -115 -18 -161
q0 -84 46 -120t169 -36q69 0 205 28zM1045 1561l-310 -334h-234l239 334h305z" />
    <glyph glyph-name="Ccaron" unicode="&#x10c;" horiz-adv-x="1136" 
d="M1022 32q-161 -47 -388 -47q-272 0 -386 105t-114 338q0 115 27 288q21 132 48 231.5t66.5 183.5t92 141t124.5 97t164 58.5t209 18.5q223 0 374 -47l-71 -262q-159 27 -299 27q-44 0 -81 -5t-67 -17t-54.5 -25.5t-44.5 -36t-35 -43t-27.5 -52.5t-21 -57.5t-17 -65.5
t-14 -70t-12.5 -76q-24 -151 -24 -220q0 -113 56.5 -170.5t200.5 -57.5q154 0 306 27zM850 1692l142 130h231l-306 -272h-174l-224 272h234z" />
    <glyph glyph-name="ccaron" unicode="&#x10d;" horiz-adv-x="956" 
d="M840 31q-177 -46 -377 -46q-99 0 -168 27.5t-106.5 78.5t-53.5 113t-16 143q0 96 19 210q18 114 43 195.5t67.5 152.5t102.5 113.5t148.5 66.5t206.5 24q167 0 296 -46l-61 -230q-133 29 -199 29t-111 -10t-75.5 -29.5t-50.5 -58.5t-32 -85t-24 -122q-18 -115 -18 -161
q0 -83 46.5 -119.5t168.5 -36.5q69 0 205 28zM698 1403l138 161h217l-299 -336h-163l-197 336h219z" />
    <glyph glyph-name="Dcaron" unicode="&#x10e;" horiz-adv-x="1341" 
d="M311 1403q218 43 474 43q152 0 256 -27t165 -83.5t87.5 -135.5t26.5 -192q0 -111 -28 -292q-20 -129 -45 -224t-63.5 -181.5t-92 -143.5t-129 -100t-177 -62.5t-232.5 -19.5q-256 0 -461 42zM601 1162l-142 -893q47 -7 100 -7q54 0 99 8t79.5 19t63.5 34t48.5 43t36.5 56
t27 61.5t20.5 72.5t15.5 76t14 84q24 160 24 217t-13 98t-43.5 73.5t-87.5 49t-140 16.5q-46 0 -102 -8zM849 1693l142 131h231l-306 -272h-174l-224 272h234z" />
    <glyph glyph-name="dcaron" unicode="&#x10f;" horiz-adv-x="1187" 
d="M865 1093l67 424h308l-191 -1209q-15 -95 -44 -215q-95 -54 -216.5 -81t-242.5 -27q-233 0 -338.5 83t-105.5 287q0 89 17 192q25 159 71 267.5t118 173.5t165 93t221 28q86 0 171 -16zM710 857q-47 0 -84.5 -8.5t-64 -21.5t-47.5 -37t-33.5 -46.5t-23.5 -59t-16.5 -64.5
t-12.5 -73q-14 -96 -14 -140q0 -81 38 -126.5t134 -45.5q86 0 140 21q15 55 30 147l69 438q-53 16 -115 16zM1663 1517l-228 -425h-180l164 425h244z" />
    <glyph glyph-name="Dcroat" unicode="&#x110;" horiz-adv-x="1382" 
d="M229 632h-105l34 210h104l89 561q218 43 475 43q152 0 255.5 -26.5t165 -83.5t87.5 -136t26 -192q0 -119 -27 -292q-20 -129 -45 -224t-63.5 -181.5t-92 -143.5t-129 -100t-177 -62.5t-232.5 -19.5q-257 0 -460 42zM557 632l-57 -363q47 -7 100 -7q54 0 99 8t79.5 19
t63.5 34t48.5 43t36.5 56t27 61.5t20.5 72.5t15.5 76t14 84q24 158 24 217q0 117 -62.5 177t-222.5 60q-46 0 -102 -8l-51 -320h198l-34 -210h-197z" />
    <glyph glyph-name="dcroat" unicode="&#x111;" horiz-adv-x="1187" 
d="M685 1215l27 170h198l22 132h309l-21 -132h128l-28 -170h-127l-144 -907q-17 -106 -43 -215q-95 -54 -217 -81t-243 -27q-233 0 -338.5 83t-105.5 287q0 89 17 192q25 159 70.5 267.5t117.5 173.5t165 93t222 28q87 0 170 -16l19 122h-198zM710 857q-47 0 -84.5 -8.5
t-64 -21.5t-47.5 -37.5t-33.5 -46t-23 -58.5t-16 -65t-12.5 -73q-15 -103 -15 -140q0 -81 38 -126.5t134 -45.5q86 0 140 21q14 58 29 147l69 438q-51 16 -114 16z" />
    <glyph glyph-name="Eogonek" unicode="&#x118;" horiz-adv-x="1166" 
d="M1154 1161h-399q-102 0 -137 -31.5t-51 -132.5l-21 -135h536l-43 -269h-536l-25 -156q-7 -41 -7 -74q0 -54 30.5 -72.5t112.5 -18.5h399l-42 -263q-39 -3 -121 -6q-151 -128 -164 -217q-1 -7 -1 -20q0 -28 14.5 -45t39.5 -17q65 0 118 37l23 -109q-43 -32 -98.5 -51
t-103.5 -19q-82 0 -132.5 40t-50.5 110q0 14 3 31q10 67 63 134.5t120 120.5q-82 -2 -105 -2q-59 0 -99 1.5t-91 7t-84.5 16.5t-69 31t-56 48t-33.5 69.5t-13 95.5q0 49 8 94l113 716q9 57 25.5 104t36 81.5t49 62t57 45.5t67 31t72 20t79.5 10.5t81.5 4.5t85.5 1
q194 0 392 -11z" />
    <glyph glyph-name="eogonek" unicode="&#x119;" horiz-adv-x="1140" 
d="M131 547q48 302 178 432t398 130q115 0 195 -23.5t125.5 -70t65.5 -109t20 -148.5q0 -80 -18 -198q-7 -44 -20 -94q-217 -40 -495 -55l-165 -9q-2 -22 -2 -31q0 -74 46.5 -102.5t148.5 -28.5q162 0 394 29l-13 -240q-104 -17 -194 -28q-141 -121 -155 -209q-2 -14 -2 -20
q0 -28 14.5 -44.5t40.5 -16.5q65 0 117 36l24 -109q-44 -32 -99.5 -51t-102.5 -19q-82 0 -132.5 40t-50.5 110q0 14 3 31q18 113 162 239q-51 -3 -108 -3q-108 0 -184.5 27t-121 78.5t-64.5 119t-20 156.5q0 85 15 181zM441 618l150 8q114 6 207 18q2 8 8 36q4 27 4 56
q0 65 -33.5 97t-108.5 32q-61 0 -102.5 -17.5t-66 -53.5t-37 -76t-21.5 -100z" />
    <glyph glyph-name="Ecaron" unicode="&#x11a;" horiz-adv-x="1166" 
d="M138 359l113 716q9 57 25.5 104t36 81.5t49 62t57 45.5t67 31t72 20t79.5 10.5t81.5 4.5t85.5 1q194 0 392 -11l-42 -263h-399q-103 0 -137.5 -31.5t-50.5 -132.5l-21 -135h536l-43 -269h-536l-25 -156q-7 -41 -7 -74q0 -54 30.5 -72.5t112.5 -18.5h399l-42 -263
q-247 -13 -395 -13q-59 0 -99 1.5t-91 7t-84.5 16.5t-69 31t-56 48t-33.5 69.5t-13 95.5q0 49 8 94zM481 1819h235l96 -131l142 131h231l-306 -272h-174z" />
    <glyph glyph-name="ecaron" unicode="&#x11b;" horiz-adv-x="1138" 
d="M131 547q48 302 177.5 432t397.5 130q115 0 195 -23.5t125.5 -70t65.5 -109t20 -148.5q0 -80 -18 -198q-6 -34 -19 -94q-217 -40 -496 -55l-165 -9q-2 -20 -2 -30q0 -75 46.5 -103.5t149.5 -28.5q161 0 393 29l-12 -240q-262 -44 -483 -44q-108 0 -184.5 27t-121 78.5
t-64.5 119t-20 156.5q0 84 15 181zM440 618l151 8q113 6 207 18q2 6 4 21l3 15q5 35 5 57q0 65 -33.5 96.5t-109.5 31.5q-61 0 -102.5 -17.5t-65.5 -53.5t-36.5 -75.5t-22.5 -100.5zM745 1397l139 161h216l-298 -336h-162l-198 336h219z" />
    <glyph glyph-name="Gbreve" unicode="&#x11e;" horiz-adv-x="1296" 
d="M697 560l41 260h516l-85 -537q-8 -52 -23.5 -94t-40 -72t-51 -52.5t-65.5 -36.5t-74 -23t-86.5 -13t-93 -5.5t-102.5 -1.5q-271 0 -384.5 105t-113.5 338q0 115 27 288q21 133 47.5 233t66.5 184.5t92 141t124 96t163.5 57.5t208.5 18q255 0 454 -46l-69 -259
q-167 26 -380 26q-48 0 -89 -7.5t-72 -19t-57.5 -33t-45 -42t-34.5 -54.5t-26 -61.5t-20 -72t-16 -77t-14 -84.5q-24 -151 -24 -222q0 -115 56 -172.5t199 -57.5q89 0 119 26t41 96l28 174h-217zM617 1812h166q-1 -48 26 -80t80 -32q52 0 88.5 32t51.5 80h167
q-30 -117 -113.5 -190t-217.5 -73q-126 0 -187.5 65.5t-61.5 171.5q0 17 1 26z" />
    <glyph glyph-name="gbreve" unicode="&#x11f;" horiz-adv-x="1181" 
d="M60 -368l62 235q227 -33 386 -33q185 0 210 175l3 17q-90 -16 -175 -16q-215 0 -315.5 83t-100.5 282q0 84 16 184q25 157 72.5 263t123 169.5t174 90.5t234.5 27q121 0 234 -26.5t191 -80.5q-7 -96 -25 -215l-133 -840q-13 -85 -47.5 -150t-81 -105t-109.5 -65.5
t-128 -35t-143 -9.5q-196 0 -448 50zM456 559q-14 -94 -14 -131q0 -81 43 -123.5t155 -42.5q63 0 121 16l65 413q13 79 16 147q-46 21 -132 21q-55 0 -97 -18.5t-67.5 -45t-44.5 -69.5t-28 -79.5t-17 -87.5zM528 1534h167q-1 -55 25 -91.5t78 -36.5t89.5 36.5t53.5 91.5h167
q-32 -134 -118 -217.5t-220 -83.5q-124 0 -183.5 72.5t-59.5 191.5q0 24 1 37z" />
    <glyph glyph-name="Idotaccent" unicode="&#x130;" horiz-adv-x="618" 
d="M366 1656q0 17 1 26q10 65 61 109t115 44q57 0 92 -35.5t35 -91.5q0 -17 -1 -26q-11 -65 -60.5 -109.5t-113.5 -44.5q-57 0 -93 36t-36 92zM87 0l227 1432h329l-226 -1432h-330z" />
    <glyph glyph-name="dotlessi" unicode="&#x131;" horiz-adv-x="580" 
d="M74 0l174 1094h311l-174 -1094h-311z" />
    <glyph glyph-name="Lacute" unicode="&#x139;" horiz-adv-x="1043" 
d="M144 359l171 1073h328l-158 -995q-8 -46 -8 -74q0 -54 30.5 -72.5t113.5 -18.5h376l-41 -265q-264 -11 -373 -11q-59 0 -99 1.5t-91 7t-84.5 16.5t-69 31t-56 48t-34 69.5t-13.5 95.5q0 49 8 94zM941 1822l-318 -270h-251l242 270h327z" />
    <glyph glyph-name="lacute" unicode="&#x13a;" horiz-adv-x="564" 
d="M296 1517h309l-192 -1213q-7 -49 -7 -78q0 -77 41 -155l-296 -131q-62 94 -62 217q0 56 10 116zM583 1880h326l-318 -271h-250z" />
    <glyph glyph-name="Lcaron" unicode="&#x13d;" horiz-adv-x="1043" 
d="M144 359l171 1073h328l-158 -995q-8 -46 -8 -74q0 -54 30.5 -72.5t113.5 -18.5h376l-42 -265q-261 -11 -372 -11q-59 0 -99 1.5t-91 7t-84.5 16.5t-69 31t-56 48t-34 69.5t-13.5 95.5q0 49 8 94zM1116 1432l-228 -426h-180l164 426h244z" />
    <glyph glyph-name="lcaron" unicode="&#x13e;" horiz-adv-x="564" 
d="M99 273l197 1244h309l-192 -1213q-7 -49 -7 -78q0 -79 40 -155l-295 -131q-63 93 -63 217q0 48 11 116zM620 1092l163 425h245l-229 -425h-179z" />
    <glyph glyph-name="Lslash" unicode="&#x141;" horiz-adv-x="1131" 
d="M292 743l109 689h329l-74 -466l339 208l-36 -228l-339 -208l-48 -301q-7 -41 -7 -74q0 -54 30.5 -72.5t112.5 -18.5h376l-41 -265q-264 -11 -373 -11q-59 0 -99 1.5t-91 7t-84.5 16.5t-69 31t-56 48t-34 69.5t-13.5 95.5q0 49 8 94l25 156l-191 -117l36 229z" />
    <glyph glyph-name="lslash" unicode="&#x142;" horiz-adv-x="664" 
d="M554 811l-80 -507q-7 -49 -7 -77q0 -78 41 -156l-296 -131q-62 91 -62 218q0 55 10 115l46 297l-197 -136l38 236l197 136l113 711h309l-74 -471l205 143l-38 -236z" />
    <glyph glyph-name="Nacute" unicode="&#x143;" horiz-adv-x="1435" 
d="M748 1229l259 -772l154 975h297l-189 -1190q-40 -257 -237 -257q-90 0 -141.5 47t-92.5 172l-257 774l-155 -978h-296l189 1191q40 255 236 255q84 0 138.5 -49.5t94.5 -167.5zM987 1819h327l-319 -270h-249z" />
    <glyph glyph-name="nacute" unicode="&#x144;" horiz-adv-x="1173" 
d="M496 686l-108 -686h-307l125 787q17 106 43 215q200 107 493 107q114 0 191.5 -18.5t119.5 -55.5t59.5 -84t17.5 -113q0 -56 -14 -147l-110 -691h-307l106 667q7 41 7 77q0 59 -33 84.5t-117 26.5q-81 0 -136 -22q-15 -55 -30 -147zM586 1232l237 334h306l-310 -334h-233
z" />
    <glyph glyph-name="Ncaron" unicode="&#x147;" horiz-adv-x="1435" 
d="M748 1229l258 -772l155 975h296l-188 -1190q-40 -257 -237 -257q-89 0 -140.5 47t-93.5 172l-257 774l-155 -978h-296l189 1191q40 255 235 255q84 0 139 -49.5t95 -167.5zM595 1815h235l96 -131l142 131h231l-306 -273h-174z" />
    <glyph glyph-name="ncaron" unicode="&#x148;" horiz-adv-x="1173" 
d="M496 686l-108 -686h-307l125 787q18 118 42 215q200 107 494 107q114 0 191.5 -18.5t119.5 -55.5t59.5 -84t17.5 -113q0 -56 -14 -147l-110 -691h-307l106 667q7 41 7 77q0 59 -33 84.5t-117 26.5q-81 0 -136 -22q-15 -55 -30 -147zM462 1562h219l84 -161l138 161h217
l-298 -336h-163z" />
    <glyph glyph-name="Ohungarumlaut" unicode="&#x150;" horiz-adv-x="1346" 
d="M614 -15q-258 0 -368.5 103.5t-110.5 337.5q0 115 27 290q32 201 79.5 334t127.5 224.5t195 131.5t281 40q258 0 368.5 -103.5t110.5 -337.5q0 -114 -27 -289q-32 -201 -79.5 -334t-127.5 -225t-195 -132t-281 -40zM964 716q29 188 29 253q0 100 -42.5 150t-147.5 50
q-38 0 -70 -7t-57 -18.5t-46 -33t-36 -41.5t-29 -54t-22.5 -61.5t-18 -72.5t-15.5 -78t-14 -87q-29 -188 -29 -253q0 -100 42.5 -149.5t147.5 -49.5q38 0 70 7t56.5 18t46 32.5t36.5 41.5t28.5 54t22.5 61t18.5 72.5t15 78.5zM498 1556l231 271h318l-305 -271h-244z
M922 1556l232 271h317l-305 -271h-244z" />
    <glyph glyph-name="ohungarumlaut" unicode="&#x151;" horiz-adv-x="1145" 
d="M526 -15q-218 0 -315 84.5t-97 278.5q0 93 17 199q49 307 178 434.5t395 127.5q219 0 316 -85t97 -279q0 -87 -18 -198q-48 -306 -177.5 -434t-395.5 -128zM423 381q0 -80 32 -110t110 -30q106 0 151.5 62.5t74.5 243.5q17 112 17 163q0 81 -32.5 112t-110.5 31
q-106 0 -151 -61.5t-74 -244.5q-17 -107 -17 -166zM371 1245l229 334h296l-298 -334h-227zM767 1245l229 334h296l-297 -334h-228z" />
    <glyph glyph-name="OE" unicode="&#x152;" horiz-adv-x="1935" 
d="M1923 1161h-399q-71 0 -106.5 -14t-52.5 -47t-29 -103l-22 -135h537l-43 -269h-536l-25 -156q-7 -41 -7 -74q0 -53 30.5 -72t112.5 -19h399l-41 -263q-247 -13 -396 -13q-136 0 -222.5 13.5t-141.5 59.5q-137 -84 -368 -84q-258 0 -368 103.5t-110 337.5q0 115 27 290
q32 201 79.5 334t127.5 224.5t195 131.5t281 40q229 0 340 -83q69 46 160 59t228 13q193 0 391 -11zM466 463q0 -100 42.5 -149.5t147.5 -49.5q48 0 87 12t66.5 29.5t50.5 52.5t36.5 65.5t27 86t21 95.5t18.5 111q29 188 29 254q0 99 -41.5 149t-146.5 50q-38 0 -70 -7
t-57 -18.5t-46.5 -33t-36.5 -41.5t-29 -54t-22.5 -61.5t-18 -72.5t-15.5 -78t-14 -87q-29 -188 -29 -253z" />
    <glyph glyph-name="oe" unicode="&#x153;" horiz-adv-x="1799" 
d="M1021 1019q125 90 345 90q224 0 315.5 -88t91.5 -263q0 -84 -19 -198q-6 -34 -19 -94q-217 -40 -496 -55l-164 -9q-2 -22 -2 -31q0 -74 46.5 -102.5t148.5 -28.5q161 0 393 29l-12 -240q-259 -44 -483 -44q-197 0 -290 93q-124 -93 -350 -93q-219 0 -316 84.5t-97 277.5
q0 87 18 200q49 307 178 434.5t395 127.5q221 0 317 -90zM808 710q0 81 -32 112t-110 31q-107 0 -152 -61.5t-74 -244.5q-17 -107 -17 -166q0 -80 32 -110t110 -30q106 0 151.5 62.5t74.5 243.5q17 114 17 163zM1100 618l152 8q112 6 205 18q2 4 8 36q5 33 5 56q0 65 -34 97
t-109 32q-60 0 -101.5 -17.5t-66 -53.5t-37 -76t-22.5 -100z" />
    <glyph glyph-name="Racute" unicode="&#x154;" horiz-adv-x="1304" 
d="M499 528l-84 -528h-327l222 1405q215 41 473 41q92 0 162 -7.5t137.5 -29.5t111 -59.5t70 -100t26.5 -147.5q0 -60 -9 -114q-28 -176 -107 -277t-207 -146l224 -565h-374l-193 522q-29 1 -125 6zM542 797q46 -6 139 -6q123 0 189.5 43t84.5 155q5 33 5 54
q0 74 -48.5 106.5t-163.5 32.5q-65 0 -147 -10zM1225 1823l-317 -270h-251l241 270h327z" />
    <glyph glyph-name="racute" unicode="&#x155;" horiz-adv-x="737" 
d="M494 675l-108 -675h-306l125 787q17 106 43 215q95 54 216.5 80.5t243.5 26.5q67 0 117 -7l-66 -253q-42 4 -71 4q-100 0 -165 -31q-14 -58 -29 -147zM624 1567h306l-310 -334h-234z" />
    <glyph glyph-name="Rcaron" unicode="&#x158;" horiz-adv-x="1304" 
d="M499 528l-84 -528h-327l222 1405q215 41 473 41q92 0 161.5 -7.5t137.5 -29.5t111.5 -59t70 -99.5t26.5 -147.5q0 -61 -9 -115q-28 -177 -107 -277.5t-207 -145.5l224 -565h-374l-193 522q-29 1 -125 6zM542 797q46 -6 139 -6q123 0 189.5 43t84.5 155q5 33 5 54
q0 74 -48.5 106.5t-163.5 32.5q-65 0 -147 -10zM856 1693l141 131h232l-306 -272h-174l-224 272h234z" />
    <glyph glyph-name="rcaron" unicode="&#x159;" horiz-adv-x="736" 
d="M386 0h-306l125 787q17 106 43 215q189 107 459 107q67 0 117 -7l-65 -253q-42 4 -72 4q-100 0 -165 -31q-12 -46 -29 -147zM506 1562l84 -161l138 161h216l-298 -336h-162l-197 336h219z" />
    <glyph glyph-name="Sacute" unicode="&#x15a;" horiz-adv-x="1121" 
d="M525 1018q0 -22 5 -38.5t21 -30.5t26.5 -22t43.5 -19.5t48.5 -16t62.5 -18.5q173 -49 249 -127t76 -212q0 -42 -10 -109q-38 -234 -187 -337t-411 -103q-208 0 -413 48l73 263q222 -34 368 -34q106 0 162 33t69 116q2 10 2 28q0 58 -41.5 87t-139.5 62q-86 29 -143 56
t-104.5 67t-70 94.5t-22.5 127.5q0 48 8 93q36 230 177 325t399 95q204 0 409 -49l-71 -256q-189 34 -314 34q-52 0 -86 -3t-78.5 -14t-71 -38t-33.5 -70q-3 -18 -3 -32zM1185 1827l-317 -270h-250l241 270h326z" />
    <glyph glyph-name="sacute" unicode="&#x15b;" horiz-adv-x="987" 
d="M487 791q-3 -18 2.5 -33t14.5 -24.5t28 -19t33 -14.5t40.5 -13.5t39.5 -13.5q123 -45 163 -67q98 -57 111 -164q2 -19 2 -40q0 -27 -7 -76q-15 -97 -58 -165t-109.5 -105.5t-142.5 -54t-170 -16.5q-216 0 -387 51l65 234q173 -37 294 -37h35t34.5 1.5t36.5 4.5t31 9
t29 14.5t19 22t12 31.5q3 20 -1.5 35t-12 24.5t-25 18.5t-29 13t-36.5 11.5t-36 11.5q-51 17 -84.5 29.5t-76 37.5t-67.5 52.5t-42.5 71t-17.5 96.5q0 35 5 64q52 328 441 328q205 0 398 -49l-65 -228q-159 34 -271 34q-33 0 -52 -0.5t-48.5 -4.5t-46.5 -11.5t-31.5 -22.5
t-17.5 -36zM1066 1573l-310 -334h-234l239 334h305z" />
    <glyph glyph-name="Scedilla" unicode="&#x15e;" horiz-adv-x="1122" 
d="M624 -2l-81 -104q55 -8 92.5 -41.5t37.5 -85.5q0 -14 -1 -21q-15 -92 -91.5 -136.5t-180.5 -44.5q-96 0 -170 49l60 113q66 -37 127 -37q63 0 71 51q4 21 -12 36.5t-44.5 22.5t-54.5 10t-52 3l128 172h-3q-207 0 -414 48l73 263q222 -34 369 -34q106 0 161.5 33t68.5 116
q2 10 2 28q0 57 -41.5 87t-138.5 62q-87 29 -143.5 56t-104.5 67t-70.5 95t-22.5 128q0 47 8 92q37 230 178 325t399 95q203 0 408 -49l-70 -256q-191 34 -314 34q-52 0 -86.5 -3t-79 -14t-71 -38t-33.5 -70q-2 -12 -2 -32q0 -22 5 -38.5t20.5 -30.5t26.5 -22t43.5 -19.5
t49 -16.5t62.5 -18q173 -49 248.5 -127t75.5 -212q0 -49 -9 -109q-31 -192 -137 -295t-287 -132z" />
    <glyph glyph-name="scedilla" unicode="&#x15f;" horiz-adv-x="986" 
d="M576 -4l-80 -102q55 -8 92.5 -42t37.5 -86q0 -7 -2 -21q-15 -92 -91 -136.5t-180 -44.5q-97 0 -170 49l60 114q68 -38 127 -38q62 0 70 51q3 21 -13 36.5t-43.5 22.5t-53.5 10t-52 3l128 174q-205 3 -361 50l67 234q173 -37 293 -37h35t34.5 1.5t37 4.5t31.5 9t29 14.5
t19 22t12 31.5q3 20 -1.5 35t-12 24.5t-25 18.5t-29.5 13t-36.5 11.5t-36.5 11.5q-51 17 -84.5 29.5t-76 37.5t-67.5 52.5t-42.5 71t-17.5 96.5q0 35 5 64q52 328 441 328q205 0 400 -49l-66 -228q-159 34 -271 34q-33 0 -52 -0.5t-48.5 -4.5t-46.5 -11.5t-31.5 -22.5
t-17.5 -36q-3 -18 2.5 -33t14 -24.5t28 -19t33 -14.5t40.5 -13.5t40 -13.5q123 -45 161 -67q99 -56 112 -162q3 -20 3 -42q0 -27 -7 -76q-46 -282 -338 -330z" />
    <glyph glyph-name="Scaron" unicode="&#x160;" horiz-adv-x="1122" 
d="M710 439q0 58 -41.5 87.5t-138.5 61.5q-87 29 -143.5 56t-104.5 67t-70.5 95t-22.5 128q0 47 8 92q36 230 177 325t399 95q207 0 409 -49l-70 -256q-191 34 -315 34q-41 0 -68 -1t-66 -8t-63.5 -19.5t-45.5 -37t-26 -59.5q-3 -18 -3 -32q0 -22 5 -38.5t21 -30.5t27 -22
t43.5 -19.5t48.5 -16.5t63 -18q173 -49 248.5 -126.5t75.5 -211.5q0 -43 -10 -110q-37 -234 -186.5 -337t-411.5 -103q-206 0 -413 48l73 263q222 -34 369 -34q106 0 161.5 33t68.5 116q2 10 2 28zM792 1698l142 131h231l-306 -273h-174l-224 273h234z" />
    <glyph glyph-name="scaron" unicode="&#x161;" horiz-adv-x="987" 
d="M487 791q-3 -18 2.5 -33t14 -24.5t28 -19t33 -14.5t40.5 -13.5t40 -13.5q123 -45 161 -66q99 -57 113 -162q3 -20 3 -43q0 -27 -7 -76q-15 -97 -58.5 -165t-109.5 -105.5t-142.5 -54t-170.5 -16.5q-217 0 -388 51l66 234q173 -37 294 -37h35t34.5 1.5t36.5 4.5t31 9
t29 14.5t19 22t12 31.5q3 20 -1.5 35t-12 24.5t-25 18.5t-29.5 13t-36.5 11.5t-36.5 11.5q-36 12 -60 20.5t-57 23.5t-55 29.5t-45.5 37t-38 47t-23.5 57.5t-9 72q0 35 5 64q52 328 442 328q204 0 399 -49l-65 -228q-159 34 -272 34q-33 0 -52 -0.5t-48.5 -4.5t-46.5 -11.5
t-31.5 -22.5t-17.5 -36zM673 1403l139 161h216l-299 -336h-162l-196 336h218z" />
    <glyph glyph-name="uni0162" unicode="&#x162;" horiz-adv-x="1058" 
d="M1195 1432l-43 -274h-333l-183 -1158h-329l183 1158h-330l44 274h991zM194 -511l151 395h228l-212 -395h-167z" />
    <glyph glyph-name="uni0163" unicode="&#x163;" horiz-adv-x="817" 
d="M379 1352l314 51l-48 -309h207l-38 -242h-208l-81 -512q-3 -18 -3 -32q0 -81 95 -81q54 0 101 4l-12 -224q-123 -22 -210 -22q-150 0 -220.5 58t-70.5 176q0 37 8 85l86 548h-168l39 242h168zM154 -519l151 395h228l-212 -395h-167z" />
    <glyph glyph-name="Tcaron" unicode="&#x164;" horiz-adv-x="1058" 
d="M1195 1432l-43 -274h-333l-184 -1158h-329l184 1158h-330l43 274h992zM406 1802h234l97 -131l141 131h232l-306 -272h-174z" />
    <glyph glyph-name="tcaron" unicode="&#x165;" horiz-adv-x="817" 
d="M379 1352l315 51l-49 -309h207l-38 -242h-208l-81 -512q-3 -18 -3 -32q0 -81 95 -81q55 0 100 4l-11 -224q-123 -22 -210 -22q-150 0 -220.5 57.5t-70.5 176.5q0 37 8 85l86 548h-168l39 242h168zM764 1224l163 425h244l-228 -425h-179z" />
    <glyph glyph-name="Uring" unicode="&#x16e;" horiz-adv-x="1345" 
d="M1375 1432l-149 -942q-19 -118 -57.5 -206.5t-92 -145t-127 -91t-154 -48.5t-182.5 -14q-111 0 -193 17.5t-145.5 58t-95.5 113t-32 177.5q0 63 12 139l149 942h323l-151 -958q-6 -37 -6 -67q0 -75 42 -106.5t141 -31.5q116 0 170 46t72 159l152 958h324zM1103 1756
q0 -17 -3 -35q-14 -90 -86.5 -153.5t-160.5 -63.5q-79 0 -130.5 52t-51.5 130q0 17 3 35q13 89 86.5 153t161.5 64q79 0 130 -52t51 -130zM789 1721q-7 -42 17.5 -71t64.5 -29q41 0 74 29t40 71q6 42 -17.5 71t-64.5 29q-40 0 -73.5 -29.5t-40.5 -70.5z" />
    <glyph glyph-name="uring" unicode="&#x16f;" horiz-adv-x="1168" 
d="M141 403l109 691h307l-106 -667q-7 -51 -7 -76q0 -59 32.5 -85t115.5 -26q82 0 134 21q15 55 30 147l109 686h306l-124 -786q-15 -95 -44 -215q-200 -108 -490 -108q-113 0 -190 18.5t-119 56t-59.5 84.5t-17.5 113q0 55 14 146zM726 1187q-79 0 -130.5 52.5t-51.5 130.5
q0 17 3 35q14 89 87 153t161 64q79 0 130 -52t51 -130q0 -17 -3 -35q-14 -90 -86.5 -154t-160.5 -64zM745 1305q41 0 73.5 29t39.5 71q7 41 -17 70.5t-64 29.5q-41 0 -74.5 -29.5t-40.5 -70.5q-7 -42 18 -71t65 -29z" />
    <glyph glyph-name="Uhungarumlaut" unicode="&#x170;" horiz-adv-x="1345" 
d="M1375 1432l-149 -942q-19 -118 -57.5 -206.5t-92 -145t-127 -91t-154 -48.5t-182.5 -14q-111 0 -193 17.5t-145.5 58t-95.5 113t-32 177.5q0 63 12 139l149 942h323l-151 -958q-6 -37 -6 -67q0 -75 42 -106.5t141 -31.5q116 0 170.5 46t72.5 159l151 958h324zM483 1559
l232 270h317l-304 -270h-245zM907 1559l232 270h317l-305 -270h-244z" />
    <glyph glyph-name="uhungarumlaut" unicode="&#x171;" horiz-adv-x="1168" 
d="M141 403l109 691h307l-105 -667q-8 -46 -8 -77q0 -59 32.5 -84.5t115.5 -25.5t134 21q15 55 30 147l109 686h306l-124 -786q-15 -95 -44 -215q-200 -108 -489 -108q-114 0 -191 18.5t-119 55.5t-59.5 84t-17.5 113q0 56 14 147zM398 1261l229 334h297l-298 -334h-228z
M794 1261l229 334h297l-298 -334h-228z" />
    <glyph glyph-name="Ydieresis" unicode="&#x178;" horiz-adv-x="1247" 
d="M610 1523q-55 0 -90 34.5t-35 87.5q0 7 2 25q10 63 59 105.5t111 42.5q54 0 88 -34t34 -87l-3 -27q-11 -63 -58 -105t-108 -42zM1032 1523q-55 0 -89.5 34.5t-34.5 88.5q0 6 2 24q10 63 59 105.5t110 42.5q55 0 88.5 -34t33.5 -87q0 -9 -2 -27q-10 -63 -57.5 -105
t-109.5 -42zM818 551l-87 -551h-329l88 551l-314 881h355l177 -547l361 547h341z" />
    <glyph glyph-name="Zacute" unicode="&#x179;" horiz-adv-x="1142" 
d="M1151 1185l-669 -905h558l-45 -280h-800q-166 0 -166 106q0 7 2 23q10 55 56 117l672 907h-527l45 279h768q164 0 164 -105q0 -8 -2 -24q-9 -55 -56 -118zM594 1542l240 270h327l-318 -270h-249z" />
    <glyph glyph-name="zacute" unicode="&#x17a;" horiz-adv-x="1073" 
d="M1045 883l-536 -624h446l-41 -259h-753q-54 0 -84 23.5t-30 64.5q0 5 2 19q8 48 57 106l540 633h-440l39 248h744q53 0 83.5 -23.5t30.5 -64.5q0 -6 -2 -18q-8 -48 -56 -105zM548 1243l239 334h305l-310 -334h-234z" />
    <glyph glyph-name="Zdotaccent" unicode="&#x17b;" horiz-adv-x="1142" 
d="M1151 1185l-669 -905h557l-44 -280h-800q-166 0 -166 106q0 7 2 23q10 55 56 117l672 907h-527l44 279h768q165 0 165 -105q0 -8 -2 -24q-9 -55 -56 -118zM629 1656q0 5 1.5 15t1.5 11q10 65 60.5 109t114.5 44q57 0 92 -35t35 -91q0 -9 -2 -27q-11 -65 -60 -109
t-113 -44q-57 0 -93.5 35.5t-36.5 91.5z" />
    <glyph glyph-name="zdotaccent" unicode="&#x17c;" horiz-adv-x="1074" 
d="M1046 883l-536 -624h445l-41 -259h-752q-54 0 -84.5 23.5t-30.5 64.5q0 5 2 19q8 48 57 106l541 633h-441l39 248h745q53 0 83.5 -23.5t30.5 -64.5q0 -6 -2 -18q-8 -48 -56 -105zM867 1402q0 -8 -2 -26q-11 -65 -60.5 -109.5t-113.5 -44.5q-57 0 -93 35.5t-36 91.5
q0 9 2 27q10 65 61 109t115 44q57 0 92 -35.5t35 -91.5z" />
    <glyph glyph-name="Zcaron" unicode="&#x17d;" horiz-adv-x="1142" 
d="M1151 1185l-669 -905h557l-44 -280h-800q-166 0 -166 106q0 7 2 23q10 55 56 117l672 907h-527l45 279h767q165 0 165 -105q0 -8 -2 -24q-9 -55 -56 -118zM460 1813h234l97 -131l142 131h231l-306 -272h-173z" />
    <glyph glyph-name="zcaron" unicode="&#x17e;" horiz-adv-x="1073" 
d="M1045 883l-536 -624h446l-41 -259h-753q-54 0 -84 23.5t-30 64.5q0 7 2 19q8 48 57 106l540 633h-440l39 248h744q53 0 83.5 -23.5t30.5 -64.5q0 -6 -2 -18q-8 -48 -56 -105zM426 1578h220l84 -161l139 161h216l-298 -336h-163z" />
    <glyph glyph-name="florin" unicode="&#x192;" horiz-adv-x="1030" 
d="M373 900l22 167q23 173 134 254.5t285 81.5q95 0 183 -17l-33 -242q-62 9 -108 9t-77.5 -16t-49 -48t-26 -63.5t-15.5 -78.5l-7 -47h251l-32 -239h-251l-68 -504q-30 -220 -151.5 -327.5t-338.5 -107.5q-49 0 -89 5l32 240h36q97 0 144 44t58 130l69 520h-216l32 239h216
z" />
    <glyph glyph-name="uni0218" unicode="&#x218;" horiz-adv-x="1122" 
d="M711 439q0 58 -41.5 87t-139.5 62q-87 29 -143.5 56t-104.5 66.5t-70.5 94.5t-22.5 128q0 48 8 93q36 230 177.5 325t399.5 95q203 0 408 -49l-70 -256q-191 34 -315 34q-41 0 -68 -1t-66 -8t-63.5 -19.5t-45.5 -37t-26 -59.5q-3 -18 -3 -32q0 -22 5 -38.5t21 -30.5
t27 -22t43.5 -19.5t48.5 -16.5t63 -18q173 -49 248.5 -126.5t75.5 -211.5q0 -43 -10 -110q-37 -234 -186.5 -337t-411.5 -103q-206 0 -413 48l74 263q222 -34 368 -34q106 0 161.5 33t68.5 116q3 15 3 28zM645 -122l-212 -395h-166l151 395h227z" />
    <glyph glyph-name="uni0219" unicode="&#x219;" horiz-adv-x="987" 
d="M487 791q-3 -18 2.5 -33t14 -24.5t28 -19t33 -14.5t40.5 -13.5t40 -13.5q123 -45 161 -67q99 -56 112 -162q3 -20 3 -42q0 -27 -7 -76q-15 -97 -58 -165t-109.5 -105.5t-142.5 -54t-170 -16.5q-216 0 -389 51l67 234q173 -37 294 -37h35t34.5 1.5t36.5 4.5t31 9t29 14.5
t19 22t12 31.5q3 20 -1.5 35t-12 24.5t-25 18.5t-29.5 13t-36.5 11.5t-36.5 11.5q-36 12 -60 20.5t-57 23.5t-55 29.5t-45.5 37t-38 47t-23.5 57.5t-9 72q0 35 5 64q52 328 442 328q204 0 399 -49l-65 -228q-161 34 -272 34q-33 0 -52 -0.5t-48.5 -4.5t-46.5 -11.5
t-31.5 -22.5t-17.5 -36zM594 -117l-212 -395h-167l152 395h227z" />
    <glyph glyph-name="uni021A" unicode="&#x21a;" horiz-adv-x="1058" 
d="M1214 1432l-43 -274h-332l-183 -1158h-330l183 1158h-329l44 274h990zM214 -511l151 395h227l-212 -395h-166z" />
    <glyph glyph-name="uni021B" unicode="&#x21b;" horiz-adv-x="817" 
d="M399 1352l314 51l-49 -309h208l-38 -242h-208l-82 -512q-2 -12 -2 -32q0 -81 95 -81q53 0 100 4l-11 -224q-123 -22 -210 -22q-150 0 -220.5 58t-70.5 176q0 43 7 85l87 548h-168l38 242h169zM174 -519l151 395h227l-212 -395h-166z" />
    <glyph glyph-name="circumflex" unicode="&#x2c6;" horiz-adv-x="753" 
d="M424 1485h162l197 -335h-218l-84 161l-139 -161h-217z" />
    <glyph glyph-name="caron" unicode="&#x2c7;" horiz-adv-x="702" 
d="M152 1485h219l85 -161l138 161h216l-298 -335h-162z" />
    <glyph glyph-name="uni02C9" unicode="&#x2c9;" horiz-adv-x="863" 
d="M203 1204l30 190h632l-31 -190h-631z" />
    <glyph glyph-name="breve" unicode="&#x2d8;" horiz-adv-x="666" 
d="M171 1468h167q-2 -55 24 -91.5t78 -36.5t89.5 36.5t53.5 91.5h167q-32 -134 -117.5 -218t-219.5 -84q-124 0 -183.5 72t-59.5 192q0 25 1 38z" />
    <glyph glyph-name="dotaccent" unicode="&#x2d9;" horiz-adv-x="438" 
d="M300 1161q-57 0 -93.5 35.5t-36.5 91.5q0 5 1.5 15t1.5 11q10 65 60.5 109t114.5 44q57 0 92.5 -35.5t35.5 -90.5q0 -9 -2 -27q-11 -65 -60.5 -109t-113.5 -44z" />
    <glyph glyph-name="ring" unicode="&#x2da;" horiz-adv-x="559" 
d="M601 1374q0 -17 -3 -35q-14 -90 -87 -154t-161 -64q-78 0 -129.5 52.5t-51.5 130.5q0 17 3 35q13 89 86.5 153t161.5 64q79 0 130 -52t51 -130zM369 1239q41 0 74 29t40 71q7 41 -17 70.5t-65 29.5q-40 0 -73.5 -29.5t-40.5 -70.5q-7 -42 17 -71t65 -29z" />
    <glyph glyph-name="ogonek" unicode="&#x2db;" horiz-adv-x="435" 
d="M186 0h162q-155 -131 -169 -221q-1 -7 -1 -19q0 -62 54 -62q65 0 117 36l24 -109q-43 -32 -98.5 -51t-103.5 -19q-82 0 -132 39.5t-50 109.5q0 21 2 32q11 70 68.5 141t126.5 123z" />
    <glyph glyph-name="tilde" unicode="&#x2dc;" horiz-adv-x="754" 
d="M649 1448h155q-31 -134 -97 -207.5t-136 -73.5q-42 0 -73.5 18t-45.5 39.5t-30.5 39.5t-31.5 18q-45 0 -78 -110h-155q31 134 97 207.5t136 73.5q42 0 73.5 -18t46 -39.5t31 -39.5t31.5 -18q44 0 77 110z" />
    <glyph glyph-name="hungarumlaut" unicode="&#x2dd;" horiz-adv-x="930" 
d="M128 1143l230 334h296l-298 -334h-228zM524 1143l230 334h296l-297 -334h-229z" />
    <glyph glyph-name="uni03A9" unicode="&#x3a9;" horiz-adv-x="1568" 
d="M1212 743q8 46 8 91q0 97 -30.5 178.5t-99.5 136t-167 54.5q-166 0 -290 -133.5t-156 -329.5q-8 -48 -8 -106q0 -149 61.5 -269t156.5 -183l-29 -182h-627l38 243h218q-117 175 -117 390q0 64 10 127q48 300 271 493t512 193q131 0 239 -44.5t178 -122t108 -179.5
t38 -218q0 -56 -9 -115q-46 -295 -273 -524h217l-39 -243h-625l29 182q139 77 247.5 223t138.5 338z" />
    <glyph glyph-name="uni03BC" unicode="&#x3bc;" horiz-adv-x="1289" 
d="M1185 186l-32 -201q-129 0 -200 44t-92 112q-68 -84 -137.5 -120t-155.5 -36q-99 0 -150 57l-71 -445h-284l237 1497h286l-104 -654q-5 -30 -5 -52q0 -71 34.5 -113.5t98.5 -42.5q115 0 175.5 100t90.5 289l75 473h285l-104 -664q-15 -94 -15 -131q0 -89 68 -113z" />
    <glyph glyph-name="pi" unicode="&#x3c0;" horiz-adv-x="1386" 
d="M1396 847h-232q-42 -137 -73 -333q-8 -45 -8 -95q0 -208 194 -208l-57 -226q-100 0 -176.5 16t-125.5 43.5t-79.5 69.5t-43 90t-12.5 109q0 60 11 132q29 187 91 402h-210q-132 -592 -252 -847h-307q92 200 153.5 391t125.5 454h-30q-50 0 -89 -13t-95 -43l-43 168
q148 137 373 137h951z" />
    <glyph glyph-name="uni200A" unicode="&#x200a;" horiz-adv-x="44" 
 />
    <glyph glyph-name="uni2010" unicode="&#x2010;" horiz-adv-x="785" 
d="M146 423l39 243h539l-38 -243h-540z" />
    <glyph glyph-name="endash" unicode="&#x2013;" horiz-adv-x="1211" 
d="M146 428l37 232h968l-37 -232h-968z" />
    <glyph glyph-name="emdash" unicode="&#x2014;" horiz-adv-x="2146" 
d="M146 428l37 232h1902l-36 -232h-1903z" />
    <glyph glyph-name="quoteleft" unicode="&#x2018;" horiz-adv-x="535" 
d="M121 966l296 551h234l-211 -551h-319z" />
    <glyph glyph-name="quoteright" unicode="&#x2019;" horiz-adv-x="535" 
d="M121 966l211 551h318l-295 -551h-234z" />
    <glyph glyph-name="quotesinglbase" unicode="&#x201a;" horiz-adv-x="558" 
d="M1 -250l211 551h318l-296 -551h-233z" />
    <glyph glyph-name="quotedblleft" unicode="&#x201c;" horiz-adv-x="970" 
d="M121 966l296 551h233l-211 -551h-318zM556 966l296 551h233l-211 -551h-318z" />
    <glyph glyph-name="quotedblright" unicode="&#x201d;" horiz-adv-x="970" 
d="M121 966l211 551h319l-296 -551h-234zM557 966l210 551h318l-295 -551h-233z" />
    <glyph glyph-name="quotedblbase" unicode="&#x201e;" horiz-adv-x="993" 
d="M1 -250l211 551h318l-296 -551h-233zM436 -250l211 551h318l-295 -551h-234z" />
    <glyph glyph-name="dagger" unicode="&#x2020;" horiz-adv-x="1143" 
d="M544 1116l55 344h307l-54 -344h352l-43 -269h-352l-175 -1105h-306l174 1105h-348l43 269h347z" />
    <glyph glyph-name="daggerdbl" unicode="&#x2021;" horiz-adv-x="1188" 
d="M351 -258l103 651h-347l42 266h347l37 232h-347l43 270h347l47 299h305l-47 -299h350l-42 -270h-351l-37 -232h351l-42 -266h-351l-103 -651h-305z" />
    <glyph glyph-name="bullet" unicode="&#x2022;" horiz-adv-x="745" 
d="M372 401q-119 0 -202.5 84t-83.5 203t83.5 202.5t202.5 83.5t203 -84t84 -202q0 -119 -84 -203t-203 -84z" />
    <glyph glyph-name="ellipsis" unicode="&#x2026;" horiz-adv-x="1839" 
d="M262 -15q-86 0 -121 25t-35 88q0 33 5 62q16 99 59.5 136t145.5 37q86 0 122 -25t36 -87q0 -27 -6 -61q-16 -100 -59.5 -137.5t-146.5 -37.5zM904 -15q-86 0 -121 25t-35 87q0 27 6 63q16 99 59.5 136t145.5 37q85 0 120.5 -25t35.5 -87q0 -32 -5 -61
q-15 -100 -59 -137.5t-147 -37.5zM1547 -15q-86 0 -121.5 25t-35.5 88q0 33 5 62q16 99 59.5 136t146.5 37q86 0 121.5 -25t35.5 -87q0 -27 -6 -61q-16 -100 -59 -137.5t-146 -37.5z" />
    <glyph glyph-name="perthousand" unicode="&#x2030;" horiz-adv-x="2491" 
d="M414 585q-147 0 -207 59.5t-60 187.5q0 69 18 180q18 115 42 189t67.5 130.5t110 82t164.5 25.5q147 0 207.5 -59.5t60.5 -188.5q0 -68 -18 -179q-18 -114 -42.5 -188.5t-68 -131t-110 -82t-164.5 -25.5zM586 1012q18 110 18 156q0 50 -18 75.5t-62 25.5q-25 0 -44 -7.5
t-33.5 -26t-24 -36t-18 -53t-13 -61t-12.5 -73.5q-19 -118 -19 -158q0 -50 18 -74.5t62 -24.5q30 0 52 13t36 31.5t25.5 56.5t17.5 68.5t15 87.5zM1302 -7q-147 0 -207 59.5t-60 187.5q0 75 17 180q18 114 42.5 188.5t67.5 131t110 82t165 25.5q147 0 207 -59.5t60 -187.5
q0 -75 -17 -180q-18 -114 -42.5 -188.5t-68 -131t-110 -82t-164.5 -25.5zM1473 420q19 118 19 157q0 50 -18.5 75t-62.5 25q-25 0 -44 -7.5t-33.5 -26t-24 -36t-18 -53t-13 -61t-12.5 -73.5q-19 -118 -19 -158q0 -50 18.5 -74.5t62.5 -24.5q25 0 44 7.5t33.5 26t24 36t18 53
t13 61t12.5 73.5zM2040 -7q-147 0 -207 59.5t-60 187.5q0 75 17 180q18 114 42.5 188.5t67.5 131t110 82t165 25.5q147 0 207 -60t60 -189q0 -62 -17 -178q-18 -114 -42.5 -188.5t-68 -131t-110 -82t-164.5 -25.5zM1985 263q0 -50 18.5 -75t62.5 -25q25 0 44 7.5t33.5 26
t24 36t18 53t13 61t12.5 73.5q18 110 18 156q0 50 -18 75.5t-62 25.5q-17 0 -31.5 -4t-25.5 -10t-21 -18.5t-16.5 -23t-13.5 -31t-11 -34.5t-9.5 -41.5t-8.5 -44.5t-8 -50q-19 -118 -19 -157zM292 -29l1059 1490h207l-1060 -1490h-206z" />
    <glyph glyph-name="guilsinglleft" unicode="&#x2039;" horiz-adv-x="696" 
d="M398 530l201 -428h-279l-229 428l364 427h279z" />
    <glyph glyph-name="guilsinglright" unicode="&#x203a;" horiz-adv-x="696" 
d="M689 530l-365 -428h-279l338 428l-202 427h279z" />
    <glyph glyph-name="fraction" unicode="&#x2044;" horiz-adv-x="321" 
d="M-415 -29l1059 1490h206l-1058 -1490h-207z" />
    <glyph glyph-name="uni2070" unicode="&#x2070;" horiz-adv-x="767" 
d="M817 1432q0 -75 -17 -180q-18 -114 -42.5 -188.5t-68 -131t-110 -81.5t-164.5 -25q-147 0 -207 59.5t-60 187.5q0 63 17 179q14 91 32 155t47 118.5t69.5 86.5t99 49.5t137.5 17.5q147 0 207 -59.5t60 -187.5zM361 1095q0 -50 18 -74.5t62 -24.5q30 0 52 13t36 31
t25.5 56t17.5 68.5t15 87.5q18 110 18 157q0 50 -18 75.5t-62 25.5q-25 0 -44.5 -7.5t-33.5 -26t-23.5 -36.5t-18 -53t-13.5 -61t-13 -74q-18 -112 -18 -157z" />
    <glyph glyph-name="uni2074" unicode="&#x2074;" horiz-adv-x="745" 
d="M432 833l28 180h-234q-63 0 -89.5 20.5t-26.5 59.5q0 7 2 25q8 56 85 140l308 335q47 51 81.5 68t79.5 17q41 0 66.5 -23t25.5 -67q0 -12 -3 -27l-61 -383h95l-26 -165h-95l-29 -180h-207zM520 1387l-185 -209h152z" />
    <glyph glyph-name="uni2075" unicode="&#x2075;" horiz-adv-x="711" 
d="M398 1378q12 1 34 1q70 0 120 -8t93 -29t65 -62.5t22 -103.5q0 -37 -5 -68q-23 -147 -114.5 -213.5t-251.5 -66.5q-145 0 -274 33l48 164q146 -22 216 -22q81 0 113.5 22.5t44.5 95.5q8 55 -31 73t-124 18q-113 0 -192 -5l105 465h531l-28 -178h-345z" />
    <glyph glyph-name="uni2076" unicode="&#x2076;" horiz-adv-x="750" 
d="M804 1674l-9 -161h-47h-46q-45 0 -76 -1.5t-72 -9.5t-68.5 -22.5t-51 -41.5t-32.5 -65q66 8 106 8q137 0 206 -44t69 -157q0 -32 -6 -73q-13 -83 -45 -140t-82.5 -88t-109 -43.5t-136.5 -12.5q-145 0 -205.5 58.5t-60.5 174.5q0 51 11 119q16 99 34.5 169.5t47.5 129.5
t67.5 95.5t94 61.5t125.5 35.5t165 10.5q7 0 121 -3zM350 1086q0 -92 78 -92q69 0 97.5 24.5t39.5 91.5q3 16 3 30q0 45 -26 62t-79 17q-47 0 -96 -7q-7 -30 -11 -56q-6 -36 -6 -70z" />
    <glyph glyph-name="uni2077" unicode="&#x2077;" horiz-adv-x="657" 
d="M763 1516l-407 -681h-235l419 656h-368l28 180h483q58 0 85 -25.5t20 -69.5q-4 -24 -25 -60z" />
    <glyph glyph-name="uni2078" unicode="&#x2078;" horiz-adv-x="746" 
d="M406 826q-137 0 -211 44.5t-74 149.5q0 28 4 55q10 67 47 110t105 82q-83 54 -83 147q0 13 4 47q34 218 343 218q277 0 277 -177q0 -18 -3 -41q-11 -70 -41 -112t-99 -79q45 -31 68 -66.5t23 -87.5q0 -19 -3 -40q-12 -75 -44 -125.5t-82 -77t-105 -37t-126 -10.5z
M333 1058q0 -37 25.5 -51.5t73.5 -14.5q109 0 123 86q4 24 4 31q0 36 -28 53t-103 26q-79 -21 -93 -110q-2 -14 -2 -20zM396 1418q0 -32 27 -49.5t98 -21.5q42 12 63 32t27 61q2 14 2 18q0 34 -25 46.5t-72 12.5q-52 0 -81.5 -16t-36.5 -61q-2 -16 -2 -22z" />
    <glyph glyph-name="uni2079" unicode="&#x2079;" horiz-adv-x="750" 
d="M170 1398q13 84 45 141t82.5 87.5t109 43t136.5 12.5q145 0 205.5 -58t60.5 -173q0 -52 -11 -121q-24 -149 -56.5 -240t-93.5 -152.5t-151.5 -85.5t-232.5 -24q-8 0 -121 3l8 161h47h46q45 0 76 1.5t72 9.5t68.5 22.5t51 41.5t32.5 65q-56 -7 -105 -7q-138 0 -207 43.5
t-69 156.5q0 26 7 73zM519 1512q-69 0 -98 -25.5t-40 -91.5q-2 -11 -2 -30q0 -45 26 -62t79 -17q46 0 95 7q8 36 11 56q7 42 7 70q0 93 -78 93z" />
    <glyph glyph-name="uni2080" unicode="&#x2080;" horiz-adv-x="767" 
d="M817 358q0 -75 -17 -180q-18 -114 -42.5 -188.5t-68 -131t-110 -81.5t-164.5 -25q-147 0 -207 59.5t-60 187.5q0 63 17 179q14 91 32 155t47 118.5t69.5 86.5t99 49.5t137.5 17.5q147 0 207 -59.5t60 -187.5zM361 21q0 -50 18 -74.5t62 -24.5q30 0 52 13t36 31t25.5 56
t17.5 68.5t15 87.5q18 110 18 157q0 50 -18 75.5t-62 25.5q-25 0 -44.5 -7.5t-33.5 -26t-23.5 -36.5t-18 -53t-13.5 -61t-13 -74q-18 -112 -18 -157z" />
    <glyph glyph-name="uni2081" unicode="&#x2081;" horiz-adv-x="504" 
d="M234 -239l100 627q-71 -15 -174 -25l17 167q130 19 239 67h161l-132 -836h-211z" />
    <glyph glyph-name="uni2082" unicode="&#x2082;" horiz-adv-x="714" 
d="M219 572q164 32 291 32q128 0 200 -39.5t72 -137.5q0 -21 -3 -47q-19 -115 -90.5 -191t-204.5 -126q-67 -25 -97 -52.5t-44 -71.5h365l-28 -180h-604q77 232 133 317t205 145q73 29 106 56t40 70q2 14 2 20q0 37 -33 49.5t-121 12.5q-80 0 -195 -21z" />
    <glyph glyph-name="uni2083" unicode="&#x2083;" horiz-adv-x="699" 
d="M255 112l25 156q91 1 194 17q60 9 70 78q7 43 -18.5 56.5t-80.5 13.5q-61 0 -235 -21l4 161q158 32 271 32q48 0 86.5 -4t76.5 -16t63 -31t40.5 -51.5t15.5 -75.5q0 -14 -4 -48q-20 -121 -130 -178q90 -41 90 -132q0 -13 -4 -43q-24 -150 -116.5 -212t-255.5 -62
q-96 0 -267 32l49 164q146 -20 215 -20q76 0 110.5 18.5t43.5 73.5q2 18 2 24q0 52 -54 60q-65 8 -166 8h-25z" />
    <glyph glyph-name="uni2084" unicode="&#x2084;" horiz-adv-x="745" 
d="M432 -241l28 180h-234q-63 0 -89.5 20t-26.5 59q0 8 2 26q8 56 85 140l308 335q47 51 81.5 68t79.5 17q41 0 66.5 -23t25.5 -67q0 -12 -3 -27l-61 -383h95l-26 -165h-95l-29 -180h-207zM520 313l-185 -209h152z" />
    <glyph glyph-name="uni2085" unicode="&#x2085;" horiz-adv-x="711" 
d="M398 304q12 1 34 1q70 0 120 -8t93 -29t65 -62.5t22 -103.5q0 -37 -5 -68q-23 -147 -114.5 -213.5t-251.5 -66.5q-145 0 -274 33l48 164q146 -22 216 -22q81 0 113.5 22.5t44.5 95.5q8 55 -31 73t-124 18q-113 0 -192 -5l105 465h531l-28 -178h-345z" />
    <glyph glyph-name="uni2086" unicode="&#x2086;" horiz-adv-x="750" 
d="M804 600l-9 -161h-47h-46q-45 0 -76 -1.5t-72 -9.5t-68.5 -22.5t-51 -41.5t-32.5 -65q66 8 106 8q137 0 206 -44t69 -157q0 -32 -6 -73q-13 -83 -45 -140t-82.5 -88t-109 -43.5t-136.5 -12.5q-145 0 -205.5 58.5t-60.5 174.5q0 51 11 119q16 99 34.5 169.5t47.5 129.5
t67.5 95.5t94 61.5t125.5 35.5t165 10.5q7 0 121 -3zM350 12q0 -92 78 -92q69 0 97.5 24.5t39.5 91.5q3 16 3 30q0 45 -26 62t-79 17q-47 0 -96 -7q-7 -30 -11 -56q-6 -36 -6 -70z" />
    <glyph glyph-name="uni2087" unicode="&#x2087;" horiz-adv-x="657" 
d="M763 442l-407 -681h-235l419 656h-368l28 180h483q58 0 85 -25.5t20 -69.5q-4 -24 -25 -60z" />
    <glyph glyph-name="uni2088" unicode="&#x2088;" horiz-adv-x="746" 
d="M406 -248q-137 0 -211 44.5t-74 149.5q0 28 4 55q10 67 47 110t105 82q-83 54 -83 147q0 13 4 47q34 218 343 218q277 0 277 -177q0 -18 -3 -41q-11 -70 -41 -112t-99 -79q45 -31 68 -66.5t23 -87.5q0 -19 -3 -40q-12 -75 -44 -125.5t-82 -77t-105 -37t-126 -10.5z
M333 -16q0 -37 25.5 -51.5t73.5 -14.5q109 0 123 86q4 24 4 31q0 36 -28 53t-103 26q-79 -21 -93 -110q-2 -14 -2 -20zM396 343q0 -32 26.5 -49t98.5 -21q42 12 63 32t27 61q2 14 2 17q0 34 -25 47t-72 13q-52 0 -81.5 -16t-36.5 -61q-2 -16 -2 -23z" />
    <glyph glyph-name="uni2089" unicode="&#x2089;" horiz-adv-x="750" 
d="M170 324q13 84 45 141t82.5 87.5t109 43t136.5 12.5q145 0 205.5 -58t60.5 -173q0 -52 -11 -121q-24 -149 -56.5 -240t-93.5 -152.5t-151.5 -85.5t-232.5 -24q-8 0 -121 3l8 161h14.5h17h15.5h46q45 0 76 1.5t72 9.5t68.5 22.5t51 41.5t32.5 65q-56 -7 -105 -7
q-138 0 -207 43.5t-69 156.5q0 26 7 73zM519 438q-69 0 -98 -25.5t-40 -91.5q-2 -11 -2 -30q0 -45 26 -62t79 -17q46 0 95 7q8 36 11 56q7 42 7 70q0 93 -78 93z" />
    <glyph glyph-name="Euro" unicode="&#x20ac;" horiz-adv-x="1100" 
d="M912 651l-61 -165h-309q-1 -9 -1 -25q0 -100 42.5 -150.5t147.5 -50.5q123 0 249 28l-16 -256q-143 -47 -326 -47q-223 0 -317 96t-94 309q0 28 4 96h-142l61 165h99l15 92h-121l62 166h94q65 262 192.5 378t371.5 116q186 0 311 -48l-64 -253q-125 27 -242 27
q-109 0 -167.5 -55.5t-90.5 -164.5h398l-62 -166h-371l-8 -49q-1 -8 -3.5 -22.5t-3.5 -20.5h352z" />
    <glyph glyph-name="uni2113" unicode="&#x2113;" horiz-adv-x="1060" 
d="M119 301l-56 160l201 125q20 124 36.5 212t42.5 190.5t54 173t69.5 139.5t90 110t114 66.5t144.5 25.5q116 0 175.5 -68t59.5 -178q0 -30 -7 -74q-48 -307 -513 -647q-6 -70 -6 -129q0 -114 29.5 -170t100.5 -56q45 0 103 34t142 105l89 -123q-191 -212 -412 -212
q-316 0 -327 389zM767 1316q-26 0 -49 -20t-41 -58t-32.5 -81.5t-27.5 -101.5t-22 -106.5t-19 -107.5q-3 -16 -4 -24q105 99 165 188t75 185q5 33 5 53q0 73 -50 73z" />
    <glyph glyph-name="trademark" unicode="&#x2122;" horiz-adv-x="1946" 
d="M1798 573h-189v542h-1l-212 -542h-125l-212 542h-1v-542h-189v859h252l215 -547l212 547h250v-859zM751 1432v-166h-250v-693h-189v693h-249v166h688z" />
    <glyph glyph-name="Omega" unicode="&#x2126;" horiz-adv-x="1568" 
d="M1212 743q8 46 8 91q0 97 -30.5 178.5t-99.5 136t-167 54.5q-166 0 -290 -133.5t-156 -329.5q-8 -48 -8 -106q0 -149 61.5 -269t156.5 -183l-29 -182h-627l38 243h218q-117 175 -117 390q0 64 10 127q48 300 271 493t512 193q131 0 239 -44.5t178 -122t108 -179.5
t38 -218q0 -56 -9 -115q-46 -295 -273 -524h217l-39 -243h-625l29 182q139 77 247.5 223t138.5 338z" />
    <glyph glyph-name="estimated" unicode="&#x212e;" horiz-adv-x="1652" 
d="M1349 305h127q-125 -153 -282 -236.5t-366 -83.5q-163 0 -302.5 51.5t-236.5 141t-151.5 214t-54.5 266.5q0 134 53 255.5t147 214.5t236 148t309 55q171 0 308.5 -51t228.5 -142.5t144 -212.5t66 -267h-1166v-455q172 -145 419 -145q326 0 521 247zM409 1112v-381h840
v381q-185 147 -421 147q-250 0 -419 -147z" />
    <glyph glyph-name="uni2190" unicode="&#x2190;" horiz-adv-x="1384" 
d="M567 473l294 -369h-293l-464 498l464 496h293l-294 -369h809v-256h-809z" />
    <glyph glyph-name="uni2191" unicode="&#x2191;" horiz-adv-x="1106" 
d="M729 775v-810h-256v810l-369 -295v294l496 464l497 -464v-294z" />
    <glyph glyph-name="uni2192" unicode="&#x2192;" horiz-adv-x="1384" 
d="M1376 602l-464 -498h-294l295 369h-809v256h809l-295 369h294z" />
    <glyph glyph-name="uni2193" unicode="&#x2193;" horiz-adv-x="1106" 
d="M1097 723v-294l-497 -464l-496 464v294l369 -295v810h255v-810z" />
    <glyph glyph-name="uni21E8" unicode="&#x21e8;" horiz-adv-x="1637" 
d="M954 323h-838v558h838v341l641 -620l-641 -621v342zM1453 602l-399 379v-201h-839v-357h839v-201z" />
    <glyph glyph-name="partialdiff" unicode="&#x2202;" horiz-adv-x="1126" 
d="M375 1209l-25 186q190 122 374 122q200 0 297.5 -128.5t97.5 -360.5q0 -107 -19 -224q-38 -241 -131.5 -425.5t-236.5 -289t-315 -104.5q-170 0 -257.5 101.5t-87.5 260.5q0 42 8 95q38 237 191 384t378 147q94 0 168 -58q5 58 5 99q0 279 -182 279q-70 0 -131 -19.5
t-134 -64.5zM376 363q0 -72 24.5 -118t73.5 -46q52 0 99.5 40t84 107.5t64 143t47.5 159.5q-25 50 -58 77t-85 27q-90 0 -156.5 -91.5t-86.5 -219.5q-7 -46 -7 -79z" />
    <glyph glyph-name="Delta" unicode="&#x2206;" horiz-adv-x="1390" 
d="M1300 168l-27 -168h-1270l26 165l692 1267h297zM976 237l-176 800l-433 -800h609z" />
    <glyph glyph-name="product" unicode="&#x220f;" horiz-adv-x="1586" 
d="M1713 1475l-41 -257h-218l-237 -1490h-308l237 1490h-413l-236 -1490h-308l236 1490h-220l40 257h1468z" />
    <glyph glyph-name="summation" unicode="&#x2211;" horiz-adv-x="1271" 
d="M251 1475h1118l-39 -249h-706l348 -597l-584 -636h778l-42 -265h-1171l28 177l637 696l-395 691z" />
    <glyph glyph-name="minus" unicode="&#x2212;" horiz-adv-x="1149" 
d="M104 473l40 256h996l-40 -256h-996z" />
    <glyph glyph-name="uni2215" unicode="&#x2215;" horiz-adv-x="321" 
d="M-415 -29l1059 1490h206l-1058 -1490h-207z" />
    <glyph glyph-name="uni2219" unicode="&#x2219;" horiz-adv-x="596" 
d="M160 526q0 26 6 61q16 99 60 136.5t146 37.5q85 0 120.5 -25.5t35.5 -87.5q0 -26 -6 -61q-16 -100 -59 -137t-146 -37q-86 0 -121.5 25t-35.5 88z" />
    <glyph glyph-name="radical" unicode="&#x221a;" horiz-adv-x="1187" 
d="M1380 1761l-723 -1890h-245l-144 810l-144 -54l-30 200l409 155l97 -613l526 1392h254z" />
    <glyph glyph-name="infinity" unicode="&#x221e;" horiz-adv-x="1684" 
d="M124 602q24 153 142.5 268.5t266.5 115.5q184 0 321 -190q46 48 79 79t81 70t90 62t94.5 39t104.5 16q163 0 252 -105t89 -265q0 -47 -7 -90q-19 -123 -82 -226.5t-168 -169.5t-230 -66q-52 0 -99.5 16t-82 38.5t-70.5 61t-59 70t-54 78.5q-194 -185 -380 -185
q-132 0 -212.5 92.5t-80.5 225.5q0 37 5 65zM495 746q-51 0 -90 -39t-49 -105q-2 -12 -2 -34q0 -51 26.5 -80t69.5 -29q91 0 230 143q-94 144 -185 144zM1265 821q-114 0 -296 -219q113 -220 226 -220q74 0 130.5 58t73.5 162q4 27 4 56q0 77 -37.5 120t-100.5 43z" />
    <glyph glyph-name="integral" unicode="&#x222b;" horiz-adv-x="798" 
d="M943 1422q-58 51 -129 51q-42 0 -75 -28t-55 -79.5t-35.5 -105t-24.5 -123.5q-25 -159 -58 -479.5t-60 -489.5q-11 -72 -32 -141t-59.5 -143t-89 -129.5t-125.5 -91t-163 -35.5q-57 0 -122 22.5t-100 49.5l83 200q58 -49 152 -49q78 0 117.5 76t66.5 249q25 155 61.5 492
t60.5 487q86 534 478 534q101 0 194 -70z" />
    <glyph glyph-name="approxequal" unicode="&#x2248;" horiz-adv-x="1314" 
d="M482 569q65 0 122.5 -19.5t94 -42.5t89.5 -42.5t110 -19.5q79 0 165.5 31t154.5 92l-39 -255q-67 -61 -154 -91.5t-168 -30.5q-53 0 -100 12.5t-81.5 31t-68.5 36.5t-76 30.5t-89 12.5q-80 0 -166.5 -30.5t-154.5 -91.5q26 170 40 255q68 61 154.5 91.5t166.5 30.5z
M968 888q80 0 166.5 30.5t154.5 91.5q-14 -85 -40 -255q-67 -61 -154 -91.5t-168 -30.5q-53 0 -100 12.5t-81.5 30.5t-68.5 36.5t-76 31t-89 12.5q-81 0 -168 -30.5t-154 -91.5l41 255q68 60 154.5 91t166.5 31q53 0 100 -12.5t82 -30.5t68.5 -36.5t76 -31t89.5 -12.5z" />
    <glyph glyph-name="notequal" unicode="&#x2260;" horiz-adv-x="1253" 
d="M121 253l41 255h357l110 187h-438l41 255h547l166 284h201l-167 -284h249l-41 -255h-357l-110 -187h438l-41 -255h-547l-166 -284h-201l166 284h-248z" />
    <glyph glyph-name="lessequal" unicode="&#x2264;" horiz-adv-x="1263" 
d="M156 667l32 199l1099 396l-41 -260l-682 -235l607 -235l-41 -261zM41 -60l41 255h1036l-41 -255h-1036z" />
    <glyph glyph-name="greaterequal" unicode="&#x2265;" horiz-adv-x="1264" 
d="M165 532l682 235l-607 235l41 260l974 -396l-32 -199l-1099 -396zM71 -60l41 255h1037l-41 -255h-1037z" />
    <glyph glyph-name="lozenge" unicode="&#x25ca;" horiz-adv-x="1185" 
d="M1171 717l-533 -774h-222l-288 774l533 772h222zM575 249l314 468l-165 470l-314 -470z" />
    <glyph glyph-name="zero.numerator" horiz-adv-x="767" 
d="M817 1191q0 -74 -17 -179q-18 -114 -42.5 -188.5t-68 -131t-110 -81.5t-164.5 -25q-147 0 -207 59.5t-60 187.5q0 63 17 179q14 91 32 155t47 118.5t69.5 86.5t99 49.5t137.5 17.5q147 0 207 -59.5t60 -188.5zM361 855q0 -50 18 -74.5t62 -24.5q30 0 52 13t36 31t25.5 56
t17.5 68.5t15 87.5q18 110 18 157q0 50 -18 75t-62 25q-30 0 -52 -13t-36 -31.5t-25.5 -56.5t-17.5 -68.5t-15 -87.5q-18 -112 -18 -157z" />
    <glyph glyph-name="one.numerator" horiz-adv-x="504" 
d="M234 595l100 627q-79 -17 -174 -26l17 168q133 20 239 66h161l-132 -835h-211z" />
    <glyph glyph-name="two.numerator" horiz-adv-x="714" 
d="M219 1406q164 32 291 32q128 0 200 -39.5t72 -137.5q0 -21 -3 -47q-19 -115 -90.5 -191.5t-204.5 -126.5q-67 -25 -97 -52.5t-44 -71.5h365l-28 -179h-604q77 232 133 317t205 145q73 29 106 56t40 70q2 14 2 20q0 37 -33 49.5t-121 12.5q-80 0 -195 -21z" />
    <glyph glyph-name="three.numerator" horiz-adv-x="699" 
d="M255 946l25 156q91 1 194 17q60 9 70 77q7 43 -18.5 56.5t-80.5 13.5q-69 0 -235 -20l4 161q158 32 271 32q48 0 86.5 -4t76.5 -16t63 -31t40.5 -51.5t15.5 -75.5q0 -14 -4 -48q-20 -121 -130 -178q90 -41 90 -132q0 -13 -4 -43q-24 -150 -116.5 -212t-255.5 -62
q-96 0 -267 32l49 164q146 -20 215 -20q76 0 110.5 18t43.5 73q2 18 2 24q0 53 -54 61q-65 8 -166 8h-25z" />
    <glyph glyph-name="four.numerator" horiz-adv-x="745" 
d="M432 593l28 180h-234q-63 0 -89.5 20t-26.5 59q0 8 2 26q8 56 85 140l308 335q47 51 81.5 68t79.5 17q41 0 66.5 -23t25.5 -67q0 -12 -3 -27l-61 -383h95l-26 -165h-95l-29 -180h-207zM520 1147l-185 -209h152z" />
    <glyph glyph-name="five.numerator" horiz-adv-x="711" 
d="M398 1137q24 2 34 2q70 0 120 -8t93 -29t65 -62.5t22 -103.5q0 -37 -5 -68q-23 -147 -114.5 -214t-251.5 -67q-141 0 -274 34l48 164q146 -22 216 -22q81 0 113.5 22.5t44.5 95.5q8 55 -31 73t-124 18q-113 0 -192 -5l105 465h531l-28 -178h-345z" />
    <glyph glyph-name="six.numerator" horiz-adv-x="750" 
d="M804 1434l-9 -161h-47h-46q-45 0 -76 -1.5t-72 -9.5t-68.5 -22.5t-51 -41.5t-32.5 -65q58 7 106 7q138 0 206.5 -43.5t68.5 -156.5q0 -32 -6 -73q-13 -83 -45 -140t-82.5 -88t-109 -43.5t-136.5 -12.5q-145 0 -205.5 58t-60.5 174q0 52 11 120q16 99 34.5 169.5
t47.5 129.5t67.5 95.5t94 61.5t125.5 35.5t165 10.5q7 0 121 -3zM350 846q0 -93 78 -93q69 0 97.5 25t39.5 92q3 16 3 30q0 45 -26 62t-79 17q-47 0 -96 -7q-7 -30 -11 -56q-6 -36 -6 -70z" />
    <glyph glyph-name="seven.numerator" horiz-adv-x="657" 
d="M763 1276l-407 -681h-235l419 655h-368l28 180h483q58 0 85 -25t20 -69q-4 -24 -25 -60z" />
    <glyph glyph-name="eight.numerator" horiz-adv-x="746" 
d="M406 586q-137 0 -211 44.5t-74 149.5q0 27 4 54q11 67 48 110.5t104 82.5q-83 54 -83 147q0 13 4 47q34 218 343 218q277 0 277 -177q0 -18 -3 -41q-11 -70 -41 -112t-99 -79q45 -31 68 -66.5t23 -87.5q0 -19 -3 -40q-12 -75 -44 -125.5t-82 -77t-105 -37t-126 -10.5z
M333 818q0 -37 25.5 -51.5t73.5 -14.5q109 0 123 86q4 24 4 31q0 36 -28 53t-103 26q-79 -21 -93 -110q-2 -14 -2 -20zM396 1177q0 -32 26.5 -49t98.5 -21q42 12 63 31.5t27 60.5q2 14 2 18q0 34 -25 47t-72 13q-52 0 -81.5 -16.5t-36.5 -61.5q-2 -16 -2 -22z" />
    <glyph glyph-name="nine.numerator" horiz-adv-x="750" 
d="M170 1158q13 84 45 141t82.5 87.5t109 43t136.5 12.5q145 0 205.5 -58t60.5 -174q0 -52 -11 -121q-16 -99 -34.5 -169.5t-48 -129t-67.5 -95t-93.5 -61.5t-125.5 -35.5t-165 -10.5q-46 0 -121 2l8 161q15 1 47 1h46q45 0 76 1.5t72 9.5t68.5 22.5t51 41.5t32.5 65
q-56 -7 -105 -7q-138 0 -207 43.5t-69 156.5q0 26 7 73zM519 1272q-69 0 -98 -25.5t-40 -91.5q-2 -11 -2 -31q0 -45 26 -61.5t79 -16.5q46 0 95 7q8 36 11 56q7 42 7 70q0 93 -78 93z" />
    <glyph glyph-name="zero.denominator" horiz-adv-x="767" 
d="M817 598q0 -74 -17 -179q-18 -114 -42.5 -188.5t-68 -131t-110 -81.5t-164.5 -25q-147 0 -207 59.5t-60 187.5q0 63 17 179q14 91 32 155t47 118.5t69.5 86.5t99 49.5t137.5 17.5q147 0 207 -59.5t60 -188.5zM361 262q0 -50 18 -74.5t62 -24.5q30 0 52 13t36 31t25.5 56
t17.5 68.5t15 87.5q18 110 18 157q0 50 -18 75.5t-62 25.5q-25 0 -44.5 -7.5t-33.5 -26t-23.5 -36.5t-18 -53t-13.5 -61t-13 -74q-18 -112 -18 -157z" />
    <glyph glyph-name="one.denominator" horiz-adv-x="504" 
d="M234 2l100 627q-79 -17 -174 -26l17 168q130 19 239 67h161l-132 -836h-211z" />
    <glyph glyph-name="two.denominator" horiz-adv-x="714" 
d="M219 813q164 32 291 32q128 0 200 -39.5t72 -137.5q0 -22 -3 -47q-19 -115 -90.5 -191t-204.5 -126q-67 -25 -97 -53t-44 -72h365l-28 -179h-604q77 232 133 317t205 145q73 29 106 56t40 70q2 14 2 20q0 37 -33 49.5t-121 12.5q-80 0 -195 -21z" />
    <glyph glyph-name="three.denominator" horiz-adv-x="699" 
d="M255 353l25 156q91 1 194 17q60 9 70 77q7 43 -18.5 56.5t-80.5 13.5q-69 0 -235 -20l4 161q158 32 271 32q48 0 86.5 -4t76.5 -16t63 -31t40.5 -51.5t15.5 -75.5q0 -14 -4 -48q-20 -121 -130 -178q90 -41 90 -132q0 -13 -4 -43q-24 -150 -116.5 -212t-255.5 -62
q-96 0 -267 32l49 164q146 -20 215 -20q76 0 110.5 18.5t43.5 73.5q2 18 2 23q0 54 -54 61q-65 8 -166 8h-25z" />
    <glyph glyph-name="four.denominator" horiz-adv-x="745" 
d="M432 0l28 180h-234q-63 0 -89.5 20t-26.5 59q0 8 2 26q8 56 85 140l308 335q47 51 81.5 68t79.5 17q41 0 66.5 -23t25.5 -67q0 -12 -3 -27l-61 -383h95l-26 -165h-95l-29 -180h-207zM520 554l-185 -209h152z" />
    <glyph glyph-name="five.denominator" horiz-adv-x="711" 
d="M398 544q24 2 34 2q70 0 120 -8t93 -29t65 -62.5t22 -103.5q0 -37 -5 -68q-23 -147 -114.5 -214t-251.5 -67q-141 0 -274 34l48 164q146 -22 216 -22q81 0 113.5 22.5t44.5 95.5q8 55 -31 73t-124 18q-113 0 -192 -5l105 465h531l-28 -178h-345z" />
    <glyph glyph-name="six.denominator" horiz-adv-x="750" 
d="M804 841l-9 -161h-47h-46q-45 0 -76 -1.5t-72 -9.5t-68.5 -22.5t-51 -41.5t-32.5 -65q58 7 106 7q138 0 206.5 -43.5t68.5 -156.5q0 -33 -6 -73q-13 -83 -45 -140t-82.5 -88t-109 -43.5t-136.5 -12.5q-145 0 -205.5 58t-60.5 174q0 52 11 120q16 99 34.5 169.5
t47.5 129.5t67.5 95.5t94 61.5t125.5 35.5t165 10.5q7 0 121 -3zM350 253q0 -93 78 -93q69 0 97.5 25t39.5 92q3 17 3 30q0 45 -26 62t-79 17q-47 0 -96 -7q-7 -30 -11 -56q-6 -36 -6 -70z" />
    <glyph glyph-name="seven.denominator" horiz-adv-x="657" 
d="M763 683l-407 -681h-235l419 655h-368l28 181h483q58 0 85 -25.5t20 -69.5q-4 -24 -25 -60z" />
    <glyph glyph-name="eight.denominator" horiz-adv-x="746" 
d="M406 -7q-137 0 -211 44.5t-74 149.5q0 27 4 54q11 67 48 110.5t104 82.5q-83 54 -83 147q0 13 4 47q34 218 343 218q277 0 277 -177q0 -19 -3 -41q-11 -70 -41 -112t-99 -79q45 -31 68 -66.5t23 -87.5q0 -19 -3 -40q-12 -75 -44 -125.5t-82 -77t-105 -37t-126 -10.5z
M333 225q0 -37 25.5 -51.5t73.5 -14.5q109 0 123 86q4 24 4 31q0 36 -28 53t-103 26q-79 -21 -93 -110q-2 -14 -2 -20zM396 584q0 -32 26.5 -49t98.5 -21q42 12 63 31.5t27 60.5q2 14 2 18q0 34 -25 47t-72 13q-52 0 -81.5 -16.5t-36.5 -61.5q-2 -16 -2 -22z" />
    <glyph glyph-name="nine.denominator" horiz-adv-x="750" 
d="M170 565q13 84 45 141t82.5 87.5t109 43t136.5 12.5q145 0 205.5 -58t60.5 -173q0 -53 -11 -122q-16 -99 -34.5 -169.5t-48 -129t-67.5 -95t-93.5 -61.5t-125.5 -35.5t-165 -10.5q-8 0 -121 3l8 161h14.5h17h15.5h46q45 0 76 1.5t72 9.5t68.5 22.5t51 41.5t32.5 65
q-56 -7 -105 -7q-138 0 -207 43.5t-69 156.5q0 26 7 73zM519 679q-69 0 -98 -25.5t-40 -91.5q-2 -11 -2 -30q0 -45 26 -62t79 -17q46 0 95 7q8 36 11 56q7 42 7 70q0 93 -78 93z" />
    <glyph glyph-name="zero.onum" horiz-adv-x="1147" 
d="M525 -15q-113 0 -191 21.5t-124.5 67.5t-66.5 111t-20 157t23 241q20 127 46 217t68.5 166t103 121t147.5 69.5t204 24.5q221 0 311 -85.5t90 -270.5q0 -99 -22 -242q-20 -127 -46 -217t-68.5 -166t-103 -121t-147.5 -69.5t-204 -24.5zM426 384q0 -73 30.5 -109.5
t106.5 -36.5q35 0 63.5 9t49 22t37 39.5t27 50t20.5 65t15.5 73.5t14.5 86q22 143 22 200q0 73 -29.5 109t-105.5 36q-35 0 -63.5 -9t-49 -22t-37.5 -39.5t-27.5 -50t-20.5 -65t-16 -73.5t-14 -86q-23 -148 -23 -199z" />
    <glyph glyph-name="one.onum" horiz-adv-x="742" 
d="M259 0l136 858q-106 -25 -265 -40l27 249q194 28 357 100h231l-185 -1167h-301z" />
    <glyph glyph-name="two.onum" horiz-adv-x="1039" 
d="M218 1139q239 42 422 42q89 0 157.5 -12t125 -39.5t86 -78.5t29.5 -123q0 -30 -6 -65q-27 -165 -130.5 -271t-296.5 -173q-100 -35 -145 -69t-66 -85h543l-42 -265h-880q43 124 64 180t56.5 137t64 117.5t75 83.5t102 76.5t132.5 58.5q113 42 163.5 78.5t59.5 88.5
q2 16 2 22q0 48 -52.5 64t-193.5 16q-110 0 -277 -26z" />
    <glyph glyph-name="three.onum" horiz-adv-x="1042" 
d="M1032 838q-30 -187 -198 -272q72 -33 104.5 -81.5t32.5 -120.5q0 -30 -6 -66q-19 -118 -65 -200t-119 -128.5t-163 -67t-209 -20.5q-160 0 -397 47l72 245q227 -30 319 -30q123 0 178.5 29t69.5 116q3 18 3 33q0 86 -92 98q-117 15 -260 15h-22l36 230q141 3 288 26
q52 7 80 37t37 85q2 18 2 24q0 52 -41 69.5t-122 17.5q-118 0 -351 -31l7 242q232 46 403 46q92 0 161 -11t130.5 -39t94.5 -83t33 -136q0 -35 -6 -74z" />
    <glyph glyph-name="four.onum" horiz-adv-x="1115" 
d="M552 -104l43 274h-372q-89 0 -127.5 30.5t-38.5 87.5q0 17 3 38q4 25 11.5 47t37 67.5t80.5 100.5l472 512q71 77 121 102.5t115 25.5q58 0 92.5 -34t34.5 -99q0 -20 -3 -42l-94 -591h145l-38 -245h-145l-44 -274h-293zM691 769l-313 -354h257z" />
    <glyph glyph-name="five.onum" horiz-adv-x="1063" 
d="M475 716q42 2 63 2q83 0 145.5 -6.5t122.5 -26t98 -53t61 -88.5t23 -131q0 -47 -9 -106q-36 -223 -172.5 -324.5t-375.5 -101.5q-201 0 -408 49l72 245q196 -32 319 -32q131 0 184 35t71 149q0 2 1.5 12t1.5 15q0 37 -18 61t-54.5 35.5t-77.5 16t-101 4.5q-155 0 -283 -8
l160 704h790l-43 -265h-528z" />
    <glyph glyph-name="six.onum" horiz-adv-x="1120" 
d="M1062 417q-20 -127 -68 -213.5t-123 -133.5t-162.5 -66t-204.5 -19q-216 0 -306 88.5t-90 262.5q0 72 17 186q24 151 52.5 258.5t72.5 196.5t101.5 144.5t141 93.5t189 53.5t248.5 15.5q59 0 174 -3l-14 -239q-34 -1 -93 -1.5t-97 -1t-92 -4.5t-90 -11.5t-78 -23.5
t-69 -39t-50 -59t-33 -82q95 11 174 11q100 0 171.5 -13.5t127 -47t83.5 -93t28 -147.5q0 -53 -10 -113zM539 239q112 0 158.5 39.5t63.5 143.5q5 42 5 46q0 70 -43 97t-129 27q-76 0 -158 -11q-7 -30 -17 -89q-10 -60 -10 -104q0 -149 130 -149z" />
    <glyph glyph-name="seven.onum" horiz-adv-x="979" 
d="M1036 936l-623 -1041h-337l642 1005h-566l43 267h726q74 0 113 -30.5t39 -84.5q0 -17 -1 -26q-5 -39 -36 -90z" />
    <glyph glyph-name="eight.onum" horiz-adv-x="1115" 
d="M506 -15q-204 0 -314.5 68t-110.5 227q0 42 7 84q17 104 72.5 169t157.5 124q-61 39 -93 91t-32 131q0 35 6 75q52 330 513 330q412 0 412 -267q0 -34 -5 -63q-18 -109 -63 -173t-150 -120q70 -47 105.5 -100.5t35.5 -132.5q0 -35 -5 -64q-15 -91 -50.5 -159
t-83.5 -109.5t-115 -67t-135 -34.5t-152 -9zM385 369q-2 -11 -2 -31q0 -60 41.5 -82.5t121.5 -22.5q84 0 136 30t64 106q4 34 4 46q0 57 -44.5 85t-164.5 41q-134 -34 -156 -172zM481 921q-3 -18 -3 -33q0 -50 44.5 -78.5t162.5 -34.5q66 19 101 51.5t45 94.5q3 15 3 27
q0 54 -41 74.5t-119 20.5q-85 0 -133.5 -25.5t-59.5 -96.5z" />
    <glyph glyph-name="nine.onum" horiz-adv-x="1121" 
d="M149 749q20 127 68 213.5t123 133.5t162.5 66t204.5 19q216 0 306 -88.5t90 -262.5q0 -71 -17 -185q-24 -151 -52.5 -258.5t-72.5 -196.5t-101.5 -144.5t-141 -94t-189 -54t-248.5 -15.5q-59 0 -174 3l13 240q33 1 92 1.5t97 1t92 4.5t90.5 11.5t78.5 23.5t69 39t50 59
t33 82q-104 -12 -173 -12q-100 0 -171.5 13.5t-127 47t-83.5 93t-28 147.5q0 54 10 113zM792 675q10 60 10 103q0 70 -29.5 109.5t-101.5 39.5q-112 0 -158.5 -39t-63.5 -143q-5 -43 -5 -46q0 -70 43.5 -97.5t128.5 -27.5q68 0 158 12q10 41 18 89z" />
    <glyph glyph-name="dollar.onum" horiz-adv-x="981" 
d="M611 366q2 16 2 24q0 48 -35 73t-120 53q-77 26 -127.5 50t-93.5 59.5t-63 84.5t-20 115q0 42 7 84q28 173 122 259.5t259 107.5l28 176h209l-27 -170q141 -8 291 -43l-66 -237q-182 31 -282 31q-28 0 -47.5 -1t-48 -4t-48 -10t-39 -18t-31.5 -29.5t-16 -42.5
q-2 -16 -2 -22q0 -22 8.5 -39.5t20.5 -28.5t36.5 -21.5t44 -17t54.5 -16.5q9 -3 14 -4q152 -45 220.5 -116t68.5 -191q0 -48 -8 -93q-28 -173 -123.5 -265.5t-259.5 -117.5l-28 -178h-209l27 168q-160 7 -312 43l69 244q184 -31 330 -31q91 0 137.5 27.5t57.5 96.5z" />
    <glyph glyph-name="cent.onum" horiz-adv-x="839" 
d="M768 397l-11 -221q-99 -27 -214 -37l-27 -172h-198l27 172q-129 18 -182 100.5t-53 214.5q0 73 18 190q17 110 42 187t67 140.5t107 101.5t157 53l29 177h197l-27 -169q103 -7 201 -40l-57 -214q-133 26 -181 26q-71 0 -113 -11.5t-69.5 -45.5t-41 -78.5t-26.5 -126.5
q-15 -92 -15 -139q0 -72 39 -103t144 -31q63 0 187 26z" />
    <glyph glyph-name="Euro.onum" horiz-adv-x="1015" 
d="M933 837l-61 -165h-337l-5 -37q-4 -22 -5 -32h321l-60 -164h-279q-2 -95 34 -143.5t132 -48.5q113 0 232 26l-15 -244q-130 -44 -302 -44q-206 0 -293 88t-87 284q0 39 3 82h-130l60 164h89q1 10 5 32q1 6 3 18.5t3 18.5h-111l60 165h85q40 159 102.5 255t164 144
t252.5 48q169 0 288 -45l-61 -242q-119 25 -225 25q-93 0 -145 -46.5t-80 -138.5h362z" />
    <glyph glyph-name="sterling.onum" horiz-adv-x="1109" 
d="M275 532h-172l36 225h142q3 71 16 155q17 108 64.5 183.5t120 115.5t153.5 57t182 17q56 0 101.5 -9t76.5 -21.5t63.5 -39t52.5 -47.5t54 -61l-182 -185q-50 55 -93 80.5t-107 25.5q-95 0 -137.5 -36.5t-55.5 -120.5q-8 -46 -11 -114h261l-36 -225h-241q-3 -32 -9 -67
q-13 -83 -73 -205h173q167 0 331 26l-14 -242q-172 -44 -447 -44h-275q-66 0 -98 27.5t-32 72.5q0 15 1 22q5 28 25.5 64.5t43 68.5t46 85t32.5 112q7 45 8 80z" />
    <glyph glyph-name="yen.onum" horiz-adv-x="1092" 
d="M504 1273l121 -466l276 466h294l-334 -550h126l-28 -183h-209l-30 -50l-9 -58h230l-29 -181h-230l-39 -251h-296l39 251h-227l28 181h228l10 60l-15 48h-206l29 183h125l-158 550h304z" />
    <glyph glyph-name="zero.tnum" 
d="M547 -15q-236 0 -333.5 98t-97.5 310q0 122 28 301q24 151 53.5 257.5t77 196.5t113.5 143.5t161 82.5t223 29q237 0 334.5 -97.5t97.5 -308.5q0 -118 -29 -303q-24 -151 -53.5 -257.5t-77 -196.5t-113.5 -143.5t-161 -82.5t-223 -29zM434 429q0 -89 34.5 -134t118.5 -45
q32 0 58.5 7t47.5 17.5t39.5 31.5t31.5 40.5t25 52.5t20.5 60t17 71t14.5 77.5t14 86.5q30 182 30 265q0 91 -34 135.5t-119 44.5q-36 0 -65 -7.5t-52 -25t-40.5 -36.5t-32.5 -53.5t-25 -63t-20 -77.5t-16 -85t-16 -97q-31 -190 -31 -265z" />
    <glyph glyph-name="one.tnum" 
d="M487 0l168 1064q-117 -29 -294 -46l28 261q216 33 389 110h246l-220 -1389h-317z" />
    <glyph glyph-name="two.tnum" 
d="M278 1353q252 50 469 50q79 0 142.5 -8t121 -28.5t96 -52.5t61 -83t22.5 -118q0 -28 -7 -77q-30 -193 -146.5 -318t-334.5 -206q-89 -33 -140 -67.5t-74.5 -70.5t-40.5 -93h615l-44 -281h-977q36 108 53.5 159t47.5 130t49.5 115t52 90.5t63.5 83t75 65t95 62.5t117 53
q130 53 188.5 100.5t70.5 123.5q3 21 3 37q0 66 -59.5 88.5t-217.5 22.5q-128 0 -310 -31z" />
    <glyph glyph-name="three.tnum" 
d="M1169 1032q-16 -99 -73 -177t-155 -124q84 -36 122.5 -89t38.5 -133q0 -33 -6 -72q-16 -103 -52.5 -180.5t-88.5 -129t-124.5 -83.5t-155 -45.5t-185.5 -13.5q-80 0 -163.5 8.5t-131.5 17t-134 25.5l75 256q239 -32 346 -32q139 0 202 33.5t79 132.5q4 28 4 40
q0 99 -108 113q-123 16 -283 16h-21l38 240q145 3 311 28q60 9 93 43.5t44 98.5q2 10 2 29q0 32 -13.5 52.5t-40.5 30.5t-57 13.5t-75 3.5q-130 0 -380 -33l6 252q250 50 437 50q79 0 141 -6.5t123 -26t101.5 -51t65.5 -84t25 -123.5q0 -29 -7 -80z" />
    <glyph glyph-name="four.tnum" 
d="M616 0l49 303h-417q-179 0 -179 125q0 12 4 40q5 29 12.5 51t39.5 71t88 110l519 565q76 83 130.5 110.5t124.5 27.5q61 0 98 -36t37 -105q0 -12 -4 -44l-104 -659h160l-40 -256h-160l-48 -303h-310zM772 979l-370 -420h304z" />
    <glyph glyph-name="five.tnum" 
d="M542 891q52 2 77 2q91 0 159 -7.5t133 -28.5t106 -57t66 -96t25 -142q0 -61 -9 -115q-38 -242 -186.5 -352t-408.5 -110q-229 0 -442 52l74 256q215 -33 347 -33q149 0 208 39.5t80 169.5q3 18 3 32q0 42 -20 69.5t-60.5 41t-87 18.5t-113.5 5q-164 0 -305 -8l173 762
h856l-43 -279h-582z" />
    <glyph glyph-name="six.tnum" 
d="M1197 1400l-15 -251q-26 -1 -82 -1h-55q-60 0 -100 -1t-96.5 -6.5t-94.5 -15.5t-82 -29t-72 -46t-50.5 -67.5t-31.5 -92.5q108 13 198 13q86 0 152 -9t122.5 -31.5t93 -59t57 -93.5t20.5 -133q0 -59 -10 -123q-18 -111 -56.5 -193.5t-91 -134.5t-126 -84t-153 -44.5
t-180.5 -12.5q-121 0 -205.5 25.5t-133 76t-70 119t-21.5 161.5t18 203q26 165 57 282.5t79.5 214.5t111 158t154 102.5t207 58.5t271.5 17q58 0 185 -3zM432 419q0 -79 33.5 -123.5t115.5 -44.5q127 0 180.5 44.5t72.5 162.5q5 33 5 54q0 81 -49 111.5t-147 30.5
q-91 0 -180 -14q-9 -35 -20 -104q-11 -64 -11 -117z" />
    <glyph glyph-name="seven.tnum" 
d="M1210 1144l-684 -1144h-356l707 1107h-626l45 282h793q80 0 121 -32t41 -89q0 -9 -2 -27q-7 -44 -39 -97z" />
    <glyph glyph-name="eight.tnum" 
d="M549 -15q-108 0 -189 16t-144 52t-96 99t-33 152q0 38 8 91q18 116 80 186.5t180 137.5q-70 43 -107.5 101t-37.5 147q0 30 7 79q57 357 557 357q449 0 449 -289q0 -32 -6 -68q-19 -120 -70 -190t-171 -132q79 -52 120 -112.5t41 -148.5q0 -31 -6 -67q-15 -99 -54 -172.5
t-91.5 -118.5t-125 -72.5t-146.5 -37.5t-165 -10zM820 401q5 33 5 54q0 65 -50.5 95.5t-188.5 46.5q-153 -36 -179 -196q-3 -20 -3 -37q0 -68 48 -94t138 -26q96 0 156 35t74 122zM510 971q0 -58 50.5 -90t183.5 -39q78 22 117.5 58t51.5 110q3 16 3 32q0 62 -46.5 85.5
t-135.5 23.5q-97 0 -152 -29.5t-68 -111.5q-4 -28 -4 -39z" />
    <glyph glyph-name="nine.tnum" 
d="M166 935q22 138 74 231.5t134 144.5t177 71.5t222 20.5q121 0 205 -25.5t133.5 -76t71 -119t21.5 -161.5q0 -86 -19 -202q-26 -165 -57 -282.5t-79.5 -215t-111 -158t-154 -102.5t-207 -59t-271.5 -17q-16 0 -185 4l15 251q26 1 82 1q9 0 27.5 -0.5t28.5 -0.5
q52 0 87.5 1t85 4.5t84.5 11t75.5 19.5t69.5 31.5t55.5 45.5t43.5 63t25 83q-116 -14 -197 -14q-86 0 -152.5 9t-123.5 31.5t-93.5 59.5t-57 94t-20.5 133q0 52 11 123zM736 1138q-127 0 -180.5 -45t-72.5 -163q-5 -33 -5 -53q0 -81 49 -112t147 -31q90 0 181 14
q5 22 19 104q11 64 11 118q0 79 -33.5 123.5t-115.5 44.5z" />
    <glyph glyph-name="dollar.tnum" 
d="M744 398q3 15 3 28q0 55 -40.5 83.5t-135.5 60.5q-84 28 -138.5 54.5t-101 65t-68.5 92t-22 124.5q0 44 7 90q30 190 133.5 283.5t285.5 115.5l30 193h217l-30 -187q158 -8 320 -45l-68 -249q-191 33 -305 33q-40 0 -66.5 -1.5t-64.5 -8t-62.5 -19t-44.5 -36t-25 -57.5
q-2 -11 -2 -31q0 -40 27 -66.5t55 -37t108 -33.5q2 -1 3.5 -1.5t4 -1t4.5 -1.5q168 -49 241 -123.5t73 -204.5q0 -48 -9 -106q-30 -189 -135.5 -289.5t-285.5 -126.5l-31 -195h-217l29 185q-172 5 -341 46l71 255q207 -33 357 -33q103 0 157 32t67 112z" />
    <glyph glyph-name="cent.tnum" 
d="M981 423l-11 -229q-121 -31 -235 -40l-30 -188h-204l30 188q-74 10 -126 40t-81 77.5t-41.5 103t-12.5 125.5q0 83 19 204q19 120 46.5 204.5t74.5 154.5t119 111t173 56l30 193h204l-30 -185q117 -8 220 -43l-58 -223q-134 28 -194 28q-64 0 -107.5 -10t-73 -28.5
t-49 -56.5t-31 -82.5t-23.5 -118.5q-17 -105 -17 -156q0 -81 45.5 -116.5t163.5 -35.5q62 0 199 27z" />
    <glyph glyph-name="Euro.tnum" 
d="M967 651l-61 -165h-309v-25q0 -100 42.5 -150.5t147.5 -50.5q122 0 248 28l-16 -256q-143 -47 -325 -47q-223 0 -317 96t-94 309q0 45 3 96h-142l61 165h100l15 92h-122l62 166h94q65 262 193 378t372 116q185 0 310 -48l-64 -253q-125 27 -241 27q-109 0 -168 -55.5
t-91 -164.5h398l-61 -166h-372l-8 -49q-2 -15 -6 -43h351z" />
    <glyph glyph-name="sterling.tnum" 
d="M305 586h-189l37 235h157q5 81 19 177q19 117 70.5 199t130 125.5t166 62t197.5 18.5q61 0 110 -10t82 -23t69 -42t56.5 -50.5t58.5 -65.5l-190 -193q-55 59 -102.5 86.5t-118.5 27.5q-109 0 -156.5 -41.5t-63.5 -137.5q-10 -59 -13 -133h287l-37 -235h-267q0 -7 -11 -80
q-7 -46 -31.5 -112.5t-51.5 -120.5h200q189 0 357 27l-14 -253q-181 -47 -484 -47h-304q-70 0 -104 28.5t-34 75.5q0 7 2 23q5 31 27.5 70.5t48 74.5t51.5 94t36 124q8 48 9 96z" />
    <glyph glyph-name="yen.tnum" 
d="M553 1389l136 -525l311 525h308l-368 -606h144l-30 -188h-228l-36 -59l-11 -74h254l-30 -185h-254l-44 -277h-311l43 277h-251l29 185h252l12 74l-18 59h-224l29 188h141l-174 606h320z" />
    <glyph glyph-name="period.tnum" horiz-adv-x="605" 
d="M288 -15q-86 0 -121.5 25t-35.5 88q0 33 5 62q16 99 60 136t146 37q86 0 121.5 -25t35.5 -87q0 -27 -6 -61q-16 -100 -59 -137.5t-146 -37.5z" />
    <glyph glyph-name="comma.tnum" horiz-adv-x="605" 
d="M10 -264l221 581h336l-312 -581h-245z" />
    <glyph glyph-name="colon.tnum" horiz-adv-x="605" 
d="M260 -15q-86 0 -121 25t-35 87q0 33 5 63q15 99 59.5 136t146.5 37q86 0 121 -25t35 -87q0 -32 -5 -61q-16 -100 -59.5 -137.5t-146.5 -37.5zM369 678q-86 0 -121 24.5t-35 87.5q0 26 6 62q16 99 59.5 136.5t145.5 37.5q85 0 121 -25.5t36 -87.5q0 -27 -6 -61
q-16 -100 -59.5 -137t-146.5 -37z" />
    <glyph glyph-name="semicolon.tnum" horiz-adv-x="605" 
d="M431 678q-86 0 -121 24.5t-35 87.5q0 32 5 62q16 99 59.5 136.5t145.5 37.5q85 0 121 -25.5t36 -87.5q0 -32 -5 -61q-16 -100 -59.5 -137t-146.5 -37zM-22 -264l222 581h335l-311 -581h-246z" />
    <glyph glyph-name="zero.onum_tnum" horiz-adv-x="1112" 
d="M508 -15q-222 0 -312.5 86t-90.5 271q0 92 23 241q20 127 46 217t68.5 166t103 121t147.5 69.5t204 24.5q221 0 311.5 -85.5t90.5 -270.5q0 -93 -23 -242q-17 -106 -37 -184.5t-51 -148.5t-72.5 -117t-99.5 -81.5t-134 -50.5t-174 -16zM409 384q0 -73 30 -109.5
t106 -36.5q35 0 63.5 9t49 22t37 39.5t27 50t20.5 65t15.5 73.5t14.5 86q22 143 22 200q0 73 -29.5 109t-105.5 36q-35 0 -63.5 -9t-49 -22t-37.5 -39.5t-27.5 -50t-20.5 -65t-16 -73.5t-14 -86q-22 -141 -22 -199z" />
    <glyph glyph-name="one.onum_tnum" horiz-adv-x="1112" 
d="M444 0l136 858q-106 -25 -265 -40l27 249q194 28 357 100h231l-185 -1167h-301z" />
    <glyph glyph-name="two.onum_tnum" horiz-adv-x="1112" 
d="M254 1139q239 42 423 42q89 0 157.5 -12t124.5 -39.5t85.5 -78.5t29.5 -123q0 -36 -5 -65q-27 -164 -131 -270.5t-297 -173.5q-100 -35 -144.5 -68.5t-65.5 -85.5h542l-42 -265h-880q43 123 64 180t56.5 137t64.5 117t75.5 84t102 76.5t132.5 58.5q112 42 162.5 78
t59.5 89q2 16 2 22q0 48 -52 64t-193 16q-111 0 -278 -26z" />
    <glyph glyph-name="three.onum_tnum" horiz-adv-x="1112" 
d="M1067 838q-30 -187 -198 -272q72 -33 104.5 -81.5t32.5 -120.5q0 -30 -6 -66q-19 -118 -65 -200t-119 -128.5t-163 -67t-209 -20.5q-160 0 -397 47l72 245q227 -30 319 -30q123 0 178.5 29t69.5 116q3 18 3 33q0 86 -92 98q-117 15 -260 15h-22l36 230q141 3 288 26
q52 7 80 37t37 85q2 18 2 24q0 52 -41 69.5t-122 17.5q-119 0 -351 -31l7 242q232 46 403 46q92 0 161 -11t130.5 -39t94.5 -83t33 -136q0 -35 -6 -74z" />
    <glyph glyph-name="four.onum_tnum" horiz-adv-x="1112" 
d="M550 -104l44 274h-373q-89 0 -127.5 30.5t-38.5 87.5q0 17 3 38q4 25 11.5 47t37 67.5t80.5 100.5l472 512q71 77 121 102.5t115 25.5q58 0 92.5 -34t34.5 -99q0 -20 -3 -42l-94 -591h145l-38 -245h-145l-44 -274h-293zM689 769l-313 -354h257z" />
    <glyph glyph-name="five.onum_tnum" horiz-adv-x="1112" 
d="M500 716q42 2 63 2q83 0 145.5 -6.5t122.5 -26t98 -53t61 -88.5t23 -131q0 -41 -10 -106q-36 -223 -172 -324.5t-375 -101.5q-202 0 -409 49l72 245q196 -32 320 -32q131 0 184 35t71 149q2 20 2 27q0 37 -18 61t-54.5 35.5t-77.5 16t-101 4.5q-154 0 -282 -8l160 704
h789l-42 -265h-529z" />
    <glyph glyph-name="six.onum_tnum" horiz-adv-x="1112" 
d="M1057 417q-16 -102 -51 -178t-83.5 -124t-116 -77.5t-140.5 -41t-166 -11.5q-216 0 -306.5 88.5t-90.5 262.5q0 72 17 186q24 151 52.5 258.5t72.5 196.5t101.5 144.5t141 93.5t189 53.5t248.5 15.5q59 0 174 -3l-13 -239q-34 -1 -93 -1.5t-97 -1t-92 -4.5t-90 -11.5
t-78 -23.5t-69 -39t-50 -59t-33 -82q95 11 174 11q100 0 171 -13.5t127 -47t83.5 -93t27.5 -147.5q0 -53 -10 -113zM535 239q112 0 158.5 39.5t63.5 143.5q4 34 4 46q0 70 -43 97t-129 27q-75 0 -157 -11q-7 -30 -17 -89q-10 -60 -10 -104q0 -149 130 -149z" />
    <glyph glyph-name="seven.onum_tnum" horiz-adv-x="1112" 
d="M1102 936l-623 -1041h-337l642 1005h-565l42 267h726q75 0 114 -30.5t39 -84.5q0 -8 -2 -26q-5 -39 -36 -90z" />
    <glyph glyph-name="eight.onum_tnum" horiz-adv-x="1112" 
d="M504 -15q-204 0 -314.5 68t-110.5 227q0 36 8 84q17 105 72 169.5t157 123.5q-61 39 -93 91t-32 131q0 35 6 75q52 330 513 330q413 0 413 -267q0 -29 -6 -63q-18 -109 -63 -173t-150 -120q70 -47 105.5 -100.5t35.5 -132.5q0 -35 -5 -64q-15 -91 -50.5 -159
t-83.5 -109.5t-115 -67t-135 -34.5t-152 -9zM383 369q-2 -11 -2 -31q0 -60 41.5 -82.5t121.5 -22.5q84 0 136 30t64 106q4 34 4 46q0 57 -44.5 85t-164.5 41q-134 -34 -156 -172zM479 921q-3 -18 -3 -33q0 -50 44.5 -78.5t162.5 -34.5q66 19 101.5 51.5t45.5 94.5q2 10 2 27
q0 54 -41 74.5t-119 20.5q-85 0 -133.5 -25.5t-59.5 -96.5z" />
    <glyph glyph-name="nine.onum_tnum" horiz-adv-x="1112" 
d="M144 749q20 127 68 213.5t123 133.5t162.5 66t204.5 19q216 0 306 -88.5t90 -262.5q0 -71 -17 -185q-24 -151 -52.5 -258.5t-72.5 -196.5t-101.5 -144.5t-141 -94t-189 -54t-248.5 -15.5q-59 0 -174 3l14 240q33 1 92 1.5t97 1t92 4.5t90 11.5t78 23.5t69 39t50 59t33 82
q-104 -12 -173 -12q-100 0 -171.5 13.5t-127 47t-83.5 93t-28 147.5q0 54 10 113zM787 675q10 60 10 103q0 70 -29.5 109.5t-101.5 39.5q-112 0 -158.5 -39t-63.5 -143q-5 -43 -5 -46q0 -70 43.5 -97.5t128.5 -27.5q68 0 158 12q10 41 18 89z" />
    <glyph glyph-name="dollar.onum_tnum" horiz-adv-x="1112" 
d="M677 366q2 16 2 24q0 48 -35 73t-120 53q-61 21 -104 39.5t-83.5 44.5t-64.5 56.5t-38.5 73t-14.5 95.5q0 36 8 84q28 173 122 259.5t259 107.5l28 176h209l-27 -170q140 -7 290 -43l-65 -237q-182 31 -282 31q-28 0 -47.5 -1t-48 -4t-48 -10t-39 -18t-31.5 -29.5
t-16 -42.5q-2 -16 -2 -22q0 -22 8.5 -39.5t20.5 -28.5t36.5 -21.5t44 -17t54.5 -16.5q9 -3 14 -4q152 -45 220.5 -116t68.5 -191q0 -48 -8 -93q-28 -173 -123.5 -265.5t-259.5 -117.5l-28 -178h-210l27 168q-158 7 -311 43l69 244q184 -31 330 -31q91 0 137.5 27.5
t57.5 96.5z" />
    <glyph glyph-name="cent.onum_tnum" horiz-adv-x="1112" 
d="M904 397l-11 -221q-99 -27 -214 -37l-27 -172h-197l27 172q-129 18 -182.5 100.5t-53.5 214.5q0 73 18 190q17 109 42 186.5t67.5 141t107.5 101.5t157 53l28 177h197l-27 -169q103 -7 201 -40l-57 -214q-133 26 -181 26q-71 0 -113 -11.5t-69.5 -45.5t-41 -78.5
t-26.5 -126.5q-15 -92 -15 -139q0 -72 39 -103t144 -31q63 0 187 26z" />
    <glyph glyph-name="Euro.onum_tnum" horiz-adv-x="1112" 
d="M981 837l-61 -165h-336l-6 -37q-4 -22 -5 -32h322l-61 -164h-279q-2 -95 34.5 -143.5t132.5 -48.5q113 0 232 26l-15 -244q-130 -44 -302 -44q-206 0 -293 88t-87 284q0 39 3 82h-130l59 164h89q1 10 5 32q1 6 3 18.5t3 18.5h-111l61 165h85q60 238 177 342.5t341 104.5
q170 0 289 -45l-62 -242q-119 25 -224 25q-93 0 -145.5 -47t-80.5 -138h362z" />
    <glyph glyph-name="sterling.onum_tnum" horiz-adv-x="1112" 
d="M277 532h-173l36 225h142q3 61 17 155q14 87 48.5 153.5t81.5 107.5t111.5 66.5t131 35.5t146.5 10q56 0 101.5 -9t76.5 -21.5t63.5 -39t52.5 -47.5t54 -61l-182 -185q-50 55 -93 80.5t-107 25.5q-95 0 -137 -36.5t-55 -120.5q-9 -55 -12 -114h261l-35 -225h-242
q-3 -32 -9 -67q-13 -83 -73 -205h174q166 0 330 26l-14 -242q-172 -44 -447 -44h-275q-66 0 -98 27.5t-32 72.5q0 8 2 22q5 28 25.5 64.5t43 68.5t46 85t32.5 112q7 45 8 80z" />
    <glyph glyph-name="yen.onum_tnum" horiz-adv-x="1112" 
d="M514 1273l121 -466l276 466h293l-333 -550h126l-29 -183h-208l-30 -50l-9 -58h230l-29 -181h-230l-39 -251h-296l39 251h-228l29 181h228l9 60l-14 48h-206l29 183h124l-157 550h304z" />
    <glyph glyph-name="parenleft.case" horiz-adv-x="679" 
d="M545 -58l-203 -152q-233 217 -233 626q0 134 26 297q22 139 57.5 260.5t93 244t146 229.5t203.5 189l155 -150q-253 -213 -343 -773q-30 -186 -30 -329q0 -304 128 -442z" />
    <glyph glyph-name="parenright.case" horiz-adv-x="678" 
d="M224 1486l203 150q234 -217 234 -625q0 -136 -26 -298q-101 -637 -500 -923l-154 152q252 203 342 771q27 169 27 316q0 312 -126 457z" />
    <glyph glyph-name="bracketleft.case" horiz-adv-x="685" 
d="M585 1377l-208 -1320h189l-39 -248h-480l287 1814h481l-40 -246h-190z" />
    <glyph glyph-name="bracketright.case" horiz-adv-x="684" 
d="M208 1377l40 246h480l-287 -1814h-478l38 248h189l209 1320h-191z" />
    <glyph glyph-name="braceleft.case" horiz-adv-x="694" 
d="M806 1612l-8 -223q-47 -6 -81 -21t-53.5 -32.5t-33 -49.5t-18.5 -55t-12 -66l-16 -100q-24 -148 -47 -208q-42 -108 -128 -142q81 -44 81 -186q0 -58 -16 -160l-16 -101q-9 -59 -9 -93q0 -56 29.5 -89t106.5 -42l-63 -223q-77 6 -130.5 16.5t-100 30.5t-74 50.5
t-42.5 77.5t-15 111q0 58 12 133q24 152 24 221q0 75 -24.5 108t-82.5 38l35 219q88 8 127 83.5t72 284.5q16 98 43.5 167.5t64.5 115t95 73.5t122 41.5t158 20.5z" />
    <glyph glyph-name="braceright.case" horiz-adv-x="694" 
d="M311 1065l16 100q10 57 10 93q0 56 -29.5 88.5t-107.5 42.5l63 223q77 -6 130.5 -16t100 -30t74 -51t42.5 -77.5t15 -110.5q0 -58 -12 -133q-23 -144 -23 -220q0 -75 24.5 -109t81.5 -39l-35 -219q-88 -9 -126.5 -83t-71.5 -284q-16 -99 -43.5 -168.5t-65 -115
t-95.5 -73.5t-122 -41.5t-157 -20.5l8 223q46 5 80 20t53.5 33t33 49.5t19 56t11.5 65.5l15 101q9 60 19 102t29.5 95.5t51.5 91t76 57.5q-85 37 -85 172q0 51 20 178z" />
    <glyph glyph-name="questiondown.case" horiz-adv-x="1086" 
d="M571 1003h273l-16 -137q-3 -33 -6 -49q-10 -65 -33 -109.5t-52.5 -65t-64.5 -33.5t-70.5 -16.5t-70 -13.5t-63 -24t-50 -49t-29.5 -88q-4 -32 -4 -44q0 -63 45.5 -89t158.5 -26q196 0 352 33l13 -262q-219 -52 -440 -52q-92 0 -157.5 6.5t-128.5 26.5t-101.5 54.5
t-61.5 92.5t-23 139q0 59 10 123q14 88 42 155t63.5 104.5t77.5 65t83 38.5t80.5 22.5t71 20.5t53.5 28.5t28 49.5zM723 1104q-83 0 -119.5 27t-36.5 88q0 20 5 52q14 92 60 130t145 38q84 0 120 -26.5t36 -87.5q0 -21 -5 -54q-14 -92 -59.5 -129.5t-145.5 -37.5z" />
    <glyph glyph-name="exclamdown.case" horiz-adv-x="604" 
d="M392 1104q-83 0 -119 26.5t-36 87.5q0 26 4 53q14 92 59.5 130t144.5 38q84 0 120 -26.5t36 -87.5q0 -21 -5 -54q-14 -92 -59.5 -129.5t-144.5 -37.5zM37 -7l205 1010h269l-115 -1010h-359z" />
    <glyph glyph-name="at.case" horiz-adv-x="1772" 
d="M388 716q-13 -84 -13 -143q0 -204 119 -290t355 -86q135 0 236.5 25.5t183 84.5t133.5 160.5t75 248.5q13 77 13 145q0 36 -5 74l255 71q8 -56 8 -111q0 -81 -15 -179q-60 -380 -290 -555.5t-627 -175.5q-348 0 -525 132.5t-177 417.5q0 83 15 181q31 197 107 338.5
t197 227t276 125t357 39.5q77 0 138 -14t110 -45t76 -85t27 -129q0 -30 -7 -79l-67 -421q-18 -110 -43 -206q-72 -45 -191 -72.5t-250 -27.5q-189 0 -276 65.5t-87 197.5q0 43 7 86q24 151 107 236t245 114q75 14 303 28q4 24 4 46q0 53 -31.5 74t-107.5 21q-136 0 -238 -25
t-185 -83.5t-135.5 -160.5t-76.5 -250zM1100 734l30 185q-141 -5 -210 -24q-81 -22 -114.5 -55.5t-46.5 -116.5q-3 -24 -3 -43q0 -64 41.5 -88.5t130.5 -24.5q28 0 74 9.5t71 22.5q17 68 27 135z" />
    <glyph glyph-name="guilsinglleft.case" horiz-adv-x="696" 
d="M398 716l201 -428h-279l-229 428l364 428h279z" />
    <glyph glyph-name="guilsinglright.case" horiz-adv-x="696" 
d="M689 716l-365 -428h-279l338 428l-202 428h279z" />
    <glyph glyph-name="guillemotleft.case" horiz-adv-x="1179" 
d="M397 716l202 -428h-279l-229 428l364 428h279zM881 716l202 -428h-279l-229 428l365 428h278z" />
    <glyph glyph-name="guillemotright.case" horiz-adv-x="1180" 
d="M689 716l-365 -428h-279l338 428l-202 428h279zM1173 716l-364 -428h-280l338 428l-202 428h279z" />
    <glyph glyph-name="hyphen.case" horiz-adv-x="785" 
d="M146 594l39 244h539l-38 -244h-540z" />
    <glyph glyph-name="endash.case" horiz-adv-x="1212" 
d="M146 600l37 231h968l-37 -231h-968z" />
    <glyph glyph-name="emdash.case" horiz-adv-x="2147" 
d="M146 600l37 231h1902l-36 -231h-1903z" />
    <glyph glyph-name="periodcentered.case" horiz-adv-x="596" 
d="M160 655q0 27 6 61q16 99 60 136.5t146 37.5q85 0 120.5 -25.5t35.5 -87.5q0 -27 -6 -61q-16 -100 -59 -137t-146 -37q-86 0 -121.5 25t-35.5 88z" />
    </font>
</defs>
</svg>
