<?xml version="1.0" standalone="no"?>
<!DOCTYPE svg PUBLIC "-//W3C//DTD SVG 1.1//EN" "http://www.w3.org/Graphics/SVG/1.1/DTD/svg11.dtd" >
<svg xmlns="http://www.w3.org/2000/svg" xmlns:xlink="http://www.w3.org/1999/xlink" version="1.1">
<metadata>
Created by FontForge 20170731 at Tue Oct 13 00:50:25 2020
 By Aleksey,,,
Copyright (c) 2011-2012 Durotype, www.durotype.com. All rights reserved.
</metadata>
<defs>
<font id="Flexo-MediumIt" horiz-adv-x="1210" >
  <font-face 
    font-family="Flexo Medium"
    font-weight="550"
    font-style="italic"
    font-stretch="normal"
    units-per-em="2048"
    panose-1="0 0 0 0 0 0 0 0 0 0"
    ascent="1618"
    descent="-430"
    x-height="1094"
    cap-height="1432"
    bbox="-383 -515 2479 1961"
    underline-thickness="102"
    underline-position="-345"
    slope="-9"
    unicode-range="U+0020-FB04"
  />
<missing-glyph horiz-adv-x="1319" 
d="M149 0v1475h1022v-1475h-1022zM598 737l-347 537v-1074zM1007 105l-347 538l-348 -538h695zM1007 1369h-695l348 -537zM1069 1274l-348 -537l348 -537v1074z" />
    <glyph glyph-name="f_f" unicode="ff" horiz-adv-x="1359" 
d="M162 1094h186l18 112q25 159 119.5 242.5t253.5 83.5q62 0 113 -9l-36 -135h-64q-173 0 -201 -176l-18 -118h473l18 112q25 159 119 242.5t253 83.5q61 0 113 -9l-36 -135h-63q-173 0 -201 -176l-19 -118h235l-23 -143h-235l-151 -951h-183l150 951h-473l-151 -951h-184
l151 951h-187z" />
    <glyph glyph-name="fi" unicode="fi" horiz-adv-x="1211" 
d="M1004 0h-186l150 951h-458l-151 -951h-184l151 951h-187l23 143h186l18 112q25 159 119.5 242.5t253.5 83.5q62 0 113 -9l-35 -135h-64q-173 0 -201 -176l-19 -118h644zM1249 1454q0 -23 -4 -47q-11 -71 -38.5 -97t-92.5 -26q-53 0 -74.5 17t-21.5 59q0 23 4 47
q11 70 39.5 97.5t91.5 27.5q53 0 74.5 -17.5t21.5 -60.5z" />
    <glyph glyph-name="fl" unicode="fl" horiz-adv-x="1207" 
d="M349 1094l17 112q25 159 119 242.5t254 83.5q241 0 492 -15l-194 -1223q-7 -43 -7 -88q0 -97 47 -175l-171 -80q-65 93 -65 221q0 50 9 111l175 1105h-272q-173 0 -201 -176l-19 -118h235l-23 -143h-235l-151 -951h-183l150 951h-187l23 143h187z" />
    <glyph glyph-name="f_f_i" unicode="ffi" horiz-adv-x="1869" 
d="M348 1094l18 112q25 159 119.5 242.5t253.5 83.5q61 0 113 -9l-35 -135h-64q-173 0 -201 -176l-19 -118h473l18 112q25 159 119 242.5t253 83.5q62 0 113 -9l-35 -135h-64q-173 0 -201 -176l-19 -118h644l-173 -1094h-185l150 951h-459l-150 -951h-184l150 951h-472
l-151 -951h-185l151 951h-187l23 143h186zM1771 1284q-53 0 -74.5 16.5t-21.5 59.5q0 11 4 47q11 70 39.5 97.5t91.5 27.5q53 0 75 -17.5t22 -60.5q0 -23 -4 -47q-11 -70 -39 -96.5t-93 -26.5z" />
    <glyph glyph-name="f_f_l" unicode="ffl" horiz-adv-x="1864" 
d="M1424 1094l-22 -143h-235l-151 -951h-183l150 951h-473l-151 -951h-184l151 951h-187l23 143h186l18 112q25 159 119.5 242.5t253.5 83.5q62 0 113 -9l-36 -135h-64q-173 0 -201 -176l-18 -118h473l18 112q25 159 119 242.5t253 83.5q243 0 492 -15l-194 -1223
q-7 -43 -7 -86q0 -97 48 -177l-172 -80q-66 94 -66 221q0 43 10 111l175 1105h-272q-173 0 -201 -176l-19 -118h234z" />
    <glyph glyph-name="f_b" unicode="fb" horiz-adv-x="1874" 
d="M348 1094l18 112q25 159 119.5 242.5t253.5 83.5q240 0 491 -15l-70 -444q144 36 274 36q202 0 294.5 -82t92.5 -276q0 -89 -18 -204q-26 -161 -70.5 -268.5t-116 -173t-166 -93t-228.5 -27.5q-245 0 -397 92q8 85 24 193l177 1118h-273q-173 0 -201 -176l-19 -118h234
l-22 -143h-235l-151 -951h-184l151 951h-187l23 143h186zM1246 135q77 0 135.5 19.5t97 52.5t66 87.5t43.5 112.5t29 140q19 121 19 185q0 117 -61 172t-216 55q-112 0 -223 -37l-92 -583q-14 -87 -20 -161q82 -43 222 -43z" />
    <glyph glyph-name="f_f_b" unicode="ffb" horiz-adv-x="2532" 
d="M1167 951l-150 -951h-184l150 951h-473l-151 -951h-184l151 951h-187l23 143h186l18 112q25 159 119.5 242.5t253.5 83.5q61 0 113 -9l-35 -135h-64q-173 0 -201 -176l-19 -118h473l18 112q25 159 119 242.5t253 83.5q242 0 492 -15l-70 -444q144 36 273 36
q202 0 295 -82t93 -276q0 -82 -19 -204q-26 -161 -70.5 -268.5t-116 -173t-166 -93t-227.5 -27.5q-245 0 -397 92q7 94 22 193l178 1118h-273q-173 0 -201 -176l-19 -118h235l-23 -143h-235zM1681 178q82 -43 222 -43q77 0 135.5 19.5t97 52.5t66 87.5t43.5 112.5t29 140
q19 121 19 185q0 117 -60.5 172t-215.5 55q-111 0 -224 -37l-92 -583q-14 -87 -20 -161z" />
    <glyph glyph-name="f_f_h" unicode="ffh" horiz-adv-x="2540" 
d="M533 1094h473l18 112q25 159 119 242.5t253 83.5q242 0 492 -15l-72 -452q151 43 297 44q107 0 180.5 -18t113 -54t56 -81t16.5 -108q0 -58 -13 -138l-113 -710h-184l108 681q10 68 10 108q0 89 -54 127.5t-197 38.5q-123 0 -245 -46l-144 -909h-184l219 1388h-272
q-173 0 -201 -176l-19 -118h235l-23 -143h-235l-150 -951h-184l150 951h-473l-151 -951h-184l151 951h-187l23 143h186l18 112q25 159 119.5 242.5t253.5 83.5q62 0 113 -9l-36 -135h-63q-173 0 -201 -176z" />
    <glyph glyph-name="f_f_j" unicode="ffj" horiz-adv-x="1898" 
d="M510 951l-151 -951h-184l151 951h-187l23 143h186l18 112q25 159 119.5 242.5t253.5 83.5q62 0 113 -9l-35 -135h-64q-173 0 -201 -176l-19 -118h473l18 112q25 159 119 242.5t253 83.5q61 0 113 -9l-36 -135h-63q-173 0 -201 -176l-19 -118h687l-175 -1099
q-35 -221 -140.5 -317t-305.5 -96q-14 0 -44 2l38 141q43 4 73 10t63.5 21t56 38.5t41 65t27.5 97.5l158 994h-502l-150 -951h-184l150 951h-473zM1718 1359q0 24 4 48q11 70 39.5 97.5t91.5 27.5q52 0 74.5 -18t22.5 -60q0 -17 -5 -47q-11 -70 -39 -96.5t-93 -26.5
q-52 0 -73.5 17t-21.5 58z" />
    <glyph glyph-name="f_f_k" unicode="ffk" horiz-adv-x="2416" 
d="M1742 600l516 494h216l-558 -523l412 -571h-231l-366 527l-84 -527h-183l220 1388h-274q-173 0 -201 -176l-19 -118h235l-23 -143h-235l-150 -951h-184l150 951h-473l-151 -951h-184l151 951h-187l23 143h186l18 112q25 159 119.5 242.5t253.5 83.5q62 0 113 -9l-35 -135
h-64q-173 0 -201 -176l-19 -118h473l18 112q25 159 119 242.5t253 83.5q242 0 492 -15z" />
    <glyph glyph-name="f_h" unicode="fh" horiz-adv-x="1883" 
d="M139 951l23 143h187l17 112q25 159 119 242.5t254 83.5q241 0 492 -15l-72 -452q151 43 297 44q107 0 180.5 -18t113 -54t56 -81t16.5 -108q0 -58 -13 -138l-112 -710h-185l108 681q11 64 11 109q0 89 -54.5 127t-197.5 38q-124 0 -245 -46l-143 -909h-185l220 1388h-273
q-173 0 -201 -176l-19 -118h235l-23 -143h-235l-151 -951h-183l150 951h-187z" />
    <glyph glyph-name="f_j" unicode="fj" horiz-adv-x="1241" 
d="M552 1212l-19 -118h687l-175 -1099q-35 -221 -140.5 -317t-305.5 -96q-16 0 -44 2l37 141q43 4 73 10t64 21t56 38.5t41 65t28 97.5l158 994h-502l-151 -951h-183l150 951h-187l23 143h187l18 112q25 159 119 242.5t253 83.5q62 0 113 -9l-35 -135h-64q-173 0 -201 -176z
M1061 1359q0 24 4 48q11 70 39.5 97.5t91.5 27.5q52 0 74.5 -18t22.5 -60q0 -23 -4 -47q-11 -70 -39 -96.5t-93 -26.5q-53 0 -74.5 16.5t-21.5 58.5z" />
    <glyph glyph-name="f_k" unicode="fk" horiz-adv-x="1759" 
d="M162 1094h187l18 112q25 159 119 242.5t253 83.5q241 0 492 -15l-146 -917l516 494h216l-558 -523l412 -571h-231l-366 527l-83 -527h-184l219 1388h-273q-173 0 -201 -176l-19 -118h235l-23 -143h-235l-151 -951h-183l150 951h-187z" />
    <glyph glyph-name=".notdef" horiz-adv-x="1319" 
d="M149 0v1475h1022v-1475h-1022zM598 737l-347 537v-1074zM1007 105l-347 538l-348 -538h695zM1007 1369h-695l348 -537zM1069 1274l-348 -537l348 -537v1074z" />
    <glyph glyph-name=".null" horiz-adv-x="0" 
 />
    <glyph glyph-name="nonmarkingreturn" horiz-adv-x="682" 
 />
    <glyph glyph-name="space" unicode=" " horiz-adv-x="553" 
 />
    <glyph glyph-name="exclam" unicode="!" horiz-adv-x="516" 
d="M199 -15q-52 0 -74 17.5t-22 58.5q0 18 5 48q11 70 39 97t91 27q52 0 74.5 -18t22.5 -60q0 -22 -4 -46q-11 -70 -39.5 -97t-92.5 -27zM188 417l129 1015h222l-192 -1015h-159z" />
    <glyph glyph-name="quotedbl" unicode="&#x22;" horiz-adv-x="730" 
d="M198 966l70 551h175l-104 -551h-141zM503 966l70 551h174l-103 -551h-141z" />
    <glyph glyph-name="numbersign" unicode="#" horiz-adv-x="1146" 
d="M235 1011h225q5 17 124 421h142l-124 -421h246l125 421h143l-125 -421h178l-22 -142h-198l-89 -304h183l-22 -143h-204l-126 -422h-144l126 422h-245l-126 -422h-143l125 422h-194l22 143h216l89 304h-205zM471 565h246l89 304h-246z" />
    <glyph glyph-name="dollar" unicode="$" horiz-adv-x="1007" 
d="M740 377q3 24 3 44q0 37 -13.5 67t-31 48.5t-54 37t-64 28.5t-78.5 27q-68 22 -113 40t-89.5 44.5t-70 56.5t-41 73t-15.5 98q0 34 8 84q29 182 133.5 269.5t290.5 104.5l32 192h137l-30 -188q157 -3 321 -35l-41 -152q-158 25 -276 25q-46 0 -81.5 -2t-79 -8.5
t-76 -19.5t-62.5 -33t-49 -52.5t-26 -74.5q-5 -35 -5 -56q0 -23 3.5 -42t13.5 -35t19 -28t30 -24t35 -19.5t46 -18.5t50.5 -16.5t60.5 -18.5q160 -47 239 -120t79 -205q0 -42 -7 -84q-29 -184 -136 -278t-293 -114l-31 -195h-138l30 188q-183 1 -342 36l43 156
q190 -28 334 -28q71 0 123.5 9.5t98.5 33.5t74 70.5t39 114.5z" />
    <glyph glyph-name="percent" unicode="%" horiz-adv-x="1678" 
d="M430 594q-137 0 -194 57.5t-57 181.5q0 70 18 183q18 114 41.5 187.5t64.5 129.5t104.5 81t155.5 25q138 0 195 -58t57 -183q0 -75 -17 -182q-18 -113 -42 -187t-65.5 -129.5t-105 -80.5t-155.5 -25zM313 841q0 -69 29 -103.5t102 -34.5q47 0 81.5 15.5t55.5 39.5
t37.5 68t25 84.5t18.5 105.5q19 125 19 173q0 71 -29 106t-103 35q-47 0 -81 -16t-55 -39.5t-37 -69t-24.5 -84.5t-18.5 -105q-20 -122 -20 -175zM1223 -7q-137 0 -194 57.5t-57 181.5q0 69 18 184q18 113 41.5 186.5t65 130t105 81.5t155.5 25q138 0 194.5 -58t56.5 -183
q0 -69 -18 -182t-41.5 -187t-65 -130t-105 -81t-155.5 -25zM1454 416q20 132 20 173q0 70 -29 105t-102 35q-39 0 -69 -9.5t-51.5 -31t-36.5 -45.5t-26.5 -64t-18.5 -74.5t-15 -88.5q-20 -134 -20 -175q0 -69 29 -103.5t102 -34.5q39 0 69 9.5t51.5 31t36 45t26.5 64
t18.5 74.5t15.5 89zM292 -29l1060 1490h142l-1061 -1490h-141z" />
    <glyph glyph-name="ampersand" unicode="&#x26;" horiz-adv-x="1343" 
d="M700 748l253 -358q81 114 120 287l173 -8q-64 -253 -198 -420l177 -249h-227l-83 122q-163 -137 -427 -137q-204 0 -303.5 76.5t-99.5 232.5q0 51 8 96q22 141 116 233t251 160q-33 51 -51 82t-35.5 84t-17.5 106q0 33 5 61q14 89 52 154t94.5 103t123.5 55.5t147 17.5
q64 0 118 -13.5t97.5 -42t68 -77.5t24.5 -114q0 -34 -5 -63q-12 -73 -46.5 -134.5t-88.5 -108t-112.5 -80t-133.5 -65.5zM624 858q56 26 94.5 47.5t81.5 53t68.5 71t32.5 85.5q5 30 5 50q0 135 -158 135q-82 0 -140 -46t-74 -144q-3 -21 -3 -38q0 -40 16.5 -83t31 -65.5
t45.5 -65.5zM828 249l-291 420q-58 -31 -95 -56t-74 -60t-58.5 -79.5t-30.5 -101.5q-4 -30 -4 -43q0 -69 40 -115t96 -63.5t124 -17.5q164 0 293 116z" />
    <glyph glyph-name="quotesingle" unicode="'" horiz-adv-x="426" 
d="M198 966l70 551h175l-104 -551h-141z" />
    <glyph glyph-name="parenleft" unicode="(" horiz-adv-x="609" 
d="M447 -264l-120 -89q-203 218 -203 609q0 146 27 314q98 627 468 923l92 -90q-280 -246 -372 -833q-29 -183 -29 -337q0 -331 137 -497z" />
    <glyph glyph-name="parenright" unicode=")" horiz-adv-x="608" 
d="M252 1403l119 90q204 -219 204 -609q0 -139 -28 -314q-100 -628 -468 -923l-91 89q276 243 371 834q29 183 29 336q0 332 -136 497z" />
    <glyph glyph-name="asterisk" unicode="*" horiz-adv-x="926" 
d="M626 707l-99 239l-174 -240l-106 67l177 244h-277l22 134h275l-99 243l129 68l96 -241l177 241l103 -68l-177 -243h278l-22 -134h-277l99 -245z" />
    <glyph glyph-name="plus" unicode="+" horiz-adv-x="1165" 
d="M557 688l65 416h174l-66 -416h407l-28 -171h-407l-65 -419h-174l67 419h-406l28 171h405z" />
    <glyph glyph-name="comma" unicode="," horiz-adv-x="479" 
d="M13 -269l209 514h213l-265 -514h-157z" />
    <glyph glyph-name="hyphen" unicode="-" horiz-adv-x="790" 
d="M167 464l25 160h518l-26 -160h-517z" />
    <glyph glyph-name="period" unicode="." horiz-adv-x="471" 
d="M359 155q0 -22 -4 -46q-11 -70 -38.5 -97t-92.5 -27q-53 0 -74.5 17t-21.5 58q0 19 5 49q11 70 39 97t91 27q52 0 74 -17.5t22 -60.5z" />
    <glyph glyph-name="slash" unicode="/" horiz-adv-x="860" 
d="M-23 -165l830 1647h167l-831 -1647h-166z" />
    <glyph glyph-name="zero" unicode="0" horiz-adv-x="1250" 
d="M568 -15q-225 0 -318.5 96.5t-93.5 303.5q0 123 30 309q20 125 43 218t57 176.5t78.5 139t105.5 96.5t141 60t182 19q225 0 318 -96t93 -303q0 -124 -30 -310q-24 -151 -53 -257.5t-75 -196.5t-109.5 -143.5t-155 -82.5t-213.5 -29zM344 391q0 -124 54 -186t189 -62
q48 0 88.5 8.5t72.5 22.5t59.5 39t47.5 51t37.5 65.5t29.5 75t23.5 87.5t19.5 96t18 106q33 213 33 303q0 124 -53.5 186.5t-188.5 62.5q-54 0 -98.5 -9.5t-79 -31t-61.5 -46.5t-48.5 -66t-36.5 -79t-28.5 -96t-22.5 -105.5t-20 -118.5q-35 -226 -35 -303z" />
    <glyph glyph-name="one" unicode="1" horiz-adv-x="720" 
d="M312 0l188 1190q-176 -47 -337 -69l16 156q211 33 388 112h154l-220 -1389h-189z" />
    <glyph glyph-name="two" unicode="2" horiz-adv-x="1104" 
d="M269 1361q230 42 428 42q422 0 422 -274q0 -31 -6 -67q-30 -184 -147 -303t-327 -201q-90 -35 -150 -71.5t-100 -86t-63 -100.5t-47 -132h692l-27 -168h-911q29 88 49 144t45.5 120.5t47.5 104.5t52 85.5t61 75.5t72.5 62t90.5 57t110 50q165 67 251 140.5t104 189.5
q4 24 4 51q0 92 -76 126t-261 34q-138 0 -320 -29z" />
    <glyph glyph-name="three" unicode="3" horiz-adv-x="1102" 
d="M1081 1065q-38 -242 -259 -334q84 -30 134 -93t50 -161q0 -29 -6 -64q-19 -121 -67.5 -205.5t-125.5 -132.5t-172 -69t-220 -21q-186 0 -387 41l46 153q221 -30 322 -30q195 0 287.5 52.5t116.5 200.5q4 24 4 53q0 79 -43 124t-124 55q-96 12 -246 12h-46l23 145
q143 3 297 25q94 14 148 70.5t68 146.5q4 27 4 53q0 42 -14.5 71.5t-37.5 46t-63 25t-77.5 11t-95.5 2.5q-136 0 -348 -29l5 150q212 40 395 40q75 0 135 -6t118.5 -24t97.5 -47t63 -77.5t24 -113.5q0 -33 -6 -70z" />
    <glyph glyph-name="four" unicode="4" horiz-adv-x="1188" 
d="M685 0l52 329h-542q-126 0 -126 86q0 9 2 27q12 69 111 177l623 678q53 57 96.5 81.5t90.5 24.5q38 0 61.5 -23.5t23.5 -68.5q0 -20 -2 -32l-126 -798h179l-23 -152h-180l-52 -329h-188zM866 1145l-601 -664h496z" />
    <glyph glyph-name="five" unicode="5" horiz-adv-x="1114" 
d="M395 844q78 5 121 5q99 0 170 -6.5t140.5 -26t112 -53.5t68.5 -91.5t26 -137.5q0 -46 -9 -105q-36 -234 -178.5 -339t-393.5 -105q-206 0 -403 42l44 153q178 -30 327 -30q104 0 169.5 11.5t117 44t79.5 91t43 153.5q4 34 4 48q0 51 -21.5 87.5t-55.5 57t-87.5 32.5
t-104 15.5t-120.5 3.5q-152 0 -262 -6l160 701h798l-27 -168h-633z" />
    <glyph glyph-name="six" unicode="6" horiz-adv-x="1212" 
d="M1131 433q-21 -131 -70.5 -220.5t-128 -138.5t-170.5 -69t-215 -20q-115 0 -195 25t-126.5 74t-67 115.5t-20.5 156.5q0 86 19 202q20 125 42 221.5t53 181.5t68 147t88 113.5t112 84t141 55.5t173.5 32.5t211.5 9.5q82 0 129 -1l-9 -156q-29 -1 -88.5 -2.5t-94.5 -2.5
t-92.5 -6t-94 -12.5t-87.5 -22t-84.5 -34t-72.5 -50.5t-64.5 -69.5t-47.5 -91t-34 -116.5q188 24 312 24q82 0 144.5 -8.5t117 -29.5t89 -56t54 -89.5t19.5 -127.5q0 -50 -11 -119zM371 687q-10 -39 -30 -157q-13 -81 -13 -145q0 -113 53.5 -177t186.5 -64q184 0 266 65
t108 227q7 41 7 80q0 115 -71 156t-222 41q-101 0 -285 -26z" />
    <glyph glyph-name="seven" unicode="7" horiz-adv-x="1025" 
d="M1104 1222l-740 -1222h-217l772 1222h-727l27 167h803q60 0 88.5 -25.5t21.5 -69.5q-5 -34 -28 -72z" />
    <glyph glyph-name="eight" unicode="8" horiz-adv-x="1219" 
d="M1205 1126q0 -34 -5 -62q-20 -126 -75.5 -202.5t-188.5 -138.5q88 -47 134 -110.5t46 -161.5q0 -34 -6 -76q-15 -93 -52.5 -163t-88 -112.5t-120 -69t-140 -36t-157.5 -9.5q-101 0 -178.5 15.5t-138 50t-92.5 95t-32 145.5q0 42 7 85q21 130 90 208.5t193 136.5
q-84 45 -122.5 105.5t-38.5 148.5q0 38 8 89q12 75 46 133.5t83 97t114 63t135 35t151 10.5q91 0 165.5 -14t135 -45t94 -86.5t33.5 -131.5zM300 326q0 -55 20.5 -92.5t60 -57.5t86 -28t109.5 -8q70 0 123.5 10t102.5 35.5t80 75t43 121.5q5 28 5 59q0 97 -72 141t-245 59
q-133 -19 -211 -79t-97 -180q-5 -33 -5 -56zM421 987q0 -88 71 -134.5t234 -56.5q130 26 201.5 78t88.5 159q4 24 4 50q0 52 -20 86.5t-59 52t-83 24.5t-105 7q-52 0 -93 -4.5t-82.5 -19t-71 -38t-51.5 -63.5t-30 -95q-4 -32 -4 -46z" />
    <glyph glyph-name="nine" unicode="9" horiz-adv-x="1211" 
d="M187 955q21 131 70.5 220.5t128 138.5t170.5 69t215 20q223 0 316 -92.5t93 -276.5q0 -86 -19 -203q-26 -167 -57.5 -286.5t-80.5 -218t-112 -160t-155.5 -104t-209 -60t-273.5 -17.5q-35 0 -130 2l9 156q29 1 88.5 2.5t94.5 2.5t92.5 6t94.5 12.5t87.5 22t84.5 34
t72.5 50.5t64 69.5t47.5 91t34 116.5q-194 -25 -311 -25q-82 0 -144.5 8.5t-117 29.5t-89 56t-54 89.5t-19.5 127.5q0 56 10 119zM751 1245q-185 0 -266.5 -65.5t-107.5 -227.5q-7 -51 -7 -79q0 -115 71 -156.5t222 -41.5q94 0 285 27q13 53 29 157q14 88 14 146
q0 113 -53.5 176.5t-186.5 63.5z" />
    <glyph glyph-name="colon" unicode=":" horiz-adv-x="521" 
d="M355 155q0 -22 -4 -46q-11 -70 -39 -97t-93 -27q-52 0 -73.5 17.5t-21.5 58.5q0 24 4 48q11 70 39.5 97t91.5 27q52 0 74 -17.5t22 -60.5zM340 743q-53 0 -74.5 17t-21.5 59q0 24 4 48q11 70 39.5 97.5t91.5 27.5q52 0 74.5 -18t22.5 -61q0 -1 -5 -46q-11 -71 -39 -97.5
t-92 -26.5z" />
    <glyph glyph-name="semicolon" unicode=";" horiz-adv-x="531" 
d="M403 743q-53 0 -74.5 17t-21.5 59q0 18 5 48q11 71 39 98t91 27q52 0 74.5 -18t22.5 -60q0 -23 -4 -47q-11 -71 -39 -97.5t-93 -26.5zM6 -269l208 514h214l-266 -514h-156z" />
    <glyph glyph-name="less" unicode="&#x3c;" horiz-adv-x="1212" 
d="M120 520l25 163l1056 449l-29 -184l-822 -346l712 -348l-29 -183z" />
    <glyph glyph-name="equal" unicode="=" horiz-adv-x="1277" 
d="M146 302l27 171h985l-28 -171h-984zM213 730l28 171h985l-28 -171h-985z" />
    <glyph glyph-name="greater" unicode="&#x3e;" horiz-adv-x="1212" 
d="M135 254l821 348l-711 346l29 184l913 -449l-25 -163l-1056 -449z" />
    <glyph glyph-name="question" unicode="?" horiz-adv-x="1024" 
d="M498 417h-161l24 179q9 67 38 108t69 58t87 25.5t94.5 19.5t89 31t73 67.5t43.5 122.5q8 48 8 81q0 98 -68 134t-243 36q-161 0 -319 -30l-8 156q192 41 389 41q88 0 151 -6t123.5 -24.5t97.5 -51t59 -87t22 -130.5q0 -55 -10 -115q-14 -89 -44 -155t-67.5 -101.5
t-82 -60t-88.5 -34t-87 -20.5t-77 -21.5t-58.5 -36t-31.5 -64.5zM254 60q0 25 4 49q11 70 39.5 97t91.5 27q52 0 74 -17.5t22 -60.5q0 -22 -4 -46q-11 -70 -39 -97t-93 -27q-52 0 -73.5 17t-21.5 58z" />
    <glyph glyph-name="at" unicode="@" horiz-adv-x="1829" 
d="M339 547q-13 -81 -13 -153q0 -228 137 -325.5t407 -97.5q153 0 269 29t209 94.5t152.5 178.5t84.5 274q14 93 14 167q0 29 -1 43l185 53q3 -34 3 -74q0 -80 -16 -189q-60 -380 -291.5 -555t-632.5 -175q-352 0 -530 132.5t-178 417.5q0 76 16 180q31 197 107.5 338.5
t198 227.5t278.5 125.5t360 39.5q333 0 333 -260q0 -34 -6 -75l-70 -442q-14 -85 -38 -194q-82 -42 -193 -66.5t-229 -24.5q-181 0 -265 62t-84 189q0 37 6 80q44 280 330 334q87 16 357 31q7 51 7 76q0 76 -41.5 106t-140.5 30q-155 0 -272 -28t-212 -93.5t-155 -178.5
t-86 -277zM1184 566l34 215q-202 -5 -287 -27q-92 -24 -136.5 -67.5t-58.5 -135.5q-5 -45 -5 -48q0 -79 51.5 -110t158.5 -31q45 0 106.5 12.5t105.5 31.5q16 64 31 160z" />
    <glyph glyph-name="A" unicode="A" horiz-adv-x="1330" 
d="M192 0h-202l665 1309q69 137 186 137t142 -137l243 -1309h-208l-70 397h-562zM462 552h459l-121 690z" />
    <glyph glyph-name="B" unicode="B" horiz-adv-x="1287" 
d="M1266 1078q-20 -127 -86.5 -217t-175.5 -129q179 -64 179 -269q0 -52 -8 -100q-10 -67 -34 -121t-56.5 -93t-77.5 -68t-93 -47t-107 -29.5t-116 -15.5t-124 -4q-248 0 -456 37l220 1390q211 34 443 34q81 0 146 -6t133.5 -25t114 -50.5t75 -86t29.5 -128.5q0 -33 -6 -72z
M1075 1108q0 47 -16.5 80t-43 52t-71 30t-89 14.5t-107.5 3.5q-119 0 -244 -17l-74 -465h252q68 0 118 5.5t98.5 21t81 42t56.5 71t34 106.5q5 33 5 56zM659 659h-253l-78 -497q130 -17 256 -17q71 0 122 5t101.5 20.5t83.5 42.5t58 73.5t35 111.5q5 28 5 61q0 50 -16.5 86
t-44.5 58t-72 34.5t-89.5 17t-107.5 4.5z" />
    <glyph glyph-name="C" unicode="C" horiz-adv-x="1089" 
d="M974 21q-167 -36 -341 -36q-262 0 -371.5 103t-109.5 332q0 122 28 296q25 159 58.5 272t85.5 204t126 144.5t176 81.5t239 28q179 0 329 -35l-42 -155q-142 23 -257 23q-86 0 -153.5 -14t-116 -36t-86 -63.5t-61 -81t-43 -106t-30.5 -121t-25 -141.5q-28 -175 -28 -265
q0 -75 17 -127.5t57.5 -92t112.5 -59t178 -19.5q114 0 264 23z" />
    <glyph glyph-name="D" unicode="D" horiz-adv-x="1345" 
d="M331 1412q211 34 443 34q149 0 251 -26.5t162 -83t85.5 -135t25.5 -190.5t-28 -295q-17 -110 -37 -194t-50 -163.5t-68.5 -135.5t-92 -103t-122.5 -75.5t-158 -44t-200 -15.5q-230 0 -431 36zM505 1267l-174 -1102q116 -16 196 -16q95 0 170 16t127 38.5t92 69.5
t62.5 83.5t42.5 108.5t28.5 117t22.5 134q29 186 29 263q0 73 -17.5 125.5t-60 94t-121.5 62.5t-195 21q-88 0 -202 -15z" />
    <glyph glyph-name="E" unicode="E" horiz-adv-x="1099" 
d="M1153 1426l-25 -154h-363q-89 0 -140.5 -9.5t-86.5 -39.5t-51 -74.5t-29 -126.5l-34 -213h603l-25 -160h-603l-38 -240q-11 -68 -11 -109q0 -83 50.5 -111.5t188.5 -28.5h363l-25 -155q-194 -9 -358 -9q-43 0 -73 0.5t-69 3t-66 7.5t-59 14t-53.5 21.5t-43 31t-34 42
t-20 55.5t-7.5 70q0 41 7 82l124 785q8 51 23.5 93.5t34 74t46.5 56.5t54 41.5t63 28t68 18t75 10t77 4.5t81 1q160 0 356 -9z" />
    <glyph glyph-name="F" unicode="F" horiz-adv-x="1058" 
d="M300 0h-196l175 1108q8 51 23.5 93.5t34 74t46.5 56.5t54 41.5t63 28t68 18t75 10t77 4.5t81 1q193 0 355 -9l-24 -154h-363q-118 0 -176.5 -21t-86.5 -71t-45 -158l-33 -213h602l-25 -160h-603z" />
    <glyph glyph-name="G" unicode="G" horiz-adv-x="1284" 
d="M755 610l25 156h442l-84 -532q-8 -49 -26 -87t-42 -64t-61.5 -44.5t-73.5 -29t-89.5 -16t-98.5 -7t-111 -1.5q-262 0 -371.5 104t-109.5 333q0 120 28 294q21 133 47.5 233t65 184.5t89.5 141t121 96t159 57.5t203 18q239 0 417 -35l-41 -157q-165 25 -346 25
q-67 0 -122.5 -8.5t-99 -22t-79.5 -38.5t-62 -50.5t-47.5 -66t-35.5 -76t-27.5 -90.5t-21.5 -99.5t-19 -111.5q-29 -183 -29 -267q0 -74 16.5 -126t57 -92t112.5 -59t179 -19q59 0 100 8t65 19.5t39 33t20.5 41t10.5 51.5l48 304h-248z" />
    <glyph glyph-name="H" unicode="H" horiz-adv-x="1382" 
d="M1091 815l98 617h197l-227 -1432h-197l103 650h-657l-103 -650h-196l226 1432h197l-98 -617h657z" />
    <glyph glyph-name="I" unicode="I" horiz-adv-x="524" 
d="M107 0l227 1432h196l-226 -1432h-197z" />
    <glyph glyph-name="J" unicode="J" horiz-adv-x="799" 
d="M455 418l161 1014h198l-155 -975q-20 -130 -53 -216t-89 -145t-138 -85t-199 -26q-118 0 -206 38l40 152q79 -27 177 -27q222 0 264 270z" />
    <glyph glyph-name="K" unicode="K" horiz-adv-x="1219" 
d="M530 1432l-105 -664l672 664h233l-710 -689l496 -743h-244l-457 703l-111 -703h-196l226 1432h196z" />
    <glyph glyph-name="L" unicode="L" horiz-adv-x="981" 
d="M154 323l176 1109h197l-163 -1023q-11 -68 -11 -109q0 -83 50.5 -111.5t188.5 -28.5h338l-24 -156q-218 -8 -333 -8q-57 0 -94 1t-86 6.5t-80.5 15t-66 27.5t-54 43.5t-32.5 64t-13 87.5q0 41 7 82z" />
    <glyph glyph-name="M" unicode="M" horiz-adv-x="1698" 
d="M632 1322l229 -878l510 876q36 62 80 94t88 32q55 0 81.5 -26t26.5 -82q0 -9 -2 -33l-140 -1305h-191l126 1150h-2l-491 -866q-51 -90 -125 -90q-76 0 -99 90l-220 867l-241 -1151h-182l276 1306q16 74 51 107t98 33q94 0 127 -124z" />
    <glyph glyph-name="N" unicode="N" horiz-adv-x="1410" 
d="M613 1317l437 -1061l186 1176h178l-206 -1302q-23 -145 -144 -145q-54 0 -89 30.5t-64 100.5l-437 1063l-187 -1179h-178l206 1302q23 144 145 144q52 0 88.5 -30.5t64.5 -98.5z" />
    <glyph glyph-name="O" unicode="O" horiz-adv-x="1356" 
d="M619 -15q-248 0 -354.5 102t-106.5 332q0 121 28 297q32 201 78.5 334t124 224.5t189 131.5t272.5 40q249 0 355 -101.5t106 -332.5q0 -126 -27 -296q-32 -201 -78.5 -334t-124 -225t-189.5 -132t-273 -40zM386 716q-33 -203 -33 -295q0 -135 63 -202.5t223 -67.5
q55 0 102 9t84 23.5t68 40.5t53.5 52.5t42 67.5t32.5 77.5t25.5 90t20.5 97.5t18 107q32 207 32 293q0 136 -63 204t-224 68q-56 0 -102.5 -9t-83.5 -23.5t-67.5 -40.5t-53 -52.5t-42 -67.5t-32 -77t-25 -90t-20.5 -97.5t-18 -107.5z" />
    <glyph glyph-name="P" unicode="P" horiz-adv-x="1223" 
d="M394 570l-91 -570h-196l224 1411q207 35 443 35q89 0 156.5 -7t133 -28.5t107.5 -57t68 -95.5t26 -142q0 -43 -10 -108q-17 -108 -56 -187.5t-91.5 -128.5t-127 -79t-153 -41t-178.5 -11q-107 0 -255 9zM419 731q99 -11 240 -11q183 0 279 61.5t122 226.5q7 49 7 77
q0 108 -72.5 155.5t-238.5 47.5q-128 0 -251 -17z" />
    <glyph glyph-name="Q" unicode="Q" horiz-adv-x="1356" 
d="M1068 -205l-146 -95q-6 3 -35.5 18.5t-39.5 21.5t-37 21.5t-39 26t-34.5 28.5t-35 34t-27.5 37.5t-25.5 46t-17.5 51.5q-249 0 -355 102t-106 333q0 128 27 296q32 201 78.5 334t124.5 224.5t190 131.5t273 40q248 0 354 -101.5t106 -331.5q0 -120 -28 -297
q-26 -166 -62 -284t-91 -208t-131 -142.5t-181 -76.5q32 -69 85.5 -113t152.5 -97zM842 1281q-56 0 -103 -9t-83.5 -23.5t-67.5 -40.5t-53.5 -52.5t-41.5 -67.5t-32 -77t-25.5 -90t-20.5 -97.5t-18 -107.5q-33 -203 -33 -294q0 -135 63 -203t224 -68q71 0 128 15t98 38
t74 65.5t54 83.5t39 106.5t28.5 119.5t23.5 137q32 197 32 294q0 136 -62.5 203.5t-223.5 67.5z" />
    <glyph glyph-name="R" unicode="R" horiz-adv-x="1268" 
d="M302 0h-196l224 1411q207 35 443 35q89 0 156 -7t133 -27.5t108.5 -56t68.5 -95t26 -141.5q0 -48 -9 -105q-31 -194 -129 -293t-258 -130l243 -591h-230l-221 573h-10q-107 0 -256 9zM420 743q99 -11 240 -11q182 0 278.5 61t122.5 221q6 39 6 74q0 108 -72 154.5
t-239 46.5q-127 0 -252 -17z" />
    <glyph glyph-name="S" unicode="S" horiz-adv-x="1074" 
d="M787 435q0 38 -14 68.5t-32.5 50t-56.5 38.5t-65.5 29t-80.5 27q-71 23 -117 41.5t-92.5 45.5t-72.5 58.5t-42 76t-16 100.5q0 36 8 86q34 212 168.5 301t379.5 89q189 0 364 -36l-43 -157q-158 26 -284 26q-57 0 -100.5 -3t-96 -15t-88 -32t-63.5 -57.5t-36 -88.5
q-6 -33 -6 -59q0 -27 6.5 -49t15 -38.5t29.5 -31.5t36.5 -24.5t51 -22.5t57.5 -20t71 -21q165 -49 246 -123.5t81 -210.5q0 -37 -8 -87q-34 -219 -176 -315t-394 -96q-194 0 -368 37l45 161q186 -28 344 -28q73 0 126.5 9.5t101 34.5t77 72t40.5 118q4 34 4 46z" />
    <glyph glyph-name="T" unicode="T" horiz-adv-x="1021" 
d="M1150 1432l-26 -162h-371l-201 -1270h-197l200 1270h-370l25 162h940z" />
    <glyph glyph-name="U" unicode="U" horiz-adv-x="1339" 
d="M1350 1432l-152 -964q-18 -113 -55.5 -197t-89 -138t-122 -87.5t-148.5 -47t-175 -13.5q-107 0 -185 16.5t-139 55.5t-92 109t-31 170q0 55 11 132l152 964h195l-155 -980q-8 -50 -8 -85q0 -111 66.5 -162t212.5 -51q172 0 256.5 70.5t109.5 227.5l155 980h194z" />
    <glyph glyph-name="V" unicode="V" horiz-adv-x="1267" 
d="M1392 1432l-642 -1309q-36 -73 -78 -105.5t-97 -32.5q-56 0 -88 33t-45 105l-226 1309h209l190 -1208l576 1208h201z" />
    <glyph glyph-name="W" unicode="W" horiz-adv-x="1812" 
d="M445 1432l55 -1202l399 904q31 71 69.5 103t90.5 32t80.5 -32t36.5 -103l105 -902l433 1200h193l-493 -1304q-53 -143 -165 -143q-55 0 -85.5 34t-39.5 108l-108 900l-397 -900q-62 -142 -170 -142q-111 0 -120 142l-82 1305h198z" />
    <glyph glyph-name="X" unicode="X" horiz-adv-x="1258" 
d="M715 898l409 534h212l-541 -696l341 -736h-227l-256 565l-428 -565h-217l568 729l-324 703h224z" />
    <glyph glyph-name="Y" unicode="Y" horiz-adv-x="1161" 
d="M708 555l-87 -555h-198l88 555l-310 877h212l230 -679l453 679h204z" />
    <glyph glyph-name="Z" unicode="Z" horiz-adv-x="1106" 
d="M1132 1266l-833 -1101h684l-27 -165h-821q-56 0 -81.5 20t-20.5 57q6 39 44 88l835 1102h-646l26 165h783q56 0 81 -20t20 -57q-6 -39 -44 -89z" />
    <glyph glyph-name="bracketleft" unicode="[" horiz-adv-x="612" 
d="M504 1335l-240 -1522h205l-22 -147h-379l287 1814h380l-23 -145h-208z" />
    <glyph glyph-name="backslash" unicode="\" horiz-adv-x="860" 
d="M560 -165l-308 1647h167l308 -1647h-167z" />
    <glyph glyph-name="bracketright" unicode="]" horiz-adv-x="612" 
d="M232 1335l23 145h380l-287 -1814h-378l23 147h205l241 1522h-207z" />
    <glyph glyph-name="asciicircum" unicode="^" horiz-adv-x="1010" 
d="M565 1432h169l214 -779h-175l-157 569l-337 -569h-175z" />
    <glyph glyph-name="underscore" unicode="_" horiz-adv-x="1020" 
d="M-6 -289l15 103h1018l-16 -103h-1017z" />
    <glyph glyph-name="grave" unicode="`" horiz-adv-x="481" 
d="M353 1163l-198 308h210l134 -308h-146z" />
    <glyph glyph-name="a" unicode="a" horiz-adv-x="1120" 
d="M1051 771l-78 -501q-11 -76 -39 -193q-187 -92 -477 -92q-190 0 -277.5 61t-87.5 192q0 38 6 81q23 147 103.5 232.5t229.5 108.5q119 18 427 30l4 26q7 46 7 73q0 88 -53.5 128t-177.5 40q-150 0 -370 -29l7 142q238 39 411 39q84 0 147 -11.5t116 -39.5t81 -80.5
t28 -128.5q0 -29 -7 -78zM504 131q156 0 267 44q19 84 31 160l36 225q-260 -7 -359 -28q-95 -20 -138.5 -63.5t-59.5 -145.5q-4 -24 -4 -51q0 -81 54 -111t173 -30z" />
    <glyph glyph-name="b" unicode="b" horiz-adv-x="1160" 
d="M719 1109q202 0 295 -82t93 -276q0 -89 -18 -204q-26 -161 -70.5 -268.5t-116.5 -173t-166.5 -93t-227.5 -27.5q-246 0 -397 92q6 80 23 193l198 1247h184l-70 -444q144 36 273 36zM422 922l-93 -583q-12 -75 -19 -161q82 -43 222 -43q77 0 135.5 19.5t97 52.5t66 87.5
t43.5 112.5t29 140q19 121 19 185q0 117 -60.5 172t-216.5 55q-110 0 -223 -37z" />
    <glyph glyph-name="c" unicode="c" horiz-adv-x="924" 
d="M803 20q-161 -35 -310 -35q-99 0 -169.5 27t-109 77.5t-55.5 113.5t-17 146q0 94 19 210q15 94 34 165.5t49 136t71.5 108.5t98 76.5t132.5 48t173 15.5q137 0 249 -34l-37 -142q-109 21 -180 21q-78 0 -133.5 -8t-97.5 -29.5t-68.5 -49t-46.5 -76.5t-32 -100t-25 -132
q-21 -135 -21 -199q0 -114 64 -165.5t232 -51.5q70 0 186 24z" />
    <glyph glyph-name="d" unicode="d" horiz-adv-x="1161" 
d="M933 1073l70 444h185l-198 -1247q-13 -87 -38 -193q-181 -92 -426 -92q-220 0 -320 82.5t-100 282.5q0 86 18 197q25 158 67.5 265t110.5 173.5t157 95t213 28.5q128 0 261 -36zM697 959q-72 0 -127 -11t-94 -37t-66 -57t-46 -82t-30.5 -101t-23.5 -124q-16 -98 -16 -167
q0 -122 57.5 -183.5t198.5 -61.5q140 0 236 43q15 62 31 161l92 583q-100 37 -212 37z" />
    <glyph glyph-name="e" unicode="e" horiz-adv-x="1159" 
d="M157 547q48 303 174.5 432.5t388.5 129.5q217 0 307.5 -87.5t90.5 -257.5q0 -67 -15 -167q-10 -61 -18 -93q-91 -16 -254 -32t-281 -21l-226 -10q-3 -35 -3 -63q0 -128 64.5 -183.5t214.5 -55.5q169 0 386 29l-7 -145q-246 -38 -462 -38q-202 0 -289 98.5t-87 279.5
q0 78 16 184zM341 576l254 11q171 8 323 28q6 23 13 65q7 49 7 80q0 100 -57 151t-184 51q-91 0 -154 -25t-102.5 -78t-61.5 -118.5t-38 -164.5z" />
    <glyph glyph-name="f" unicode="f" horiz-adv-x="702" 
d="M552 1212l-19 -118h235l-23 -143h-235l-151 -951h-183l150 951h-187l23 143h187l17 112q25 159 119 242.5t254 83.5q62 0 113 -9l-35 -135h-64q-173 0 -201 -176z" />
    <glyph glyph-name="g" unicode="g" horiz-adv-x="1170" 
d="M93 -377l38 143q205 -32 370 -32q147 0 214 56.5t87 184.5l11 70q-138 -35 -273 -35q-202 0 -295.5 80.5t-93.5 273.5q0 92 17 195q25 156 70 261.5t117 169.5t166 91.5t226 27.5q247 0 397 -91q-10 -107 -23 -194l-143 -904q-13 -80 -44.5 -140.5t-74 -97.5t-101 -60
t-119 -31.5t-134.5 -8.5q-174 0 -412 41zM355 559q-18 -119 -18 -173q0 -117 60.5 -171.5t216.5 -54.5q112 0 223 37l88 559q16 101 21 160q-85 44 -222 44q-76 0 -134 -19t-96.5 -51.5t-66.5 -85t-44 -110t-28 -135.5z" />
    <glyph glyph-name="h" unicode="h" horiz-adv-x="1171" 
d="M1097 710l-113 -710h-185l109 681q10 68 10 108q0 90 -54.5 128t-196.5 38q-123 0 -245 -46l-144 -909h-185l241 1517h184l-71 -452q151 43 296 44q107 0 180.5 -18t113.5 -54t56.5 -81.5t16.5 -107.5q0 -58 -13 -138z" />
    <glyph glyph-name="i" unicode="i" horiz-adv-x="481" 
d="M519 1454q0 -17 -5 -47q-11 -70 -38.5 -96.5t-92.5 -26.5q-53 0 -74.5 17t-21.5 59q0 23 4 47q11 70 40 97.5t92 27.5q52 0 74 -17.5t22 -60.5zM88 0l173 1094h185l-173 -1094h-185z" />
    <glyph glyph-name="j" unicode="j" horiz-adv-x="487" 
d="M402 1284q-53 0 -74 16.5t-21 58.5q0 24 4 48q11 70 39.5 97.5t91.5 27.5q52 0 74.5 -17.5t22.5 -59.5q0 -18 -5 -48q-11 -70 -39 -96.5t-93 -26.5zM100 -43l180 1137h186l-175 -1099q-35 -221 -140.5 -317t-305.5 -96q-15 0 -43 2l37 141q54 5 90 14.5t74 32.5t62 69
t35 116z" />
    <glyph glyph-name="k" unicode="k" horiz-adv-x="1045" 
d="M517 1517l-145 -917l516 494h215l-557 -523l411 -571h-231l-365 527l-84 -527h-184l241 1517h183z" />
    <glyph glyph-name="l" unicode="l" horiz-adv-x="474" 
d="M117 283l196 1234h185l-194 -1223q-7 -43 -7 -86q0 -97 48 -177l-172 -80q-65 93 -65 221q0 50 9 111z" />
    <glyph glyph-name="m" unicode="m" horiz-adv-x="1777" 
d="M108 0l130 822q17 107 38 194q96 41 219.5 67t238.5 26q181 0 260 -79q183 79 384 79q94 0 159 -19.5t100.5 -57t50.5 -83.5t15 -108q0 -53 -12 -134l-112 -707h-185l108 681q10 65 10 104q0 89 -47 129.5t-162 40.5q-128 0 -248 -60q4 -36 4 -59q0 -52 -12 -129
l-112 -707h-184l107 681q10 65 10 104q0 89 -47 129.5t-162 40.5q-47 0 -111.5 -12.5t-106.5 -31.5q-18 -79 -31 -161l-118 -750h-184z" />
    <glyph glyph-name="n" unicode="n" horiz-adv-x="1200" 
d="M410 750l-119 -750h-184l130 822q14 85 38 194q214 93 499 93q85 0 148 -12.5t103 -34.5t64 -56t33.5 -71.5t9.5 -86.5q0 -60 -13 -141l-112 -707h-184l107 680q11 66 11 110q0 89 -53.5 127.5t-193.5 38.5q-63 0 -136 -12.5t-117 -32.5q-15 -62 -31 -161z" />
    <glyph glyph-name="o" unicode="o" horiz-adv-x="1182" 
d="M545 -15q-214 0 -308.5 83t-94.5 275q0 89 18 204q49 308 176 435t387 127q213 0 308 -85t95 -277q0 -87 -18 -200q-32 -204 -97.5 -325.5t-178 -179t-287.5 -57.5zM327 355q0 -123 53.5 -169.5t182.5 -46.5q167 0 245 87.5t115 320.5q18 111 18 188q0 122 -53.5 171
t-182.5 49q-114 0 -181 -34.5t-109.5 -122t-68.5 -251.5q-19 -122 -19 -192z" />
    <glyph glyph-name="p" unicode="p" horiz-adv-x="1161" 
d="M312 21l-68 -424h-184l194 1227q13 90 38 194q178 91 426 91q220 0 320.5 -83t100.5 -283q0 -85 -18 -196q-34 -210 -101.5 -333t-174.5 -176t-272 -53q-130 0 -261 36zM547 135q72 0 127 11.5t94.5 37t66 56.5t46 82t31 101t23.5 124q16 99 16 169q0 121 -57.5 182.5
t-198.5 61.5q-137 0 -237 -44q-15 -68 -30 -160l-93 -583q103 -38 212 -38z" />
    <glyph glyph-name="q" unicode="q" horiz-adv-x="1161" 
d="M732 -403l67 424q-144 -36 -273 -36q-202 0 -295 82.5t-93 276.5q0 88 18 203q26 161 70.5 268.5t116.5 173t166.5 93t227.5 27.5q248 0 397 -91q-5 -67 -24 -194l-194 -1227h-184zM935 916q-83 44 -222 44q-64 0 -115.5 -12.5t-88.5 -39t-64.5 -60.5t-47 -83t-32 -99.5
t-23.5 -118.5q-19 -121 -19 -184q0 -118 60.5 -173t216.5 -55q107 0 223 38l93 583q12 76 19 160z" />
    <glyph glyph-name="r" unicode="r" horiz-adv-x="707" 
d="M289 0h-183l130 824q13 90 38 194q178 91 426 91q58 0 99 -4l-39 -154q-33 4 -85 4q-137 0 -236 -44q-16 -64 -31 -160z" />
    <glyph glyph-name="s" unicode="s" horiz-adv-x="963" 
d="M688 324q0 15 -3 28.5t-7 24t-13.5 20.5t-16.5 17t-22 14.5l-24 12t-28.5 11.5t-29.5 10.5t-33 10.5t-34 11q-130 42 -176 68q-112 70 -114 195q0 35 5 62q13 85 50.5 145t95 93t124.5 47.5t152 14.5q190 0 359 -39l-41 -142q-149 28 -264 28q-30 0 -48.5 -0.5t-50.5 -3
t-53 -7.5t-47 -15t-42.5 -24t-30 -35.5t-17.5 -48.5q-2 -10 -2 -29q0 -22 5.5 -40t19 -32t25 -23.5t36 -20t38.5 -15.5t46 -15t45 -15q45 -16 69.5 -25t60 -24.5t55 -28t42.5 -32.5t34 -41.5t19 -50.5t8 -63q0 -29 -6 -67q-14 -89 -55 -152.5t-105 -98t-137.5 -49.5
t-166.5 -15q-182 0 -348 40l41 144q155 -28 276 -28q33 0 50 0.5t52 3t56.5 8t50 16.5t46 26.5t32 40t19.5 55.5q3 18 3 33z" />
    <glyph glyph-name="t" unicode="t" horiz-adv-x="726" 
d="M400 1373l190 30l-49 -309h231l-22 -143h-232l-104 -654q-5 -35 -5 -56q0 -62 33.5 -84.5t110.5 -22.5q35 0 69 3l-8 -138q-86 -14 -138 -14q-132 0 -194.5 51t-62.5 159q0 41 7 82l107 674h-189l23 143h189z" />
    <glyph glyph-name="u" unicode="u" horiz-adv-x="1195" 
d="M163 388l112 706h184l-108 -680q-11 -68 -11 -113q0 -88 53.5 -125.5t193.5 -37.5q62 0 134.5 13t116.5 33q16 63 31 160l119 750h184l-130 -822q-15 -91 -39 -193q-216 -94 -496 -94q-105 0 -177 18.5t-110 55t-54 81.5t-16 106t13 142z" />
    <glyph glyph-name="v" unicode="v" horiz-adv-x="1126" 
d="M1201 1094l-516 -982q-66 -127 -168 -127q-53 0 -83.5 30.5t-44.5 96.5l-202 982h195l172 -904l460 904h187z" />
    <glyph glyph-name="w" unicode="w" horiz-adv-x="1684" 
d="M207 1094h189l72 -902l349 694q32 63 66 92.5t81 29.5t73.5 -30t37.5 -92l120 -692l361 900h182l-413 -980q-55 -129 -158 -129q-51 0 -79 31.5t-40 97.5l-124 664l-339 -664q-34 -66 -72 -97.5t-88 -31.5q-106 0 -119 130z" />
    <glyph glyph-name="x" unicode="x" horiz-adv-x="1120" 
d="M635 710l311 384h199l-435 -522l295 -572h-217l-212 426l-344 -426h-204l473 568l-271 526h213z" />
    <glyph glyph-name="y" unicode="y" horiz-adv-x="1055" 
d="M587 314l375 780h186l-736 -1497h-187l240 479l-271 1018h196z" />
    <glyph glyph-name="z" unicode="z" horiz-adv-x="1075" 
d="M1055 963l-722 -809h589l-25 -154h-775q-36 0 -54.5 16.5t-13.5 44.5q5 34 39 71l725 814h-578l23 148h763q36 0 54.5 -16.5t13.5 -44.5q-5 -31 -39 -70z" />
    <glyph glyph-name="braceleft" unicode="{" horiz-adv-x="616" 
d="M380 202l-17 -108q-11 -72 -11 -110q0 -74 30.5 -118.5t104.5 -55.5l-36 -132q-137 17 -204 77t-67 195q0 55 10 115q26 161 26 254q0 89 -25.5 134t-84.5 55l21 132q93 15 140.5 114t83.5 329q16 103 48.5 174.5t83 114.5t110 65t141.5 32l-5 -131q-54 -8 -92 -32.5
t-61.5 -65t-37 -83.5t-23.5 -104l-18 -108q-7 -43 -12.5 -70t-16.5 -70.5t-25 -74t-33.5 -63.5t-48 -56.5t-62.5 -37.5q95 -51 95 -218q0 -59 -14 -153z" />
    <glyph glyph-name="bar" unicode="|" horiz-adv-x="500" 
d="M168 -403v1920h164v-1920h-164z" />
    <glyph glyph-name="braceright" unicode="}" horiz-adv-x="616" 
d="M-27 -322l5 132q54 8 92.5 32t62 64t37 83.5t22.5 104.5l17 108q7 45 15 82t24 85t36 84t52 69t71 51q-97 46 -97 205q0 56 17 167l17 108q11 71 11 110q0 74 -31 118.5t-104 56.5l36 131q136 -17 203.5 -77.5t67.5 -194.5q0 -54 -10 -114q-27 -167 -27 -255
q0 -89 26 -133.5t85 -54.5l-22 -132q-93 -16 -139.5 -114t-83.5 -329q-16 -103 -48.5 -175t-83 -115t-110 -65t-141.5 -32z" />
    <glyph glyph-name="asciitilde" unicode="~" horiz-adv-x="1234" 
d="M1032 821h166q-41 -168 -129.5 -257.5t-195.5 -89.5q-64 0 -116.5 18.5t-87.5 45t-66 53.5t-66 45.5t-72 18.5q-53 0 -92 -42.5t-68 -130.5h-166q41 168 129.5 257.5t195.5 89.5q64 0 116.5 -18.5t87.5 -45.5t66 -53.5t66 -45t72 -18.5q53 0 91.5 42t68.5 131z" />
    <glyph glyph-name="uni00A0" unicode="&#xa0;" horiz-adv-x="553" 
 />
    <glyph glyph-name="exclamdown" unicode="&#xa1;" horiz-adv-x="500" 
d="M355 847q-52 0 -74 17.5t-22 60.5q0 23 4 47q11 70 38.5 97t92.5 27q52 0 74 -17.5t22 -58.5q0 -24 -4 -48q-11 -70 -39.5 -97.5t-91.5 -27.5zM55 -351l192 1015h159l-129 -1015h-222z" />
    <glyph glyph-name="cent" unicode="&#xa2;" horiz-adv-x="865" 
d="M781 326l-7 -142q-128 -28 -240 -33l-30 -188h-129l29 190q-101 12 -163 61.5t-85 119.5t-23 167q0 81 19 204q16 98 36 170.5t52.5 137t77.5 108t109.5 72.5t148.5 40l30 193h131l-30 -186q117 -1 228 -34l-36 -137q-111 20 -173 20q-76 0 -130.5 -8t-95.5 -29
t-66.5 -47t-45 -74t-31 -97.5t-23.5 -128.5q-21 -131 -21 -193q0 -110 61.5 -159.5t225.5 -49.5q62 0 181 23z" />
    <glyph glyph-name="sterling" unicode="&#xa3;" horiz-adv-x="1167" 
d="M337 627h-203l23 148h182q4 131 22 251q14 88 50 155t84.5 108.5t115.5 67.5t136 36t152 10q119 0 188.5 -36t135.5 -112l-116 -116q-50 50 -103.5 74.5t-123.5 24.5q-113 0 -182 -29t-102.5 -84t-48.5 -149q-10 -67 -14 -201h310l-23 -148h-293q-3 -48 -16 -137
q-23 -145 -126 -323h318q171 0 324 23l-7 -154q-175 -36 -453 -36h-337q-49 0 -69.5 21.5t-14.5 55.5q3 21 28 62t53.5 84t57.5 111.5t40 138.5q10 60 12 154z" />
    <glyph glyph-name="currency" unicode="&#xa4;" horiz-adv-x="1263" 
d="M1002 431l147 -142l-115 -116l-146 148q-120 -80 -256 -80q-141 0 -258 80l-146 -148l-113 116l147 144q-80 115 -80 252q0 139 81 257l-148 146l113 113l148 -147q117 80 256 80q141 0 257 -78l145 145l115 -113l-147 -144q83 -116 83 -259q0 -141 -83 -254zM632 403
q114 0 199.5 82t85.5 201q0 117 -82.5 201t-202.5 84q-116 0 -200 -83t-84 -202q0 -116 82 -199.5t202 -83.5z" />
    <glyph glyph-name="yen" unicode="&#xa5;" horiz-adv-x="1087" 
d="M426 1389l180 -647l392 647h190l-422 -690h170l-19 -128h-229l-20 -33l-17 -102h244l-20 -127h-243l-49 -309h-192l49 309h-240l21 127h239l16 102l-10 33h-224l20 128h168l-201 690h197z" />
    <glyph glyph-name="brokenbar" unicode="&#xa6;" horiz-adv-x="462" 
d="M149 -289v661h164v-661h-164zM149 743v660h164v-660h-164z" />
    <glyph glyph-name="section" unicode="&#xa7;" horiz-adv-x="1097" 
d="M1046 533q-25 -162 -237 -276q84 -84 84 -188q0 -19 -3 -40q-12 -73 -48 -131t-85.5 -94t-113 -59.5t-125.5 -32.5t-128 -9q-188 0 -357 39l41 147q165 -31 306 -31q30 0 48 0.5t53 3.5t58.5 8.5t53.5 17.5t49.5 29t35.5 43.5t21 59.5q2 16 2 23q0 29 -14.5 55.5t-31 43
t-56.5 39t-61 32t-75 33.5q-42 18 -66.5 29.5t-63 32t-62 38t-51 43.5t-43 53t-26 62.5t-10.5 75.5q0 24 5 57q28 171 231 277q-71 74 -71 164q0 12 4 42q23 147 142 236.5t303 89.5q196 0 358 -39l-41 -143q-155 31 -306 31q-114 0 -185 -42t-84 -119q-2 -14 -2 -22
q0 -30 15 -57t34.5 -46t57 -41t64 -34.5t73.5 -32.5q44 -19 74 -33.5t70 -37.5t66.5 -47t51.5 -54.5t37 -67.5t12 -80q0 -14 -4 -48zM871 546q0 54 -40.5 98t-134.5 90q-29 14 -100 42.5t-112 51.5q-149 -71 -166 -175q-3 -18 -3 -34q0 -52 34.5 -95.5t117.5 -84.5
q36 -18 111 -46.5t118 -50.5q158 76 173 174q2 10 2 30z" />
    <glyph glyph-name="dieresis" unicode="&#xa8;" horiz-adv-x="801" 
d="M309 1196q-40 0 -65.5 25t-25.5 64q0 12 1 18q7 45 43.5 76t80.5 31q39 0 63.5 -25t24.5 -63q0 -7 -2 -19q-8 -45 -42.5 -76t-77.5 -31zM666 1196q-40 0 -65 25t-25 64q0 12 1 18q8 45 43.5 76t79.5 31q39 0 63.5 -24.5t24.5 -63.5q0 -5 -2 -19q-7 -45 -41.5 -76
t-78.5 -31z" />
    <glyph glyph-name="copyright" unicode="&#xa9;" horiz-adv-x="1670" 
d="M1059 566h136q-12 -131 -112 -211.5t-238 -80.5q-183 0 -280.5 124.5t-97.5 319.5q0 85 24.5 163t70.5 140t119.5 99.5t163.5 37.5q127 0 229.5 -69.5t120.5 -198.5h-136q-12 73 -70.5 112.5t-143.5 39.5q-104 0 -168.5 -86.5t-64.5 -237.5q0 -153 62 -237.5t171 -84.5
q81 0 141 46t73 124zM835 1446q150 0 285 -57t233 -154t155.5 -232t57.5 -285q0 -200 -97.5 -368.5t-265.5 -266.5t-368 -98t-368 98t-265.5 266.5t-97.5 368.5q0 150 57.5 285t155.5 232t233 154t285 57zM835 1327q-167 0 -305.5 -80t-218.5 -220t-80 -309
q0 -171 80 -311.5t218.5 -221t305.5 -80.5t305.5 80.5t218 221t79.5 311.5q0 127 -47 240t-127 193.5t-192 128t-237 47.5z" />
    <glyph glyph-name="ordfeminine" unicode="&#xaa;" horiz-adv-x="843" 
d="M811 1182l-53 -335q-10 -63 -26 -131q-129 -63 -324 -63q-129 0 -189 41.5t-60 130.5q0 27 4 54q31 199 228 230q75 12 281 20l2 16q4 36 4 48q0 58 -34.5 84.5t-115.5 26.5q-100 0 -251 -21l4 100q162 27 281 27q57 0 100 -8t79 -26.5t55 -54t19 -87.5q0 -27 -4 -52z
M440 755q100 0 175 29q3 18 10 56t9 50l23 148q-175 -6 -233 -19q-61 -13 -89.5 -42t-38.5 -95q-3 -18 -3 -35q0 -53 35 -72.5t112 -19.5z" />
    <glyph glyph-name="guillemotleft" unicode="&#xab;" horiz-adv-x="1024" 
d="M314 530l194 -411h-182l-220 411l350 411h182zM714 530l194 -411h-182l-220 411l350 411h181z" />
    <glyph glyph-name="logicalnot" unicode="&#xac;" horiz-adv-x="1264" 
d="M1196 805l-97 -608h-180l69 437h-805l28 171h985z" />
    <glyph glyph-name="uni00AD" unicode="&#xad;" horiz-adv-x="790" 
d="M167 464l25 160h518l-26 -160h-517z" />
    <glyph glyph-name="registered" unicode="&#xae;" horiz-adv-x="1080" 
d="M465 964v-206h-94v507h180q104 0 151.5 -37.5t47.5 -111.5q0 -52 -26.5 -88.5t-75.5 -49.5l109 -220h-106l-100 206h-86zM96 1003q0 185 130 314t315 129t314 -129t129 -314t-129 -314.5t-314 -129.5t-315 129.5t-130 314.5zM894 1003q0 151 -102 254t-251 103
t-251.5 -103t-102.5 -254q0 -152 102.5 -255t251.5 -103t251 103t102 255zM538 1186h-73v-143h76q116 0 116 73q0 38 -28.5 54t-90.5 16z" />
    <glyph glyph-name="macron" unicode="&#xaf;" horiz-adv-x="851" 
d="M232 1234l21 129h572l-21 -129h-572z" />
    <glyph glyph-name="degree" unicode="&#xb0;" horiz-adv-x="787" 
d="M394 846q-124 0 -212.5 88t-88.5 213q0 124 88 211.5t213 87.5q124 0 212 -87.5t88 -211.5t-88 -212.5t-212 -88.5zM394 968q75 0 127 52t52 127q0 74 -52 126t-127 52t-127 -52t-52 -126q0 -75 52 -127t127 -52z" />
    <glyph glyph-name="plusminus" unicode="&#xb1;" horiz-adv-x="1201" 
d="M596 833l56 354h178l-56 -354h403l-27 -169h-403l-57 -359h-178l57 359h-404l27 169h404zM63 15l27 172h985l-27 -172h-985z" />
    <glyph glyph-name="twosuperior" unicode="&#xb2;" horiz-adv-x="677" 
d="M229 1647q152 27 262 27q257 0 257 -166q0 -20 -3 -42q-17 -110 -88 -182t-198 -121q-92 -36 -132 -81t-66 -129h403l-19 -116h-558q24 72 39.5 114.5t37 89.5t42 74.5t50 56.5t66 49.5t85.5 40.5q92 37 140 78.5t59 106.5q3 15 3 28q0 49 -42.5 67.5t-144.5 18.5
q-77 0 -197 -19z" />
    <glyph glyph-name="threesuperior" unicode="&#xb3;" horiz-adv-x="673" 
d="M725 1469q-21 -134 -140 -194q96 -45 96 -149q0 -18 -3 -38q-23 -142 -111.5 -200t-243.5 -58q-115 0 -238 26l31 106q150 -19 198 -19q108 0 158.5 29t63.5 110q3 15 3 30q0 86 -88 97q-41 6 -147 6h-34l16 102q106 3 184 15q48 7 77.5 38.5t37.5 79.5q2 10 2 28
q0 28 -11 46t-34 26.5t-48 11t-65 2.5q-73 0 -214 -19l3 105q143 26 243 26q58 0 102 -6.5t84 -23.5t61 -51t21 -83q0 -13 -4 -43z" />
    <glyph glyph-name="acute" unicode="&#xb4;" horiz-adv-x="479" 
d="M141 1163l231 308h210l-296 -308h-145z" />
    <glyph glyph-name="mu" unicode="&#xb5;" horiz-adv-x="1230" 
d="M89 -403l237 1497h172l-108 -685q-5 -27 -5 -63q0 -90 45.5 -143.5t134.5 -53.5q133 0 222 121.5t121 322.5l79 501h174l-110 -699q-18 -120 -18 -156q0 -97 68 -122l-21 -132q-200 0 -208 226l-1 1q-62 -110 -149 -168.5t-184 -58.5q-126 0 -199 102l-78 -490h-172z" />
    <glyph glyph-name="paragraph" unicode="&#xb6;" horiz-adv-x="1259" 
d="M586 -315h-152l145 912q-184 2 -293.5 100.5t-109.5 247.5q0 35 5 63q33 209 182.5 316.5t386.5 107.5h523l-278 -1747h-150l255 1613h-259z" />
    <glyph glyph-name="periodcentered" unicode="&#xb7;" horiz-adv-x="486" 
d="M405 633q0 -23 -4 -47q-11 -70 -38.5 -96.5t-92.5 -26.5q-53 0 -75 17t-22 59q0 17 5 47q11 70 39.5 97.5t91.5 27.5q52 0 74 -17.5t22 -60.5z" />
    <glyph glyph-name="cedilla" unicode="&#xb8;" horiz-adv-x="439" 
d="M73 -171l127 171h114l-86 -111q57 -3 96 -35t39 -85q0 -8 -2 -22q-9 -58 -47 -97.5t-88 -55.5t-110 -16q-85 0 -145 39l44 85q56 -30 115 -30q36 0 65 15.5t34 50.5q5 32 -23.5 54t-63.5 29.5t-69 7.5z" />
    <glyph glyph-name="onesuperior" unicode="&#xb9;" horiz-adv-x="452" 
d="M250 840l109 690q-82 -21 -195 -37l11 108q125 19 235 67h104l-131 -828h-133z" />
    <glyph glyph-name="ordmasculine" unicode="&#xba;" horiz-adv-x="874" 
d="M459 653q-146 0 -210.5 56.5t-64.5 186.5q0 53 13 136q33 207 119 292.5t263 85.5q146 0 210 -57t64 -187q0 -59 -12 -134q-33 -205 -119.5 -292t-262.5 -87zM331 1032q-13 -84 -13 -129q0 -81 35.5 -111.5t119.5 -30.5q109 0 159.5 58t75.5 213q12 74 12 124
q0 81 -35.5 114t-119.5 33q-109 0 -159 -56t-75 -215z" />
    <glyph glyph-name="guillemotright" unicode="&#xbb;" horiz-adv-x="1024" 
d="M602 530l-351 -411h-181l324 411l-194 411h182zM1002 530l-351 -411h-182l325 411l-195 411h183z" />
    <glyph glyph-name="onequarter" unicode="&#xbc;" horiz-adv-x="1478" 
d="M1097 0l31 192h-304q-52 0 -70 20t-12 55q6 40 68 108l362 396q60 66 120 66q27 0 43.5 -16t16.5 -46q0 -13 -1 -20l-73 -457h105l-16 -106h-105l-31 -192h-134zM463 1432h104l-131 -829h-134l110 690q-87 -22 -196 -36l11 108q134 20 236 67zM1363 1461l-1060 -1490
h-141l1060 1490h141zM887 298h258l54 346z" />
    <glyph glyph-name="onehalf" unicode="&#xbd;" horiz-adv-x="1641" 
d="M1067 810q144 27 263 27q80 0 135 -14t89 -51.5t34 -97.5q0 -20 -3 -42q-17 -110 -89 -183.5t-198 -122.5q-93 -36 -133 -81.5t-65 -128.5h403l-18 -116h-558q24 72 39.5 114.5t37 89.5t42 74.5t50 56.5t66 49.5t85.5 40.5q91 37 139 78.5t59 106.5q3 15 3 27
q0 50 -42.5 68.5t-144.5 18.5q-75 0 -197 -19zM219 1257l11 108q134 20 237 67h104l-132 -829h-134l110 690q-87 -22 -196 -36zM1225 1461h142l-1060 -1490h-140z" />
    <glyph glyph-name="threequarters" unicode="&#xbe;" horiz-adv-x="1625" 
d="M329 1081q95 1 184 15q48 7 77 38t37 80q3 15 3 28q0 23 -8 39t-20.5 25t-34 13.5t-42 6t-52.5 1.5q-82 0 -215 -18l3 104q133 26 243 26q58 0 102 -7t83.5 -24t60.5 -51t21 -83q0 -11 -4 -41q-22 -136 -138 -195q95 -46 95 -149q0 -16 -3 -37q-22 -141 -111 -199.5
t-244 -58.5q-120 0 -238 25l31 107q137 -19 197 -19q108 0 159 28.5t64 109.5q3 15 3 30q0 87 -89 98q-59 6 -135 6h-45zM1244 0l31 192h-304q-52 0 -70 20t-12 55q6 42 67 108l364 396q62 66 119 66q27 0 43.5 -16t16.5 -46q0 -6 -2 -20l-72 -457h105l-17 -106h-105
l-30 -192h-134zM1510 1461l-1059 -1490h-141l1059 1490h141zM1034 298h258l54 346z" />
    <glyph glyph-name="questiondown" unicode="&#xbf;" horiz-adv-x="1024" 
d="M612 664h160l-24 -179q-9 -67 -38 -108t-69 -58t-87 -25.5t-94.5 -19.5t-88.5 -31t-72.5 -67.5t-43.5 -122.5q-7 -42 -7 -81q0 -98 67.5 -134t242.5 -36q161 0 319 30l8 -156q-198 -42 -390 -42q-88 0 -151 6t-123.5 25t-97.5 51.5t-59 87t-22 130.5q0 55 10 115
q14 89 44 155t67.5 101.5t82 60t89 34t87 20.5t77 21.5t59 36t31.5 64.5zM721 847q-52 0 -74.5 18t-22.5 61q0 16 5 46q11 70 39 97t92 27q52 0 74 -17.5t22 -59.5q0 -23 -4 -47q-11 -70 -39.5 -97.5t-91.5 -27.5z" />
    <glyph glyph-name="Agrave" unicode="&#xc0;" horiz-adv-x="1330" 
d="M192 0h-202l664 1309q69 137 186 137t142 -137l244 -1309h-209l-69 397h-562zM786 1582l-224 248h225l155 -248h-156zM461 552h459l-121 690z" />
    <glyph glyph-name="Aacute" unicode="&#xc1;" horiz-adv-x="1330" 
d="M192 0h-202l665 1309q69 137 186 137t142 -137l243 -1309h-208l-70 397h-562zM780 1569l234 249h225l-303 -249h-156zM462 552h459l-121 690z" />
    <glyph glyph-name="Acircumflex" unicode="&#xc2;" horiz-adv-x="1330" 
d="M192 0h-202l665 1309q69 137 186 137t142 -137l243 -1309h-208l-70 397h-562zM823 1818h141l183 -249h-156l-109 158l-162 -158h-153zM462 552h459l-121 690z" />
    <glyph glyph-name="Atilde" unicode="&#xc3;" horiz-adv-x="1330" 
d="M1043 1798h107q-24 -102 -77.5 -157.5t-110.5 -55.5q-32 0 -57 10.5t-39 25.5t-25 30t-24 25.5t-29 10.5q-48 0 -79 -97h-107q24 102 77.5 157.5t110.5 55.5q39 0 67.5 -16t41 -35t29 -35t35.5 -16q49 0 80 97zM-10 0l664 1309q69 137 186 137t142 -137l244 -1309h-209
l-69 397h-562l-194 -397h-202zM920 552l-121 690l-338 -690h459z" />
    <glyph glyph-name="Adieresis" unicode="&#xc4;" horiz-adv-x="1330" 
d="M804 1709q0 -7 -2 -19q-7 -45 -41.5 -76t-77.5 -31q-45 0 -71 31t-19 76t43 76.5t80 31.5q39 0 63.5 -25t24.5 -64zM1161 1709q0 -7 -2 -19q-7 -45 -41.5 -76t-78.5 -31t-69.5 31t-18.5 76t42.5 76.5t79.5 31.5q39 0 63.5 -25t24.5 -64zM192 0h-202l664 1309
q69 137 187 137q116 0 141 -137l244 -1309h-209l-69 397h-562zM461 552h459l-121 690z" />
    <glyph glyph-name="Aring" unicode="&#xc5;" horiz-adv-x="1330" 
d="M853 1550q-75 0 -123 49t-48 123q0 17 3 33q13 85 82 145.5t152 60.5q74 0 122.5 -50t48.5 -124q0 -21 -2 -32q-13 -85 -82.5 -145t-152.5 -60zM772 1736q0 -41 27 -68.5t69 -27.5q47 0 85 33.5t46 81.5q1 6 1 18q0 42 -27 69.5t-69 27.5q-47 0 -84.5 -33.5t-45.5 -81.5
q-2 -14 -2 -19zM192 0h-202l665 1309q69 137 186 137t142 -137l243 -1309h-208l-70 397h-562zM462 552h459l-121 690z" />
    <glyph glyph-name="AE" unicode="&#xc6;" horiz-adv-x="1832" 
d="M192 0h-202l645 1265q52 102 136 141.5t198 39.5q132 0 194 -79q65 43 151.5 55.5t216.5 12.5q161 0 355 -9l-25 -154h-362q-89 0 -140.5 -9.5t-87 -39.5t-51.5 -74.5t-29 -126.5l-34 -213h603l-25 -160h-603l-38 -240q-11 -68 -11 -109q0 -83 50 -111.5t189 -28.5h363
l-25 -155q-194 -9 -357 -9q-57 0 -94 1t-86 6.5t-80.5 15t-66 27.5t-54 43.5t-32.5 64t-13 87.5q0 41 7 82l12 74h-510zM463 552h457l91 568q5 28 5 59q0 54 -23.5 78t-73.5 24q-58 0 -95 -35.5t-73 -108.5z" />
    <glyph glyph-name="Ccedilla" unicode="&#xc7;" horiz-adv-x="1090" 
d="M1152 1256q-142 23 -256 23q-86 0 -153.5 -14t-116 -36t-86 -63.5t-61 -81t-43 -106t-30.5 -121t-25 -141.5q-28 -175 -28 -265q0 -75 17 -127.5t57.5 -92t112.5 -59t178 -19.5q113 0 263 23l-6 -155q-151 -32 -302 -35l-67 -87q57 -3 96 -35t39 -85q0 -6 -2 -22
q-9 -58 -47.5 -97.5t-88.5 -55.5t-109 -16q-86 0 -145 38l44 86q55 -30 115 -30q36 0 64.5 15.5t33.5 50.5q5 32 -23 53.5t-62.5 29t-68.5 7.5l110 149q-222 13 -316 117t-94 318q0 120 28 294q21 132 47 231.5t64.5 183.5t90 141t121 97t159 58.5t203.5 18.5q179 0 330 -35
z" />
    <glyph glyph-name="Egrave" unicode="&#xc8;" horiz-adv-x="1099" 
d="M1152 1426l-24 -154h-364q-118 0 -176 -21t-85.5 -71t-44.5 -158l-34 -213h602l-25 -160h-602l-38 -240q-11 -68 -11 -110q0 -83 50 -111t188 -28h363l-24 -155q-194 -9 -359 -9q-49 0 -82 1t-76.5 4t-73 10.5t-62.5 19t-54.5 30t-40 43t-27 59.5t-8.5 78q0 41 7 82
l124 785q10 65 32.5 116.5t49.5 85.5t68.5 58t78.5 37t92 20t96.5 8.5t103.5 1.5q162 0 356 -9zM799 1558l-225 249h225l156 -249h-156z" />
    <glyph glyph-name="Eacute" unicode="&#xc9;" horiz-adv-x="1099" 
d="M1152 1426l-24 -154h-364q-118 0 -176 -21t-85.5 -71t-44.5 -158l-34 -213h602l-25 -160h-602l-38 -240q-11 -68 -11 -110q0 -83 50 -111t188 -28h363l-24 -155q-194 -9 -358 -9q-43 0 -73 0.5t-69 3t-66 7.5t-59 14t-53.5 21.5t-43 31t-34 42t-20 55.5t-7.5 70
q0 41 7 82l124 785q8 51 23.5 93.5t34 74t46.5 56.5t54 41.5t63 28t68 18t75 10t77 4.5t81 1q161 0 355 -9zM671 1558l234 249h225l-303 -249h-156z" />
    <glyph glyph-name="Ecircumflex" unicode="&#xca;" horiz-adv-x="1099" 
d="M1152 1426l-24 -154h-364q-118 0 -176 -21t-85.5 -71t-44.5 -158l-34 -213h603l-25 -160h-603l-38 -240q-11 -68 -11 -110q0 -83 50 -111t189 -28h362l-24 -155q-194 -9 -358 -9q-43 0 -73 0.5t-69 3t-66 7.5t-59 14t-53.5 21.5t-43 31t-34 42t-20 55.5t-7.5 70
q0 41 7 82l124 785q8 51 23.5 93.5t34 74t46.5 56.5t54 41.5t63 28t68 18t75 10t77 4.5t81 1q161 0 355 -9zM757 1807h141l183 -249h-156l-109 158l-162 -158h-154z" />
    <glyph glyph-name="Edieresis" unicode="&#xcb;" horiz-adv-x="1098" 
d="M1152 1426l-24 -154h-364q-89 0 -140.5 -9.5t-86.5 -39.5t-51 -74.5t-29 -126.5l-34 -213h603l-25 -160h-603l-38 -240q-11 -68 -11 -109q0 -83 50.5 -111.5t188.5 -28.5h363l-24 -155q-194 -9 -359 -9q-49 0 -82 1t-76.5 4t-73 10.5t-62.5 19t-54.5 30t-40 43t-27 59.5
t-8.5 78q0 41 7 82l124 785q10 65 32.5 116.5t49.5 85.5t68.5 58t78.5 37t92 20t96.5 8.5t103.5 1.5q162 0 356 -9zM976 1574q-39 0 -64 25t-25 63q0 13 1 19q7 45 42.5 76t79.5 31q40 0 64.5 -25t24.5 -63q0 -7 -2 -19q-7 -45 -41.5 -76t-79.5 -31zM741 1698q0 -11 -1 -17
q-8 -45 -43 -76t-78 -31q-44 0 -70 31t-19 76t43 76t80 31q39 0 63.5 -25.5t24.5 -64.5z" />
    <glyph glyph-name="Igrave" unicode="&#xcc;" horiz-adv-x="524" 
d="M107 0l227 1432h197l-227 -1432h-197zM381 1563l-225 249h226l155 -249h-156z" />
    <glyph glyph-name="Iacute" unicode="&#xcd;" horiz-adv-x="524" 
d="M107 0l227 1432h196l-226 -1432h-197zM368 1563l235 249h225l-304 -249h-156z" />
    <glyph glyph-name="Icircumflex" unicode="&#xce;" horiz-adv-x="524" 
d="M418 1802h141l183 -249h-156l-109 158l-162 -158h-153zM107 0l227 1432h197l-227 -1432h-197z" />
    <glyph glyph-name="Idieresis" unicode="&#xcf;" horiz-adv-x="524" 
d="M399 1695q0 -7 -2 -19q-7 -45 -41.5 -76t-78.5 -31t-70.5 31t-19.5 76q8 45 44 76.5t80 31.5q39 0 63.5 -25t24.5 -64zM756 1695q0 -13 -1 -19q-8 -45 -42 -76t-79 -31q-44 0 -70 31t-19 76q8 45 43 76.5t79 31.5q39 0 64 -25t25 -64zM107 0l227 1432h197l-227 -1432
h-197z" />
    <glyph glyph-name="Eth" unicode="&#xd0;" horiz-adv-x="1397" 
d="M265 668h-117l23 142h117l95 602q211 34 443 34q150 0 251.5 -26.5t162 -83t86 -135t25.5 -190.5q0 -116 -29 -295q-17 -110 -37 -194t-50 -163.5t-68.5 -135.5t-92 -103t-122.5 -75.5t-158 -44t-200 -15.5q-230 0 -431 36zM462 668l-79 -503q116 -16 196 -16
q95 0 170.5 16t127 38.5t91.5 69t63 83.5t43 108.5t28.5 117.5t22.5 134q29 186 29 262q0 58 -10.5 102.5t-37 83.5t-71 64t-113.5 39.5t-163 14.5q-88 0 -202 -15l-72 -457h219l-23 -142h-219z" />
    <glyph glyph-name="Ntilde" unicode="&#xd1;" horiz-adv-x="1410" 
d="M613 1317l437 -1061l186 1176h178l-206 -1302q-23 -145 -144 -145q-54 0 -89 30.5t-64 100.5l-437 1063l-187 -1179h-178l207 1302q23 144 143 144q102 0 154 -129zM1089 1797h108q-25 -102 -78 -157.5t-110 -55.5q-40 0 -68.5 16t-41 34.5t-29.5 34.5t-35 16
q-50 0 -80 -97h-107q25 103 78 158.5t110 55.5q39 0 67.5 -16t41.5 -35t29.5 -35t35.5 -16q48 0 79 97z" />
    <glyph glyph-name="Ograve" unicode="&#xd2;" horiz-adv-x="1356" 
d="M619 -15q-249 0 -355 102t-106 332q0 121 28 297q32 201 78.5 334t124 224.5t189 131.5t272.5 40q249 0 355 -101.5t106 -331.5q0 -120 -28 -297q-32 -201 -78.5 -334t-124 -225t-189 -132t-272.5 -40zM352 422q0 -135 63 -203t224 -68q71 0 128 15t98 38t74 65.5
t54 83.5t39 106.5t28.5 119.5t23.5 137q32 197 32 294q0 136 -62.5 203.5t-223.5 67.5q-56 0 -103 -9t-83.5 -23.5t-67.5 -40.5t-53.5 -52.5t-41.5 -67.5t-32 -77t-25.5 -90t-20.5 -97.5t-18 -107.5q-33 -203 -33 -294zM849 1563l-225 248h225l155 -248h-155z" />
    <glyph glyph-name="Oacute" unicode="&#xd3;" horiz-adv-x="1356" 
d="M619 -15q-249 0 -355 102t-106 332q0 121 28 297q32 201 78.5 334t124 224.5t189 131.5t272.5 40q249 0 355 -101.5t106 -331.5q0 -120 -28 -297q-32 -201 -78.5 -334t-124 -225t-189 -132t-272.5 -40zM352 422q0 -135 63 -203t224 -68q71 0 128 15t98 38t74 65.5
t54 83.5t39 106.5t28.5 119.5t23.5 137q32 197 32 294q0 136 -62.5 203.5t-223.5 67.5q-56 0 -103 -9t-83.5 -23.5t-67.5 -40.5t-53.5 -52.5t-41.5 -67.5t-32 -77t-25.5 -90t-20.5 -97.5t-18 -107.5q-33 -203 -33 -294zM744 1563l235 248h225l-304 -248h-156z" />
    <glyph glyph-name="Ocircumflex" unicode="&#xd4;" horiz-adv-x="1356" 
d="M619 -15q-249 0 -355 102t-106 333q0 120 28 296q32 201 78.5 334t124 224.5t189 131.5t272.5 40q249 0 355 -101.5t106 -331.5q0 -127 -27 -297q-32 -201 -78.5 -334t-124 -225t-189.5 -132t-273 -40zM385 716q-32 -209 -32 -294q0 -136 62.5 -203.5t223.5 -67.5
q62 0 113.5 10t91 32t70.5 48.5t55 68.5t41 81t31 97.5t23.5 107.5t20.5 120q32 209 32 293q0 66 -13.5 114t-45 84.5t-88 55t-139.5 18.5q-56 0 -103 -9t-84 -23.5t-67.5 -40.5t-53.5 -52.5t-42 -67.5t-32 -77t-25.5 -90t-20.5 -97.5t-18 -107.5zM836 1811h140l183 -248
h-156l-109 157l-162 -157h-154z" />
    <glyph glyph-name="Otilde" unicode="&#xd5;" horiz-adv-x="1356" 
d="M1053 1781h108q-24 -102 -77 -157t-111 -55q-40 0 -68.5 16t-41 34.5t-29 34.5t-35.5 16q-49 0 -80 -97h-108q25 102 78.5 157.5t110.5 55.5q39 0 67.5 -16t41.5 -35t29.5 -35t35.5 -16q48 0 79 97zM186 716q32 201 78.5 334t124 224.5t189 131.5t272.5 40
q249 0 355 -101.5t106 -331.5q0 -120 -28 -297q-25 -161 -59.5 -276t-86 -204.5t-123.5 -143t-169 -80.5t-226 -27q-248 0 -354.5 102t-106.5 332q0 121 28 297zM1116 1010q0 136 -62.5 203.5t-223.5 67.5q-71 0 -128.5 -15t-98.5 -38t-74 -65.5t-53.5 -83t-38.5 -107
t-28.5 -119.5t-23.5 -137q-32 -209 -32 -294q0 -135 62.5 -203t223.5 -68q55 0 102 9t84 23.5t67.5 40.5t53.5 52.5t42 67.5t32 77.5t25.5 90t20.5 97.5t18 107q32 197 32 294z" />
    <glyph glyph-name="Odieresis" unicode="&#xd6;" horiz-adv-x="1356" 
d="M619 -15q-248 0 -354.5 102t-106.5 333q0 120 28 296q32 201 78.5 334t124 224.5t189 131.5t272.5 40q249 0 355 -101.5t106 -332.5q0 -126 -27 -296q-32 -201 -78.5 -334t-124 -225t-189.5 -132t-273 -40zM385 716q-32 -197 -32 -294q0 -136 62.5 -203.5t223.5 -67.5
q71 0 128 15t98 38t74 65.5t54 83.5t39 106.5t28.5 119.5t23.5 137q32 197 32 294q0 66 -13 113.5t-44.5 84.5t-88 55t-139.5 18q-56 0 -103 -9t-84 -23.5t-67.5 -40.5t-53.5 -52.5t-42 -67.5t-32 -77t-25.5 -90t-20.5 -97.5t-18 -107.5zM814 1691q0 -7 -2 -19
q-7 -45 -41.5 -76t-78.5 -31t-70 31t-19 76q8 45 43.5 76t79.5 31q39 0 63.5 -25t24.5 -63zM1171 1690q0 -12 -1 -18q-8 -45 -42 -76t-79 -31q-44 0 -70 31t-19 76q8 45 43.5 76t79.5 31q39 0 63.5 -25t24.5 -64z" />
    <glyph glyph-name="multiply" unicode="&#xd7;" horiz-adv-x="1086" 
d="M843 151l-272 330l-376 -330l-99 120l377 330l-272 331l139 120l270 -330l376 330l97 -120l-375 -329l272 -330z" />
    <glyph glyph-name="Oslash" unicode="&#xd8;" horiz-adv-x="1356" 
d="M330 40l-103 -143l-112 78l112 155q-69 99 -69 289q0 121 28 297q32 201 78.5 334t124 224.5t189 131.5t272.5 40q184 0 288 -54l103 143l112 -79l-112 -155q69 -99 69 -290q0 -127 -27 -295q-32 -201 -78.5 -334t-124 -225t-189.5 -132t-273 -40q-182 0 -288 55z
M1105 1114l-662 -918q68 -45 196 -45q71 0 128 15t98 38t74 65.5t54 83.5t39 106.5t28.5 119.5t23.5 137q32 207 32 293q0 62 -11 105zM363 319l662 917q-68 45 -195 45q-71 0 -128.5 -15t-98.5 -38t-74 -65.5t-53.5 -83t-38.5 -107t-28.5 -119.5t-23.5 -137
q-32 -209 -32 -294q0 -59 10 -103z" />
    <glyph glyph-name="Ugrave" unicode="&#xd9;" horiz-adv-x="1339" 
d="M1350 1432l-152 -964q-22 -140 -73 -236t-129.5 -149t-171.5 -75.5t-216 -22.5q-107 0 -185 16.5t-139 56t-92 109t-31 170.5q0 56 11 131l152 964h195l-156 -980q-7 -43 -7 -85q0 -111 66 -162t213 -51q172 0 256 70.5t109 227.5l156 980h194zM831 1553l-225 249h225
l156 -249h-156z" />
    <glyph glyph-name="Uacute" unicode="&#xda;" horiz-adv-x="1339" 
d="M1350 1432l-152 -964q-22 -140 -73 -236t-129.5 -149t-171.5 -75.5t-216 -22.5q-107 0 -185 16.5t-139 56t-92 109t-31 170.5q0 56 11 131l152 964h195l-156 -980q-7 -43 -7 -85q0 -111 66 -162t213 -51q172 0 256 70.5t109 227.5l156 980h194zM736 1553l235 249h225
l-304 -249h-156z" />
    <glyph glyph-name="Ucircumflex" unicode="&#xdb;" horiz-adv-x="1339" 
d="M1350 1432l-152 -964q-22 -140 -73 -236t-129.5 -149t-171.5 -75.5t-216 -22.5q-107 0 -185 16.5t-139 56t-92 109t-31 170.5q0 56 11 131l152 964h195l-156 -980q-7 -43 -7 -85q0 -111 66 -162t213 -51q172 0 256 70.5t109 227.5l156 980h194zM833 1802h142l183 -249
h-157l-108 158l-162 -158h-155z" />
    <glyph glyph-name="Udieresis" unicode="&#xdc;" horiz-adv-x="1339" 
d="M1351 1432l-153 -964q-18 -113 -55.5 -197t-89 -138t-122 -87.5t-148.5 -47t-175 -13.5q-85 0 -151 10t-123 34.5t-94.5 64.5t-58.5 100.5t-21 141.5q0 58 12 132l153 964h194l-155 -980q-8 -50 -8 -85q0 -111 66.5 -162t212.5 -51q172 0 256.5 70.5t109.5 227.5l155 980
h195zM683 1570q-40 0 -65.5 25.5t-25.5 63.5q0 12 1 18q8 45 43.5 76t79.5 31q39 0 63.5 -25t24.5 -64q0 -6 -2 -18q-8 -45 -42 -76t-77 -31zM1039 1570q-40 0 -65 25t-25 63q0 7 2 19q7 45 42.5 76t79.5 31q39 0 63.5 -25t24.5 -64q0 -12 -1 -18q-8 -45 -42.5 -76
t-78.5 -31z" />
    <glyph glyph-name="Yacute" unicode="&#xdd;" horiz-adv-x="1161" 
d="M708 555l-87 -555h-198l88 555l-310 877h212l230 -679l453 679h204zM660 1547l235 248h225l-304 -248h-156z" />
    <glyph glyph-name="Thorn" unicode="&#xde;" horiz-adv-x="1204" 
d="M96 0l227 1432h196l-41 -261q124 11 243 11q73 0 130.5 -5t116 -17t101 -35.5t76.5 -58t51 -86.5t17 -120q0 -49 -9 -104q-17 -105 -56 -183t-91.5 -126t-127 -76.5t-152.5 -39t-177 -10.5q-90 0 -255 10l-53 -331h-196zM370 492q99 -11 240 -11q89 0 152.5 11.5
t116.5 41.5t85 85t45 137q6 38 6 70q0 106 -73 152t-239 46q-128 0 -251 -17z" />
    <glyph glyph-name="germandbls" unicode="&#xdf;" horiz-adv-x="1235" 
d="M426 976l-154 -976h-184l154 976q47 299 175.5 427.5t377.5 128.5q202 0 299.5 -75t97.5 -201q0 -26 -5 -59q-13 -81 -56 -138t-96 -87.5t-105.5 -56.5t-91.5 -61t-47 -84q-1 -8 -1 -22q0 -34 19.5 -59t50.5 -41.5t69 -31t76 -34t69 -45.5t50.5 -70.5t19.5 -102.5
q0 -31 -6 -67q-26 -164 -130.5 -238t-260.5 -74q-154 0 -295 44l38 144q144 -34 229 -34q25 0 41.5 1t45 5t48.5 14t41.5 25.5t35 42t19.5 61.5q2 12 2 33q0 41 -19.5 71.5t-50 49t-68 35t-75 34.5t-68 42t-50 64.5t-19.5 94.5q0 21 5 58q11 69 43.5 119t73 75.5t87 50.5
t86 45t70 58.5t38.5 91.5q1 9 1 26q0 64 -57 103t-178 39q-155 0 -232 -87.5t-113 -314.5z" />
    <glyph glyph-name="agrave" unicode="&#xe0;" horiz-adv-x="1119" 
d="M1051 771l-79 -501q-13 -87 -38 -193q-187 -92 -477 -92q-190 0 -277.5 61t-87.5 192q0 38 6 81q23 147 103.5 232.5t229.5 108.5q119 18 427 30l4 26q7 46 7 73q0 88 -53.5 128t-177.5 40q-150 0 -370 -29l7 142q238 39 411 39q66 0 119 -6.5t101.5 -24.5t81 -46.5
t51.5 -74.5t19 -107q0 -30 -7 -79zM504 131q156 0 267 44q19 84 31 160l36 225q-260 -7 -359 -28q-95 -20 -138.5 -63.5t-59.5 -145.5q-4 -24 -4 -51q0 -81 54 -111t173 -30zM665 1550l134 -308h-146l-198 308h210z" />
    <glyph glyph-name="aacute" unicode="&#xe1;" horiz-adv-x="1119" 
d="M1051 771l-79 -501q-13 -87 -38 -193q-187 -92 -477 -92q-190 0 -277.5 61t-87.5 192q0 38 6 81q23 147 103.5 232.5t228.5 108.5q118 18 427 30l4 26q7 46 7 73q0 88 -53.5 128t-177.5 40q-149 0 -369 -29l7 142q238 39 411 39q66 0 119 -6.5t101.5 -24.5t81 -46.5
t51.5 -74.5t19 -107q0 -30 -7 -79zM504 131q156 0 267 44q13 52 30 160l36 225q-259 -7 -358 -28q-95 -20 -138.5 -63.5t-59.5 -145.5q-4 -25 -4 -52q0 -80 54 -110t173 -30zM1047 1548l-295 -308h-146l231 308h210z" />
    <glyph glyph-name="acircumflex" unicode="&#xe2;" horiz-adv-x="1119" 
d="M1051 771l-79 -501q-13 -87 -38 -193q-187 -92 -477 -92q-190 0 -277.5 60.5t-87.5 191.5q0 47 6 82q23 147 103.5 232.5t229.5 108.5q119 18 427 30l4 26q6 39 6 72q0 88 -53 128.5t-177 40.5q-150 0 -370 -29l7 142q238 39 411 39q66 0 119 -6.5t101.5 -24.5t81 -46.5
t51.5 -74.5t19 -107q0 -30 -7 -79zM504 131q156 0 267 44q19 84 31 160l36 225q-260 -7 -359 -28q-95 -20 -138.5 -63.5t-59.5 -145.5q-4 -24 -4 -51q0 -81 54 -111t173 -30zM983 1234h-147l-94 196l-159 -196h-144l253 308h131z" />
    <glyph glyph-name="atilde" unicode="&#xe3;" horiz-adv-x="1119" 
d="M1051 771l-79 -501q-13 -87 -38 -193q-187 -92 -477 -92q-189 0 -277 60.5t-88 191.5q0 47 6 82q23 147 103.5 232.5t229.5 108.5q119 18 427 30l3 26q6 37 6 71q0 89 -52.5 129.5t-177.5 40.5q-149 0 -369 -29l7 142q238 39 411 39q66 0 119 -6.5t101.5 -24.5t81 -46.5
t51.5 -74.5t19 -107q0 -30 -7 -79zM650 1507q40 0 68 -16.5t40.5 -36.5t29 -36.5t35.5 -16.5q50 0 81 101h107q-26 -107 -79 -164.5t-110 -57.5q-40 0 -68 16.5t-40.5 36.5t-29 36.5t-35.5 16.5q-50 0 -81 -101h-107q26 106 79 164t110 58zM802 335l35 225q-259 -7 -358 -28
q-95 -20 -138.5 -63.5t-59.5 -145.5q-4 -25 -4 -52q0 -80 54 -110t173 -30q156 0 267 44q16 64 31 160z" />
    <glyph glyph-name="adieresis" unicode="&#xe4;" horiz-adv-x="1119" 
d="M1051 771l-79 -501q-13 -87 -38 -193q-187 -92 -477 -92q-189 0 -277 61t-88 192q0 38 6 81q23 147 103.5 232.5t228.5 108.5q120 18 428 30l3 26q6 37 6 71q0 89 -52.5 129.5t-177.5 40.5q-149 0 -369 -29l7 142q238 39 411 39q66 0 119 -6.5t101.5 -24.5t81 -46.5
t51.5 -74.5t19 -107q0 -30 -7 -79zM504 131q156 0 267 44q13 52 30 160l36 225q-259 -7 -358 -28q-95 -20 -138.5 -63.5t-59.5 -145.5q-4 -25 -4 -52q0 -80 54 -110t173 -30zM454 1385q8 45 43.5 76.5t80.5 31.5q39 0 63 -25.5t24 -64.5q0 -12 -1 -18q-8 -45 -42.5 -76
t-77.5 -31q-40 0 -65.5 25t-25.5 64q0 12 1 18zM812 1385q7 45 43 76.5t80 31.5q39 0 63.5 -25.5t24.5 -64.5q0 -12 -1 -18q-8 -45 -42.5 -76t-78.5 -31q-39 0 -64.5 25t-25.5 64q0 12 1 18z" />
    <glyph glyph-name="aring" unicode="&#xe5;" horiz-adv-x="1119" 
d="M1051 771l-79 -501q-13 -87 -38 -193q-187 -92 -477 -92q-190 0 -277.5 60.5t-87.5 191.5q0 47 6 82q23 147 103.5 232.5t229.5 108.5q119 18 427 30l4 26q7 46 7 73q0 88 -53.5 128t-177.5 40q-150 0 -370 -29l7 142q238 39 411 39q66 0 119 -6.5t101.5 -24.5t81 -46.5
t51.5 -74.5t19 -107q0 -30 -7 -79zM504 131q156 0 267 44q19 84 31 160l36 225q-260 -7 -359 -28q-95 -20 -138.5 -63.5t-59.5 -145.5q-4 -24 -4 -51q0 -81 54 -111t173 -30zM532 1386q0 22 2 33q13 85 82 145.5t152 60.5q75 0 123.5 -49t48.5 -123q0 -16 -3 -34
q-14 -85 -82.5 -145t-151.5 -60q-75 0 -123 49t-48 123zM850 1437q0 42 -27.5 69.5t-69.5 27.5q-47 0 -85.5 -33.5t-45.5 -81.5q-1 -6 -1 -19q0 -42 27 -69t69 -27q47 0 86 33.5t46 81.5q1 6 1 18z" />
    <glyph glyph-name="ae" unicode="&#xe6;" horiz-adv-x="1837" 
d="M903 62q-179 -77 -446 -77q-189 0 -277 60.5t-88 191.5q0 47 6 82q23 147 103.5 232.5t228.5 108.5q119 18 428 30l3 26q6 37 6 71q0 89 -52.5 129.5t-177.5 40.5q-149 0 -369 -29l7 142q238 39 411 39q126 0 210 -28t122 -98q126 126 379 126q216 0 307 -87t91 -257
q0 -78 -15 -168q-5 -39 -18 -93q-91 -16 -253.5 -32t-280.5 -21l-226 -10q-3 -33 -3 -62q0 -129 64.5 -184.5t213.5 -55.5q168 0 386 29l-6 -145q-246 -38 -462 -38q-197 0 -286 105zM802 335l36 225q-260 -7 -359 -28q-95 -20 -138.5 -63.5t-59.5 -145.5q-4 -24 -4 -51
q0 -81 54 -111t173 -30q157 0 267 44q16 64 31 160zM1273 587q172 8 323 28q6 27 12 65q7 49 7 79q0 100 -57 151.5t-184 51.5q-91 0 -154.5 -25t-102.5 -78.5t-60.5 -118.5t-37.5 -164z" />
    <glyph glyph-name="ccedilla" unicode="&#xe7;" horiz-adv-x="924" 
d="M931 933q-109 21 -179 21q-78 0 -134 -8t-98 -29.5t-68.5 -49t-46.5 -76.5t-32 -100t-25 -132q-21 -135 -21 -200q0 -76 25 -121t90.5 -70t180.5 -25q70 0 186 24l-5 -147q-132 -28 -245 -33l-69 -88q57 -3 96.5 -35t39.5 -85q0 -6 -2 -22q-9 -58 -47 -97.5t-88 -55.5
t-110 -16q-86 0 -145 38l45 86q55 -30 114 -30q36 0 65 15.5t34 50.5q5 32 -23 53.5t-63 29t-69 7.5l109 149q-86 6 -147 35t-94.5 78.5t-48.5 109.5t-15 138q0 89 20 211q15 94 34 165.5t49 136t71.5 108.5t98 76.5t132.5 48t173 15.5q137 0 249 -34z" />
    <glyph glyph-name="egrave" unicode="&#xe8;" horiz-adv-x="1158" 
d="M157 547q48 303 174.5 432.5t388.5 129.5q111 0 189 -23.5t123 -69.5t65 -107.5t20 -144.5q0 -67 -15 -167q-7 -49 -17 -93q-91 -16 -254 -31.5t-281 -21.5l-226 -10q-3 -35 -3 -63q0 -128 64 -183.5t214 -55.5q169 0 386 29l-6 -145q-246 -38 -462 -38q-202 0 -289 98
t-87 279q0 79 16 185zM340 576l255 11q171 8 323 28q6 27 12 65q7 49 7 79q0 100 -56.5 151.5t-183.5 51.5q-91 0 -154 -25t-103 -78t-62 -119t-38 -164zM744 1550l133 -308h-146l-198 308h211z" />
    <glyph glyph-name="eacute" unicode="&#xe9;" horiz-adv-x="1159" 
d="M157 547q48 303 174 432.5t388 129.5q217 0 308 -87.5t91 -258.5q0 -66 -15 -166q-10 -61 -18 -93q-92 -16 -254.5 -32t-280.5 -21l-226 -10q-3 -33 -3 -62q0 -129 63.5 -184.5t214.5 -55.5q169 0 386 29l-7 -145q-246 -38 -461 -38q-202 0 -289 98t-87 279q0 79 16 185z
M340 576l254 11q173 8 324 28q6 27 12 65q7 49 7 80q0 100 -56.5 151t-183.5 51q-91 0 -154.5 -25t-103 -78t-61.5 -119t-38 -164zM1100 1545l-296 -308h-145l231 308h210z" />
    <glyph glyph-name="ecircumflex" unicode="&#xea;" horiz-adv-x="1158" 
d="M157 547q48 303 174 432.5t388 129.5q217 0 307.5 -87.5t90.5 -257.5q0 -67 -15 -167q-13 -77 -17 -93q-222 -38 -536 -53l-225 -10q-3 -33 -3 -62q0 -129 64 -184.5t214 -55.5q169 0 386 29l-7 -145q-246 -38 -461 -38q-202 0 -289 98t-87 279q0 79 16 185zM340 576
l254 11q171 8 323 28q9 43 13 65q7 49 7 79q0 100 -57 151.5t-184 51.5q-91 0 -154 -25t-102.5 -78t-61.5 -119t-38 -164zM1026 1234h-147l-94 196l-159 -196h-144l252 308h132z" />
    <glyph glyph-name="edieresis" unicode="&#xeb;" horiz-adv-x="1159" 
d="M157 547q48 303 174.5 432.5t388.5 129.5q217 0 307.5 -87.5t90.5 -257.5q0 -67 -15 -167q-10 -61 -18 -93q-92 -16 -254.5 -32t-280.5 -21l-226 -10q-3 -35 -3 -63q0 -128 64 -183.5t214 -55.5q170 0 387 29l-7 -145q-246 -38 -462 -38q-202 0 -289 98t-87 279
q0 79 16 185zM340 576l255 11q171 8 323 28q9 43 13 65q7 49 7 79q0 100 -57 151.5t-184 51.5q-91 0 -154 -25t-103 -78t-62 -119t-38 -164zM594 1278q-44 0 -70.5 31t-19.5 76q8 45 43.5 76.5t80.5 31.5q39 0 63 -25t24 -64q0 -5 -2 -19q-7 -45 -41.5 -76t-77.5 -31z
M951 1278q-44 0 -70.5 31t-19.5 76q8 45 43.5 76.5t79.5 31.5q39 0 64 -25t25 -64q0 -7 -2 -19q-8 -45 -42 -76t-78 -31z" />
    <glyph glyph-name="igrave" unicode="&#xec;" horiz-adv-x="481" 
d="M88 0l173 1094h185l-173 -1094h-185zM303 1256l-199 308h211l134 -308h-146z" />
    <glyph glyph-name="iacute" unicode="&#xed;" horiz-adv-x="481" 
d="M88 0l173 1094h185l-173 -1094h-185zM311 1256l230 308h210l-294 -308h-146z" />
    <glyph glyph-name="icircumflex" unicode="&#xee;" horiz-adv-x="481" 
d="M361 1570h132l159 -308h-146l-95 196l-158 -196h-144zM88 0l173 1094h185l-173 -1094h-185z" />
    <glyph glyph-name="idieresis" unicode="&#xef;" horiz-adv-x="481" 
d="M329 1413q0 -5 -2 -19q-7 -45 -41.5 -76t-77.5 -31q-45 0 -71.5 31t-19.5 76q8 45 44 76.5t80 31.5q39 0 63.5 -25t24.5 -64zM686 1413q0 -13 -1 -19q-8 -45 -42.5 -76t-78.5 -31t-70 31t-19 76q8 45 43.5 76.5t79.5 31.5q39 0 63.5 -25t24.5 -64zM88 0l173 1094h185
l-173 -1094h-185z" />
    <glyph glyph-name="eth" unicode="&#xf0;" horiz-adv-x="1163" 
d="M949 1397l182 64l41 -98l-176 -61q93 -223 93 -498q0 -136 -20 -260q-48 -302 -176 -430.5t-387 -128.5q-214 0 -308.5 82.5t-94.5 274.5q0 88 18 202q47 294 173 417.5t386 123.5q124 0 203 -42q-22 99 -62 198l-183 -64l-39 97l176 62q-42 80 -88 142l170 54
q49 -59 92 -135zM884 544q16 106 16 169q0 120 -54 169t-184 49q-113 0 -180 -33.5t-108.5 -116.5t-66.5 -237q-19 -120 -19 -191q0 -122 54 -168t183 -46q167 0 244.5 86.5t114.5 318.5z" />
    <glyph glyph-name="ntilde" unicode="&#xf1;" horiz-adv-x="1199" 
d="M409 750l-118 -750h-185l131 822q12 81 37 194q214 93 500 93q85 0 148 -12.5t103 -34.5t64 -56t33.5 -71.5t9.5 -86.5q0 -54 -14 -141l-112 -707h-184l108 680q11 66 11 111q0 88 -53.5 126.5t-193.5 38.5q-63 0 -136 -12.5t-118 -32.5q-15 -62 -31 -161zM955 1509h107
q-26 -107 -79 -165t-110 -58q-32 0 -57 11t-39 26.5t-25 31t-24 26.5t-29 11q-49 0 -80 -101h-107q26 106 79 164t110 58q32 0 56.5 -11t38.5 -26.5t25 -31t24 -26.5t29 -11q49 0 81 102z" />
    <glyph glyph-name="ograve" unicode="&#xf2;" horiz-adv-x="1182" 
d="M545 -15q-214 0 -308.5 83t-94.5 275q0 89 18 204q49 308 176 435t387 127q213 0 308 -85t95 -277q0 -87 -18 -200q-48 -304 -176 -433t-387 -129zM327 355q0 -123 53.5 -169.5t182.5 -46.5q167 0 245 87.5t115 320.5q18 111 18 188q0 122 -53.5 171t-182.5 49
q-114 0 -181 -34.5t-109.5 -122t-68.5 -251.5q-19 -122 -19 -192zM721 1242l-197 308h210l133 -308h-146z" />
    <glyph glyph-name="oacute" unicode="&#xf3;" horiz-adv-x="1183" 
d="M142 344q0 89 18 203q49 308 176 435t387 127q213 0 308 -85t95 -277q0 -89 -18 -200q-32 -204 -97.5 -325.5t-178 -179t-287.5 -57.5q-214 0 -308.5 83.5t-94.5 275.5zM328 354q0 -123 53 -169t182 -46q167 0 245 87t115 321q18 111 18 188q0 122 -53.5 171t-182.5 49
q-86 0 -142 -17.5t-99.5 -64.5t-70.5 -124.5t-46 -201.5q-19 -122 -19 -193zM632 1250l230 308h211l-296 -308h-145z" />
    <glyph glyph-name="ocircumflex" unicode="&#xf4;" horiz-adv-x="1182" 
d="M545 -15q-214 0 -308.5 83t-94.5 275q0 89 18 204q49 308 176 435t387 127q213 0 308 -85t95 -277q0 -87 -18 -200q-48 -304 -176 -433t-387 -129zM327 355q0 -123 53.5 -169.5t182.5 -46.5q167 0 245 87.5t115 320.5q18 111 18 187q0 123 -53.5 172t-182.5 49
q-114 0 -181 -34.5t-109.5 -122t-68.5 -251.5q-19 -122 -19 -192zM724 1548h133l159 -308h-147l-94 196l-159 -196h-144z" />
    <glyph glyph-name="otilde" unicode="&#xf5;" horiz-adv-x="1183" 
d="M935 1496h107q-26 -107 -79 -164.5t-110 -57.5q-32 0 -57 11t-38.5 26.5t-25 31t-24.5 26.5t-28 11q-49 0 -80 -101h-108q25 106 78.5 164t110.5 58q32 0 57 -11t39 -26.5t25 -31t24 -26.5t29 -11q49 0 80 101zM160 547q49 308 176 435t387 127q213 0 308 -85t95 -277
q0 -87 -18 -200q-48 -304 -176 -433t-387 -129q-214 0 -308.5 83.5t-94.5 275.5q0 89 18 203zM941 735q0 122 -53.5 171t-182.5 49q-114 0 -180.5 -34.5t-109 -122t-68.5 -251.5q-19 -122 -19 -193q0 -123 53 -169t182 -46q167 0 245 87.5t115 320.5q18 111 18 188z" />
    <glyph glyph-name="odieresis" unicode="&#xf6;" horiz-adv-x="1182" 
d="M142 343q0 89 18 204q49 308 176 435t387 127q213 0 308 -85t95 -277q0 -87 -18 -200q-32 -204 -97.5 -325.5t-178 -179t-287.5 -57.5q-214 0 -308.5 83t-94.5 275zM327 355q0 -123 53.5 -169.5t182.5 -46.5q167 0 245 87t115 321q18 111 18 187q0 123 -53.5 172
t-182.5 49q-114 0 -181 -34.5t-109.5 -122t-68.5 -251.5q-19 -122 -19 -192zM694 1404q0 -5 -2 -19q-7 -45 -41.5 -76t-77.5 -31q-44 0 -70.5 31t-19.5 76q8 45 43.5 76.5t80.5 31.5q39 0 63 -25t24 -64zM1052 1404q0 -7 -2 -19q-8 -45 -42 -76t-78 -31t-70 31t-19 76
q8 45 43 76.5t79 31.5q39 0 64 -25t25 -64z" />
    <glyph glyph-name="divide" unicode="&#xf7;" horiz-adv-x="1165" 
d="M543 52q-46 0 -76.5 31t-30.5 77q0 7 2 21q9 53 51.5 90t94.5 37q46 0 76.5 -30.5t30.5 -76.5q0 -6 -2 -20q-8 -53 -51 -91t-95 -38zM824 1043q0 -7 -2 -21q-9 -53 -51.5 -90.5t-94.5 -37.5q-46 0 -76 31t-30 77q0 13 1 20q8 53 51 90.5t95 37.5q46 0 76.5 -30.5
t30.5 -76.5zM124 516l27 171h985l-27 -171h-985z" />
    <glyph glyph-name="oslash" unicode="&#xf8;" horiz-adv-x="1182" 
d="M298 28l-96 -124l-79 60l95 123q-77 86 -77 256q0 82 19 204q49 308 176 435t387 127q156 0 247 -44l96 125l80 -60l-96 -125q76 -85 76 -258q0 -89 -18 -200q-48 -304 -176 -433t-387 -129q-155 0 -247 43zM941 735q0 65 -15 109l-520 -676q51 -29 157 -29
q167 0 245 87.5t115 320.5q18 111 18 188zM341 248l521 677q-50 30 -157 30q-114 0 -181 -34.5t-109.5 -122t-68.5 -251.5q-19 -122 -19 -192q0 -62 14 -107z" />
    <glyph glyph-name="ugrave" unicode="&#xf9;" horiz-adv-x="1195" 
d="M163 388l112 706h185l-109 -680q-11 -68 -11 -113q0 -88 53.5 -125.5t193.5 -37.5q62 0 134.5 13t116.5 33q16 63 31 160l119 750h184l-130 -822q-13 -81 -38 -193q-216 -94 -497 -94q-105 0 -177 18.5t-110 55t-54 81.5t-16 106t13 142zM712 1256l-199 308h211l134 -308
h-146z" />
    <glyph glyph-name="uacute" unicode="&#xfa;" horiz-adv-x="1195" 
d="M163 388l112 706h184l-108 -680q-11 -68 -11 -113q0 -88 53 -125.5t193 -37.5q61 0 134 13t119 33q16 68 30 160l118 750h184l-129 -822q-11 -76 -39 -193q-214 -94 -496 -94q-105 0 -177 18.5t-110 55t-54 81.5t-16 106t13 142zM651 1268l231 308h209l-295 -308h-145z
" />
    <glyph glyph-name="ucircumflex" unicode="&#xfb;" horiz-adv-x="1195" 
d="M163 388l113 706h184l-108 -680q-11 -68 -11 -113q0 -88 53 -125.5t193 -37.5q62 0 135 13t117 33q13 53 30 160l120 750h183l-130 -822q-17 -104 -38 -193q-216 -94 -496 -94q-105 0 -177 18.5t-110.5 55t-54.5 81t-16 106.5q0 61 13 142zM733 1582h132l159 -308h-147
l-94 196l-158 -196h-144z" />
    <glyph glyph-name="udieresis" unicode="&#xfc;" horiz-adv-x="1195" 
d="M163 388l112 706h185l-108 -680q-11 -68 -11 -113q0 -88 53 -125.5t193 -37.5q61 0 134 13t118 33q16 68 30 160l119 750h184l-130 -822q-13 -87 -38 -193q-216 -94 -497 -94q-105 0 -177 18.5t-110 55t-54 81.5t-16 106t13 142zM700 1426q0 -13 -1 -19q-7 -45 -41.5 -76
t-78.5 -31t-70 31t-19 76t43 76.5t80 31.5q39 0 63 -25t24 -64zM1058 1425q0 -12 -1 -18q-8 -45 -42 -76t-79 -31q-44 0 -70 31t-19 76t43 76.5t80 31.5q39 0 63.5 -25.5t24.5 -64.5z" />
    <glyph glyph-name="yacute" unicode="&#xfd;" horiz-adv-x="1055" 
d="M587 314l375 780h186l-736 -1497h-186l239 479l-271 1018h196zM614 1244l231 308h211l-296 -308h-146z" />
    <glyph glyph-name="thorn" unicode="&#xfe;" horiz-adv-x="1176" 
d="M43 -403l290 1835h184l-56 -359q144 36 273 36q202 0 295 -82t93 -276q0 -89 -18 -204q-25 -158 -67.5 -265t-110.5 -173.5t-157.5 -95t-213.5 -28.5q-130 0 -261 36l-67 -424h-184zM318 173q103 -38 212 -38q72 0 127 11t94 37t66 57t46 82t30.5 101t23.5 124
q19 121 19 185q0 117 -60 172t-215 55q-113 0 -224 -37z" />
    <glyph glyph-name="ydieresis" unicode="&#xff;" horiz-adv-x="1055" 
d="M665 1407q0 -12 -1 -18q-8 -45 -42.5 -76t-78.5 -31t-70.5 31t-19.5 76t44 76t81 31q39 0 63 -25t24 -64zM1023 1408q0 -7 -2 -19q-7 -45 -42 -76t-79 -31t-69.5 31t-18.5 76q8 45 43.5 76t79.5 31q39 0 63.5 -24.5t24.5 -63.5zM587 314l374 780h187l-736 -1497h-188
l241 479l-272 1018h196z" />
    <glyph glyph-name="Abreve" unicode="&#x102;" horiz-adv-x="1330" 
d="M637 1797h113q-1 -53 30 -87.5t93 -34.5t103.5 34.5t57.5 87.5h113q-26 -101 -99.5 -163.5t-191.5 -62.5q-112 0 -165.5 57t-53.5 150l-1 10q0 9 1 9zM-10 0l665 1309q69 137 186 137t142 -137l243 -1309h-208l-70 397h-562l-194 -397h-202zM921 552l-121 690l-338 -690
h459z" />
    <glyph glyph-name="abreve" unicode="&#x103;" horiz-adv-x="1120" 
d="M1051 771l-79 -501q-13 -87 -38 -193q-187 -92 -477 -92q-189 0 -277 60.5t-88 191.5q0 47 6 82q23 147 103.5 232.5t229.5 108.5q119 18 427 30l4 26q6 39 6 72q0 88 -53 128.5t-177 40.5q-150 0 -370 -29l7 142q238 39 411 39q66 0 119 -6.5t101.5 -24.5t81 -46.5
t51.5 -74.5t19 -107q0 -30 -7 -79zM504 131q156 0 267 44q19 84 31 160l36 225q-260 -7 -359 -28q-95 -20 -138.5 -63.5t-59.5 -145.5q-4 -24 -4 -51q0 -81 54 -111t173 -30zM516 1514h112q-2 -60 28 -100.5t92 -40.5q61 0 104 40.5t61 100.5h113q-28 -116 -103.5 -188
t-193.5 -72q-109 0 -161.5 62t-52.5 165q0 22 1 33z" />
    <glyph glyph-name="Aogonek" unicode="&#x104;" horiz-adv-x="1330" 
d="M1195 -273l19 -84q-82 -58 -176 -58q-72 0 -115.5 37t-43.5 101q0 20 2 30q10 67 60 132t113 115h-37l-69 397h-562l-194 -397h-202l665 1309q69 137 186 137t142 -137l243 -1309h-62q-132 -117 -146 -204q-2 -14 -2 -21q0 -36 20.5 -56.5t57.5 -20.5q54 0 101 29z
M920 552l-119 690l-339 -690h458z" />
    <glyph glyph-name="aogonek" unicode="&#x105;" horiz-adv-x="1120" 
d="M858 690l4 26q7 46 7 73q0 88 -53.5 128t-177.5 40q-150 0 -370 -29l7 142q238 39 411 39q66 0 119 -6.5t101.5 -24.5t81 -46.5t51.5 -74.5t19 -107q0 -30 -7 -79l-79 -501q-13 -87 -38 -193q-69 -34 -149 -55q-113 -106 -125 -185q-2 -14 -2 -21q0 -36 20.5 -56.5
t57.5 -20.5q54 0 101 29l18 -84q-37 -27 -84.5 -42.5t-89.5 -15.5q-72 0 -116 36.5t-44 100.5q0 15 3 31q16 99 121 202q-94 -11 -188 -11q-189 0 -277 60.5t-88 191.5q0 47 6 82q23 147 103.5 232.5t229.5 108.5q119 18 427 30zM479 532q-95 -20 -138.5 -63.5t-59.5 -145.5
q-4 -24 -4 -51q0 -81 54 -111t173 -30q156 0 267 44q19 84 31 160l36 225q-260 -7 -359 -28z" />
    <glyph glyph-name="Cacute" unicode="&#x106;" horiz-adv-x="1090" 
d="M975 21q-167 -36 -341 -36q-262 0 -372 103.5t-110 332.5q0 121 28 295q25 159 58.5 272t85.5 204t126 144.5t176 81.5t239 28q179 0 330 -35l-43 -155q-140 23 -256 23q-86 0 -153.5 -14t-116 -36t-86 -63.5t-61 -81t-43 -106t-30.5 -121t-25 -141.5q-28 -175 -28 -266
q0 -74 17 -126.5t57.5 -92.5t112.5 -59t178 -19q113 0 263 23zM1164 1811l-303 -249h-156l234 249h225z" />
    <glyph glyph-name="cacute" unicode="&#x107;" horiz-adv-x="924" 
d="M803 20q-159 -35 -310 -35q-100 0 -170 27t-108.5 78t-55.5 114t-17 146q0 93 19 209q15 94 34 165.5t49 136t71.5 108.5t98 76.5t132.5 48t173 15.5q137 0 249 -34l-37 -142q-109 21 -179 21q-78 0 -133.5 -8t-97.5 -29.5t-68.5 -49t-46.5 -76.5t-32 -100t-25 -132
q-21 -135 -21 -200q0 -76 24.5 -121t90.5 -70t180 -25q70 0 186 24zM985 1548l-295 -308h-146l231 308h210z" />
    <glyph glyph-name="Ccaron" unicode="&#x10c;" horiz-adv-x="1090" 
d="M975 21q-167 -36 -341 -36q-262 0 -372 103.5t-110 333.5q0 120 28 294q25 159 58.5 272t85.5 204t126 144.5t176 81.5t239 28q179 0 330 -35l-43 -155q-140 23 -256 23q-86 0 -153.5 -14t-116 -36t-86 -63.5t-61 -81t-43 -106t-30.5 -121t-25 -141.5q-28 -175 -28 -265
q0 -75 17 -127.5t57.5 -92t112.5 -59t178 -19.5q113 0 263 23zM834 1653l161 158h155l-258 -249h-141l-183 249h157z" />
    <glyph glyph-name="ccaron" unicode="&#x10d;" horiz-adv-x="924" 
d="M803 20q-159 -35 -310 -35q-99 0 -169.5 27t-109 77.5t-55.5 113.5t-17 146q0 94 19 210q15 94 34 165.5t49 136t71.5 108.5t98 76.5t132.5 48t173 15.5q137 0 249 -34l-37 -142q-109 21 -179 21q-78 0 -134 -8t-98 -29.5t-68.5 -49t-46.5 -76.5t-32 -100t-25 -132
q-21 -135 -21 -199q0 -114 64 -165.5t232 -51.5q70 0 186 24zM687 1354l159 196h144l-253 -308h-132l-158 308h146z" />
    <glyph glyph-name="Dcaron" unicode="&#x10e;" horiz-adv-x="1344" 
d="M331 1412q211 34 442 34q198 0 314.5 -49.5t163.5 -142.5t47 -243q0 -106 -29 -295q-17 -110 -37 -194t-50 -163.5t-68.5 -135.5t-92 -103t-122.5 -75.5t-158 -44t-200 -15.5q-229 0 -430 36zM504 1267l-174 -1102q116 -16 197 -16q95 0 170.5 16t127 38.5t91.5 69t63 84
t42.5 108.5t28 117t22.5 134q29 186 29 262q0 73 -17.5 125.5t-60 94.5t-121.5 63t-195 21q-89 0 -203 -15zM841 1655l161 158h154l-257 -249h-141l-183 249h157z" />
    <glyph glyph-name="dcaron" unicode="&#x10f;" horiz-adv-x="1160" 
d="M933 1073l70 444h184l-198 -1247q-13 -87 -38 -193q-180 -92 -426 -92q-220 0 -320 82.5t-100 282.5q0 86 18 197q25 158 68 265t110 173.5t156 95t213 28.5q130 0 263 -36zM697 959q-72 0 -127 -11.5t-94.5 -37t-66 -56.5t-46 -82t-31 -101t-23.5 -124q-16 -99 -16 -168
q0 -122 57.5 -183t198.5 -61q138 0 236 43q18 73 32 161l92 583q-100 37 -212 37zM1392 1517h169l-213 -412h-125z" />
    <glyph glyph-name="Dcroat" unicode="&#x110;" horiz-adv-x="1396" 
d="M265 668h-117l23 142h117l95 602q211 34 443 34q150 0 251.5 -26.5t162 -83t86 -135t25.5 -190.5q0 -116 -29 -295q-17 -110 -37 -194t-50 -163.5t-68.5 -135.5t-92 -103t-122.5 -75.5t-158 -44t-200 -15.5q-230 0 -431 36zM462 668l-79 -503q116 -16 196 -16
q95 0 170.5 16t127 38.5t91.5 69t63 83.5t43 108.5t28.5 117.5t22.5 134q29 186 29 262q0 58 -10.5 102.5t-37 83.5t-71 64t-113.5 39.5t-163 14.5q-88 0 -202 -15l-72 -457h219l-23 -142h-219z" />
    <glyph glyph-name="dcroat" unicode="&#x111;" horiz-adv-x="1161" 
d="M746 1242l18 115h214l25 160h184l-25 -160h143l-19 -115h-142l-155 -972q-14 -98 -37 -193q-181 -92 -426 -92q-220 0 -320 82.5t-100 282.5q0 86 18 197q25 158 68 265t110 173.5t156 95t213 28.5q131 0 262 -36l26 169h-213zM697 959q-72 0 -127 -11.5t-94.5 -37
t-66 -56.5t-46 -82t-31 -101t-23.5 -124q-16 -98 -16 -167q0 -123 57.5 -184t198.5 -61q139 0 237 43q18 81 31 161l92 583q-100 37 -212 37z" />
    <glyph glyph-name="Eogonek" unicode="&#x118;" horiz-adv-x="1099" 
d="M1128 1272h-364q-89 0 -140.5 -9.5t-86.5 -39.5t-51 -75t-29 -126l-33 -213h602l-25 -160h-603l-38 -240q-10 -61 -10 -109q0 -84 50 -112t188 -28h363l-24 -155q-70 -4 -122 -5q-132 -116 -146 -204q-2 -14 -2 -22q0 -36 20.5 -56t56.5 -20q54 0 101 29l18 -84
q-37 -27 -85 -42.5t-90 -15.5q-72 0 -115.5 37t-43.5 101q0 15 3 30q10 66 59 131t110 114q-88 -2 -123 -2q-49 0 -82 1t-76.5 4t-73 10.5t-62.5 19t-54.5 30t-40 43t-27 59.5t-8.5 78q0 41 7 82l124 785q10 65 32.5 116.5t49.5 85.5t68.5 58t78.5 37t92 20t96.5 8.5
t103.5 1.5q160 0 356 -9z" />
    <glyph glyph-name="eogonek" unicode="&#x119;" horiz-adv-x="1159" 
d="M157 547q48 303 174 432.5t388 129.5q217 0 308 -87.5t91 -257.5q0 -67 -15 -167q-10 -61 -18 -93q-92 -16 -254.5 -32t-280.5 -21l-226 -10q-3 -33 -3 -62q0 -129 63.5 -184.5t214.5 -55.5q170 0 387 29l-8 -145q-128 -19 -217 -27q-123 -113 -134 -194q-1 -7 -1 -21
q0 -36 20.5 -56.5t57.5 -20.5q53 0 100 29l19 -84q-80 -58 -176 -58q-72 0 -115.5 37t-43.5 101q0 20 2 30q18 113 151 229q-59 -3 -124 -3q-202 0 -289 98.5t-87 279.5q0 78 16 184zM340 576l254 11q174 8 323 28q6 23 13 65q7 49 7 80q0 100 -56.5 151t-183.5 51
q-91 0 -154.5 -25t-103 -78t-61.5 -119t-38 -164z" />
    <glyph glyph-name="Ecaron" unicode="&#x11a;" horiz-adv-x="1099" 
d="M1152 1426l-24 -154h-364q-118 0 -176 -21t-85.5 -71t-44.5 -158l-34 -213h602l-25 -160h-602l-38 -240q-11 -68 -11 -110q0 -83 50 -111t188 -28h363l-24 -155q-194 -9 -359 -9q-49 0 -82 1t-76.5 4t-73 10.5t-62.5 19t-54.5 30t-40 43t-27 59.5t-8.5 78q0 41 7 82
l124 785q10 65 32.5 116.5t49.5 85.5t68.5 58t78.5 37t92 20t96.5 8.5t103.5 1.5q162 0 356 -9zM528 1807h157l108 -158l162 158h154l-257 -249h-141z" />
    <glyph glyph-name="ecaron" unicode="&#x11b;" horiz-adv-x="1158" 
d="M157 547q48 303 174 432.5t388 129.5q217 0 307.5 -87.5t90.5 -257.5q0 -67 -15 -167q-13 -77 -17 -93q-92 -16 -255 -31.5t-281 -21.5l-225 -10q-3 -33 -3 -62q0 -129 64 -184.5t214 -55.5q169 0 386 29l-7 -145q-246 -38 -461 -38q-202 0 -289 98t-87 279q0 79 16 185z
M340 576l254 11q171 8 323 28q9 43 13 65q7 49 7 79q0 100 -57 151.5t-184 51.5q-91 0 -154 -25t-102.5 -78t-61.5 -119t-38 -164zM752 1348l159 196h144l-252 -308h-132l-160 308h147z" />
    <glyph glyph-name="Gbreve" unicode="&#x11e;" horiz-adv-x="1284" 
d="M755 610l25 156h442l-84 -532q-8 -49 -26 -87t-42 -64t-61.5 -44.5t-73.5 -29t-89.5 -16t-98.5 -7t-110 -1.5q-262 0 -372 103.5t-110 333.5q0 121 28 294q25 161 58.5 274.5t86 204t126 143.5t175.5 80.5t239 27.5q239 0 417 -35l-42 -157q-165 25 -345 25
q-67 0 -123 -8.5t-99.5 -22t-79 -38.5t-61.5 -50.5t-47.5 -66t-36 -76t-27.5 -90.5t-21 -99.5t-19 -111.5q-28 -177 -28 -266q0 -74 16.5 -126.5t57 -92t113 -59t178.5 -19.5q58 0 99.5 8t65 19.5t38.5 33t20.5 41t10.5 51.5l48 304h-248zM649 1794h111q-1 -52 30.5 -87
t93.5 -35t103.5 34.5t57.5 87.5h113q-26 -101 -99.5 -164t-191.5 -63q-111 0 -165 56t-54 148q0 16 1 23z" />
    <glyph glyph-name="gbreve" unicode="&#x11f;" horiz-adv-x="1170" 
d="M93 -377l38 143q205 -32 370 -32q147 0 214 56.5t87 184.5l11 70q-140 -35 -273 -35q-202 0 -295.5 81t-93.5 274q0 91 17 194q25 156 70 261.5t117 169.5t166 91.5t226 27.5q248 0 397 -91q-6 -82 -23 -194l-143 -904q-13 -80 -44.5 -140.5t-74 -97.5t-101 -60
t-119 -31.5t-134.5 -8.5q-174 0 -412 41zM354 559q-17 -112 -17 -173q0 -117 60.5 -171.5t215.5 -54.5q113 0 224 37l89 559q12 76 19 160q-83 44 -222 44q-76 0 -133.5 -19t-96.5 -51.5t-67 -85t-44 -110t-28 -135.5zM553 1514h111q-2 -60 28.5 -100.5t92.5 -40.5
q61 0 103.5 40t60.5 101h113q-28 -116 -103 -188t-193 -72q-109 0 -161.5 62t-52.5 164q0 22 1 34z" />
    <glyph glyph-name="Idotaccent" unicode="&#x130;" horiz-adv-x="524" 
d="M455 1570q-41 0 -67 26.5t-26 66.5q0 12 1 18q7 47 44 79.5t83 32.5q41 0 67 -26.5t26 -66.5q0 -5 -2 -19q-8 -47 -44 -79t-82 -32zM107 0l227 1432h197l-227 -1432h-197z" />
    <glyph glyph-name="dotlessi" unicode="&#x131;" horiz-adv-x="481" 
d="M88 0l173 1094h185l-173 -1094h-185z" />
    <glyph glyph-name="Lacute" unicode="&#x139;" horiz-adv-x="981" 
d="M154 323l176 1109h197l-163 -1023q-11 -68 -11 -109q0 -83 50.5 -111.5t188.5 -28.5h338l-24 -156q-218 -8 -334 -8q-43 0 -73 0.5t-69 3t-66 7.5t-59 14t-53.5 21.5t-43 31t-34 42t-20 55.5t-7.5 70q0 41 7 82zM828 1812l-303 -249h-156l234 249h225z" />
    <glyph glyph-name="lacute" unicode="&#x13a;" horiz-adv-x="474" 
d="M117 283l196 1234h185l-194 -1223q-7 -43 -7 -86q0 -98 48 -177l-171 -80q-66 94 -66 222q0 49 9 110zM347 1616l234 249h225l-303 -249h-156z" />
    <glyph glyph-name="Lcaron" unicode="&#x13d;" horiz-adv-x="981" 
d="M154 323l176 1109h197l-163 -1023q-11 -68 -11 -109q0 -83 50.5 -111.5t188.5 -28.5h338l-24 -156q-218 -8 -334 -8q-43 0 -73 0.5t-69 3t-66 7.5t-59 14t-53.5 21.5t-43 31t-34 42t-20 55.5t-7.5 70q0 41 7 82zM943 1432l-214 -413h-124l169 413h169z" />
    <glyph glyph-name="lcaron" unicode="&#x13e;" horiz-adv-x="474" 
d="M117 283l196 1234h185l-194 -1223q-7 -43 -7 -86q0 -97 48 -177l-172 -80q-65 93 -65 221q0 50 9 111zM534 1105l169 412h169l-213 -412h-125z" />
    <glyph glyph-name="Lslash" unicode="&#x141;" horiz-adv-x="1074" 
d="M311 723l112 709h197l-91 -569l344 221l-26 -161l-343 -221l-47 -293q-11 -66 -11 -109q0 -83 51 -111.5t189 -28.5h337l-25 -156q-218 -8 -333 -8q-49 0 -82 1t-76.5 4.5t-73 10.5t-62.5 18.5t-54.5 30t-40 43.5t-27 59.5t-8.5 77.5q0 41 7 82l38 240l-194 -124l25 160z
" />
    <glyph glyph-name="lslash" unicode="&#x142;" horiz-adv-x="532" 
d="M417 789l-78 -495q-7 -43 -7 -86q0 -97 48 -177l-172 -80q-65 93 -65 221q0 50 9 111l56 354l-185 -136l26 165l185 135l114 716h185l-89 -563l194 142l-27 -166z" />
    <glyph glyph-name="Nacute" unicode="&#x143;" horiz-adv-x="1410" 
d="M613 1317l438 -1061l186 1176h178l-206 -1302q-23 -145 -144 -145q-54 0 -89.5 30.5t-64.5 100.5l-437 1063l-186 -1179h-179l207 1302q23 144 144 144q52 0 88.5 -30.5t64.5 -98.5zM1016 1809h225l-304 -249h-156z" />
    <glyph glyph-name="nacute" unicode="&#x144;" horiz-adv-x="1200" 
d="M410 750l-119 -750h-183l129 822q13 90 38 194q214 93 499 93q105 0 177.5 -18.5t111 -55t54.5 -81.5t16 -107q0 -59 -13 -140l-112 -707h-185l107 680q11 66 11 111q0 89 -53 127t-193 38q-63 0 -136 -12.5t-118 -32.5q-15 -62 -31 -161zM646 1245l231 308h211
l-296 -308h-146z" />
    <glyph glyph-name="Ncaron" unicode="&#x147;" horiz-adv-x="1410" 
d="M613 1317l437 -1061l186 1176h178l-206 -1302q-23 -145 -144 -145q-54 0 -89 30.5t-64 100.5l-437 1063l-187 -1179h-178l206 1302q23 144 145 144q52 0 88.5 -30.5t64.5 -98.5zM799 1803l109 -158l162 158h153l-256 -249h-142l-182 249h156z" />
    <glyph glyph-name="ncaron" unicode="&#x148;" horiz-adv-x="1199" 
d="M409 750l-118 -750h-185l131 822q13 90 38 194q214 93 499 93q85 0 148 -12.5t103 -34.5t64 -56t33.5 -71.5t9.5 -86.5q0 -54 -14 -141l-112 -707h-184l108 680q11 66 11 111q0 88 -53.5 126.5t-193.5 38.5q-63 0 -136.5 -12.5t-117.5 -32.5q-15 -62 -31 -161zM530 1548
h147l94 -196l158 196h144l-251 -308h-133z" />
    <glyph glyph-name="Ohungarumlaut" unicode="&#x150;" horiz-adv-x="1356" 
d="M619 -15q-248 0 -354.5 102t-106.5 332q0 121 28 297q32 201 78.5 334t124 224.5t189 131.5t272.5 40q249 0 355 -101.5t106 -332.5q0 -126 -27 -296q-32 -201 -78.5 -334t-124 -225t-189.5 -132t-273 -40zM386 716q-33 -215 -33 -295q0 -135 62.5 -202.5t223.5 -67.5
q62 0 113.5 10t91 32t70.5 48.5t55 68.5t41 81t31 97.5t23.5 107.5t20.5 120q32 197 32 294q0 136 -62.5 203.5t-223.5 67.5q-71 0 -128.5 -15t-98.5 -38t-74 -65.5t-53.5 -83t-38.5 -107t-28.5 -119.5t-23.5 -137zM598 1567l225 249h217l-293 -249h-149zM932 1567l225 249
h218l-293 -249h-150z" />
    <glyph glyph-name="ohungarumlaut" unicode="&#x151;" horiz-adv-x="1182" 
d="M545 -15q-214 0 -308.5 83t-94.5 275q0 89 18 204q49 308 176 435t387 127q213 0 308 -85t95 -277q0 -87 -18 -200q-48 -304 -176 -433t-387 -129zM327 355q0 -123 53.5 -169.5t182.5 -46.5q167 0 245 87.5t115 320.5q18 111 18 188q0 122 -53.5 171t-182.5 49
q-114 0 -181 -34.5t-109.5 -122t-68.5 -251.5q-19 -122 -19 -192zM485 1258l222 308h204l-285 -308h-141zM798 1258l222 308h203l-285 -308h-140z" />
    <glyph glyph-name="OE" unicode="&#x152;" horiz-adv-x="1970" 
d="M1999 1272h-363q-89 0 -140.5 -9.5t-86.5 -39.5t-51 -74.5t-29 -126.5l-34 -213h602l-25 -160h-602l-38 -240q-11 -68 -11 -109q0 -83 50.5 -111.5t188.5 -28.5h363l-24 -155q-194 -9 -359 -9q-52 0 -87 1t-80 5t-76 13t-62.5 23.5t-53.5 37.5t-35 54
q-142 -145 -427 -145q-248 0 -354.5 102t-106.5 332q0 121 28 297q32 201 78.5 334t124 224.5t189 131.5t272.5 40q287 0 383 -144q34 45 80.5 73.5t109.5 40.5t114 15.5t131 3.5q161 0 355 -9zM386 716q-33 -203 -33 -295q0 -135 63 -202.5t223 -67.5q62 0 113.5 10t91 32
t70.5 48.5t55 68.5t41 81t31 97.5t23.5 107.5t20.5 120q32 207 32 293q0 136 -63 204t-224 68q-56 0 -102.5 -9t-83.5 -23.5t-67.5 -40.5t-53 -52.5t-42 -67.5t-32 -77t-25 -90t-20.5 -97.5t-18 -107.5z" />
    <glyph glyph-name="oe" unicode="&#x153;" horiz-adv-x="1925" 
d="M1080 951q65 81 163.5 119.5t241.5 38.5q217 0 307.5 -87.5t90.5 -257.5q0 -74 -14 -167q-10 -61 -18 -93q-91 -16 -254 -32t-281 -21l-226 -10q-3 -33 -3 -61q0 -130 64 -185.5t214 -55.5q169 0 386 29l-7 -145q-244 -38 -461 -38q-249 0 -327 164q-67 -86 -166.5 -125
t-244.5 -39q-214 0 -308.5 83.5t-94.5 275.5q0 89 18 203q49 308 176 435t387 127q143 0 229.5 -38t127.5 -120zM563 139q167 0 245 87.5t115 320.5q18 111 18 188q0 122 -53.5 171t-182.5 49q-86 0 -142 -17.5t-99.5 -64.5t-70 -124.5t-46.5 -201.5q-19 -122 -19 -192
q0 -123 53.5 -169.5t181.5 -46.5zM1107 576l253 11q173 8 324 28q4 14 12 65q7 49 7 79q0 100 -56.5 151.5t-184.5 51.5q-91 0 -154.5 -25t-102.5 -78.5t-60.5 -118.5t-37.5 -164z" />
    <glyph glyph-name="Racute" unicode="&#x154;" horiz-adv-x="1268" 
d="M302 0h-196l223 1411q207 35 443 35q73 0 131 -5t116.5 -17.5t101 -36t76.5 -58.5t51 -88t17 -121q0 -41 -10 -106q-31 -193 -129 -292.5t-257 -130.5l242 -591h-229l-222 573h-9q-109 0 -257 9zM420 743q99 -11 239 -11q182 0 279 61t123 221q6 39 6 74
q0 108 -72.5 154.5t-239.5 46.5q-128 0 -251 -17zM1139 1813l-303 -249h-156l234 249h225z" />
    <glyph glyph-name="racute" unicode="&#x155;" horiz-adv-x="708" 
d="M290 0h-184l130 824q17 107 38 194q179 91 426 91q58 0 99 -4l-39 -154q-33 4 -84 4q-138 0 -237 -44q-13 -52 -30 -160zM657 1554h210l-295 -308h-146z" />
    <glyph glyph-name="Rcaron" unicode="&#x158;" horiz-adv-x="1268" 
d="M302 0h-196l224 1411q207 35 442 35q73 0 131 -5t116.5 -17.5t101 -36t76.5 -59t51 -88.5t17 -121q0 -48 -9 -105q-31 -193 -129 -292.5t-258 -130.5l243 -591h-230l-221 573h-10q-107 0 -256 9zM420 743q99 -11 240 -11q182 0 278.5 61t122.5 221q6 39 6 74
q0 108 -72.5 154.5t-239.5 46.5q-126 0 -251 -17zM823 1655l162 158h154l-257 -249h-141l-184 249h158z" />
    <glyph glyph-name="rcaron" unicode="&#x159;" horiz-adv-x="707" 
d="M289 0h-183l130 824q13 90 38 194q178 91 426 91q58 0 99 -4l-40 -154q-33 4 -84 4q-137 0 -236 -44q-16 -64 -31 -160zM482 1548l94 -196l159 196h144l-252 -308h-132l-160 308h147z" />
    <glyph glyph-name="Sacute" unicode="&#x15a;" horiz-adv-x="1073" 
d="M787 435q0 38 -14 68.5t-32.5 50t-56.5 38.5t-65.5 29t-80.5 27q-71 23 -117 41.5t-92.5 45.5t-72.5 58.5t-42 76t-16 100.5q0 36 8 86q34 212 168.5 301t379.5 89q191 0 364 -36l-43 -157q-158 26 -284 26q-57 0 -101 -3t-96 -15t-88 -32t-64 -57.5t-36 -88.5
q-5 -37 -5 -58q0 -27 6.5 -49t15 -38.5t29 -32t36.5 -25t50.5 -22t58 -20t70.5 -21.5q81 -24 137.5 -51t101.5 -65.5t67 -92.5t22 -125q0 -37 -8 -87q-35 -219 -177 -315t-393 -96q-196 0 -368 37l44 161q186 -28 345 -28q73 0 126.5 9.5t101 34.5t77 72t40.5 118q4 34 4 46
zM1103 1817l-304 -249h-156l235 249h225z" />
    <glyph glyph-name="sacute" unicode="&#x15b;" horiz-adv-x="963" 
d="M688 324q0 17 -2.5 31t-11 26.5t-14.5 21t-22 18t-24 14.5t-31 13.5t-31.5 11.5t-37 12t-37.5 12q-130 42 -176 68q-112 70 -114 195q0 27 6 62q13 85 50 145t94.5 93t124.5 47.5t152 14.5q190 0 359 -39l-41 -142q-147 28 -263 28q-30 0 -48.5 -0.5t-50.5 -3t-53 -7.5
t-47.5 -15t-43 -24t-30 -35.5t-17.5 -48.5q-2 -10 -2 -29q0 -26 10 -47t20.5 -33.5t38.5 -26.5t41 -19t53 -18t52 -17q53 -18 81.5 -29t67.5 -29t59.5 -35.5t41.5 -42.5t29.5 -57t8.5 -72q0 -29 -6 -67q-14 -89 -55 -152.5t-104.5 -98t-137 -49.5t-166.5 -15q-182 0 -348 40
l40 144q155 -28 276 -28q33 0 50 0.5t52 3t56 8t50 16.5t46.5 26.5t32 40t19.5 55.5q3 18 3 33zM1000 1560l-295 -308h-146l231 308h210z" />
    <glyph glyph-name="Scedilla" unicode="&#x15e;" horiz-adv-x="1074" 
d="M570 -5l-75 -96q57 -3 96 -35t39 -85q0 -6 -2 -22q-14 -86 -83 -127.5t-162 -41.5q-86 0 -145 38l45 86q55 -30 115 -30q86 0 98 66q5 32 -23.5 53.5t-63.5 29t-69 7.5l110 148q-5 0 -16 -0.5t-16 -0.5q-195 0 -369 37l45 161q186 -28 345 -28q73 0 126.5 9.5t100.5 34.5
t76.5 72t40.5 118q4 34 4 45q0 38 -13.5 68.5t-32 50t-55.5 38.5t-66 29.5t-81 27.5q-71 23 -117 41.5t-92.5 45.5t-72.5 58.5t-42 76t-16 100.5q0 43 7 86q34 212 169 301t380 89q189 0 364 -36l-42 -157q-158 26 -286 26q-57 0 -100.5 -3t-96 -15t-88 -32t-63.5 -57.5
t-36 -88.5q-5 -27 -5 -59q0 -27 6.5 -49t15 -38.5t29 -31.5t36 -24.5t51 -22.5t58 -20t70.5 -21q165 -49 246 -123.5t81 -210.5q0 -44 -7 -87q-29 -184 -133.5 -280t-284.5 -121z" />
    <glyph glyph-name="scedilla" unicode="&#x15f;" horiz-adv-x="964" 
d="M536 -7l-73 -94q57 -3 96 -35t39 -85q0 -7 -2 -23q-9 -58 -47 -97t-88 -55t-110 -16q-86 0 -145 38l45 85q55 -30 115 -30q36 0 64.5 15.5t33.5 50.5q5 32 -23.5 54t-63.5 29.5t-69 7.5l110 147h-6q-183 0 -349 40l41 144q155 -28 276 -28q33 0 50 0.5t52 3t56 8t50 16.5
t46.5 26.5t32 40t19.5 55.5q3 18 3 33q0 17 -2.5 31t-11 26.5t-14.5 21t-22 18t-24 14.5t-31 13.5t-31.5 11.5t-37 12t-37.5 12q-129 42 -174 67q-110 61 -116 181v14q0 28 6 63q13 85 50 145t94.5 93t124.5 47.5t152 14.5q189 0 358 -39l-40 -142q-149 28 -264 28
q-30 0 -48.5 -0.5t-50 -3t-53 -7.5t-47 -15t-42.5 -24t-30 -35.5t-18 -48.5q-3 -15 -3 -29q0 -22 5.5 -40t19 -32t25.5 -24t36 -20t39 -15t46 -15t45 -15q53 -18 81.5 -29t67.5 -29t59.5 -35.5t41.5 -42.5t29.5 -57t8.5 -72q0 -29 -6 -67q-43 -268 -339 -307z" />
    <glyph glyph-name="Scaron" unicode="&#x160;" horiz-adv-x="1074" 
d="M787 434q0 38 -13.5 68.5t-32 50.5t-56 39t-65.5 29t-81 27q-71 23 -117 41.5t-92.5 45.5t-72.5 58.5t-42 76t-16 100.5q0 43 7 86q34 213 168.5 301.5t380.5 88.5q188 0 363 -36l-42 -157q-158 26 -285 26q-57 0 -100.5 -3t-96 -15t-88 -32t-63.5 -57.5t-36 -88.5
q-5 -27 -5 -59q0 -27 6.5 -49t15 -38.5t29 -31.5t36 -24.5t51 -22.5t58 -20t70.5 -21q165 -49 246 -123.5t81 -210.5q0 -37 -8 -87q-35 -219 -176.5 -315t-393.5 -96q-194 0 -368 37l45 161q186 -28 344 -28q73 0 126.5 9.5t101 34.5t77 72t40.5 118q4 34 4 45zM762 1659
l162 158h154l-257 -249h-141l-184 249h157z" />
    <glyph glyph-name="scaron" unicode="&#x161;" horiz-adv-x="963" 
d="M688 325q0 15 -3 28.5t-7.5 24t-13.5 20.5t-16.5 16.5t-21.5 14.5t-23.5 12.5t-28.5 11t-30 10l-33 10.5t-34 11q-130 42 -176 68q-112 70 -114 195q0 27 6 62q13 85 50 145t94.5 93t124.5 47.5t152 14.5q190 0 359 -39l-41 -142q-147 28 -264 28q-30 0 -48.5 -0.5
t-50.5 -3t-53 -7.5t-47 -15t-42.5 -24t-30 -35.5t-17.5 -48.5q-2 -10 -2 -28q0 -22 5.5 -40t19 -32.5t25 -24t36.5 -20t38.5 -15.5t45.5 -15t45 -15q53 -18 81.5 -29t67.5 -29t59.5 -35.5t41.5 -42.5t29.5 -57t8.5 -72q0 -29 -6 -67q-14 -89 -55 -152.5t-104.5 -98
t-137 -49.5t-166.5 -15q-183 0 -349 40l41 144q155 -28 276 -28q33 0 50 0.5t52 3t56 8t50 16.5t46.5 26.5t32 40t19.5 55.5q3 18 3 34zM657 1354l158 196h145l-253 -308h-132l-159 308h147z" />
    <glyph glyph-name="uni0162" unicode="&#x162;" horiz-adv-x="1021" 
d="M1150 1432l-26 -162h-371l-201 -1270h-197l200 1270h-370l25 162h940zM200 -507l157 383h157l-198 -383h-116z" />
    <glyph glyph-name="uni0163" unicode="&#x163;" horiz-adv-x="726" 
d="M400 1373l189 30l-48 -309h231l-22 -143h-232l-104 -654q-5 -37 -5 -56q0 -61 33.5 -84t109.5 -23q36 0 70 3l-8 -138q-86 -14 -138 -14q-132 0 -194.5 51t-62.5 159q0 41 7 82l107 674h-189l23 143h189zM146 -515l157 384h157l-199 -384h-115z" />
    <glyph glyph-name="Tcaron" unicode="&#x164;" horiz-adv-x="1021" 
d="M1149 1432l-25 -162h-371l-202 -1270h-197l201 1270h-371l26 162h939zM445 1791h157l109 -158l162 158h153l-257 -249h-141z" />
    <glyph glyph-name="tcaron" unicode="&#x165;" horiz-adv-x="726" 
d="M400 1373l189 30l-48 -309h231l-23 -143h-232l-103 -654q-5 -37 -5 -56q0 -61 33.5 -84t109.5 -23q36 0 70 3l-8 -138q-86 -14 -139 -14q-132 0 -193.5 51t-61.5 159q0 41 7 82l106 674h-189l23 143h189zM675 1228l169 412h169l-214 -412h-124z" />
    <glyph glyph-name="Uring" unicode="&#x16e;" horiz-adv-x="1339" 
d="M1350 1432l-152 -964q-22 -140 -73 -236t-129.5 -149t-171.5 -75.5t-216 -22.5q-107 0 -185 16.5t-139 56t-92 109t-31 170.5q0 56 11 131l152 964h195l-155 -980q-8 -50 -8 -85q0 -111 66.5 -162t212.5 -51q172 0 256.5 70.5t109.5 227.5l155 980h194zM851 1515
q-74 0 -122.5 49.5t-48.5 123.5q0 21 2 32q13 85 82 145.5t152 60.5q75 0 123.5 -49t48.5 -123q0 -16 -3 -34q-14 -85 -82.5 -145t-151.5 -60zM769 1702q0 -41 27 -68.5t69 -27.5q47 0 85.5 33t45.5 81q2 14 2 20q0 42 -27 69t-70 27q-46 0 -84 -34t-46 -82q-2 -12 -2 -18z
" />
    <glyph glyph-name="uring" unicode="&#x16f;" horiz-adv-x="1194" 
d="M163 388l112 706h184l-108 -680q-11 -69 -11 -114q0 -88 53 -125t193 -37q61 0 134 13t118 33q19 82 31 160l118 750h184l-130 -822q-13 -81 -38 -193q-216 -94 -496 -94q-105 0 -177 18.5t-110 55t-54 81.5t-16 106t13 142zM739 1199q-75 0 -123 49t-48 123q0 22 2 33
q13 85 82 145.5t152 60.5q75 0 123.5 -49.5t48.5 -123.5q0 -17 -3 -33q-14 -85 -82.5 -145t-151.5 -60zM657 1385q0 -41 27.5 -68.5t69.5 -27.5q47 0 85.5 33.5t45.5 81.5q1 6 1 18q0 42 -27 70t-69 28q-47 0 -85 -34t-46 -82q-2 -14 -2 -19z" />
    <glyph glyph-name="Uhungarumlaut" unicode="&#x170;" horiz-adv-x="1339" 
d="M1351 1432l-153 -964q-22 -140 -73 -236t-129.5 -149t-171.5 -75.5t-216 -22.5q-85 0 -151 10t-123 34.5t-94.5 64.5t-58.5 100.5t-21 141.5q0 58 12 132l153 964h194l-155 -980q-8 -50 -8 -85q0 -111 66 -162t213 -51q172 0 256.5 70.5t109.5 227.5l155 980h195z
M571 1570l225 248h217l-292 -248h-150zM905 1570l225 248h218l-293 -248h-150z" />
    <glyph glyph-name="uhungarumlaut" unicode="&#x171;" horiz-adv-x="1195" 
d="M163 388l112 706h185l-107 -680q-11 -69 -11 -114q0 -88 52.5 -125t192.5 -37q61 0 134.5 13t117.5 33q13 53 30 160l119 750h184l-130 -822q-12 -78 -37 -193q-216 -94 -497 -94q-105 0 -177 18.5t-110.5 55t-54.5 81t-16 106.5q0 61 13 142zM492 1274l222 308h203
l-285 -308h-140zM804 1274l223 308h204l-287 -308h-140z" />
    <glyph glyph-name="Ydieresis" unicode="&#x178;" horiz-adv-x="1161" 
d="M727 1689q0 -13 -1 -19q-7 -45 -41.5 -76t-78.5 -31q-45 0 -71 31t-19 76q8 45 43.5 76.5t80.5 31.5q39 0 63 -25t24 -64zM1085 1689q0 -7 -2 -19q-7 -45 -41.5 -76t-78.5 -31q-45 0 -70.5 31t-18.5 76q8 45 43 76.5t80 31.5q39 0 63.5 -25t24.5 -64zM708 555l-87 -555
h-198l88 555l-310 877h212l230 -679l453 679h204z" />
    <glyph glyph-name="Zacute" unicode="&#x179;" horiz-adv-x="1106" 
d="M1132 1266l-833 -1101h684l-27 -165h-821q-56 0 -82 20t-20 57q6 36 44 88l835 1102h-646l26 165h783q57 0 82 -20t20 -57q-6 -38 -45 -89zM630 1553l235 249h224l-303 -249h-156z" />
    <glyph glyph-name="zacute" unicode="&#x17a;" horiz-adv-x="1076" 
d="M1056 963l-722 -809h588l-24 -154h-776q-36 0 -54.5 16.5t-13.5 44.5q5 32 39 71l725 814h-578l23 148h763q36 0 54.5 -16.5t13.5 -44.5q-5 -34 -38 -70zM595 1256l231 308h211l-295 -308h-147z" />
    <glyph glyph-name="Zdotaccent" unicode="&#x17b;" horiz-adv-x="1106" 
d="M1132 1266l-833 -1101h684l-26 -165h-822q-55 0 -81.5 20t-20.5 57q6 39 44 88l835 1102h-645l25 165h783q56 0 81.5 -20t20.5 -57q-6 -38 -45 -89zM751 1571q-41 0 -67.5 26t-26.5 66q0 7 2 19q7 47 44.5 79.5t83.5 32.5q41 0 66.5 -26t25.5 -66q0 -6 -2 -20
q-7 -47 -43.5 -79t-82.5 -32z" />
    <glyph glyph-name="zdotaccent" unicode="&#x17c;" horiz-adv-x="1076" 
d="M334 154h588l-24 -154h-774q-37 0 -55.5 16.5t-13.5 44.5q5 34 38 71l726 814h-579l24 148h763q36 0 54.5 -16.5t13.5 -44.5q-5 -31 -39 -70zM618 1357q0 12 1 18q7 47 44.5 79.5t83.5 32.5q41 0 66.5 -26.5t25.5 -66.5q0 -12 -1 -19q-8 -47 -44 -79t-82 -32
q-41 0 -67.5 26.5t-26.5 66.5z" />
    <glyph glyph-name="Zcaron" unicode="&#x17d;" horiz-adv-x="1106" 
d="M1132 1266l-833 -1101h684l-27 -165h-821q-56 0 -82 20t-20 57q6 39 44 88l835 1102h-645l25 165h783q57 0 82 -20t20 -57q-6 -38 -45 -89zM505 1802h157l108 -158l162 158h154l-256 -249h-142z" />
    <glyph glyph-name="zcaron" unicode="&#x17e;" horiz-adv-x="1076" 
d="M1056 963l-722 -809h588l-25 -154h-775q-36 0 -54.5 16.5t-13.5 44.5q5 32 39 71l725 814h-578l23 148h763q36 0 54.5 -16.5t13.5 -44.5q-5 -34 -38 -70zM481 1564h146l94 -196l159 196h145l-253 -308h-132z" />
    <glyph glyph-name="florin" unicode="&#x192;" horiz-adv-x="943" 
d="M374 866l31 227q20 147 119.5 228.5t250.5 81.5q62 0 125 -12l-21 -150q-37 8 -89 8q-98 0 -145 -62t-61 -169l-21 -152h265l-20 -148h-265l-83 -602q-26 -193 -133 -293.5t-272 -100.5q-34 0 -64 3l20 148h24q96 0 157.5 54t76.5 166l85 625h-227l20 148h227z" />
    <glyph glyph-name="uni0218" unicode="&#x218;" horiz-adv-x="1074" 
d="M787 435q0 28 -7 51t-17 40.5t-30 33.5t-37 26.5t-47.5 23t-51.5 19.5t-58 19q-71 23 -117 41.5t-92.5 45.5t-72.5 58.5t-42 76t-16 100.5q0 43 7 86q34 213 168.5 301.5t380.5 88.5q189 0 364 -36l-43 -157q-158 26 -285 26q-57 0 -100.5 -3t-96 -15t-88 -32
t-63.5 -57.5t-36 -88.5q-5 -27 -5 -59q0 -27 6.5 -49t15 -38.5t29.5 -31.5t36.5 -24.5t51 -22.5t57.5 -20t71 -21q165 -49 245.5 -123.5t80.5 -210.5q0 -44 -7 -87q-34 -219 -176 -315t-394 -96q-194 0 -368 37l44 161q186 -28 345 -28q73 0 126.5 9.5t100.5 34.5t76.5 72
t40.5 118q4 34 4 46zM581 -130l-198 -383h-114l156 383h156z" />
    <glyph glyph-name="uni0219" unicode="&#x219;" horiz-adv-x="963" 
d="M688 325q0 15 -3 28.5t-7 24t-13.5 20.5t-16.5 16.5t-21.5 14.5t-24 12.5t-28.5 11t-29.5 10t-33.5 10.5t-34 11q-130 42 -176 68q-112 70 -114 195q0 27 6 62q13 85 50.5 145t95 93t124.5 47.5t152 14.5q190 0 358 -39l-41 -142q-147 28 -263 28q-43 0 -70 -1t-70 -8
t-70 -20.5t-50.5 -40t-29.5 -64.5q-2 -10 -2 -29q0 -26 10 -47t20.5 -33.5t38.5 -26.5t41 -19t53 -18t52 -17q53 -18 81.5 -29t67.5 -29t59.5 -35.5t41.5 -42.5t29.5 -57t8.5 -72q0 -29 -6 -67q-14 -89 -55 -152.5t-104.5 -98t-137 -49.5t-166.5 -15q-182 0 -348 40l40 144
q157 -28 276 -28q33 0 50 0.5t52 3t56 8t50 16.5t46.5 26.5t32 40t19.5 55.5q3 18 3 34zM544 -125l-197 -384h-115l156 384h156z" />
    <glyph glyph-name="uni021A" unicode="&#x21a;" horiz-adv-x="1021" 
d="M1170 1432l-26 -162h-371l-201 -1270h-197l201 1270h-371l25 162h940zM221 -507l156 383h158l-199 -383h-115z" />
    <glyph glyph-name="uni021B" unicode="&#x21b;" horiz-adv-x="727" 
d="M420 1373l190 30l-49 -309h232l-23 -143h-232l-104 -654q-4 -29 -4 -56q0 -61 33.5 -84t109.5 -23q35 0 70 3l-8 -138q-86 -14 -139 -14q-132 0 -194.5 51t-62.5 159q0 41 7 82l107 674h-189l23 143h189zM167 -515l156 384h157l-199 -384h-114z" />
    <glyph glyph-name="circumflex" unicode="&#x2c6;" horiz-adv-x="682" 
d="M401 1471h132l159 -308h-146l-94 196l-159 -196h-144z" />
    <glyph glyph-name="caron" unicode="&#x2c7;" horiz-adv-x="647" 
d="M180 1471h146l95 -195l158 195h144l-252 -308h-132z" />
    <glyph glyph-name="uni02C9" unicode="&#x2c9;" horiz-adv-x="851" 
d="M232 1234l21 129h572l-21 -129h-572z" />
    <glyph glyph-name="breve" unicode="&#x2d8;" horiz-adv-x="659" 
d="M200 1448h112q-2 -60 28 -100.5t92 -40.5q61 0 104 40.5t61 100.5h112q-28 -116 -103 -188.5t-193 -72.5q-110 0 -162.5 62.5t-52.5 166.5q0 10 2 32z" />
    <glyph glyph-name="dotaccent" unicode="&#x2d9;" horiz-adv-x="401" 
d="M288 1203q-41 0 -67.5 26t-26.5 66q0 13 1 19q7 47 44.5 79.5t83.5 32.5q41 0 66.5 -26t25.5 -66q0 -13 -1 -20q-8 -47 -44 -79t-82 -32z" />
    <glyph glyph-name="ring" unicode="&#x2da;" horiz-adv-x="586" 
d="M366 1133q-74 0 -122.5 49.5t-48.5 123.5q0 21 2 32q13 85 82 145.5t152 60.5q75 0 123.5 -49.5t48.5 -123.5q0 -17 -3 -33q-14 -85 -82.5 -145t-151.5 -60zM284 1319q0 -41 27 -68.5t69 -27.5q47 0 86 33.5t46 81.5q1 6 1 19q0 42 -27 69.5t-69 27.5q-47 0 -85 -34
t-46 -82q-2 -14 -2 -19z" />
    <glyph glyph-name="ogonek" unicode="&#x2db;" horiz-adv-x="433" 
d="M210 0h108q-139 -122 -153 -210q-2 -14 -2 -21q0 -36 20.5 -56.5t57.5 -20.5q55 0 101 28l19 -83q-81 -59 -175 -59q-72 0 -116 37.5t-44 101.5q0 15 3 30q10 68 63.5 136t117.5 117z" />
    <glyph glyph-name="tilde" unicode="&#x2dc;" horiz-adv-x="718" 
d="M630 1419h108q-26 -107 -79 -165t-110 -58q-32 0 -57 11t-39 27t-25 31.5t-24 26.5t-29 11q-48 0 -80 -102h-108q26 106 79.5 164t110.5 58q39 0 67.5 -16.5t41.5 -36.5t29.5 -36.5t35.5 -16.5q47 0 79 102z" />
    <glyph glyph-name="hungarumlaut" unicode="&#x2dd;" horiz-adv-x="776" 
d="M141 1156l221 308h203l-285 -308h-139zM453 1156l222 308h203l-285 -308h-140z" />
    <glyph glyph-name="uni03A9" unicode="&#x3a9;" horiz-adv-x="1499" 
d="M1243 745q9 54 9 108q0 85 -21 161t-62 138t-110 98.5t-156 36.5q-196 0 -341 -157t-182 -390q-9 -55 -9 -124q0 -164 63.5 -295.5t159.5 -198.5l-20 -122h-528l25 159h272q-158 189 -158 462q0 69 12 142q31 197 138 354t263 243t332 86q159 0 277.5 -75.5t177.5 -200
t59 -277.5q0 -63 -10 -122q-30 -189 -124 -348t-218 -264h272l-25 -159h-525l19 122q91 53 171.5 136.5t148 212t90.5 274.5z" />
    <glyph glyph-name="uni03BC" unicode="&#x3bc;" horiz-adv-x="1230" 
d="M89 -403l237 1497h172l-108 -685q-5 -27 -5 -63q0 -90 45.5 -143.5t134.5 -53.5q133 0 222 121.5t121 322.5l79 501h174l-110 -699q-18 -120 -18 -156q0 -97 68 -122l-21 -132q-200 0 -208 226l-1 1q-62 -110 -149 -168.5t-184 -58.5q-126 0 -199 102l-78 -490h-172z" />
    <glyph glyph-name="pi" unicode="&#x3c0;" horiz-adv-x="1368" 
d="M1399 933h-260q-57 -174 -97 -421q-12 -75 -12 -136q0 -119 50 -178t155 -59l-38 -154q-100 0 -170 22t-109.5 64t-56.5 96t-17 125q0 63 13 144q38 243 116 497h-352q-70 -324 -140.5 -569t-125.5 -364h-195q89 196 155 408.5t140 523.5h-67q-57 0 -101.5 -10.5
t-104.5 -37.5l-27 105q115 105 324 105h964z" />
    <glyph glyph-name="uni200A" unicode="&#x200a;" horiz-adv-x="44" 
 />
    <glyph glyph-name="uni2010" unicode="&#x2010;" horiz-adv-x="790" 
d="M167 464l25 160h518l-26 -160h-517z" />
    <glyph glyph-name="endash" unicode="&#x2013;" horiz-adv-x="1239" 
d="M167 469l23 150h968l-24 -150h-967z" />
    <glyph glyph-name="emdash" unicode="&#x2014;" horiz-adv-x="2173" 
d="M167 469l23 150h1903l-24 -150h-1902z" />
    <glyph glyph-name="quoteleft" unicode="&#x2018;" horiz-adv-x="458" 
d="M145 1029l252 488h149l-198 -488h-203z" />
    <glyph glyph-name="quoteright" unicode="&#x2019;" horiz-adv-x="458" 
d="M145 1029l199 488h202l-252 -488h-149z" />
    <glyph glyph-name="quotesinglbase" unicode="&#x201a;" horiz-adv-x="456" 
d="M12 -255l199 488h203l-254 -488h-148z" />
    <glyph glyph-name="quotedblleft" unicode="&#x201c;" horiz-adv-x="785" 
d="M145 1029l252 488h149l-199 -488h-202zM471 1029l252 488h150l-199 -488h-203z" />
    <glyph glyph-name="quotedblright" unicode="&#x201d;" horiz-adv-x="784" 
d="M145 1029l198 488h203l-252 -488h-149zM471 1029l199 488h203l-252 -488h-150z" />
    <glyph glyph-name="quotedblbase" unicode="&#x201e;" horiz-adv-x="782" 
d="M12 -255l199 488h203l-253 -488h-149zM339 -255l199 488h202l-253 -488h-148z" />
    <glyph glyph-name="dagger" unicode="&#x2020;" horiz-adv-x="1090" 
d="M571 1061l63 399h183l-63 -399h383l-25 -160h-383l-184 -1159h-182l183 1159h-376l25 160h376z" />
    <glyph glyph-name="daggerdbl" unicode="&#x2021;" horiz-adv-x="1136" 
d="M388 -258l112 705h-378l25 158h378l54 343h-377l25 159h378l55 353h182l-56 -353h378l-24 -159h-379l-54 -343h378l-25 -158h-379l-111 -705h-182z" />
    <glyph glyph-name="bullet" unicode="&#x2022;" horiz-adv-x="787" 
d="M394 404q-118 0 -200.5 83t-82.5 201q0 117 82.5 200t200.5 83q116 0 199.5 -83t83.5 -200q0 -118 -83.5 -201t-199.5 -83z" />
    <glyph glyph-name="ellipsis" unicode="&#x2026;" horiz-adv-x="1757" 
d="M128 61q0 18 5 48q11 70 39.5 97t91.5 27q52 0 74.5 -18t22.5 -60q0 -16 -5 -46q-11 -70 -39 -97t-93 -27q-52 0 -74 17.5t-22 58.5zM771 61q0 24 4 48q11 70 39.5 97t91.5 27q52 0 74 -17.5t22 -60.5q0 -22 -4 -46q-11 -70 -39 -97t-92 -27q-52 0 -74 17.5t-22 58.5z
M1413 61q0 24 4 48q11 70 39 97t92 27q52 0 74.5 -18t22.5 -60q0 -22 -4 -46q-11 -70 -39 -97t-93 -27q-53 0 -74.5 17.5t-21.5 58.5z" />
    <glyph glyph-name="perthousand" unicode="&#x2030;" horiz-adv-x="2384" 
d="M429 594q-137 0 -194 57.5t-57 181.5q0 70 18 183t41.5 187t65 130t105 81t155.5 25q138 0 194.5 -58t56.5 -183q0 -75 -17 -182q-18 -113 -42 -187t-65.5 -129.5t-105 -80.5t-155.5 -25zM312 842q0 -70 29 -104.5t102 -34.5q34 0 61 8t46.5 20.5t35.5 36t26.5 46t20 59
t15.5 66.5t13 77q19 125 19 173q0 71 -29 106t-102 35q-47 0 -81 -16t-55.5 -39.5t-37.5 -68.5t-24.5 -84.5t-18.5 -105.5q-20 -134 -20 -174zM1609 598q0 -69 -18 -182t-42 -187t-65.5 -130t-105 -81t-155.5 -25q-137 0 -193.5 57.5t-56.5 181.5q0 69 18 184
q18 113 41.5 186.5t64.5 130t104.5 81.5t155.5 25q138 0 195 -58t57 -183zM1106 242q0 -69 29.5 -104t102.5 -35q39 0 69 9.5t51.5 31t36 45t26.5 64t18.5 74.5t15.5 89q20 132 20 173q0 70 -29.5 105t-102.5 35q-39 0 -69 -9.5t-51.5 -31t-36.5 -45.5t-26.5 -64
t-18.5 -74.5t-15 -88.5q-20 -132 -20 -174zM1929 -7q-138 0 -194.5 57.5t-56.5 182.5q0 68 18 183q18 113 41.5 186.5t65 130t105 81.5t155.5 25q138 0 195 -58t57 -183q0 -69 -18 -182t-42 -187t-65.5 -130t-105 -81t-155.5 -25zM2161 416q19 125 19 173q0 71 -29 105.5
t-102 34.5q-39 0 -69 -9.5t-51.5 -31t-36.5 -45.5t-26.5 -64t-18.5 -74.5t-15 -88.5q-19 -127 -19 -175q0 -69 29 -103.5t102 -34.5q39 0 69 9.5t51.5 31t36 45t26.5 64t18.5 74.5t15.5 89zM292 -29l1060 1490h141l-1060 -1490h-141z" />
    <glyph glyph-name="guilsinglleft" unicode="&#x2039;" horiz-adv-x="624" 
d="M314 530l194 -411h-182l-220 411l350 411h181z" />
    <glyph glyph-name="guilsinglright" unicode="&#x203a;" horiz-adv-x="624" 
d="M602 530l-350 -411h-182l324 411l-194 411h182z" />
    <glyph glyph-name="fraction" unicode="&#x2044;" horiz-adv-x="320" 
d="M-383 -29l1059 1490h142l-1060 -1490h-141z" />
    <glyph glyph-name="uni2070" unicode="&#x2070;" horiz-adv-x="758" 
d="M796 1434q0 -75 -17 -182q-18 -113 -41.5 -186.5t-65 -129.5t-105.5 -81t-156 -25q-138 0 -194.5 57.5t-56.5 182.5q0 69 18 182q14 90 31.5 153.5t45 117.5t66.5 86t94.5 49.5t129.5 17.5q138 0 194.5 -58t56.5 -184zM294 1079q0 -69 29.5 -104t102.5 -35q47 0 81 15.5
t55.5 39t37.5 68t24.5 84t18.5 105.5q19 125 19 174q0 70 -29 105t-102 35q-39 0 -69 -9.5t-51.5 -31t-36.5 -45.5t-26.5 -64.5t-18.5 -74.5t-15 -89q-20 -132 -20 -173z" />
    <glyph glyph-name="uni2074" unicode="&#x2074;" horiz-adv-x="720" 
d="M466 837l30 192h-304q-53 0 -71 19.5t-12 55.5q6 42 68 108l364 396q61 66 120 66q60 0 60 -62q0 -6 -2 -20l-72 -456h105l-16 -107h-106l-30 -192h-134zM568 1481l-312 -345h258z" />
    <glyph glyph-name="uni2075" unicode="&#x2075;" horiz-adv-x="680" 
d="M327 1351q36 2 58 2q60 0 103 -4t84.5 -15.5t67.5 -32t41.5 -55.5t15.5 -83q0 -29 -6 -64q-22 -141 -108 -204.5t-238 -63.5q-124 0 -248 27l30 106q119 -18 202 -18q113 0 161 32.5t64 133.5q0 2 1.5 11t1.5 14q0 35 -17 57.5t-49.5 33t-67 14.5t-83.5 4q-77 0 -165 -5
l97 427h489l-18 -115h-371z" />
    <glyph glyph-name="uni2076" unicode="&#x2076;" horiz-adv-x="737" 
d="M754 1098q-12 -79 -42.5 -133t-78 -83.5t-103 -41.5t-130.5 -12q-136 0 -193 56t-57 167q0 52 11 120q19 120 43.5 200t63 141.5t96.5 95t137 50t192 16.5q4 0 13.5 -0.5t30 -1t44.5 -0.5l-7 -108q-18 -1 -51 -2t-53.5 -1.5t-52.5 -3t-53 -6.5t-49.5 -12t-48.5 -18.5
t-42.5 -27t-38 -37t-29.5 -49t-23 -62.5q104 14 170 14q129 0 193 -41t64 -148q0 -33 -6 -72zM308 1239q-4 -15 -15 -84q-8 -46 -8 -83q0 -134 129 -134q101 0 146.5 36.5t59.5 125.5q4 34 4 44q0 63 -39 86t-122 23q-57 0 -155 -14z" />
    <glyph glyph-name="uni2077" unicode="&#x2077;" horiz-adv-x="624" 
d="M734 1557l-434 -718h-152l450 713h-419l19 115h480q42 0 61 -17t14 -47q-3 -19 -19 -46z" />
    <glyph glyph-name="uni2078" unicode="&#x2078;" horiz-adv-x="739" 
d="M745 1111q0 -13 -4 -45q-11 -70 -42 -118t-78.5 -73t-99.5 -35t-119 -10q-128 0 -198.5 42t-70.5 142q0 22 5 52q12 75 50 122t106 80q-84 53 -84 148q0 28 4 53q33 207 322 207q117 0 188.5 -40t71.5 -129q0 -17 -3 -38q-12 -73 -42.5 -118.5t-102.5 -81.5
q97 -59 97 -158zM269 1040q0 -58 39 -80t111 -22q80 0 129 28.5t61 103.5q3 18 3 32q0 53 -40 78t-135 33q-72 -11 -113.5 -44t-52.5 -99q-2 -10 -2 -30zM340 1451q-1 -9 -1 -25q0 -48 38.5 -73.5t126.5 -31.5q70 14 109 42.5t49 87.5q2 20 2 27q0 53 -38.5 72.5
t-106.5 19.5q-76 0 -121.5 -24.5t-57.5 -94.5z" />
    <glyph glyph-name="uni2079" unicode="&#x2079;" horiz-adv-x="736" 
d="M179 1407q24 153 112.5 211.5t242.5 58.5q136 0 192.5 -56.5t56.5 -166.5q0 -51 -11 -119q-24 -150 -56.5 -241.5t-93.5 -153t-151 -85.5t-231 -24q-4 0 -13.5 0.5t-30 1t-44.5 0.5l7 108q18 1 51 2t53.5 1.5t52.5 3t53.5 6.5t50 12t48.5 18.5t42.5 27t38 37t29.5 49
t23 62.5q-98 -13 -170 -13q-130 0 -194 40.5t-64 147.5q0 33 6 72zM519 1567q-101 0 -146 -36t-59 -126q-4 -34 -4 -44q0 -63 39 -86t122 -23q57 0 155 14q5 21 15 85q8 56 8 83q0 63 -29 98t-101 35z" />
    <glyph glyph-name="uni2080" unicode="&#x2080;" horiz-adv-x="758" 
d="M796 359q0 -74 -17 -181q-14 -90 -31.5 -153.5t-45.5 -117t-67 -85.5t-94.5 -49.5t-129.5 -17.5q-138 0 -194.5 58t-56.5 183q0 69 18 182q14 90 31.5 153.5t45 117.5t66.5 86t94.5 49.5t129.5 17.5q138 0 194.5 -58.5t56.5 -184.5zM294 5q0 -69 29.5 -104t102.5 -35
q47 0 81 15.5t55.5 39t37.5 68t24.5 84t18.5 105.5q19 125 19 174q0 70 -29 105t-102 35q-39 0 -69 -9.5t-51.5 -31t-36.5 -45.5t-26.5 -64.5t-18.5 -74.5t-15 -89q-20 -132 -20 -173z" />
    <glyph glyph-name="uni2081" unicode="&#x2081;" horiz-adv-x="452" 
d="M250 -234l109 690q-91 -23 -195 -38l11 109q125 19 235 67h104l-131 -828h-133z" />
    <glyph glyph-name="uni2082" unicode="&#x2082;" horiz-adv-x="677" 
d="M229 573q152 27 262 27q257 0 257 -166q0 -20 -3 -42q-17 -110 -88 -182t-198 -121q-92 -36 -132 -81t-66 -129h403l-19 -116h-558q24 72 39.5 114.5t37 89.5t42 74.5t50 56.5t66 49.5t85.5 40.5q92 37 140 78.5t59 106.5q3 15 3 28q0 49 -42.5 67.5t-144.5 18.5
q-77 0 -197 -19z" />
    <glyph glyph-name="uni2083" unicode="&#x2083;" horiz-adv-x="673" 
d="M725 395q-21 -134 -140 -194q96 -45 96 -149q0 -18 -3 -38q-23 -142 -111.5 -200.5t-243.5 -58.5q-110 0 -238 27l31 106q150 -19 198 -19q108 0 158.5 29t63.5 110q3 15 3 29q0 87 -88 98q-41 6 -147 6h-34l16 102q106 3 184 15q48 7 77.5 38.5t37.5 79.5q2 10 2 28
q0 28 -11 46t-34 26.5t-48 11t-65 2.5q-73 0 -214 -19l3 105q143 26 243 26q58 0 102 -7t84 -24t61 -51t21 -83q0 -12 -4 -42z" />
    <glyph glyph-name="uni2084" unicode="&#x2084;" horiz-adv-x="720" 
d="M466 -237l30 192h-304q-53 0 -71 19.5t-12 55.5q6 42 68 108l364 396q61 66 120 66q60 0 60 -62q0 -6 -2 -20l-72 -457h105l-16 -106h-106l-30 -192h-134zM568 407l-312 -346h258z" />
    <glyph glyph-name="uni2085" unicode="&#x2085;" horiz-adv-x="680" 
d="M327 277q36 2 58 2q60 0 103 -4t84.5 -15.5t67.5 -32t41.5 -55.5t15.5 -83q0 -29 -6 -64q-22 -141 -108 -204.5t-238 -63.5q-124 0 -248 27l30 106q119 -18 202 -18q113 0 161 32.5t64 132.5q0 1 1.5 11t1.5 15q0 28 -12 48t-30.5 31.5t-48.5 18t-58.5 8.5t-67.5 2
q-94 0 -165 -4l97 427h489l-18 -115h-371z" />
    <glyph glyph-name="uni2086" unicode="&#x2086;" horiz-adv-x="737" 
d="M754 24q-12 -79 -42.5 -133t-78 -83.5t-103 -41.5t-130.5 -12q-136 0 -193 56t-57 167q0 51 11 119q24 150 56.5 241.5t93.5 153t151 85.5t231 24q4 0 13.5 -0.5t30 -1t44.5 -0.5l-7 -108q-18 -1 -51 -2t-53.5 -1.5t-52.5 -3t-53 -6.5t-49.5 -12t-48.5 -18.5t-42.5 -27
t-38 -37t-29.5 -49t-23 -62.5q97 13 170 13q129 0 193 -41t64 -147q0 -33 -6 -72zM308 165q-3 -13 -15 -85q-8 -46 -8 -82q0 -134 129 -134q101 0 146.5 36.5t59.5 125.5q4 34 4 44q0 63 -39 86t-122 23q-57 0 -155 -14z" />
    <glyph glyph-name="uni2087" unicode="&#x2087;" horiz-adv-x="624" 
d="M734 483l-434 -718h-152l450 713h-419l19 115h480q42 0 61 -17.5t14 -47.5q-3 -17 -19 -45z" />
    <glyph glyph-name="uni2088" unicode="&#x2088;" horiz-adv-x="739" 
d="M745 37q0 -13 -4 -45q-11 -70 -42 -118.5t-78.5 -73.5t-99.5 -35t-119 -10q-269 0 -269 185q0 22 5 52q12 75 50 122t106 80q-84 53 -84 148q0 27 4 52q18 110 104.5 159t217.5 49q117 0 188.5 -40t71.5 -129q0 -18 -3 -39q-12 -73 -42.5 -118t-102.5 -81q97 -59 97 -158
zM269 -34q0 -58 39 -80t111 -22q80 0 129 28.5t61 103.5q3 18 3 32q0 53 -40 78t-135 33q-72 -11 -113.5 -44t-52.5 -99q-2 -10 -2 -30zM340 377q-1 -9 -1 -25q0 -48 38.5 -73.5t126.5 -31.5q70 14 109 42.5t49 87.5q2 20 2 27q0 53 -38.5 72.5t-106.5 19.5
q-76 0 -121.5 -24.5t-57.5 -94.5z" />
    <glyph glyph-name="uni2089" unicode="&#x2089;" horiz-adv-x="736" 
d="M179 333q24 153 112.5 211.5t242.5 58.5q136 0 192.5 -56.5t56.5 -166.5q0 -51 -11 -119q-24 -150 -56.5 -241.5t-93.5 -153t-151 -85.5t-231 -24q-4 0 -13.5 0.5t-30 1t-44.5 0.5l7 108q18 1 51 2t53.5 1.5t52.5 3t53.5 6.5t50 12t48.5 18.5t42.5 27t38 37t29.5 49
t23 62.5q-98 -13 -170 -13q-130 0 -194 40.5t-64 147.5q0 33 6 72zM519 493q-101 0 -146 -36t-59 -126q-4 -34 -4 -44q0 -63 39 -86t122 -23q57 0 155 14q5 21 15 85q8 56 8 82q0 63 -29 98.5t-101 35.5z" />
    <glyph glyph-name="Euro" unicode="&#x20ac;" horiz-adv-x="1085" 
d="M514 885h454l-45 -119h-432q-6 -34 -12 -72q-6 -40 -8 -55h405l-45 -119h-376q-6 -58 -6 -108q0 -134 58.5 -199.5t207.5 -65.5q89 0 236 26l-10 -150q-142 -38 -293 -38q-213 0 -303.5 94.5t-90.5 302.5q0 58 8 138h-154l44 119h124q2 15 8 55q6 38 12 72h-137l44 119
h118q42 185 107 295.5t173 166.5t272 56q157 0 281 -36l-39 -152q-136 26 -227 26q-89 0 -153.5 -23.5t-106.5 -72.5t-68 -110t-46 -150z" />
    <glyph glyph-name="uni2113" unicode="&#x2113;" horiz-adv-x="991" 
d="M67 436l196 126q15 96 28 167t30.5 155.5t35 145t41.5 127t50 112.5t60.5 89.5t73.5 69.5t87.5 41.5t103.5 15.5q97 0 145.5 -60.5t48.5 -161.5q0 -35 -6 -73q-14 -89 -63 -181t-124 -177t-157.5 -158.5t-180.5 -145.5q-7 -93 -7 -145q0 -134 38.5 -199t130.5 -65
q58 0 110.5 30.5t129.5 97.5l55 -80q-161 -182 -356 -182q-289 0 -289 395q0 25 1 38l-149 -84zM741 1362q-31 0 -58 -14.5t-49 -43.5t-40 -62t-33.5 -81t-27 -89.5t-23 -98t-18.5 -96t-16.5 -93.5t-14.5 -82q157 135 244 251.5t107 242.5q5 33 5 60q0 106 -76 106z" />
    <glyph glyph-name="trademark" unicode="&#x2122;" horiz-adv-x="1984" 
d="M1813 573h-137v683h-1l-281 -683h-91l-281 683h-1v-683h-137v859h204l264 -641l259 641h202v-859zM761 1432v-118h-269v-741h-136v741h-269v118h674z" />
    <glyph glyph-name="Omega" unicode="&#x2126;" horiz-adv-x="1499" 
d="M1243 745q9 54 9 108q0 85 -21 161t-62 138t-110 98.5t-156 36.5q-196 0 -341 -157t-182 -390q-9 -55 -9 -124q0 -164 63.5 -295.5t159.5 -198.5l-20 -122h-528l25 159h272q-158 189 -158 462q0 69 12 142q31 197 138 354t263 243t332 86q159 0 277.5 -75.5t177.5 -200
t59 -277.5q0 -63 -10 -122q-30 -189 -124 -348t-218 -264h272l-25 -159h-525l19 122q91 53 171.5 136.5t148 212t90.5 274.5z" />
    <glyph glyph-name="estimated" unicode="&#x212e;" horiz-adv-x="1685" 
d="M1370 305h126q-125 -153 -282 -236.5t-366 -83.5q-163 0 -302.5 51.5t-236.5 141t-151.5 214t-54.5 266.5q0 134 53 255.5t147 214.5t236 148t309 55q171 0 308.5 -51t228.5 -142.5t144 -212.5t66 -267h-1166v-455q172 -145 419 -145q327 0 522 247zM429 1112v-381h840
v381q-185 147 -421 147q-250 0 -419 -147z" />
    <glyph glyph-name="uni2190" unicode="&#x2190;" horiz-adv-x="1410" 
d="M440 515l332 -403h-194l-454 489l454 488h194l-332 -402h941v-172h-941z" />
    <glyph glyph-name="uni2191" unicode="&#x2191;" horiz-adv-x="1129" 
d="M698 914v-942h-172v942l-402 -332v194l488 454l488 -454v-194z" />
    <glyph glyph-name="uni2192" unicode="&#x2192;" horiz-adv-x="1409" 
d="M1381 601l-454 -489h-195l333 403h-941v172h941l-333 402h195z" />
    <glyph glyph-name="uni2193" unicode="&#x2193;" horiz-adv-x="1129" 
d="M1101 621v-194l-488 -455l-489 455v194l403 -332v941h172v-941z" />
    <glyph glyph-name="uni21E8" unicode="&#x21e8;" horiz-adv-x="1637" 
d="M954 323h-838v558h838v341l641 -620l-641 -621v342zM1453 602l-399 379v-201h-839v-357h839v-201z" />
    <glyph glyph-name="partialdiff" unicode="&#x2202;" horiz-adv-x="1079" 
d="M392 1287l-16 116q148 96 317 96q181 0 269.5 -124t88.5 -346q0 -103 -20 -231q-38 -239 -127 -422t-222.5 -287t-293.5 -104q-150 0 -228 94.5t-78 243.5q0 42 8 95q36 228 177.5 369t348.5 141q81 0 142.5 -37.5t91.5 -87.5q18 128 18 211q0 342 -245 342
q-65 0 -116 -16.5t-115 -52.5zM272 341q0 -96 39.5 -158.5t118.5 -62.5q71 0 134.5 46t111 123.5t82 164.5t56.5 183q-69 152 -208 152q-125 0 -214 -109t-114 -262q-6 -39 -6 -77z" />
    <glyph glyph-name="Delta" unicode="&#x2206;" horiz-adv-x="1310" 
d="M1203 123l-20 -123h-1169l18 119l693 1313h210zM1003 155l-213 1057l-553 -1057h766z" />
    <glyph glyph-name="product" unicode="&#x220f;" horiz-adv-x="1557" 
d="M1673 1475l-26 -169h-231l-250 -1579h-190l250 1579h-574l-250 -1579h-190l250 1579h-233l26 169h1418z" />
    <glyph glyph-name="summation" unicode="&#x2211;" horiz-adv-x="1216" 
d="M266 1475h1046l-25 -161h-793l402 -688l-664 -723h864l-27 -176h-1103l20 127l684 748l-424 743z" />
    <glyph glyph-name="minus" unicode="&#x2212;" horiz-adv-x="1164" 
d="M124 516l27 171h985l-28 -171h-984z" />
    <glyph glyph-name="uni2215" unicode="&#x2215;" horiz-adv-x="320" 
d="M-383 -29l1059 1490h142l-1060 -1490h-141z" />
    <glyph glyph-name="uni2219" unicode="&#x2219;" horiz-adv-x="486" 
d="M405 633q0 -23 -4 -47q-11 -70 -38.5 -96.5t-92.5 -26.5q-53 0 -75 17t-22 59q0 17 5 47q11 70 39.5 97.5t91.5 27.5q52 0 74 -17.5t22 -60.5z" />
    <glyph glyph-name="radical" unicode="&#x221a;" horiz-adv-x="1126" 
d="M1293 1750l-714 -1868h-168l-151 850l-147 -55l-19 132l320 121l121 -763l599 1583h159z" />
    <glyph glyph-name="infinity" unicode="&#x221e;" horiz-adv-x="1641" 
d="M147 601q22 137 126.5 240t235.5 103q180 0 314 -207q51 53 83 85.5t82 74.5t90 65t91 40t101 17q146 0 226 -95.5t80 -240.5q0 -33 -7 -82q-17 -111 -73.5 -205t-151 -154t-206.5 -60q-50 0 -95.5 17t-78.5 40.5t-69.5 66t-58.5 74t-56 84.5q-194 -203 -379 -203
q-116 0 -187 82t-71 201q0 32 4 57zM484 781q-65 0 -116 -49t-64 -131q-3 -21 -3 -40q0 -64 35 -101t91 -37t121.5 40.5t157.5 137.5q-62 98 -114 139t-108 41zM1244 855q-133 0 -343 -254q128 -253 263 -253q89 0 155.5 67t85.5 186q6 34 6 63q0 91 -45.5 141t-121.5 50z
" />
    <glyph glyph-name="integral" unicode="&#x222b;" horiz-adv-x="721" 
d="M915 1495q-43 37 -103 37q-41 0 -75 -16.5t-58.5 -48.5t-42.5 -66.5t-31.5 -82.5t-21.5 -84.5t-15 -82.5q-26 -162 -60.5 -493t-61.5 -503q-11 -68 -30 -134t-54 -137t-80 -123.5t-112 -86.5t-145 -34q-46 0 -98 16t-79 34l59 141q56 -39 128 -39q95 0 151.5 96t85.5 277
q24 156 61.5 501t62.5 501q12 77 30.5 143t53 136t79.5 119t114.5 80.5t154.5 31.5q39 0 81.5 -14.5t65.5 -31.5z" />
    <glyph glyph-name="approxequal" unicode="&#x2248;" horiz-adv-x="1302" 
d="M1190 517l-27 -172q-59 -54 -139.5 -81t-158.5 -27q-52 0 -99 13.5t-83 32.5t-71.5 37.5t-80.5 32t-95 13.5q-78 0 -158.5 -27.5t-139.5 -81.5l27 173q59 54 140 81t159 27q63 0 121 -20t96 -44.5t94 -44.5t117 -20q78 0 158.5 27t139.5 81zM1258 946l-27 -174
q-59 -54 -140 -81t-159 -27q-63 0 -121 20.5t-96 44.5t-94 44.5t-117 20.5q-78 0 -158.5 -27.5t-139.5 -81.5l27 172q59 54 139.5 81.5t158.5 27.5q63 0 121.5 -20.5t96 -44.5t94 -44.5t117.5 -20.5q77 0 158 28t140 82z" />
    <glyph glyph-name="notequal" unicode="&#x2260;" horiz-adv-x="1277" 
d="M146 301l27 172h370l151 256h-480l27 172h553l192 326h135l-192 -326h297l-27 -172h-371l-150 -256h480l-27 -172h-554l-191 -326h-135l191 326h-296z" />
    <glyph glyph-name="lessequal" unicode="&#x2264;" horiz-adv-x="1246" 
d="M175 662l24 155l1050 412l-29 -183l-806 -307l709 -306l-30 -183zM65 -26l28 172h984l-27 -172h-985z" />
    <glyph glyph-name="greaterequal" unicode="&#x2265;" horiz-adv-x="1246" 
d="M165 433l805 306l-708 307l29 183l919 -412l-25 -155l-1049 -412zM92 -26l28 172h984l-28 -172h-984z" />
    <glyph glyph-name="lozenge" unicode="&#x25ca;" horiz-adv-x="1095" 
d="M1069 717l-505 -765h-161l-263 765l505 763h161zM512 135l375 582l-190 584l-374 -584z" />
    <glyph glyph-name="zero.numerator" horiz-adv-x="758" 
d="M796 1197q0 -74 -17 -181q-14 -90 -31.5 -153.5t-45.5 -117t-67 -85.5t-94.5 -49.5t-129.5 -17.5q-138 0 -194.5 58t-56.5 183q0 69 18 182q18 114 41.5 187.5t64.5 129.5t104.5 81t156.5 25q138 0 194.5 -58t56.5 -184zM294 842q0 -69 29.5 -103.5t102.5 -34.5
q47 0 81 15.5t55.5 39t37.5 68t24.5 84t18.5 105.5q19 125 19 174q0 70 -29 104.5t-102 34.5q-34 0 -61 -8t-46.5 -21t-35.5 -36t-26.5 -45.5t-19.5 -59t-15 -67t-13 -76.5q-20 -132 -20 -174z" />
    <glyph glyph-name="one.numerator" horiz-adv-x="452" 
d="M250 603l109 690q-82 -21 -195 -37l11 109q129 20 235 66h104l-131 -828h-133z" />
    <glyph glyph-name="two.numerator" horiz-adv-x="677" 
d="M229 1411q152 27 262 27q257 0 257 -167q0 -19 -3 -41q-17 -110 -88 -182t-198 -121q-92 -36 -132 -81.5t-66 -129.5h403l-19 -116h-558q29 87 47.5 135t45 99.5t55.5 81.5t71 58t101 52q92 37 140 78t59 106q3 15 3 28q0 49 -42.5 67.5t-144.5 18.5q-83 0 -197 -18z" />
    <glyph glyph-name="three.numerator" horiz-adv-x="673" 
d="M725 1233q-21 -135 -140 -195q96 -45 96 -149q0 -17 -3 -37q-23 -142 -111.5 -200.5t-243.5 -58.5q-115 0 -238 26l31 106q142 -18 198 -18q108 0 158.5 28.5t63.5 109.5q3 15 3 30q0 86 -88 97q-48 7 -147 7h-34l16 102q106 3 184 15q48 7 77.5 38.5t37.5 79.5
q2 10 2 28q0 23 -8 39t-20.5 25t-34.5 13.5t-42.5 6t-52.5 1.5q-73 0 -214 -19l3 105q143 26 243 26q58 0 102 -6.5t84 -23.5t61 -51t21 -83q0 -12 -4 -42z" />
    <glyph glyph-name="four.numerator" horiz-adv-x="720" 
d="M466 600l30 193h-304q-53 0 -71 19.5t-12 55.5q6 42 68 108l364 395q61 67 120 67q27 0 43.5 -16t16.5 -47q0 -5 -2 -19l-72 -457h105l-16 -106h-106l-30 -193h-134zM568 1244l-312 -345h258z" />
    <glyph glyph-name="five.numerator" horiz-adv-x="680" 
d="M327 1115q18 1 58 1q60 0 102.5 -3.5t84.5 -15.5t68 -32t41.5 -55t15.5 -83q0 -31 -6 -65q-22 -141 -108 -204t-238 -63q-124 0 -248 27l30 106q125 -19 202 -19q113 0 161 32.5t64 133.5q0 1 1.5 11t1.5 15q0 28 -12 48t-30.5 31.5t-48.5 18t-58.5 8.5t-67.5 2
q-77 0 -165 -5l97 428h489l-18 -116h-371z" />
    <glyph glyph-name="six.numerator" horiz-adv-x="737" 
d="M754 861q-12 -79 -42.5 -133t-78 -83.5t-103 -41.5t-130.5 -12q-136 0 -193 56.5t-57 167.5q0 51 11 119q19 120 43.5 200t63 141.5t96.5 95t137 50t192 16.5q4 0 13.5 -0.5t30 -1t44.5 -0.5l-7 -107q-17 -1 -56 -2t-60.5 -2t-58 -4.5t-59 -10t-53 -16.5t-51 -26t-42 -38
t-36.5 -52.5t-25 -68.5q104 14 170 14q129 0 193 -41t64 -148q0 -33 -6 -72zM308 1002q-4 -15 -15 -84q-8 -46 -8 -83q0 -62 29 -97.5t100 -35.5q101 0 146.5 36t59.5 125q4 34 4 45q0 63 -39 85.5t-122 22.5q-57 0 -155 -14z" />
    <glyph glyph-name="seven.numerator" horiz-adv-x="624" 
d="M734 1320l-434 -718h-152l450 714h-419l19 114h480q42 0 61 -17t14 -47q-3 -19 -19 -46z" />
    <glyph glyph-name="eight.numerator" horiz-adv-x="739" 
d="M745 874q0 -12 -4 -44q-11 -70 -42 -118.5t-78.5 -73.5t-99.5 -35t-119 -10q-269 0 -269 185q0 22 5 52q12 75 50 121.5t106 79.5q-84 53 -84 149q0 27 4 52q33 207 322 207q117 0 188.5 -40t71.5 -129q0 -17 -3 -38q-12 -73 -42.5 -118t-102.5 -81q97 -59 97 -159z
M269 804q0 -58 39.5 -80.5t110.5 -22.5q80 0 129 28.5t61 103.5q3 18 3 33q0 53 -40 77.5t-135 32.5q-72 -11 -113.5 -44t-52.5 -99q-2 -10 -2 -29zM340 1214q-1 -9 -1 -24q0 -48 38.5 -73.5t126.5 -31.5q71 14 109.5 42t48.5 87q2 20 2 27q0 53 -38.5 72.5t-106.5 19.5
q-76 0 -121.5 -24.5t-57.5 -94.5z" />
    <glyph glyph-name="nine.numerator" horiz-adv-x="736" 
d="M179 1171q24 153 112.5 211.5t242.5 58.5q136 0 192.5 -56.5t56.5 -167.5q0 -51 -11 -119q-19 -120 -43.5 -200t-63 -141.5t-96.5 -95t-137 -50t-192 -16.5q-4 0 -13.5 0.5t-30 1t-44.5 0.5l7 107q17 1 56 2t60.5 2t58 4.5t59 10t53.5 16.5t51.5 26t42 38t36.5 52.5
t25 68.5q-106 -14 -170 -14q-130 0 -194 41t-64 148q0 33 6 72zM519 1330q-101 0 -146 -36t-59 -125q-4 -34 -4 -45q0 -63 39 -85.5t122 -22.5q57 0 155 14q5 24 15 84q8 56 8 83q0 63 -29 98t-101 35z" />
    <glyph glyph-name="zero.denominator" horiz-adv-x="758" 
d="M796 597q0 -75 -17 -182q-18 -113 -41.5 -186.5t-65 -129.5t-105.5 -81t-156 -25q-138 0 -194.5 57.5t-56.5 182.5q0 69 18 182q14 90 31.5 153.5t45 117.5t66.5 86t94.5 49.5t129.5 17.5q138 0 194.5 -58t56.5 -184zM294 242q0 -69 29.5 -104t102.5 -35q47 0 81 15.5
t55.5 39t37.5 68t24.5 84t18.5 105.5q19 125 19 174q0 70 -29 105t-102 35q-39 0 -69 -9.5t-51.5 -31t-36.5 -45.5t-26.5 -64.5t-18.5 -74.5t-15 -89q-20 -132 -20 -173z" />
    <glyph glyph-name="one.denominator" horiz-adv-x="452" 
d="M250 3l109 690q-82 -21 -195 -37l11 108q125 19 235 67h104l-131 -828h-133z" />
    <glyph glyph-name="two.denominator" horiz-adv-x="677" 
d="M229 810q158 28 262 28q257 0 257 -167q0 -19 -3 -42q-17 -110 -88 -182t-198 -121q-92 -36 -132 -81t-66 -129h403l-19 -116h-558q24 72 39.5 114.5t37 89.5t42 74.5t50 56.5t66 49.5t85.5 40.5q92 37 140 78.5t59 106.5q3 15 3 28q0 49 -42.5 67.5t-144.5 18.5
q-77 0 -197 -19z" />
    <glyph glyph-name="three.denominator" horiz-adv-x="673" 
d="M725 632q-21 -134 -140 -194q96 -45 96 -149q0 -19 -3 -38q-23 -142 -111.5 -200t-243.5 -58q-115 0 -238 26l31 106q150 -19 198 -19q108 0 158.5 29t63.5 110q3 15 3 30q0 86 -88 97q-48 7 -147 7h-34l16 102q114 3 184 14q48 7 77.5 38.5t37.5 79.5q2 10 2 28
q0 28 -11 46t-34 26.5t-48 11t-65 2.5q-73 0 -214 -19l3 105q143 26 243 26q58 0 102 -6.5t84 -23.5t61 -51t21 -83q0 -13 -4 -43z" />
    <glyph glyph-name="four.denominator" horiz-adv-x="720" 
d="M466 0l30 192h-304q-53 0 -71 19.5t-12 55.5q6 42 68 108l364 396q61 67 120 67q27 0 43.5 -16t16.5 -47q0 -6 -2 -20l-72 -456h105l-16 -107h-106l-30 -192h-134zM568 644l-312 -345h258z" />
    <glyph glyph-name="five.denominator" horiz-adv-x="680" 
d="M327 514q36 2 58 2q60 0 103 -4t84.5 -15.5t67.5 -32t41.5 -55.5t15.5 -83q0 -30 -6 -64q-22 -141 -108 -204.5t-238 -63.5q-120 0 -248 28l30 105q119 -18 202 -18q113 0 161 32.5t64 133.5q0 2 1.5 11t1.5 14q0 35 -17 57.5t-49.5 33t-67 14.5t-83.5 4q-77 0 -165 -5
l97 427h489l-18 -115h-371z" />
    <glyph glyph-name="six.denominator" horiz-adv-x="737" 
d="M754 261q-12 -79 -42.5 -133t-78 -83.5t-103 -41.5t-130.5 -12q-136 0 -193 56t-57 167q0 52 11 120q19 120 43.5 200t63 141.5t96.5 95t137 50t192 16.5q4 0 13.5 -0.5t30 -1t44.5 -0.5l-7 -107q-17 -1 -56 -2t-60.5 -2t-58 -4.5t-59 -10t-53 -16.5t-51 -26t-42 -38
t-36.5 -52.5t-25 -68.5q104 14 170 14q129 0 193 -41t64 -148q0 -33 -6 -72zM308 402q-4 -15 -15 -84q-8 -46 -8 -83q0 -134 129 -134q101 0 146.5 36.5t59.5 125.5q4 34 4 44q0 63 -39 86t-122 23q-57 0 -155 -14z" />
    <glyph glyph-name="seven.denominator" horiz-adv-x="624" 
d="M734 720l-434 -718h-152l450 713h-419l19 115h480q42 0 61 -17t14 -47q-3 -19 -19 -46z" />
    <glyph glyph-name="eight.denominator" horiz-adv-x="739" 
d="M745 274q0 -13 -4 -45q-11 -70 -42 -118t-78.5 -73t-99.5 -35t-119 -10q-269 0 -269 185q0 21 5 51q12 75 50 122t106 80q-84 53 -84 148q0 28 4 53q33 207 322 207q117 0 188.5 -40t71.5 -129q0 -17 -3 -38q-12 -73 -42.5 -118t-102.5 -81q97 -59 97 -159zM269 203
q0 -58 39 -80t111 -22q80 0 129 28.5t61 103.5q3 18 3 32q0 53 -40 78t-135 33q-72 -11 -113.5 -44t-52.5 -99q-2 -10 -2 -30zM340 614q-1 -9 -1 -25q0 -48 38.5 -73.5t126.5 -31.5q70 14 109 42.5t49 87.5q2 20 2 27q0 53 -38.5 72.5t-106.5 19.5q-76 0 -121.5 -24.5
t-57.5 -94.5z" />
    <glyph glyph-name="nine.denominator" horiz-adv-x="736" 
d="M179 570q24 153 112.5 212t242.5 59q136 0 192.5 -56.5t56.5 -167.5q0 -51 -11 -119q-24 -150 -56.5 -241.5t-93.5 -153t-151 -85.5t-231 -24q-4 0 -13.5 0.5t-30 1t-44.5 0.5l7 108q18 1 51 2t53.5 1.5t52.5 3t53.5 6.5t50 12t48.5 18.5t42.5 27t38 37t29.5 49t23 62.5
q-98 -13 -170 -13q-130 0 -194 40.5t-64 147.5q0 33 6 72zM519 730q-101 0 -146 -36t-59 -126q-4 -34 -4 -44q0 -63 39 -86t122 -23q50 0 155 15q5 24 15 84q8 56 8 83q0 63 -29 98t-101 35z" />
    <glyph glyph-name="zero.onum" horiz-adv-x="1149" 
d="M527 -15q-211 0 -297.5 84t-86.5 266q0 105 23 248q20 128 45.5 217.5t66.5 165.5t99.5 121t142 69.5t196.5 24.5q211 0 297 -83.5t86 -264.5q0 -98 -24 -250q-17 -106 -36.5 -184.5t-49.5 -148.5t-70.5 -117t-96 -81.5t-128.5 -50.5t-167 -16zM325 348
q0 -105 48.5 -157.5t171.5 -52.5q55 0 99 11.5t75.5 29.5t57 51t42 65.5t31 84t23 95t18.5 108.5q26 167 26 235q0 105 -48.5 157.5t-171.5 52.5q-55 0 -99 -11.5t-76 -29.5t-57.5 -51t-42 -65t-30.5 -83.5t-22.5 -95t-18.5 -109.5q-26 -165 -26 -235z" />
    <glyph glyph-name="one.onum" horiz-adv-x="683" 
d="M298 0l154 974q-154 -42 -315 -63l16 152q201 31 367 104h145l-184 -1167h-183z" />
    <glyph glyph-name="two.onum" horiz-adv-x="1031" 
d="M237 1146q216 35 400 35q395 0 395 -238q0 -23 -5 -56q-24 -157 -132 -256.5t-303 -168.5q-155 -55 -221.5 -120t-103.5 -183h645l-25 -159h-851q27 76 45 124t42 103.5t44 90t47.5 73.5t56.5 64.5t67 52.5t83 48t101 41q153 56 232 115t93 149q3 19 3 35
q0 75 -71.5 102.5t-247.5 27.5q-134 0 -298 -24z" />
    <glyph glyph-name="three.onum" horiz-adv-x="1016" 
d="M987 868q-35 -215 -227 -303q159 -64 159 -231q0 -24 -5 -59q-18 -111 -62.5 -189t-115.5 -122t-158 -63.5t-202 -19.5q-181 0 -358 37l44 150q206 -28 296 -28q176 0 259 46.5t104 178.5q3 25 3 47q0 140 -147 159q-89 11 -224 11h-47l23 142q146 3 276 22
q82 12 130.5 63t60.5 130q3 26 3 46q0 37 -13 63.5t-33.5 41t-56.5 22.5t-69.5 10t-85.5 2q-126 0 -322 -27l6 147q192 37 365 37q69 0 124 -6t109 -22t89.5 -43t57.5 -72.5t22 -105.5q0 -35 -5 -64z" />
    <glyph glyph-name="four.onum" horiz-adv-x="1092" 
d="M614 -106l47 300h-487q-119 0 -119 83q0 6 2 24q12 67 102 164l567 616q90 100 175 100q37 0 59 -21.5t22 -65.5q0 -16 -3 -32l-114 -720h164l-23 -148h-164l-48 -300h-180zM778 926l-529 -584h436z" />
    <glyph glyph-name="five.onum" horiz-adv-x="1027" 
d="M1016 1004h-577q-5 -22 -37 -165.5t-37 -166.5q54 4 104 4q91 0 156 -6t129 -24t103 -49t63 -84t24 -126q0 -50 -8 -98q-34 -216 -165 -312.5t-361 -96.5q-187 0 -374 39l44 149q160 -27 302 -27q93 0 151.5 10t105 39t71.5 81.5t38 136.5q3 22 3 42q0 45 -19 77.5
t-49 51t-78 29.5t-94 14t-108 3q-144 0 -244 -6l147 648h737z" />
    <glyph glyph-name="six.onum" horiz-adv-x="1116" 
d="M1042 398q-15 -97 -49 -169.5t-80.5 -119t-111.5 -74.5t-136 -39t-161 -11q-206 0 -291.5 85.5t-85.5 255.5q0 72 17 186q24 153 53 262.5t74 199.5t103 146.5t143 95t192 54.5t251 16q36 0 122 -2l-8 -152q-28 -1 -82 -3t-86.5 -3.5t-84 -6t-85.5 -11t-79 -19.5
t-75.5 -30.5t-65 -44t-58 -60t-44 -80t-31.5 -101.5q162 21 279 21q95 0 163 -13t121 -44t79 -88t26 -141q0 -48 -9 -110zM348 624q-8 -33 -25 -139q-13 -82 -13 -129q0 -101 48 -159t167 -58q165 0 238.5 58.5t96.5 203.5q6 39 6 71q0 102 -64 139t-199 37q-85 0 -255 -24z
" />
    <glyph glyph-name="seven.onum" horiz-adv-x="945" 
d="M1006 1008l-674 -1114h-208l701 1111h-658l25 162h737q58 0 85 -24t20 -67q-4 -28 -28 -68z" />
    <glyph glyph-name="eight.onum" horiz-adv-x="1121" 
d="M508 -15q-93 0 -164.5 14.5t-127.5 46t-85.5 87.5t-29.5 134q0 30 7 79q18 120 78.5 190.5t172.5 123.5q-74 41 -107 95t-33 132q0 34 8 84q13 87 57 149.5t111.5 98t146 51.5t172.5 16q84 0 152.5 -13.5t124 -42t86 -80t30.5 -121.5q0 -25 -5 -58q-18 -114 -67.5 -183.5
t-165.5 -126.5q78 -42 118.5 -99t40.5 -144q0 -34 -6 -73q-14 -86 -48.5 -150.5t-80.5 -104t-110.5 -63.5t-129.5 -33t-145 -9zM284 302q0 -94 65.5 -130t182.5 -36q63 0 110.5 9t91 31.5t71 66.5t37.5 108q4 25 4 52q0 87 -64 126.5t-218 53.5q-117 -19 -188 -73t-87 -159
q-5 -45 -5 -49zM393 903q0 -78 64 -119t210 -50q113 24 178 70.5t80 139.5q3 23 3 43q0 46 -18 77t-52.5 47t-73.5 22t-93 6q-59 0 -103.5 -7.5t-86.5 -27.5t-68.5 -60t-35.5 -100q-4 -28 -4 -41z" />
    <glyph glyph-name="nine.onum" horiz-adv-x="1114" 
d="M163 768q15 97 49 169.5t80.5 119t111.5 74.5t135.5 39t160.5 11q205 0 291 -86t86 -256q0 -78 -16 -185q-24 -153 -53 -262.5t-74 -199.5t-103 -146.5t-143 -95t-192 -54.5t-251 -16q-37 0 -122 2l8 152q28 1 82 3t86.5 3.5t84 6t85.5 11t79 19.5t75.5 30.5t65 44t58 60
t44 80t31.5 101.5q-162 -21 -278 -21q-95 0 -163 13t-121.5 44t-80 88t-26.5 141q0 42 10 110zM340 694q0 -102 63 -138.5t199 -36.5q93 0 254 23q11 47 26 139q13 82 13 129q0 102 -48 159.5t-167 57.5q-165 0 -237.5 -58.5t-96.5 -203.5q-6 -39 -6 -71z" />
    <glyph glyph-name="dollar.onum" horiz-adv-x="929" 
d="M675 347q3 19 3 37q0 39 -15 68.5t-48.5 51.5t-65.5 35.5t-88 31.5q-79 25 -127.5 47t-92 55t-63 78.5t-19.5 108.5q0 34 6 76q26 167 122.5 248t266.5 97l27 176h136l-27 -172q157 -3 292 -32l-40 -149q-154 24 -256 24q-64 0 -110.5 -5t-98 -21t-83.5 -51.5t-41 -90.5
q-5 -42 -5 -46q0 -41 14 -69.5t45 -47.5t64 -31t87 -29l21 -6q147 -44 220.5 -111.5t73.5 -189.5q0 -28 -7 -77q-26 -168 -124.5 -255.5t-267.5 -106.5l-28 -177h-136l27 171q-158 1 -312 34l43 152q165 -26 308 -26q50 0 89 5t76 18t63 35.5t44.5 58.5t26.5 85z" />
    <glyph glyph-name="cent.onum" horiz-adv-x="800" 
d="M722 307l-6 -140q-116 -26 -220 -31l-26 -171h-128l27 173q-134 17 -190 100t-56 220q0 76 17 188q14 89 32 155.5t48 126t71 99t99.5 66.5t134.5 37l29 176h128l-27 -169q113 -3 208 -31l-35 -135q-108 18 -163 18q-58 0 -102 -6t-78 -16.5t-58.5 -32t-41.5 -45.5
t-30 -63.5t-21.5 -79.5t-18.5 -100q-18 -121 -18 -173q0 -99 55.5 -144t201.5 -45q46 0 168 23z" />
    <glyph glyph-name="Euro.onum" horiz-adv-x="1002" 
d="M896 814l-46 -119h-392l-9 -60l-8 -45h371l-45 -118h-341q-5 -55 -5 -92q0 -120 52.5 -178.5t186.5 -58.5q80 0 218 24l-9 -147q-135 -35 -272 -35q-198 0 -281 87t-83 279q0 44 7 121h-142l45 118h111q1 7 3.5 22t3.5 23q6 40 10 60h-127l46 119h105q58 251 172 361.5
t336 110.5q142 0 261 -34l-38 -148q-118 24 -211 24q-79 0 -136.5 -21t-95.5 -64t-61 -97t-41 -132h415z" />
    <glyph glyph-name="sterling.onum" horiz-adv-x="1077" 
d="M308 571h-185l23 145h164q4 115 21 222q16 101 61 172t114 108t146 53t174 16q110 0 175 -34t126 -105l-113 -114q-93 93 -207 93q-148 0 -213 -54t-84 -179q-10 -67 -14 -178h284l-22 -145h-267q-3 -62 -13 -121q-21 -129 -113 -288h283q160 0 300 22l-8 -150
q-170 -34 -418 -34h-306q-47 0 -67 20.5t-14 54.5q3 20 25.5 57.5t48.5 76.5t52 101t36 125q9 61 11 136z" />
    <glyph glyph-name="yen.onum" horiz-adv-x="1006" 
d="M401 1274l161 -581l354 581h183l-385 -628h153l-20 -127h-211l-15 -25l-15 -87h222l-19 -126h-222l-44 -281h-185l45 281h-218l20 126h218l14 87l-7 25h-207l20 127h150l-183 628h191z" />
    <glyph glyph-name="zero.tnum" 
d="M547 -15q-225 0 -318 96.5t-93 303.5q0 123 30 309q24 151 53 257.5t75 196.5t109.5 143.5t155 82.5t213.5 29q225 0 318.5 -96.5t93.5 -302.5q0 -124 -30 -310q-20 -125 -43 -218t-57 -176.5t-78.5 -139t-105.5 -96.5t-141 -60t-182 -19zM324 391q0 -124 54 -186
t189 -62q61 0 110.5 14t85.5 36.5t65 63.5t48 81t36 104t27 117t23 135q34 219 34 303q0 124 -54 186.5t-189 62.5q-54 0 -98.5 -9.5t-79 -31t-61.5 -46.5t-48.5 -66t-36.5 -79t-28.5 -96t-22.5 -105.5t-20 -118.5q-34 -219 -34 -303z" />
    <glyph glyph-name="one.tnum" 
d="M557 0l188 1190q-176 -47 -337 -69l16 156q211 33 388 112h154l-220 -1389h-189z" />
    <glyph glyph-name="two.tnum" 
d="M322 1361q230 42 428 42q422 0 422 -274q0 -31 -6 -67q-30 -184 -147 -303t-327 -201q-90 -35 -150 -71.5t-100 -86t-63 -100.5t-47 -132h692l-27 -168h-911q29 88 49 144t45.5 120.5t47.5 104.5t52 85.5t61 75.5t72.5 62t90.5 57t110 50q80 33 136.5 63.5t104.5 69.5
t75.5 88t37.5 109q5 30 5 51q0 92 -76.5 126t-261.5 34q-137 0 -319 -29z" />
    <glyph glyph-name="three.tnum" 
d="M1135 1065q-38 -242 -259 -334q84 -30 134 -93t50 -161q0 -29 -6 -64q-19 -121 -67.5 -205.5t-125.5 -132.5t-172 -69t-220 -21q-186 0 -387 41l46 153q221 -30 322 -30q195 0 287.5 52.5t116.5 200.5q4 24 4 53q0 79 -43 124t-124 55q-96 12 -246 12h-46l23 145
q144 3 298 25q93 14 147 70.5t68 146.5q5 33 5 53q0 42 -15 71.5t-37.5 46t-63 25t-78 11t-95.5 2.5q-135 0 -347 -29l4 150q212 40 396 40q75 0 135 -6t118.5 -24t97 -47t62.5 -77.5t24 -113.5q0 -33 -6 -70z" />
    <glyph glyph-name="four.tnum" 
d="M696 0l52 329h-542q-126 0 -126 86q0 9 2 27q12 69 111 177l623 678q53 57 96.5 81.5t90.5 24.5q39 0 62 -23.5t23 -68.5q0 -20 -2 -32l-126 -798h179l-23 -152h-180l-52 -329h-188zM877 1145l-601 -664h496z" />
    <glyph glyph-name="five.tnum" 
d="M444 844q77 5 120 5q99 0 170 -6.5t140.5 -26t112 -53.5t68.5 -91.5t26 -137.5q0 -46 -9 -105q-36 -234 -178.5 -339t-393.5 -105q-206 0 -403 42l45 153q178 -30 326 -30q104 0 169.5 11.5t117 44t79.5 91t43 153.5q5 43 5 48q0 51 -21.5 87.5t-55.5 57t-87.5 32.5
t-104 15.5t-120.5 3.5q-152 0 -262 -6l159 701h798l-26 -168h-634z" />
    <glyph glyph-name="six.tnum" 
d="M1130 433q-21 -131 -70.5 -220.5t-128 -138.5t-170.5 -69t-215 -20q-115 0 -195 25t-126.5 74t-67 115.5t-20.5 156.5q0 92 18 202q27 167 58.5 286.5t80.5 218t112.5 160t156 103.5t209 59.5t273.5 17.5q81 0 129 -1l-9 -156q-29 -1 -88.5 -2.5t-94.5 -2.5t-92.5 -6
t-94.5 -12.5t-88 -22t-84.5 -34t-72.5 -50.5t-64.5 -69.5t-47.5 -91t-34 -116.5q188 24 312 24q82 0 144.5 -8.5t117 -29.5t89 -56t54 -89.5t19.5 -127.5q0 -56 -10 -119zM370 687q-10 -39 -30 -157q-14 -87 -14 -145q0 -113 54 -177t187 -64q184 0 266 65t108 227
q7 41 7 80q0 115 -71.5 156t-222.5 41q-100 0 -284 -26z" />
    <glyph glyph-name="seven.tnum" 
d="M1196 1222l-739 -1222h-217l772 1222h-727l27 167h803q60 0 88.5 -25.5t21.5 -69.5q-4 -32 -29 -72z" />
    <glyph glyph-name="eight.tnum" 
d="M1201 1126q0 -34 -5 -62q-20 -126 -75.5 -202.5t-188.5 -138.5q88 -47 134 -110.5t46 -161.5q0 -34 -6 -76q-15 -93 -52.5 -163t-88 -112.5t-120 -69t-140 -36t-157.5 -9.5q-101 0 -179 15.5t-138.5 50t-92.5 95t-32 145.5q0 35 8 85q21 131 89.5 209t192.5 136
q-84 45 -122 105.5t-38 148.5q0 38 8 89q12 75 46 133.5t83 97t114 63t135 35t151 10.5q91 0 165.5 -14t135 -45t94 -86.5t33.5 -131.5zM296 326q0 -55 20.5 -92.5t60 -57.5t86 -28t109.5 -8q70 0 123.5 10t102 35.5t79.5 75t43 121.5q5 28 5 59q0 97 -71.5 141t-244.5 59
q-133 -19 -211 -79t-97 -180q-5 -33 -5 -56zM417 987q0 -88 70.5 -134.5t233.5 -56.5q130 26 201.5 78t88.5 159q5 30 5 50q0 52 -20.5 86.5t-59.5 52t-83 24.5t-105 7q-52 0 -93 -4.5t-82.5 -19t-71 -38t-51.5 -63.5t-30 -95q-3 -24 -3 -46z" />
    <glyph glyph-name="nine.tnum" 
d="M187 955q21 131 70.5 220.5t128 138.5t170.5 69t215 20q223 0 315.5 -92.5t92.5 -276.5q0 -92 -18 -203q-26 -167 -57.5 -286.5t-80.5 -218t-112.5 -160t-156 -104t-209 -60t-273.5 -17.5q-34 0 -129 2l8 156q29 1 88.5 2.5t94.5 2.5t93 6t94.5 12.5t87.5 22t84.5 34
t72.5 50.5t64.5 69.5t47.5 91t34 116.5q-194 -25 -312 -25q-82 0 -144.5 8.5t-117 29.5t-89 56t-54 89.5t-19.5 127.5q0 50 11 119zM750 1245q-185 0 -266.5 -65.5t-107.5 -227.5q-7 -51 -7 -79q0 -115 71 -156.5t222 -41.5q94 0 285 27q13 53 29 157q14 88 14 146
q0 113 -53.5 176.5t-186.5 63.5z" />
    <glyph glyph-name="dollar.tnum" 
d="M842 377q3 24 3 44q0 37 -13.5 67t-31 48.5t-54 37t-64 28.5t-78.5 27q-68 22 -113 40t-89.5 44.5t-70 56.5t-41 73t-15.5 98q0 34 8 84q29 182 133.5 269.5t290.5 104.5l32 192h137l-30 -188q157 -3 321 -35l-41 -152q-158 25 -276 25q-46 0 -81.5 -2t-79 -8.5
t-76 -19.5t-62.5 -33t-49 -52.5t-26 -74.5q-5 -35 -5 -56q0 -23 3.5 -42t13.5 -35t19 -28t30 -24t35 -19.5t46 -18.5t50.5 -16.5t60.5 -18.5q160 -47 239 -120t79 -205q0 -42 -7 -84q-29 -184 -136 -278t-293 -114l-31 -195h-138l30 188q-183 1 -342 36l43 156
q190 -28 334 -28q71 0 123.5 9.5t98.5 33.5t74 70.5t39 114.5z" />
    <glyph glyph-name="cent.tnum" 
d="M954 326l-7 -142q-128 -28 -240 -33l-30 -188h-130l30 190q-101 12 -163 61.5t-85 119.5t-23 167q0 81 19 204q20 123 47.5 208.5t75.5 156t121.5 110t178.5 53.5l31 193h130l-30 -186q117 -1 228 -34l-35 -137q-111 20 -174 20q-76 0 -130.5 -8t-95.5 -29t-66.5 -47
t-45 -74t-31 -97.5t-23.5 -128.5q-21 -131 -21 -193q0 -110 62 -159.5t226 -49.5q62 0 181 23z" />
    <glyph glyph-name="Euro.tnum" 
d="M576 885h455l-45 -119h-432q-6 -34 -12 -72q-1 -4 -4.5 -24t-4.5 -31h405l-44 -119h-376q-6 -58 -6 -108q0 -134 58.5 -199.5t207.5 -65.5q88 0 235 26l-9 -150q-142 -38 -293 -38q-213 0 -303.5 94.5t-90.5 302.5q0 68 7 138h-153l43 119h125q2 15 8 55q6 38 12 72h-138
l45 119h117q42 185 107.5 295.5t173.5 166.5t272 56q157 0 281 -36l-39 -152q-136 26 -227 26q-89 0 -153.5 -23.5t-107 -72.5t-68.5 -110t-46 -150z" />
    <glyph glyph-name="sterling.tnum" 
d="M359 627h-204l23 148h182q4 131 22 251q14 88 50 155t84.5 108.5t115.5 67.5t136 36t152 10q82 0 144 -20t99.5 -49t81.5 -79l-116 -116q-99 99 -228 99q-113 0 -182 -29t-102 -84t-48 -149q-11 -75 -15 -201h311l-23 -148h-294q-4 -61 -15 -137q-22 -143 -127 -323h318
q172 0 325 23l-7 -154q-175 -36 -454 -36h-336q-49 0 -70 21.5t-15 55.5q3 21 28 62t54 84t58 111.5t40 138.5q10 60 12 154z" />
    <glyph glyph-name="yen.tnum" 
d="M488 1389l180 -647l392 647h189l-421 -690h170l-20 -128h-229l-20 -33l-16 -102h244l-21 -127h-243l-49 -309h-191l48 309h-239l20 127h239l17 102l-10 33h-224l19 128h168l-200 690h197z" />
    <glyph glyph-name="period.tnum" horiz-adv-x="605" 
d="M426 155q0 -22 -4 -46q-11 -70 -38.5 -97t-92.5 -27q-53 0 -74.5 17t-21.5 58q0 19 5 49q11 70 39 97t91 27q52 0 74 -17.5t22 -60.5z" />
    <glyph glyph-name="comma.tnum" horiz-adv-x="605" 
d="M76 -269l208 514h214l-266 -514h-156z" />
    <glyph glyph-name="colon.tnum" horiz-adv-x="605" 
d="M397 155q0 -22 -4 -46q-11 -70 -39 -97t-93 -27q-52 0 -74 17.5t-22 58.5q0 18 5 48q11 70 39 97t91 27q52 0 74.5 -18t22.5 -60zM382 743q-53 0 -74.5 17t-21.5 59q0 24 4 48q11 70 39.5 97.5t91.5 27.5q52 0 74 -18t22 -61q0 -10 -4 -46q-11 -71 -39 -97.5t-92 -26.5z
" />
    <glyph glyph-name="semicolon.tnum" horiz-adv-x="605" 
d="M440 743q-53 0 -74.5 17t-21.5 59q0 24 4 48q11 70 39.5 97.5t91.5 27.5q52 0 74.5 -18t22.5 -60q0 -17 -5 -47q-11 -71 -38.5 -97.5t-92.5 -26.5zM42 -269l209 514h214l-267 -514h-156z" />
    <glyph glyph-name="zero.onum_tnum" horiz-adv-x="1112" 
d="M508 -15q-211 0 -297.5 84t-86.5 266q0 105 23 248q20 128 45.5 217.5t66.5 165.5t99.5 121t142 69.5t196.5 24.5q211 0 297 -83.5t86 -264.5q0 -98 -24 -250q-17 -106 -36.5 -184.5t-49.5 -148.5t-70.5 -117t-96 -81.5t-128.5 -50.5t-167 -16zM306 348
q0 -105 48.5 -157.5t171.5 -52.5q55 0 99 11.5t75.5 29.5t57 51t42 65.5t31 84t23 95t18.5 108.5q26 167 26 235q0 105 -48.5 157.5t-171.5 52.5q-55 0 -99 -11.5t-76 -29.5t-57.5 -51t-42 -65t-30.5 -83.5t-22.5 -95t-18.5 -109.5q-26 -165 -26 -235z" />
    <glyph glyph-name="one.onum_tnum" horiz-adv-x="1112" 
d="M512 0l155 974q-153 -41 -316 -63l16 152q201 31 367 104h146l-185 -1167h-183z" />
    <glyph glyph-name="two.onum_tnum" horiz-adv-x="1112" 
d="M278 1146q216 35 399 35q396 0 396 -238q0 -23 -5 -56q-24 -157 -132 -256.5t-303 -168.5q-155 -55 -221.5 -120t-103.5 -183h644l-25 -159h-851q31 87 51.5 140.5t47.5 113.5t52 97t58.5 76.5t73 67t90 53.5t114.5 49q153 56 231.5 115t92.5 149q3 19 3 35
q0 75 -71.5 102.5t-247.5 27.5q-133 0 -297 -24z" />
    <glyph glyph-name="three.onum_tnum" horiz-adv-x="1112" 
d="M1035 868q-35 -215 -227 -303q159 -64 159 -231q0 -24 -5 -59q-18 -111 -62.5 -189t-115.5 -122t-158 -63.5t-202 -19.5q-181 0 -358 37l44 150q206 -28 296 -28q176 0 259 46.5t104 178.5q3 25 3 47q0 140 -147 159q-89 11 -224 11h-47l23 142q146 3 276 22
q82 12 130.5 63t60.5 130q3 26 3 46q0 37 -13 63.5t-33.5 41t-56.5 22.5t-69.5 10t-85.5 2q-126 0 -322 -27l6 147q192 37 365 37q69 0 124 -6t109 -22t89.5 -43t57.5 -72.5t22 -105.5q0 -35 -5 -64z" />
    <glyph glyph-name="four.onum_tnum" horiz-adv-x="1112" 
d="M624 -106l47 300h-487q-119 0 -119 83q0 15 1 24q12 66 103 164l567 616q90 100 175 100q37 0 59 -21.5t22 -65.5q0 -16 -3 -32l-114 -720h164l-23 -148h-164l-48 -300h-180zM788 926l-529 -584h436z" />
    <glyph glyph-name="five.onum_tnum" horiz-adv-x="1112" 
d="M1059 1004h-577q-5 -22 -37.5 -165.5t-37.5 -166.5q54 4 105 4q91 0 156 -6t129 -24t103 -49t63 -84t24 -126q0 -44 -9 -98q-34 -216 -165 -312.5t-361 -96.5q-186 0 -373 39l43 149q160 -27 302 -27q93 0 151.5 10t105 39t71.5 81.5t38 136.5q4 30 4 42q0 38 -12.5 67
t-37.5 47.5t-55 31t-72 18.5t-81.5 8.5t-90.5 2.5q-143 0 -243 -6l146 648h737z" />
    <glyph glyph-name="six.onum_tnum" horiz-adv-x="1112" 
d="M1039 398q-19 -121 -64.5 -203.5t-117.5 -127.5t-157 -63.5t-198 -18.5q-206 0 -291.5 85.5t-85.5 255.5q0 72 17 186q24 153 53 262.5t74 199.5t103 146.5t142.5 95t191.5 54.5t251 16q37 0 123 -2l-8 -152q-28 -1 -82 -3t-87 -3.5t-84.5 -6t-85 -11t-79 -19.5
t-76 -30.5t-65 -44t-58 -60t-44 -80t-31.5 -101.5q162 21 279 21q95 0 163 -13t121 -44t79.5 -88t26.5 -141q0 -42 -10 -110zM346 624q-11 -47 -26 -139q-12 -75 -12 -129q0 -101 47.5 -159t166.5 -58q165 0 238.5 58.5t96.5 203.5q6 39 6 71q0 102 -63.5 139t-198.5 37
q-85 0 -255 -24z" />
    <glyph glyph-name="seven.onum_tnum" horiz-adv-x="1112" 
d="M1090 1008l-675 -1114h-208l702 1111h-658l25 162h737q58 0 84.5 -24t19.5 -67q-5 -31 -27 -68z" />
    <glyph glyph-name="eight.onum_tnum" horiz-adv-x="1112" 
d="M503 -15q-93 0 -164.5 14.5t-127.5 46t-85.5 87.5t-29.5 134q0 30 7 79q18 120 78.5 190.5t172.5 123.5q-74 41 -107 95t-33 132q0 34 8 84q13 87 57 149.5t111.5 98t146 51.5t172.5 16q84 0 152.5 -13.5t124 -42t86 -80t30.5 -121.5q0 -25 -5 -58q-18 -114 -67 -183.5
t-165 -126.5q78 -41 118 -98.5t40 -144.5q0 -34 -6 -73q-14 -86 -48.5 -150.5t-80.5 -104t-110.5 -63.5t-129.5 -33t-145 -9zM280 302q0 -94 65 -130t182 -36q63 0 110.5 9t91 31.5t71 66.5t37.5 108q4 25 4 52q0 87 -64 126.5t-218 53.5q-117 -19 -188 -73t-87 -159
q-4 -36 -4 -49zM388 903q0 -78 64 -119t210 -50q113 24 178 70.5t80 139.5q4 30 4 43q0 46 -18 77t-52.5 47t-74 22t-93.5 6q-59 0 -103.5 -7.5t-86.5 -27.5t-68.5 -60t-35.5 -100q-4 -28 -4 -41z" />
    <glyph glyph-name="nine.onum_tnum" horiz-adv-x="1112" 
d="M162 768q15 97 49 169.5t80.5 119t111.5 74.5t135.5 39t160.5 11q205 0 291 -86t86 -256q0 -71 -17 -185q-24 -153 -53 -262.5t-74 -199.5t-103 -146.5t-143 -95t-192 -54.5t-251 -16q-36 0 -121 2l8 152q28 1 82 3t86.5 3.5t84 6t85.5 11t79 19.5t75.5 30.5t65 44t58 60
t44 80t31.5 101.5q-162 -21 -278 -21q-95 0 -163 13t-121.5 44t-80 88t-26.5 141q0 42 10 110zM339 694q0 -102 63 -138.5t198 -36.5q94 0 255 23q11 47 26 139q12 75 12 129q0 102 -47.5 159.5t-166.5 57.5q-165 0 -237.5 -58.5t-96.5 -203.5q-6 -39 -6 -71z" />
    <glyph glyph-name="dollar.onum_tnum" horiz-adv-x="1112" 
d="M766 347q3 19 3 37q0 39 -15 68.5t-48 51t-65.5 35.5t-87.5 32q-62 20 -103.5 36.5t-82.5 41t-64.5 52.5t-38 68t-14.5 91q0 27 7 76q26 168 122 248.5t266 96.5l28 176h136l-27 -172q156 -3 291 -32l-39 -149q-154 24 -257 24q-64 0 -110.5 -5t-98 -21t-83.5 -51.5
t-41 -90.5q-4 -34 -4 -46q0 -41 14 -69.5t45 -47.5t64 -31t87 -29l21 -6q147 -44 220 -111.5t73 -189.5q0 -28 -7 -77q-26 -168 -124 -255.5t-267 -106.5l-28 -177h-136l27 171q-159 1 -313 34l43 152q165 -26 309 -26q64 0 110 8.5t87 29.5t66.5 62t34.5 102z" />
    <glyph glyph-name="cent.onum_tnum" horiz-adv-x="1112" 
d="M878 307l-6 -140q-116 -26 -219 -31l-27 -171h-128l27 173q-134 17 -190 100t-56 220q0 76 17 188q14 89 32 155.5t48 126t71 99t99.5 66.5t134.5 37l29 176h128l-27 -169q113 -3 208 -31l-35 -135q-108 18 -162 18q-58 0 -102 -6t-78 -16.5t-58.5 -32t-42 -45.5
t-30.5 -63.5t-21.5 -79.5t-18.5 -100q-18 -121 -18 -173q0 -99 55.5 -144t201.5 -45q46 0 168 23z" />
    <glyph glyph-name="Euro.onum_tnum" horiz-adv-x="1112" 
d="M952 814l-46 -119h-392q-4 -20 -10 -60l-8 -45h371l-44 -118h-342q-5 -55 -5 -92q0 -120 52.5 -178.5t186.5 -58.5q80 0 218 24l-9 -147q-135 -35 -271 -35q-198 0 -281 87t-83 279q0 55 6 121h-141l44 118h112l6 45q6 40 10 60h-127l46 119h105q58 251 172 361.5
t336 110.5q143 0 262 -34l-39 -148q-118 24 -210 24q-79 0 -136.5 -21t-96 -64t-61.5 -97t-41 -132h416z" />
    <glyph glyph-name="sterling.onum_tnum" horiz-adv-x="1112" 
d="M326 571h-185l22 145h165q4 122 20 222q13 82 46 144t78 100.5t106.5 62.5t125 33t140.5 9q110 0 175 -34t126 -105l-113 -114q-93 93 -207 93q-148 0 -213 -54t-84 -179q-10 -67 -14 -178h284l-23 -145h-266q-3 -62 -13 -121q-21 -129 -113 -288h282q161 0 301 22
l-8 -150q-170 -34 -418 -34h-306q-47 0 -67.5 21t-14.5 54q3 20 25.5 57.5t48.5 76.5t52.5 101t36.5 125q9 61 11 136z" />
    <glyph glyph-name="yen.onum_tnum" horiz-adv-x="1112" 
d="M454 1274l161 -581l353 581h184l-385 -628h153l-20 -127h-211l-16 -25l-14 -87h222l-20 -126h-221l-45 -281h-184l45 281h-218l20 126h218l14 87l-8 25h-206l20 127h149l-182 628h191z" />
    <glyph glyph-name="parenleft.case" horiz-adv-x="609" 
d="M447 -121l-120 -89q-203 218 -203 609q0 146 27 314q98 627 468 923l92 -89q-280 -245 -372 -834q-29 -183 -29 -336q0 -332 137 -498z" />
    <glyph glyph-name="parenright.case" horiz-adv-x="608" 
d="M252 1547l119 89q204 -219 204 -609q0 -139 -28 -314q-100 -628 -468 -923l-91 89q276 243 371 834q29 183 29 337q0 332 -136 497z" />
    <glyph glyph-name="bracketleft.case" horiz-adv-x="612" 
d="M504 1478l-240 -1522h205l-22 -147h-379l287 1814h380l-23 -145h-208z" />
    <glyph glyph-name="bracketright.case" horiz-adv-x="612" 
d="M232 1478l23 145h380l-287 -1814h-378l23 147h205l241 1522h-207z" />
    <glyph glyph-name="braceleft.case" horiz-adv-x="616" 
d="M380 345l-17 -108q-11 -72 -11 -110q0 -74 30.5 -118.5t104.5 -55.5l-36 -132q-137 17 -204 77t-67 195q0 55 10 115q26 161 26 254q0 89 -25.5 134t-84.5 55l21 132q93 15 140.5 114t83.5 329q16 103 48.5 174.5t83 114.5t110 65t141.5 32l-5 -131q-54 -8 -92 -32.5
t-61.5 -65t-37 -83.5t-23.5 -104l-18 -108q-7 -43 -12.5 -70t-16.5 -70.5t-25 -74t-33.5 -63.5t-48 -56.5t-62.5 -37.5q95 -51 95 -218q0 -59 -14 -153z" />
    <glyph glyph-name="braceright.case" horiz-adv-x="616" 
d="M-27 -179l5 132q54 8 92.5 32t62 64t37 83.5t22.5 104.5l17 108q7 45 15 82t24 85t36 84t52 69t71 51q-97 46 -97 205q0 57 17 167l17 108q11 72 11 110q0 74 -31 118.5t-104 56.5l36 131q136 -17 203.5 -77.5t67.5 -194.5q0 -54 -10 -114q-27 -167 -27 -255
q0 -89 26 -133.5t85 -54.5l-22 -132q-93 -16 -139.5 -114t-83.5 -329q-16 -103 -48.5 -175t-83 -115t-110 -65t-141.5 -32z" />
    <glyph glyph-name="questiondown.case" horiz-adv-x="1024" 
d="M612 1007h160l-24 -179q-9 -67 -38 -108t-69 -58t-87 -25.5t-94.5 -19.5t-88.5 -31t-72.5 -67.5t-43.5 -122.5q-7 -42 -7 -81q0 -98 67.5 -133.5t242.5 -35.5q161 0 319 30l8 -157q-194 -41 -390 -41q-88 0 -151 6t-123.5 25t-97.5 51.5t-59 87t-22 130.5q0 54 10 114
q14 89 44 155t67.5 101.5t82 60t89 34t87 20.5t77 21.5t59 36t31.5 64.5zM721 1191q-52 0 -74.5 18t-22.5 60q0 17 5 47q11 70 39 96.5t92 26.5q53 0 74.5 -17t21.5 -59q0 -23 -4 -47q-11 -70 -39.5 -97.5t-91.5 -27.5z" />
    <glyph glyph-name="exclamdown.case" horiz-adv-x="500" 
d="M355 1191q-52 0 -74 17.5t-22 60.5q0 23 4 47q11 70 38.5 96.5t92.5 26.5q52 0 74 -17.5t22 -58.5q0 -23 -4 -47q-11 -70 -39.5 -97.5t-91.5 -27.5zM55 -7l192 1014h159l-129 -1014h-222z" />
    <glyph glyph-name="at.case" horiz-adv-x="1829" 
d="M339 716q-13 -81 -13 -153q0 -229 137.5 -326.5t406.5 -97.5q153 0 269 29t209 95t152.5 179t84.5 274q14 93 14 166q0 29 -1 43l185 53q3 -35 3 -74q0 -79 -16 -188q-60 -380 -292 -555.5t-632 -175.5q-351 0 -529.5 133t-178.5 418q0 76 16 180q31 197 107.5 338.5
t198 227t278.5 125t360 39.5q333 0 333 -260q0 -34 -6 -75l-70 -442q-13 -81 -38 -193q-82 -43 -193.5 -67.5t-228.5 -24.5q-181 0 -265 62t-84 189q0 37 6 81q44 280 330 334q79 15 357 30q7 51 7 76q0 76 -41.5 106.5t-140.5 30.5q-155 0 -272 -28t-212 -93.5t-155 -178.5
t-86 -277zM1184 734l34 215q-202 -5 -287 -27q-93 -24 -137 -67t-58 -135q-5 -45 -5 -49q0 -79 51.5 -110t158.5 -31q45 0 106.5 12.5t105.5 31.5q16 64 31 160z" />
    <glyph glyph-name="guilsinglleft.case" horiz-adv-x="624" 
d="M314 715l194 -411h-182l-220 411l350 412h181z" />
    <glyph glyph-name="guilsinglright.case" horiz-adv-x="624" 
d="M602 715l-350 -411h-182l324 411l-194 412h182z" />
    <glyph glyph-name="guillemotleft.case" horiz-adv-x="1023" 
d="M314 715l194 -411h-182l-220 411l350 412h182zM714 715l194 -411h-182l-220 411l350 412h181z" />
    <glyph glyph-name="guillemotright.case" horiz-adv-x="1023" 
d="M602 715l-351 -411h-181l324 411l-194 412h182zM1002 715l-351 -411h-182l325 411l-195 412h183z" />
    <glyph glyph-name="hyphen.case" horiz-adv-x="790" 
d="M167 635l25 161h518l-26 -161h-517z" />
    <glyph glyph-name="endash.case" horiz-adv-x="1241" 
d="M167 640l23 151h968l-24 -151h-967z" />
    <glyph glyph-name="emdash.case" horiz-adv-x="2176" 
d="M167 640l23 151h1903l-24 -151h-1902z" />
    <glyph glyph-name="periodcentered.case" horiz-adv-x="486" 
d="M405 762q0 -23 -4 -47q-11 -70 -38.5 -96.5t-92.5 -26.5q-53 0 -75 17t-22 59q0 17 5 47q11 70 39.5 97.5t91.5 27.5q52 0 74 -17.5t22 -60.5z" />
    </font>
</defs>
</svg>
