<?xml version="1.0" standalone="no"?>
<!DOCTYPE svg PUBLIC "-//W3C//DTD SVG 1.1//EN" "http://www.w3.org/Graphics/SVG/1.1/DTD/svg11.dtd" >
<svg xmlns="http://www.w3.org/2000/svg" xmlns:xlink="http://www.w3.org/1999/xlink" version="1.1">
<metadata>
Created by FontForge 20170731 at Tue Oct 13 00:50:27 2020
 By Aleksey,,,
Copyright (c) 2011-2012 Durotype, www.durotype.com. All rights reserved.
</metadata>
<defs>
<font id="Flexo-Thin" horiz-adv-x="1210" >
  <font-face 
    font-family="Flexo Thin"
    font-weight="250"
    font-stretch="normal"
    units-per-em="2048"
    panose-1="0 0 0 0 0 0 0 0 0 0"
    ascent="1618"
    descent="-430"
    x-height="1094"
    cap-height="1432"
    bbox="-313 -538 2372 1946"
    underline-thickness="102"
    underline-position="-345"
    unicode-range="U+0020-FB04"
  />
<missing-glyph horiz-adv-x="1353" 
d="M1188 0h-1022v1475h1022v-1475zM616 737l-347 537v-1074zM1024 105l-347 538l-348 -538h695zM1024 1369h-695l348 -537zM1086 1274l-347 -537l347 -537v1074z" />
    <glyph glyph-name="f_f" unicode="ff" horiz-adv-x="1281" 
d="M347 0h-84v1019h-202v75h202v128q0 154 75 232t221 78q27 0 55 -5l-8 -70h-30q-112 0 -170.5 -53t-58.5 -176v-134h543v128q0 153 75 231.5t222 78.5q26 0 54 -5l-7 -70h-30q-112 0 -171 -53t-59 -176v-134h257v-75h-257v-1019h-84v1019h-543v-1019z" />
    <glyph glyph-name="fi" unicode="fi" horiz-adv-x="1108" 
d="M347 1094h603v-1094h-84v1019h-519v-1019h-84v1019h-202v75h202v128q0 154 75 232t221 78q27 0 55 -5l-8 -70h-30q-112 0 -170.5 -53t-58.5 -176v-134zM908 1365q-30 0 -40 17.5t-10 64.5q0 46 10.5 65.5t39.5 19.5t40 -19.5t11 -65.5t-10.5 -64t-40.5 -18z" />
    <glyph glyph-name="fl" unicode="fl" horiz-adv-x="1128" 
d="M604 1094v-75h-257v-1019h-84v1019h-202v75h202v128q0 154 75 232t221 78q175 0 390 -15v-1223q0 -187 94 -301l-67 -42q-111 126 -111 332v1174h-289q-112 0 -170.5 -53t-58.5 -176v-134h257z" />
    <glyph glyph-name="f_f_i" unicode="ffi" horiz-adv-x="1735" 
d="M974 1094h603v-1094h-83v1019h-520v-1019h-84v1019h-543v-1019h-84v1019h-202v75h202v128q0 154 75 232t221 78q27 0 55 -5l-8 -70h-30q-112 0 -170.5 -53t-58.5 -176v-134h543v128q0 153 75 231.5t222 78.5q26 0 54 -5l-7 -70h-30q-112 0 -171 -53t-59 -176v-134z
M1586 1447q0 -47 -10 -64.5t-40 -17.5t-40 17.5t-10 64.5q0 46 10.5 65.5t39.5 19.5t39.5 -19.5t10.5 -65.5z" />
    <glyph glyph-name="f_f_l" unicode="ffl" horiz-adv-x="1756" 
d="M1231 1094v-75h-257v-1019h-84v1019h-543v-1019h-84v1019h-202v75h202v128q0 154 75 232t221 78q27 0 55 -5l-8 -70h-30q-112 0 -170.5 -53t-58.5 -176v-134h543v128q0 153 75 231.5t222 78.5q174 0 389 -15v-1223q0 -187 94 -301l-67 -42q-110 125 -110 332v1174h-289
q-112 0 -171 -53t-59 -176v-134h257z" />
    <glyph glyph-name="f_b" unicode="fb" horiz-adv-x="1874" 
d="M347 1094h257v-75h-257v-1019h-84v1019h-202v75h202v128q0 154 75 232t221 78q175 0 390 -15v-457q186 49 351 49q163 0 259 -54t141 -176.5t45 -331.5q0 -160 -27 -267t-86.5 -173t-148 -94t-218.5 -28q-232 0 -397 82q-3 84 -3 176v1214h-289q-112 0 -170.5 -53
t-58.5 -176v-134zM949 316q0 -75 2 -191q139 -60 314 -60q144 0 228 44.5t125.5 150t41.5 287.5q0 144 -18.5 233.5t-66 147t-122.5 79.5t-195 22q-154 0 -309 -51v-662z" />
    <glyph glyph-name="f_f_b" unicode="ffb" horiz-adv-x="2502" 
d="M1493 1457h-289q-112 0 -171 -53t-59 -176v-134h257v-75h-257v-1019h-84v1019h-543v-1019h-84v1019h-202v75h202v128q0 154 75 232t221 78q27 0 55 -5l-8 -70h-30q-112 0 -170.5 -53t-58.5 -176v-134h543v128q0 153 75 231.5t222 78.5q174 0 389 -15v-457q186 49 352 49
q163 0 258.5 -54t140.5 -176t45 -332q0 -160 -27 -267t-86.5 -173t-148 -94t-218.5 -28q-231 0 -396 82q-3 84 -3 176v1214zM1576 316q0 -17 3 -191q139 -60 313 -60q144 0 228.5 44.5t126 150t41.5 287.5q0 144 -18.5 233.5t-66 147t-123 79.5t-195.5 22q-154 0 -309 -51
v-662z" />
    <glyph glyph-name="f_f_h" unicode="ffh" horiz-adv-x="2505" 
d="M61 1094h202v128q0 154 75 232t221 78q27 0 55 -5l-8 -70h-30q-112 0 -170.5 -53t-58.5 -176v-134h543v128q0 153 75 231.5t222 78.5q174 0 389 -15v-457q183 48 355 49q107 1 183 -16.5t121.5 -47t71.5 -80.5t34.5 -104.5t8.5 -130.5v-730h-83v697q0 75 -7.5 124t-29 92
t-62.5 66.5t-106 36.5t-161 13q-164 0 -325 -51v-978h-83v1457h-289q-112 0 -171 -53t-59 -176v-134h257v-75h-257v-1019h-84v1019h-543v-1019h-84v1019h-202v75z" />
    <glyph glyph-name="f_f_j" unicode="ffj" horiz-adv-x="1786" 
d="M61 1019v75h202v128q0 154 75 232t221 78q27 0 55 -5l-8 -70h-30q-112 0 -170.5 -53t-58.5 -176v-134h543v128q0 153 75 231.5t222 78.5q26 0 54 -5l-7 -70h-30q-112 0 -171 -53t-59 -176v-134h651v-1116q0 -210 -76 -303t-234 -93q-14 0 -21 1l7 68q42 2 73 9t64.5 26.5
t54.5 51t34.5 85.5t13.5 128v1068h-567v-1019h-84v1019h-543v-1019h-84v1019h-202zM1583 1532q29 0 39.5 -19.5t10.5 -65.5q0 -47 -10 -64.5t-40 -17.5t-40 17.5t-10 64.5q0 46 10.5 65.5t39.5 19.5z" />
    <glyph glyph-name="f_f_k" unicode="ffk" horiz-adv-x="2303" 
d="M347 0h-84v1019h-202v75h202v128q0 154 75 232t221 78q27 0 55 -5l-8 -70h-30q-112 0 -170.5 -53t-58.5 -176v-134h543v128q0 153 75 231.5t222 78.5q174 0 389 -15v-941l525 518h115l-560 -553l597 -541h-126l-551 500v-500h-83v1457h-289q-112 0 -171 -53t-59 -176
v-134h257v-75h-257v-1019h-84v1019h-543v-1019z" />
    <glyph glyph-name="f_h" unicode="fh" horiz-adv-x="1877" 
d="M1723 730v-730h-84v697q0 76 -7.5 124.5t-29 91.5t-62 66.5t-105.5 36.5t-161 13q-164 0 -325 -51v-978h-84v1457h-289q-112 0 -170.5 -53t-58.5 -176v-134h257v-75h-257v-1019h-84v1019h-202v75h202v128q0 154 75 232t221 78q175 0 390 -15v-457q183 48 355 49
q107 1 183 -16.5t121.5 -47t71.5 -80.5t34.5 -104.5t8.5 -130.5z" />
    <glyph glyph-name="f_j" unicode="fj" horiz-adv-x="1158" 
d="M263 1094v128q0 154 75 232t221 78q27 0 55 -5l-8 -70h-30q-112 0 -170.5 -53t-58.5 -176v-134h650v-1116q0 -210 -75.5 -303t-233.5 -93q-14 0 -21 1l7 68q42 2 73 9t64.5 26.5t54.5 51t34.5 85.5t13.5 128v1068h-567v-1019h-84v1019h-202v75h202zM955 1532
q29 0 40 -19.5t11 -65.5t-10.5 -64t-40.5 -18t-39.5 17.5t-9.5 64.5t10.5 66t38.5 19z" />
    <glyph glyph-name="f_k" unicode="fk" horiz-adv-x="1676" 
d="M61 1094h202v128q0 154 75 232t221 78q175 0 390 -15v-941l525 518h114l-559 -553l596 -541h-126l-550 500v-500h-84v1457h-289q-112 0 -170.5 -53t-58.5 -176v-134h257v-75h-257v-1019h-84v1019h-202v75z" />
    <glyph glyph-name=".notdef" horiz-adv-x="1353" 
d="M1188 0h-1022v1475h1022v-1475zM616 737l-347 537v-1074zM1024 105l-347 538l-348 -538h695zM1024 1369h-695l348 -537zM1086 1274l-347 -537l347 -537v1074z" />
    <glyph glyph-name=".null" horiz-adv-x="0" 
 />
    <glyph glyph-name="nonmarkingreturn" horiz-adv-x="682" 
 />
    <glyph glyph-name="space" unicode=" " horiz-adv-x="645" 
 />
    <glyph glyph-name="exclam" unicode="!" horiz-adv-x="426" 
d="M264 67q0 -46 -10.5 -64t-40.5 -18t-40 17.5t-10 64.5q0 46 10.5 65.5t39.5 19.5t40 -19.5t11 -65.5zM251 417h-76l-15 1015h107z" />
    <glyph glyph-name="quotedbl" unicode="&#x22;" horiz-adv-x="634" 
d="M235 966h-76l-16 551h107zM476 966h-77l-15 551h107z" />
    <glyph glyph-name="numbersign" unicode="#" horiz-adv-x="1137" 
d="M1040 912h-198l-51 -390h192v-78h-203l-59 -444h-83l59 444h-313l-59 -444h-83l59 444h-204v78h215l52 390h-213v78h224q10 76 30 224t29 218h82l-59 -442h314q10 80 30 229t28 213h83l-59 -442h187v-78zM394 522h314l51 390h-313z" />
    <glyph glyph-name="dollar" unicode="$" horiz-adv-x="1007" 
d="M532 -10v-197h-79v193q-3 0 -10 -0.5t-10 -0.5q-190 0 -331 28l9 74q152 -24 316 -24q93 0 160.5 12.5t123.5 44t85 90.5t29 146q0 69 -20 118t-67 86t-106 62t-156 54q-60 18 -99.5 31.5t-84 32.5t-73 38t-56 46t-42.5 58.5t-24.5 73t-9.5 91.5q0 177 95 259.5t286 94.5
v195h78v-193q163 0 328 -25l-8 -73q-137 20 -261 20q-107 0 -181 -10.5t-134 -37t-89.5 -77t-29.5 -125.5q0 -52 5 -86.5t21 -65.5t38 -51.5t65 -42t92.5 -39t129.5 -40.5q68 -20 119.5 -40.5t105.5 -53t88 -71.5t56 -95.5t22 -125.5q0 -179 -95.5 -268.5t-285.5 -105.5z
" />
    <glyph glyph-name="percent" unicode="%" horiz-adv-x="1636" 
d="M113 1020q0 112 11.5 185t43 128.5t89 80.5t146.5 25t147 -25t89.5 -80.5t43 -128.5t11.5 -185t-12 -185t-43 -129t-89 -81t-147 -25t-146.5 25t-89 81t-43 129t-11.5 185zM629 1020q0 46 -1 76.5t-4 68t-10 62t-18 51.5t-27.5 43.5t-39.5 30.5t-54.5 20.5t-71.5 6.5
t-71.5 -6.5t-54.5 -20.5t-39.5 -30.5t-27 -43.5t-17 -51t-9.5 -62.5t-4 -68t-1 -76.5q0 -46 1 -76.5t4 -68.5t9.5 -62t17 -51t27.5 -43.5t39.5 -30.5t54 -20.5t71.5 -6.5t71.5 6.5t54.5 20.5t39.5 30.5t27.5 43.5t18 51.5t10 62t4 68t1 76.5zM932 412q0 112 11.5 185
t43 128.5t89 80.5t146.5 25t147 -25t89.5 -80.5t43 -128.5t11.5 -185t-11.5 -185t-43 -128.5t-89.5 -80.5t-147 -25t-146.5 25t-89 80.5t-43 128.5t-11.5 185zM1447 412q0 46 -1 76.5t-4 68t-9.5 62t-17.5 51.5t-28 43.5t-39.5 30.5t-54 20.5t-71.5 6.5t-71.5 -6.5
t-54 -20.5t-39.5 -30.5t-27.5 -43.5t-17 -51t-9.5 -62t-4 -68.5t-1 -76.5q0 -41 0.5 -68.5t3 -62t7 -57t12.5 -49t19.5 -43t28.5 -33t38.5 -26t50.5 -15t64 -5.5q40 0 71.5 6.5t54 20.5t39.5 30.5t28 43t17.5 51t9.5 62.5t4 68.5t1 76.5zM347 -29l840 1490h89l-841 -1490
h-88z" />
    <glyph glyph-name="ampersand" unicode="&#x26;" horiz-adv-x="1339" 
d="M108 374q0 62 19.5 116.5t49.5 95t78 79t92 65t105 57.5q-36 42 -61 74.5t-55 80.5t-46 97.5t-16 98.5q0 83 26.5 144t74.5 96t108 51.5t134 16.5q67 0 123.5 -15.5t103.5 -48t74 -90t27 -134.5q0 -45 -11.5 -85.5t-28 -71t-47 -61.5t-56.5 -51t-70 -45.5t-72.5 -39.5
t-78.5 -38l414 -486q113 158 134 393l83 -4q-31 -291 -158 -458l180 -211h-111l-125 146q-166 -161 -445 -161q-226 0 -335.5 96.5t-109.5 292.5zM858 1136q0 126 -64.5 179t-183.5 53q-111 0 -180 -57t-69 -180q0 -22 5.5 -46t11.5 -42.5t20.5 -43.5t22.5 -38.5t28.5 -39
t27 -33.5t29 -33.5t24.5 -28.5q48 23 73 35.5t66 35.5t63 39t50 40.5t42 47t24 52t10 60.5zM940 214l-437 514q-69 -34 -117 -65t-94 -76t-69.5 -103t-23.5 -129q0 -69 22.5 -121.5t58.5 -84.5t87.5 -51.5t102 -27t109.5 -7.5q215 0 361 151z" />
    <glyph glyph-name="quotesingle" unicode="'" horiz-adv-x="393" 
d="M143 1517h107l-15 -551h-76z" />
    <glyph glyph-name="parenleft" unicode="(" horiz-adv-x="591" 
d="M437 1493l56 -47q-80 -78 -136.5 -188t-84.5 -231.5t-39.5 -231.5t-11.5 -225t11.5 -225t39.5 -231.5t84.5 -231.5t136.5 -188l-56 -47q-304 305 -304 923t304 923z" />
    <glyph glyph-name="parenright" unicode=")" horiz-adv-x="591" 
d="M98 1446l56 47q304 -305 304 -923t-304 -923l-56 47q80 78 136.5 188t84.5 231.5t39.5 231.5t11.5 225t-11.5 225t-39.5 231.5t-84.5 231.5t-136.5 188z" />
    <glyph glyph-name="asterisk" unicode="*" horiz-adv-x="979" 
d="M657 724l-167 284l-164 -285l-64 36l170 292h-340v69h338l-167 290l64 36l163 -285l168 285l60 -36l-166 -290h336v-69h-338l169 -292z" />
    <glyph glyph-name="plus" unicode="+" horiz-adv-x="1201" 
d="M1091 643v-81h-447v-450h-87v450h-445v81h445v448h87v-448h447z" />
    <glyph glyph-name="comma" unicode="," horiz-adv-x="417" 
d="M205 245h107l-176 -514h-76z" />
    <glyph glyph-name="hyphen" unicode="-" horiz-adv-x="836" 
d="M680 504h-522v80h522v-80z" />
    <glyph glyph-name="period" unicode="." horiz-adv-x="397" 
d="M198 152q29 0 40 -19.5t11 -65.5t-10.5 -64t-40.5 -18t-39.5 17.5t-9.5 64.5t10.5 66t38.5 19z" />
    <glyph glyph-name="slash" unicode="/" horiz-adv-x="812" 
d="M734 1482l-581 -1647h-90l580 1647h91z" />
    <glyph glyph-name="zero" unicode="0" horiz-adv-x="1281" 
d="M1127 694q0 -151 -12 -257.5t-43 -196.5t-86 -143.5t-140.5 -82.5t-205.5 -29t-205 29t-139.5 82.5t-85.5 143.5t-43 196.5t-12 257.5t12 257.5t43 196.5t85.5 143.5t139.5 82.5t205 29t205.5 -29t140.5 -82.5t86 -143.5t43 -196.5t12 -257.5zM241 694q0 -94 2 -153
t10.5 -133t24.5 -118.5t45 -92.5t71 -73.5t104 -42t142 -16.5q63 0 114.5 10t90.5 26t69 45t51 58.5t35.5 75t22.5 86t12.5 100.5t5.5 108.5t1 119.5q0 64 -1 108.5t-4 99t-9.5 92.5t-17 81.5t-26.5 73t-37.5 60t-51 50t-67 35.5t-84.5 23t-104 7q-80 0 -142 -16.5t-104 -42
t-71 -73.5t-45 -93t-24.5 -119t-10.5 -133t-2 -153z" />
    <glyph glyph-name="one" unicode="1" horiz-adv-x="683" 
d="M430 1389h68v-1389h-84v1284q-193 -58 -365 -87l-5 79q208 35 386 113z" />
    <glyph glyph-name="two" unicode="2" horiz-adv-x="1058" 
d="M955 0h-874q18 105 33.5 174.5t38.5 138t50.5 113.5t69 88.5t95 76.5t127.5 64q376 158 376 403q0 144 -96.5 204t-317.5 60q-163 0 -348 -30l-9 75q209 36 395 36q461 0 461 -313q0 -95 -28 -172.5t-83 -136.5t-125 -104t-165 -85q-78 -33 -136 -72t-96.5 -82
t-65 -100.5t-41.5 -117t-27 -140.5h766v-80z" />
    <glyph glyph-name="three" unicode="3" horiz-adv-x="1072" 
d="M435 1403q81 0 145.5 -7t128.5 -27.5t106.5 -54t69 -91t26.5 -135.5q0 -277 -230 -356v-1q43 -9 86 -34.5t82 -66t63 -102t24 -133.5q0 -116 -34.5 -196.5t-103.5 -127t-159.5 -66.5t-214.5 -20q-206 0 -365 33l11 78q221 -29 315 -29q242 0 353 70.5t111 247.5
q0 126 -80 203.5t-209 89.5q-76 7 -193 7q-51 0 -75 -1v74q140 3 268 22q122 19 193.5 93.5t71.5 179.5q0 53 -10.5 93.5t-28.5 69t-48.5 48t-62 31t-79 17.5t-89.5 8t-103 2q-136 0 -321 -28l-10 76q179 33 362 33z" />
    <glyph glyph-name="four" unicode="4" horiz-adv-x="1212" 
d="M826 0v347h-659q-96 0 -96 75q0 38 62 118l611 789q57 74 112 74q56 0 56 -74v-904h201v-78h-201v-347h-86zM826 1298l-676 -873h676v873z" />
    <glyph glyph-name="five" unicode="5" horiz-adv-x="1088" 
d="M100 20l11 78q158 -29 324 -29q125 0 208.5 17t141 58.5t83 110t25.5 172.5q0 79 -24 135.5t-65.5 90t-111.5 52.5t-145.5 25.5t-184.5 6.5q-142 0 -234 -7l45 659h765v-80h-685l-35 -498q105 7 185 7q78 0 138 -3.5t122.5 -14.5t107.5 -29t86 -48.5t66.5 -72
t40.5 -100.5t15 -133q0 -230 -123.5 -331t-371.5 -101q-195 0 -384 35z" />
    <glyph glyph-name="six" unicode="6" horiz-adv-x="1233" 
d="M653 834q92 0 161.5 -11t129.5 -38.5t98 -74.5t59.5 -120t21.5 -173q0 -102 -23.5 -178t-65.5 -124t-107 -77.5t-139 -41t-171 -11.5q-113 0 -196.5 26t-136 72t-84 118.5t-43.5 155t-12 192.5q0 169 13 290t47.5 220.5t89.5 161.5t143.5 104.5t205 60t278.5 17.5
q24 0 85 -1l8 -77q-238 -7 -312 -15q-219 -26 -325 -130q-123 -122 -137 -379q270 33 412 33zM1037 420q0 105 -25.5 171.5t-82.5 102t-130.5 48t-188.5 12.5q-100 0 -375 -36q-5 -85 -5 -164v-35q0 -54 3.5 -97.5t13.5 -92t27 -85.5t46 -72t68.5 -57.5t96 -36t126.5 -13.5
q235 0 330.5 81t95.5 274z" />
    <glyph glyph-name="seven" unicode="7" horiz-adv-x="1016" 
d="M248 0l612 1311h-817v78h817q90 0 90 -56q0 -21 -14 -49l-594 -1284h-94z" />
    <glyph glyph-name="eight" unicode="8" horiz-adv-x="1243" 
d="M1110 363q0 -90 -26 -157.5t-69.5 -109t-108 -67t-132.5 -35t-153 -9.5q-109 0 -194 19t-152.5 61t-104 118t-36.5 183q0 279 253 357q-125 51 -177 135t-52 212q0 160 114.5 246.5t348.5 86.5q229 0 347 -87.5t118 -245.5q0 -130 -53 -214t-180 -135q257 -80 257 -358z
M608 678q-91 -9 -155.5 -26t-120.5 -50t-84.5 -90.5t-28.5 -140.5q0 -72 21.5 -126t57 -87.5t88.5 -54.5t109.5 -29t125.5 -8q72 0 128 7t110 27t89 53.5t56 88.5t21 129q0 81 -31 139.5t-89.5 92.5t-130.5 51.5t-166 23.5zM633 756q62 8 111.5 19.5t99 34t83 53t54 77.5
t20.5 106q0 81 -30 137.5t-86 86t-119.5 42t-144.5 12.5t-144.5 -12t-118.5 -41.5t-85 -86t-30 -138.5q0 -73 31 -128t87 -87.5t122.5 -50.5t149.5 -24z" />
    <glyph glyph-name="nine" unicode="9" horiz-adv-x="1228" 
d="M571 554q-92 0 -161.5 11t-129.5 38.5t-98 74.5t-59.5 120t-21.5 173q0 102 23.5 178t65 124t106.5 77.5t139 41t171 11.5q113 0 196.5 -26t136 -72t84 -118.5t43.5 -155t12 -192.5q0 -169 -13 -289.5t-47.5 -220.5t-89.5 -162t-143 -104.5t-204.5 -60t-278.5 -17.5
q-25 0 -86 1l-8 77q238 7 312 15q219 26 325 130q123 123 137 379q-270 -33 -411 -33zM186 968q0 -84 18 -143t50 -96t87 -58t118 -28.5t155 -7.5q108 0 375 35q4 68 4 164v35q0 54 -3.5 97.5t-13.5 92t-27 86t-46 72.5t-68.5 57.5t-96 36t-126.5 13.5q-235 0 -330.5 -81.5
t-95.5 -274.5z" />
    <glyph glyph-name="colon" unicode=":" horiz-adv-x="427" 
d="M213 152q29 0 40 -19.5t11 -65.5t-10.5 -64t-40.5 -18t-40 17.5t-10 64.5q0 46 10.5 65.5t39.5 19.5zM213 952q29 0 40 -19.5t11 -65.5t-10.5 -64t-40.5 -18t-40 17.5t-10 64.5q0 46 10.5 65.5t39.5 19.5z" />
    <glyph glyph-name="semicolon" unicode=";" horiz-adv-x="482" 
d="M234 867q0 46 10.5 65.5t39.5 19.5t39.5 -19.5t10.5 -65.5q0 -47 -10 -64.5t-40 -17.5t-40 17.5t-10 64.5zM336 245l-176 -514h-76l145 514h107z" />
    <glyph glyph-name="less" unicode="&#x3c;" horiz-adv-x="1197" 
d="M104 557v88l939 471v-94l-853 -420l853 -421v-95z" />
    <glyph glyph-name="equal" unicode="=" horiz-adv-x="1319" 
d="M170 358v81h979v-81h-979zM170 764v81h979v-81h-979z" />
    <glyph glyph-name="greater" unicode="&#x3e;" horiz-adv-x="1197" 
d="M154 1116l940 -471v-88l-940 -471v95l853 421l-853 420v94z" />
    <glyph glyph-name="question" unicode="?" horiz-adv-x="1000" 
d="M410 529v-112h-78v118q0 6 -0.5 25t-0.5 27q0 51 21 85t55 49.5t78 28t89.5 20t89.5 26t78 44.5t55 77.5t21 124.5q0 81 -13 134.5t-41.5 92.5t-83 59.5t-128.5 29.5t-186 9q-123 0 -292 -29l-16 76q166 32 350 32q69 0 122 -3.5t107 -14t93 -28.5t74 -47.5t56 -70.5
t33.5 -98.5t12.5 -129.5q0 -83 -17 -144.5t-45.5 -97t-65.5 -59t-78 -34.5t-82 -19.5t-78.5 -18t-66 -26t-46 -48t-17.5 -78.5zM422 67q0 -46 -10.5 -64t-40.5 -18t-40 17.5t-10 64.5q0 46 10.5 65.5t39.5 19.5t40 -19.5t11 -65.5z" />
    <glyph glyph-name="at" unicode="@" horiz-adv-x="1930" 
d="M1704 750l82 24q14 -97 14 -227q0 -380 -210.5 -555t-624.5 -175q-415 0 -623.5 174.5t-208.5 555.5q0 197 56 338.5t167.5 227.5t267 125.5t365.5 39.5q359 0 359 -313v-470q0 -64 -4 -176q-185 -81 -387 -81q-200 0 -291 75t-91 234q0 125 67.5 206.5t188.5 107.5
q106 23 433 33q0 174 -62 239t-224 65q-147 0 -261.5 -20t-210 -66.5t-158 -121t-96.5 -186t-34 -257.5q0 -180 50 -307t149 -201.5t233 -108t315 -33.5t315.5 33.5t234.5 108t150.5 201.5t50.5 307q0 116 -12 203zM1264 814q-306 -6 -409 -29q-93 -21 -144.5 -81.5
t-51.5 -152.5q0 -130 72.5 -181.5t225.5 -51.5q142 0 304 59q3 174 3 191v246z" />
    <glyph glyph-name="A" unicode="A" horiz-adv-x="1333" 
d="M157 0h-88l543 1387q12 31 25 45t32 14q36 0 59 -59l537 -1387h-93l-169 436h-675zM358 513h615l-306 790z" />
    <glyph glyph-name="B" unicode="B" horiz-adv-x="1313" 
d="M602 1446q91 0 162.5 -7t146.5 -28.5t124.5 -58t81 -100t31.5 -150.5q0 -148 -51.5 -239.5t-160.5 -130.5q55 -18 96 -45t74.5 -71.5t50.5 -114t17 -161.5q0 -87 -28.5 -151.5t-76 -103t-120 -61.5t-147.5 -31t-172 -8q-238 0 -449 33v1400q195 28 421 28zM612 694h-345
v-608q192 -21 352 -21q78 0 133.5 4t112 15.5t94 33t68 55.5t44.5 85t14 119q0 80 -24 137.5t-63 92t-102.5 54.5t-129 26.5t-154.5 6.5zM267 771h345q88 0 153 7t123.5 26.5t94.5 53t57 88t21 129.5t-24.5 128.5t-63 85t-101 49.5t-124 23.5t-146.5 5.5q-137 0 -335 -23
v-573z" />
    <glyph glyph-name="C" unicode="C" horiz-adv-x="1040" 
d="M1011 1421l-9 -76q-152 22 -227 22q-80 0 -145.5 -8t-117.5 -22t-92 -39t-69.5 -54t-50 -72t-34 -87.5t-21 -105.5t-10 -122t-2.5 -141q0 -90 4 -158t14.5 -133.5t29 -112.5t47.5 -89.5t69.5 -70.5t95 -48.5t124.5 -29.5t158 -9q67 0 227 21l9 -73q-156 -28 -301 -28
q-114 0 -200 18.5t-149 59t-104.5 97t-66.5 141.5t-35 184t-10 231t10 231t35 184t66.5 141.5t104.5 97t149 58.5t200 18q153 0 301 -25z" />
    <glyph glyph-name="D" unicode="D" horiz-adv-x="1375" 
d="M182 16v1402q195 28 418 28q112 0 199 -15.5t152 -43.5t111.5 -75.5t76 -103.5t47 -135t24 -162.5t6.5 -194.5q0 -130 -9.5 -224t-34 -181t-68 -144t-111.5 -100t-165.5 -62.5t-227.5 -19.5q-213 0 -418 31zM268 1346v-1258q172 -23 289 -23q120 0 211 18.5t151.5 43.5
t101.5 79.5t62 96t31.5 124.5t12 134.5t1.5 154.5t-1.5 154.5t-12 134.5t-31.5 124.5t-62 96t-101.5 79.5t-151.5 43.5t-211 18.5q-104 0 -289 -21z" />
    <glyph glyph-name="E" unicode="E" horiz-adv-x="1073" 
d="M177 295v839q0 60 14 107t35 78.5t58 53.5t71 34t86.5 18.5t92.5 8t100 1.5q154 0 332 -7v-72h-339q-82 0 -136 -4.5t-97 -19t-66.5 -35t-38.5 -58.5t-20 -83t-5 -114v-273h671v-78h-671v-303q0 -69 5 -114t20 -82.5t38.5 -58t66.5 -34.5t97 -18.5t136 -4.5h339v-75
q-120 -5 -332 -5q-46 0 -77.5 0.5t-74 4t-71.5 9t-63.5 16.5t-57.5 26t-46 37.5t-36.5 51.5t-22 68t-8.5 86z" />
    <glyph glyph-name="F" unicode="F" horiz-adv-x="1061" 
d="M179 0v1134q0 60 14 107t35 78.5t58 53.5t71.5 34t87 18.5t92.5 8t100 1.5q205 0 332 -7v-72h-339q-82 0 -136 -5t-97 -19t-67 -34.5t-39 -58.5t-20 -83t-5 -114v-273h672v-78h-672v-691h-87z" />
    <glyph glyph-name="G" unicode="G" horiz-adv-x="1295" 
d="M1113 1419l-8 -78q-193 25 -326 25q-90 0 -161.5 -9t-126.5 -29.5t-95 -47.5t-68.5 -70t-46 -89t-27.5 -113t-13.5 -134t-3.5 -158q0 -79 3 -140t10.5 -122t20.5 -105.5t34 -87t51 -72t70 -54.5t91.5 -39.5t116.5 -22.5t145 -8q60 0 105.5 5.5t77 14t53 24.5t33.5 31.5
t18.5 40.5t8 45t1.5 52v370h-272v77h359v-523q0 -43 -12 -76t-31.5 -56t-53 -39t-67 -25t-85 -13.5t-95 -6t-106.5 -1.5q-136 0 -233 28t-161.5 82t-102 145t-52.5 204t-15 272q0 161 15 274t52.5 204t102 144t161.5 80.5t233 27.5q224 0 400 -27z" />
    <glyph glyph-name="H" unicode="H" horiz-adv-x="1411" 
d="M273 773h866v659h86v-1432h-86v694h-866v-694h-87v1432h87v-659z" />
    <glyph glyph-name="I" unicode="I" horiz-adv-x="454" 
d="M271 0h-87v1432h87v-1432z" />
    <glyph glyph-name="J" unicode="J" horiz-adv-x="769" 
d="M503 1432h86v-991q0 -249 -81.5 -352.5t-294.5 -103.5q-89 0 -174 27l8 72q72 -19 156 -19q57 0 100 8.5t82 31t64 60.5t39.5 99t14.5 144v1024z" />
    <glyph glyph-name="K" unicode="K" horiz-adv-x="1164" 
d="M267 0h-86v1432h86v-664l697 664h119l-728 -694l749 -738h-123l-714 703v-703z" />
    <glyph glyph-name="L" unicode="L" horiz-adv-x="976" 
d="M941 76v-76q-127 -4 -238 -4h-67q-46 0 -77.5 0.5t-74 4t-71.5 9t-63.5 16.5t-57.5 26t-46 37.5t-36.5 51.5t-22 68t-8.5 86v1137h87v-1044q0 -51 2.5 -87.5t10.5 -69.5t19.5 -55t32 -40.5t46.5 -29t64 -18t83 -10t106 -2.5h311z" />
    <glyph glyph-name="M" unicode="M" horiz-adv-x="1751" 
d="M367 1387l508 -1056l513 1056q28 59 66 59q22 0 36.5 -14.5t16.5 -44.5l94 -1387h-89l-86 1276l-498 -1023q-12 -24 -17 -33t-15 -17.5t-23 -8.5q-18 0 -29 13t-27 46l-491 1023l-89 -1276h-86l97 1387q4 59 52 59q39 0 67 -59z" />
    <glyph glyph-name="N" unicode="N" horiz-adv-x="1437" 
d="M1121 44l-850 1258v-1302h-85v1387q0 29 16 44t38 15q37 0 77 -59l850 -1258v1303h85v-1388q0 -29 -15.5 -44t-37.5 -15q-38 0 -78 59z" />
    <glyph glyph-name="O" unicode="O" horiz-adv-x="1395" 
d="M1242 716q0 -161 -16 -276t-53 -204.5t-100 -143t-155 -80.5t-220 -27t-220 27t-155 80.5t-100 143t-53 204.5t-16 276q0 201 25 334t87.5 224.5t167 131.5t264.5 40t264.5 -40t167 -131.5t87.5 -224.5t25 -334zM241 716q0 -96 2 -156.5t12 -137t28 -123t51.5 -96.5
t81.5 -76.5t119 -44t163 -17.5t162.5 17.5t118.5 44t81 76.5t51.5 96.5t28 122.5t12 137t2.5 157t-2.5 157t-12 137t-28 123t-51.5 96.5t-81 76t-118.5 44t-162.5 17.5t-163 -17.5t-119 -44t-81.5 -76.5t-51.5 -96t-28 -123t-12 -137.5t-2 -156.5z" />
    <glyph glyph-name="P" unicode="P" horiz-adv-x="1243" 
d="M181 0v1416q198 30 421 30q98 0 172.5 -9t148 -35.5t121 -71.5t76.5 -121.5t29 -181.5q0 -104 -26 -180t-70 -123.5t-113 -76t-145 -39t-176 -10.5q-127 0 -352 12v-610h-86zM267 1343v-649q160 -16 335 -16q117 0 197 15.5t141.5 53.5t91 107t29.5 173q0 182 -103 261
t-348 79q-162 0 -343 -24z" />
    <glyph glyph-name="Q" unicode="Q" horiz-adv-x="1395" 
d="M698 -15q-128 0 -220 27t-155 80.5t-100 143t-53 204.5t-16 276q0 201 25 334t87.5 224.5t167 131.5t264.5 40t264.5 -40t167 -131.5t87.5 -224.5t25 -334q0 -147 -13.5 -255.5t-44 -195.5t-82 -143t-126.5 -89t-178 -43q44 -78 118 -130t198 -108l-73 -52
q-9 5 -35.5 17.5t-38.5 18.5t-37.5 19t-39.5 22t-37 24t-37.5 28t-33.5 31.5t-32.5 36.5t-27 41t-24.5 47zM241 716q0 -96 2 -156.5t12 -137t28 -123t51.5 -96.5t81.5 -76.5t119 -44t163 -17.5t162.5 17.5t118.5 44t81 76.5t51.5 96.5t28 122.5t12 137t2.5 157t-2.5 157
t-12 137t-28 123t-51.5 96.5t-81 76t-118.5 44t-162.5 17.5t-163 -17.5t-119 -44t-81.5 -76.5t-51.5 -96t-28 -123t-12 -137.5t-2 -156.5z" />
    <glyph glyph-name="R" unicode="R" horiz-adv-x="1269" 
d="M181 0v1416q198 30 421 30q69 0 124.5 -4t114 -15t102.5 -30t84.5 -50.5t66 -74t40.5 -103t15 -135.5q0 -107 -27.5 -184t-81.5 -124.5t-123 -72.5t-163 -35l364 -618h-102l-354 612q-14 -1 -43 -1q-108 0 -352 13v-624h-86zM267 1343v-636q160 -16 335 -16q116 0 197 16
t142 54t90.5 105.5t29.5 167.5q0 181 -102.5 257t-348.5 76q-162 0 -343 -24z" />
    <glyph glyph-name="S" unicode="S" horiz-adv-x="1035" 
d="M622 1366q-88 0 -153 -6.5t-122.5 -23.5t-94 -45.5t-57 -74.5t-20.5 -109q0 -53 5 -89t21.5 -67.5t39.5 -52.5t67.5 -43t95 -39.5t133.5 -41.5q70 -21 123 -42t108.5 -54.5t91 -74t58 -99t22.5 -129.5q0 -208 -123.5 -299t-371.5 -91q-197 0 -341 29l9 76
q163 -25 326 -25q75 0 134 7.5t112.5 28t88 54t55 87.5t20.5 126t-20.5 122t-69 88t-109 63.5t-160.5 55.5q-62 18 -102.5 32t-87 33.5t-75.5 39t-57.5 47.5t-44.5 60t-25.5 75t-9.5 95q0 200 118 283.5t357 83.5q171 0 337 -26l-8 -76q-154 22 -270 22z" />
    <glyph glyph-name="T" unicode="T" horiz-adv-x="1016" 
d="M52 1432h913v-78h-413v-1354h-86v1354h-414v78z" />
    <glyph glyph-name="U" unicode="U" horiz-adv-x="1369" 
d="M175 452v980h87v-996q0 -188 99.5 -279.5t318.5 -91.5q221 0 320 91.5t99 279.5v996h86v-980q0 -135 -35 -228.5t-104.5 -144.5t-157 -72.5t-208.5 -21.5t-208.5 21.5t-157 72.5t-104.5 144.5t-35 228.5z" />
    <glyph glyph-name="V" unicode="V" horiz-adv-x="1259" 
d="M569 44l-500 1388h92l468 -1301l475 1301h87l-506 -1388q-11 -31 -24 -45t-33 -14q-38 0 -59 59z" />
    <glyph glyph-name="W" unicode="W" horiz-adv-x="1881" 
d="M1783 1432l-338 -1388q-14 -59 -59 -59q-38 0 -59 59l-375 1079l-390 -1079q-21 -59 -59 -59q-44 0 -59 59l-346 1388h89l322 -1291l387 1069q21 59 58 59q38 0 59 -59l371 -1069l314 1291h85z" />
    <glyph glyph-name="X" unicode="X" horiz-adv-x="1184" 
d="M997 0l-408 653l-406 -653h-97l454 731l-437 701h102l386 -618l384 618h97l-432 -696l459 -736h-102z" />
    <glyph glyph-name="Y" unicode="Y" horiz-adv-x="1114" 
d="M510 0v559l-454 873h97l404 -775l408 775h94l-461 -873v-559h-88z" />
    <glyph glyph-name="Z" unicode="Z" horiz-adv-x="1062" 
d="M176 77h803v-77h-849q-64 0 -64 40q0 22 25 64l783 1250h-757v78h803q64 0 64 -40q0 -24 -24 -64z" />
    <glyph glyph-name="bracketleft" unicode="[" horiz-adv-x="580" 
d="M500 1402h-225v-1658h224v-78h-309v1814h310v-78z" />
    <glyph glyph-name="backslash" unicode="\" horiz-adv-x="812" 
d="M170 1482l580 -1647h-90l-581 1647h91z" />
    <glyph glyph-name="bracketright" unicode="]" horiz-adv-x="580" 
d="M81 -256h224v1658h-225v78h310v-1814h-309v78z" />
    <glyph glyph-name="asciicircum" unicode="^" horiz-adv-x="991" 
d="M436 1432h120l326 -716h-86l-300 646l-301 -646h-86z" />
    <glyph glyph-name="underscore" unicode="_" horiz-adv-x="1026" 
d="M1032 -289h-1038v103h1038v-103z" />
    <glyph glyph-name="grave" unicode="`" horiz-adv-x="428" 
d="M347 1182h-75l-219 271h122z" />
    <glyph glyph-name="a" unicode="a" horiz-adv-x="1141" 
d="M967 787v-544q0 -92 -3 -176q-184 -82 -433 -82q-229 0 -333.5 69.5t-104.5 247.5q0 296 261 336q143 22 530 34v85q0 64 -8.5 106t-30 76t-61.5 52.5t-100.5 28t-148.5 9.5q-125 0 -354 -34l-9 77q241 37 395 37q73 0 129.5 -7.5t109 -29t86.5 -56.5t54.5 -93t20.5 -136
zM884 316v276q-361 -5 -507 -32q-104 -20 -151 -76.5t-47 -178.5q0 -141 78 -190t276 -49q185 0 348 59q3 174 3 191z" />
    <glyph glyph-name="b" unicode="b" horiz-adv-x="1179" 
d="M254 1517v-457q186 49 351 49q163 0 259 -54t141 -176.5t45 -331.5q0 -160 -27 -267t-86.5 -173t-148 -94t-218.5 -28q-232 0 -397 82q-3 84 -3 176v1274h84zM254 316q0 -75 2 -191q139 -60 314 -60q144 0 228 44.5t125.5 150t41.5 287.5q0 144 -18.5 233.5t-66 147
t-122.5 79.5t-195 22q-154 0 -309 -51v-662z" />
    <glyph glyph-name="c" unicode="c" horiz-adv-x="885" 
d="M830 1083l-8 -69q-84 15 -177 15q-82 0 -144.5 -10t-107.5 -27t-75.5 -48t-49.5 -65t-29 -87.5t-13 -105t-3 -126.5q0 -71 3 -121.5t13 -105.5t28 -92.5t49 -73t74.5 -56t106.5 -33t143 -12.5q72 0 182 22l9 -75q-157 -28 -245 -28q-109 0 -189 29t-129 78t-79 124.5
t-40.5 157t-10.5 186.5q0 114 11.5 195.5t42 151.5t83.5 112.5t136 66t199 23.5q107 0 220 -26z" />
    <glyph glyph-name="d" unicode="d" horiz-adv-x="1177" 
d="M1001 1517v-1274q0 -92 -3 -176q-165 -82 -396 -82q-130 0 -218.5 28t-148.5 93.5t-87 173t-27 267.5q0 209 45 331.5t141 176.5t259 54q165 0 351 -49v457h84zM917 978q-155 51 -309 51q-120 0 -195 -22t-122.5 -79.5t-66 -147t-18.5 -233.5q0 -182 41.5 -287.5
t126 -150t228.5 -44.5q174 0 313 60q2 116 2 191v662z" />
    <glyph glyph-name="e" unicode="e" horiz-adv-x="1196" 
d="M535 477l-311 -12q4 -45 8.5 -75.5t12 -69t18 -64t26.5 -54.5t37.5 -47.5t51.5 -37t67.5 -29t86.5 -17t108 -6.5q164 0 381 33l9 -79q-233 -34 -447 -34q-103 0 -181 28t-127.5 76t-80.5 120.5t-43.5 154t-12.5 183.5q0 303 105 432.5t367 129.5q104 0 183.5 -21.5
t132.5 -60.5t86.5 -97t48 -127t14.5 -155q0 -67 -3 -121q-94 -15 -257.5 -30t-279.5 -20zM222 543l343 16q214 10 422 34q3 42 3 97q0 339 -380 339q-116 0 -191 -26t-119 -87.5t-61 -149t-17 -223.5z" />
    <glyph glyph-name="f" unicode="f" horiz-adv-x="654" 
d="M347 1019v-1019h-84v1019h-202v75h202v128q0 154 75 232t221 78q27 0 55 -5l-8 -70h-30q-112 0 -170.5 -53t-58.5 -176v-134h257v-75h-257z" />
    <glyph glyph-name="g" unicode="g" horiz-adv-x="1181" 
d="M920 -66v125q-186 -49 -352 -49q-164 0 -259 52t-140 171t-45 326q0 206 50.5 326.5t153.5 172t276 51.5q231 0 396 -82q3 -84 3 -176v-946q0 -97 -29.5 -162.5t-86.5 -99.5t-124.5 -47.5t-159.5 -13.5q-155 0 -395 37l9 77q229 -34 354 -34q88 0 148.5 9.5t100.5 28
t61.5 52.5t30 76t8.5 106zM920 141v638q0 17 -3 191q-137 59 -313 59q-143 0 -228 -44t-126.5 -146.5t-41.5 -279.5q0 -141 18.5 -228.5t66 -143t122.5 -76.5t196 -21q154 0 309 51z" />
    <glyph glyph-name="h" unicode="h" horiz-adv-x="1184" 
d="M256 1517v-457q183 48 355 49q107 1 183 -16.5t121.5 -47t71.5 -80.5t34.5 -104.5t8.5 -130.5v-730h-84v697q0 76 -7.5 124.5t-29 91.5t-62 66.5t-105.5 36.5t-161 13q-164 0 -325 -51v-978h-84v1517h84z" />
    <glyph glyph-name="i" unicode="i" horiz-adv-x="400" 
d="M151 1447q0 47 10.5 66t38.5 19q29 0 40 -19.5t11 -65.5t-10.5 -64t-40.5 -18t-39.5 17.5t-9.5 64.5zM242 1094v-1094h-83v1094h83z" />
    <glyph glyph-name="j" unicode="j" horiz-adv-x="406" 
d="M162 -49v1143h83v-1116q0 -210 -76 -303t-234 -93q-13 0 -20 1l7 68q42 2 73 9t64.5 26.5t54.5 51t34.5 85.5t13.5 128zM203 1365q-30 0 -39.5 17.5t-9.5 64.5t10.5 66t38.5 19q29 0 40 -19.5t11 -65.5t-10.5 -64t-40.5 -18z" />
    <glyph glyph-name="k" unicode="k" horiz-adv-x="983" 
d="M256 0h-84v1517h84v-941l525 518h114l-560 -553l597 -541h-126l-550 500v-500z" />
    <glyph glyph-name="l" unicode="l" horiz-adv-x="415" 
d="M152 283v1234h84v-1223q0 -187 94 -301l-67 -42q-111 126 -111 332z" />
    <glyph glyph-name="m" unicode="m" horiz-adv-x="1895" 
d="M900 0v691q0 95 -13.5 155.5t-49 103.5t-97.5 61t-160 18q-62 0 -161 -19.5t-163 -46.5q-3 -174 -3 -191v-772h-83v845q0 92 3 176q95 36 221 62t225 26q207 0 292 -103q188 103 440 103q93 0 160 -21t106 -54.5t62 -86.5t30 -105.5t7 -123.5v-718h-84v691
q0 95 -13.5 155.5t-49.5 103.5t-98 61t-159 18q-80 0 -178 -23.5t-183 -67.5q33 -80 33 -220v-718h-84z" />
    <glyph glyph-name="n" unicode="n" horiz-adv-x="1239" 
d="M983 0v689q0 63 -4.5 106.5t-18 84.5t-38 66.5t-64 45.5t-96.5 28.5t-135 8.5q-81 0 -195.5 -20t-176.5 -46q-2 -116 -2 -191v-772h-84v845q0 92 3 176q223 88 494 88q89 0 156 -13t110 -40.5t70.5 -59.5t41 -80.5t18 -92.5t4.5 -105v-718h-83z" />
    <glyph glyph-name="o" unicode="o" horiz-adv-x="1238" 
d="M1094 547q0 -303 -107.5 -432.5t-367.5 -129.5q-261 0 -368 127t-107 435t107 435t368 127q260 0 367.5 -128.5t107.5 -433.5zM229 547q0 -191 39.5 -295.5t121.5 -145.5t229 -41q148 0 231.5 45t121.5 148.5t38 288.5q0 186 -37 289t-120.5 148t-233.5 45
q-147 0 -229 -41t-121.5 -145.5t-39.5 -295.5z" />
    <glyph glyph-name="p" unicode="p" horiz-adv-x="1179" 
d="M170 -403v1254q0 92 3 176q165 82 397 82q130 0 218.5 -28t148 -94t86.5 -173t27 -267q0 -209 -45 -331.5t-141 -176.5t-259 -54q-165 0 -351 49v-437h-84zM254 117q158 -52 309 -52q120 0 195 22t122.5 79.5t66 147t18.5 233.5q0 182 -41.5 287.5t-125.5 150t-228 44.5
q-177 0 -314 -59q-2 -116 -2 -191v-662z" />
    <glyph glyph-name="q" unicode="q" horiz-adv-x="1179" 
d="M919 -403v437q-186 -49 -352 -49q-163 0 -259 54t-141 176.5t-45 331.5q0 160 27 267.5t87 173t148.5 93.5t218.5 28q231 0 396 -82q3 -84 3 -176v-1254h-83zM919 779q0 17 -3 191q-137 59 -313 59q-144 0 -228.5 -44.5t-126 -150t-41.5 -287.5q0 -144 18.5 -233.5
t66 -147t123 -79.5t195.5 -22q151 0 309 52v662z" />
    <glyph glyph-name="r" unicode="r" horiz-adv-x="712" 
d="M252 0h-84v851q0 92 3 176q165 82 397 82q62 0 102 -5l-8 -81q-58 4 -94 4q-175 0 -314 -60q-2 -116 -2 -191v-776z" />
    <glyph glyph-name="s" unicode="s" horiz-adv-x="941" 
d="M527 1029q-42 0 -68 -0.5t-65 -4.5t-64 -11t-54 -20.5t-45.5 -32.5t-27.5 -48.5t-11 -67.5q0 -109 53 -149t207 -84q29 -8 44 -13q193 -57 271.5 -124.5t78.5 -192.5q0 -68 -20.5 -119.5t-56 -85t-88.5 -54t-113 -29t-134 -8.5q-167 0 -325 31l9 73q143 -23 274 -23
q34 0 55 0.5t55 2.5t56.5 5.5t51.5 10.5t48.5 17.5t40 26t32.5 36t19.5 48t7.5 60.5q0 45 -11.5 77.5t-31 56t-61.5 44.5t-85 35.5t-119 37.5q-140 41 -182 60q-121 55 -151 158q-11 39 -11 86q0 80 26 136t77.5 87t117 44.5t153.5 13.5q161 0 331 -32l-9 -72
q-146 24 -275 24z" />
    <glyph glyph-name="t" unicode="t" horiz-adv-x="683" 
d="M59 1019v75h211v296l84 13v-309h257v-75h-257v-736q0 -73 11 -116.5t39.5 -66.5t65.5 -30t101 -7q21 0 42 3l7 -72q-45 -9 -82 -9q-141 0 -204.5 65t-63.5 212v757h-211z" />
    <glyph glyph-name="u" unicode="u" horiz-adv-x="1236" 
d="M1059 1094v-845q0 -92 -3 -176q-223 -88 -491 -88q-89 0 -156 13t-110 40.5t-70.5 60t-41 81t-18 92t-4.5 105.5v717h84v-689q0 -63 4.5 -106.5t18 -84.5t38 -66.5t64 -45.5t96.5 -28.5t135 -8.5q80 0 193 20t175 46q2 116 2 191v772h84z" />
    <glyph glyph-name="v" unicode="v" horiz-adv-x="1134" 
d="M565 117l403 977h87l-427 -1036q-17 -40 -29.5 -56.5t-32.5 -16.5q-22 0 -37.5 17.5t-30.5 55.5l-419 1036h91z" />
    <glyph glyph-name="w" unicode="w" horiz-adv-x="1783" 
d="M190 1094l278 -975l367 816q19 42 31 57.5t32 15.5q22 0 36.5 -17t30.5 -56l347 -816l286 975h84l-305 -1036q-21 -73 -65 -73q-22 0 -36.5 17t-30.5 56l-347 818l-368 -818q-13 -29 -19.5 -41.5t-18 -22t-26.5 -9.5q-47 0 -68 73l-295 1036h87z" />
    <glyph glyph-name="x" unicode="x" horiz-adv-x="1051" 
d="M858 0l-335 499l-334 -499h-97l382 571l-350 523h101l300 -447l300 447h97l-348 -519l386 -575h-102z" />
    <glyph glyph-name="y" unicode="y" horiz-adv-x="1022" 
d="M160 1094l391 -892l307 892h85l-510 -1497h-85l164 482l-444 1015h92z" />
    <glyph glyph-name="z" unicode="z" horiz-adv-x="1035" 
d="M192 77h718v-77h-799q-46 0 -46 33q0 19 17 41l735 943h-701v77h783q45 0 45 -32q0 -19 -17 -41z" />
    <glyph glyph-name="braceleft" unicode="{" horiz-adv-x="590" 
d="M342 186v-112q0 -128 45 -214.5t135 -107.5l-8 -74q-79 21 -133 58.5t-89 114.5t-35 191q0 238 -35 351t-131 143v75q96 30 131 142t35 352q0 86 19 150.5t55 106.5t80 67t103 40l8 -74q-90 -21 -135 -107.5t-45 -214.5v-112q0 -322 -160 -388q160 -71 160 -387z" />
    <glyph glyph-name="bar" unicode="|" horiz-adv-x="467" 
d="M277 1517v-1920h-87v1920h87z" />
    <glyph glyph-name="braceright" unicode="}" horiz-adv-x="590" 
d="M500 611v-75q-96 -30 -131.5 -143t-35.5 -351q0 -86 -18.5 -151t-54.5 -106.5t-80 -66.5t-103 -40l-9 74q90 21 135.5 107.5t45.5 214.5v112q0 316 159 387q-159 65 -159 388v112q0 127 -45.5 214t-135.5 108l9 74q122 -31 189 -114.5t67 -249.5q0 -239 35.5 -351.5
t131.5 -142.5z" />
    <glyph glyph-name="asciitilde" unicode="~" horiz-adv-x="1234" 
d="M221 526h-87q12 124 77 191.5t158 67.5q59 0 116.5 -19.5t103 -47.5t88 -56t88.5 -47.5t89 -19.5q67 0 104.5 44t55.5 138h87q-12 -124 -77 -192t-158 -68q-59 0 -116.5 19.5t-103 47.5t-88 55.5t-89 47t-88.5 19.5q-67 0 -105 -43t-55 -137z" />
    <glyph glyph-name="uni00A0" unicode="&#xa0;" horiz-adv-x="645" 
 />
    <glyph glyph-name="exclamdown" unicode="&#xa1;" horiz-adv-x="400" 
d="M250 1014q0 -46 -10.5 -65.5t-39.5 -19.5t-39.5 19.5t-10.5 65.5q0 47 10 64.5t40 17.5t40 -17.5t10 -64.5zM254 -351h-107l15 1015h76z" />
    <glyph glyph-name="cent" unicode="&#xa2;" horiz-adv-x="878" 
d="M555 149v-190h-76v194q-107 12 -180 57.5t-111 123t-53 166t-15 207.5q0 100 9 173.5t32.5 139t63.5 108t103 70.5t151 37v195h76v-191q3 0 11 0.5t11 0.5q108 0 213 -25l-7 -68q-84 15 -172 15q-79 0 -139.5 -9.5t-104 -26t-73.5 -47t-48 -63.5t-28 -84.5t-13 -101.5
t-3 -123q0 -69 3 -117.5t12.5 -102.5t27 -90t47.5 -70.5t72.5 -55t103 -32.5t138.5 -12q69 0 177 22l9 -73q-146 -27 -237 -27z" />
    <glyph glyph-name="sterling" unicode="&#xa3;" horiz-adv-x="1147" 
d="M745 739v-75h-325q14 -101 14 -188q0 -69 -5.5 -120t-23.5 -102.5t-30.5 -79t-45.5 -94.5h432q138 0 300 20l8 -72q-198 -28 -431 -28h-373q-45 0 -45 37q0 13 20.5 55t44.5 91t44.5 125.5t20.5 149.5q0 79 -19 206h-221v75h209q-27 168 -27 307q0 83 24.5 146.5t66 103
t103 64t128 34t147.5 9.5q190 0 306 -110l-46 -54q-108 85 -252 85q-114 0 -190 -19t-120 -61.5t-62 -101.5t-18 -148q0 -25 1.5 -49.5t5.5 -54.5t6.5 -46.5t8.5 -54.5t8 -50h336z" />
    <glyph glyph-name="currency" unicode="&#xa4;" horiz-adv-x="1188" 
d="M199 1137l141 -140q111 89 255 89t255 -87l139 138l59 -58l-140 -136q95 -111 95 -258q0 -142 -95 -253l140 -136l-59 -59l-139 140q-112 -90 -255 -90q-146 0 -257 90l-139 -140l-58 59l140 137q-91 110 -91 252q0 144 92 255l-141 139zM593 372q129 0 225.5 91
t96.5 223q0 130 -93.5 223t-228.5 93q-130 0 -224 -92t-94 -224q0 -128 92 -221t226 -93z" />
    <glyph glyph-name="yen" unicode="&#xa5;" horiz-adv-x="1047" 
d="M563 304v-304h-86v304h-242v75h242v145h-242v74h217l-366 791h94l343 -742l348 742h91l-372 -791h222v-74h-249v-145h249v-75h-249z" />
    <glyph glyph-name="brokenbar" unicode="&#xa6;" horiz-adv-x="429" 
d="M258 372v-661h-87v661h87zM258 1403v-660h-87v660h87z" />
    <glyph glyph-name="section" unicode="&#xa7;" horiz-adv-x="1096" 
d="M627 879q60 -24 101.5 -42.5t94.5 -50.5t85.5 -64.5t55.5 -79.5t23 -101q0 -153 -250 -290q81 -58 124.5 -123.5t43.5 -127.5q0 -68 -26 -121t-68 -85.5t-100 -53.5t-115.5 -29t-121.5 -8q-172 0 -331 33l11 80q181 -29 283 -29q34 0 58 0.5t66 5t72 12t65.5 23t58 37
t37.5 55.5t15 76q0 31 -10.5 58.5t-23 47.5t-42 42t-49 35t-63.5 32.5t-66 28.5t-74 29q-47 18 -77.5 31t-74 34.5t-72 41t-60.5 48.5t-50 59.5t-30.5 71t-12.5 85.5q0 173 235 282q-78 56 -108.5 109.5t-30.5 117.5q0 135 98.5 216t272.5 81q186 0 331 -31l-10 -78
q-161 30 -284 30q-145 0 -231 -56t-86 -153q0 -31 10.5 -59t25.5 -49t44 -43.5t51.5 -36.5t65 -33t67 -29t72.5 -29zM659 299q52 25 88.5 46.5t74 50t57 62t19.5 69.5q0 78 -52.5 134.5t-193.5 115.5q-30 13 -108.5 41.5t-131.5 54.5q-102 -46 -162 -99t-60 -123
q0 -82 44.5 -140t172.5 -114q43 -19 118.5 -45.5t133.5 -52.5z" />
    <glyph glyph-name="dieresis" unicode="&#xa8;" horiz-adv-x="689" 
d="M210 1231q-29 0 -50 21.5t-21 50.5t21 50t50 21t50 -21t21 -50t-21 -50.5t-50 -21.5zM480 1231q-29 0 -50 21.5t-21 50.5t21 50t50 21t50 -21t21 -50t-21 -50.5t-50 -21.5z" />
    <glyph glyph-name="copyright" unicode="&#xa9;" horiz-adv-x="1719" 
d="M1142 524h83q-12 -121 -112 -194t-240 -73q-124 0 -211 63.5t-127.5 165.5t-40.5 232q0 86 24.5 167t70.5 146t120 104.5t164 39.5q129 0 232 -62.5t120 -178.5h-83q-13 78 -88 120.5t-181 42.5q-127 0 -210 -100.5t-83 -278.5q0 -181 79.5 -281t213.5 -100
q99 0 176.5 51.5t92.5 135.5zM860 1446q202 0 369.5 -96t264 -263t96.5 -369t-96.5 -370.5t-264 -265.5t-369.5 -97q-151 0 -286.5 57.5t-233 155t-154.5 233.5t-57 287q0 202 96.5 369t264.5 263t370 96zM860 1370q-178 0 -327.5 -86t-235.5 -236t-86 -330q0 -137 51 -259
t137.5 -209t206.5 -137.5t254 -50.5t253.5 50.5t206 137.5t137 209t50.5 259q0 181 -85.5 330.5t-234.5 235.5t-327 86z" />
    <glyph glyph-name="ordfeminine" unicode="&#xaa;" horiz-adv-x="861" 
d="M699 842q0 -46 -2 -118q-123 -55 -290 -55q-153 0 -222.5 46t-69.5 165q0 198 176 224q90 14 338 22v50q0 99 -43 135.5t-176 36.5q-83 0 -238 -24l-7 61q159 25 266 25q62 0 107 -9t83.5 -31.5t58 -66t19.5 -108.5v-353zM629 889v174q-230 -5 -320 -21q-63 -12 -93 -48
t-30 -112q0 -88 49 -119t174 -31q114 0 218 36q2 74 2 121z" />
    <glyph glyph-name="guillemotleft" unicode="&#xab;" horiz-adv-x="891" 
d="M88 530l276 389h93l-250 -389l250 -389h-93zM771 141h-94l-276 389l276 389h93l-251 -389z" />
    <glyph glyph-name="logicalnot" unicode="&#xac;" horiz-adv-x="1322" 
d="M157 695v81h979v-549h-94v468h-885z" />
    <glyph glyph-name="uni00AD" unicode="&#xad;" horiz-adv-x="836" 
d="M680 504h-522v80h522v-80z" />
    <glyph glyph-name="registered" unicode="&#xae;" horiz-adv-x="1126" 
d="M455 975v-225h-64v525h182q202 0 202 -149q0 -57 -31.5 -94.5t-87.5 -48.5l116 -233h-72l-110 225h-135zM120 1003q0 187 128 315t315 128t315.5 -128t128.5 -315t-128.5 -315.5t-315.5 -128.5t-315 128.5t-128 315.5zM944 1003q0 161 -110.5 272t-270.5 111t-269.5 -111
t-109.5 -272q0 -163 109.5 -273.5t269.5 -110.5t270.5 110.5t110.5 273.5zM568 1218h-113v-187h116q141 0 141 95q0 50 -36 71t-108 21z" />
    <glyph glyph-name="macron" unicode="&#xaf;" horiz-adv-x="827" 
d="M151 1262v73h525v-73h-525z" />
    <glyph glyph-name="degree" unicode="&#xb0;" horiz-adv-x="760" 
d="M646 1181q0 -109 -78 -187t-188 -78t-188 77.5t-78 187.5t78 187.5t188 77.5t188 -78t78 -187zM195 1181q0 -77 54 -131t131 -54t131 54t54 131t-54 131t-131 54t-131 -54t-54 -131z" />
    <glyph glyph-name="plusminus" unicode="&#xb1;" horiz-adv-x="1246" 
d="M1113 758v-77h-444v-408h-91v408h-444v77h444v400h91v-400h444zM134 44v81h979v-81h-979z" />
    <glyph glyph-name="twosuperior" unicode="&#xb2;" horiz-adv-x="635" 
d="M574 901v-60h-525q13 76 24.5 123.5t29.5 93t42.5 74.5t61 54.5t88.5 47.5q214 91 214 229q0 80 -54.5 113t-178.5 33q-91 0 -209 -18l-7 57q136 23 238 23q277 0 277 -190q0 -109 -61 -178t-177 -118q-104 -43 -147 -107t-61 -177h445z" />
    <glyph glyph-name="threesuperior" unicode="&#xb3;" horiz-adv-x="644" 
d="M263 1672q49 0 87.5 -4.5t77 -16.5t63.5 -33t41 -55.5t16 -81.5q0 -153 -120 -206q54 -20 94.5 -71t40.5 -126q0 -135 -77.5 -190t-228.5 -55q-122 0 -221 21l8 59q131 -18 190 -18q137 0 199.5 39t62.5 138q0 69 -45 113t-116 51q-52 5 -93 5q-24 0 -70 -2v58
q100 2 163 12q67 10 107 52t40 100q0 41 -12 69t-30 44t-51.5 24.5t-64 10.5t-79.5 2q-76 0 -193 -18l-8 58q111 21 219 21z" />
    <glyph glyph-name="acute" unicode="&#xb4;" horiz-adv-x="428" 
d="M157 1182h-75l172 271h122z" />
    <glyph glyph-name="mu" unicode="&#xb5;" horiz-adv-x="1162" 
d="M932 1094v-751q0 -39 0.5 -60.5t2 -54t5 -51t10 -42t16.5 -37t24.5 -26t33.5 -18.5v-69q-47 0 -80 21t-51 61t-26.5 81t-13.5 97h-1q-35 -119 -123 -189.5t-191 -70.5q-76 0 -133 30t-114 97v-515h-83v1497h83v-728q0 -125 63 -208.5t182 -83.5q141 0 226.5 133t85.5 334
v553h84z" />
    <glyph glyph-name="paragraph" unicode="&#xb6;" horiz-adv-x="1233" 
d="M963 1357h-333v-1672h-79v953q-214 0 -339 111.5t-125 279.5q0 199 123 301t343 102h489v-1747h-79v1672z" />
    <glyph glyph-name="periodcentered" unicode="&#xb7;" horiz-adv-x="410" 
d="M205 670q29 0 39.5 -19t10.5 -65q0 -47 -10 -64.5t-40 -17.5t-40 17.5t-10 64.5q0 46 10.5 65t39.5 19z" />
    <glyph glyph-name="cedilla" unicode="&#xb8;" horiz-adv-x="445" 
d="M199 0h74l-63 -99q68 -3 112 -39t44 -98q0 -78 -56.5 -115t-140.5 -37q-74 0 -127 28l22 57q53 -23 109 -23q44 0 76.5 18.5t32.5 62.5q0 50 -55.5 77.5t-110.5 27.5z" />
    <glyph glyph-name="onesuperior" unicode="&#xb9;" horiz-adv-x="421" 
d="M307 845h-64v743q-102 -30 -212 -48l-4 59q124 21 231 67h49v-821z" />
    <glyph glyph-name="ordmasculine" unicode="&#xba;" horiz-adv-x="911" 
d="M456 1410q174 0 245.5 -84.5t71.5 -285.5q0 -200 -72 -285.5t-245 -85.5q-174 0 -245.5 84t-71.5 287t71.5 286.5t245.5 83.5zM456 1348q-138 0 -192 -64.5t-54 -243.5t54.5 -244t191.5 -65t191.5 67.5t54.5 241.5t-53.5 241t-192.5 67z" />
    <glyph glyph-name="guillemotright" unicode="&#xbb;" horiz-adv-x="891" 
d="M215 919l275 -389l-275 -389h-94l251 389l-250 389h93zM685 530l-251 389h94l275 -389l-275 -389h-94z" />
    <glyph glyph-name="onequarter" unicode="&#xbc;" horiz-adv-x="1446" 
d="M1219 261h117v-59h-117v-202h-66v202h-375q-63 0 -63 50q0 26 37 73l355 459q35 46 72 46q40 0 40 -50v-519zM369 612h-65v744q-109 -32 -212 -49l-4 60q126 21 232 67h49v-822zM1053 1461h89l-841 -1490h-88zM1153 261v478l-370 -478h370z" />
    <glyph glyph-name="onehalf" unicode="&#xbd;" horiz-adv-x="1586" 
d="M1019 60h445v-60h-526q14 77 25 124t29 93t43 75t61 54.5t88 47.5q214 91 214 228q0 80 -54.5 113.5t-178.5 33.5q-83 0 -208 -19l-8 57q138 23 238 23q277 0 277 -189q0 -109 -61 -178t-177 -118q-104 -43 -146.5 -107t-60.5 -178zM371 612h-64v744q-109 -32 -212 -49
l-4 60q124 21 231 67h49v-822zM1057 1461h89l-841 -1490h-89z" />
    <glyph glyph-name="threequarters" unicode="&#xbe;" horiz-adv-x="1604" 
d="M332 1439q62 0 108.5 -7.5t89 -27t65 -58.5t22.5 -97q0 -154 -121 -207q54 -20 95 -71t41 -126q0 -135 -77.5 -190t-228.5 -55q-123 0 -222 21l9 59q131 -18 190 -18q137 0 199.5 39t62.5 138q0 69 -45 113t-116 51q-52 5 -93 5q-24 0 -70 -2v58q100 2 163 12
q67 10 107 52t40 100q0 41 -12 69t-30 44t-51.5 24.5t-64 10.5t-79.5 2q-77 0 -194 -18l-7 58q111 21 219 21zM1311 0v202h-375q-63 0 -63 50q0 28 36 73l356 459q35 46 71 46q41 0 41 -50v-519h117v-59h-117v-202h-66zM458 -29h-89l840 1490h89zM941 261h370v478z" />
    <glyph glyph-name="questiondown" unicode="&#xbf;" horiz-adv-x="1000" 
d="M591 664h78v-118q0 -6 0.5 -25.5t0.5 -27.5q0 -58 -27 -93.5t-70 -51t-95 -26t-104 -25t-95 -40.5t-70 -81t-27 -137q0 -81 13 -134.5t42 -92.5t83.5 -59.5t128.5 -29.5t186 -9q123 0 292 29l16 -76q-171 -33 -350 -33q-69 0 -122 3.5t-107 14t-93 28.5t-74 47.5
t-56 70.5t-33.5 98.5t-12.5 129.5q0 83 17 144.5t45.5 97t65.5 59t78 35t82 19.5t78 18t65.5 26.5t46 48t17.5 78.5zM630 929q-29 0 -40 19.5t-11 65.5t10.5 64t40.5 18t40 -17.5t10 -64.5q0 -46 -10.5 -65.5t-39.5 -19.5z" />
    <glyph glyph-name="Agrave" unicode="&#xc0;" horiz-adv-x="1333" 
d="M157 0h-88l543 1387q12 31 25 45t32 14q36 0 59 -59l537 -1387h-93l-169 436h-675zM707 1596h-81l-234 220h130zM358 513h615l-306 790z" />
    <glyph glyph-name="Aacute" unicode="&#xc1;" horiz-adv-x="1333" 
d="M157 0h-88l543 1387q12 31 25 45t32 14q36 0 59 -59l537 -1387h-93l-169 436h-675zM715 1584h-80l184 219h130zM358 513h615l-306 790z" />
    <glyph glyph-name="Acircumflex" unicode="&#xc2;" horiz-adv-x="1333" 
d="M157 0h-88l543 1387q12 31 25 45t32 14q36 0 59 -59l537 -1387h-93l-169 436h-675zM720 1803l181 -219h-83l-153 174l-153 -174h-81l177 219h112zM358 513h615l-306 790z" />
    <glyph glyph-name="Atilde" unicode="&#xc3;" horiz-adv-x="1333" 
d="M510 1614h-67q9 79 44.5 121t81.5 42q30 0 53.5 -9.5t38.5 -23.5t28 -28t28.5 -23.5t33.5 -9.5q56 0 72 90h67q-9 -78 -45 -120.5t-81 -42.5q-36 0 -64.5 14.5t-43 32.5t-34 32.5t-40.5 14.5q-55 0 -72 -90zM69 0l543 1387q12 31 25 45t32 14q36 0 59 -59l537 -1387h-93
l-169 436h-675l-171 -436h-88zM973 513l-306 790l-309 -790h615z" />
    <glyph glyph-name="Adieresis" unicode="&#xc4;" horiz-adv-x="1333" 
d="M157 0h-88l543 1387q12 31 25 45t32 14q36 0 59 -59l537 -1387h-93l-169 436h-675zM533 1619q-29 0 -49.5 21t-20.5 50t20.5 50.5t49.5 21.5t50.5 -21.5t21.5 -50.5t-21.5 -50t-50.5 -21zM804 1619q-29 0 -50.5 21t-21.5 50t21.5 50.5t50.5 21.5t50 -21.5t21 -50.5
t-21 -50t-50 -21zM358 513h615l-306 790z" />
    <glyph glyph-name="Aring" unicode="&#xc5;" horiz-adv-x="1333" 
d="M157 0h-88l543 1387q12 31 25 45t32 14q36 0 59 -59l537 -1387h-93l-169 436h-675zM858 1756q0 -80 -56 -136t-135 -56t-135 56.5t-56 135.5t56 134.5t135 55.5t135 -55.5t56 -134.5zM543 1756q0 -52 36 -88.5t88 -36.5t88 36.5t36 88.5t-36 88t-88 36t-88 -36t-36 -88z
M358 513h615l-306 790z" />
    <glyph glyph-name="AE" unicode="&#xc6;" horiz-adv-x="1869" 
d="M157 0h-88l511 1306q19 50 60 83t86.5 45t96.5 12q146 0 206 -118q29 36 71.5 58.5t100 32.5t106.5 13t122 3q155 0 333 -7v-72h-339q-82 0 -136 -5t-97 -19t-67 -34.5t-39 -58.5t-20 -83t-5 -114v-273h672v-78h-672v-303q0 -69 5 -114t20.5 -82.5t39 -58t66.5 -34.5
t97 -18.5t136 -4.5h339v-75q-120 -5 -333 -5q-61 0 -100 1.5t-92 7.5t-86.5 18t-70.5 33.5t-58 53t-35 78.5t-14 107v141h-645zM615 1169l-257 -656h615v639q0 119 -37.5 167t-125.5 48q-24 0 -45.5 -5.5t-36.5 -11.5t-29.5 -22t-22.5 -24.5t-19 -32t-14.5 -31.5
t-14.5 -36.5t-13 -34.5z" />
    <glyph glyph-name="Ccedilla" unicode="&#xc7;" horiz-adv-x="1040" 
d="M526 -350l21 57q53 -23 110 -23q44 0 76.5 18.5t32.5 62.5q0 50 -55.5 77.5t-110.5 27.5l69 116q-126 4 -216 34.5t-150 85.5t-95 145t-49 200.5t-14 264.5q0 132 10 231t35 184t66.5 141.5t104.5 97t149 58.5t200 18q153 0 301 -25l-9 -76q-152 22 -227 22
q-80 0 -145.5 -8t-117.5 -22t-92 -39t-69.5 -54t-50 -72t-34 -87.5t-21 -105.5t-10 -122t-2.5 -141q0 -90 4 -158t14.5 -133.5t29 -112.5t47.5 -89.5t69.5 -70.5t95 -48.5t124.5 -29.5t158 -9q67 0 227 21l9 -73q-141 -24 -271 -27l-47 -75q68 -3 112 -39t44 -98
q0 -78 -56 -115t-140 -37q-74 0 -127 28z" />
    <glyph glyph-name="Egrave" unicode="&#xc8;" horiz-adv-x="1073" 
d="M177 295v839q0 60 14 107t35 78.5t58 53.5t71 34t86.5 18.5t92.5 8t100 1.5q154 0 332 -7v-72h-339q-82 0 -136 -4.5t-97 -19t-66.5 -35t-38.5 -58.5t-20 -83t-5 -114v-273h671v-78h-671v-303q0 -69 5 -114t20 -82.5t38.5 -58t66.5 -34.5t97 -18.5t136 -4.5h339v-75
q-120 -5 -332 -5q-46 0 -77.5 0.5t-74 4t-71.5 9t-63.5 16.5t-57.5 26t-46 37.5t-36.5 51.5t-22 68t-8.5 86zM406 1792h130l184 -219h-80z" />
    <glyph glyph-name="Eacute" unicode="&#xc9;" horiz-adv-x="1073" 
d="M177 295v839q0 60 14 107t35 78.5t58 53.5t71 34t86.5 18.5t92.5 8t100 1.5q154 0 332 -7v-72h-339q-82 0 -136 -4.5t-97 -19t-66.5 -35t-38.5 -58.5t-20 -83t-5 -114v-273h671v-78h-671v-303q0 -69 5 -114t20 -82.5t38.5 -58t66.5 -34.5t97 -18.5t136 -4.5h339v-75
q-120 -5 -332 -5q-46 0 -77.5 0.5t-74 4t-71.5 9t-63.5 16.5t-57.5 26t-46 37.5t-36.5 51.5t-22 68t-8.5 86zM715 1792h130l-234 -219h-80z" />
    <glyph glyph-name="Ecircumflex" unicode="&#xca;" horiz-adv-x="1073" 
d="M177 295v839q0 60 14 107t35 78.5t58 53.5t71 34t86.5 18.5t92.5 8t100 1.5q154 0 332 -7v-72h-339q-82 0 -136 -4.5t-97 -19t-66.5 -35t-38.5 -58.5t-20 -83t-5 -114v-273h671v-78h-671v-303q0 -69 5 -114t20 -82.5t38.5 -58t66.5 -34.5t97 -18.5t136 -4.5h339v-75
q-120 -5 -332 -5q-46 0 -77.5 0.5t-74 4t-71.5 9t-63.5 16.5t-57.5 26t-46 37.5t-36.5 51.5t-22 68t-8.5 86zM755 1573l-153 174l-153 -174h-81l178 219h111l182 -219h-84z" />
    <glyph glyph-name="Edieresis" unicode="&#xcb;" horiz-adv-x="1073" 
d="M177 295v839q0 60 14 107t35 78.5t58 53.5t71 34t86.5 18.5t92.5 8t100 1.5q154 0 332 -7v-72h-339q-82 0 -136 -4.5t-97 -19t-66.5 -35t-38.5 -58.5t-20 -83t-5 -114v-273h671v-78h-671v-303q0 -69 5 -114t20 -82.5t38.5 -58t66.5 -34.5t97 -18.5t136 -4.5h339v-75
q-120 -5 -332 -5q-46 0 -77.5 0.5t-74 4t-71.5 9t-63.5 16.5t-57.5 26t-46 37.5t-36.5 51.5t-22 68t-8.5 86zM478 1752q29 0 50 -21t21 -50t-21 -50.5t-50 -21.5t-50 21.5t-21 50.5t21 50t50 21zM748 1752q29 0 50.5 -21t21.5 -50t-21.5 -50.5t-50.5 -21.5t-50 21.5
t-21 50.5t21 50t50 21z" />
    <glyph glyph-name="Igrave" unicode="&#xcc;" horiz-adv-x="454" 
d="M265 1578h-81l-234 219h130zM271 0h-87v1432h87v-1432z" />
    <glyph glyph-name="Iacute" unicode="&#xcd;" horiz-adv-x="454" 
d="M271 0h-87v1432h87v-1432zM271 1578h-81l185 219h130z" />
    <glyph glyph-name="Icircumflex" unicode="&#xce;" horiz-adv-x="454" 
d="M281 1787l182 -219h-83l-153 174l-153 -174h-81l177 219h111zM271 0h-87v1432h87v-1432z" />
    <glyph glyph-name="Idieresis" unicode="&#xcf;" horiz-adv-x="454" 
d="M93 1605q-29 0 -50 21t-21 50t21 50.5t50 21.5t50 -21.5t21 -50.5t-21 -50t-50 -21zM363 1605q-29 0 -50 21t-21 50t21 50.5t50 21.5t50 -21.5t21 -50.5t-21 -50t-50 -21zM271 0h-87v1432h87v-1432z" />
    <glyph glyph-name="Eth" unicode="&#xd0;" horiz-adv-x="1441" 
d="M248 777v641q195 28 419 28q112 0 199 -15.5t152 -43.5t111 -75.5t76 -103.5t47 -135t23.5 -162.5t6.5 -194.5t-6.5 -194.5t-23.5 -163t-47 -135.5t-76 -103.5t-111 -75.5t-152 -43.5t-199 -15.5q-214 0 -419 31v688h-131v73h131zM577 777v-73h-243v-616q172 -23 289 -23
q120 0 211 18.5t151.5 44t101.5 79.5t62.5 95.5t32 124.5t12 134.5t1.5 154.5t-1.5 154.5t-12 134.5t-32 124.5t-62.5 95.5t-101.5 79.5t-151.5 44t-211 18.5q-104 0 -289 -21v-569h243z" />
    <glyph glyph-name="Ntilde" unicode="&#xd1;" horiz-adv-x="1437" 
d="M1121 44l-850 1258v-1302h-85v1387q0 29 16 44t38 15q37 0 77 -59l850 -1258v1303h85v-1388q0 -29 -15.5 -44t-37.5 -15q-38 0 -78 59zM882 1771h66q-9 -78 -44.5 -120t-81.5 -42q-36 0 -64.5 14.5t-43 32.5t-34 32.5t-40.5 14.5q-55 0 -72 -90h-67q9 79 44.5 121
t81.5 42q36 0 64.5 -14.5t43 -32.5t34.5 -32.5t41 -14.5q56 0 72 89z" />
    <glyph glyph-name="Ograve" unicode="&#xd2;" horiz-adv-x="1395" 
d="M1242 716q0 -161 -16 -276t-53 -204.5t-100 -143t-155 -80.5t-220 -27t-220 27t-155 80.5t-100 143t-53 204.5t-16 276q0 201 25 334t87.5 224.5t167 131.5t264.5 40t264.5 -40t167 -131.5t87.5 -224.5t25 -334zM241 716q0 -96 2 -156.5t12 -137t28 -123t51.5 -96.5
t81.5 -76.5t119 -44t163 -17.5t162.5 17.5t118.5 44t81 76.5t51.5 96.5t28 122.5t12 137t2.5 157t-2.5 157t-12 137t-28 123t-51.5 96.5t-81 76t-118.5 44t-162.5 17.5t-163 -17.5t-119 -44t-81.5 -76.5t-51.5 -96t-28 -123t-12 -137.5t-2 -156.5zM788 1577h-81l-234 220
h130z" />
    <glyph glyph-name="Oacute" unicode="&#xd3;" horiz-adv-x="1395" 
d="M1242 716q0 -161 -16 -276t-53 -204.5t-100 -143t-155 -80.5t-220 -27t-220 27t-155 80.5t-100 143t-53 204.5t-16 276q0 201 25 334t87.5 224.5t167 131.5t264.5 40t264.5 -40t167 -131.5t87.5 -224.5t25 -334zM241 716q0 -96 2 -156.5t12 -137t28 -123t51.5 -96.5
t81.5 -76.5t119 -44t163 -17.5t162.5 17.5t118.5 44t81 76.5t51.5 96.5t28 122.5t12 137t2.5 157t-2.5 157t-12 137t-28 123t-51.5 96.5t-81 76t-118.5 44t-162.5 17.5t-163 -17.5t-119 -44t-81.5 -76.5t-51.5 -96t-28 -123t-12 -137.5t-2 -156.5zM700 1577h-81l185 220h130
z" />
    <glyph glyph-name="Ocircumflex" unicode="&#xd4;" horiz-adv-x="1395" 
d="M1242 716q0 -161 -16 -276t-53 -204.5t-100 -143t-155 -80.5t-220 -27t-220 27t-155 80.5t-100 143t-53 204.5t-16 276q0 201 25 334t87.5 224.5t167 131.5t264.5 40t264.5 -40t167 -131.5t87.5 -224.5t25 -334zM241 716q0 -96 2 -156.5t12 -137t28 -123t51.5 -96.5
t81.5 -76.5t119 -44t163 -17.5t162.5 17.5t118.5 44t81 76.5t51.5 96.5t28 122.5t12 137t2.5 157t-2.5 157t-12 137t-28 123t-51.5 96.5t-81 76t-118.5 44t-162.5 17.5t-163 -17.5t-119 -44t-81.5 -76.5t-51.5 -96t-28 -123t-12 -137.5t-2 -156.5zM752 1797l182 -220h-84
l-153 174l-153 -174h-81l178 220h111z" />
    <glyph glyph-name="Otilde" unicode="&#xd5;" horiz-adv-x="1395" 
d="M540 1598h-67q9 78 44.5 120t81.5 42q36 0 64.5 -14.5t43 -32.5t34.5 -32.5t41 -14.5q55 0 71 90h67q-9 -78 -45 -120.5t-81 -42.5q-36 0 -64.5 14.5t-43 32.5t-34 32.5t-40.5 14.5q-55 0 -72 -89zM698 1446q160 0 264.5 -40t167 -131.5t87.5 -224.5t25 -334
q0 -161 -16 -276t-53 -204.5t-100 -143t-155 -80.5t-220 -27t-220 27t-155 80.5t-100 143t-53 204.5t-16 276q0 201 25 334t87.5 224.5t167 131.5t264.5 40zM698 1367q-92 0 -163 -17.5t-119 -44t-81.5 -76.5t-51.5 -96t-28 -123t-12 -137.5t-2 -156.5t2 -156.5t12 -137
t28 -123t51.5 -96.5t81.5 -76.5t119 -44t163 -17.5t162.5 17.5t118.5 44t81 76.5t51.5 96.5t28 122.5t12 137t2.5 157t-2.5 157t-12 137t-28 123t-51.5 96.5t-81 76t-118.5 44t-162.5 17.5z" />
    <glyph glyph-name="Odieresis" unicode="&#xd6;" horiz-adv-x="1395" 
d="M563 1601q-29 0 -50 21t-21 50t21 50t50 21t50 -21t21 -50t-21 -50t-50 -21zM1242 716q0 -161 -16 -276t-53 -204.5t-100 -143t-155 -80.5t-220 -27t-220 27t-155 80.5t-100 143t-53 204.5t-16 276q0 201 25 334t87.5 224.5t167 131.5t264.5 40t264.5 -40t167 -131.5
t87.5 -224.5t25 -334zM241 716q0 -96 2 -156.5t12 -137t28 -123t51.5 -96.5t81.5 -76.5t119 -44t163 -17.5t162.5 17.5t118.5 44t81 76.5t51.5 96.5t28 122.5t12 137t2.5 157t-2.5 157t-12 137t-28 123t-51.5 96.5t-81 76t-118.5 44t-162.5 17.5t-163 -17.5t-119 -44
t-81.5 -76.5t-51.5 -96t-28 -123t-12 -137.5t-2 -156.5zM833 1601q-29 0 -50 21t-21 50t21 50t50 21t50 -21t21 -50t-21 -50t-50 -21z" />
    <glyph glyph-name="multiply" unicode="&#xd7;" horiz-adv-x="1129" 
d="M998 977l-372 -374l375 -374l-62 -64l-376 376l-374 -376l-61 62l375 374l-374 374l62 62l374 -374l374 373z" />
    <glyph glyph-name="Oslash" unicode="&#xd8;" horiz-adv-x="1395" 
d="M342 77l-76 -121l-64 40l84 135q-71 84 -101.5 226t-30.5 359q0 201 25 334t87.5 224.5t167 131.5t264.5 40q234 0 355 -92l76 123l65 -42l-85 -134q71 -84 102 -226.5t31 -358.5q0 -161 -16 -276t-53 -204.5t-100 -143t-155 -80.5t-220 -27q-235 0 -356 92zM698 65
q92 0 162.5 17.5t118.5 44t81 76.5t51.5 96.5t28 122.5t12 137t2.5 157q0 192 -17.5 311.5t-74.5 198.5l-676 -1078q106 -83 312 -83zM332 205l676 1078q-108 84 -310 84q-92 0 -163 -17.5t-119 -44t-81.5 -76.5t-51.5 -96t-28 -123t-12 -137.5t-2 -156.5
q0 -195 16.5 -313.5t74.5 -197.5z" />
    <glyph glyph-name="Ugrave" unicode="&#xd9;" horiz-adv-x="1369" 
d="M175 452v980h87v-996q0 -188 99.5 -279.5t318.5 -91.5q221 0 320 91.5t99 279.5v996h86v-980q0 -135 -35 -228.5t-104.5 -144.5t-157 -72.5t-208.5 -21.5t-208.5 21.5t-157 72.5t-104.5 144.5t-35 228.5zM765 1567h-80l-235 220h131z" />
    <glyph glyph-name="Uacute" unicode="&#xda;" horiz-adv-x="1369" 
d="M175 452v980h87v-996q0 -188 99.5 -279.5t318.5 -91.5q221 0 320 91.5t99 279.5v996h86v-980q0 -135 -35 -228.5t-104.5 -144.5t-157 -72.5t-208.5 -21.5t-208.5 21.5t-157 72.5t-104.5 144.5t-35 228.5zM687 1567h-81l185 220h130z" />
    <glyph glyph-name="Ucircumflex" unicode="&#xdb;" horiz-adv-x="1369" 
d="M175 452v980h87v-996q0 -188 99.5 -279.5t318.5 -91.5q221 0 320 91.5t99 279.5v996h86v-980q0 -135 -35 -228.5t-104.5 -144.5t-157 -72.5t-208.5 -21.5t-208.5 21.5t-157 72.5t-104.5 144.5t-35 228.5zM745 1787l182 -220h-83l-153 174l-153 -174h-81l177 220h111z" />
    <glyph glyph-name="Udieresis" unicode="&#xdc;" horiz-adv-x="1369" 
d="M175 452v980h87v-996q0 -188 99.5 -279.5t318.5 -91.5q221 0 320 91.5t99 279.5v996h86v-980q0 -135 -35 -228.5t-104.5 -144.5t-157 -72.5t-208.5 -21.5t-208.5 21.5t-157 72.5t-104.5 144.5t-35 228.5zM545 1606q-29 0 -50 21t-21 50t21 50t50 21t50 -21t21 -50
t-21 -50t-50 -21zM815 1606q-29 0 -50 21t-21 50t21 50t50 21t50.5 -21t21.5 -50t-21.5 -50t-50.5 -21z" />
    <glyph glyph-name="Yacute" unicode="&#xdd;" horiz-adv-x="1114" 
d="M510 0v559l-454 873h97l404 -775l408 775h94l-461 -873v-559h-88zM578 1561h-81l184 220h131z" />
    <glyph glyph-name="Thorn" unicode="&#xde;" horiz-adv-x="1232" 
d="M256 1432v-288q158 19 335 19q98 0 172.5 -8.5t148 -34.5t121 -70t76.5 -118.5t29 -175.5t-26 -175t-70 -120t-113 -73.5t-145 -38t-176 -10.5q-127 0 -352 12v-351h-86v1432h86zM598 1083q-169 0 -342 -23v-625q160 -16 335 -16q116 0 196.5 15t142 52t91 103.5
t29.5 166.5q0 175 -103.5 251t-348.5 76z" />
    <glyph glyph-name="germandbls" unicode="&#xdf;" horiz-adv-x="1259" 
d="M778 66h37.5t39.5 2t43.5 5t41 10t39.5 16.5t33 24.5t28 34t17 45.5t7 58.5q0 52 -19.5 92t-52 65t-73.5 48t-83.5 39.5t-83.5 41t-73.5 51.5t-52 71.5t-19.5 100.5q0 58 19.5 101t51 69t69 47t75.5 41.5t69.5 45.5t51 65.5t19.5 95.5q0 96 -85.5 156t-258.5 60
q-135 0 -213.5 -42.5t-116 -143t-37.5 -277.5v-989h-84v989q0 291 105 417t346 126q218 0 323.5 -85.5t105.5 -225.5q0 -59 -19.5 -104t-51 -73t-69 -50.5t-75.5 -42.5t-69.5 -43t-51 -57.5t-19.5 -79.5q0 -48 25 -83.5t65.5 -58.5t89 -43.5t97 -45.5t89 -57.5t65.5 -86.5
t25 -125q0 -151 -85 -218.5t-227 -67.5q-118 0 -267 36l8 75q133 -30 201 -30z" />
    <glyph glyph-name="agrave" unicode="&#xe0;" horiz-adv-x="1141" 
d="M967 787v-544q0 -92 -3 -176q-184 -82 -433 -82q-229 0 -333.5 69.5t-104.5 247.5q0 296 261 336q143 22 530 34v85q0 64 -8.5 106t-30 76t-61.5 52.5t-100.5 28t-148.5 9.5q-125 0 -354 -34l-9 77q241 37 395 37q73 0 129.5 -7.5t109 -29t86.5 -56.5t54.5 -93t20.5 -136
zM884 316v276q-361 -5 -507 -32q-104 -20 -151 -76.5t-47 -178.5q0 -141 78 -190t276 -49q185 0 348 59q3 174 3 191zM434 1531l172 -270h-74l-219 270h121z" />
    <glyph glyph-name="aacute" unicode="&#xe1;" horiz-adv-x="1141" 
d="M967 787v-544q0 -92 -3 -176q-184 -82 -433 -82q-229 0 -333.5 69.5t-104.5 247.5q0 296 261 336q143 22 530 34v85q0 64 -8.5 106t-30 76t-61.5 52.5t-100.5 28t-148.5 9.5q-125 0 -354 -34l-9 77q241 37 395 37q73 0 129.5 -7.5t109 -29t86.5 -56.5t54.5 -93t20.5 -136
zM884 316v276q-361 -5 -507 -32q-104 -20 -151 -76.5t-47 -178.5q0 -141 78 -190t276 -49q185 0 348 59q3 174 3 191zM801 1529l-218 -270h-75l172 270h121z" />
    <glyph glyph-name="acircumflex" unicode="&#xe2;" horiz-adv-x="1141" 
d="M967 787v-544q0 -92 -3 -176q-184 -82 -433 -82q-229 0 -333.5 69.5t-104.5 247.5q0 296 261 336q143 22 530 34v85q0 64 -8.5 106t-30 76t-61.5 52.5t-100.5 28t-148.5 9.5q-125 0 -354 -34l-9 77q241 37 395 37q73 0 129.5 -7.5t109 -29t86.5 -56.5t54.5 -93t20.5 -136
zM884 316v276q-361 -5 -507 -32q-104 -20 -151 -76.5t-47 -178.5q0 -141 78 -190t276 -49q185 0 348 59q3 174 3 191zM557 1467l-143 -214h-75l165 270h104l171 -270h-79z" />
    <glyph glyph-name="atilde" unicode="&#xe3;" horiz-adv-x="1141" 
d="M967 787v-544q0 -92 -3 -176q-184 -82 -433 -82q-229 0 -333.5 69.5t-104.5 247.5q0 296 261 336q143 22 530 34v85q0 64 -8.5 106t-30 76t-61.5 52.5t-100.5 28t-148.5 9.5q-125 0 -354 -34l-9 77q241 37 395 37q73 0 129.5 -7.5t109 -29t86.5 -56.5t54.5 -93t20.5 -136
zM342 1311q9 81 44.5 125t81.5 44q36 0 64.5 -15t43 -33.5t34.5 -33.5t41 -15q56 0 72 93h66q-9 -82 -45 -126t-81 -44q-36 0 -64.5 15.5t-43 33.5t-34 33.5t-40.5 15.5q-55 0 -72 -93h-67zM884 592q-361 -5 -507 -32q-104 -20 -151 -76.5t-47 -178.5q0 -141 78 -190
t276 -49q185 0 348 59q3 174 3 191v276z" />
    <glyph glyph-name="adieresis" unicode="&#xe4;" horiz-adv-x="1141" 
d="M967 787v-544q0 -92 -3 -176q-184 -82 -433 -82q-229 0 -333.5 69.5t-104.5 247.5q0 296 261 336q143 22 530 34v85q0 64 -8.5 106t-30 76t-61.5 52.5t-100.5 28t-148.5 9.5q-125 0 -354 -34l-9 77q241 37 395 37q73 0 129.5 -7.5t109 -29t86.5 -56.5t54.5 -93t20.5 -136
zM884 316v276q-361 -5 -507 -32q-104 -20 -151 -76.5t-47 -178.5q0 -141 78 -190t276 -49q185 0 348 59q3 174 3 191zM505 1385q0 -29 -21 -50t-50 -21t-50 21t-21 50t21 50t50 21t50 -21t21 -50zM775 1385q0 -29 -21 -50t-50 -21t-50 21t-21 50t21 50t50 21t50 -21t21 -50z
" />
    <glyph glyph-name="aring" unicode="&#xe5;" horiz-adv-x="1141" 
d="M967 787v-544q0 -92 -3 -176q-184 -82 -433 -82q-229 0 -333.5 69.5t-104.5 247.5q0 296 261 336q143 22 530 34v85q0 64 -8.5 106t-30 76t-61.5 52.5t-100.5 28t-148.5 9.5q-125 0 -354 -34l-9 77q241 37 395 37q73 0 129.5 -7.5t109 -29t86.5 -56.5t54.5 -93t20.5 -136
zM884 316v276q-361 -5 -507 -32q-104 -20 -151 -76.5t-47 -178.5q0 -141 78 -190t276 -49q185 0 348 59q3 174 3 191zM561 1610q79 0 135 -56t56 -135t-56 -135t-135 -56t-134.5 56t-55.5 135t55.5 135t134.5 56zM561 1544q-52 0 -88 -36.5t-36 -88.5t36 -88t88 -36t88.5 36
t36.5 88t-36.5 88.5t-88.5 36.5z" />
    <glyph glyph-name="ae" unicode="&#xe6;" horiz-adv-x="1942" 
d="M181 995l-9 77q241 37 395 37q74 0 131 -8.5t109 -28.5t88 -58.5t54 -94.5q51 98 149.5 144t257.5 46q104 0 183.5 -21.5t132.5 -60.5t86.5 -97t48 -127t14.5 -155q0 -67 -3 -121q-94 -15 -257.5 -30t-279.5 -20l-311 -12q4 -45 8.5 -75.5t12 -69t18 -64t26.5 -54.5
t37.5 -47.5t51.5 -37t67.5 -29t86.5 -17t108 -6.5q164 0 381 33l9 -79q-233 -34 -448 -34q-256 0 -360 170h-1l-3 -88q-184 -82 -433 -82q-229 0 -333.5 69.5t-104.5 247.5q0 296 261 336q143 22 530 34v85q0 64 -8.5 106t-30 76t-61.5 52.5t-100.5 28t-148.5 9.5
q-125 0 -354 -34zM884 316v276q-361 -5 -507 -32q-104 -20 -151 -76.5t-47 -178.5q0 -141 78 -190t276 -49q185 0 348 59q3 174 3 191zM1733 593q3 42 3 97q0 339 -380 339q-116 0 -191 -26t-119 -87.5t-61 -149t-17 -223.5l343 16q214 10 422 34z" />
    <glyph glyph-name="ccedilla" unicode="&#xe7;" horiz-adv-x="885" 
d="M375 -350l22 57q53 -23 109 -23q44 0 76.5 18.5t32.5 62.5q0 50 -55.5 77.5t-110.5 27.5l70 118q-92 8 -160 41.5t-109.5 83t-67 122.5t-35 150t-9.5 175q0 114 11.5 195.5t42 151.5t83.5 112.5t136 66t199 23.5q107 0 220 -26l-8 -69q-84 15 -177 15q-82 0 -144.5 -10
t-107.5 -27t-75.5 -48t-49.5 -65t-29 -87.5t-13 -105t-3 -126.5q0 -71 3 -121.5t13 -105.5t28 -92.5t49 -73t74.5 -56t106.5 -33t143 -12.5q72 0 182 22l9 -75q-148 -27 -241 -28l-47 -74q68 -3 112 -39t44 -98q0 -78 -56.5 -115t-140.5 -37q-74 0 -127 28z" />
    <glyph glyph-name="egrave" unicode="&#xe8;" horiz-adv-x="1196" 
d="M535 477l-311 -12q4 -45 8.5 -75.5t12 -69t18 -64t26.5 -54.5t37.5 -47.5t51.5 -37t67.5 -29t86.5 -17t108 -6.5q164 0 381 33l9 -79q-233 -34 -447 -34q-103 0 -181 28t-127.5 76t-80.5 120.5t-43.5 154t-12.5 183.5q0 303 105 432.5t367 129.5q104 0 183.5 -21.5
t132.5 -60.5t86.5 -97t48 -127t14.5 -155q0 -67 -3 -121q-94 -15 -257.5 -30t-279.5 -20zM222 543l343 16q214 10 422 34q3 42 3 97q0 339 -380 339q-116 0 -191 -26t-119 -87.5t-61 -149t-17 -223.5zM528 1531l172 -270h-74l-219 270h121z" />
    <glyph glyph-name="eacute" unicode="&#xe9;" horiz-adv-x="1196" 
d="M535 477l-311 -12q4 -45 8.5 -75.5t12 -69t18 -64t26.5 -54.5t37.5 -47.5t51.5 -37t67.5 -29t86.5 -17t108 -6.5q164 0 381 33l9 -79q-233 -34 -447 -34q-103 0 -181 28t-127.5 76t-80.5 120.5t-43.5 154t-12.5 183.5q0 303 105 432.5t367 129.5q104 0 183.5 -21.5
t132.5 -60.5t86.5 -97t48 -127t14.5 -155q0 -67 -3 -121q-94 -15 -257.5 -30t-279.5 -20zM222 543l343 16q214 10 422 34q3 42 3 97q0 339 -380 339q-116 0 -191 -26t-119 -87.5t-61 -149t-17 -223.5zM869 1526l-219 -270h-75l172 270h122z" />
    <glyph glyph-name="ecircumflex" unicode="&#xea;" horiz-adv-x="1196" 
d="M535 477l-311 -12q4 -45 8.5 -75.5t12 -69t18 -64t26.5 -54.5t37.5 -47.5t51.5 -37t67.5 -29t86.5 -17t108 -6.5q164 0 381 33l9 -79q-233 -34 -447 -34q-103 0 -181 28t-127.5 76t-80.5 120.5t-43.5 154t-12.5 183.5q0 303 105 432.5t367 129.5q104 0 183.5 -21.5
t132.5 -60.5t86.5 -97t48 -127t14.5 -155q0 -67 -3 -121q-94 -15 -257.5 -30t-279.5 -20zM222 543l343 16q214 10 422 34q3 42 3 97q0 339 -380 339q-116 0 -191 -26t-119 -87.5t-61 -149t-17 -223.5zM625 1467l-143 -214h-76l166 270h104l170 -270h-78z" />
    <glyph glyph-name="edieresis" unicode="&#xeb;" horiz-adv-x="1196" 
d="M535 477l-311 -12q4 -45 8.5 -75.5t12 -69t18 -64t26.5 -54.5t37.5 -47.5t51.5 -37t67.5 -29t86.5 -17t108 -6.5q164 0 381 33l9 -79q-233 -34 -447 -34q-103 0 -181 28t-127.5 76t-80.5 120.5t-43.5 154t-12.5 183.5q0 303 105 432.5t367 129.5q104 0 183.5 -21.5
t132.5 -60.5t86.5 -97t48 -127t14.5 -155q0 -67 -3 -121q-94 -15 -257.5 -30t-279.5 -20zM572 1385q0 -29 -21 -50t-50 -21t-50 21t-21 50t21 50t50 21t50 -21t21 -50zM222 543l343 16q214 10 422 34q3 42 3 97q0 339 -380 339q-116 0 -191 -26t-119 -87.5t-61 -149
t-17 -223.5zM842 1385q0 -29 -21 -50t-50 -21t-50 21t-21 50t21 50t50 21t50 -21t21 -50z" />
    <glyph glyph-name="igrave" unicode="&#xec;" horiz-adv-x="400" 
d="M233 1275h-74l-219 270h121zM242 1094v-1094h-83v1094h83z" />
    <glyph glyph-name="iacute" unicode="&#xed;" horiz-adv-x="400" 
d="M242 1094v-1094h-83v1094h83zM242 1275h-75l172 270h122z" />
    <glyph glyph-name="icircumflex" unicode="&#xee;" horiz-adv-x="400" 
d="M251 1552l170 -271h-78l-143 215l-143 -215h-76l166 271h104zM242 1094v-1094h-83v1094h83z" />
    <glyph glyph-name="idieresis" unicode="&#xef;" horiz-adv-x="400" 
d="M65 1323q-29 0 -50 21t-21 50t21 50t50 21t50 -21t21 -50t-21 -50t-50 -21zM335 1323q-29 0 -50 21t-21 50t21 50t50 21t50.5 -21t21.5 -50t-21.5 -50t-50.5 -21zM242 1094v-1094h-83v1094h83z" />
    <glyph glyph-name="eth" unicode="&#xf0;" horiz-adv-x="1216" 
d="M840 1373l172 63l36 -60l-172 -63q94 -168 142.5 -371t48.5 -407q0 -297 -107.5 -423.5t-367.5 -126.5q-261 0 -368 124.5t-107 425.5t107 425.5t368 124.5q216 0 322 -83h1q-46 154 -117 283l-179 -65l-34 61l177 64q-50 82 -119 162l73 25q72 -77 124 -159zM202 535
q0 -113 13.5 -192.5t41.5 -134t75.5 -85.5t109.5 -44.5t150 -13.5q111 0 183.5 23t120 78.5t67 144t19.5 224.5q0 266 -85 368t-305 102q-110 0 -181 -21t-119.5 -75t-69 -144t-20.5 -230z" />
    <glyph glyph-name="ntilde" unicode="&#xf1;" horiz-adv-x="1239" 
d="M983 0v689q0 63 -4.5 106.5t-18 84.5t-38 66.5t-64 45.5t-96.5 28.5t-135 8.5q-81 0 -195.5 -20t-176.5 -46q-2 -116 -2 -191v-772h-84v845q0 92 3 176q223 88 494 88q89 0 156 -13t110 -40.5t70.5 -59.5t41 -80.5t18 -92.5t4.5 -105v-718h-83zM470 1317h-67
q9 81 44.5 125t81.5 44q36 0 64.5 -15t43 -33.5t34.5 -33.5t41 -15q55 0 71 93h67q-9 -82 -45 -126t-81 -44q-36 0 -64.5 15.5t-43 33.5t-34 33.5t-40.5 15.5q-55 0 -72 -93z" />
    <glyph glyph-name="ograve" unicode="&#xf2;" horiz-adv-x="1238" 
d="M1094 547q0 -303 -107.5 -432.5t-367.5 -129.5q-261 0 -368 127t-107 435t107 435t368 127q260 0 367.5 -128.5t107.5 -433.5zM229 547q0 -191 39.5 -295.5t121.5 -145.5t229 -41q148 0 231.5 45t121.5 148.5t38 288.5q0 186 -37 289t-120.5 148t-233.5 45
q-147 0 -229 -41t-121.5 -145.5t-39.5 -295.5zM700 1261h-75l-219 270h122z" />
    <glyph glyph-name="oacute" unicode="&#xf3;" horiz-adv-x="1238" 
d="M1094 547q0 -303 -107.5 -432.5t-367.5 -129.5q-261 0 -368 127t-107 435t107 435t368 127q260 0 367.5 -128.5t107.5 -433.5zM229 547q0 -191 39.5 -295.5t121.5 -145.5t229 -41q148 0 231.5 45t121.5 148.5t38 288.5q0 186 -37 289t-120.5 148t-233.5 45
q-147 0 -229 -41t-121.5 -145.5t-39.5 -295.5zM623 1269h-75l172 271h122z" />
    <glyph glyph-name="ocircumflex" unicode="&#xf4;" horiz-adv-x="1238" 
d="M1094 547q0 -303 -107.5 -432.5t-367.5 -129.5q-261 0 -368 127t-107 435t107 435t368 127q260 0 367.5 -128.5t107.5 -433.5zM229 547q0 -191 39.5 -295.5t121.5 -145.5t229 -41q148 0 231.5 45t121.5 148.5t38 288.5q0 186 -37 289t-120.5 148t-233.5 45
q-147 0 -229 -41t-121.5 -145.5t-39.5 -295.5zM669 1529l170 -270h-78l-143 214l-144 -214h-75l166 270h104z" />
    <glyph glyph-name="otilde" unicode="&#xf5;" horiz-adv-x="1238" 
d="M463 1305h-67q9 81 44.5 125t81.5 44q36 0 64 -15.5t42.5 -33.5t34.5 -33.5t41 -15.5q56 0 72 94h66q-9 -82 -45 -126t-81 -44q-36 0 -64.5 15.5t-42.5 33.5t-33.5 33.5t-40.5 15.5q-55 0 -72 -93zM619 1109q260 0 367.5 -128.5t107.5 -433.5q0 -303 -107.5 -432.5
t-367.5 -129.5q-261 0 -368 127t-107 435t107 435t368 127zM619 1029q-147 0 -229 -41t-121.5 -145.5t-39.5 -295.5t39.5 -295.5t121.5 -145.5t229 -41q148 0 231.5 45t121.5 148.5t38 288.5q0 186 -37 289t-120.5 148t-233.5 45z" />
    <glyph glyph-name="odieresis" unicode="&#xf6;" horiz-adv-x="1238" 
d="M484 1314q-29 0 -50 21t-21 50t21 50t50 21t50 -21t21 -50t-21 -50t-50 -21zM1094 547q0 -303 -107.5 -432.5t-367.5 -129.5q-261 0 -368 127t-107 435t107 435t368 127q260 0 367.5 -128.5t107.5 -433.5zM229 547q0 -191 39.5 -295.5t121.5 -145.5t229 -41
q148 0 231.5 45t121.5 148.5t38 288.5q0 186 -37 289t-120.5 148t-233.5 45q-147 0 -229 -41t-121.5 -145.5t-39.5 -295.5zM754 1314q-29 0 -50 21t-21 50t21 50t50 21t50 -21t21 -50t-21 -50t-50 -21z" />
    <glyph glyph-name="divide" unicode="&#xf7;" horiz-adv-x="1201" 
d="M602 81q-35 0 -60.5 25.5t-25.5 60.5t25.5 60.5t60.5 25.5t60.5 -25.5t25.5 -60.5t-25.5 -60.5t-60.5 -25.5zM602 950q-35 0 -60.5 25.5t-25.5 60.5t25.5 60t60.5 25t60.5 -25t25.5 -60t-25.5 -60.5t-60.5 -25.5zM112 561v81h979v-81h-979z" />
    <glyph glyph-name="oslash" unicode="&#xf8;" horiz-adv-x="1238" 
d="M917 1042l75 108l59 -42l-78 -113q121 -127 121 -448q0 -303 -107.5 -432.5t-367.5 -129.5q-192 0 -298 67l-75 -108l-59 42l77 112q-120 124 -120 449q0 308 107 435t368 127q192 0 298 -67zM619 65q148 0 231.5 45t121.5 148.5t38 288.5q0 275 -85 378l-558 -806
q84 -54 252 -54zM313 168l558 806q-85 55 -252 55q-147 0 -229 -41t-121.5 -145.5t-39.5 -295.5q0 -274 84 -379z" />
    <glyph glyph-name="ugrave" unicode="&#xf9;" horiz-adv-x="1236" 
d="M1059 1094v-845q0 -92 -3 -176q-223 -88 -491 -88q-89 0 -156 13t-110 40.5t-70.5 60t-41 81t-18 92t-4.5 105.5v717h84v-689q0 -63 4.5 -106.5t18 -84.5t38 -66.5t64 -45.5t96.5 -28.5t135 -8.5q80 0 193 20t175 46q2 116 2 191v772h84zM675 1275h-75l-219 270h122z" />
    <glyph glyph-name="uacute" unicode="&#xfa;" horiz-adv-x="1236" 
d="M1059 1094v-845q0 -92 -3 -176q-223 -88 -491 -88q-89 0 -156 13t-110 40.5t-70.5 60t-41 81t-18 92t-4.5 105.5v717h84v-689q0 -63 4.5 -106.5t18 -84.5t38 -66.5t64 -45.5t96.5 -28.5t135 -8.5q80 0 193 20t175 46q2 116 2 191v772h84zM630 1287h-75l172 271h122z" />
    <glyph glyph-name="ucircumflex" unicode="&#xfb;" horiz-adv-x="1236" 
d="M1059 1094v-845q0 -92 -3 -176q-223 -88 -491 -88q-89 0 -156 13t-110 40.5t-70.5 60t-41 81t-18 92t-4.5 105.5v717h84v-689q0 -63 4.5 -106.5t18 -84.5t38 -66.5t64 -45.5t96.5 -28.5t135 -8.5q80 0 193 20t175 46q2 116 2 191v772h84zM662 1564l171 -271h-78l-144 215
l-143 -215h-75l166 271h103z" />
    <glyph glyph-name="udieresis" unicode="&#xfc;" horiz-adv-x="1236" 
d="M1059 1094v-845q0 -92 -3 -176q-223 -88 -491 -88q-89 0 -156 13t-110 40.5t-70.5 60t-41 81t-18 92t-4.5 105.5v717h84v-689q0 -63 4.5 -106.5t18 -84.5t38 -66.5t64 -45.5t96.5 -28.5t135 -8.5q80 0 193 20t175 46q2 116 2 191v772h84zM476 1336q-29 0 -49.5 21
t-20.5 50t20.5 50t49.5 21t50 -21t21 -50t-21 -50t-50 -21zM747 1336q-29 0 -50.5 21t-21.5 50t21.5 50t50.5 21t50 -21t21 -50t-21 -50t-50 -21z" />
    <glyph glyph-name="yacute" unicode="&#xfd;" horiz-adv-x="1022" 
d="M160 1094l391 -892l307 892h85l-510 -1497h-85l164 482l-444 1015h92zM544 1263h-75l172 270h122z" />
    <glyph glyph-name="thorn" unicode="&#xfe;" horiz-adv-x="1177" 
d="M250 1432v-372q186 49 352 49q163 0 258.5 -54t140.5 -176t45 -332t-45 -332t-140.5 -176t-258.5 -54q-166 0 -352 49v-437h-83v1835h83zM559 1029q-154 0 -309 -51v-861q158 -52 309 -52q120 0 195.5 22t123 79.5t66 147t18.5 233.5t-18.5 233.5t-66 147t-123 79.5
t-195.5 22z" />
    <glyph glyph-name="ydieresis" unicode="&#xff;" horiz-adv-x="1022" 
d="M391 1317q-29 0 -49.5 21.5t-20.5 50.5t20.5 50t49.5 21t50.5 -21t21.5 -50t-21.5 -50.5t-50.5 -21.5zM662 1317q-29 0 -50.5 21.5t-21.5 50.5t21.5 50t50.5 21t50 -21t21 -50t-21 -50.5t-50 -21.5zM160 1094l391 -892l307 892h85l-510 -1497h-85l164 482l-444 1015h92z
" />
    <glyph glyph-name="Abreve" unicode="&#x102;" horiz-adv-x="1333" 
d="M439 1779h65q10 -54 51 -90t110 -36t109.5 35.5t50.5 90.5h67q-11 -86 -67 -138.5t-160 -52.5t-159.5 52.5t-66.5 138.5zM69 0l543 1387q12 31 25 45t32 14q36 0 59 -59l537 -1387h-93l-169 436h-675l-171 -436h-88zM973 513l-306 790l-309 -790h615z" />
    <glyph glyph-name="abreve" unicode="&#x103;" horiz-adv-x="1141" 
d="M967 787v-544q0 -92 -3 -176q-184 -82 -433 -82q-229 0 -333.5 69.5t-104.5 247.5q0 296 261 336q143 22 530 34v85q0 64 -8.5 106t-30 76t-61.5 52.5t-100.5 28t-148.5 9.5q-125 0 -354 -34l-9 77q241 37 395 37q73 0 129.5 -7.5t109 -29t86.5 -56.5t54.5 -93t20.5 -136
zM884 316v276q-361 -5 -507 -32q-104 -20 -151 -76.5t-47 -178.5q0 -141 78 -190t276 -49q185 0 348 59q3 174 3 191zM741 1494h67q-11 -99 -67 -159.5t-160 -60.5t-159.5 60.5t-66.5 159.5h65q10 -63 51 -104.5t110 -41.5t109.5 41.5t50.5 104.5z" />
    <glyph glyph-name="Aogonek" unicode="&#x104;" horiz-adv-x="1333" 
d="M1345 -283l21 -53q-62 -46 -142 -46q-71 0 -116.5 41t-45.5 111q0 62 36.5 123t86.5 107h-13l-169 436h-675l-171 -436h-88l543 1387q12 31 25 45t32 14q36 0 59 -59l537 -1387h-21q-98 -105 -98 -190q0 -51 30 -81.5t81 -30.5q48 0 88 19zM358 513h615l-306 790z" />
    <glyph glyph-name="aogonek" unicode="&#x105;" horiz-adv-x="1141" 
d="M908 -242l21 -53q-61 -45 -142 -45q-71 0 -116 40.5t-45 110.5q0 90 80 185q-90 -11 -175 -11q-229 0 -333.5 69.5t-104.5 247.5q0 296 261 336q143 22 530 34v85q0 64 -8.5 106t-30 76t-61.5 52.5t-100.5 28t-148.5 9.5q-125 0 -354 -34l-9 77q241 37 395 37
q73 0 129.5 -7.5t109 -29t86.5 -56.5t54.5 -93t20.5 -136v-544q0 -92 -3 -176q-89 -38 -185 -58q-70 -86 -70 -158q0 -51 30 -81.5t81 -30.5q48 0 88 19zM884 316v276q-361 -5 -507 -32q-104 -20 -151 -76.5t-47 -178.5q0 -141 78 -190t276 -49q185 0 348 59q3 174 3 191z
" />
    <glyph glyph-name="Cacute" unicode="&#x106;" horiz-adv-x="1040" 
d="M1011 1421l-9 -76q-152 22 -227 22q-80 0 -145.5 -8t-117.5 -22t-92 -39t-69.5 -54t-50 -72t-34 -87.5t-21 -105.5t-10 -122t-2.5 -141q0 -90 4 -158t14.5 -133.5t29 -112.5t47.5 -89.5t69.5 -70.5t95 -48.5t124.5 -29.5t158 -9q67 0 227 21l9 -73q-156 -28 -301 -28
q-114 0 -200 18.5t-149 59t-104.5 97t-66.5 141.5t-35 184t-10 231t10 231t35 184t66.5 141.5t104.5 97t149 58.5t200 18q153 0 301 -25zM889 1796l-234 -219h-80l184 219h130z" />
    <glyph glyph-name="cacute" unicode="&#x107;" horiz-adv-x="885" 
d="M830 1083l-8 -69q-84 15 -177 15q-82 0 -144.5 -10t-107.5 -27t-75.5 -48t-49.5 -65t-29 -87.5t-13 -105t-3 -126.5q0 -71 3 -121.5t13 -105.5t28 -92.5t49 -73t74.5 -56t106.5 -33t143 -12.5q72 0 182 22l9 -75q-157 -28 -245 -28q-109 0 -189 29t-129 78t-79 124.5
t-40.5 157t-10.5 186.5q0 114 11.5 195.5t42 151.5t83.5 112.5t136 66t199 23.5q107 0 220 -26zM745 1529l-219 -270h-75l172 270h122z" />
    <glyph glyph-name="Ccaron" unicode="&#x10c;" horiz-adv-x="1040" 
d="M1011 1421l-9 -76q-152 22 -227 22q-80 0 -145.5 -8t-117.5 -22t-92 -39t-69.5 -54t-50 -72t-34 -87.5t-21 -105.5t-10 -122t-2.5 -141q0 -90 4 -158t14.5 -133.5t29 -112.5t47.5 -89.5t69.5 -70.5t95 -48.5t124.5 -29.5t158 -9q67 0 227 21l9 -73q-156 -28 -301 -28
q-114 0 -200 18.5t-149 59t-104.5 97t-66.5 141.5t-35 184t-10 231t10 231t35 184t66.5 141.5t104.5 97t149 58.5t200 18q153 0 301 -25zM587 1577l-183 219h84l153 -174l153 174h81l-178 -219h-110z" />
    <glyph glyph-name="ccaron" unicode="&#x10d;" horiz-adv-x="885" 
d="M830 1083l-8 -69q-84 15 -177 15q-82 0 -144.5 -10t-107.5 -27t-75.5 -48t-49.5 -65t-29 -87.5t-13 -105t-3 -126.5q0 -71 3 -121.5t13 -105.5t28 -92.5t49 -73t74.5 -56t106.5 -33t143 -12.5q72 0 182 22l9 -75q-157 -28 -245 -28q-109 0 -189 29t-129 78t-79 124.5
t-40.5 157t-10.5 186.5q0 114 11.5 195.5t42 151.5t83.5 112.5t136 66t199 23.5q107 0 220 -26zM480 1261l-170 270h78l143 -214l143 214h76l-166 -270h-104z" />
    <glyph glyph-name="Dcaron" unicode="&#x10e;" horiz-adv-x="1375" 
d="M182 16v1402q195 28 418 28q112 0 199 -15.5t152 -43.5t111.5 -75.5t76 -103.5t47 -135t24 -162.5t6.5 -194.5q0 -130 -9.5 -224t-34 -181t-68 -144t-111.5 -100t-165.5 -62.5t-227.5 -19.5q-213 0 -418 31zM268 1346v-1258q172 -23 289 -23q120 0 211 18.5t151.5 43.5
t101.5 79.5t62 96t31.5 124.5t12 134.5t1.5 154.5t-1.5 154.5t-12 134.5t-31.5 124.5t-62 96t-101.5 79.5t-151.5 43.5t-211 18.5q-104 0 -289 -21zM590 1579l-182 219h84l153 -174l153 174h81l-178 -219h-111z" />
    <glyph glyph-name="dcaron" unicode="&#x10f;" horiz-adv-x="1177" 
d="M1001 1517v-1274q0 -92 -3 -176q-165 -82 -396 -82q-130 0 -218.5 28t-148.5 93.5t-87 173t-27 267.5q0 209 45 331.5t141 176.5t259 54q165 0 351 -49v457h84zM917 978q-155 51 -309 51q-120 0 -195 -22t-122.5 -79.5t-66 -147t-18.5 -233.5q0 -182 41.5 -287.5
t126 -150t228.5 -44.5q174 0 313 60q2 116 2 191v662zM1132 1080l125 437h91l-150 -437h-66z" />
    <glyph glyph-name="Dcroat" unicode="&#x110;" horiz-adv-x="1441" 
d="M248 777v641q195 28 419 28q112 0 199 -15.5t152 -43.5t111 -75.5t76 -103.5t47 -135t23.5 -162.5t6.5 -194.5t-6.5 -194.5t-23.5 -163t-47 -135.5t-76 -103.5t-111 -75.5t-152 -43.5t-199 -15.5q-214 0 -419 31v688h-131v73h131zM577 777v-73h-243v-616q172 -23 289 -23
q120 0 211 18.5t151.5 44t101.5 79.5t62.5 95.5t32 124.5t12 134.5t1.5 154.5t-1.5 154.5t-12 134.5t-32 124.5t-62.5 95.5t-101.5 79.5t-151.5 44t-211 18.5q-104 0 -289 -21v-569h243z" />
    <glyph glyph-name="dcroat" unicode="&#x111;" horiz-adv-x="1177" 
d="M1159 1334v-69h-158v-1022q0 -92 -3 -176q-165 -82 -396 -82q-130 0 -218.5 28t-148.5 93.5t-87 173t-27 267.5q0 209 45 331.5t141 176.5t259 54q165 0 351 -49v205h-228v69h228v183h84v-183h158zM917 978q-155 51 -309 51q-120 0 -195 -22t-122.5 -79.5t-66 -147
t-18.5 -233.5q0 -182 41.5 -287.5t126 -150t228.5 -44.5q174 0 313 60q2 116 2 191v662z" />
    <glyph glyph-name="Eogonek" unicode="&#x118;" horiz-adv-x="1073" 
d="M966 1428v-72h-339q-82 0 -136 -4.5t-97 -19t-66.5 -35t-38.5 -58.5t-20 -83t-5 -114v-273h671v-78h-671v-303q0 -69 5 -114t20 -82.5t38.5 -58t66.5 -34.5t97 -18.5t136 -4.5h339v-75q-20 -1 -41.5 -1.5t-46.5 -1t-39 -0.5q-96 -103 -96 -188q0 -51 30 -81.5t81 -30.5
q48 0 88 19l21 -53q-62 -46 -142 -46q-71 0 -116.5 41t-45.5 111q0 61 35.5 120.5t84.5 106.5q-47 -1 -145 -1q-46 0 -77.5 0.5t-74 4t-71.5 9t-63.5 16.5t-57.5 26t-46 37.5t-36.5 51.5t-22 68t-8.5 86v839q0 60 14 107t35 78.5t58 53.5t71 34t86.5 18.5t92.5 8t100 1.5
q154 0 332 -7z" />
    <glyph glyph-name="eogonek" unicode="&#x119;" horiz-adv-x="1196" 
d="M1021 98l9 -79q-142 -21 -245 -28q-85 -98 -85 -175q0 -51 30 -81.5t81 -30.5q48 0 88 19l21 -53q-61 -45 -142 -45q-71 0 -116.5 40.5t-45.5 110.5q0 104 104 212q-123 -3 -137 -3q-103 0 -181 28t-127.5 76t-80.5 120.5t-43.5 154t-12.5 183.5q0 303 105 432.5
t367 129.5q104 0 183.5 -21.5t132.5 -60.5t86.5 -97t48 -127t14.5 -155q0 -67 -3 -121q-94 -15 -257.5 -30t-279.5 -20l-311 -12q4 -45 8.5 -75.5t12 -69t18 -64t26.5 -54.5t37.5 -47.5t51.5 -37t67.5 -29t86.5 -17t108 -6.5q164 0 381 33zM610 1029q-116 0 -191 -26
t-119 -87.5t-61 -149t-17 -223.5l343 16q214 10 422 34q3 42 3 97q0 339 -380 339z" />
    <glyph glyph-name="Ecaron" unicode="&#x11a;" horiz-adv-x="1073" 
d="M177 295v839q0 60 14 107t35 78.5t58 53.5t71 34t86.5 18.5t92.5 8t100 1.5q154 0 332 -7v-72h-339q-82 0 -136 -4.5t-97 -19t-66.5 -35t-38.5 -58.5t-20 -83t-5 -114v-273h671v-78h-671v-303q0 -69 5 -114t20 -82.5t38.5 -58t66.5 -34.5t97 -18.5t136 -4.5h339v-75
q-120 -5 -332 -5q-46 0 -77.5 0.5t-74 4t-71.5 9t-63.5 16.5t-57.5 26t-46 37.5t-36.5 51.5t-22 68t-8.5 86zM648 1573h-110l-183 219h84l153 -174l153 174h81z" />
    <glyph glyph-name="ecaron" unicode="&#x11b;" horiz-adv-x="1196" 
d="M535 477l-311 -12q4 -45 8.5 -75.5t12 -69t18 -64t26.5 -54.5t37.5 -47.5t51.5 -37t67.5 -29t86.5 -17t108 -6.5q164 0 381 33l9 -79q-233 -34 -447 -34q-103 0 -181 28t-127.5 76t-80.5 120.5t-43.5 154t-12.5 183.5q0 303 105 432.5t367 129.5q104 0 183.5 -21.5
t132.5 -60.5t86.5 -97t48 -127t14.5 -155q0 -67 -3 -121q-94 -15 -257.5 -30t-279.5 -20zM222 543l343 16q214 10 422 34q3 42 3 97q0 339 -380 339q-116 0 -191 -26t-119 -87.5t-61 -149t-17 -223.5zM555 1255l-170 270h78l143 -214l144 214h75l-166 -270h-104z" />
    <glyph glyph-name="Gbreve" unicode="&#x11e;" horiz-adv-x="1295" 
d="M1113 1419l-8 -78q-193 25 -326 25q-90 0 -161.5 -9t-126.5 -29.5t-95 -47.5t-68.5 -70t-46 -89t-27.5 -113t-13.5 -134t-3.5 -158q0 -79 3 -140t10.5 -122t20.5 -105.5t34 -87t51 -72t70 -54.5t91.5 -39.5t116.5 -22.5t145 -8q60 0 105.5 5.5t77 14t53 24.5t33.5 31.5
t18.5 40.5t8 45t1.5 52v370h-272v77h359v-523q0 -43 -12 -76t-31.5 -56t-53 -39t-67 -25t-85 -13.5t-95 -6t-106.5 -1.5q-136 0 -233 28t-161.5 82t-102 145t-52.5 204t-15 272q0 161 15 274t52.5 204t102 144t161.5 80.5t233 27.5q224 0 400 -27zM464 1776h66
q10 -54 50.5 -90t109.5 -36t109.5 35.5t50.5 90.5h67q-11 -86 -67 -138.5t-160 -52.5t-159.5 52.5t-66.5 138.5z" />
    <glyph glyph-name="gbreve" unicode="&#x11f;" horiz-adv-x="1181" 
d="M920 -66v125q-186 -49 -352 -49q-164 0 -259 52t-140 171t-45 326q0 206 50.5 326.5t153.5 172t276 51.5q231 0 396 -82q3 -84 3 -176v-946q0 -97 -29.5 -162.5t-86.5 -99.5t-124.5 -47.5t-159.5 -13.5q-155 0 -395 37l9 77q229 -34 354 -34q88 0 148.5 9.5t100.5 28
t61.5 52.5t30 76t8.5 106zM920 141v638q0 17 -3 191q-137 59 -313 59q-143 0 -228 -44t-126.5 -146.5t-41.5 -279.5q0 -141 18.5 -228.5t66 -143t122.5 -76.5t196 -21q154 0 309 51zM756 1494h67q-11 -99 -67.5 -159.5t-160.5 -60.5t-159.5 60.5t-66.5 159.5h66
q10 -63 50.5 -104.5t109.5 -41.5t110 41.5t51 104.5z" />
    <glyph glyph-name="Idotaccent" unicode="&#x130;" horiz-adv-x="454" 
d="M154 1682q0 31 21.5 52.5t52.5 21.5t52.5 -21.5t21.5 -52.5t-21.5 -53t-52.5 -22t-52.5 22t-21.5 53zM271 0h-87v1432h87v-1432z" />
    <glyph glyph-name="dotlessi" unicode="&#x131;" horiz-adv-x="400" 
d="M242 1094v-1094h-83v1094h83z" />
    <glyph glyph-name="Lacute" unicode="&#x139;" horiz-adv-x="976" 
d="M941 76v-76q-127 -4 -238 -4h-67q-46 0 -77.5 0.5t-74 4t-71.5 9t-63.5 16.5t-57.5 26t-46 37.5t-36.5 51.5t-22 68t-8.5 86v1137h87v-1044q0 -51 2.5 -87.5t10.5 -69.5t19.5 -55t32 -40.5t46.5 -29t64 -18t83 -10t106 -2.5h311zM500 1797l-234 -219h-80l184 219h130z
" />
    <glyph glyph-name="lacute" unicode="&#x13a;" horiz-adv-x="415" 
d="M152 283v1234h84v-1223q0 -187 94 -301l-67 -42q-111 126 -111 332zM470 1850l-234 -219h-81l185 219h130z" />
    <glyph glyph-name="Lcaron" unicode="&#x13d;" horiz-adv-x="976" 
d="M941 76v-76q-127 -4 -238 -4h-67q-46 0 -77.5 0.5t-74 4t-71.5 9t-63.5 16.5t-57.5 26t-46 37.5t-36.5 51.5t-22 68t-8.5 86v1137h87v-1044q0 -51 2.5 -87.5t10.5 -69.5t19.5 -55t32 -40.5t46.5 -29t64 -18t83 -10t106 -2.5h311zM422 994l124 438h91l-150 -438h-65z" />
    <glyph glyph-name="lcaron" unicode="&#x13e;" horiz-adv-x="415" 
d="M152 283v1234h84v-1223q0 -187 94 -301l-67 -42q-111 126 -111 332zM367 1080l125 437h91l-150 -437h-66z" />
    <glyph glyph-name="Lslash" unicode="&#x141;" horiz-adv-x="1065" 
d="M269 1432h86v-667l301 227v-94l-301 -226v-284q0 -102 12 -158.5t53.5 -93.5t109.5 -48.5t190 -11.5h310v-76q-127 -4 -238 -4h-67q-61 0 -100 1.5t-92 7.5t-86.5 18t-70.5 33.5t-58 53t-35 78.5t-14 107v311l-169 -127v92l169 128v733z" />
    <glyph glyph-name="lslash" unicode="&#x142;" horiz-adv-x="418" 
d="M154 789v728h84v-652l145 131v-96l-145 -131v-475q0 -187 94 -301l-67 -42q-111 126 -111 332v411l-145 -130v94z" />
    <glyph glyph-name="Nacute" unicode="&#x143;" horiz-adv-x="1437" 
d="M1121 44l-850 1258v-1302h-85v1387q0 29 16 44t38 15q37 0 77 -59l850 -1258v1303h85v-1388q0 -29 -15.5 -44t-37.5 -15q-38 0 -78 59zM651 1575l185 219h130l-234 -219h-81z" />
    <glyph glyph-name="nacute" unicode="&#x144;" horiz-adv-x="1239" 
d="M983 0v689q0 63 -4.5 106.5t-18 84.5t-38 66.5t-64 45.5t-96.5 28.5t-135 8.5q-81 0 -195.5 -20t-176.5 -46q-2 -116 -2 -191v-772h-84v845q0 92 3 176q223 88 494 88q89 0 156 -13t110 -40.5t70.5 -59.5t41 -80.5t18 -92.5t4.5 -105v-718h-83zM630 1264h-75l172 270h122
z" />
    <glyph glyph-name="Ncaron" unicode="&#x147;" horiz-adv-x="1437" 
d="M1121 44l-850 1258v-1302h-85v1387q0 29 16 44t38 15q37 0 77 -59l850 -1258v1303h85v-1388q0 -29 -15.5 -44t-37.5 -15q-38 0 -78 59zM952 1788l-178 -219h-110l-183 219h84l153 -174l153 174h81z" />
    <glyph glyph-name="ncaron" unicode="&#x148;" horiz-adv-x="1239" 
d="M983 0v689q0 63 -4.5 106.5t-18 84.5t-38 66.5t-64 45.5t-96.5 28.5t-135 8.5q-81 0 -195.5 -20t-176.5 -46q-2 -116 -2 -191v-772h-84v845q0 92 3 176q223 88 494 88q89 0 156 -13t110 -40.5t70.5 -59.5t41 -80.5t18 -92.5t4.5 -105v-718h-83zM761 1529h76l-166 -270
h-104l-170 270h78l143 -214z" />
    <glyph glyph-name="Ohungarumlaut" unicode="&#x150;" horiz-adv-x="1395" 
d="M1242 716q0 -161 -16 -276t-53 -204.5t-100 -143t-155 -80.5t-220 -27t-220 27t-155 80.5t-100 143t-53 204.5t-16 276q0 201 25 334t87.5 224.5t167 131.5t264.5 40t264.5 -40t167 -131.5t87.5 -224.5t25 -334zM241 716q0 -96 2 -156.5t12 -137t28 -123t51.5 -96.5
t81.5 -76.5t119 -44t163 -17.5t162.5 17.5t118.5 44t81 76.5t51.5 96.5t28 122.5t12 137t2.5 157t-2.5 157t-12 137t-28 123t-51.5 96.5t-81 76t-118.5 44t-162.5 17.5t-163 -17.5t-119 -44t-81.5 -76.5t-51.5 -96t-28 -123t-12 -137.5t-2 -156.5zM589 1582h-74l174 219h131
zM936 1801h131l-232 -219h-75z" />
    <glyph glyph-name="ohungarumlaut" unicode="&#x151;" horiz-adv-x="1238" 
d="M1094 547q0 -303 -107.5 -432.5t-367.5 -129.5q-261 0 -368 127t-107 435t107 435t368 127q260 0 367.5 -128.5t107.5 -433.5zM229 547q0 -191 39.5 -295.5t121.5 -145.5t229 -41q148 0 231.5 45t121.5 148.5t38 288.5q0 186 -37 289t-120.5 148t-233.5 45
q-147 0 -229 -41t-121.5 -145.5t-39.5 -295.5zM511 1277h-69l163 270h122zM835 1547h122l-216 -270h-70z" />
    <glyph glyph-name="OE" unicode="&#x152;" horiz-adv-x="2050" 
d="M1241 769h671v-78h-671v-303q0 -69 5 -114t20 -82.5t38.5 -58t66.5 -34.5t97 -18.5t136 -4.5h339v-75q-120 -5 -332 -5q-54 0 -89.5 1t-83.5 5.5t-80 13t-68 24.5t-59 38.5t-42 56t-28 76.5q-58 -118 -169 -172t-294 -54q-128 0 -220 27t-155 80.5t-100 143t-53 204.5
t-16 276q0 201 25 334t87.5 224.5t167 131.5t264.5 40q183 0 294.5 -54t169.5 -172q10 50 32 87t57.5 60t71.5 37.5t89.5 20.5t94.5 8t104 2q154 0 332 -7v-72h-339q-82 0 -136 -4.5t-97 -19t-66.5 -35t-38.5 -58.5t-20 -83t-5 -114v-273zM241 716q0 -96 2 -156.5t12 -137
t28 -123t51.5 -96.5t81.5 -76.5t119 -44t163 -17.5t162.5 17.5t118.5 44t81 76.5t51.5 96.5t28 122.5t12 137t2.5 157t-2.5 157t-12 137t-28 123t-51.5 96.5t-81 76t-118.5 44t-162.5 17.5t-163 -17.5t-119 -44t-81.5 -76.5t-51.5 -96t-28 -123t-12 -137.5t-2 -156.5z" />
    <glyph glyph-name="oe" unicode="&#x153;" horiz-adv-x="2068" 
d="M619 1109q178 0 281.5 -58t150.5 -186q45 127 148 185.5t282 58.5q129 0 221 -32t145 -94.5t76.5 -144.5t23.5 -190q0 -67 -3 -121q-94 -15 -257.5 -30t-279.5 -20l-311 -12q4 -45 8.5 -75.5t12 -69t18 -64t26.5 -54.5t37.5 -47.5t51.5 -37t67.5 -29t86.5 -17t108 -6.5
q164 0 381 33l9 -79q-233 -34 -448 -34q-307 0 -400 253q-46 -132 -150.5 -192.5t-284.5 -60.5q-261 0 -368 127t-107 435t107 435t368 127zM619 65q148 0 231.5 45t121.5 148.5t38 288.5q0 186 -37 289t-120.5 148t-233.5 45q-147 0 -229 -41t-121.5 -145.5t-39.5 -295.5
t39.5 -295.5t121.5 -145.5t229 -41zM1094 543l343 16q214 10 422 34q3 42 3 97q0 339 -381 339q-116 0 -191 -26t-118.5 -87.5t-60.5 -149t-17 -223.5z" />
    <glyph glyph-name="Racute" unicode="&#x154;" horiz-adv-x="1269" 
d="M181 0v1416q198 30 421 30q69 0 124.5 -4t114 -15t102.5 -30t84.5 -50.5t66 -74t40.5 -103t15 -135.5q0 -107 -27.5 -184t-81.5 -124.5t-123 -72.5t-163 -35l364 -618h-102l-354 612q-14 -1 -43 -1q-108 0 -352 13v-624h-86zM267 1343v-636q160 -16 335 -16q116 0 197 16
t142 54t90.5 105.5t29.5 167.5q0 181 -102.5 257t-348.5 76q-162 0 -343 -24zM844 1798l-234 -219h-81l184 219h131z" />
    <glyph glyph-name="racute" unicode="&#x155;" horiz-adv-x="712" 
d="M252 0h-84v851q0 92 3 176q165 82 397 82q62 0 102 -5l-8 -81q-58 4 -94 4q-175 0 -314 -60q-2 -116 -2 -191v-776zM323 1265l172 271h121l-218 -271h-75z" />
    <glyph glyph-name="Rcaron" unicode="&#x158;" horiz-adv-x="1269" 
d="M181 0v1416q198 30 421 30q69 0 124.5 -4t114 -15t102.5 -30t84.5 -50.5t66 -74t40.5 -103t15 -135.5q0 -107 -27.5 -184t-81.5 -124.5t-123 -72.5t-163 -35l364 -618h-102l-354 612q-14 -1 -43 -1q-108 0 -352 13v-624h-86zM267 1343v-636q160 -16 335 -16q116 0 197 16
t142 54t90.5 105.5t29.5 167.5q0 181 -102.5 257t-348.5 76q-162 0 -343 -24zM559 1579l-183 219h84l153 -174l153 174h81l-178 -219h-110z" />
    <glyph glyph-name="rcaron" unicode="&#x159;" horiz-adv-x="712" 
d="M252 0h-84v851q0 92 3 176q165 82 397 82q62 0 102 -5l-8 -81q-58 4 -94 4q-175 0 -314 -60q-2 -116 -2 -191v-776zM630 1529l-166 -270h-104l-170 270h78l143 -214l143 214h76z" />
    <glyph glyph-name="Sacute" unicode="&#x15a;" horiz-adv-x="1035" 
d="M622 1366q-88 0 -153 -6.5t-122.5 -23.5t-94 -45.5t-57 -74.5t-20.5 -109q0 -53 5 -89t21.5 -67.5t39.5 -52.5t67.5 -43t95 -39.5t133.5 -41.5q70 -21 123 -42t108.5 -54.5t91 -74t58 -99t22.5 -129.5q0 -208 -123.5 -299t-371.5 -91q-197 0 -341 29l9 76
q163 -25 326 -25q75 0 134 7.5t112.5 28t88 54t55 87.5t20.5 126t-20.5 122t-69 88t-109 63.5t-160.5 55.5q-62 18 -102.5 32t-87 33.5t-75.5 39t-57.5 47.5t-44.5 60t-25.5 75t-9.5 95q0 200 118 283.5t357 83.5q171 0 337 -26l-8 -76q-154 22 -270 22zM789 1802l-234 -219
h-81l185 219h130z" />
    <glyph glyph-name="sacute" unicode="&#x15b;" horiz-adv-x="941" 
d="M527 1029q-42 0 -68 -0.5t-65 -4.5t-64 -11t-54 -20.5t-45.5 -32.5t-27.5 -48.5t-11 -67.5q0 -109 53 -149t207 -84q29 -8 44 -13q193 -57 271.5 -124.5t78.5 -192.5q0 -68 -20.5 -119.5t-56 -85t-88.5 -54t-113 -29t-134 -8.5q-167 0 -325 31l9 73q143 -23 274 -23
q34 0 55 0.5t55 2.5t56.5 5.5t51.5 10.5t48.5 17.5t40 26t32.5 36t19.5 48t7.5 60.5q0 45 -11.5 77.5t-31 56t-61.5 44.5t-85 35.5t-119 37.5q-140 41 -182 60q-121 55 -151 158q-11 39 -11 86q0 80 26 136t77.5 87t117 44.5t153.5 13.5q161 0 331 -32l-9 -72
q-146 24 -275 24zM732 1542l-219 -271h-75l172 271h122z" />
    <glyph glyph-name="Scedilla" unicode="&#x15e;" horiz-adv-x="1035" 
d="M900 1420l-8 -76q-154 22 -270 22q-88 0 -153 -6.5t-122.5 -23.5t-94 -45.5t-57 -74.5t-20.5 -109q0 -53 5 -89t21.5 -67.5t39.5 -52.5t67.5 -43t95 -39.5t133.5 -41.5q70 -21 123 -42t108.5 -54.5t91 -74t58 -99t22.5 -129.5q0 -178 -91.5 -269.5t-272.5 -112.5l-52 -82
q68 -3 112 -39t44 -98q0 -78 -56 -115t-140 -37q-74 0 -127 28l22 57q53 -23 109 -23q44 0 76.5 18.5t32.5 62.5q0 50 -55.5 77.5t-110.5 27.5l69 116q-18 -1 -55 -1q-197 0 -341 29l9 76q163 -25 326 -25q75 0 134 7.5t112.5 28t88 54t55 87.5t20.5 126t-20.5 122t-69 88
t-109 63.5t-160.5 55.5q-62 18 -102.5 32t-87 33.5t-75.5 39t-57.5 47.5t-44.5 60t-25.5 75t-9.5 95q0 200 118 283.5t357 83.5q171 0 337 -26z" />
    <glyph glyph-name="scedilla" unicode="&#x15f;" horiz-adv-x="941" 
d="M811 1077l-9 -72q-146 24 -275 24q-42 0 -68 -0.5t-65 -4.5t-64 -11t-54 -20.5t-45.5 -32.5t-27.5 -48.5t-11 -67.5q0 -109 53 -149t207 -84q29 -8 44 -13q193 -57 271.5 -124.5t78.5 -192.5q0 -138 -78.5 -206t-221.5 -84l-51 -81q68 -3 112 -39t44 -98
q0 -78 -56.5 -115t-140.5 -37q-73 0 -126 28l21 57q53 -23 109 -23q43 0 76 19t33 63q0 50 -55 77t-111 27l69 117q-6 0 -18 -0.5t-18 -0.5q-167 0 -325 31l9 73q143 -23 274 -23q34 0 55 0.5t55 2.5t56.5 5.5t51.5 10.5t48.5 17.5t40 26t32.5 36t19.5 48t7.5 60.5
q0 45 -11.5 77.5t-31 56t-61.5 44.5t-85 35.5t-119 37.5q-140 41 -182 60q-121 55 -151 158q-11 39 -11 86q0 80 26 136t77.5 87t117 44.5t153.5 13.5q161 0 331 -32z" />
    <glyph glyph-name="Scaron" unicode="&#x160;" horiz-adv-x="1035" 
d="M622 1366q-88 0 -153 -6.5t-122.5 -23.5t-94 -45.5t-57 -74.5t-20.5 -109q0 -53 5 -89t21.5 -67.5t39.5 -52.5t67.5 -43t95 -39.5t133.5 -41.5q70 -21 123 -42t108.5 -54.5t91 -74t58 -99t22.5 -129.5q0 -208 -123.5 -299t-371.5 -91q-197 0 -341 29l9 76
q163 -25 326 -25q75 0 134 7.5t112.5 28t88 54t55 87.5t20.5 126t-20.5 122t-69 88t-109 63.5t-160.5 55.5q-62 18 -102.5 32t-87 33.5t-75.5 39t-57.5 47.5t-44.5 60t-25.5 75t-9.5 95q0 200 118 283.5t357 83.5q171 0 337 -26l-8 -76q-154 22 -270 22zM478 1583l-182 219
h83l153 -174l154 174h80l-177 -219h-111z" />
    <glyph glyph-name="scaron" unicode="&#x161;" horiz-adv-x="941" 
d="M527 1029q-42 0 -68 -0.5t-65 -4.5t-64 -11t-54 -20.5t-45.5 -32.5t-27.5 -48.5t-11 -67.5q0 -109 53 -149t207 -84q29 -8 44 -13q193 -57 271.5 -124.5t78.5 -192.5q0 -68 -20.5 -119.5t-56 -85t-88.5 -54t-113 -29t-134 -8.5q-167 0 -325 31l9 73q143 -23 274 -23
q34 0 55 0.5t55 2.5t56.5 5.5t51.5 10.5t48.5 17.5t40 26t32.5 36t19.5 48t7.5 60.5q0 45 -11.5 77.5t-31 56t-61.5 44.5t-85 35.5t-119 37.5q-140 41 -182 60q-121 55 -151 158q-11 39 -11 86q0 80 26 136t77.5 87t117 44.5t153.5 13.5q161 0 331 -32l-9 -72
q-146 24 -275 24zM425 1261l-170 270h78l143 -214l143 214h76l-166 -270h-104z" />
    <glyph glyph-name="uni0162" unicode="&#x162;" horiz-adv-x="1016" 
d="M52 1432h913v-78h-413v-1354h-86v1354h-414v78zM462 -124h85l-140 -406h-60z" />
    <glyph glyph-name="uni0163" unicode="&#x163;" horiz-adv-x="683" 
d="M59 1019v75h211v296l84 13v-309h257v-75h-257v-736q0 -73 11 -116.5t39.5 -66.5t65.5 -30t101 -7q21 0 42 3l7 -72q-45 -9 -82 -9q-141 0 -204.5 65t-63.5 212v757h-211zM496 -131l-139 -407h-61l116 407h84z" />
    <glyph glyph-name="Tcaron" unicode="&#x164;" horiz-adv-x="1016" 
d="M52 1432h913v-78h-413v-1354h-86v1354h-414v78zM661 1776h81l-178 -220h-111l-182 220h84l153 -174z" />
    <glyph glyph-name="tcaron" unicode="&#x165;" horiz-adv-x="683" 
d="M59 1019v75h211v296l84 13v-309h257v-75h-257v-736q0 -73 11 -116.5t39.5 -66.5t65.5 -30t101 -7q21 0 42 3l7 -72q-45 -9 -82 -9q-141 0 -204.5 65t-63.5 212v757h-211zM702 1674l-150 -437h-65l124 437h91z" />
    <glyph glyph-name="Uring" unicode="&#x16e;" horiz-adv-x="1369" 
d="M175 452v980h87v-996q0 -188 99.5 -279.5t318.5 -91.5q221 0 320 91.5t99 279.5v996h86v-980q0 -135 -35 -228.5t-104.5 -144.5t-157 -72.5t-208.5 -21.5t-208.5 21.5t-157 72.5t-104.5 144.5t-35 228.5zM872 1721q0 -79 -56 -135t-135 -56t-135 56t-56 135t56 135
t135 56t135 -56t56 -135zM557 1721q0 -52 36 -88.5t88 -36.5t88.5 36.5t36.5 88.5t-36.5 88t-88.5 36t-88 -36t-36 -88z" />
    <glyph glyph-name="uring" unicode="&#x16f;" horiz-adv-x="1236" 
d="M1059 1094v-845q0 -92 -3 -176q-223 -88 -491 -88q-89 0 -156 13t-110 40.5t-70.5 60t-41 81t-18 92t-4.5 105.5v717h84v-689q0 -63 4.5 -106.5t18 -84.5t38 -66.5t64 -45.5t96.5 -28.5t135 -8.5q80 0 193 20t175 46q2 116 2 191v772h84zM802 1405q0 -79 -56 -135
t-135 -56t-135 56t-56 135t56 134.5t135 55.5t135 -55.5t56 -134.5zM487 1405q0 -52 36 -88.5t88 -36.5t88.5 36.5t36.5 88.5t-36.5 88t-88.5 36t-88 -36t-36 -88z" />
    <glyph glyph-name="Uhungarumlaut" unicode="&#x170;" horiz-adv-x="1369" 
d="M175 452v980h87v-996q0 -188 99.5 -279.5t318.5 -91.5q221 0 320 91.5t99 279.5v996h86v-980q0 -135 -35 -228.5t-104.5 -144.5t-157 -72.5t-208.5 -21.5t-208.5 21.5t-157 72.5t-104.5 144.5t-35 228.5zM555 1585h-74l174 218h131zM901 1803h131l-231 -218h-75z" />
    <glyph glyph-name="uhungarumlaut" unicode="&#x171;" horiz-adv-x="1236" 
d="M1059 1094v-845q0 -92 -3 -176q-223 -88 -491 -88q-89 0 -156 13t-110 40.5t-70.5 60t-41 81t-18 92t-4.5 105.5v717h84v-689q0 -63 4.5 -106.5t18 -84.5t38 -66.5t64 -45.5t96.5 -28.5t135 -8.5q80 0 193 20t175 46q2 116 2 191v772h84zM497 1293h-69l162 270h123z
M821 1563h122l-216 -270h-70z" />
    <glyph glyph-name="Ydieresis" unicode="&#x178;" horiz-adv-x="1114" 
d="M434 1599q-29 0 -50 21t-21 50t21 50t50 21t50 -21t21 -50t-21 -50t-50 -21zM704 1599q-29 0 -50 21t-21 50t21 50t50 21t50 -21t21 -50t-21 -50t-50 -21zM510 0v559l-454 873h97l404 -775l408 775h94l-461 -873v-559h-88z" />
    <glyph glyph-name="Zacute" unicode="&#x179;" horiz-adv-x="1062" 
d="M176 77h803v-77h-849q-64 0 -64 40q0 22 25 64l783 1250h-757v78h803q64 0 64 -40q0 -24 -24 -64zM649 1787h131l-234 -220h-81z" />
    <glyph glyph-name="zacute" unicode="&#x17a;" horiz-adv-x="1035" 
d="M192 77h718v-77h-799q-46 0 -46 33q0 19 17 41l735 943h-701v77h783q45 0 45 -32q0 -19 -17 -41zM632 1545h121l-218 -270h-75z" />
    <glyph glyph-name="Zdotaccent" unicode="&#x17b;" horiz-adv-x="1062" 
d="M176 77h803v-77h-849q-64 0 -64 40q0 22 25 64l783 1250h-757v78h803q64 0 64 -40q0 -24 -24 -64zM610 1682q0 -31 -21.5 -52.5t-52.5 -21.5t-53 21.5t-22 52.5t22 53t53 22t52.5 -22t21.5 -53z" />
    <glyph glyph-name="zdotaccent" unicode="&#x17c;" horiz-adv-x="1035" 
d="M192 77h718v-77h-799q-46 0 -46 33q0 19 17 41l735 943h-701v77h783q45 0 45 -32q0 -19 -17 -41zM655 1376q0 -31 -21.5 -53t-52.5 -22t-53 22t-22 53t22 52.5t53 21.5t52.5 -21.5t21.5 -52.5z" />
    <glyph glyph-name="Zcaron" unicode="&#x17d;" horiz-adv-x="1062" 
d="M176 77h803v-77h-849q-64 0 -64 40q0 22 25 64l783 1250h-757v78h803q64 0 64 -40q0 -24 -24 -64zM600 1567h-110l-183 220h84l153 -174l153 174h81z" />
    <glyph glyph-name="zcaron" unicode="&#x17e;" horiz-adv-x="1035" 
d="M192 77h718v-77h-799q-46 0 -46 33q0 19 17 41l735 943h-701v77h783q45 0 45 -32q0 -19 -17 -41zM576 1275h-104l-170 270h78l143 -214l143 214h76z" />
    <glyph glyph-name="florin" unicode="&#x192;" horiz-adv-x="900" 
d="M471 766l-96 -689q-24 -171 -115.5 -263t-213.5 -92q-33 0 -45 2l11 76h14q95 0 169.5 71t92.5 205l97 690h-234l9 75h235l38 272q18 128 104 209t220 81q38 0 78 -8l-10 -77q-26 6 -58 6q-107 0 -170.5 -62t-80.5 -177l-35 -244h277l-10 -75h-277z" />
    <glyph glyph-name="uni0218" unicode="&#x218;" horiz-adv-x="1035" 
d="M622 1366q-88 0 -153 -6.5t-122.5 -23.5t-94 -45.5t-57 -74.5t-20.5 -109q0 -53 5 -89t21.5 -67.5t39.5 -52.5t67.5 -43t95 -39.5t133.5 -41.5q70 -21 123 -42t108.5 -54.5t91 -74t58 -99t22.5 -129.5q0 -208 -123.5 -299t-371.5 -91q-197 0 -341 29l9 76
q163 -25 326 -25q75 0 134 7.5t112.5 28t88 54t55 87.5t20.5 126t-20.5 122t-69 88t-109 63.5t-160.5 55.5q-62 18 -102.5 32t-87 33.5t-75.5 39t-57.5 47.5t-44.5 60t-25.5 75t-9.5 95q0 200 118 283.5t357 83.5q171 0 337 -26l-8 -76q-154 22 -270 22zM393 -536l116 406
h85l-140 -406h-61z" />
    <glyph glyph-name="uni0219" unicode="&#x219;" horiz-adv-x="941" 
d="M527 1029q-42 0 -68 -0.5t-65 -4.5t-64 -11t-54 -20.5t-45.5 -32.5t-27.5 -48.5t-11 -67.5q0 -109 53 -149t207 -84q29 -8 44 -13q193 -57 271.5 -124.5t78.5 -192.5q0 -68 -20.5 -119.5t-56 -85t-88.5 -54t-113 -29t-134 -8.5q-167 0 -325 31l9 73q143 -23 274 -23
q34 0 55 0.5t55 2.5t56.5 5.5t51.5 10.5t48.5 17.5t40 26t32.5 36t19.5 48t7.5 60.5q0 45 -11.5 77.5t-31 56t-61.5 44.5t-85 35.5t-119 37.5q-140 41 -182 60q-121 55 -151 158q-11 39 -11 86q0 80 26 136t77.5 87t117 44.5t153.5 13.5q161 0 331 -32l-9 -72
q-146 24 -275 24zM361 -532l115 407h85l-139 -407h-61z" />
    <glyph glyph-name="uni021A" unicode="&#x21a;" horiz-adv-x="1016" 
d="M52 1432h913v-78h-413v-1354h-86v1354h-414v78zM462 -124h85l-140 -406h-60z" />
    <glyph glyph-name="uni021B" unicode="&#x21b;" horiz-adv-x="683" 
d="M59 1019v75h211v296l84 13v-309h257v-75h-257v-736q0 -73 11 -116.5t39.5 -66.5t65.5 -30t101 -7q21 0 42 3l7 -72q-45 -9 -82 -9q-141 0 -204.5 65t-63.5 212v757h-211zM496 -131l-139 -407h-61l116 407h84z" />
    <glyph glyph-name="circumflex" unicode="&#x2c6;" horiz-adv-x="637" 
d="M369 1453l170 -271h-78l-143 215l-143 -215h-76l166 271h104z" />
    <glyph glyph-name="caron" unicode="&#x2c7;" horiz-adv-x="607" 
d="M449 1453h75l-166 -271h-104l-170 271h78l143 -215z" />
    <glyph glyph-name="uni02C9" unicode="&#x2c9;" horiz-adv-x="827" 
d="M151 1262v73h525v-73h-525z" />
    <glyph glyph-name="breve" unicode="&#x2d8;" horiz-adv-x="654" 
d="M101 1427h66q10 -63 50.5 -104t109.5 -41t109.5 41t50.5 104h67q-11 -99 -67 -159.5t-160 -60.5t-159.5 60.5t-66.5 159.5z" />
    <glyph glyph-name="dotaccent" unicode="&#x2d9;" horiz-adv-x="381" 
d="M117 1314q0 31 21.5 53t52.5 22t52.5 -22t21.5 -53t-21.5 -52.5t-52.5 -21.5t-52.5 21.5t-21.5 52.5z" />
    <glyph glyph-name="ring" unicode="&#x2da;" horiz-adv-x="623" 
d="M503 1339q0 -79 -55.5 -135t-135.5 -56q-79 0 -135 56t-56 135t56 134.5t135 55.5t135 -55.5t56 -134.5zM187 1339q0 -52 36.5 -88.5t88.5 -36.5t88 36.5t36 88.5t-36 88t-88 36t-88.5 -36t-36.5 -88z" />
    <glyph glyph-name="ogonek" unicode="&#x2db;" horiz-adv-x="430" 
d="M363 -289l20 -53q-62 -46 -142 -46q-71 0 -116 41t-45 111q0 64 39 127t91 109h58q-105 -110 -105 -197q0 -51 30.5 -81t81.5 -30q48 0 88 19z" />
    <glyph glyph-name="tilde" unicode="&#x2dc;" horiz-adv-x="701" 
d="M194 1227h-67q9 82 45 126t81 44q36 0 64.5 -15.5t43 -33.5t34.5 -33.5t41 -15.5q56 0 72 93h66q-9 -81 -44.5 -125t-81.5 -44q-36 0 -64.5 15t-43 33.5t-34 33.5t-40.5 15q-55 0 -72 -93z" />
    <glyph glyph-name="hungarumlaut" unicode="&#x2dd;" horiz-adv-x="650" 
d="M152 1175h-70l163 270h122zM476 1445h122l-216 -270h-70z" />
    <glyph glyph-name="uni03A9" unicode="&#x3a9;" horiz-adv-x="1486" 
d="M1359 0h-441v69q63 43 119 105.5t104.5 146.5t77 194.5t28.5 230.5q0 89 -19.5 177t-60.5 168t-98.5 141t-140 97.5t-178.5 36.5q-154 0 -270.5 -83.5t-176.5 -224.5t-60 -317q0 -113 28.5 -222t76 -193.5t104.5 -150t119 -106.5v-69h-444v79h323q-129 113 -210.5 292
t-81.5 393q0 148 45.5 275.5t124.5 216.5t188.5 139.5t234.5 50.5q171 0 305.5 -95t205 -247.5t70.5 -331.5q0 -220 -85 -404t-211 -289h323v-79z" />
    <glyph glyph-name="uni03BC" unicode="&#x3bc;" horiz-adv-x="1162" 
d="M932 1094v-751q0 -39 0.5 -60.5t2 -54t5 -51t10 -42t16.5 -37t24.5 -26t33.5 -18.5v-69q-47 0 -80 21t-51 61t-26.5 81t-13.5 97h-1q-35 -119 -123 -189.5t-191 -70.5q-76 0 -133 30t-114 97v-515h-83v1497h83v-728q0 -125 63 -208.5t182 -83.5q141 0 226.5 133t85.5 334
v553h84z" />
    <glyph glyph-name="pi" unicode="&#x3c0;" horiz-adv-x="1393" 
d="M957 1013h-493q-44 -767 -121 -1013h-103q57 194 90 426t61 588h-107q-110 0 -210 -45l-21 48q78 77 274 77h999l-10 -81h-285q-41 -236 -41 -504q0 -229 63 -335t210 -106l-6 -83q-103 0 -174 33t-108.5 96.5t-52.5 138t-15 175.5q0 280 50 585z" />
    <glyph glyph-name="uni200A" unicode="&#x200a;" horiz-adv-x="44" 
 />
    <glyph glyph-name="uni2010" unicode="&#x2010;" horiz-adv-x="836" 
d="M680 504h-522v80h522v-80z" />
    <glyph glyph-name="endash" unicode="&#x2013;" horiz-adv-x="1302" 
d="M1145 508h-987v73h987v-73z" />
    <glyph glyph-name="emdash" unicode="&#x2014;" horiz-adv-x="2256" 
d="M2100 508h-1942v73h1942v-73z" />
    <glyph glyph-name="quoteleft" unicode="&#x2018;" horiz-adv-x="403" 
d="M197 1029h-102l168 488h72z" />
    <glyph glyph-name="quoteright" unicode="&#x2019;" horiz-adv-x="403" 
d="M234 1517h101l-167 -488h-73z" />
    <glyph glyph-name="quotesinglbase" unicode="&#x201a;" horiz-adv-x="396" 
d="M195 233h102l-168 -488h-72z" />
    <glyph glyph-name="quotedblleft" unicode="&#x201c;" horiz-adv-x="637" 
d="M335 1517l-138 -488h-102l167 488h73zM570 1517l-139 -488h-102l168 488h73z" />
    <glyph glyph-name="quotedblright" unicode="&#x201d;" horiz-adv-x="637" 
d="M95 1029l139 488h101l-167 -488h-73zM330 1029l138 488h102l-168 -488h-72z" />
    <glyph glyph-name="quotedblbase" unicode="&#x201e;" horiz-adv-x="631" 
d="M195 233h102l-168 -488h-72zM430 233h101l-167 -488h-73z" />
    <glyph glyph-name="dagger" unicode="&#x2020;" horiz-adv-x="1086" 
d="M90 1021h407v439h84v-439h416v-79h-416v-1200h-84v1200h-407v79z" />
    <glyph glyph-name="daggerdbl" unicode="&#x2021;" horiz-adv-x="1142" 
d="M614 565h408v-78h-408v-745h-84v745h-410v78h410v424h-410v79h410v392h84v-392h408v-79h-408v-424z" />
    <glyph glyph-name="bullet" unicode="&#x2022;" horiz-adv-x="820" 
d="M135 688q0 114 80.5 194.5t194.5 80.5t195 -80.5t81 -194.5t-81 -195t-195 -81t-194.5 81t-80.5 195z" />
    <glyph glyph-name="ellipsis" unicode="&#x2026;" horiz-adv-x="1708" 
d="M198 152q29 0 40 -19.5t11 -65.5t-10.5 -64t-40.5 -18t-39.5 17.5t-9.5 64.5t10.5 66t38.5 19zM854 152q29 0 39.5 -19.5t10.5 -65.5q0 -47 -10 -64.5t-40 -17.5t-40 17.5t-10 64.5q0 46 10.5 65.5t39.5 19.5zM1509 152q29 0 40 -19.5t11 -65.5t-10.5 -64t-40.5 -18
t-40 17.5t-10 64.5q0 46 10.5 65.5t39.5 19.5z" />
    <glyph glyph-name="perthousand" unicode="&#x2030;" horiz-adv-x="2317" 
d="M113 1020q0 112 11.5 185t43 128.5t89 80.5t146.5 25t147 -25t89.5 -80.5t43 -128.5t11.5 -185t-12 -185t-43 -129t-89 -81t-147 -25t-146.5 25t-89 81t-43 129t-11.5 185zM629 1020q0 46 -1 76.5t-4 68t-10 62t-18 51.5t-27.5 43.5t-39.5 30.5t-54.5 20.5t-71.5 6.5
t-71.5 -6.5t-54.5 -20.5t-39.5 -30.5t-27 -43.5t-17 -51t-9.5 -62.5t-4 -68t-1 -76.5q0 -46 1 -76.5t4 -68.5t9.5 -62t17 -51t27.5 -43.5t39.5 -30.5t54 -20.5t71.5 -6.5t71.5 6.5t54.5 20.5t39.5 30.5t27.5 43.5t18 51.5t10 62t4 68t1 76.5zM932 412q0 112 11.5 185
t43 128.5t89 80.5t146.5 25t147 -25t89.5 -80.5t43 -128.5t11.5 -185t-11.5 -185t-43 -128.5t-89.5 -80.5t-147 -25t-146.5 25t-89 80.5t-43 128.5t-11.5 185zM1448 412q0 62 -2 100.5t-9 85t-21.5 74t-39 52.5t-63 36t-91.5 11q-40 0 -71.5 -6.5t-54 -20.5t-39.5 -30.5
t-27.5 -43.5t-17 -51t-9.5 -62t-4 -68.5t-1 -76.5q0 -41 0.5 -68.5t3 -62t7 -57t12.5 -49t19.5 -43t28.5 -33t38.5 -26t50.5 -15t64 -5.5q45 0 80 9.5t58.5 24t40 41.5t26 53t14.5 67.5t6 76t1 87.5zM1613 412q0 113 11.5 185.5t42.5 128t88.5 80.5t146.5 25t147 -25
t89.5 -80.5t43.5 -128.5t12 -185t-12 -185t-43.5 -128.5t-89.5 -80.5t-147 -25t-146.5 25t-88.5 80.5t-42.5 128t-11.5 185.5zM2128 412q0 46 -1 76.5t-4 68t-10 62t-18 51.5t-27.5 43.5t-39.5 30.5t-54.5 20.5t-71.5 6.5q-45 0 -79.5 -9.5t-58 -24t-40 -42t-25.5 -53
t-13.5 -68t-5.5 -75.5t-1 -87t1 -87.5t5.5 -76t13.5 -67.5t25.5 -52.5t40 -42t58 -24t79.5 -9.5t80 9.5t58.5 24t40 41.5t26 53t14.5 67.5t6 76t1 87.5zM348 -29l840 1490h89l-841 -1490h-88z" />
    <glyph glyph-name="guilsinglleft" unicode="&#x2039;" horiz-adv-x="578" 
d="M88 530l276 389h93l-251 -389l252 -389h-94z" />
    <glyph glyph-name="guilsinglright" unicode="&#x203a;" horiz-adv-x="578" 
d="M215 919l275 -389l-275 -389h-94l251 389l-250 389h93z" />
    <glyph glyph-name="fraction" unicode="&#x2044;" horiz-adv-x="302" 
d="M616 1461l-841 -1490h-88l840 1490h89z" />
    <glyph glyph-name="uni2070" unicode="&#x2070;" horiz-adv-x="766" 
d="M383 1672q89 0 147 -25t89.5 -80.5t43 -128.5t11.5 -185t-12 -185t-43 -129t-89 -81t-147 -25t-146.5 25t-89 81t-43 129t-11.5 185t11.5 185t43 128.5t89 80.5t146.5 25zM383 1612q-40 0 -71.5 -6.5t-54.5 -20.5t-39.5 -30.5t-27 -43.5t-17 -51t-9.5 -62.5t-4 -68
t-1 -76.5q0 -41 0.5 -68.5t3 -62t7 -57t12.5 -49t19.5 -43t28.5 -33t38.5 -26t50.5 -15t64 -5.5q40 0 71.5 6.5t54 20.5t39.5 30.5t28 43t17.5 51t9.5 62.5t4 68.5t1 76.5t-1 76.5t-4 68t-9.5 62t-17.5 51.5t-28 43.5t-39.5 30.5t-54 20.5t-71.5 6.5z" />
    <glyph glyph-name="uni2074" unicode="&#x2074;" horiz-adv-x="724" 
d="M665 1101v-58h-118v-202h-65v202h-376q-64 0 -64 50q0 25 38 73l356 459q35 46 71 46q40 0 40 -51v-519h118zM482 1101v479l-371 -479h371z" />
    <glyph glyph-name="uni2075" unicode="&#x2075;" horiz-adv-x="654" 
d="M60 857l8 59q101 -18 196 -18q140 0 199 43.5t59 157.5q0 44 -13.5 75.5t-37 50.5t-63 29.5t-82.5 14t-105 3.5q-83 0 -144 -4l27 397h460v-61h-399l-19 -275q52 4 99 4q55 0 95.5 -3t82 -12t69.5 -26t51 -43t34 -65t11 -91q0 -136 -74 -197t-222 -61q-116 0 -232 22z
" />
    <glyph glyph-name="uni2076" unicode="&#x2076;" horiz-adv-x="737" 
d="M390 1341q142 0 211.5 -53.5t69.5 -196.5q0 -146 -76 -202t-226 -56q-84 0 -140.5 22.5t-87 69t-42.5 104t-12 139.5q0 120 12 200.5t41 142t82.5 95t131 50t192.5 16.5q21 0 57 -1l6 -58q-167 -4 -225 -15q-140 -27 -191 -131q-28 -58 -34 -144q158 18 231 18zM605 1093
q0 113 -56 150.5t-185 37.5q-47 0 -210 -21q-2 -37 -2 -109q0 -44 4 -77t17 -69t35.5 -58.5t62.5 -37.5t95 -15q132 0 185.5 45.5t53.5 153.5z" />
    <glyph glyph-name="uni2077" unicode="&#x2077;" horiz-adv-x="608" 
d="M496 1604h-470v59h483q60 0 60 -39q0 -13 -9 -31l-347 -751h-72z" />
    <glyph glyph-name="uni2078" unicode="&#x2078;" horiz-adv-x="743" 
d="M80 1061q0 157 136 208q-67 31 -95 80.5t-28 122.5q0 96 69 148t209 52q137 0 207.5 -52.5t70.5 -147.5q0 -74 -28.5 -123t-95.5 -80q139 -53 139 -209q0 -54 -15.5 -95t-41.5 -65.5t-65 -40t-79.5 -21t-91.5 -5.5q-291 0 -291 228zM598 1065q0 87 -62 125.5t-172 45.5
q-106 -10 -162 -46.5t-56 -124.5q0 -50 17.5 -84.5t50 -53t70.5 -26t87 -7.5q107 0 167 36.5t60 134.5zM159 1458q0 -146 218 -163q44 6 78 16t65 28t47.5 48t16.5 71q0 154 -213 154q-46 0 -81 -6.5t-66 -23t-48 -48t-17 -76.5z" />
    <glyph glyph-name="uni2079" unicode="&#x2079;" horiz-adv-x="734" 
d="M342 1164q-70 0 -118.5 11t-87 38t-57.5 77t-19 124q0 146 76.5 202t226.5 56q84 0 140.5 -22.5t87 -69t42.5 -104t12 -139.5q0 -100 -8 -171t-28 -130t-53 -95.5t-85 -61.5t-121 -35.5t-165 -10.5q-21 0 -57 1l-6 58q167 4 225 15q140 27 191 131q28 58 34 144
q-158 -18 -230 -18zM126 1412q0 -113 55.5 -150t185.5 -37q54 0 210 20q2 37 2 109q0 44 -4 77t-17 69t-35.5 58.5t-62 37.5t-94.5 15q-132 0 -186 -45.5t-54 -153.5z" />
    <glyph glyph-name="uni2080" unicode="&#x2080;" horiz-adv-x="766" 
d="M383 598q89 0 147 -25t89.5 -80.5t43 -128.5t11.5 -185t-12 -185t-43 -129t-89 -81t-147 -25t-146.5 25t-89 81t-43 129t-11.5 185t11.5 185t43 128.5t89 80.5t146.5 25zM383 538q-40 0 -71.5 -6.5t-54.5 -20.5t-39.5 -30.5t-27 -43.5t-17 -51t-9.5 -62.5t-4 -68
t-1 -76.5q0 -41 0.5 -68.5t3 -62t7 -57t12.5 -49t19.5 -43t28.5 -33t38.5 -26t50.5 -15t64 -5.5q40 0 71.5 6.5t54 20.5t39.5 30.5t28 43t17.5 51t9.5 62.5t4 68.5t1 76.5t-1 76.5t-4 68t-9.5 62t-17.5 51.5t-28 43.5t-39.5 30.5t-54 20.5t-71.5 6.5z" />
    <glyph glyph-name="uni2081" unicode="&#x2081;" horiz-adv-x="421" 
d="M307 -229h-64v743q-102 -30 -212 -48l-4 59q124 21 231 67h49v-821z" />
    <glyph glyph-name="uni2082" unicode="&#x2082;" horiz-adv-x="635" 
d="M574 -173v-60h-525q13 76 24.5 123.5t29.5 93t42.5 74.5t61 54.5t88.5 47.5q214 91 214 229q0 80 -54.5 113t-178.5 33q-91 0 -209 -18l-7 57q136 23 238 23q277 0 277 -190q0 -109 -61 -178t-177 -118q-104 -43 -147 -107t-61 -177h445z" />
    <glyph glyph-name="uni2083" unicode="&#x2083;" horiz-adv-x="644" 
d="M263 598q49 0 87.5 -4.5t77 -16.5t63.5 -33t41 -55.5t16 -81.5q0 -154 -120 -206q54 -20 94.5 -71t40.5 -126q0 -135 -77.5 -190t-228.5 -55q-122 0 -221 21l8 59q131 -18 190 -18q137 0 199.5 39t62.5 138q0 69 -45 113t-116 51q-52 5 -93 5q-24 0 -70 -2v57
q93 2 163 13q67 10 107 52t40 100q0 41 -12 69t-30 44t-51.5 24.5t-64 10.5t-79.5 2q-76 0 -193 -18l-8 58q111 21 219 21z" />
    <glyph glyph-name="uni2084" unicode="&#x2084;" horiz-adv-x="724" 
d="M665 27v-58h-118v-202h-65v202h-376q-64 0 -64 49q0 26 38 74l356 459q35 46 71 46q40 0 40 -51v-519h118zM482 27v479l-371 -479h371z" />
    <glyph glyph-name="uni2085" unicode="&#x2085;" horiz-adv-x="654" 
d="M60 -218l8 59q96 -17 196 -17q140 0 199 43.5t59 157.5q0 44 -13.5 75.5t-37 50.5t-63 29.5t-82.5 14t-105 3.5q-83 0 -144 -4l27 396h460v-60h-399l-19 -275q52 4 99 4q66 0 113 -4.5t93.5 -19.5t74.5 -41t45 -70t17 -106q0 -136 -74 -196.5t-222 -60.5q-121 0 -232 21z
" />
    <glyph glyph-name="uni2086" unicode="&#x2086;" horiz-adv-x="737" 
d="M390 267q142 0 211.5 -53.5t69.5 -196.5q0 -146 -76 -202t-226 -56q-84 0 -140.5 22.5t-87 69t-42.5 104t-12 139.5q0 120 12 200.5t41 142t82.5 95t131 50t192.5 16.5q21 0 57 -1l6 -58q-167 -4 -225 -15q-140 -27 -191 -131q-28 -59 -34 -144q158 18 231 18zM605 19
q0 113 -55.5 150t-185.5 37q-54 0 -210 -20q-2 -37 -2 -109q0 -44 4 -77t17 -69t35.5 -58.5t62.5 -37.5t95 -15q132 0 185.5 45.5t53.5 153.5z" />
    <glyph glyph-name="uni2087" unicode="&#x2087;" horiz-adv-x="608" 
d="M496 530h-470v59h483q60 0 60 -39q0 -13 -9 -31l-347 -751h-72z" />
    <glyph glyph-name="uni2088" unicode="&#x2088;" horiz-adv-x="743" 
d="M80 -13q0 157 136 208q-67 31 -95 80.5t-28 122.5q0 96 69 148t209 52q137 0 207.5 -52.5t70.5 -147.5q0 -74 -28.5 -123t-95.5 -80q139 -53 139 -209q0 -54 -15.5 -95t-41.5 -65.5t-65 -40t-79.5 -21t-91.5 -5.5q-291 0 -291 228zM598 -9q0 87 -62 125.5t-172 45.5
q-106 -10 -162 -46.5t-56 -124.5q0 -50 17.5 -84.5t50 -53t70.5 -26t87 -7.5q107 0 167 36.5t60 134.5zM159 383q0 -145 218 -162q44 6 77.5 15.5t65 27.5t48 48t16.5 71q0 155 -213 155q-212 0 -212 -155z" />
    <glyph glyph-name="uni2089" unicode="&#x2089;" horiz-adv-x="734" 
d="M342 90q-70 0 -118.5 11t-87 38t-57.5 77t-19 124q0 146 76.5 202t226.5 56q84 0 140.5 -22.5t87 -69t42.5 -104t12 -139.5q0 -100 -8 -171t-28 -130t-53 -95.5t-85 -61.5t-121 -35.5t-165 -10.5q-21 0 -57 1l-6 58q167 4 225 15q140 27 191 131q28 58 34 144
q-158 -18 -230 -18zM126 338q0 -113 55.5 -150t185.5 -37q54 0 210 20q2 37 2 109q0 44 -4 77t-17 69t-35.5 58.5t-62 37.5t-94.5 15q-132 0 -186 -45.5t-54 -153.5z" />
    <glyph glyph-name="Euro" unicode="&#x20ac;" horiz-adv-x="1039" 
d="M342 863h496l-18 -75h-481v-94v-77h443l-16 -75h-424q6 -127 26.5 -212t65.5 -148t120.5 -91.5t188.5 -28.5q77 0 209 21l7 -71q-131 -27 -246 -27q-242 0 -342 129.5t-115 427.5h-154l17 75h135q-1 25 -1 77q0 64 1 94h-140l17 75h126q9 145 35 243t79 166.5t136.5 99.5
t205.5 31q129 0 246 -24l-8 -74q-125 22 -208 22q-76 0 -135 -12.5t-102 -39t-72.5 -63.5t-48.5 -91t-29 -115.5t-14 -142.5z" />
    <glyph glyph-name="uni2113" unicode="&#x2113;" horiz-adv-x="944" 
d="M251 449l-148 -93l-26 58l175 124q0 96 1 165.5t5 153t11 143t19 124.5t29 110t42 87.5t56.5 67.5t73 40t92.5 15q97 0 147.5 -76t50.5 -193q0 -88 -37 -182t-102 -181t-138 -161.5t-160 -146.5q16 -229 73.5 -334.5t189.5 -105.5q70 0 117 29.5t107 91.5l38 -47
q-112 -153 -285 -153q-83 0 -145.5 38t-100 106t-57.5 146t-28 174zM699 1181q0 34 -6 65.5t-19.5 60.5t-39.5 46.5t-61 17.5q-46 0 -82 -24.5t-59.5 -62.5t-40.5 -97.5t-25.5 -114t-14 -129.5t-7 -127t-3 -122.5t-2.5 -101.5q88 82 148.5 148.5t111.5 140t75.5 148
t24.5 152.5z" />
    <glyph glyph-name="trademark" unicode="&#x2122;" horiz-adv-x="2006" 
d="M1028 1432l329 -736l324 736h135v-857h-80v784l-1 1l-354 -785h-55l-353 785h-1v-785h-80v857h136zM98 1432h660v-71h-292v-786h-76v786h-292v71z" />
    <glyph glyph-name="Omega" unicode="&#x2126;" horiz-adv-x="1486" 
d="M1359 0h-441v69q63 43 119 105.5t104.5 146.5t77 194.5t28.5 230.5q0 89 -19.5 177t-60.5 168t-98.5 141t-140 97.5t-178.5 36.5q-154 0 -270.5 -83.5t-176.5 -224.5t-60 -317q0 -113 28.5 -222t76 -193.5t104.5 -150t119 -106.5v-69h-444v79h323q-129 113 -210.5 292
t-81.5 393q0 148 45.5 275.5t124.5 216.5t188.5 139.5t234.5 50.5q171 0 305.5 -95t205 -247.5t70.5 -331.5q0 -220 -85 -404t-211 -289h323v-79z" />
    <glyph glyph-name="estimated" unicode="&#x212e;" horiz-adv-x="1726" 
d="M1389 305h127q-125 -153 -282 -236.5t-366 -83.5q-163 0 -302.5 51.5t-236.5 141t-151.5 214t-54.5 266.5q0 134 53 255.5t147 214.5t236 148t309 55q171 0 308.5 -51t228.5 -142.5t144 -212.5t66 -267h-1166v-455q172 -145 419 -145q326 0 521 247zM449 1112v-381h840
v381q-185 147 -421 147q-249 0 -419 -147z" />
    <glyph glyph-name="uni2190" unicode="&#x2190;" horiz-adv-x="1448" 
d="M1337 642v-82h-1070l381 -432h-98l-438 473l438 474h98l-381 -433h1070z" />
    <glyph glyph-name="uni2191" unicode="&#x2191;" horiz-adv-x="1169" 
d="M1059 775v-98l-432 381v-1070h-83v1070l-432 -381v98l474 439z" />
    <glyph glyph-name="uni2192" unicode="&#x2192;" horiz-adv-x="1448" 
d="M800 1075h99l438 -474l-438 -473h-99l381 432h-1069v82h1069z" />
    <glyph glyph-name="uni2193" unicode="&#x2193;" horiz-adv-x="1169" 
d="M627 1214v-1070l432 381v-98l-473 -439l-474 439v98l432 -381v1070h83z" />
    <glyph glyph-name="uni21E8" unicode="&#x21e8;" horiz-adv-x="1637" 
d="M1595 602l-641 -621v342h-838v558h838v341zM1054 423v-201l399 380l-399 379v-201h-839v-357h839z" />
    <glyph glyph-name="partialdiff" unicode="&#x2202;" horiz-adv-x="1059" 
d="M434 -15q-106 0 -182.5 57.5t-112 147.5t-35.5 200q0 217 110 351.5t302 134.5q108 0 194.5 -56.5t122.5 -123.5h1q1 354 -87.5 520t-288.5 166q-94 0 -197 -58l-19 62q103 72 256 72q141 0 236 -87.5t138.5 -237t43.5 -355.5q0 -233 -56 -411t-166 -280t-260 -102z
M528 804q-105 0 -183 -58.5t-116 -151t-38 -203.5q0 -137 68.5 -236t189.5 -99q85 0 154.5 48.5t113.5 129.5t69.5 174t33.5 194q-115 202 -292 202z" />
    <glyph glyph-name="Delta" unicode="&#x2206;" horiz-adv-x="1278" 
d="M707 1432l485 -1351v-81h-1105v77l495 1355h125zM178 79h920l-457 1275z" />
    <glyph glyph-name="product" unicode="&#x220f;" horiz-adv-x="1579" 
d="M1158 1392h-735v-1665h-86v1665h-252v83h1409v-83h-250v-1665h-86v1665z" />
    <glyph glyph-name="summation" unicode="&#x2211;" horiz-adv-x="1206" 
d="M179 -189h957v-85h-1065v84l616 797l-591 792v76h1006v-80h-891l591 -779z" />
    <glyph glyph-name="minus" unicode="&#x2212;" horiz-adv-x="1201" 
d="M112 560v82h979v-82h-979z" />
    <glyph glyph-name="uni2215" unicode="&#x2215;" horiz-adv-x="302" 
d="M616 1461l-841 -1490h-88l840 1490h89z" />
    <glyph glyph-name="uni2219" unicode="&#x2219;" horiz-adv-x="410" 
d="M205 670q29 0 39.5 -19t10.5 -65q0 -47 -10 -64.5t-40 -17.5t-40 17.5t-10 64.5q0 46 10.5 65t39.5 19z" />
    <glyph glyph-name="radical" unicode="&#x221a;" horiz-adv-x="1103" 
d="M52 793l230 91l278 -863l383 1704h87l-413 -1817h-104l-298 867l-140 -55z" />
    <glyph glyph-name="infinity" unicode="&#x221e;" horiz-adv-x="1617" 
d="M742 673q47 60 77 96.5t73 79.5t78.5 66.5t80 39.5t91.5 16q148 0 235.5 -108t87.5 -261q0 -98 -37 -181t-112 -136t-174 -53q-47 0 -92.5 17t-80 40t-79 68t-72.5 77.5t-76 93.5q-162 -220 -346 -220q-114 0 -190.5 88.5t-76.5 205.5t76.5 205.5t190.5 88.5
q178 0 346 -223zM697 602q-92 117 -162.5 165.5t-138.5 48.5q-82 0 -136 -58t-54 -156t53.5 -155.5t136.5 -57.5q68 0 139 48t162 165zM793 602q190 -287 349 -287q105 0 172 75.5t67 211.5t-67 211.5t-172 75.5q-159 0 -349 -287z" />
    <glyph glyph-name="integral" unicode="&#x222b;" horiz-adv-x="675" 
d="M-18 -218q63 -30 113 -30q108 0 163 109.5t55 298.5q0 157 -17.5 505.5t-17.5 503.5q0 72 7 134.5t28 128.5t55 112.5t92 76t134 29.5q27 0 62 -8.5t48 -17.5l-23 -79q-39 24 -84 24q-51 0 -91 -18.5t-63.5 -53t-39.5 -72.5t-23 -90t-9 -90.5t-2 -88.5q0 -162 18.5 -496
t18.5 -506q0 -83 -14 -160.5t-46 -154.5t-95 -124t-150 -47q-36 0 -77.5 10t-62.5 21z" />
    <glyph glyph-name="approxequal" unicode="&#x2248;" horiz-adv-x="1340" 
d="M1170 479v-85q-47 -51 -122 -77t-152 -26q-63 0 -124 20t-103 44.5t-102.5 44.5t-122.5 20q-77 0 -151.5 -26t-122.5 -77v85q47 51 122 76.5t152 25.5q63 0 124 -20t103.5 -44t103 -44t121.5 -20q77 0 152 26t122 77zM1170 885v-85q-47 -51 -122 -77t-152 -26
q-63 0 -124 20t-103 44.5t-102.5 44.5t-122.5 20q-77 0 -151.5 -26t-122.5 -77v86q47 51 122 76.5t152 25.5q63 0 124 -20t103.5 -44t103 -44t121.5 -20q78 0 152.5 25.5t121.5 76.5z" />
    <glyph glyph-name="notequal" unicode="&#x2260;" horiz-adv-x="1319" 
d="M428 -9h-73l161 365h-346v81h381l143 326h-524v81h560l161 367h73l-161 -367h346v-81h-382l-143 -326h525v-81h-560z" />
    <glyph glyph-name="lessequal" unicode="&#x2264;" horiz-adv-x="1237" 
d="M143 667v88l935 431v-97l-845 -379l845 -378v-96zM143 17v82h935v-82h-935z" />
    <glyph glyph-name="greaterequal" unicode="&#x2265;" horiz-adv-x="1237" 
d="M160 1186l935 -431v-88l-935 -431v96l844 378l-844 379v97zM160 17v82h935v-82h-935z" />
    <glyph glyph-name="lozenge" unicode="&#x25ca;" horiz-adv-x="1040" 
d="M575 1459l362 -741l-362 -745h-109l-362 745l362 741h109zM200 718l320 -669l321 669l-321 670z" />
    <glyph glyph-name="zero.numerator" horiz-adv-x="766" 
d="M383 1439q89 0 147 -25t89.5 -80.5t43 -128.5t11.5 -185t-12 -185t-43 -129t-89 -81t-147 -25t-146.5 25t-89 81t-43 129t-11.5 185t11.5 185t43 128.5t89 80.5t146.5 25zM383 1379q-40 0 -71.5 -6.5t-54.5 -20.5t-39.5 -30.5t-27 -43.5t-17 -51t-9.5 -62.5t-4 -68
t-1 -76.5q0 -41 0.5 -68.5t3 -62t7 -57t12.5 -49t19.5 -43t28.5 -33t38.5 -26t50.5 -15t64 -5.5q40 0 71.5 6.5t54 20.5t39.5 30.5t28 43t17.5 51t9.5 62.5t4 68.5t1 76.5t-1 76.5t-4 68t-9.5 62t-17.5 51.5t-28 43.5t-39.5 30.5t-54 20.5t-71.5 6.5z" />
    <glyph glyph-name="one.numerator" horiz-adv-x="421" 
d="M307 612h-64v744q-109 -32 -212 -49l-4 60q124 21 231 67h49v-822z" />
    <glyph glyph-name="two.numerator" horiz-adv-x="635" 
d="M574 669v-61h-525q13 77 24.5 124t29.5 92.5t42.5 75t61 55t88.5 47.5q214 91 214 228q0 80 -54.5 113t-178.5 33q-91 0 -209 -18l-7 57q136 23 238 23q277 0 277 -189q0 -109 -61 -178.5t-177 -118.5q-104 -43 -147 -107t-61 -176h445z" />
    <glyph glyph-name="three.numerator" horiz-adv-x="644" 
d="M263 1439q62 0 108.5 -7.5t89 -27t65 -58.5t22.5 -97q0 -155 -120 -207q54 -20 94.5 -71t40.5 -126q0 -135 -77.5 -190t-228.5 -55q-122 0 -221 21l8 59q131 -18 190 -18q137 0 199.5 39t62.5 138q0 69 -45 113t-116 51q-52 5 -93 5q-24 0 -70 -2v58q100 2 163 12
q67 10 107 52t40 100q0 41 -12 69t-30 44t-51.5 24.5t-64 10.5t-79.5 2q-76 0 -193 -18l-8 58q111 21 219 21z" />
    <glyph glyph-name="four.numerator" horiz-adv-x="724" 
d="M665 868v-58h-118v-202h-65v202h-376q-64 0 -64 50q0 25 38 73l356 459q35 46 71 46q40 0 40 -51v-519h118zM482 868v479l-371 -479h371z" />
    <glyph glyph-name="five.numerator" horiz-adv-x="654" 
d="M60 624l8 59q101 -18 196 -18q140 0 199 43.5t59 157.5q0 44 -13.5 75.5t-37 50.5t-63 29.5t-82.5 14t-105 3.5q-83 0 -144 -4l27 397h460v-61h-399l-19 -275q52 4 99 4q55 0 95.5 -3t82 -12t69.5 -26t51 -43t34 -65t11 -91q0 -136 -74 -197t-222 -61q-116 0 -232 22z
" />
    <glyph glyph-name="six.numerator" horiz-adv-x="737" 
d="M390 1108q142 0 211.5 -53.5t69.5 -196.5q0 -146 -76 -202t-226 -56q-84 0 -140.5 22.5t-87 69t-42.5 104t-12 139.5q0 120 12 200.5t41 142t82.5 95t131 50t192.5 16.5q21 0 57 -1l6 -58q-167 -4 -225 -15q-140 -27 -191 -131q-28 -58 -34 -144q158 18 231 18zM605 860
q0 113 -56 150.5t-185 37.5q-47 0 -210 -21q-2 -37 -2 -109q0 -44 4 -77t17 -69t35.5 -58.5t62.5 -37.5t95 -15q132 0 185.5 45.5t53.5 153.5z" />
    <glyph glyph-name="seven.numerator" horiz-adv-x="608" 
d="M496 1371h-470v59h483q60 0 60 -39q0 -13 -9 -31l-347 -750h-72z" />
    <glyph glyph-name="eight.numerator" horiz-adv-x="743" 
d="M80 828q0 158 136 209q-67 31 -95 80t-28 122q0 96 69 148t209 52q137 0 207.5 -52.5t70.5 -147.5q0 -74 -28.5 -123t-95.5 -80q139 -53 139 -209q0 -54 -15.5 -95t-41.5 -65.5t-65 -40t-79.5 -21t-91.5 -5.5q-291 0 -291 228zM598 832q0 87 -62 125.5t-172 45.5
q-106 -10 -162 -46.5t-56 -124.5q0 -50 17.5 -84.5t50 -53t70.5 -26t87 -7.5q107 0 167 36.5t60 134.5zM159 1225q0 -146 218 -163q44 6 78 16t65 28t47.5 48t16.5 71q0 154 -213 154q-46 0 -81 -6.5t-66 -23t-48 -48t-17 -76.5z" />
    <glyph glyph-name="nine.numerator" horiz-adv-x="734" 
d="M342 932q-143 0 -212.5 53t-69.5 196q0 146 76.5 202t226.5 56q84 0 140.5 -22.5t87 -69t42.5 -104t12 -139.5q0 -100 -8 -171t-28 -130t-53 -95.5t-85 -61.5t-121 -35.5t-165 -10.5q-21 0 -57 1l-6 58q167 4 225 15q140 27 191 131q28 58 34 144q-149 -17 -230 -17z
M126 1179q0 -113 55.5 -150t185.5 -37q54 0 210 20q2 37 2 109q0 44 -4 77t-17 69t-35.5 58.5t-62 37.5t-94.5 15q-132 0 -186 -45.5t-54 -153.5z" />
    <glyph glyph-name="zero.denominator" horiz-adv-x="766" 
d="M383 831q89 0 147 -25t89.5 -80.5t43 -128.5t11.5 -185t-11.5 -185t-43 -128.5t-89.5 -80.5t-147 -25t-146.5 25t-89 80.5t-43 128.5t-11.5 185t11.5 185t43 128.5t89 80.5t146.5 25zM383 771q-40 0 -71.5 -6.5t-54.5 -20.5t-39.5 -30.5t-27 -43.5t-17 -51t-9.5 -62.5
t-4 -68t-1 -76.5q0 -41 0.5 -68.5t3 -62t7 -57t12.5 -49t19.5 -43t28.5 -33t38.5 -26t50.5 -15t64 -5.5q40 0 71.5 6.5t54 20.5t39.5 30.5t28 43t17.5 51t9.5 62.5t4 68.5t1 76.5t-1 76.5t-4 68t-9.5 62t-17.5 51.5t-28 43.5t-39.5 30.5t-54 20.5t-71.5 6.5z" />
    <glyph glyph-name="one.denominator" horiz-adv-x="421" 
d="M307 4h-64v744q-109 -32 -212 -49l-4 60q124 21 231 67h49v-822z" />
    <glyph glyph-name="two.denominator" horiz-adv-x="635" 
d="M574 61v-61h-525q13 77 24.5 124t29.5 92.5t42.5 75t61 55t88.5 47.5q214 91 214 228q0 80 -54.5 113.5t-178.5 33.5q-84 0 -209 -19l-7 57q136 23 238 23q277 0 277 -189q0 -109 -61 -178t-177 -118q-104 -43 -147 -107t-61 -177h445z" />
    <glyph glyph-name="three.denominator" horiz-adv-x="644" 
d="M263 831q62 0 108.5 -7.5t89 -27t65 -58.5t22.5 -97q0 -155 -120 -207q54 -20 94.5 -70.5t40.5 -125.5q0 -135 -77.5 -190t-228.5 -55q-122 0 -221 21l8 59q138 -19 190 -19q137 0 199.5 39.5t62.5 138.5q0 69 -45 113t-116 51q-41 4 -93 4q-47 0 -70 -1v57q100 2 163 12
q67 10 107 52.5t40 100.5q0 41 -12 69t-30 44t-51.5 24.5t-64 10.5t-79.5 2q-76 0 -193 -18l-8 57q111 21 219 21z" />
    <glyph glyph-name="four.denominator" horiz-adv-x="724" 
d="M665 261v-59h-118v-202h-65v202h-376q-64 0 -64 50q0 25 38 73l356 459q35 46 71 46q40 0 40 -50v-519h118zM482 261v478l-371 -478h371z" />
    <glyph glyph-name="five.denominator" horiz-adv-x="654" 
d="M60 16l8 59q101 -18 196 -18q140 0 199 43.5t59 157.5q0 44 -13.5 75.5t-37 50.5t-63 29.5t-82.5 14t-105 3.5q-83 0 -144 -4l27 397h460v-60h-399l-19 -276q52 4 99 4q55 0 95.5 -3t82 -12t69.5 -26t51 -43t34 -65t11 -91q0 -136 -74 -197t-222 -61q-116 0 -232 22z" />
    <glyph glyph-name="six.denominator" horiz-adv-x="737" 
d="M390 500q70 0 118.5 -11t87 -37.5t57 -76.5t18.5 -124q0 -146 -76 -202t-226 -56q-84 0 -140.5 22.5t-87 69t-42.5 104t-12 139.5q0 100 7.5 171t28 129.5t53 95t84.5 62t121 35.5t165 10h57l6 -59q-167 -4 -225 -15q-140 -27 -191 -131q-28 -58 -34 -144q158 18 231 18z
M605 253q0 113 -55.5 150t-185.5 37q-54 0 -210 -20q-2 -37 -2 -110q0 -44 4 -77t17 -69t35.5 -58.5t62.5 -37.5t95 -15q132 0 185.5 46t53.5 154z" />
    <glyph glyph-name="seven.denominator" horiz-adv-x="608" 
d="M496 764h-470v59h483q60 0 60 -40q0 -13 -9 -31l-347 -750h-72z" />
    <glyph glyph-name="eight.denominator" horiz-adv-x="743" 
d="M80 221q0 157 136 208q-67 31 -95 80t-28 122q0 96 69 148t209 52q137 0 207.5 -52.5t70.5 -147.5q0 -74 -28.5 -123t-95.5 -80q139 -53 139 -209q0 -54 -15.5 -94.5t-41.5 -65.5t-65 -40t-79.5 -20.5t-91.5 -5.5q-291 0 -291 228zM598 224q0 87 -62 126t-172 46
q-106 -10 -162 -47t-56 -125q0 -50 17.5 -84.5t50 -53t70.5 -26t87 -7.5q107 0 167 36.5t60 134.5zM159 617q0 -145 218 -162q44 6 77.5 15.5t65 27.5t48 48t16.5 71q0 154 -213 154q-46 0 -81 -6.5t-66 -23t-48 -48t-17 -76.5z" />
    <glyph glyph-name="nine.denominator" horiz-adv-x="734" 
d="M342 324q-143 0 -212.5 53t-69.5 196q0 146 76.5 202t226.5 56q84 0 140.5 -22.5t87 -69t42.5 -104t12 -139.5q0 -100 -8 -171t-28 -129.5t-52.5 -95t-85 -62t-121.5 -35.5t-165 -10h-57l-6 59q167 4 225 15q140 27 191 131q28 58 34 144q-158 -18 -230 -18zM126 571
q0 -113 55.5 -150t185.5 -37q54 0 210 20q2 37 2 110q0 44 -4 77t-17 69t-35.5 58.5t-62 37.5t-94.5 15q-132 0 -186 -46t-54 -154z" />
    <glyph glyph-name="zero.onum" horiz-adv-x="1179" 
d="M589 -15q-110 0 -188.5 24.5t-128.5 69.5t-78.5 121t-39.5 166t-11 217t11 217t39.5 166t78.5 121t128.5 69.5t188.5 24.5q111 0 189.5 -24.5t128.5 -69.5t79 -121t40 -166t11 -217t-11 -217t-40 -166t-79 -121t-128.5 -69.5t-189.5 -24.5zM589 63q101 0 170.5 26.5
t107.5 66t58 113.5t24.5 139.5t4.5 174.5q0 66 -1.5 111t-7 99.5t-16 90.5t-28.5 74.5t-45 62.5t-64 44.5t-88 29.5t-115 9q-57 0 -103.5 -8t-81.5 -21.5t-62.5 -37.5t-46 -48.5t-31.5 -62t-20.5 -71t-11.5 -83t-5 -90t-1 -99.5t1 -99.5t5 -90t11.5 -82.5t20.5 -71t31.5 -62
t46 -48t62.5 -37.5t81.5 -21.5t103.5 -8z" />
    <glyph glyph-name="one.onum" horiz-adv-x="683" 
d="M498 0h-84v1062q-185 -56 -365 -86l-5 79q99 16 206 48t180 64h68v-1167z" />
    <glyph glyph-name="two.onum" horiz-adv-x="1045" 
d="M944 79v-79h-864q19 90 34.5 149t38.5 118t50 97.5t68 75.5t94 64t125 53q370 131 370 330q0 116 -95 164.5t-313 48.5q-158 0 -341 -25l-11 77q207 29 390 29q454 0 454 -267q0 -154 -102 -253t-293 -169q-176 -64 -254 -159.5t-106 -253.5h755z" />
    <glyph glyph-name="three.onum" horiz-adv-x="987" 
d="M401 1181q75 0 134 -6.5t118 -25.5t98 -50t63.5 -84.5t24.5 -124.5q0 -120 -53 -202.5t-151 -122.5q88 -23 157.5 -103.5t69.5 -204.5q0 -107 -32 -181.5t-95.5 -116.5t-146.5 -60.5t-197 -18.5q-185 0 -337 31l12 78q206 -28 290 -28q219 0 319 63.5t100 223.5
q0 112 -72.5 182.5t-186.5 81.5q-73 7 -157 7q-60 0 -91 -1v74q142 3 248 19q109 16 173.5 84.5t64.5 162.5q0 55 -11.5 95.5t-37.5 67t-55.5 42.5t-77.5 24t-91 10.5t-108 2.5q-124 0 -296 -26l-10 76q171 31 334 31z" />
    <glyph glyph-name="four.onum" horiz-adv-x="1114" 
d="M755 -106v316h-599q-90 0 -90 71q0 39 56 111l558 720q54 69 105 69q54 0 54 -71v-822h184v-78h-184v-316h-84zM755 1071l-607 -783h607v783z" />
    <glyph glyph-name="five.onum" horiz-adv-x="1002" 
d="M92 -88l11 78q145 -27 299 -27q225 0 319.5 70t94.5 253q0 71 -22 122t-59 81.5t-100 48t-132 23.5t-168 6q-114 0 -216 -7l40 607h705v-79h-626q-5 -75 -15 -224t-15 -224q87 6 165 6q84 0 146.5 -5t126.5 -18.5t107.5 -39.5t78.5 -66t52 -100.5t17 -139.5
q0 -211 -113 -304t-341 -93q-186 0 -355 32z" />
    <glyph glyph-name="six.onum" horiz-adv-x="1133" 
d="M600 767q107 0 182 -16.5t134 -58.5t87.5 -118.5t28.5 -191.5q0 -117 -32 -196t-95.5 -122.5t-144 -61t-193.5 -17.5q-105 0 -181.5 24t-125 66t-77 109t-39.5 142.5t-11 176.5q0 155 12 265.5t43.5 202t82 148.5t131.5 96t188 55t255 16q26 0 82 -1l8 -77
q-223 -6 -289 -14q-205 -24 -301 -124q-104 -109 -117 -333q238 30 372 30zM218 476q0 -49 3 -88.5t12 -83.5t24.5 -77.5t41.5 -65t61.5 -52t86.5 -32.5t115 -12q214 0 299.5 73t85.5 247q0 95 -23 155t-75 92t-118.5 43.5t-170.5 11.5q-95 0 -339 -33q-3 -50 -3 -134v-44z
" />
    <glyph glyph-name="seven.onum" horiz-adv-x="934" 
d="M225 -106l558 1196h-744v77h749q86 0 86 -54q0 -18 -13 -46l-543 -1173h-93z" />
    <glyph glyph-name="eight.onum" horiz-adv-x="1142" 
d="M792 661q228 -73 228 -328q0 -83 -24 -145.5t-64 -100.5t-99.5 -61.5t-122 -32t-140.5 -8.5q-100 0 -177.5 17t-140 56t-96 109t-33.5 168q0 256 223 327q-110 47 -156 124t-46 193q0 147 105.5 227t320.5 80q211 0 319.5 -80.5t108.5 -226.5q0 -117 -47 -194t-159 -124z
M570 65q65 0 116 6.5t99.5 24.5t80.5 48t51 79.5t19 116.5q0 73 -28 126t-81 84t-118 47t-150 21q-65 -7 -114 -17t-96 -30.5t-76.5 -49.5t-47.5 -75t-18 -106q0 -65 19 -114t51.5 -79t80 -49t98.5 -26t114 -7zM570 1207q-74 0 -131 -11t-106.5 -37.5t-76.5 -77.5t-27 -124
q0 -66 28 -115.5t78.5 -79t110.5 -45.5t135 -22q71 9 125.5 25t104 44.5t76.5 77t27 115.5q0 59 -19 103.5t-50 72t-76.5 44.5t-93 23.5t-105.5 6.5z" />
    <glyph glyph-name="nine.onum" horiz-adv-x="1129" 
d="M525 399q-107 0 -182 16.5t-134 58.5t-87.5 118.5t-28.5 191.5q0 117 31.5 196t95.5 122.5t144 61t193 17.5q105 0 181.5 -24t125 -66t77 -109t39.5 -142.5t11 -176.5q0 -155 -12 -265.5t-43.5 -202t-82 -148.5t-131.5 -96t-188 -55t-255 -16q-25 0 -81 1l-8 77
q224 6 292 15q205 24 300 126q101 110 114 331q-246 -31 -371 -31zM906 691q0 49 -3 88.5t-12 83.5t-24.5 77.5t-41.5 65t-61.5 52t-86.5 32.5t-115 12q-213 0 -298.5 -73.5t-85.5 -247.5q0 -95 23 -155t74.5 -92t118 -43.5t170.5 -11.5q95 0 339 33q3 75 3 134v45z" />
    <glyph glyph-name="dollar.onum" horiz-adv-x="927" 
d="M103 85q137 -22 291 -22q84 0 145 11.5t112 39.5t77 81.5t26 131.5q0 115 -76.5 177t-240.5 112q-63 19 -103.5 33.5t-85.5 35.5t-72.5 45t-51 56.5t-34 75t-10.5 96.5q0 162 87 238t261 88v178h78v-176q159 0 300 -23l-9 -75q-127 20 -242 20q-96 0 -163 -9.5
t-121 -33.5t-80.5 -69t-26.5 -113q0 -47 4.5 -78.5t19 -59t34.5 -46t59 -38t84 -35t117 -36.5q63 -19 110 -37.5t96.5 -49t81 -66t51.5 -87.5t20 -116q0 -165 -87 -247t-261 -97v-180h-78v176q-3 0 -8.5 -0.5t-7.5 -0.5q-176 0 -306 26z" />
    <glyph glyph-name="cent.onum" horiz-adv-x="810" 
d="M514 135v-174h-76v178q-79 9 -137.5 39.5t-94 74.5t-57.5 108.5t-30 132t-8 153.5q0 116 13.5 195t48.5 143.5t100.5 100t164.5 46.5v179h76v-174h17q103 0 198 -23l-7 -68q-80 13 -160 13q-84 0 -144.5 -10.5t-101.5 -35t-65.5 -54.5t-37.5 -81.5t-17 -102t-4 -128.5
q0 -62 2.5 -106t11.5 -92.5t24.5 -81.5t42.5 -64.5t65.5 -49.5t93.5 -29t125 -11q57 0 165 21l9 -74q-132 -25 -217 -25z" />
    <glyph glyph-name="Euro.onum" horiz-adv-x="958" 
d="M321 793h453l-18 -76h-438v-25.5v-30.5v-26v-21.5v-24.5v-21h406l-17 -75h-386q5 -91 17.5 -156.5t38 -119.5t66 -87t100 -50.5t141.5 -17.5q75 0 193 20l7 -72q-113 -25 -228 -25q-114 0 -191.5 29.5t-126 94t-72 156.5t-30.5 228h-142l17 75h122v21v24.5v21.5v26v30.5
v25.5h-128l17 76h115q15 264 107.5 378.5t311.5 114.5q121 0 228 -22l-8 -75q-118 20 -192 20q-103 0 -171.5 -25t-108.5 -79.5t-58.5 -127.5t-24.5 -184z" />
    <glyph glyph-name="sterling.onum" horiz-adv-x="1055" 
d="M688 681v-76h-297q13 -98 13 -167q0 -82 -13 -146t-28.5 -101t-52.5 -112h389q123 0 276 20l9 -73q-182 -26 -397 -26h-341q-44 0 -44 37q0 12 18.5 50.5t40.5 83t40.5 114t18.5 136.5q0 71 -17 184h-202v76h190q-23 148 -23 277q0 77 22.5 135.5t61 94.5t95 59t117 31.5
t135.5 8.5q174 0 284 -104l-47 -54q-101 79 -231 79q-137 0 -214.5 -32.5t-107.5 -95t-30 -169.5q0 -64 27 -230h308z" />
    <glyph glyph-name="yen.onum" horiz-adv-x="968" 
d="M79 1274h94l310 -672l316 672h90l-340 -722h202v-75h-227v-125h227v-75h-227v-277h-85v277h-222v75h222v125h-222v75h197z" />
    <glyph glyph-name="zero.tnum" 
d="M1091 694q0 -151 -12 -257.5t-43 -196.5t-86 -143.5t-140.5 -82.5t-205.5 -29t-205 29t-139.5 82.5t-85.5 143.5t-42.5 196.5t-11.5 257.5t11.5 257.5t42.5 196.5t85.5 143.5t139.5 82.5t205 29t205.5 -29t140.5 -82.5t86 -143.5t43 -196.5t12 -257.5zM205 694
q0 -94 2 -153t10.5 -133t24.5 -118.5t45 -92.5t71 -73.5t104 -42t142 -16.5q63 0 114.5 10t90.5 26t69 45t51 58.5t35.5 75t22.5 86t12.5 100.5t5.5 108.5t1 119.5q0 64 -1 108.5t-4 99t-9.5 92.5t-17 81.5t-26.5 73t-37.5 60t-51 50t-67 35.5t-84.5 23t-104 7
q-80 0 -142 -16.5t-104 -42t-71 -73.5t-45 -93t-24.5 -119t-10.5 -133t-2 -153z" />
    <glyph glyph-name="one.tnum" 
d="M694 1389h68v-1389h-84v1284q-192 -58 -366 -87l-4 79q208 35 386 113z" />
    <glyph glyph-name="two.tnum" 
d="M1032 0h-875q18 105 33.5 174.5t38.5 138t50.5 113.5t69 88.5t95 76.5t127.5 64q376 158 376 403q0 144 -96.5 204t-317.5 60q-162 0 -347 -30l-10 75q209 36 395 36q461 0 461 -313q0 -95 -28 -172t-82.5 -136.5t-124.5 -104.5t-165 -85q-78 -33 -136 -72t-96.5 -82
t-65.5 -100.5t-42 -117t-27 -140.5h767v-80z" />
    <glyph glyph-name="three.tnum" 
d="M504 1403q81 0 145.5 -7t129 -27.5t107 -54t69 -91t26.5 -135.5q0 -277 -230 -356v-1q43 -9 86 -34.5t82 -66t63 -102t24 -133.5q0 -116 -35 -196.5t-104 -127t-159.5 -66.5t-214.5 -20q-206 0 -365 33l11 78q221 -29 316 -29q242 0 353 70.5t111 247.5q0 126 -80 203.5
t-209 89.5q-76 7 -194 7q-50 0 -74 -1v74q140 3 268 22q122 19 193.5 93.5t71.5 179.5q0 53 -10.5 93.5t-28.5 69t-48.5 48t-62 31t-79 17.5t-89.5 8t-103 2q-136 0 -322 -28l-9 76q178 33 361 33z" />
    <glyph glyph-name="four.tnum" 
d="M825 0v347h-660q-95 0 -95 75q0 39 61 118l612 789q57 74 112 74q56 0 56 -74v-904h201v-78h-201v-347h-86zM825 1298l-676 -873h676v873z" />
    <glyph glyph-name="five.tnum" 
d="M161 20l10 78q158 -29 325 -29q125 0 208.5 17t141 58.5t83 110t25.5 172.5q0 79 -24 135.5t-65.5 90t-111.5 52.5t-145.5 25.5t-184.5 6.5q-142 0 -234 -7l44 659h765v-80h-685l-34 -498q105 7 185 7q78 0 138 -3.5t122.5 -14.5t107.5 -29t86 -48.5t66.5 -72
t40.5 -100.5t15 -133q0 -230 -123.5 -331t-371.5 -101q-195 0 -384 35z" />
    <glyph glyph-name="six.tnum" 
d="M641 834q92 0 161.5 -11t129.5 -38.5t98 -74.5t59.5 -120t21.5 -173q0 -102 -23.5 -178t-65.5 -124t-107 -77.5t-139 -41t-171 -11.5q-113 0 -196.5 26t-136 72t-84 118.5t-43.5 155t-12 192.5q0 169 13 290t47.5 220.5t89.5 161.5t143.5 104.5t205 60t278.5 17.5
q24 0 85 -1l8 -77q-238 -7 -312 -15q-219 -26 -324 -130q-123 -122 -137 -379q270 33 411 33zM1026 420q0 84 -18 143.5t-50 96.5t-87 58t-118.5 28.5t-154.5 7.5q-100 0 -375 -36q-4 -68 -4 -164v-35q0 -54 3.5 -97.5t13.5 -92t27 -85.5t46 -72t68.5 -57.5t96 -36
t126.5 -13.5q235 0 330.5 81t95.5 274z" />
    <glyph glyph-name="seven.tnum" 
d="M345 0l612 1311h-817v78h817q90 0 90 -56q0 -23 -13 -49l-595 -1284h-94z" />
    <glyph glyph-name="eight.tnum" 
d="M1094 363q0 -90 -26 -157.5t-69.5 -109t-108.5 -67t-133 -35t-153 -9.5q-109 0 -194 19t-152.5 61t-104 118t-36.5 183q0 279 254 357q-125 51 -177.5 135t-52.5 212q0 160 114.5 246.5t348.5 86.5q229 0 347.5 -87.5t118.5 -245.5q0 -130 -53 -214t-181 -135
q258 -80 258 -358zM592 678q-91 -9 -155.5 -26t-120.5 -50t-84.5 -90.5t-28.5 -140.5q0 -72 21.5 -126t57 -87.5t88 -54.5t109 -29t125.5 -8q72 0 128 7t110 27t89 53.5t56 88.5t21 129q0 81 -31 139.5t-89 92.5t-130 51.5t-166 23.5zM616 756q62 8 111.5 19.5t99 34t83 53
t54 77.5t20.5 106q0 81 -30 137.5t-86 86t-119.5 42t-144.5 12.5q-64 0 -116.5 -7t-102.5 -25.5t-83.5 -49t-54 -80.5t-20.5 -116q0 -73 31 -128t86.5 -87.5t122 -50.5t149.5 -24z" />
    <glyph glyph-name="nine.tnum" 
d="M562 554q-92 0 -161.5 11t-129.5 38.5t-98 74.5t-59.5 120t-21.5 173q0 102 23.5 178t65 124t106.5 77.5t139 41t171 11.5q113 0 196.5 -26t136 -72t84 -118.5t43.5 -155t12 -192.5q0 -169 -13 -290t-47.5 -220.5t-89.5 -161.5t-143.5 -104.5t-205 -60t-278.5 -17.5
q-24 0 -85 1l-8 77q238 7 312 15q219 26 325 130q123 123 137 379q-270 -33 -411 -33zM177 968q0 -84 18 -143t50 -96t87 -58t118 -28.5t155 -7.5q107 0 374 35q5 85 5 164v35q0 54 -3.5 97.5t-13.5 92t-27 86t-46 72.5t-68.5 57.5t-96 36t-126.5 13.5q-235 0 -330.5 -81.5
t-95.5 -274.5z" />
    <glyph glyph-name="dollar.tnum" 
d="M634 -10v-197h-79v193q-3 0 -10 -0.5t-11 -0.5q-190 0 -331 28l10 74q152 -24 315 -24q93 0 160.5 12.5t124 44t85.5 90.5t29 146q0 69 -20 118t-67 86t-106 62t-156 54q-60 18 -99.5 31.5t-84.5 32.5t-73 38t-56 46t-43 58.5t-24.5 73t-9.5 91.5q0 177 95 259.5
t286 94.5v195h79v-193q163 0 328 -25l-8 -73q-137 20 -262 20q-85 0 -147.5 -6t-118.5 -22.5t-91.5 -44.5t-55.5 -72t-20 -105q0 -52 5 -86.5t21 -65.5t38 -51.5t65 -42t92.5 -39t129.5 -40.5q68 -20 119.5 -40.5t105 -53t87.5 -71.5t56 -95.5t22 -125.5q0 -179 -95 -268.5
t-285 -105.5z" />
    <glyph glyph-name="cent.tnum" 
d="M721 149v-190h-76v194q-107 12 -180 57.5t-111 123t-53 166t-15 207.5q0 100 9 173.5t32.5 139t63.5 108t103 70.5t151 37v195h76v-191q3 0 11 0.5t11 0.5q108 0 213 -25l-7 -68q-84 15 -172 15q-79 0 -139.5 -9.5t-104 -26t-73.5 -47t-48 -63.5t-28 -84.5t-13 -101.5
t-3 -123q0 -69 3 -117.5t12.5 -102.5t27 -90t47.5 -70.5t72.5 -55t103 -32.5t138.5 -12q69 0 177 22l9 -73q-146 -27 -237 -27z" />
    <glyph glyph-name="Euro.tnum" 
d="M428 863h496l-18 -75h-481v-94v-77h443l-16 -75h-424q6 -127 27 -212t66 -148t120.5 -91.5t188.5 -28.5q76 0 208 21l7 -71q-131 -27 -246 -27q-242 0 -342 129.5t-115 427.5h-154l17 75h135q-1 25 -1 77q0 64 1 94h-140l17 75h126q9 145 35 243t79 166.5t136.5 99.5
t205.5 31q129 0 246 -24l-8 -74q-125 22 -207 22q-92 0 -158.5 -19t-111 -54t-72.5 -93.5t-41.5 -129t-18.5 -168.5z" />
    <glyph glyph-name="sterling.tnum" 
d="M777 739v-75h-325q14 -101 14 -188q0 -69 -5.5 -120t-23.5 -102.5t-30.5 -79t-45.5 -94.5h432q138 0 300 20l8 -72q-198 -28 -431 -28h-373q-45 0 -45 37q0 13 20.5 55t44.5 91t44.5 125.5t20.5 149.5q0 79 -19 206h-221v75h209q-27 168 -27 307q0 83 24.5 146.5t66 103
t103 64t128 34t147.5 9.5q190 0 306 -110l-46 -54q-108 85 -252 85q-114 0 -190 -19t-120 -61.5t-62 -101.5t-18 -148q0 -25 1.5 -49.5t5.5 -54.5t6.5 -46.5t8.5 -54.5t8 -50h336z" />
    <glyph glyph-name="yen.tnum" 
d="M645 304v-304h-86v304h-243v75h243v145h-243v74h217l-365 791h94l343 -742l347 742h91l-371 -791h222v-74h-249v-145h249v-75h-249z" />
    <glyph glyph-name="period.tnum" horiz-adv-x="605" 
d="M302 152q29 0 40 -19.5t11 -65.5t-10.5 -64t-40.5 -18t-39.5 17.5t-9.5 64.5t10.5 66t38.5 19z" />
    <glyph glyph-name="comma.tnum" horiz-adv-x="605" 
d="M299 245h107l-176 -514h-76z" />
    <glyph glyph-name="colon.tnum" horiz-adv-x="605" 
d="M302 152q29 0 40 -19.5t11 -65.5t-10.5 -64t-40.5 -18t-39.5 17.5t-9.5 64.5t10.5 66t38.5 19zM302 952q29 0 40 -19.5t11 -65.5t-10.5 -64t-40.5 -18t-39.5 17.5t-9.5 64.5t10.5 66t38.5 19z" />
    <glyph glyph-name="semicolon.tnum" horiz-adv-x="605" 
d="M296 867q0 47 10.5 66t38.5 19q29 0 40 -19.5t11 -65.5t-10.5 -64t-40.5 -18t-39.5 17.5t-9.5 64.5zM398 245l-177 -514h-76l146 514h107z" />
    <glyph glyph-name="zero.onum_tnum" horiz-adv-x="1112" 
d="M555 -15q-110 0 -188.5 24.5t-128.5 69.5t-78.5 121t-39.5 166t-11 217t11 217t39.5 166t78.5 121t128.5 69.5t188.5 24.5q111 0 189.5 -24.5t128.5 -69.5t79 -121t40 -166t11 -217t-11 -217t-40 -166t-79 -121t-128.5 -69.5t-189.5 -24.5zM555 63q101 0 170.5 26.5
t107.5 66t58 113.5t24.5 139.5t4.5 174.5q0 66 -1.5 111t-7 99.5t-16 90.5t-28.5 74.5t-45 62.5t-64 44.5t-88 29.5t-115 9q-57 0 -103.5 -8t-81.5 -21.5t-62.5 -37.5t-46 -48.5t-31.5 -62t-20.5 -71t-11.5 -83t-5 -90t-1 -99.5t1 -99.5t5 -90t11.5 -82.5t20.5 -71t31.5 -62
t46 -48t62.5 -37.5t81.5 -21.5t103.5 -8z" />
    <glyph glyph-name="one.onum_tnum" horiz-adv-x="1112" 
d="M713 0h-84v1062q-184 -55 -366 -86l-4 79q99 16 206 48t180 64h68v-1167z" />
    <glyph glyph-name="two.onum_tnum" horiz-adv-x="1112" 
d="M978 79v-79h-864q19 90 34.5 149t38.5 118t50 97.5t68 75.5t94 64t125 53q370 131 370 330q0 116 -95 164.5t-313 48.5q-160 0 -342 -25l-11 77q207 29 391 29q454 0 454 -267q0 -154 -102 -253t-293 -169q-176 -64 -254 -159.5t-106 -253.5h755z" />
    <glyph glyph-name="three.onum_tnum" horiz-adv-x="1112" 
d="M464 1181q75 0 134 -6.5t118 -25.5t98 -50t63.5 -84.5t24.5 -124.5q0 -120 -53 -202.5t-151 -122.5q88 -23 157.5 -103.5t69.5 -204.5q0 -107 -32 -181.5t-95.5 -116.5t-146.5 -60.5t-197 -18.5q-185 0 -337 31l11 78q206 -28 290 -28q219 0 319.5 63.5t100.5 223.5
q0 112 -73 182.5t-187 81.5q-73 7 -156 7q-60 0 -91 -1v74q141 3 247 19q109 16 174 84.5t65 162.5q0 55 -11.5 95.5t-37.5 67t-55.5 42.5t-77.5 24t-91 10.5t-108 2.5q-124 0 -296 -26l-10 76q171 31 334 31z" />
    <glyph glyph-name="four.onum_tnum" horiz-adv-x="1112" 
d="M753 -106v316h-598q-90 0 -90 71q0 39 56 111l557 720q54 69 105 69q55 0 55 -71v-822h184v-78h-184v-316h-85zM753 1071l-606 -783h606v783z" />
    <glyph glyph-name="five.onum_tnum" horiz-adv-x="1112" 
d="M147 -88l11 78q145 -27 299 -27q225 0 319.5 70t94.5 253q0 71 -22 122t-59 81.5t-100 48t-132 23.5t-168 6q-115 0 -217 -7l41 607h705v-79h-626q-5 -75 -15.5 -224t-15.5 -224q87 6 166 6q84 0 146.5 -5t126.5 -18.5t107.5 -39.5t78.5 -66t52 -100.5t17 -139.5
q0 -211 -113.5 -304t-341.5 -93q-185 0 -354 32z" />
    <glyph glyph-name="six.onum_tnum" horiz-adv-x="1112" 
d="M589 767q107 0 182 -16.5t134 -58.5t87.5 -118.5t28.5 -191.5q0 -117 -32 -196t-95.5 -122.5t-144 -61t-193.5 -17.5q-105 0 -181.5 24t-125 66t-77 109t-39.5 142.5t-11 176.5q0 155 12 265.5t43.5 202t82 148.5t131.5 96t188 55t255 16q26 0 82 -1l8 -77
q-223 -6 -289 -14q-205 -24 -301 -124q-104 -109 -117 -333q238 30 372 30zM207 476q0 -49 3 -88.5t12 -83.5t24.5 -77.5t41.5 -65t61.5 -52t86.5 -32.5t115 -12q214 0 299.5 73t85.5 247q0 95 -23 155t-75 92t-118.5 43.5t-170.5 11.5q-95 0 -339 -33q-3 -50 -3 -134v-44z
" />
    <glyph glyph-name="seven.onum_tnum" horiz-adv-x="1112" 
d="M314 -106l559 1196h-745v77h749q86 0 86 -54q0 -21 -12 -46l-544 -1173h-93z" />
    <glyph glyph-name="eight.onum_tnum" horiz-adv-x="1112" 
d="M777 661q228 -73 228 -328q0 -83 -24 -145.5t-64 -100.5t-99.5 -61.5t-122 -32t-140.5 -8.5q-100 0 -177.5 17t-140 56t-96 109t-33.5 168q0 256 223 327q-110 47 -156 124t-46 193q0 147 105.5 227t320.5 80q211 0 319.5 -80.5t108.5 -226.5q0 -117 -47 -194t-159 -124z
M555 65q65 0 116 6.5t99.5 24.5t80 48t50.5 79.5t19 116.5q0 73 -28 126t-80.5 84t-117.5 47t-150 21q-65 -7 -114 -17t-96 -30.5t-76.5 -49.5t-47.5 -75t-18 -106q0 -65 19 -114t51.5 -79t80 -49t98.5 -26t114 -7zM555 1207q-74 0 -131 -11t-106.5 -37.5t-76.5 -77.5
t-27 -124q0 -66 28 -115.5t78.5 -79t110.5 -45.5t135 -22q71 9 125.5 25t104 44.5t76.5 77t27 115.5q0 59 -19 103.5t-50 72t-76.5 44.5t-93 23.5t-105.5 6.5z" />
    <glyph glyph-name="nine.onum_tnum" horiz-adv-x="1112" 
d="M516 399q-107 0 -182 16.5t-134 58.5t-87.5 118.5t-28.5 191.5q0 117 32 196t95.5 122.5t144 61t193.5 17.5q105 0 181.5 -24t125 -66t77 -109t39.5 -142.5t11 -176.5q0 -155 -12 -265.5t-43.5 -202t-82.5 -148.5t-132 -96t-188 -55t-255 -16q-25 0 -81 1l-8 77
q224 6 292 14q205 25 300 127q102 110 115 331q-246 -31 -372 -31zM898 691q0 49 -3 88.5t-12 83.5t-24.5 77.5t-41.5 65t-61.5 52t-86.5 32.5t-115 12q-213 0 -299 -73.5t-86 -247.5q0 -95 23 -155t74.5 -92t118 -43.5t170.5 -11.5q96 0 340 33q3 75 3 134v45z" />
    <glyph glyph-name="dollar.onum_tnum" horiz-adv-x="1112" 
d="M195 85q137 -22 291 -22q84 0 145 11.5t112 39.5t77 81.5t26 131.5q0 115 -76.5 177.5t-239.5 111.5q-63 19 -103.5 33.5t-86 35.5t-72.5 45t-51 56.5t-34.5 75t-10.5 96.5q0 162 87 238t261 88v178h78v-176q159 0 300 -23l-9 -75q-127 20 -241 20q-76 0 -133 -5.5
t-107.5 -20.5t-82.5 -40t-50.5 -65t-18.5 -94q0 -47 4.5 -78.5t19 -59t34.5 -46t59 -38t84 -35t117 -36.5q63 -19 110 -37.5t96.5 -49t81 -66t51.5 -87.5t20 -116q0 -165 -87 -247t-261 -97v-180h-78v176q-3 0 -8.5 -0.5t-7.5 -0.5q-175 0 -305 26z" />
    <glyph glyph-name="cent.onum_tnum" horiz-adv-x="1112" 
d="M665 135v-174h-76v178q-79 9 -137.5 39.5t-94 74.5t-57.5 108.5t-30 132t-8 153.5q0 116 13.5 195t48.5 143.5t100.5 100t164.5 46.5v179h76v-174h17q103 0 198 -23l-7 -68q-80 13 -160 13q-84 0 -144.5 -10.5t-101.5 -35t-65.5 -54.5t-37.5 -81.5t-17 -102t-4 -128.5
q0 -62 2.5 -106t11.5 -92.5t24.5 -81.5t42.5 -64.5t65.5 -49.5t93.5 -29t125 -11q57 0 165 21l9 -74q-132 -25 -217 -25z" />
    <glyph glyph-name="Euro.onum_tnum" horiz-adv-x="1112" 
d="M398 793h453l-18 -76h-438q-1 -26 -1 -82q0 -45 1 -67h406l-17 -75h-386q5 -91 17.5 -156.5t38 -119.5t66 -87t100 -50.5t141.5 -17.5q75 0 193 20l6 -72q-113 -25 -227 -25t-191.5 29.5t-126 94t-72 156.5t-30.5 228h-142l16 75h123v21v24.5v21.5v26v30.5v25.5h-128
l17 76h115q15 264 107.5 378.5t311.5 114.5q121 0 228 -22l-8 -75q-118 20 -192 20q-103 0 -171.5 -25t-108.5 -79.5t-58.5 -127.5t-24.5 -184z" />
    <glyph glyph-name="sterling.onum_tnum" horiz-adv-x="1112" 
d="M716 681v-76h-296q13 -98 13 -167q0 -82 -13 -146t-28.5 -101t-52.5 -112h388q123 0 276 20l9 -73q-182 -26 -397 -26h-340q-45 0 -45 37q0 12 18.5 50.5t40.5 83t40.5 114t18.5 136.5q0 71 -17 184h-201v76h190q-24 154 -24 277q0 77 22.5 135.5t61 94.5t95 59t117 31.5
t135.5 8.5q174 0 284 -104l-47 -54q-101 79 -230 79q-137 0 -214.5 -32.5t-107.5 -95t-30 -169.5q0 -70 26 -230h308z" />
    <glyph glyph-name="yen.onum_tnum" horiz-adv-x="1112" 
d="M151 1274h94l310 -672l316 672h90l-340 -722h202v-75h-228v-125h228v-75h-228v-277h-84v277h-222v75h222v125h-222v75h196z" />
    <glyph glyph-name="parenleft.case" horiz-adv-x="591" 
d="M437 1636l56 -47q-80 -78 -136.5 -188t-84.5 -231.5t-39.5 -231.5t-11.5 -225t11.5 -225t39.5 -231.5t84.5 -231.5t136.5 -188l-56 -47q-304 305 -304 923t304 923z" />
    <glyph glyph-name="parenright.case" horiz-adv-x="591" 
d="M98 1589l56 47q304 -305 304 -923t-304 -923l-56 47q80 78 136.5 188t84.5 231.5t39.5 231.5t11.5 225t-11.5 225t-39.5 231.5t-84.5 231.5t-136.5 188z" />
    <glyph glyph-name="bracketleft.case" horiz-adv-x="580" 
d="M500 1545h-225v-1657h224v-79h-309v1814h310v-78z" />
    <glyph glyph-name="bracketright.case" horiz-adv-x="580" 
d="M81 -112h224v1657h-225v78h310v-1814h-309v79z" />
    <glyph glyph-name="braceleft.case" horiz-adv-x="590" 
d="M342 329v-112q0 -128 45 -214.5t135 -107.5l-8 -74q-59 15 -103 40.5t-80 67t-55 106.5t-19 151q0 238 -35 351t-131 143v74q96 30 131 142t35 352q0 86 19 150.5t55 106.5t80 67t103 40l8 -74q-90 -21 -135 -107.5t-45 -214.5v-112q0 -322 -160 -388q160 -71 160 -387z
" />
    <glyph glyph-name="braceright.case" horiz-adv-x="590" 
d="M500 754v-74q-96 -30 -131.5 -143t-35.5 -351q0 -86 -19 -151t-54.5 -106.5t-79.5 -67t-103 -40.5l-9 74q90 21 135.5 107.5t45.5 214.5v112q0 316 159 387q-159 65 -159 388v112q0 127 -45.5 214t-135.5 108l9 74q122 -31 189 -114.5t67 -249.5q0 -239 35.5 -351.5
t131.5 -142.5z" />
    <glyph glyph-name="questiondown.case" horiz-adv-x="1000" 
d="M591 1007h78v-118q0 -6 0.5 -25t0.5 -27q0 -58 -27 -93.5t-70 -51t-95 -26t-104 -25t-95 -40.5t-70 -81t-27 -137q0 -101 19 -162t72.5 -99t137.5 -51.5t224 -13.5q123 0 292 29l16 -76q-166 -32 -350 -32q-69 0 -122 3.5t-107 14t-93 28.5t-74 47.5t-56 70.5t-33.5 98.5
t-12.5 129.5q0 83 17 144.5t45.5 97t65.5 59t78 34.5t82 19.5t78 18t65.5 26t46 48t17.5 78.5zM630 1273q-29 0 -40 19t-11 65t10.5 64t40.5 18t40 -17.5t10 -64.5q0 -46 -10.5 -65t-39.5 -19z" />
    <glyph glyph-name="exclamdown.case" horiz-adv-x="400" 
d="M250 1357q0 -46 -10.5 -65t-39.5 -19t-39.5 19t-10.5 65q0 47 10 64.5t40 17.5t40 -17.5t10 -64.5zM254 -7h-107l15 1014h76z" />
    <glyph glyph-name="at.case" horiz-adv-x="1930" 
d="M1704 919l82 24q14 -97 14 -227q0 -380 -210.5 -555.5t-624.5 -175.5q-415 0 -623.5 175t-208.5 556q0 197 56 338.5t167.5 227t267 125t365.5 39.5q359 0 359 -313v-469q0 -65 -4 -177q-185 -81 -387 -81q-199 0 -290.5 75.5t-91.5 234.5q0 125 67.5 206t188.5 107
q106 23 433 33q0 174 -62 239.5t-224 65.5q-147 0 -261.5 -20t-210 -66.5t-158 -121t-96.5 -186t-34 -257.5q0 -180 50 -307t149 -202t233 -108.5t315 -33.5t315.5 33.5t234.5 108.5t150.5 202t50.5 307q0 116 -12 203zM1264 982q-306 -6 -409 -29q-93 -21 -144.5 -81
t-51.5 -152q0 -130 72.5 -181.5t225.5 -51.5q145 0 304 58q3 174 3 191v246z" />
    <glyph glyph-name="guilsinglleft.case" horiz-adv-x="578" 
d="M88 715l276 390h93l-251 -390l252 -389h-94z" />
    <glyph glyph-name="guilsinglright.case" horiz-adv-x="578" 
d="M215 1105l275 -390l-275 -389h-94l251 389l-250 390h93z" />
    <glyph glyph-name="guillemotleft.case" horiz-adv-x="891" 
d="M88 715l276 390h93l-250 -390l250 -389h-93zM771 326h-94l-276 389l276 390h93l-251 -390z" />
    <glyph glyph-name="guillemotright.case" horiz-adv-x="891" 
d="M215 1105l275 -390l-275 -389h-94l251 389l-250 390h93zM685 715l-251 390h94l275 -390l-275 -389h-94z" />
    <glyph glyph-name="hyphen.case" horiz-adv-x="836" 
d="M680 676h-522v79h522v-79z" />
    <glyph glyph-name="endash.case" horiz-adv-x="1302" 
d="M1145 679h-987v74h987v-74z" />
    <glyph glyph-name="emdash.case" horiz-adv-x="2256" 
d="M2100 679h-1942v74h1942v-74z" />
    <glyph glyph-name="periodcentered.case" horiz-adv-x="410" 
d="M205 799q29 0 39.5 -19.5t10.5 -65.5q0 -47 -10 -64.5t-40 -17.5t-40 17.5t-10 64.5q0 46 10.5 65.5t39.5 19.5z" />
    </font>
</defs>
</svg>
