<?xml version="1.0" standalone="no"?>
<!DOCTYPE svg PUBLIC "-//W3C//DTD SVG 1.1//EN" "http://www.w3.org/Graphics/SVG/1.1/DTD/svg11.dtd" >
<svg xmlns="http://www.w3.org/2000/svg" xmlns:xlink="http://www.w3.org/1999/xlink" version="1.1">
<metadata>
Created by FontForge 20170731 at Tue Oct 13 00:50:27 2020
 By Aleksey,,,
Copyright (c) 2011-2012 Durotype, www.durotype.com. All rights reserved.
</metadata>
<defs>
<font id="Flexo-Demi" horiz-adv-x="1210" >
  <font-face 
    font-family="Flexo Light"
    font-weight="600"
    font-stretch="normal"
    units-per-em="2048"
    panose-1="0 0 0 0 0 0 0 0 0 0"
    ascent="1618"
    descent="-430"
    x-height="1094"
    cap-height="1432"
    bbox="-336 -504 2532 1967"
    underline-thickness="102"
    underline-position="-345"
    unicode-range="U+0020-FB04"
  />
<missing-glyph horiz-adv-x="1304" 
d="M1163 0h-1022v1475h1022v-1475zM591 737l-347 537v-1074zM1000 105l-347 538l-348 -538h695zM1000 1369h-695l348 -537zM1061 1274l-347 -537l347 -537v1074z" />
    <glyph glyph-name="f_f" unicode="ff" horiz-adv-x="1432" 
d="M1386 921h-232v-921h-234v921h-455v-921h-234v921h-185v173h185v105q0 161 86 247t255 86q73 0 144 -11l-17 -162h-81q-73 0 -113 -38.5t-40 -114.5v-112h455v105q0 161 86 247t255 86q73 0 144 -11l-17 -162h-80q-73 0 -113.5 -38.5t-40.5 -114.5v-112h232v-173z" />
    <glyph glyph-name="fi" unicode="fi" horiz-adv-x="1293" 
d="M231 1094v105q0 161 86 247t255 86q73 0 144 -11l-17 -162h-81q-73 0 -113 -38.5t-40 -114.5v-112h680v-1094h-235v921h-445v-921h-234v921h-185v173h185zM1027 1532q81 0 111.5 -30.5t30.5 -111.5t-30 -111.5t-112 -30.5t-112 30.5t-30 111.5q0 80 30.5 111t111.5 31z
" />
    <glyph glyph-name="fl" unicode="fl" horiz-adv-x="1279" 
d="M46 921v173h185v105q0 161 86 247t255 86q270 0 554 -15v-1223q0 -75 18.5 -132t61.5 -114l-204 -97q-110 125 -110 332v1076h-274q-73 0 -113 -38.5t-40 -114.5v-112h231v-173h-231v-921h-234v921h-185z" />
    <glyph glyph-name="f_f_i" unicode="ffi" horiz-adv-x="1982" 
d="M231 1094v105q0 161 86 247t255 86q73 0 144 -11l-17 -162h-81q-73 0 -113 -38.5t-40 -114.5v-112h455v105q0 161 86 247t255 86q73 0 144 -11l-17 -162h-80q-73 0 -113.5 -38.5t-40.5 -114.5v-112h680v-1094h-235v921h-445v-921h-234v921h-455v-921h-234v921h-185v173
h185zM1575 1390q0 81 30 111.5t111 30.5t111.5 -30.5t30.5 -111.5t-30 -111.5t-112 -30.5t-111.5 30.5t-29.5 111.5z" />
    <glyph glyph-name="f_f_l" unicode="ffl" horiz-adv-x="1968" 
d="M231 1094v105q0 161 86 247t255 86q73 0 144 -11l-17 -162h-81q-73 0 -113 -38.5t-40 -114.5v-112h455v105q0 161 86 247t255 86q271 0 554 -15v-1223q0 -75 18.5 -132t61.5 -114l-203 -97q-111 126 -111 332v1076h-273q-73 0 -113.5 -38.5t-40.5 -114.5v-112h232v-173
h-232v-921h-234v921h-455v-921h-234v921h-185v173h185z" />
    <glyph glyph-name="f_b" unicode="fb" horiz-adv-x="1931" 
d="M46 921v173h185v105q0 161 86 247t255 86q270 0 554 -15v-438q123 30 239 30q171 0 273.5 -52.5t153.5 -176t51 -333.5q0 -161 -28.5 -269t-93 -173t-158 -92.5t-231.5 -27.5q-260 0 -430 96q-9 99 -9 201v1077h-275q-73 0 -113 -38.5t-40 -114.5v-112h231v-173h-231
v-921h-234v921h-185zM1332 165q55 0 97.5 11t71 28.5t49 48t31.5 59t17 72t7.5 78t1.5 85.5q0 83 -2.5 126.5t-18 101t-46 85t-88 48t-142.5 20.5q-94 0 -184 -30v-550q0 -93 6 -146q70 -37 200 -37z" />
    <glyph glyph-name="f_f_b" unicode="ffb" horiz-adv-x="2621" 
d="M46 1094h185v105q0 161 86 247t255 86q73 0 144 -11l-17 -162h-81q-73 0 -113 -38.5t-40 -114.5v-112h455v105q0 161 86 247t255 86q271 0 554 -15v-438q123 30 239 30q171 0 273.5 -52.5t153.5 -176t51 -333.5q0 -161 -28.5 -268.5t-92.5 -173t-157.5 -93t-231.5 -27.5
q-261 0 -431 96q-9 99 -9 201v1077h-274q-73 0 -113.5 -38.5t-40.5 -114.5v-112h232v-173h-232v-921h-234v921h-455v-921h-234v921h-185v173zM1815 348q0 -84 7 -146q70 -37 200 -37q55 0 97.5 11t71 28.5t49 48t31.5 59t17 72t7.5 78t1.5 85.5q0 83 -3 126.5t-18 101
t-45.5 85t-88.5 48t-143 20.5q-94 0 -184 -30v-550z" />
    <glyph glyph-name="f_f_h" unicode="ffh" horiz-adv-x="2631" 
d="M465 1094h455v105q0 161 86 247t255 86q271 0 554 -15v-449q131 41 270 41q94 0 165.5 -13.5t117.5 -42t75.5 -62t44.5 -83.5t20 -96t5 -110v-702h-234v674q0 47 -3.5 79.5t-13 62.5t-27 48t-46.5 32t-69.5 20t-97.5 6q-111 0 -207 -43v-879h-233v1359h-274
q-73 0 -113.5 -38.5t-40.5 -114.5v-112h232v-173h-232v-921h-234v921h-455v-921h-234v921h-185v173h185v105q0 161 86 247t255 86q73 0 144 -11l-17 -162h-81q-73 0 -113 -38.5t-40 -114.5v-112z" />
    <glyph glyph-name="f_f_j" unicode="ffj" horiz-adv-x="2027" 
d="M231 1094v105q0 161 86 247t255 86q73 0 144 -11l-17 -162h-81q-73 0 -113 -38.5t-40 -114.5v-112h455v105q0 161 86 247t255 86q73 0 144 -11l-17 -162h-80q-73 0 -113.5 -38.5t-40.5 -114.5v-112h722v-1092q0 -226 -99.5 -323t-323.5 -97q-28 0 -55 3l18 172
q45 5 73.5 10t60.5 18.5t50 34t30 55.5t12 84v962h-488v-921h-234v921h-455v-921h-234v921h-185v173h185zM1759 1532q81 0 111.5 -30.5t30.5 -111.5t-30 -111.5t-112 -30.5t-112 30.5t-30 111.5q0 80 30.5 111t111.5 31z" />
    <glyph glyph-name="f_f_k" unicode="ffk" horiz-adv-x="2537" 
d="M1815 610l412 484h266l-451 -510l475 -584h-283l-419 538v-538h-232v1359h-275q-73 0 -113.5 -38.5t-40.5 -114.5v-112h232v-173h-232v-921h-234v921h-455v-921h-234v921h-185v173h185v105q0 161 86 247t255 86q73 0 144 -11l-17 -162h-81q-73 0 -113 -38.5t-40 -114.5
v-112h455v105q0 161 86 247t255 86q271 0 554 -15v-907z" />
    <glyph glyph-name="f_h" unicode="fh" horiz-adv-x="1941" 
d="M1126 879v-879h-234v1359h-274q-73 0 -113 -38.5t-40 -114.5v-112h231v-173h-231v-921h-234v921h-185v173h185v105q0 161 86 247t255 86q270 0 554 -15v-449q131 41 270 41q81 0 145 -11t108.5 -29.5t76.5 -48.5t50.5 -62t29 -76.5t14 -85t3.5 -94.5v-702h-233v674
q0 71 -8.5 113.5t-35.5 75.5t-78.5 46t-135.5 13q-110 0 -206 -43z" />
    <glyph glyph-name="f_j" unicode="fj" horiz-adv-x="1338" 
d="M465 1206v-112h722v-1092q0 -226 -99.5 -323t-323.5 -97q-29 0 -56 3l19 172q56 6 90 14t68.5 28.5t50.5 60t16 99.5v962h-487v-921h-234v921h-185v173h185v105q0 161 86 247t255 86q73 0 144 -11l-17 -162h-81q-73 0 -113 -38.5t-40 -114.5zM1069 1248
q-82 0 -111.5 30.5t-29.5 111.5t30 111.5t111 30.5t111.5 -30.5t30.5 -111.5t-30 -111.5t-112 -30.5z" />
    <glyph glyph-name="f_k" unicode="fk" horiz-adv-x="1847" 
d="M1126 538v-538h-233v1359h-275q-73 0 -113 -38.5t-40 -114.5v-112h231v-173h-231v-921h-234v921h-185v173h185v105q0 161 86 247t255 86q270 0 554 -15v-907l412 484h265l-451 -510l476 -584h-283z" />
    <glyph glyph-name=".notdef" horiz-adv-x="1304" 
d="M1163 0h-1022v1475h1022v-1475zM591 737l-347 537v-1074zM1000 105l-347 538l-348 -538h695zM1000 1369h-695l348 -537zM1061 1274l-347 -537l347 -537v1074z" />
    <glyph glyph-name=".null" horiz-adv-x="0" 
 />
    <glyph glyph-name="nonmarkingreturn" horiz-adv-x="682" 
 />
    <glyph glyph-name="space" unicode=" " horiz-adv-x="537" 
 />
    <glyph glyph-name="exclam" unicode="!" horiz-adv-x="572" 
d="M428 127q0 -81 -30 -111.5t-112 -30.5t-112 30.5t-30 111.5q0 80 30.5 111t111.5 31t111.5 -30.5t30.5 -111.5zM385 417h-199l-40 1015h279z" />
    <glyph glyph-name="quotedbl" unicode="&#x22;" horiz-adv-x="794" 
d="M314 966h-173l-19 551h210zM655 966h-173l-19 551h210z" />
    <glyph glyph-name="numbersign" unicode="#" horiz-adv-x="1184" 
d="M385 0h-174l61 413h-198v170h223l38 267h-207v171h231l59 411h173l-59 -411h224l60 411h173l-60 -411h180v-171h-204l-38 -267h185v-170h-210l-60 -413h-174l61 413h-225zM508 850l-38 -267h224l38 267h-224z" />
    <glyph glyph-name="dollar" unicode="$" horiz-adv-x="1037" 
d="M96 216q201 -29 358 -29q131 0 197.5 41.5t66.5 157.5q0 42 -13.5 75t-33.5 53.5t-52.5 37.5t-62.5 27.5t-71 22.5l-21 6q-59 18 -100.5 33t-86 35.5t-73.5 42t-56.5 51t-43.5 65t-25 81t-9 100.5q0 185 92 274t279 108v192h168v-188q178 -6 334 -38l-21 -186
q-183 27 -296 27q-33 0 -55 -0.5t-58 -4t-60.5 -9.5t-53 -18t-46 -28.5t-29.5 -43t-12 -59.5q0 -46 12 -80t32.5 -55.5t54 -38t69 -27.5t85.5 -24l24 -6q100 -27 167 -59t116.5 -80t72.5 -116.5t23 -162.5q0 -186 -93 -282t-277 -118v-194h-168v187q-186 3 -357 39z" />
    <glyph glyph-name="percent" unicode="%" horiz-adv-x="1744" 
d="M85 1014q0 91 7.5 154.5t27.5 117.5t55.5 86t90.5 49.5t133 17.5q77 0 132.5 -17.5t90.5 -49.5t55.5 -86t28 -118t7.5 -154t-7.5 -153.5t-28 -117.5t-55.5 -86t-90.5 -49.5t-132.5 -17.5q-78 0 -133 17.5t-90.5 49.5t-55.5 86t-27.5 117.5t-7.5 153.5zM543 1014
q0 53 -1 84t-5.5 69.5t-13.5 60t-24.5 42.5t-40.5 29.5t-59 8.5q-29 0 -51.5 -7.5t-37.5 -19t-25.5 -34.5t-16 -43t-8.5 -55.5t-3.5 -62t-0.5 -72.5t0.5 -72.5t3.5 -62t8.5 -55.5t16 -42.5t25.5 -34t37.5 -19t51.5 -7.5q34 0 59 8.5t40.5 29t24.5 42t13.5 60.5t5.5 69.5
t1 83.5zM1030 417q0 90 7.5 153.5t27.5 118t55.5 86.5t90.5 49.5t132 17.5q97 0 159 -25.5t96 -82t46.5 -130t12.5 -187.5t-12.5 -187.5t-46.5 -130t-96 -81.5t-159 -25q-96 0 -158 25t-96 81.5t-46.5 130t-12.5 187.5zM1486 417q0 46 -0.5 72.5t-3.5 62t-8.5 55.5t-16 43
t-25.5 34.5t-37.5 19t-51.5 7.5t-51.5 -7.5t-37.5 -19t-25.5 -34.5t-16 -43t-8.5 -55.5t-3.5 -62t-0.5 -72.5t0.5 -72.5t3.5 -62t8.5 -55.5t16 -42.5t25.5 -34t37.5 -19t51.5 -7.5t51.5 7.5t37.5 19t25.5 34t16 42.5t8.5 55.5t3.5 62t0.5 72.5zM1207 1461h168l-840 -1490
h-168z" />
    <glyph glyph-name="ampersand" unicode="&#x26;" horiz-adv-x="1384" 
d="M1057 0l-96 112q-73 -69 -169 -98t-231 -29q-242 0 -359.5 102.5t-117.5 310.5q0 140 75 230.5t220 152.5q-39 48 -56.5 71.5t-43 67t-36 88.5t-10.5 99q0 91 29.5 158t83 105.5t121.5 57t152 18.5q76 0 140.5 -17.5t117.5 -54t83.5 -99.5t30.5 -148q0 -255 -308 -387
l273 -303q40 85 51 241l219 -9q-23 -237 -125 -403l239 -266h-283zM568 871q42 21 72.5 40.5t63.5 48.5t50.5 65.5t17.5 79.5q0 166 -159 166q-72 0 -116.5 -40.5t-44.5 -128.5q0 -47 18 -91t38.5 -70.5t59.5 -69.5zM830 264l-334 379q-64 -40 -97.5 -69.5t-56.5 -78
t-23 -115.5q0 -56 24 -99t63 -68t84.5 -37.5t93.5 -12.5q147 0 246 101z" />
    <glyph glyph-name="quotesingle" unicode="'" horiz-adv-x="452" 
d="M122 1517h209l-18 -551h-173z" />
    <glyph glyph-name="parenleft" unicode="(" horiz-adv-x="635" 
d="M568 -246l-131 -107q-97 84 -165.5 191.5t-105.5 229.5t-52.5 243t-15.5 259t15.5 259t52.5 243t105.5 229.5t165.5 191.5l131 -108q-233 -233 -233 -815q0 -583 233 -816z" />
    <glyph glyph-name="parenright" unicode=")" horiz-adv-x="635" 
d="M198 -353l-130 107q232 232 232 816q0 583 -232 815l130 108q340 -293 340 -923t-340 -923z" />
    <glyph glyph-name="asterisk" unicode="*" horiz-adv-x="929" 
d="M605 1002l129 -225l-142 -78l-127 219l-128 -219l-143 80l129 223h-257v162h256l-129 223l144 82l128 -222l127 222l144 -82l-131 -223h259v-162h-259z" />
    <glyph glyph-name="plus" unicode="+" horiz-adv-x="1182" 
d="M698 708h402v-211h-402v-404h-215v404h-400v211h400v402h215v-402z" />
    <glyph glyph-name="comma" unicode="," horiz-adv-x="521" 
d="M179 245h265l-193 -514h-197z" />
    <glyph glyph-name="hyphen" unicode="-" horiz-adv-x="793" 
d="M662 446h-531v196h531v-196z" />
    <glyph glyph-name="period" unicode="." horiz-adv-x="519" 
d="M118 127q0 81 30 111.5t111 30.5t111.5 -30.5t30.5 -111.5t-30 -111.5t-112 -30.5t-111.5 30.5t-29.5 111.5z" />
    <glyph glyph-name="slash" unicode="/" horiz-adv-x="908" 
d="M259 -165h-205l581 1647h206z" />
    <glyph glyph-name="zero" unicode="0" horiz-adv-x="1273" 
d="M1149 694q0 -151 -12.5 -257.5t-45.5 -196.5t-90.5 -143.5t-147 -82.5t-216.5 -29t-216.5 29t-147 82.5t-90.5 143.5t-45.5 196.5t-12.5 257.5t12.5 257.5t45.5 196.5t90.5 143.5t147 82.5t216.5 29t216.5 -29t147 -82.5t90.5 -143.5t45.5 -196.5t12.5 -257.5zM369 694
q0 -95 2 -148t9.5 -122.5t24.5 -106t46 -73.5t75.5 -52t110.5 -15q43 0 78 8t61.5 21t46.5 37t33.5 47t23 61.5t14.5 70t8 83t3.5 89.5t0.5 100t-0.5 100t-3.5 89.5t-8 83t-14.5 70.5t-23 62t-33.5 47t-46.5 37t-61.5 21t-78 8t-78 -8t-61 -21t-46.5 -37.5t-34 -47
t-22.5 -61.5t-14.5 -70t-8 -83t-3 -90t-0.5 -100z" />
    <glyph glyph-name="one" unicode="1" horiz-adv-x="755" 
d="M402 1389h195v-1389h-241v1148q-138 -37 -318 -59l-10 189q203 30 374 111z" />
    <glyph glyph-name="two" unicode="2" horiz-adv-x="1160" 
d="M1050 0h-955q27 150 44.5 228t48.5 167t72.5 138t106.5 96.5t160 88.5q76 32 124.5 59.5t85.5 62.5t53 77.5t16 98.5q0 114 -74 151t-282 37q-136 0 -311 -28l-22 183q235 44 445 44q88 0 158.5 -9.5t133.5 -33.5t105.5 -62.5t67 -99t24.5 -139.5q0 -185 -101 -309.5
t-304 -206.5q-82 -33 -132 -64t-79.5 -73t-42.5 -85t-22 -114h680v-207z" />
    <glyph glyph-name="three" unicode="3" horiz-adv-x="1147" 
d="M516 1403q86 0 154.5 -8t136 -30.5t112.5 -60.5t73 -101.5t28 -148.5q0 -227 -201 -323q107 -42 165 -116t58 -195q0 -123 -36 -208.5t-107.5 -134.5t-166.5 -70.5t-224 -21.5q-181 0 -418 44l26 185q230 -29 341 -29q91 0 148.5 8.5t101.5 32.5t63 68.5t19 115.5
q0 184 -167 205q-119 14 -284 14h-30v177q162 3 314 25q81 12 116 60.5t35 132.5q0 50 -14.5 84.5t-36.5 53.5t-61.5 29.5t-75.5 13t-93 2.5q-145 0 -364 -29l-24 182q228 43 412 43z" />
    <glyph glyph-name="four" unicode="4" horiz-adv-x="1212" 
d="M724 0v321h-505q-92 0 -129.5 34t-37.5 96q0 80 95 202l488 629q53 68 99 94.5t103 26.5q55 0 90 -37t35 -109v-752h176v-184h-176v-321h-238zM725 1080l-433 -575h433v575z" />
    <glyph glyph-name="five" unicode="5" horiz-adv-x="1158" 
d="M101 30l26 186q206 -30 344 -30q65 0 109 3.5t84 14t63.5 29t41.5 49t25 74t7 104.5q0 48 -15.5 84.5t-45.5 59.5t-64.5 38t-82.5 22t-88 9.5t-92 2.5q-143 0 -280 -7l50 720h836v-206h-629l-22 -324q48 3 95 3q80 0 141.5 -4t126 -15t110.5 -30.5t88.5 -52t68.5 -77
t41 -107.5t15 -142q0 -236 -130 -342.5t-389 -106.5q-219 0 -434 45z" />
    <glyph glyph-name="six" unicode="6" horiz-adv-x="1239" 
d="M648 876q123 0 210 -19t155 -66.5t101.5 -134t33.5 -215.5q0 -108 -25 -188t-69 -131t-112 -82t-145.5 -43t-178.5 -12q-100 0 -178 17.5t-132.5 53.5t-92 84t-58.5 115.5t-30 140.5t-9 166q0 167 13 285.5t46.5 216.5t88 159t141.5 103.5t202.5 59.5t275.5 17
q42 0 154 -2l20 -190q-32 -2 -100 -3t-113 -2.5t-111 -9t-111 -20.5t-95 -39t-80.5 -62t-51 -92t-21.5 -128q155 21 272 21zM358 534q0 -61 4.5 -107t20 -95.5t42.5 -81t74.5 -52t113.5 -20.5q169 0 232 58.5t63 207.5q0 147 -72 199.5t-225 52.5q-89 0 -248 -23
q-5 -55 -5 -139z" />
    <glyph glyph-name="seven" unicode="7" horiz-adv-x="1060" 
d="M770 1183h-709v206h821q69 0 107 -30t38 -82q0 -37 -21 -82l-540 -1195h-277z" />
    <glyph glyph-name="eight" unicode="8" horiz-adv-x="1243" 
d="M128 1061q0 342 494 342q77 0 143 -8.5t133 -31.5t114 -60t76.5 -99t29.5 -143q0 -125 -40.5 -198.5t-164.5 -139.5q115 -63 169.5 -140.5t54.5 -202.5q0 -94 -27 -165t-72.5 -114.5t-113.5 -70t-139.5 -36t-162.5 -9.5q-119 0 -209 19.5t-160.5 63.5t-107.5 122.5
t-37 189.5q0 123 53 198t171 142q-109 58 -156.5 136t-47.5 205zM343 386q0 -64 20.5 -107.5t60.5 -66t86.5 -31.5t111.5 -9q63 0 109.5 9t86.5 31.5t61 66t21 107.5q0 82 -25.5 127t-97.5 72t-212 41q-222 -42 -222 -240zM356 1027q0 -49 12 -82t46 -62.5t100.5 -46.5
t168.5 -22q112 27 161 73t49 140q0 49 -14 85t-37 57t-59.5 33t-73.5 16t-87 4q-49 0 -84.5 -3.5t-71.5 -16t-59 -33t-37 -56.5t-14 -86z" />
    <glyph glyph-name="nine" unicode="9" horiz-adv-x="1239" 
d="M591 512q-98 0 -172 11.5t-138 41t-104.5 78.5t-63.5 125t-23 180q0 134 37 225t110.5 140.5t165 69.5t218.5 20q120 0 208 -26.5t144 -73.5t89 -121t46 -158.5t13 -196.5q0 -167 -13 -285.5t-46.5 -216.5t-88 -159.5t-142 -103.5t-203 -59.5t-275.5 -17.5q-8 0 -21 0.5
t-49 1t-83 1.5l-20 190q32 2 100 3t113 2.5t111 9t111 20.5t95 39t80.5 62t51 92t21.5 128q-163 -22 -272 -22zM881 855q0 61 -4.5 107t-20 95.5t-42.5 81t-74.5 52t-113.5 20.5q-169 0 -232 -58.5t-63 -207.5q0 -147 72 -199.5t225 -52.5q96 0 248 22q5 55 5 140z" />
    <glyph glyph-name="colon" unicode=":" horiz-adv-x="577" 
d="M147 127q0 80 30.5 111t111.5 31t111.5 -30.5t30.5 -111.5t-30 -111.5t-112 -30.5t-112 30.5t-30 111.5zM147 867q0 80 30.5 111t111.5 31t111.5 -30.5t30.5 -111.5t-30 -111.5t-112 -30.5t-112 30.5t-30 111.5z" />
    <glyph glyph-name="semicolon" unicode=";" horiz-adv-x="568" 
d="M479 867q0 -81 -30 -111.5t-112 -30.5t-111.5 30.5t-29.5 111.5t30 111.5t111 30.5t111.5 -30.5t30.5 -111.5zM272 -269h-196l124 514h266z" />
    <glyph glyph-name="less" unicode="&#x3c;" horiz-adv-x="1253" 
d="M1112 286v-222l-1033 440v195l1033 440v-223l-751 -314z" />
    <glyph glyph-name="equal" unicode="=" horiz-adv-x="1296" 
d="M1156 277h-1017v211h1017v-211zM1156 715h-1017v210h1017v-210z" />
    <glyph glyph-name="greater" unicode="&#x3e;" horiz-adv-x="1253" 
d="M1174 504l-1033 -440v222l752 316l-752 314v223l1033 -440v-195z" />
    <glyph glyph-name="question" unicode="?" horiz-adv-x="1066" 
d="M543 543l-5 -126h-201l-5 132q-2 24 -2 51q0 56 14 94.5t38 58.5t55 32t65 17.5t68 11.5t65 18.5t55 33t38 60t14 96.5q0 129 -62.5 173.5t-243.5 44.5q-180 0 -333 -30l-42 192q198 44 410 44q73 0 129 -4t113 -15.5t98 -30.5t78 -51t60 -76t36 -106t13 -140
q0 -100 -24.5 -170.5t-64.5 -106.5t-88 -58t-96 -32t-88.5 -20.5t-66.5 -32.5t-27 -60zM437 -15q-82 0 -111.5 30.5t-29.5 111.5t30 111.5t111 30.5t111.5 -30.5t30.5 -111.5t-30 -111.5t-112 -30.5z" />
    <glyph glyph-name="at" unicode="@" horiz-adv-x="1839" 
d="M1710 825q36 -125 36 -278q0 -380 -207 -555t-614 -175q-408 0 -614.5 174.5t-206.5 555.5q0 197 55 338.5t165 227.5t263 125.5t359 39.5q86 0 155 -17.5t125.5 -56t87.5 -107.5t31 -164v-430q0 -102 -9 -201q-70 -43 -185 -69.5t-243 -26.5q-217 0 -314.5 84t-97.5 257
q0 146 70 230t224 113q78 15 326 29q0 99 -39 136.5t-142 37.5q-147 0 -252.5 -26.5t-185 -88t-119 -169t-39.5 -262.5q0 -153 38.5 -259.5t116 -168.5t182.5 -89.5t249 -27.5q145 0 249.5 27.5t182 89.5t116 168.5t38.5 259.5q0 119 -25 213zM1116 565v202
q-159 -5 -235 -27q-61 -17 -91.5 -35t-47 -54.5t-16.5 -99.5q0 -98 52.5 -134t164.5 -36q34 0 87 11t80 26q6 53 6 147z" />
    <glyph glyph-name="A" unicode="A" horiz-adv-x="1368" 
d="M296 0h-257l434 1276q58 170 215 170t214 -170l427 -1276h-265l-121 380h-528zM474 569h409l-206 648z" />
    <glyph glyph-name="B" unicode="B" horiz-adv-x="1316" 
d="M619 1446q91 0 164 -7.5t152 -31.5t131.5 -63.5t87 -110t34.5 -165.5q0 -119 -54 -208t-158 -128q234 -78 234 -359q0 -68 -16 -124t-43.5 -95.5t-69 -69.5t-88.5 -49t-106 -30t-117 -15.5t-126 -4.5q-268 0 -482 38v1386q200 37 457 37zM629 644h-219v-450
q107 -14 226 -14q80 0 133.5 8t100.5 31t69.5 69.5t22.5 118.5q0 60 -17 103t-45 68.5t-72.5 40.5t-90.5 20t-108 5zM410 820h219q61 0 104.5 4.5t86 18.5t68.5 38t41.5 64.5t15.5 96.5t-16 95.5t-41 62t-69.5 35t-88.5 16t-111 3.5q-99 0 -209 -14v-420z" />
    <glyph glyph-name="C" unicode="C" horiz-adv-x="1143" 
d="M1065 1407l-22 -190q-153 24 -281 24q-81 0 -142.5 -14.5t-102.5 -35t-69 -63.5t-42.5 -77t-22 -100t-8.5 -109t-1 -126t1 -126t8.5 -109.5t22 -100.5t42.5 -76.5t69 -63t102.5 -35t142.5 -14.5q135 0 281 23l22 -189q-160 -40 -359 -40q-141 0 -242 28t-168 82t-106 145
t-55 204t-16 272t16 272t55 204t106 144.5t168 81.5t242 28q203 0 359 -39z" />
    <glyph glyph-name="D" unicode="D" horiz-adv-x="1371" 
d="M162 23v1386q200 37 457 37q100 0 180.5 -11t143 -35t110 -56.5t81.5 -80.5t56 -102t35 -126t18 -147.5t5 -171.5q0 -110 -7 -194t-24.5 -163.5t-48 -135.5t-78 -103t-113.5 -75.5t-155 -44t-203 -15.5q-251 0 -457 38zM412 1233v-1035q90 -12 167 -12q61 0 112.5 6
t90.5 21t70 30t53.5 43.5t38.5 51t25.5 63t15.5 68t8.5 78t3 81.5t0.5 88t-0.5 88t-3 81.5t-8.5 78t-15.5 68t-25.5 63t-38.5 51t-53.5 43.5t-70 30t-90.5 21t-112.5 6q-69 0 -167 -13z" />
    <glyph glyph-name="E" unicode="E" horiz-adv-x="1142" 
d="M1021 1236h-384q-103 0 -151 -18.5t-65.5 -63t-17.5 -140.5v-188h590v-195h-590v-213q0 -96 17.5 -140.5t65.5 -63t151 -18.5h384v-190q-208 -10 -378 -10q-65 0 -108 1.5t-99.5 9t-92.5 20.5t-75.5 38t-62 60.5t-37 88t-14.5 120.5v763q0 68 14.5 120.5t37 88t62 60.5
t75.5 38t92.5 20.5t99.5 9t108 1.5q191 0 378 -9v-190z" />
    <glyph glyph-name="F" unicode="F" horiz-adv-x="1086" 
d="M407 0h-250v1097q0 68 14.5 120.5t37 88t62 60.5t75.5 38t92.5 20.5t99.5 9t108 1.5q191 0 378 -9v-190h-384q-78 0 -121.5 -8.5t-69.5 -35t-34 -66.5t-8 -112v-188h590v-195h-590v-631z" />
    <glyph glyph-name="G" unicode="G" horiz-adv-x="1318" 
d="M1155 1408l-22 -191q-161 24 -369 24q-81 0 -142.5 -15t-102.5 -35t-69 -63t-42 -77t-21.5 -100.5t-8.5 -109t-1 -125.5t1 -125.5t8.5 -109t21.5 -100.5t42 -77t69 -63t102.5 -35t142.5 -15q61 0 99 8.5t55 28t21.5 38.5t4.5 52v275h-246v191h492v-536q0 -52 -13 -92.5
t-33.5 -68t-56.5 -46.5t-72 -30t-91 -17t-101 -7.5t-115 -1.5q-118 0 -207 18.5t-154 58.5t-108.5 97.5t-69.5 142t-37 183.5t-11 231q0 133 11 233t37 184.5t69 141t108.5 96t154.5 57.5t207 18q257 0 447 -38z" />
    <glyph glyph-name="H" unicode="H" horiz-adv-x="1410" 
d="M1249 0h-251v631h-586v-631h-250v1432h250v-599h586v599h251v-1432z" />
    <glyph glyph-name="I" unicode="I" horiz-adv-x="570" 
d="M410 0h-250v1432h250v-1432z" />
    <glyph glyph-name="J" unicode="J" horiz-adv-x="835" 
d="M434 1432h251v-967q0 -132 -20 -220t-69.5 -148t-131.5 -86t-207 -26q-133 0 -236 42l21 187q96 -30 196 -30q38 0 70.5 11t62 36.5t46.5 74.5t17 117v1009z" />
    <glyph glyph-name="K" unicode="K" horiz-adv-x="1279" 
d="M938 1432h289l-562 -686l573 -746h-304l-522 703v-703h-250v1432h250v-664z" />
    <glyph glyph-name="L" unicode="L" horiz-adv-x="1013" 
d="M407 1432v-1014q0 -96 17.5 -140.5t65.5 -63t151 -18.5h359v-191q-239 -9 -354 -9q-65 0 -108 1.5t-99.5 9t-92.5 20.5t-75.5 38t-62 60.5t-37 88t-14.5 120.5v1098h250z" />
    <glyph glyph-name="M" unicode="M" horiz-adv-x="1727" 
d="M543 1294l318 -801l322 797q31 76 81 116t107 40q83 0 121.5 -42t43.5 -135l56 -1269h-241l-45 1096h-1l-303 -799q-38 -103 -139 -103t-141 103l-308 797h-2l-46 -1094h-230l58 1270q5 92 43 134t121 42q57 0 106 -38t79 -114z" />
    <glyph glyph-name="N" unicode="N" horiz-adv-x="1438" 
d="M536 1287l518 -976v1121h223v-1265q0 -182 -154 -182q-71 0 -123 36.5t-98 124.5l-517 978v-1124h-223v1265q0 181 154 181q68 0 121.5 -37t98.5 -122z" />
    <glyph glyph-name="O" unicode="O" horiz-adv-x="1379" 
d="M1257 716q0 -161 -17 -276t-55.5 -204.5t-104.5 -143t-161.5 -80.5t-228.5 -27t-228.5 27t-161.5 80.5t-104.5 143t-55.5 204.5t-17 276q0 201 26.5 334t91.5 224.5t174 131.5t275 40t275 -40t174 -131.5t91.5 -224.5t26.5 -334zM377 716q0 -56 0.5 -91t2.5 -83.5t7 -78
t12.5 -68t19.5 -61.5t29 -49.5t40 -42t52.5 -29t67 -19.5t82.5 -6t82.5 6t67 19.5t52.5 29t40 42t29 49.5t19.5 61.5t12.5 68t7 78t2.5 83.5t0.5 91t-0.5 91t-2.5 83.5t-7 78t-12.5 68t-19.5 61.5t-29 49.5t-40 42t-52.5 29t-67 19.5t-82.5 6t-82.5 -6t-67 -19.5t-52.5 -29
t-40 -42t-29 -49.5t-19.5 -61.5t-12.5 -68t-7 -78t-2.5 -83.5t-0.5 -91z" />
    <glyph glyph-name="P" unicode="P" horiz-adv-x="1251" 
d="M412 552v-552h-250v1409q200 37 457 37q104 0 181.5 -9t154 -37.5t125.5 -76.5t79 -129.5t30 -193.5q0 -110 -27 -191t-73.5 -131t-118.5 -80.5t-151 -41.5t-183 -11q-110 0 -224 7zM412 1240v-493q69 -9 207 -9q165 0 243.5 56.5t78.5 205.5q0 138 -69.5 196t-244.5 58
q-108 0 -215 -14z" />
    <glyph glyph-name="Q" unicode="Q" horiz-adv-x="1379" 
d="M690 -15q-133 0 -228.5 27t-161.5 80.5t-104.5 143t-55.5 204.5t-17 276q0 201 26.5 334t91.5 224.5t174 131.5t275 40t275 -40t174 -131.5t91.5 -224.5t26.5 -334q0 -316 -72.5 -481t-253.5 -220q44 -67 100.5 -107t161.5 -94l-160 -114q-9 5 -35.5 17.5t-38.5 18.5
t-37.5 19t-39.5 22t-37 24t-37.5 28t-33.5 31.5t-32.5 36.5t-27 41t-24.5 47zM690 188q45 0 82.5 6t67 19.5t52.5 29t40 42t29 49.5t19.5 61.5t12.5 68t7 78t2.5 83.5t0.5 91t-0.5 91t-2.5 83.5t-7 78t-12.5 68t-19.5 61.5t-29 49.5t-40 42t-52.5 29t-67 19.5t-82.5 6
t-82.5 -6t-67 -19.5t-52.5 -29t-40 -42t-29 -49.5t-19.5 -61.5t-12.5 -68t-7 -78t-2.5 -83.5t-0.5 -91t0.5 -91t2.5 -83.5t7 -78t12.5 -68t19.5 -61.5t29 -49.5t40 -42t52.5 -29t67 -19.5t82.5 -6z" />
    <glyph glyph-name="R" unicode="R" horiz-adv-x="1306" 
d="M412 563v-563h-250v1409q200 37 457 37q103 0 180 -9t154 -37t126 -75.5t79.5 -128t30.5 -191.5q0 -187 -77 -286.5t-221 -136.5l335 -582h-291l-304 556q-109 0 -219 7zM412 1241v-482q69 -9 207 -9q163 0 242.5 55t79.5 201q0 135 -70.5 192t-243.5 57q-108 0 -215 -14
z" />
    <glyph glyph-name="S" unicode="S" horiz-adv-x="1122" 
d="M498 194q136 0 204.5 42.5t68.5 161.5q0 43 -13.5 76.5t-34 55t-54 39t-63.5 28t-74 23.5q-16 4 -24 7q-86 26 -142 47.5t-111 55.5t-85.5 75t-49 101.5t-18.5 139.5q0 218 125 309t380 91q201 0 395 -40l-22 -192q-182 28 -305 28q-34 0 -57 -0.5t-59.5 -4t-62 -10
t-55 -19t-48 -30t-30.5 -44.5t-12 -61q0 -47 12.5 -81.5t32.5 -56t55 -38.5t70 -28t86 -25q21 -5 31 -8q103 -28 172 -60.5t120.5 -82.5t75 -120t23.5 -167q0 -224 -132 -322.5t-393 -98.5q-201 0 -399 41l24 198q216 -30 369 -30z" />
    <glyph glyph-name="T" unicode="T" horiz-adv-x="1053" 
d="M37 1432h979v-199h-365v-1233h-250v1233h-364v199z" />
    <glyph glyph-name="U" unicode="U" horiz-adv-x="1366" 
d="M398 1432v-972q0 -144 64.5 -206t219.5 -62t220 62t65 206v972h246v-956q0 -114 -25 -199.5t-69 -141t-112 -89.5t-146 -47.5t-179 -13.5t-179 13.5t-146 47.5t-112 89.5t-69 141t-25 199.5v956h247z" />
    <glyph glyph-name="V" unicode="V" horiz-adv-x="1308" 
d="M303 1432l354 -1168l359 1168h255l-416 -1275q-29 -91 -78 -131.5t-122 -40.5t-121.5 40.5t-78.5 131.5l-418 1275h266z" />
    <glyph glyph-name="W" unicode="W" horiz-adv-x="1837" 
d="M321 1432l219 -1159h1l206 828q22 89 65.5 128.5t112.5 39.5q68 0 112 -40t65 -129l199 -826h2l221 1158h244l-271 -1268q-38 -179 -184 -179t-190 178l-204 823l-203 -823q-44 -178 -189 -178q-147 0 -185 178l-272 1269h251z" />
    <glyph glyph-name="X" unicode="X" horiz-adv-x="1327" 
d="M799 737l470 -737h-288l-328 527l-320 -527h-275l465 729l-447 703h284l305 -497l308 497h269z" />
    <glyph glyph-name="Y" unicode="Y" horiz-adv-x="1216" 
d="M732 553v-553h-250v553l-460 879h268l319 -638l327 638h258z" />
    <glyph glyph-name="Z" unicode="Z" horiz-adv-x="1156" 
d="M406 203h651v-203h-833q-68 0 -104 24t-36 69q0 43 34 99l626 1038h-616v202h796q68 0 103.5 -24.5t35.5 -68.5q0 -42 -34 -99z" />
    <glyph glyph-name="bracketleft" unicode="[" horiz-adv-x="644" 
d="M582 1305h-206v-1462h205v-177h-421v1814h422v-175z" />
    <glyph glyph-name="backslash" unicode="\" horiz-adv-x="908" 
d="M68 1482h205l581 -1647h-205z" />
    <glyph glyph-name="bracketright" unicode="]" horiz-adv-x="644" 
d="M64 -157h205v1462h-206v175h422v-1814h-421v177z" />
    <glyph glyph-name="asciicircum" unicode="^" horiz-adv-x="1048" 
d="M293 625h-219l353 807h195l353 -807h-219l-231 536z" />
    <glyph glyph-name="underscore" unicode="_" horiz-adv-x="1026" 
d="M1032 -289h-1038v103h1038v-103z" />
    <glyph glyph-name="grave" unicode="`" horiz-adv-x="517" 
d="M463 1155h-181l-266 324h255z" />
    <glyph glyph-name="a" unicode="a" horiz-adv-x="1144" 
d="M506 -15q-217 0 -314.5 84t-97.5 257q0 148 70 234t224 109q111 17 388 29q0 116 -55 172t-178 56q-156 0 -380 -28l-19 171q236 40 421 40q77 0 139 -9t119.5 -32.5t96.5 -61.5t62 -99.5t23 -142.5v-482q0 -91 -10 -201q-170 -96 -489 -96zM776 344v202
q-222 -9 -297 -27q-89 -20 -122 -58t-33 -131q0 -98 52.5 -134t164.5 -36q148 0 228 37q7 62 7 147z" />
    <glyph glyph-name="b" unicode="b" horiz-adv-x="1187" 
d="M148 282v1235h233v-438q123 30 239 30q171 0 273.5 -52.5t153.5 -176t51 -333.5q0 -161 -28.5 -269t-93 -173t-158 -92.5t-231.5 -27.5q-260 0 -430 96q-9 99 -9 201zM381 348q0 -84 7 -146q70 -37 199 -37q55 0 97.5 11t71.5 28.5t49.5 47.5t31.5 59t17 72.5t7.5 78
t1.5 85.5q0 83 -3 126.5t-18 101t-45.5 85t-88.5 48t-143 20.5q-94 0 -184 -30v-550z" />
    <glyph glyph-name="c" unicode="c" horiz-adv-x="969" 
d="M873 1071l-19 -173q-128 23 -190 23q-63 0 -108.5 -5.5t-80 -16t-57 -32.5t-37 -46.5t-21.5 -67t-9.5 -85.5t-2.5 -110q0 -47 0.5 -76.5t3 -66t7.5 -58.5t13 -48.5t20 -42t29.5 -32.5t40.5 -26t53 -17t67 -11t83 -3q62 0 188 24l21 -178q-161 -38 -339 -38q-89 0 -158 21
t-114.5 62t-76 91.5t-46.5 118.5t-22.5 133.5t-6.5 146.5q0 94 8 165.5t28 136t55.5 108.5t88.5 77t129 48.5t175 15.5q150 0 278 -38z" />
    <glyph glyph-name="d" unicode="d" horiz-adv-x="1188" 
d="M807 1079v438h233v-1235q0 -91 -10 -201q-170 -96 -430 -96q-138 0 -231.5 27.5t-157.5 93t-92.5 173t-28.5 268.5q0 210 51 333.5t153.5 176t273.5 52.5q116 0 239 -30zM807 898q-90 30 -185 30q-85 0 -142.5 -20.5t-88 -48t-46 -85t-18 -101t-2.5 -126.5
q0 -51 1.5 -85.5t7.5 -78t17 -72t31.5 -59t49 -48t71 -28.5t97.5 -11q130 0 200 37q7 62 7 146v550z" />
    <glyph glyph-name="e" unicode="e" horiz-adv-x="1178" 
d="M533 439l-193 -8q4 -77 26 -129t61.5 -80t88 -39.5t116.5 -11.5q168 0 392 28l20 -174q-251 -40 -473 -40q-108 0 -189 28t-132.5 76t-84 120.5t-45 154t-12.5 183.5q0 152 25 256t82.5 173.5t150 101t229.5 31.5q116 0 201 -25t138 -68.5t84.5 -112.5t43 -146.5
t11.5 -181.5q0 -39 -3 -81q-92 -16 -257 -33t-280 -22zM334 590l220 10q148 7 282 25q3 21 3 51q0 130 -56 193.5t-188 63.5q-67 0 -115 -17.5t-76 -45.5t-44 -74.5t-21 -93t-5 -112.5z" />
    <glyph glyph-name="f" unicode="f" horiz-adv-x="743" 
d="M46 1094h185v105q0 161 86 247t255 86q73 0 144 -11l-17 -162h-81q-73 0 -113 -38.5t-40 -114.5v-112h231v-173h-231v-921h-234v921h-185v173z" />
    <glyph glyph-name="g" unicode="g" horiz-adv-x="1200" 
d="M821 40q-123 -30 -239 -30q-126 0 -213.5 27.5t-148 91t-88.5 169t-28 261.5q0 157 29.5 263t94 169.5t157.5 90.5t229 27q261 0 431 -96q9 -99 9 -201v-885q0 -81 -23 -142.5t-62 -99.5t-96.5 -61.5t-119.5 -32.5t-139 -9q-187 0 -441 43l19 171q217 -31 396 -31
q123 0 178 56t55 172v47zM821 221v525q0 85 -7 147q-70 37 -200 37q-53 0 -95 -11t-71 -28t-49.5 -46t-32 -57.5t-17.5 -70t-8 -76t-2 -82.5q0 -47 1 -77.5t5 -70t13 -64t23 -52.5t36 -45t52.5 -32t72.5 -21.5t95 -6.5q91 0 184 31z" />
    <glyph glyph-name="h" unicode="h" horiz-adv-x="1200" 
d="M1081 702v-702h-233v674q0 71 -8.5 113.5t-35.5 75.5t-78.5 46t-135.5 13q-110 0 -206 -43v-879h-233v1517h233v-449q131 41 270 41q81 0 145 -11t108.5 -29.5t76.5 -48.5t50.5 -62t29 -76.5t14 -85t3.5 -94.5z" />
    <glyph glyph-name="i" unicode="i" horiz-adv-x="532" 
d="M407 1390q0 -81 -30 -111.5t-112 -30.5t-111.5 30.5t-29.5 111.5t30 111.5t111 30.5t111.5 -30.5t30.5 -111.5zM383 0h-234v1094h234v-1094z" />
    <glyph glyph-name="j" unicode="j" horiz-adv-x="537" 
d="M152 -41v1135h234v-1092q0 -226 -99.5 -323t-323.5 -97q-28 0 -55 3l18 172q45 5 73.5 10t60.5 18.5t50 34t30 55.5t12 84zM127 1390q0 80 30.5 111t111.5 31t111 -30.5t30 -111.5t-29.5 -111.5t-111.5 -30.5t-112 30.5t-30 111.5z" />
    <glyph glyph-name="k" unicode="k" horiz-adv-x="1104" 
d="M795 1094h266l-451 -510l475 -584h-283l-419 538v-538h-232v1517h232v-907z" />
    <glyph glyph-name="l" unicode="l" horiz-adv-x="513" 
d="M125 283v1234h234v-1223q0 -75 18.5 -132t61.5 -114l-203 -97q-111 126 -111 332z" />
    <glyph glyph-name="m" unicode="m" horiz-adv-x="1778" 
d="M1006 702v-702h-234v677q0 131 -45 189t-171 58q-42 0 -90 -10t-78 -26q-6 -53 -6 -147v-741h-233v812q0 102 9 201q89 44 209.5 70t245.5 26q177 0 272 -69q172 69 353 69q100 0 172 -22t114 -57t66.5 -90t32 -110t7.5 -128v-702h-233v677q0 131 -45 189t-172 58
q-106 0 -192 -48q18 -68 18 -174z" />
    <glyph glyph-name="n" unicode="n" horiz-adv-x="1218" 
d="M1076 702v-702h-234v677q0 72 -8.5 114t-35 75t-77 46t-134.5 13q-129 0 -199 -37q-7 -62 -7 -147v-741h-233v812q0 102 9 201q195 96 494 96q81 0 144.5 -11t108 -29.5t76.5 -48.5t50 -62t29 -76.5t14 -85t3 -94.5z" />
    <glyph glyph-name="o" unicode="o" horiz-adv-x="1195" 
d="M1085 547q0 -304 -110.5 -433t-377.5 -129q-268 0 -377.5 127t-109.5 435t109.5 435t377.5 127q267 0 377.5 -129t110.5 -433zM345 547q0 -116 11 -186.5t41 -114t76.5 -59.5t123.5 -16q148 0 200.5 79t52.5 297t-52.5 297.5t-200.5 79.5q-102 0 -154.5 -32t-75 -111.5
t-22.5 -233.5z" />
    <glyph glyph-name="p" unicode="p" horiz-adv-x="1188" 
d="M382 15v-418h-233v1215q0 102 9 201q170 96 430 96q138 0 231.5 -27.5t158 -92.5t93 -173t28.5 -269q0 -210 -51 -333.5t-153.5 -176t-273.5 -52.5q-116 0 -239 30zM382 197q93 -31 184 -31q85 0 142.5 20.5t88 48t46 85t18 101t2.5 126.5q0 51 -1.5 85.5t-7.5 78
t-17 72.5t-31.5 59.5t-49 48t-71 28.5t-97.5 11q-130 0 -200 -37q-6 -53 -6 -147v-549z" />
    <glyph glyph-name="q" unicode="q" horiz-adv-x="1188" 
d="M1040 812v-1215h-233v418q-123 -30 -239 -30q-171 0 -273.5 52.5t-153.5 176t-51 333.5q0 161 28.5 269t93 173t158 92.5t231.5 27.5q260 0 430 -96q9 -99 9 -201zM807 746q0 94 -6 147q-70 37 -200 37q-55 0 -97.5 -11t-71 -28.5t-49 -48t-31.5 -59.5t-17 -72.5
t-7.5 -78t-1.5 -85.5q0 -83 2.5 -126.5t18 -101t46 -85t88 -48t142.5 -20.5q91 0 184 31v549z" />
    <glyph glyph-name="r" unicode="r" horiz-adv-x="726" 
d="M380 740v-740h-233v812q0 102 9 201q170 96 430 96q59 0 102 -4l-18 -186q-42 5 -84 5q-130 0 -200 -37q-6 -53 -6 -147z" />
    <glyph glyph-name="s" unicode="s" horiz-adv-x="1000" 
d="M415 173h42.5t45 2.5t50 6.5t43 13t39 22.5t24 34t10.5 47.5q0 26 -6 46.5t-19.5 36t-26 26t-36 19.5t-38.5 14t-44.5 13t-43.5 12q-144 43 -199 74q-123 69 -141 206q-3 25 -3 54q0 87 29 149t83.5 96t121 49t152.5 15q199 0 389 -42l-22 -172q-159 30 -274 30
q-27 0 -42 -0.5t-44.5 -2.5t-48 -6t-42 -12t-37 -19.5t-23 -30t-9.5 -41.5q0 -28 11 -50.5t25.5 -36.5t42 -27.5t45.5 -20t52 -17t47 -14.5q11 -4 33 -11q37 -12 55.5 -18.5t51 -19.5t49 -22t41.5 -25t37.5 -31.5t28.5 -38t23.5 -47.5t13 -57t5.5 -69q0 -92 -32 -156.5
t-92 -100t-133.5 -51t-168.5 -15.5q-203 0 -378 43l22 175q168 -30 291 -30z" />
    <glyph glyph-name="t" unicode="t" horiz-adv-x="766" 
d="M694 168l18 -167q-91 -16 -166 -16q-165 0 -240.5 73t-75.5 226v637h-185v173h185v271l235 38v-309h227v-173h-227v-617q0 -78 34 -108.5t112 -30.5q41 0 83 3z" />
    <glyph glyph-name="u" unicode="u" horiz-adv-x="1213" 
d="M833 353v741h232v-812q0 -102 -9 -201q-195 -96 -492 -96q-81 0 -144.5 11t-107.5 29.5t-75.5 49t-50 62t-29 76.5t-13.5 85.5t-3 94.5v701h234v-676q0 -72 8 -113.5t34.5 -75t77 -46.5t133.5 -13q130 0 198 36q7 62 7 147z" />
    <glyph glyph-name="v" unicode="v" horiz-adv-x="1157" 
d="M296 1094l288 -873l289 873h237l-343 -958q-54 -151 -189 -151q-134 0 -188 151l-341 958h247z" />
    <glyph glyph-name="w" unicode="w" horiz-adv-x="1690" 
d="M1198 226l195 868h230l-246 -956q-40 -153 -172 -153q-129 0 -176 153l-184 598l-183 -597q-47 -154 -176 -154q-134 0 -174 154l-244 955h239l193 -870l190 641q43 143 160 143q119 0 161 -143z" />
    <glyph glyph-name="x" unicode="x" horiz-adv-x="1184" 
d="M721 571l397 -571h-273l-264 394l-260 -394h-255l395 566l-366 528h267l238 -357l238 357h248z" />
    <glyph glyph-name="y" unicode="y" horiz-adv-x="1101" 
d="M288 1094l300 -731l234 731h237l-510 -1497h-236l169 477l-441 1020h247z" />
    <glyph glyph-name="z" unicode="z" horiz-adv-x="1124" 
d="M432 187h550v-187h-787q-43 0 -68.5 20t-25.5 54q0 40 32 83l554 759h-542v178h776q43 0 68.5 -19.5t25.5 -53.5q0 -40 -32 -83z" />
    <glyph glyph-name="braceleft" unicode="{" horiz-adv-x="646" 
d="M66 495v158q91 9 121.5 101t30.5 319q0 110 22.5 185t71.5 118.5t111.5 64t155.5 28.5l19 -157q-46 -6 -78 -23t-50 -39t-27.5 -58t-12 -68t-2.5 -81v-105q0 -46 -0.5 -69.5t-4 -68.5t-12 -73t-22.5 -61t-38 -56t-57 -37q44 -22 73 -63.5t41 -97.5t16 -100.5t4 -103.5
v-105q0 -49 2.5 -81t12 -68t27.5 -58t50 -38.5t78 -22.5l-19 -157q-93 8 -155.5 28.5t-111.5 64t-71.5 118.5t-22.5 185q0 228 -30.5 320t-121.5 101z" />
    <glyph glyph-name="bar" unicode="|" horiz-adv-x="516" 
d="M357 -403h-198v1920h198v-1920z" />
    <glyph glyph-name="braceright" unicode="}" horiz-adv-x="646" 
d="M218 938v105q0 49 -2.5 81t-12 68t-27 58t-49.5 39t-78 23l18 157q93 -8 155.5 -28.5t111.5 -64t71.5 -118.5t22.5 -185q0 -227 31 -319t122 -101v-158q-91 -9 -122 -101.5t-31 -319.5q0 -110 -22.5 -185t-71.5 -118.5t-111.5 -64t-155.5 -28.5l-18 157q46 6 78 22.5
t49.5 38.5t27 58t12 68t2.5 81v105q0 59 4 103.5t16.5 100.5t41.5 97.5t73 63.5q-33 14 -57 37t-38 56t-23 61.5t-12.5 72.5t-4 68.5t-0.5 69.5z" />
    <glyph glyph-name="asciitilde" unicode="~" horiz-adv-x="1270" 
d="M956 840h205q-17 -187 -97.5 -286t-195.5 -99q-68 0 -125 18.5t-94.5 44.5t-70.5 52t-68 44.5t-71 18.5q-49 0 -79 -41.5t-45 -128.5h-206q17 187 97.5 286t195.5 99q68 0 125 -18.5t94.5 -44.5t70.5 -52t68 -44.5t71 -18.5q94 0 125 170z" />
    <glyph glyph-name="uni00A0" unicode="&#xa0;" horiz-adv-x="537" 
 />
    <glyph glyph-name="exclamdown" unicode="&#xa1;" horiz-adv-x="559" 
d="M422 954q0 -80 -30.5 -111t-111.5 -31t-111.5 30.5t-30.5 111.5t30 111.5t112 30.5t112 -30.5t30 -111.5zM420 -351h-279l40 1015h199z" />
    <glyph glyph-name="cent" unicode="&#xa2;" horiz-adv-x="886" 
d="M808 359l20 -172q-116 -27 -241 -35v-188h-157v189q-85 10 -147.5 45.5t-99 85t-58.5 121.5t-29.5 142t-7.5 158q0 97 8.5 169t31 136.5t61 107.5t98.5 72.5t143 41.5v192h157v-185q125 -3 239 -36l-17 -168q-130 22 -184 22q-71 0 -120 -6t-84 -24.5t-54.5 -41.5
t-31 -67t-14.5 -90.5t-3 -122.5q0 -51 1 -82t4 -69.5t9 -60.5t16.5 -48.5t26.5 -41t39 -30t53.5 -22.5t69.5 -11.5t89 -4.5q60 0 182 24z" />
    <glyph glyph-name="sterling" unicode="&#xa3;" horiz-adv-x="1211" 
d="M287 611h-202v180h176q-15 110 -15 225q0 90 26 159t69.5 111.5t108.5 69t135.5 37t156.5 10.5q70 0 125 -11t100 -36t76 -49.5t76 -67.5l-122 -144q-62 54 -118 80t-129 26q-147 0 -202.5 -54t-55.5 -178q0 -56 14 -178h308v-180h-289q4 -74 4 -116q0 -59 -19.5 -140
t-46.5 -150h279q183 0 339 24l22 -189q-70 -17 -200 -28.5t-268 -11.5h-330q-62 0 -92.5 26t-30.5 68q0 24 18 64.5t39.5 81t39.5 106t18 133.5q0 59 -10 132z" />
    <glyph glyph-name="currency" unicode="&#xa4;" horiz-adv-x="1297" 
d="M904 1080l149 148l140 -137l-151 -147q79 -119 79 -259t-79 -254l151 -145l-140 -140l-149 151q-118 -76 -256 -76q-142 0 -258 76l-149 -151l-137 140l150 146q-75 116 -75 253q0 141 77 257l-152 149l137 138l151 -151q115 76 256 76t256 -74zM380 685
q0 -109 77.5 -189t190.5 -80q108 0 189.5 78.5t81.5 190.5q0 113 -79 193.5t-192 80.5q-109 0 -188.5 -80t-79.5 -194z" />
    <glyph glyph-name="yen" unicode="&#xa5;" horiz-adv-x="1136" 
d="M57 1389h247l265 -606l273 606h238l-297 -646h153v-151h-223l-25 -56v-75h248v-149h-248v-312h-243v312h-245v149h245v75l-25 56h-220v151h151z" />
    <glyph glyph-name="brokenbar" unicode="&#xa6;" horiz-adv-x="475" 
d="M337 -289h-198v661h198v-661zM337 743h-198v660h198v-660z" />
    <glyph glyph-name="section" unicode="&#xa7;" horiz-adv-x="1129" 
d="M477 237q-40 16 -62 25t-60 26.5t-60.5 31t-54.5 34.5t-51 40.5t-41 47t-33.5 55.5t-19.5 64t-8 75q0 168 172 275q-85 88 -85 197q0 151 111 244.5t304 93.5q199 0 389 -42l-22 -171q-173 32 -332 32q-104 0 -161 -36.5t-57 -105.5q0 -30 16 -57.5t37 -46.5t61.5 -41
t69 -34.5t78.5 -32.5q46 -19 76 -32t73.5 -35.5t72.5 -42.5t61 -50t51 -61.5t31.5 -72.5t12.5 -87q0 -163 -175 -269q99 -93 99 -220q0 -94 -41.5 -162.5t-112 -105.5t-149 -53.5t-166.5 -16.5q-199 0 -389 42l23 176q173 -32 331 -32h45t48 3t52.5 7.5t45.5 15t40.5 25
t25.5 38t11 53.5q0 22 -8 41.5t-18.5 34.5t-33 31.5t-38.5 26.5t-49.5 25.5t-51.5 23t-58 23.5zM404 809q-105 -58 -105 -155q0 -59 38.5 -105.5t134.5 -91.5q39 -18 122.5 -47.5t125.5 -49.5q110 60 110 151q0 62 -45 109t-153 96q-31 14 -108.5 43t-119.5 50z" />
    <glyph glyph-name="dieresis" unicode="&#xa8;" horiz-adv-x="874" 
d="M356 1303q0 -52 -34 -87.5t-85 -35.5q-52 0 -89 36t-37 87t37 87t89 36q51 0 85 -35.5t34 -87.5zM763 1303q0 -52 -35 -87.5t-87 -35.5t-87.5 35.5t-35.5 87.5t35.5 87.5t87.5 35.5t87 -35.5t35 -87.5z" />
    <glyph glyph-name="copyright" unicode="&#xa9;" horiz-adv-x="1648" 
d="M1183 871h-160q-11 71 -62 109.5t-128 38.5q-93 0 -149.5 -80.5t-56.5 -220.5t54.5 -218.5t151.5 -78.5q73 0 125 44t65 119h160q-12 -137 -112.5 -220t-237.5 -83q-123 0 -209.5 58.5t-127 155.5t-40.5 223q0 113 41.5 209.5t129 159.5t206.5 63q80 0 152.5 -28.5
t129 -94t68.5 -156.5zM825 1446q149 0 284 -57.5t233 -154.5t155.5 -232t57.5 -284q0 -199 -97.5 -367.5t-265.5 -267t-367 -98.5q-149 0 -284.5 58t-233 156.5t-155.5 234t-58 284.5q0 199 98 366.5t266 264.5t367 97zM825 1308q-121 0 -229.5 -46t-186.5 -124.5
t-123.5 -188t-45.5 -231.5q0 -124 45.5 -234.5t123.5 -189t186.5 -124.5t229.5 -46q162 0 296 77.5t211 214t77 302.5q0 164 -77 299.5t-211 213t-296 77.5z" />
    <glyph glyph-name="ordfeminine" unicode="&#xaa;" horiz-adv-x="860" 
d="M388 646q-149 0 -216 57.5t-67 175.5q0 200 203 233q69 11 260 19q0 79 -36.5 116.5t-118.5 37.5q-115 0 -261 -19l-13 117q156 27 289 27q67 0 117.5 -10.5t94 -35.5t66.5 -72.5t23 -116.5v-326q0 -69 -6 -136q-120 -67 -335 -67zM568 890v137q-147 -6 -198 -18
q-58 -13 -80 -39t-22 -89q0 -66 34.5 -90.5t109.5 -24.5q100 0 153 25q3 87 3 99z" />
    <glyph glyph-name="guillemotleft" unicode="&#xab;" horiz-adv-x="1110" 
d="M55 530l298 421h226l-271 -421l271 -421h-226zM504 530l298 421h225l-269 -421l269 -421h-225z" />
    <glyph glyph-name="logicalnot" unicode="&#xac;" horiz-adv-x="1276" 
d="M905 607h-794v211h1017v-634h-223v423z" />
    <glyph glyph-name="uni00AD" unicode="&#xad;" horiz-adv-x="793" 
d="M662 446h-531v196h531v-196z" />
    <glyph glyph-name="registered" unicode="&#xae;" horiz-adv-x="1059" 
d="M469 761h-108v500h180q198 0 198 -149q0 -106 -94 -136l105 -215h-121l-95 199h-65v-199zM86 1003q0 184 129.5 313.5t314.5 129.5q184 0 314 -129.5t130 -313.5t-130 -314.5t-314 -130.5t-314 130t-130 315zM872 1003q0 146 -99 246t-243 100t-243 -100t-99 -246
q0 -147 99 -247t243 -100t243 100t99 247zM469 1172v-124h59q104 0 104 64q0 33 -25 46.5t-82 13.5h-56z" />
    <glyph glyph-name="macron" unicode="&#xaf;" horiz-adv-x="886" 
d="M748 1222h-610v153h610v-153z" />
    <glyph glyph-name="degree" unicode="&#xb0;" horiz-adv-x="800" 
d="M715 1131q0 -130 -92.5 -222.5t-223.5 -92.5t-223 92t-92 223t92 223t223 92t223.5 -92.5t92.5 -222.5zM224 1131q0 -74 51 -125t124 -51q74 0 125.5 51.5t51.5 124.5t-51.5 124.5t-125.5 51.5q-73 0 -124 -51t-51 -125z" />
    <glyph glyph-name="plusminus" unicode="&#xb1;" horiz-adv-x="1216" 
d="M719 866h397v-210h-397v-336h-221v336h-398v210h398v333h221v-333zM1116 3h-1016v210h1016v-210z" />
    <glyph glyph-name="twosuperior" unicode="&#xb2;" horiz-adv-x="714" 
d="M647 976v-140h-589q12 65 19.5 102.5t19.5 83t24 71.5t30.5 55.5t42 49t55 39t72.5 37.5q84 35 119.5 70.5t35.5 95.5t-41 80t-154 20q-62 0 -193 -19l-15 126q159 29 274 29q68 0 119.5 -10t94 -33.5t64.5 -66t22 -102.5q0 -111 -61 -186t-184 -124q-82 -33 -111.5 -70
t-40.5 -108h397z" />
    <glyph glyph-name="threesuperior" unicode="&#xb3;" horiz-adv-x="706" 
d="M319 1677q53 0 95 -4.5t83.5 -18.5t69 -37t44.5 -62t17 -91q0 -126 -108 -189q121 -55 121 -182q0 -145 -82.5 -205t-243.5 -60q-107 0 -260 29l18 126q150 -19 211 -19q98 0 139.5 24.5t41.5 97.5q0 100 -85 111q-59 8 -169 8h-27v122q109 3 195 15q76 12 76 103
q0 62 -36.5 80.5t-113.5 18.5q-69 0 -225 -20l-17 125q146 28 256 28z" />
    <glyph glyph-name="acute" unicode="&#xb4;" horiz-adv-x="517" 
d="M235 1155h-180l191 324h255z" />
    <glyph glyph-name="mu" unicode="&#xb5;" horiz-adv-x="1295" 
d="M175 -403v1497h216v-666q0 -111 54 -179t154 -68q135 0 200.5 116.5t65.5 318.5v478h217v-676q0 -47 0.5 -68t3 -57t8.5 -53.5t16.5 -39.5t28 -35t41.5 -21v-159q-227 0 -283 213q-101 -213 -299 -213q-123 0 -208 91v-479h-215z" />
    <glyph glyph-name="paragraph" unicode="&#xb6;" horiz-adv-x="1308" 
d="M958 1273h-235v-1588h-187v894q-137 3 -246.5 60t-169.5 151.5t-60 207.5q0 214 140.5 324t390.5 110h553v-1747h-186v1588z" />
    <glyph glyph-name="periodcentered" unicode="&#xb7;" horiz-adv-x="535" 
d="M267 445q-82 0 -111.5 30.5t-29.5 111.5t30 111.5t111 30.5t111.5 -30.5t30.5 -111.5t-30 -111.5t-112 -30.5z" />
    <glyph glyph-name="cedilla" unicode="&#xb8;" horiz-adv-x="450" 
d="M317 0l-74 -116q64 -4 112.5 -43.5t48.5 -101.5q0 -61 -34 -101.5t-85 -57t-115 -16.5q-95 0 -167 43l37 97q65 -33 127 -33q34 0 57.5 14.5t23.5 45.5q0 30 -32.5 50.5t-69.5 27t-73 6.5l109 185h135z" />
    <glyph glyph-name="onesuperior" unicode="&#xb9;" horiz-adv-x="479" 
d="M379 838h-168v667q-88 -21 -186 -33l-7 130q127 18 230 66h131v-830z" />
    <glyph glyph-name="ordmasculine" unicode="&#xba;" horiz-adv-x="884" 
d="M442 1410q183 0 258.5 -87.5t75.5 -293.5q0 -207 -75.5 -295t-258.5 -88t-258.5 87t-75.5 296t75.5 295t258.5 86zM442 1283q-99 0 -133.5 -51t-34.5 -203t34.5 -203.5t133.5 -51.5t134 53.5t35 201.5q0 147 -35 200.5t-134 53.5z" />
    <glyph glyph-name="guillemotright" unicode="&#xbb;" horiz-adv-x="1110" 
d="M353 530l-269 421h225l298 -421l-298 -421h-225zM803 530l-271 421h226l298 -421l-298 -421h-226z" />
    <glyph glyph-name="onequarter" unicode="&#xbc;" horiz-adv-x="1536" 
d="M1356 315h103v-127h-103v-188h-167v188h-281q-62 0 -87 22t-25 63q0 49 59 125l285 368q33 41 62.5 57.5t66.5 16.5q39 0 63 -24t24 -71v-430zM422 1430v-831h-168v667q-93 -22 -185 -32l-8 129q133 21 230 67h131zM403 -29h-168l841 1490h168zM1190 602l-217 -287h217
v287z" />
    <glyph glyph-name="onehalf" unicode="&#xbd;" horiz-adv-x="1713" 
d="M1225 140h396v-140h-588q14 77 22.5 118.5t23.5 91.5t31 77t42 57.5t60.5 51.5t83.5 42q84 36 119 71t35 95q0 61 -40.5 80.5t-153.5 19.5q-82 0 -194 -18l-16 125q159 29 275 29q68 0 119.5 -10t94 -33t64.5 -65t22 -103q0 -112 -61 -187t-184 -124q-82 -33 -111.5 -70
t-39.5 -108zM426 599h-168v667q-93 -22 -185 -32l-8 129q133 21 230 67h131v-831zM1248 1461l-841 -1490h-167l840 1490h168z" />
    <glyph glyph-name="threequarters" unicode="&#xbe;" horiz-adv-x="1683" 
d="M1606 188h-104v-188h-166v188h-282q-61 0 -86 22t-25 63q0 50 58 125l286 368q32 41 61.5 57.5t66.5 16.5q39 0 63 -24t24 -71v-430h104v-127zM345 1439q67 0 117.5 -8.5t96.5 -30.5t70.5 -66t24.5 -109q0 -125 -108 -188q121 -55 121 -182q0 -145 -83 -205t-244 -60
q-112 0 -259 28l18 127q150 -19 211 -19q98 0 139 24.5t41 98.5q0 99 -84 110q-59 8 -169 8h-27v122q109 3 195 15q76 12 76 103q0 62 -36.5 80t-113.5 18t-225 -19l-17 125q146 28 256 28zM383 -29l840 1490h169l-841 -1490h-168zM1120 315h216v287z" />
    <glyph glyph-name="questiondown" unicode="&#xbf;" horiz-adv-x="1066" 
d="M730 664l5 -132q2 -24 2 -51q0 -56 -14 -94.5t-38 -58.5t-55 -32t-65 -18l-68 -12t-65 -18t-55 -33t-38 -60.5t-14 -96.5q0 -88 27 -133.5t91 -64.5t188 -19q180 0 333 30l41 -192q-203 -45 -409 -45q-73 0 -129 4t-113 15.5t-98.5 31t-78.5 51.5t-60 76t-36 106t-13 140
q0 100 25 170.5t64.5 106.5t87.5 58t96.5 32t89 20.5t66.5 32.5t27 60l4 126h202zM771 954q0 -80 -30.5 -111t-111.5 -31t-111.5 30.5t-30.5 111.5t30 111.5t112 30.5t112 -30.5t30 -111.5z" />
    <glyph glyph-name="Agrave" unicode="&#xc0;" horiz-adv-x="1368" 
d="M296 0h-257l434 1276q58 170 215 170t214 -170l427 -1276h-265l-121 380h-528zM790 1575h-193l-285 262h272zM474 569h409l-206 648z" />
    <glyph glyph-name="Aacute" unicode="&#xc1;" horiz-adv-x="1368" 
d="M296 0h-257l434 1276q58 170 215 170t214 -170l427 -1276h-265l-121 380h-528zM779 1563h-193l205 262h273zM474 569h409l-206 648z" />
    <glyph glyph-name="Acircumflex" unicode="&#xc2;" horiz-adv-x="1368" 
d="M296 0h-257l434 1276q58 170 215 170t214 -170l427 -1276h-265l-121 380h-528zM552 1563h-191l242 262h158l247 -262h-193l-130 151zM474 569h409l-206 648z" />
    <glyph glyph-name="Atilde" unicode="&#xc3;" horiz-adv-x="1368" 
d="M836 1809h129q-9 -113 -58 -174t-113 -61q-42 0 -75 16.5t-49.5 36t-36.5 36t-38 16.5q-49 0 -63 -100h-128q9 112 58 173.5t113 61.5q42 0 75 -16.5t49.5 -36t36.5 -36t38 -16.5q47 0 62 100zM39 0l434 1276q58 170 215 170t214 -170l427 -1276h-265l-121 380h-528
l-119 -380h-257zM883 569l-206 648l-203 -648h409z" />
    <glyph glyph-name="Adieresis" unicode="&#xc4;" horiz-adv-x="1368" 
d="M296 0h-257l434 1276q58 170 215 170t214 -170l427 -1276h-265l-121 380h-528zM604 1690q0 -52 -34 -87t-86 -35t-88.5 35.5t-36.5 86.5q0 52 36.5 87.5t88.5 35.5q51 0 85.5 -35.5t34.5 -87.5zM1010 1690q0 -52 -34.5 -87t-86.5 -35t-87.5 35t-35.5 87t35.5 87.5
t87.5 35.5t86.5 -35.5t34.5 -87.5zM474 569h409l-206 648z" />
    <glyph glyph-name="Aring" unicode="&#xc5;" horiz-adv-x="1368" 
d="M296 0h-257l434 1276q58 170 215 170t214 -170l427 -1276h-265l-121 380h-528zM896 1755q0 -88 -61.5 -149.5t-149.5 -61.5t-150 61.5t-62 149.5t62 150t150 62t149.5 -62t61.5 -150zM573 1755q0 -46 33 -78.5t79 -32.5t78.5 32.5t32.5 78.5t-32.5 78.5t-78.5 32.5
t-79 -32.5t-33 -78.5zM474 569h409l-206 648z" />
    <glyph glyph-name="AE" unicode="&#xc6;" horiz-adv-x="1869" 
d="M296 0h-257l429 1247q21 60 54.5 100.5t79.5 61.5t95 29t112 8q126 0 213 -63q61 33 143 42.5t205 9.5q191 0 378 -9v-190h-384q-78 0 -121.5 -8.5t-69.5 -35t-34 -66.5t-8 -112v-188h589v-195h-589v-213q0 -72 8 -112t34 -66.5t69.5 -35t121.5 -8.5h384v-190
q-208 -10 -378 -10q-65 0 -108 1.5t-99.5 9t-92.5 20.5t-75.5 38t-62 60.5t-37 88t-14.5 120.5v46h-464zM652 1124l-176 -555h405v538q0 72 -24.5 104t-75.5 32q-49 0 -79 -29t-50 -90z" />
    <glyph glyph-name="Ccedilla" unicode="&#xc7;" horiz-adv-x="1143" 
d="M452 -383l36 97q65 -33 128 -33q34 0 57.5 14.5t23.5 45.5q0 23 -18.5 40.5t-47.5 26.5t-56.5 13t-53.5 4l97 163q-148 10 -245.5 57t-153.5 140.5t-78 219t-22 311.5q0 159 16 272t55 204t106 144.5t168 81.5t242 28q203 0 359 -39l-22 -190q-153 24 -281 24
q-81 0 -142.5 -14.5t-102.5 -35t-69 -63.5t-42.5 -77t-22 -100t-8.5 -109t-1 -126t1 -126t8.5 -109.5t22 -100.5t42.5 -76.5t69 -63t102.5 -35t142.5 -14.5q135 0 281 23l22 -189q-143 -35 -315 -39l-58 -92q64 -4 112 -43.5t48 -101.5q0 -61 -34 -101.5t-85 -57t-115 -16.5
q-94 0 -166 43z" />
    <glyph glyph-name="Egrave" unicode="&#xc8;" horiz-adv-x="1142" 
d="M1021 1236h-384q-103 0 -151 -18.5t-65.5 -63t-17.5 -140.5v-188h590v-195h-590v-213q0 -96 17.5 -140.5t65.5 -63t151 -18.5h384v-190q-208 -10 -378 -10q-65 0 -108 1.5t-99.5 9t-92.5 20.5t-75.5 38t-62 60.5t-37 88t-14.5 120.5v763q0 68 14.5 120.5t37 88t62 60.5
t75.5 38t92.5 20.5t99.5 9t108 1.5q191 0 378 -9v-190zM809 1552h-193l-285 262h272z" />
    <glyph glyph-name="Eacute" unicode="&#xc9;" horiz-adv-x="1142" 
d="M1021 1236h-384q-103 0 -151 -18.5t-65.5 -63t-17.5 -140.5v-188h590v-195h-590v-213q0 -96 17.5 -140.5t65.5 -63t151 -18.5h384v-190q-208 -10 -378 -10q-65 0 -108 1.5t-99.5 9t-92.5 20.5t-75.5 38t-62 60.5t-37 88t-14.5 120.5v763q0 68 14.5 120.5t37 88t62 60.5
t75.5 38t92.5 20.5t99.5 9t108 1.5q191 0 378 -9v-190zM668 1552h-194l206 262h272z" />
    <glyph glyph-name="Ecircumflex" unicode="&#xca;" horiz-adv-x="1142" 
d="M1021 1236h-384q-103 0 -151 -18.5t-65.5 -63t-17.5 -140.5v-188h590v-195h-590v-213q0 -96 17.5 -140.5t65.5 -63t151 -18.5h384v-190q-208 -10 -378 -10q-65 0 -108 1.5t-99.5 9t-92.5 20.5t-75.5 38t-62 60.5t-37 88t-14.5 120.5v763q0 68 14.5 120.5t37 88t62 60.5
t75.5 38t92.5 20.5t99.5 9t108 1.5q191 0 378 -9v-190zM485 1552h-190l241 262h159l246 -262h-193l-129 151z" />
    <glyph glyph-name="Edieresis" unicode="&#xcb;" horiz-adv-x="1142" 
d="M1021 1236h-384q-103 0 -151 -18.5t-65.5 -63t-17.5 -140.5v-188h590v-195h-590v-213q0 -96 17.5 -140.5t65.5 -63t151 -18.5h384v-190q-208 -10 -378 -10q-65 0 -108 1.5t-99.5 9t-92.5 20.5t-75.5 38t-62 60.5t-37 88t-14.5 120.5v763q0 68 14.5 120.5t37 88t62 60.5
t75.5 38t92.5 20.5t99.5 9t108 1.5q191 0 378 -9v-190zM539 1681q0 -52 -34.5 -87.5t-85.5 -35.5q-52 0 -88.5 35.5t-36.5 87.5q0 51 36.5 86.5t88.5 35.5t86 -35t34 -87zM945 1681q0 -52 -34.5 -87.5t-86.5 -35.5t-88 35.5t-36 87.5t36 87t88 35t86.5 -35t34.5 -87z" />
    <glyph glyph-name="Igrave" unicode="&#xcc;" horiz-adv-x="570" 
d="M392 1556h-193l-285 263h273zM410 0h-250v1432h250v-1432z" />
    <glyph glyph-name="Iacute" unicode="&#xcd;" horiz-adv-x="570" 
d="M410 0h-250v1432h250v-1432zM371 1556h-193l205 263h273z" />
    <glyph glyph-name="Icircumflex" unicode="&#xce;" horiz-adv-x="570" 
d="M152 1547h-190l241 262h159l246 -262h-193l-129 151zM410 0h-250v1432h250v-1432z" />
    <glyph glyph-name="Idieresis" unicode="&#xcf;" horiz-adv-x="570" 
d="M205 1676q0 -52 -34 -87t-86 -35t-89 35.5t-37 86.5t37 87t89 36q51 0 85.5 -35.5t34.5 -87.5zM611 1676q0 -52 -34.5 -87t-86.5 -35t-88 35t-36 87t36 87.5t88 35.5t86.5 -35.5t34.5 -87.5zM410 0h-250v1432h250v-1432z" />
    <glyph glyph-name="Eth" unicode="&#xd0;" horiz-adv-x="1419" 
d="M210 652h-115v173h115v584q200 37 457 37q100 0 180.5 -11t143 -35t110 -56.5t81.5 -80.5t56 -102t35 -126t18 -147.5t5 -171.5q0 -110 -7 -194t-24.5 -163.5t-48 -135.5t-78 -103t-113.5 -75.5t-155 -44t-203 -15.5q-251 0 -457 38v629zM460 652v-454q90 -12 167 -12
q61 0 112.5 6t90.5 21t70 30t53.5 43.5t38.5 51t25.5 63t15.5 68t8.5 78t3 81.5t0.5 88t-0.5 88t-3 81.5t-8.5 78t-15.5 68t-25.5 63t-38.5 51t-53.5 43.5t-70 30t-90.5 21t-112.5 6q-69 0 -167 -13v-408h215v-173h-215z" />
    <glyph glyph-name="Ntilde" unicode="&#xd1;" horiz-adv-x="1438" 
d="M536 1287l518 -976v1121h223v-1265q0 -182 -154 -182q-71 0 -123 36.5t-98 124.5l-517 978v-1124h-223v1265q0 181 154 181q68 0 121.5 -37t98.5 -122zM877 1808h129q-9 -113 -58 -174t-113 -61q-42 0 -75 16.5t-49.5 36t-36.5 36t-38 16.5q-49 0 -63 -100h-128
q9 112 58 173.5t113 61.5q42 0 75 -16.5t49.5 -36t36.5 -36t38 -16.5q47 0 62 100z" />
    <glyph glyph-name="Ograve" unicode="&#xd2;" horiz-adv-x="1379" 
d="M1257 716q0 -161 -17 -276t-55.5 -204.5t-104.5 -143t-161.5 -80.5t-228.5 -27t-228.5 27t-161.5 80.5t-104.5 143t-55.5 204.5t-17 276q0 201 26.5 334t91.5 224.5t174 131.5t275 40t275 -40t174 -131.5t91.5 -224.5t26.5 -334zM377 716q0 -56 0.5 -91t2.5 -83.5t7 -78
t12.5 -68t19.5 -61.5t29 -49.5t40 -42t52.5 -29t67 -19.5t82.5 -6t82.5 6t67 19.5t52.5 29t40 42t29 49.5t19.5 61.5t12.5 68t7 78t2.5 83.5t0.5 91t-0.5 91t-2.5 83.5t-7 78t-12.5 68t-19.5 61.5t-29 49.5t-40 42t-52.5 29t-67 19.5t-82.5 6t-82.5 -6t-67 -19.5t-52.5 -29
t-40 -42t-29 -49.5t-19.5 -61.5t-12.5 -68t-7 -78t-2.5 -83.5t-0.5 -91zM850 1556h-193l-285 262h273z" />
    <glyph glyph-name="Oacute" unicode="&#xd3;" horiz-adv-x="1379" 
d="M1257 716q0 -161 -17 -276t-55.5 -204.5t-104.5 -143t-161.5 -80.5t-228.5 -27t-228.5 27t-161.5 80.5t-104.5 143t-55.5 204.5t-17 276q0 201 26.5 334t91.5 224.5t174 131.5t275 40t275 -40t174 -131.5t91.5 -224.5t26.5 -334zM377 716q0 -56 0.5 -91t2.5 -83.5t7 -78
t12.5 -68t19.5 -61.5t29 -49.5t40 -42t52.5 -29t67 -19.5t82.5 -6t82.5 6t67 19.5t52.5 29t40 42t29 49.5t19.5 61.5t12.5 68t7 78t2.5 83.5t0.5 91t-0.5 91t-2.5 83.5t-7 78t-12.5 68t-19.5 61.5t-29 49.5t-40 42t-52.5 29t-67 19.5t-82.5 6t-82.5 -6t-67 -19.5t-52.5 -29
t-40 -42t-29 -49.5t-19.5 -61.5t-12.5 -68t-7 -78t-2.5 -83.5t-0.5 -91zM736 1556h-194l205 262h273z" />
    <glyph glyph-name="Ocircumflex" unicode="&#xd4;" horiz-adv-x="1379" 
d="M1257 716q0 -161 -17 -276t-55.5 -204.5t-104.5 -143t-161.5 -80.5t-228.5 -27t-228.5 27t-161.5 80.5t-104.5 143t-55.5 204.5t-17 276q0 201 26.5 334t91.5 224.5t174 131.5t275 40t275 -40t174 -131.5t91.5 -224.5t26.5 -334zM377 716q0 -56 0.5 -91t2.5 -83.5t7 -78
t12.5 -68t19.5 -61.5t29 -49.5t40 -42t52.5 -29t67 -19.5t82.5 -6t82.5 6t67 19.5t52.5 29t40 42t29 49.5t19.5 61.5t12.5 68t7 78t2.5 83.5t0.5 91t-0.5 91t-2.5 83.5t-7 78t-12.5 68t-19.5 61.5t-29 49.5t-40 42t-52.5 29t-67 19.5t-82.5 6t-82.5 -6t-67 -19.5t-52.5 -29
t-40 -42t-29 -49.5t-19.5 -61.5t-12.5 -68t-7 -78t-2.5 -83.5t-0.5 -91zM557 1556h-190l241 262h159l246 -262h-193l-129 152z" />
    <glyph glyph-name="Otilde" unicode="&#xd5;" horiz-adv-x="1379" 
d="M842 1792h128q-9 -113 -58 -173.5t-113 -60.5q-42 0 -75 16.5t-49.5 36t-36.5 36t-38 16.5q-48 0 -62 -100h-129q9 112 58 173t113 61q42 0 75 -16.5t49.5 -36t36.5 -36t38 -16.5q48 0 63 100zM123 716q0 201 26.5 334t91.5 224.5t174 131.5t275 40t275 -40t174 -131.5
t91.5 -224.5t26.5 -334q0 -161 -17 -276t-55.5 -204.5t-104.5 -143t-161.5 -80.5t-228.5 -27t-228.5 27t-161.5 80.5t-104.5 143t-55.5 204.5t-17 276zM1003 716q0 56 -0.5 91t-2.5 83.5t-7 78t-12.5 68t-19.5 61.5t-29 49.5t-40 42t-52.5 29t-67 19.5t-82.5 6t-82.5 -6
t-67 -19.5t-52.5 -29t-40 -42t-29 -49.5t-19.5 -61.5t-12.5 -68t-7 -78t-2.5 -83.5t-0.5 -91t0.5 -91t2.5 -83.5t7 -78t12.5 -68t19.5 -61.5t29 -49.5t40 -42t52.5 -29t67 -19.5t82.5 -6t82.5 6t67 19.5t52.5 29t40 42t29 49.5t19.5 61.5t12.5 68t7 78t2.5 83.5t0.5 91z" />
    <glyph glyph-name="Odieresis" unicode="&#xd6;" horiz-adv-x="1379" 
d="M610 1672q0 -52 -34 -87t-86 -35t-89 35.5t-37 86.5t37 87t89 36q51 0 85.5 -35.5t34.5 -87.5zM1257 716q0 -161 -17 -276t-55.5 -204.5t-104.5 -143t-161.5 -80.5t-228.5 -27t-228.5 27t-161.5 80.5t-104.5 143t-55.5 204.5t-17 276q0 201 26.5 334t91.5 224.5
t174 131.5t275 40t275 -40t174 -131.5t91.5 -224.5t26.5 -334zM377 716q0 -56 0.5 -91t2.5 -83.5t7 -78t12.5 -68t19.5 -61.5t29 -49.5t40 -42t52.5 -29t67 -19.5t82.5 -6t82.5 6t67 19.5t52.5 29t40 42t29 49.5t19.5 61.5t12.5 68t7 78t2.5 83.5t0.5 91t-0.5 91t-2.5 83.5
t-7 78t-12.5 68t-19.5 61.5t-29 49.5t-40 42t-52.5 29t-67 19.5t-82.5 6t-82.5 -6t-67 -19.5t-52.5 -29t-40 -42t-29 -49.5t-19.5 -61.5t-12.5 -68t-7 -78t-2.5 -83.5t-0.5 -91zM1016 1672q0 -52 -34.5 -87t-86.5 -35t-88 35t-36 87t36 87.5t88 35.5t86.5 -35.5t34.5 -87.5z
" />
    <glyph glyph-name="multiply" unicode="&#xd7;" horiz-adv-x="1099" 
d="M1005 912l-309 -310l311 -310l-146 -148l-311 311l-311 -311l-146 146l311 311l-311 311l148 146l310 -310l310 311z" />
    <glyph glyph-name="Oslash" unicode="&#xd8;" horiz-adv-x="1379" 
d="M1209 1465l-91 -164q75 -84 107 -226t32 -359q0 -161 -17 -276t-55.5 -204.5t-104.5 -143t-161.5 -80.5t-228.5 -27q-164 0 -279 43l-87 -156l-153 94l91 164q-75 84 -107 226.5t-32 359.5q0 201 26.5 334t91.5 224.5t174 131.5t275 40q168 0 278 -43l87 157zM978 1049
l-459 -827q64 -34 171 -34q45 0 82.5 6t67 19.5t52.5 29t40 42t29 49.5t19.5 61.5t12.5 68t7 78t2.5 83.5t0.5 91q0 241 -25 333zM402 384l458 825q-64 35 -170 35q-45 0 -82.5 -6t-67 -19.5t-52.5 -29t-40 -42t-29 -49.5t-19.5 -61.5t-12.5 -68t-7 -78t-2.5 -83.5t-0.5 -91
q0 -240 25 -332z" />
    <glyph glyph-name="Ugrave" unicode="&#xd9;" horiz-adv-x="1366" 
d="M398 1432v-972q0 -144 64.5 -206t219.5 -62t220 62t65 206v972h246v-956q0 -114 -25 -199.5t-69 -141t-112 -89.5t-146 -47.5t-179 -13.5t-179 13.5t-146 47.5t-112 89.5t-69 141t-25 199.5v956h247zM836 1546h-193l-285 262h273z" />
    <glyph glyph-name="Uacute" unicode="&#xda;" horiz-adv-x="1366" 
d="M398 1432v-972q0 -144 64.5 -206t219.5 -62t220 62t65 206v972h246v-956q0 -114 -25 -199.5t-69 -141t-112 -89.5t-146 -47.5t-179 -13.5t-179 13.5t-146 47.5t-112 89.5t-69 141t-25 199.5v956h247zM732 1546h-193l205 262h273z" />
    <glyph glyph-name="Ucircumflex" unicode="&#xdb;" horiz-adv-x="1366" 
d="M398 1432v-972q0 -144 64.5 -206t219.5 -62t220 62t65 206v972h246v-956q0 -114 -25 -199.5t-69 -141t-112 -89.5t-146 -47.5t-179 -13.5t-179 13.5t-146 47.5t-112 89.5t-69 141t-25 199.5v956h247zM560 1546h-191l242 262h158l247 -262h-193l-130 152z" />
    <glyph glyph-name="Udieresis" unicode="&#xdc;" horiz-adv-x="1366" 
d="M398 1432v-972q0 -144 64.5 -206t219.5 -62t220 62t65 206v972h246v-956q0 -114 -25 -199.5t-69 -141t-112 -89.5t-146 -47.5t-179 -13.5t-179 13.5t-146 47.5t-112 89.5t-69 141t-25 199.5v956h247zM602 1677q0 -52 -34 -87t-86 -35t-89 35.5t-37 86.5t37 87t89 36
q51 0 85.5 -35.5t34.5 -87.5zM1008 1677q0 -52 -34.5 -87t-86.5 -35t-88 35t-36 87t36 87.5t88 35.5t86.5 -35.5t34.5 -87.5z" />
    <glyph glyph-name="Yacute" unicode="&#xdd;" horiz-adv-x="1216" 
d="M732 553v-553h-250v553l-460 879h268l319 -638l327 638h258zM669 1540h-194l205 262h273z" />
    <glyph glyph-name="Thorn" unicode="&#xde;" horiz-adv-x="1228" 
d="M151 1432h249v-249q109 8 208 8q102 0 178.5 -8.5t154 -36t126.5 -74t79.5 -126.5t30.5 -190q0 -107 -28 -186.5t-74.5 -128t-119 -77.5t-151 -39.5t-180.5 -10.5q-110 0 -224 7v-321h-249v1432zM400 984v-468q69 -9 208 -9q80 0 135.5 10.5t99.5 37.5t65.5 77t21.5 124
q0 132 -71.5 187t-243.5 55q-108 0 -215 -14z" />
    <glyph glyph-name="germandbls" unicode="&#xdf;" horiz-adv-x="1260" 
d="M770 171q24 0 42.5 1.5t46 8.5t45.5 19.5t31.5 38t13.5 60.5q0 51 -23 85.5t-59.5 53.5t-80.5 34.5t-88 35.5t-80.5 49t-59.5 83t-23 129q0 60 18 106t46.5 73.5t63.5 48.5t69.5 39t63 38t46.5 51.5t18 73.5q0 66 -56 106.5t-175 40.5q-139 0 -195.5 -81.5t-56.5 -294.5
v-970h-233v970q0 302 112.5 432t372.5 130q235 0 350 -94.5t115 -250.5q0 -59 -18 -106t-47 -77t-64 -53.5t-69.5 -42t-63.5 -37.5t-47 -44.5t-18 -57.5q0 -35 18 -61t47.5 -40t67 -29t77 -28t77 -37.5t67 -56t47.5 -85.5t18 -124q0 -87 -27.5 -151t-78 -101t-114.5 -54
t-144 -17q-170 0 -326 48l18 174q160 -36 256 -36z" />
    <glyph glyph-name="agrave" unicode="&#xe0;" horiz-adv-x="1144" 
d="M506 -15q-217 0 -314.5 84t-97.5 257q0 148 70 234t224 109q111 17 388 29q0 116 -55 172t-178 56q-156 0 -380 -28l-19 171q236 40 421 40q77 0 139 -9t119.5 -32.5t96.5 -61.5t62 -99.5t23 -142.5v-482q0 -91 -10 -201q-170 -96 -489 -96zM776 344v202
q-222 -9 -297 -27q-89 -20 -122 -58t-33 -131q0 -98 52.5 -134t164.5 -36q148 0 228 37q7 62 7 147zM235 1558h255l191 -324h-180z" />
    <glyph glyph-name="aacute" unicode="&#xe1;" horiz-adv-x="1144" 
d="M506 -15q-217 0 -314.5 84t-97.5 257q0 148 70 234t224 109q111 17 388 29q0 116 -55 172t-178 56q-156 0 -380 -28l-19 171q236 40 421 40q77 0 139 -9t119.5 -32.5t96.5 -61.5t62 -99.5t23 -142.5v-482q0 -91 -10 -201q-170 -96 -489 -96zM776 344v202
q-222 -9 -297 -27q-89 -20 -122 -58t-33 -131q0 -98 52.5 -134t164.5 -36q148 0 228 37q7 62 7 147zM636 1556h255l-266 -324h-181z" />
    <glyph glyph-name="acircumflex" unicode="&#xe2;" horiz-adv-x="1144" 
d="M506 -15q-217 0 -314.5 84t-97.5 257q0 148 70 234t224 109q111 17 388 29q0 116 -55 172t-178 56q-156 0 -380 -28l-19 171q236 40 421 40q77 0 139 -9t119.5 -32.5t96.5 -61.5t62 -99.5t23 -142.5v-482q0 -91 -10 -201q-170 -96 -489 -96zM776 344v202
q-222 -9 -297 -27q-89 -20 -122 -58t-33 -131q0 -98 52.5 -134t164.5 -36q148 0 228 37q7 62 7 147zM500 1550h148l231 -324h-181l-121 187l-125 -187h-178z" />
    <glyph glyph-name="atilde" unicode="&#xe3;" horiz-adv-x="1144" 
d="M506 -15q-217 0 -314.5 84t-97.5 257q0 148 70 234t224 109q111 17 388 29q0 116 -55 172t-178 56q-156 0 -380 -28l-19 171q236 40 421 40q77 0 139 -9t119.5 -32.5t96.5 -61.5t62 -99.5t23 -142.5v-482q0 -91 -10 -201q-170 -96 -489 -96zM726 1513h128
q-9 -117 -58 -180.5t-113 -63.5q-34 0 -62 11t-45.5 27.5t-32 32.5t-29.5 27t-30 11q-48 0 -62 -104h-129q9 117 58 180.5t113 63.5q34 0 62 -11t45.5 -27t32 -32.5t29.5 -27.5t30 -11q48 0 63 104zM324 330q0 -98 52.5 -134t164.5 -36q148 0 228 37q7 62 7 147v202
q-222 -9 -297 -27q-89 -20 -122 -58t-33 -131z" />
    <glyph glyph-name="adieresis" unicode="&#xe4;" horiz-adv-x="1144" 
d="M506 -15q-217 0 -314.5 84t-97.5 257q0 148 70 234t224 109q111 17 388 29q0 116 -55 172t-178 56q-156 0 -380 -28l-19 171q236 40 421 40q77 0 139 -9t119.5 -32.5t96.5 -61.5t62 -99.5t23 -142.5v-482q0 -91 -10 -201q-170 -96 -489 -96zM776 344v202
q-222 -9 -297 -27q-89 -20 -122 -58t-33 -131q0 -98 52.5 -134t164.5 -36q148 0 228 37q7 62 7 147zM251 1385q0 52 36.5 87.5t88.5 35.5q51 0 85.5 -35.5t34.5 -87.5t-34 -87t-86 -35t-88.5 35.5t-36.5 86.5zM657 1385q0 52 36 87.5t88 35.5t86.5 -35.5t34.5 -87.5
t-34.5 -87t-86.5 -35t-88 35t-36 87z" />
    <glyph glyph-name="aring" unicode="&#xe5;" horiz-adv-x="1144" 
d="M506 -15q-217 0 -314.5 84t-97.5 257q0 148 70 234t224 109q111 17 388 29q0 116 -55 172t-178 56q-156 0 -380 -28l-19 171q236 40 421 40q77 0 139 -9t119.5 -32.5t96.5 -61.5t62 -99.5t23 -142.5v-482q0 -91 -10 -201q-170 -96 -489 -96zM776 344v202
q-222 -9 -297 -27q-89 -20 -122 -58t-33 -131q0 -98 52.5 -134t164.5 -36q148 0 228 37q7 62 7 147zM356 1419q0 88 62 150t150 62t150 -62t62 -150t-62 -150t-150 -62t-150 62t-62 150zM679 1419q0 46 -32.5 78.5t-78.5 32.5t-78.5 -32.5t-32.5 -78.5t32.5 -78.5
t78.5 -32.5t78.5 32.5t32.5 78.5z" />
    <glyph glyph-name="ae" unicode="&#xe6;" horiz-adv-x="1846" 
d="M565 1109q246 0 350 -99q112 99 348 99q116 0 201 -25t138 -68.5t84.5 -112.5t43 -146.5t11.5 -181.5q0 -39 -3 -81q-92 -16 -257 -33t-280 -22l-193 -8q4 -77 26 -129t61.5 -80t88 -39.5t116.5 -11.5q168 0 392 28l20 -174q-251 -40 -473 -40q-179 0 -285 75
q-166 -75 -448 -75q-217 0 -314.5 84t-97.5 257q0 148 70 234t224 109q111 17 388 29q0 116 -55 172t-178 56q-156 0 -380 -28l-19 171q236 40 421 40zM776 344v202q-222 -9 -297 -27q-89 -20 -122 -58t-33 -131q0 -98 52.5 -134t164.5 -36q148 0 228 37q7 62 7 147z
M1507 676q0 130 -56 193.5t-188 63.5q-67 0 -115 -17.5t-76 -45.5t-44 -74.5t-21 -93t-5 -112.5l220 10q148 7 282 25q3 21 3 51z" />
    <glyph glyph-name="ccedilla" unicode="&#xe7;" horiz-adv-x="969" 
d="M331 -383l36 97q65 -33 128 -33q34 0 57.5 14.5t23.5 45.5q0 23 -18.5 40.5t-47.5 26.5t-56.5 13t-53.5 4l96 161q-81 5 -143.5 28.5t-103.5 65t-69 91.5t-42.5 116.5t-20.5 129.5t-6 141q0 94 8 165.5t28 136t55.5 108.5t88.5 77t129 48.5t175 15.5q150 0 278 -38
l-19 -173q-128 23 -190 23q-63 0 -108.5 -5.5t-80 -16t-57 -32.5t-37 -46.5t-21.5 -67t-9.5 -85.5t-2.5 -110q0 -47 0.5 -76.5t3 -66t7.5 -58.5t13 -48.5t20 -42t29.5 -32.5t40.5 -26t53 -17t67 -11t83 -3q62 0 188 24l21 -178q-109 -26 -244 -35l-59 -94q64 -4 112 -43.5
t48 -101.5q0 -61 -34 -101.5t-85 -57t-115 -16.5q-94 0 -166 43z" />
    <glyph glyph-name="egrave" unicode="&#xe8;" horiz-adv-x="1178" 
d="M533 439l-193 -8q4 -77 26 -129t61.5 -80t88 -39.5t116.5 -11.5q168 0 392 28l20 -174q-251 -40 -473 -40q-108 0 -189 28t-132.5 76t-84 120.5t-45 154t-12.5 183.5q0 152 25 256t82.5 173.5t150 101t229.5 31.5q116 0 201 -25t138 -68.5t84.5 -112.5t43 -146.5
t11.5 -181.5q0 -39 -3 -81q-92 -16 -257 -33t-280 -22zM334 590l220 10q148 7 282 25q3 21 3 51q0 130 -56 193.5t-188 63.5q-67 0 -115 -17.5t-76 -45.5t-44 -74.5t-21 -93t-5 -112.5zM310 1558h255l191 -324h-180z" />
    <glyph glyph-name="eacute" unicode="&#xe9;" horiz-adv-x="1178" 
d="M533 439l-193 -8q4 -77 26 -129t61.5 -80t88 -39.5t116.5 -11.5q168 0 392 28l20 -174q-251 -40 -473 -40q-108 0 -189 28t-132.5 76t-84 120.5t-45 154t-12.5 183.5q0 152 25 256t82.5 173.5t150 101t229.5 31.5q116 0 201 -25t138 -68.5t84.5 -112.5t43 -146.5
t11.5 -181.5q0 -39 -3 -81q-92 -16 -257 -33t-280 -22zM334 590l220 10q148 7 282 25q3 21 3 51q0 130 -56 193.5t-188 63.5q-67 0 -115 -17.5t-76 -45.5t-44 -74.5t-21 -93t-5 -112.5zM685 1553h255l-267 -324h-180z" />
    <glyph glyph-name="ecircumflex" unicode="&#xea;" horiz-adv-x="1178" 
d="M533 439l-193 -8q4 -77 26 -129t61.5 -80t88 -39.5t116.5 -11.5q168 0 392 28l20 -174q-251 -40 -473 -40q-108 0 -189 28t-132.5 76t-84 120.5t-45 154t-12.5 183.5q0 152 25 256t82.5 173.5t150 101t229.5 31.5q116 0 201 -25t138 -68.5t84.5 -112.5t43 -146.5
t11.5 -181.5q0 -39 -3 -81q-92 -16 -257 -33t-280 -22zM334 590l220 10q148 7 282 25q3 21 3 51q0 130 -56 193.5t-188 63.5q-67 0 -115 -17.5t-76 -45.5t-44 -74.5t-21 -93t-5 -112.5zM534 1550h148l230 -324h-180l-121 187l-125 -187h-178z" />
    <glyph glyph-name="edieresis" unicode="&#xeb;" horiz-adv-x="1178" 
d="M533 439l-193 -8q4 -77 26 -129t61.5 -80t88 -39.5t116.5 -11.5q168 0 392 28l20 -174q-251 -40 -473 -40q-108 0 -189 28t-132.5 76t-84 120.5t-45 154t-12.5 183.5q0 152 25 256t82.5 173.5t150 101t229.5 31.5q116 0 201 -25t138 -68.5t84.5 -112.5t43 -146.5
t11.5 -181.5q0 -39 -3 -81q-92 -16 -257 -33t-280 -22zM294 1385q0 51 37 87t89 36q51 0 85 -35.5t34 -87.5t-34 -87t-85 -35q-52 0 -89 35.5t-37 86.5zM334 590l220 10q148 7 282 25q3 21 3 51q0 130 -56 193.5t-188 63.5q-67 0 -115 -17.5t-76 -45.5t-44 -74.5t-21 -93
t-5 -112.5zM701 1385q0 52 36 87.5t88 35.5t86.5 -35.5t34.5 -87.5t-34.5 -87t-86.5 -35t-88 35t-36 87z" />
    <glyph glyph-name="igrave" unicode="&#xec;" horiz-adv-x="532" 
d="M353 1248h-181l-266 324h255zM383 0h-234v1094h234v-1094z" />
    <glyph glyph-name="iacute" unicode="&#xed;" horiz-adv-x="532" 
d="M383 0h-234v1094h234v-1094zM360 1248h-181l192 324h255z" />
    <glyph glyph-name="icircumflex" unicode="&#xee;" horiz-adv-x="532" 
d="M142 1254h-178l226 324h148l230 -324h-180l-121 188zM383 0h-234v1094h234v-1094z" />
    <glyph glyph-name="idieresis" unicode="&#xef;" horiz-adv-x="532" 
d="M186 1394q0 -52 -34 -87t-86 -35t-89 35.5t-37 86.5t37 87t89 36q51 0 85.5 -35.5t34.5 -87.5zM592 1394q0 -52 -34.5 -87t-86.5 -35t-88 35t-36 87t36 87.5t88 35.5t86.5 -35.5t34.5 -87.5zM383 0h-234v1094h234v-1094z" />
    <glyph glyph-name="eth" unicode="&#xf0;" horiz-adv-x="1175" 
d="M788 1408l177 64l67 -113l-168 -62q199 -326 199 -750q0 -304 -110 -433t-377 -129q-268 0 -378 127t-110 435q0 291 110.5 414.5t377.5 123.5q87 0 164 -23q-31 75 -82 160l-177 -64l-66 114l168 61q-44 61 -110 132l203 67q61 -58 112 -124zM829 547q0 201 -53 276.5
t-200 75.5q-149 0 -200.5 -72t-51.5 -280q0 -116 11 -186.5t41 -114t76.5 -59.5t123.5 -16q148 0 200.5 79t52.5 297z" />
    <glyph glyph-name="ntilde" unicode="&#xf1;" horiz-adv-x="1218" 
d="M1076 702v-702h-234v677q0 72 -8.5 114t-35 75t-77 46t-134.5 13q-129 0 -199 -37q-7 -62 -7 -147v-741h-233v812q0 102 9 201q195 96 494 96q81 0 144.5 -11t108 -29.5t76.5 -48.5t50 -62t29 -76.5t14 -85t3 -94.5zM773 1520h128q-9 -117 -57.5 -181t-112.5 -64
q-34 0 -62 11t-45.5 27.5t-32 32.5t-29.5 27t-30 11q-49 0 -63 -104h-129q9 117 58 180.5t113 63.5q34 0 62 -11t45.5 -27t32 -32.5t29.5 -27.5t30 -11q47 0 63 105z" />
    <glyph glyph-name="ograve" unicode="&#xf2;" horiz-adv-x="1195" 
d="M1085 547q0 -304 -110.5 -433t-377.5 -129q-268 0 -377.5 127t-109.5 435t109.5 435t377.5 127q267 0 377.5 -129t110.5 -433zM345 547q0 -116 11 -186.5t41 -114t76.5 -59.5t123.5 -16q148 0 200.5 79t52.5 297t-52.5 297.5t-200.5 79.5q-102 0 -154.5 -32t-75 -111.5
t-22.5 -233.5zM742 1234h-180l-266 324h255z" />
    <glyph glyph-name="oacute" unicode="&#xf3;" horiz-adv-x="1195" 
d="M1085 547q0 -304 -110.5 -433t-377.5 -129q-268 0 -377.5 127t-109.5 435t109.5 435t377.5 127q267 0 377.5 -129t110.5 -433zM345 547q0 -116 11 -186.5t41 -114t76.5 -59.5t123.5 -16q148 0 200.5 79t52.5 297t-52.5 297.5t-200.5 79.5q-102 0 -154.5 -32t-75 -111.5
t-22.5 -233.5zM642 1242h-181l192 324h255z" />
    <glyph glyph-name="ocircumflex" unicode="&#xf4;" horiz-adv-x="1195" 
d="M1085 547q0 -304 -110.5 -433t-377.5 -129q-268 0 -377.5 127t-109.5 435t109.5 435t377.5 127q267 0 377.5 -129t110.5 -433zM345 547q0 -116 11 -186.5t41 -114t76.5 -59.5t123.5 -16q148 0 200.5 79t52.5 297t-52.5 297.5t-200.5 79.5q-102 0 -154.5 -32t-75 -111.5
t-22.5 -233.5zM473 1232h-178l226 324h148l231 -324h-181l-121 187z" />
    <glyph glyph-name="otilde" unicode="&#xf5;" horiz-adv-x="1195" 
d="M749 1507h128q-9 -117 -57.5 -180.5t-112.5 -63.5q-34 0 -62 11t-45.5 27.5t-32 32.5t-29.5 27t-30 11q-49 0 -63 -104h-129q9 117 58 180.5t113 63.5q34 0 62 -11t45.5 -27t32 -32.5t29.5 -27.5t30 -11q48 0 63 104zM110 547q0 308 109.5 435t377.5 127
q267 0 377.5 -129t110.5 -433t-110.5 -433t-377.5 -129q-268 0 -377.5 127t-109.5 435zM850 547q0 218 -52.5 297.5t-200.5 79.5q-102 0 -154.5 -32t-75 -111.5t-22.5 -233.5q0 -116 11 -186.5t41 -114t76.5 -59.5t123.5 -16q148 0 200.5 79t52.5 297z" />
    <glyph glyph-name="odieresis" unicode="&#xf6;" horiz-adv-x="1195" 
d="M517 1385q0 -52 -34 -87t-86 -35t-88.5 35.5t-36.5 86.5q0 52 36.5 87.5t88.5 35.5q51 0 85.5 -35.5t34.5 -87.5zM1085 547q0 -304 -110.5 -433t-377.5 -129q-268 0 -377.5 127t-109.5 435t109.5 435t377.5 127q267 0 377.5 -129t110.5 -433zM345 547q0 -116 11 -186.5
t41 -114t76.5 -59.5t123.5 -16q148 0 200.5 79t52.5 297t-52.5 297.5t-200.5 79.5q-102 0 -154.5 -32t-75 -111.5t-22.5 -233.5zM923 1385q0 -52 -34.5 -87t-86.5 -35t-88 35t-36 87t36 87.5t88 35.5t86.5 -35.5t34.5 -87.5z" />
    <glyph glyph-name="divide" unicode="&#xf7;" horiz-adv-x="1182" 
d="M738 186q0 -61 -43 -103.5t-104 -42.5q-60 0 -103 42.5t-43 103.5t43 103.5t103 42.5q61 0 104 -42.5t43 -103.5zM738 1016q0 -61 -43 -103.5t-104 -42.5q-60 0 -103 42.5t-43 103.5t43 103.5t103 42.5q61 0 104 -42.5t43 -103.5zM1100 496h-1017v211h1017v-211z" />
    <glyph glyph-name="oslash" unicode="&#xf8;" horiz-adv-x="1195" 
d="M1023 1139l-77 -130q139 -123 139 -462q0 -304 -110.5 -433t-377.5 -129q-146 0 -241 35l-79 -134l-106 69l77 129q-73 64 -105.5 176.5t-32.5 286.5q0 308 109.5 435t377.5 127q147 0 241 -36l80 135zM820 799l-360 -606q48 -22 137 -22q148 0 200.5 79t52.5 297
q0 173 -30 252zM374 294l360 606q-51 24 -137 24q-102 0 -154.5 -32t-75 -111.5t-22.5 -233.5q0 -170 29 -253z" />
    <glyph glyph-name="ugrave" unicode="&#xf9;" horiz-adv-x="1213" 
d="M833 353v741h232v-812q0 -102 -9 -201q-195 -96 -492 -96q-81 0 -144.5 11t-107.5 29.5t-75.5 49t-50 62t-29 76.5t-13.5 85.5t-3 94.5v701h234v-676q0 -72 8 -113.5t34.5 -75t77 -46.5t133.5 -13q130 0 198 36q7 62 7 147zM734 1248h-180l-266 324h255z" />
    <glyph glyph-name="uacute" unicode="&#xfa;" horiz-adv-x="1213" 
d="M833 353v741h232v-812q0 -102 -9 -201q-195 -96 -492 -96q-81 0 -144.5 11t-107.5 29.5t-75.5 49t-50 62t-29 76.5t-13.5 85.5t-3 94.5v701h234v-676q0 -72 8 -113.5t34.5 -75t77 -46.5t133.5 -13q130 0 198 36q7 62 7 147zM662 1260h-181l192 324h255z" />
    <glyph glyph-name="ucircumflex" unicode="&#xfb;" horiz-adv-x="1213" 
d="M833 353v741h232v-812q0 -102 -9 -201q-195 -96 -492 -96q-81 0 -144.5 11t-107.5 29.5t-75.5 49t-50 62t-29 76.5t-13.5 85.5t-3 94.5v701h234v-676q0 -72 8 -113.5t34.5 -75t77 -46.5t133.5 -13q130 0 198 36q7 62 7 147zM479 1266h-178l226 324h148l231 -324h-181
l-121 188z" />
    <glyph glyph-name="udieresis" unicode="&#xfc;" horiz-adv-x="1213" 
d="M833 353v741h232v-812q0 -102 -9 -201q-195 -96 -492 -96q-81 0 -144.5 11t-107.5 29.5t-75.5 49t-50 62t-29 76.5t-13.5 85.5t-3 94.5v701h234v-676q0 -72 8 -113.5t34.5 -75t77 -46.5t133.5 -13q130 0 198 36q7 62 7 147zM523 1407q0 -52 -34 -87t-86 -35t-88.5 35.5
t-36.5 86.5q0 52 36.5 87.5t88.5 35.5q51 0 85.5 -35.5t34.5 -87.5zM929 1407q0 -52 -34.5 -87t-86.5 -35t-87.5 35t-35.5 87t35.5 87.5t87.5 35.5t86.5 -35.5t34.5 -87.5z" />
    <glyph glyph-name="yacute" unicode="&#xfd;" horiz-adv-x="1101" 
d="M288 1094l300 -731l234 731h237l-510 -1497h-236l169 477l-441 1020h247zM629 1236h-180l191 324h255z" />
    <glyph glyph-name="thorn" unicode="&#xfe;" horiz-adv-x="1184" 
d="M145 1432h233v-353q123 30 239 30q171 0 273.5 -52.5t153.5 -176t51 -333.5t-51 -333.5t-153.5 -176t-273.5 -52.5q-116 0 -239 30v-418h-233v1835zM378 898v-701q93 -31 184 -31q85 0 143 20.5t88.5 48t45.5 85t18 101t3 126.5t-3 126.5t-18 101t-45.5 85t-88.5 48
t-143 20.5q-94 0 -184 -30z" />
    <glyph glyph-name="ydieresis" unicode="&#xff;" horiz-adv-x="1101" 
d="M490 1389q0 -52 -34.5 -87.5t-85.5 -35.5q-52 0 -88.5 35.5t-36.5 87.5t36.5 87.5t88.5 35.5q51 0 85.5 -35.5t34.5 -87.5zM896 1389q0 -52 -34.5 -87.5t-86.5 -35.5t-88 35.5t-36 87.5t36 87.5t88 35.5t86.5 -35.5t34.5 -87.5zM288 1094l300 -731l234 731h237
l-510 -1497h-236l169 477l-441 1020h247z" />
    <glyph glyph-name="Abreve" unicode="&#x102;" horiz-adv-x="1368" 
d="M410 1805h135q7 -51 43 -86t96 -35t96 35t43 86h135q-10 -108 -78.5 -175t-195.5 -67t-195.5 67t-78.5 175zM39 0l434 1276q58 170 215 170t214 -170l427 -1276h-265l-121 380h-528l-119 -380h-257zM883 569l-206 648l-203 -648h409z" />
    <glyph glyph-name="abreve" unicode="&#x103;" horiz-adv-x="1144" 
d="M506 -15q-217 0 -314.5 84t-97.5 257q0 148 70 234t224 109q111 17 388 29q0 116 -55 172t-178 56q-156 0 -380 -28l-19 171q236 40 421 40q77 0 139 -9t119.5 -32.5t96.5 -61.5t62 -99.5t23 -142.5v-482q0 -91 -10 -201q-170 -96 -489 -96zM776 344v202
q-222 -9 -297 -27q-89 -20 -122 -58t-33 -131q0 -98 52.5 -134t164.5 -36q148 0 228 37q7 62 7 147zM589 1384q60 0 96 40t43 99h135q-10 -124 -78.5 -201.5t-195.5 -77.5t-195.5 77.5t-78.5 201.5h135q7 -59 43 -99t96 -40z" />
    <glyph glyph-name="Aogonek" unicode="&#x104;" horiz-adv-x="1368" 
d="M1329 0h-83q-123 -120 -123 -210q0 -41 23 -66t63 -25q58 0 102 32l38 -97q-36 -30 -86 -47t-96 -17q-87 0 -142.5 47.5t-55.5 128.5q0 69 42.5 136t100.5 118h-48l-121 380h-528l-119 -380h-257l434 1276q58 170 215 170t214 -170zM883 569l-206 648l-203 -648h409z" />
    <glyph glyph-name="aogonek" unicode="&#x105;" horiz-adv-x="1144" 
d="M1005 764v-482q0 -91 -10 -201q-54 -30 -123 -52q-112 -117 -112 -198q0 -41 23 -66t63 -25q59 0 103 32l37 -97q-36 -30 -85.5 -47t-95.5 -17q-87 0 -143 47.5t-56 128.5q0 98 97 209q-96 -11 -197 -11q-217 0 -314.5 84t-97.5 257q0 148 70 234t224 109q111 17 388 29
q0 116 -55 172t-178 56q-156 0 -380 -28l-19 171q236 40 421 40q77 0 139 -9t119.5 -32.5t96.5 -61.5t62 -99.5t23 -142.5zM776 344v202q-222 -9 -297 -27q-89 -20 -122 -58t-33 -131q0 -98 52.5 -134t164.5 -36q148 0 228 37q7 62 7 147z" />
    <glyph glyph-name="Cacute" unicode="&#x106;" horiz-adv-x="1143" 
d="M1065 1407l-22 -190q-153 24 -281 24q-81 0 -142.5 -14.5t-102.5 -35t-69 -63.5t-42.5 -77t-22 -100t-8.5 -109t-1 -126t1 -126t8.5 -109.5t22 -100.5t42.5 -76.5t69 -63t102.5 -35t142.5 -14.5q135 0 281 23l22 -189q-160 -40 -359 -40q-141 0 -242 28t-168 82t-106 145
t-55 204t-16 272t16 272t55 204t106 144.5t168 81.5t242 28q203 0 359 -39zM709 1818h273l-285 -263h-193z" />
    <glyph glyph-name="cacute" unicode="&#x107;" horiz-adv-x="969" 
d="M873 1071l-19 -173q-128 23 -190 23q-63 0 -108.5 -5.5t-80 -16t-57 -32.5t-37 -46.5t-21.5 -67t-9.5 -85.5t-2.5 -110q0 -47 0.5 -76.5t3 -66t7.5 -58.5t13 -48.5t20 -42t29.5 -32.5t40.5 -26t53 -17t67 -11t83 -3q62 0 188 24l21 -178q-161 -38 -339 -38q-89 0 -158 21
t-114.5 62t-76 91.5t-46.5 118.5t-22.5 133.5t-6.5 146.5q0 94 8 165.5t28 136t55.5 108.5t88.5 77t129 48.5t175 15.5q150 0 278 -38zM570 1556h255l-266 -324h-181z" />
    <glyph glyph-name="Ccaron" unicode="&#x10c;" horiz-adv-x="1143" 
d="M1065 1407l-22 -190q-153 24 -281 24q-81 0 -142.5 -14.5t-102.5 -35t-69 -63.5t-42.5 -77t-22 -100t-8.5 -109t-1 -126t1 -126t8.5 -109.5t22 -100.5t42.5 -76.5t69 -63t102.5 -35t142.5 -14.5q135 0 281 23l22 -189q-160 -40 -359 -40q-141 0 -242 28t-168 82t-106 145
t-55 204t-16 272t16 272t55 204t106 144.5t168 81.5t242 28q203 0 359 -39zM642 1666l133 152h191l-242 -263h-158l-246 263h192z" />
    <glyph glyph-name="ccaron" unicode="&#x10d;" horiz-adv-x="969" 
d="M873 1071l-19 -173q-128 23 -190 23q-63 0 -108.5 -5.5t-80 -16t-57 -32.5t-37 -46.5t-21.5 -67t-9.5 -85.5t-2.5 -110q0 -47 0.5 -76.5t3 -66t7.5 -58.5t13 -48.5t20 -42t29.5 -32.5t40.5 -26t53 -17t67 -11t83 -3q62 0 188 24l21 -178q-161 -38 -339 -38q-89 0 -158 21
t-114.5 62t-76 91.5t-46.5 118.5t-22.5 133.5t-6.5 146.5q0 94 8 165.5t28 136t55.5 108.5t88.5 77t129 48.5t175 15.5q150 0 278 -38zM526 1370l125 188h178l-226 -324h-148l-231 324h181z" />
    <glyph glyph-name="Dcaron" unicode="&#x10e;" horiz-adv-x="1371" 
d="M162 23v1386q200 37 457 37q100 0 180.5 -11t143 -35t110 -56.5t81.5 -80.5t56 -102t35 -126t18 -147.5t5 -171.5q0 -110 -7 -194t-24.5 -163.5t-48 -135.5t-78 -103t-113.5 -75.5t-155 -44t-203 -15.5q-251 0 -457 38zM412 1233v-1035q90 -12 167 -12q61 0 112.5 6
t90.5 21t70 30t53.5 43.5t38.5 51t25.5 63t15.5 68t8.5 78t3 81.5t0.5 88t-0.5 88t-3 81.5t-8.5 78t-15.5 68t-25.5 63t-38.5 51t-53.5 43.5t-70 30t-90.5 21t-112.5 6q-69 0 -167 -13zM651 1668l133 151h191l-242 -262h-158l-247 262h193z" />
    <glyph glyph-name="dcaron" unicode="&#x10f;" horiz-adv-x="1188" 
d="M807 1079v438h233v-1235q0 -91 -10 -201q-170 -96 -430 -96q-138 0 -231.5 27.5t-157.5 93t-92.5 173t-28.5 268.5q0 210 51 333.5t153.5 176t273.5 52.5q116 0 239 -30zM807 898q-90 30 -185 30q-85 0 -142.5 -20.5t-88 -48t-46 -85t-18 -101t-2.5 -126.5
q0 -51 1.5 -85.5t7.5 -78t17 -72t31.5 -59t49 -48t71 -28.5t97.5 -11q130 0 200 37q7 62 7 146v550zM1132 1116l98 401h207l-152 -401h-153z" />
    <glyph glyph-name="Dcroat" unicode="&#x110;" horiz-adv-x="1419" 
d="M210 652h-115v173h115v584q200 37 457 37q100 0 180.5 -11t143 -35t110 -56.5t81.5 -80.5t56 -102t35 -126t18 -147.5t5 -171.5q0 -110 -7 -194t-24.5 -163.5t-48 -135.5t-78 -103t-113.5 -75.5t-155 -44t-203 -15.5q-251 0 -457 38v629zM460 652v-454q90 -12 167 -12
q61 0 112.5 6t90.5 21t70 30t53.5 43.5t38.5 51t25.5 63t15.5 68t8.5 78t3 81.5t0.5 88t-0.5 88t-3 81.5t-8.5 78t-15.5 68t-25.5 63t-38.5 51t-53.5 43.5t-70 30t-90.5 21t-112.5 6q-69 0 -167 -13v-408h215v-173h-215z" />
    <glyph glyph-name="dcroat" unicode="&#x111;" horiz-adv-x="1188" 
d="M594 1232v136h213v149h233v-149h140v-136h-140v-950q0 -91 -10 -201q-170 -96 -430 -96q-138 0 -231.5 27.5t-157.5 93t-92.5 173t-28.5 268.5q0 210 51 333.5t153.5 176t273.5 52.5q116 0 239 -30v153h-213zM807 898q-90 30 -185 30q-85 0 -142.5 -20.5t-88 -48t-46 -85
t-18 -101t-2.5 -126.5q0 -51 1.5 -85.5t7.5 -78t17 -72t31.5 -59t49 -48t71 -28.5t97.5 -11q130 0 200 37q7 62 7 146v550z" />
    <glyph glyph-name="Eogonek" unicode="&#x118;" horiz-adv-x="1142" 
d="M403 826h590v-195h-590v-213q0 -96 17.5 -140.5t65.5 -63t151 -18.5h384v-190q-20 -1 -63 -2.5t-60 -2.5q-125 -119 -125 -211q0 -41 23 -66t63 -25q59 0 103 32l37 -97q-36 -30 -85.5 -47t-95.5 -17q-87 0 -143 47.5t-56 128.5q0 68 41.5 134.5t98.5 117.5
q-88 -2 -116 -2q-65 0 -108 1.5t-99.5 9t-92.5 20.5t-75.5 38t-62 60.5t-37 88t-14.5 120.5v763q0 68 14.5 120.5t37 88t62 60.5t75.5 38t92.5 20.5t99.5 9t108 1.5q191 0 378 -9v-190h-384q-103 0 -151 -18.5t-65.5 -63t-17.5 -140.5v-188z" />
    <glyph glyph-name="eogonek" unicode="&#x119;" horiz-adv-x="1178" 
d="M1024 199l20 -174q-113 -19 -204 -27q-116 -116 -116 -202q0 -41 23 -66t63 -25q59 0 103 32l38 -97q-36 -30 -86 -47t-96 -17q-87 0 -142.5 47.5t-55.5 128.5q0 62 36 124t87 112q-114 -3 -123 -3q-108 0 -189 28t-132.5 76t-84 120.5t-45 154t-12.5 183.5q0 152 25 256
t82.5 173.5t150 101t229.5 31.5q116 0 201 -25t138 -68.5t84.5 -112.5t43 -146.5t11.5 -181.5q0 -39 -3 -81q-92 -16 -257 -33t-280 -22l-193 -8q4 -77 26 -129t61.5 -80t88 -39.5t116.5 -11.5q168 0 392 28zM595 933q-67 0 -115 -17.5t-76 -45.5t-44 -74.5t-21 -93
t-5 -112.5l220 10q148 7 282 25q3 21 3 51q0 130 -56 193.5t-188 63.5z" />
    <glyph glyph-name="Ecaron" unicode="&#x11a;" horiz-adv-x="1142" 
d="M1021 1236h-384q-103 0 -151 -18.5t-65.5 -63t-17.5 -140.5v-188h590v-195h-590v-213q0 -96 17.5 -140.5t65.5 -63t151 -18.5h384v-190q-208 -10 -378 -10q-65 0 -108 1.5t-99.5 9t-92.5 20.5t-75.5 38t-62 60.5t-37 88t-14.5 120.5v763q0 68 14.5 120.5t37 88t62 60.5
t75.5 38t92.5 20.5t99.5 9t108 1.5q191 0 378 -9v-190zM284 1814h193l129 -152l134 152h190l-241 -262h-159z" />
    <glyph glyph-name="ecaron" unicode="&#x11b;" horiz-adv-x="1178" 
d="M533 439l-193 -8q4 -77 26 -129t61.5 -80t88 -39.5t116.5 -11.5q168 0 392 28l20 -174q-251 -40 -473 -40q-108 0 -189 28t-132.5 76t-84 120.5t-45 154t-12.5 183.5q0 152 25 256t82.5 173.5t150 101t229.5 31.5q116 0 201 -25t138 -68.5t84.5 -112.5t43 -146.5
t11.5 -181.5q0 -39 -3 -81q-92 -16 -257 -33t-280 -22zM334 590l220 10q148 7 282 25q3 21 3 51q0 130 -56 193.5t-188 63.5q-67 0 -115 -17.5t-76 -45.5t-44 -74.5t-21 -93t-5 -112.5zM590 1364l125 188h178l-226 -324h-148l-230 324h180z" />
    <glyph glyph-name="Gbreve" unicode="&#x11e;" horiz-adv-x="1318" 
d="M1155 1408l-22 -191q-161 24 -369 24q-81 0 -142.5 -15t-102.5 -35t-69 -63t-42 -77t-21.5 -100.5t-8.5 -109t-1 -125.5t1 -125.5t8.5 -109t21.5 -100.5t42 -77t69 -63t102.5 -35t142.5 -15q61 0 99 8.5t55 28t21.5 38.5t4.5 52v275h-246v191h492v-536q0 -52 -13 -92.5
t-33.5 -68t-56.5 -46.5t-72 -30t-91 -17t-101 -7.5t-115 -1.5q-118 0 -207 18.5t-154 58.5t-108.5 97.5t-69.5 142t-37 183.5t-11 231q0 133 11 233t37 184.5t69 141t108.5 96t154.5 57.5t207 18q257 0 447 -38zM415 1802h136q7 -52 42.5 -86.5t95.5 -34.5t96 35t43 86h135
q-10 -108 -78.5 -175t-195.5 -67t-195.5 67t-78.5 175z" />
    <glyph glyph-name="gbreve" unicode="&#x11f;" horiz-adv-x="1200" 
d="M821 40q-123 -30 -239 -30q-126 0 -213.5 27.5t-148 91t-88.5 169t-28 261.5q0 157 29.5 263t94 169.5t157.5 90.5t229 27q261 0 431 -96q9 -99 9 -201v-885q0 -81 -23 -142.5t-62 -99.5t-96.5 -61.5t-119.5 -32.5t-139 -9q-187 0 -441 43l19 171q217 -31 396 -31
q123 0 178 56t55 172v47zM821 221v525q0 85 -7 147q-70 37 -200 37q-53 0 -95 -11t-71 -28t-49.5 -46t-32 -57.5t-17.5 -70t-8 -76t-2 -82.5q0 -47 1 -77.5t5 -70t13 -64t23 -52.5t36 -45t52.5 -32t72.5 -21.5t95 -6.5q91 0 184 31zM339 1523h135q7 -59 43 -99t96 -40
t95.5 39.5t42.5 99.5h136q-10 -124 -78.5 -201.5t-195.5 -77.5t-195.5 77.5t-78.5 201.5z" />
    <glyph glyph-name="Idotaccent" unicode="&#x130;" horiz-adv-x="570" 
d="M286 1554q-54 0 -91 36.5t-37 90.5q0 55 37 91.5t91 36.5q55 0 90.5 -36.5t35.5 -91.5q0 -54 -36 -90.5t-90 -36.5zM410 0h-250v1432h250v-1432z" />
    <glyph glyph-name="dotlessi" unicode="&#x131;" horiz-adv-x="532" 
d="M383 0h-234v1094h234v-1094z" />
    <glyph glyph-name="Lacute" unicode="&#x139;" horiz-adv-x="1013" 
d="M407 1432v-1014q0 -96 17.5 -140.5t65.5 -63t151 -18.5h359v-191q-239 -9 -354 -9q-65 0 -108 1.5t-99.5 9t-92.5 20.5t-75.5 38t-62 60.5t-37 88t-14.5 120.5v1098h250zM387 1819h273l-285 -263h-193z" />
    <glyph glyph-name="lacute" unicode="&#x13a;" horiz-adv-x="513" 
d="M125 283v1234h234v-1223q0 -75 18.5 -132t61.5 -114l-203 -97q-111 126 -111 332zM150 1609l205 263h273l-285 -263h-193z" />
    <glyph glyph-name="Lcaron" unicode="&#x13d;" horiz-adv-x="1013" 
d="M407 1432v-1014q0 -96 17.5 -140.5t65.5 -63t151 -18.5h359v-191q-239 -9 -354 -9q-65 0 -108 1.5t-99.5 9t-92.5 20.5t-75.5 38t-62 60.5t-37 88t-14.5 120.5v1098h250zM551 1030l98 402h207l-151 -402h-154z" />
    <glyph glyph-name="lcaron" unicode="&#x13e;" horiz-adv-x="513" 
d="M125 283v1234h234v-1223q0 -75 18.5 -132t61.5 -114l-203 -97q-111 126 -111 332zM605 1116h-153l97 401h207z" />
    <glyph glyph-name="Lslash" unicode="&#x141;" horiz-adv-x="1109" 
d="M253 734v698h250v-528l322 219v-189l-322 -219v-297q0 -96 17.5 -140.5t65.5 -63t151 -18.5h359v-191q-238 -9 -354 -9q-65 0 -108 1.5t-99.5 9t-92.5 20.5t-75.5 38t-62 60.5t-37 88t-14.5 120.5v210l-180 -122v189z" />
    <glyph glyph-name="lslash" unicode="&#x142;" horiz-adv-x="597" 
d="M598 944l-188 -148v-502q0 -75 18.5 -132t61.5 -114l-203 -97q-111 126 -111 332v330l-177 -139v195l177 139v709h234v-525l188 147v-195z" />
    <glyph glyph-name="Nacute" unicode="&#x143;" horiz-adv-x="1438" 
d="M536 1287l518 -976v1121h223v-1265q0 -182 -154 -182q-71 0 -123 36.5t-98 124.5l-517 978v-1124h-223v1265q0 181 154 181q68 0 121.5 -37t98.5 -122zM774 1553h-193l205 263h273z" />
    <glyph glyph-name="nacute" unicode="&#x144;" horiz-adv-x="1218" 
d="M1076 702v-702h-234v677q0 72 -8.5 114t-35 75t-77 46t-134.5 13q-129 0 -199 -37q-7 -62 -7 -147v-741h-233v812q0 102 9 201q195 96 494 96q81 0 144.5 -11t108 -29.5t76.5 -48.5t50 -62t29 -76.5t14 -85t3 -94.5zM662 1237h-181l192 324h255z" />
    <glyph glyph-name="Ncaron" unicode="&#x147;" horiz-adv-x="1438" 
d="M536 1287l518 -976v1121h223v-1265q0 -182 -154 -182q-71 0 -123 36.5t-98 124.5l-517 978v-1124h-223v1265q0 181 154 181q68 0 121.5 -37t98.5 -122zM396 1810h193l130 -152l133 152h191l-242 -263h-158z" />
    <glyph glyph-name="ncaron" unicode="&#x148;" horiz-adv-x="1218" 
d="M1076 702v-702h-234v677q0 72 -8.5 114t-35 75t-77 46t-134.5 13q-129 0 -199 -37q-7 -62 -7 -147v-741h-233v812q0 102 9 201q195 96 494 96q81 0 144.5 -11t108 -29.5t76.5 -48.5t50 -62t29 -76.5t14 -85t3 -94.5zM310 1556h180l121 -188l125 188h178l-226 -324h-148z
" />
    <glyph glyph-name="Ohungarumlaut" unicode="&#x150;" horiz-adv-x="1379" 
d="M1257 716q0 -161 -17 -276t-55.5 -204.5t-104.5 -143t-161.5 -80.5t-228.5 -27t-228.5 27t-161.5 80.5t-104.5 143t-55.5 204.5t-17 276q0 201 26.5 334t91.5 224.5t174 131.5t275 40t275 -40t174 -131.5t91.5 -224.5t26.5 -334zM377 716q0 -56 0.5 -91t2.5 -83.5t7 -78
t12.5 -68t19.5 -61.5t29 -49.5t40 -42t52.5 -29t67 -19.5t82.5 -6t82.5 6t67 19.5t52.5 29t40 42t29 49.5t19.5 61.5t12.5 68t7 78t2.5 83.5t0.5 91t-0.5 91t-2.5 83.5t-7 78t-12.5 68t-19.5 61.5t-29 49.5t-40 42t-52.5 29t-67 19.5t-82.5 6t-82.5 -6t-67 -19.5t-52.5 -29
t-40 -42t-29 -49.5t-19.5 -61.5t-12.5 -68t-7 -78t-2.5 -83.5t-0.5 -91zM559 1561h-187l195 261h262zM941 1561h-186l194 261h263z" />
    <glyph glyph-name="ohungarumlaut" unicode="&#x151;" horiz-adv-x="1195" 
d="M1085 547q0 -304 -110.5 -433t-377.5 -129q-268 0 -377.5 127t-109.5 435t109.5 435t377.5 127q267 0 377.5 -129t110.5 -433zM345 547q0 -116 11 -186.5t41 -114t76.5 -59.5t123.5 -16q148 0 200.5 79t52.5 297t-52.5 297.5t-200.5 79.5q-102 0 -154.5 -32t-75 -111.5
t-22.5 -233.5zM467 1250h-175l183 324h245zM825 1250h-175l182 324h245z" />
    <glyph glyph-name="OE" unicode="&#x152;" horiz-adv-x="1992" 
d="M1870 1236h-384q-78 0 -121.5 -8.5t-69.5 -35t-34 -66.5t-8 -112v-188h590v-195h-590v-213q0 -72 8 -112t34 -66.5t69.5 -35t121.5 -8.5h384v-190q-208 -10 -377 -10q-155 0 -253 18t-159 80q-126 -109 -391 -109q-133 0 -228.5 27t-161.5 80.5t-104.5 143t-55.5 204.5
t-17 276q0 201 26.5 334t91.5 224.5t174 131.5t275 40q266 0 391 -108q61 62 158.5 79.5t253.5 17.5q190 0 377 -9v-190zM690 1244q-45 0 -82.5 -6t-67 -19.5t-52.5 -29t-40 -42t-29 -49.5t-19.5 -61.5t-12.5 -68t-7 -78t-2.5 -83.5t-0.5 -91t0.5 -91t2.5 -83.5t7 -78
t12.5 -68t19.5 -61.5t29 -49.5t40 -42t52.5 -29t67 -19.5t82.5 -6t82.5 6t67 19.5t52.5 29t40 42t29 49.5t19.5 61.5t12.5 68t7 78t2.5 83.5t0.5 91t-0.5 91t-2.5 83.5t-7 78t-12.5 68t-19.5 61.5t-29 49.5t-40 42t-52.5 29t-67 19.5t-82.5 6z" />
    <glyph glyph-name="oe" unicode="&#x153;" horiz-adv-x="1920" 
d="M597 1109q259 0 370 -121q112 121 371 121q116 0 201 -25t138 -68.5t84.5 -112.5t43 -146.5t11.5 -181.5q0 -39 -3 -81q-92 -16 -257 -33t-281 -22l-193 -8q4 -77 26 -129t61.5 -80t88 -39.5t116.5 -11.5q169 0 393 28l19 -174q-251 -40 -472 -40q-230 0 -343 126
q-112 -126 -374 -126q-268 0 -377.5 127t-109.5 435t109.5 435t377.5 127zM850 547q0 218 -52.5 297.5t-200.5 79.5q-102 0 -154.5 -32t-75 -111.5t-22.5 -233.5q0 -116 11 -186.5t41 -114t76.5 -59.5t123.5 -16q148 0 200.5 79t52.5 297zM1076 590l220 10q150 8 283 25
q2 14 2 51q0 130 -55.5 193.5t-187.5 63.5q-67 0 -115.5 -17.5t-76.5 -45.5t-44 -74.5t-21 -93t-5 -112.5z" />
    <glyph glyph-name="Racute" unicode="&#x154;" horiz-adv-x="1306" 
d="M412 563v-563h-250v1409q200 37 457 37q103 0 180 -9t154 -37t126 -75.5t79.5 -128t30.5 -191.5q0 -187 -77 -286.5t-221 -136.5l335 -582h-291l-304 556q-109 0 -219 7zM412 1241v-482q69 -9 207 -9q163 0 242.5 55t79.5 201q0 135 -70.5 192t-243.5 57q-108 0 -215 -14
zM692 1819h273l-284 -262h-194z" />
    <glyph glyph-name="racute" unicode="&#x155;" horiz-adv-x="726" 
d="M380 740v-740h-233v812q0 102 9 201q170 96 430 96q59 0 102 -4l-18 -186q-42 5 -84 5q-130 0 -200 -37q-6 -53 -6 -147zM441 1238h-181l192 324h255z" />
    <glyph glyph-name="Rcaron" unicode="&#x158;" horiz-adv-x="1306" 
d="M412 563v-563h-250v1409q200 37 457 37q103 0 180 -9t154 -37t126 -75.5t79.5 -128t30.5 -191.5q0 -187 -77 -286.5t-221 -136.5l335 -582h-291l-304 556q-109 0 -219 7zM412 1241v-482q69 -9 207 -9q163 0 242.5 55t79.5 201q0 135 -70.5 192t-243.5 57q-108 0 -215 -14
zM640 1668l134 151h190l-241 -262h-159l-246 262h193z" />
    <glyph glyph-name="rcaron" unicode="&#x159;" horiz-adv-x="726" 
d="M380 740v-740h-233v812q0 102 9 201q170 96 430 96q59 0 102 -4l-18 -186q-42 5 -84 5q-130 0 -200 -37q-6 -53 -6 -147zM116 1556h180l121 -188l125 188h178l-226 -324h-148z" />
    <glyph glyph-name="Sacute" unicode="&#x15a;" horiz-adv-x="1122" 
d="M498 194q136 0 204.5 42.5t68.5 161.5q0 43 -13.5 76.5t-34 55t-54 39t-63.5 28t-74 23.5q-16 4 -24 7q-86 26 -142 47.5t-111 55.5t-85.5 75t-49 101.5t-18.5 139.5q0 218 125 309t380 91q201 0 395 -40l-22 -192q-182 28 -305 28q-34 0 -57 -0.5t-59.5 -4t-62 -10
t-55 -19t-48 -30t-30.5 -44.5t-12 -61q0 -47 12.5 -81.5t32.5 -56t55 -38.5t70 -28t86 -25q21 -5 31 -8q103 -28 172 -60.5t120.5 -82.5t75 -120t23.5 -167q0 -224 -132 -322.5t-393 -98.5q-201 0 -399 41l24 198q216 -30 369 -30zM661 1824h273l-285 -263h-193z" />
    <glyph glyph-name="sacute" unicode="&#x15b;" horiz-adv-x="1000" 
d="M415 173h42.5t45 2.5t50 6.5t43 13t39 22.5t24 34t10.5 47.5q0 26 -6 46.5t-19.5 36t-26 26t-36 19.5t-38.5 14t-44.5 13t-43.5 12q-144 43 -199 74q-123 69 -141 206q-3 25 -3 54q0 87 29 149t83.5 96t121 49t152.5 15q199 0 389 -42l-22 -172q-159 30 -274 30
q-27 0 -42 -0.5t-44.5 -2.5t-48 -6t-42 -12t-37 -19.5t-23 -30t-9.5 -41.5q0 -28 11 -50.5t25.5 -36.5t42 -27.5t45.5 -20t52 -17t47 -14.5q11 -4 33 -11q37 -12 55.5 -18.5t51 -19.5t49 -22t41.5 -25t37.5 -31.5t28.5 -38t23.5 -47.5t13 -57t5.5 -69q0 -92 -32 -156.5
t-92 -100t-133.5 -51t-168.5 -15.5q-203 0 -378 43l22 175q168 -30 291 -30zM593 1568h255l-266 -324h-181z" />
    <glyph glyph-name="Scedilla" unicode="&#x15e;" horiz-adv-x="1122" 
d="M667 -4l-65 -102q64 -4 112.5 -43.5t48.5 -101.5q0 -61 -34.5 -101.5t-85.5 -57t-115 -16.5q-94 0 -166 43l37 97q65 -33 127 -33q34 0 57.5 14.5t23.5 45.5q0 23 -18.5 40.5t-47.5 26.5t-56.5 13t-53.5 4l96 161q-3 0 -11 -0.5t-12 -0.5q-201 0 -399 41l24 198
q216 -30 369 -30q136 0 204.5 42.5t68.5 161.5q0 43 -13.5 76.5t-34 55t-54 39t-63.5 28t-74 23.5q-16 4 -24 7q-86 26 -142 47.5t-111 55.5t-85.5 75t-49 101.5t-18.5 139.5q0 218 125 309t380 91q201 0 395 -40l-22 -192q-182 28 -305 28q-34 0 -57 -0.5t-59.5 -4t-62 -10
t-55 -19t-48 -30t-30.5 -44.5t-12 -61q0 -47 12.5 -81.5t32.5 -56t55 -38.5t70 -28t86 -25q21 -5 31 -8q103 -28 172 -60.5t120.5 -82.5t75 -120t23.5 -167q0 -186 -91.5 -285t-270.5 -125z" />
    <glyph glyph-name="scedilla" unicode="&#x15f;" horiz-adv-x="1000" 
d="M613 -6l-64 -100q64 -4 112 -43.5t48 -101.5q0 -90 -67 -133t-167 -43q-95 0 -167 43l37 98q67 -34 128 -34q34 0 57.5 14.5t23.5 45.5q0 23 -18.5 40.5t-47.5 26.5t-56.5 13t-53.5 4l96 161q-207 2 -372 43l22 175q168 -30 291 -30h42.5t45 2.5t50 6.5t43 13t39 22.5
t24 34t10.5 47.5q0 26 -6 46.5t-19.5 36t-26 26t-36 19.5t-38.5 14t-44.5 13t-43.5 12q-144 43 -199 74q-123 69 -141 206q-3 25 -3 54q0 87 29 149t83.5 96t121 49t152.5 15q199 0 389 -42l-22 -172q-159 30 -274 30q-27 0 -42 -0.5t-44.5 -2.5t-48 -6t-42 -12t-37 -19.5
t-23 -30t-9.5 -41.5q0 -28 11 -50.5t25.5 -36.5t42 -27.5t45.5 -20t52 -17t47 -14.5q11 -4 33 -11q37 -12 55.5 -18.5t51 -19.5t49 -22t41.5 -25t37.5 -31.5t28.5 -38t23.5 -47.5t13 -57t5.5 -69q0 -271 -293 -314z" />
    <glyph glyph-name="Scaron" unicode="&#x160;" horiz-adv-x="1122" 
d="M498 194q136 0 204.5 42.5t68.5 161.5q0 43 -13.5 76.5t-34 55t-54 39t-63.5 28t-74 23.5q-16 4 -24 7q-86 26 -142 47.5t-111 55.5t-85.5 75t-49 101.5t-18.5 139.5q0 218 125 309t380 91q201 0 395 -40l-22 -192q-182 28 -305 28q-34 0 -57 -0.5t-59.5 -4t-62 -10
t-55 -19t-48 -30t-30.5 -44.5t-12 -61q0 -47 12.5 -81.5t32.5 -56t55 -38.5t70 -28t86 -25q21 -5 31 -8q103 -28 172 -60.5t120.5 -82.5t75 -120t23.5 -167q0 -224 -132 -322.5t-393 -98.5q-201 0 -399 41l24 198q216 -30 369 -30zM583 1672l133 152h191l-242 -263h-158
l-246 263h192z" />
    <glyph glyph-name="scaron" unicode="&#x161;" horiz-adv-x="1000" 
d="M415 173h42.5t45 2.5t50 6.5t43 13t39 22.5t24 34t10.5 47.5q0 26 -6 46.5t-19.5 36t-26 26t-36 19.5t-38.5 14t-44.5 13t-43.5 12q-144 43 -199 74q-123 69 -141 206q-3 25 -3 54q0 87 29 149t83.5 96t121 49t152.5 15q199 0 389 -42l-22 -172q-159 30 -274 30
q-27 0 -42 -0.5t-44.5 -2.5t-48 -6t-42 -12t-37 -19.5t-23 -30t-9.5 -41.5q0 -28 11 -50.5t25.5 -36.5t42 -27.5t45.5 -20t52 -17t47 -14.5q11 -4 33 -11q37 -12 55.5 -18.5t51 -19.5t49 -22t41.5 -25t37.5 -31.5t28.5 -38t23.5 -47.5t13 -57t5.5 -69q0 -92 -32 -156.5
t-92 -100t-133.5 -51t-168.5 -15.5q-203 0 -378 43l22 175q168 -30 291 -30zM504 1370l125 188h178l-226 -324h-148l-231 324h181z" />
    <glyph glyph-name="uni0162" unicode="&#x162;" horiz-adv-x="1053" 
d="M37 1432h979v-199h-365v-1233h-250v1233h-364v199zM627 -124l-140 -372h-143l90 372h193z" />
    <glyph glyph-name="uni0163" unicode="&#x163;" horiz-adv-x="766" 
d="M694 168l18 -167q-91 -16 -166 -16q-165 0 -240.5 73t-75.5 226v637h-185v173h185v271l235 38v-309h227v-173h-227v-617q0 -78 34 -108.5t112 -30.5q41 0 83 3zM568 -131l-140 -373h-143l90 373h193z" />
    <glyph glyph-name="Tcaron" unicode="&#x164;" horiz-adv-x="1053" 
d="M37 1432h979v-199h-365v-1233h-250v1233h-364v199zM203 1797h193l130 -151l133 151h191l-242 -262h-158z" />
    <glyph glyph-name="tcaron" unicode="&#x165;" horiz-adv-x="766" 
d="M694 168l18 -167q-91 -16 -166 -16q-165 0 -240.5 73t-75.5 226v637h-185v173h185v271l235 38v-309h227v-173h-227v-617q0 -78 34 -108.5t112 -30.5q41 0 83 3zM878 1625l-151 -401h-154l98 401h207z" />
    <glyph glyph-name="Uring" unicode="&#x16e;" horiz-adv-x="1366" 
d="M398 1432v-972q0 -144 64.5 -206t219.5 -62t220 62t65 206v972h246v-956q0 -114 -25 -199.5t-69 -141t-112 -89.5t-146 -47.5t-179 -13.5t-179 13.5t-146 47.5t-112 89.5t-69 141t-25 199.5v956h247zM894 1720q0 -88 -62 -149.5t-150 -61.5t-150 61.5t-62 149.5t62 150
t150 62t150 -62t62 -150zM571 1720q0 -46 32.5 -78t78.5 -32t78.5 32t32.5 78t-32.5 79t-78.5 33t-78.5 -33t-32.5 -79z" />
    <glyph glyph-name="uring" unicode="&#x16f;" horiz-adv-x="1213" 
d="M833 353v741h232v-812q0 -102 -9 -201q-195 -96 -492 -96q-81 0 -144.5 11t-107.5 29.5t-75.5 49t-50 62t-29 76.5t-13.5 85.5t-3 94.5v701h234v-676q0 -72 8 -113.5t34.5 -75t77 -46.5t133.5 -13q130 0 198 36q7 62 7 147zM815 1404q0 -88 -62 -149.5t-150 -61.5
t-150 61.5t-62 149.5t62 150t150 62t150 -62t62 -150zM492 1404q0 -46 32.5 -78.5t78.5 -32.5t79 32.5t33 78.5t-33 78.5t-79 32.5t-78.5 -32.5t-32.5 -78.5z" />
    <glyph glyph-name="Uhungarumlaut" unicode="&#x170;" horiz-adv-x="1366" 
d="M398 1432v-972q0 -144 64.5 -206t219.5 -62t220 62t65 206v972h246v-956q0 -114 -25 -199.5t-69 -141t-112 -89.5t-146 -47.5t-179 -13.5t-179 13.5t-146 47.5t-112 89.5t-69 141t-25 199.5v956h247zM533 1563h-186l195 262h262zM916 1563h-187l195 262h263z" />
    <glyph glyph-name="uhungarumlaut" unicode="&#x171;" horiz-adv-x="1213" 
d="M833 353v741h232v-812q0 -102 -9 -201q-195 -96 -492 -96q-81 0 -144.5 11t-107.5 29.5t-75.5 49t-50 62t-29 76.5t-13.5 85.5t-3 94.5v701h234v-676q0 -72 8 -113.5t34.5 -75t77 -46.5t133.5 -13q130 0 198 36q7 62 7 147zM477 1266h-174l182 324h245zM835 1266h-174
l181 324h246z" />
    <glyph glyph-name="Ydieresis" unicode="&#x178;" horiz-adv-x="1216" 
d="M539 1670q0 -52 -34 -87t-85 -35q-52 0 -89 35.5t-37 86.5t37 87t89 36q51 0 85 -35.5t34 -87.5zM946 1670q0 -52 -34.5 -87t-86.5 -35t-88 35t-36 87t36 87.5t88 35.5t86.5 -35.5t34.5 -87.5zM732 553v-553h-250v553l-460 879h268l319 -638l327 638h258z" />
    <glyph glyph-name="Zacute" unicode="&#x179;" horiz-adv-x="1156" 
d="M406 203h651v-203h-833q-68 0 -104 24t-36 69q0 43 34 99l626 1038h-616v202h796q68 0 103.5 -24.5t35.5 -68.5q0 -42 -34 -99zM442 1546l206 262h272l-284 -262h-194z" />
    <glyph glyph-name="zacute" unicode="&#x17a;" horiz-adv-x="1124" 
d="M432 187h550v-187h-787q-43 0 -68.5 20t-25.5 54q0 40 32 83l554 759h-542v178h776q43 0 68.5 -19.5t25.5 -53.5q0 -40 -32 -83zM444 1248l192 324h255l-266 -324h-181z" />
    <glyph glyph-name="Zdotaccent" unicode="&#x17b;" horiz-adv-x="1156" 
d="M406 203h651v-203h-833q-68 0 -104 24t-36 69q0 43 34 99l626 1038h-616v202h796q68 0 103.5 -24.5t35.5 -68.5q0 -42 -34 -99zM457 1682q0 55 37 91.5t91 36.5q55 0 90.5 -36.5t35.5 -91.5q0 -54 -36 -90.5t-90 -36.5t-91 36.5t-37 90.5z" />
    <glyph glyph-name="zdotaccent" unicode="&#x17c;" horiz-adv-x="1124" 
d="M432 187h550v-187h-787q-43 0 -68.5 20t-25.5 54q0 40 32 83l554 759h-542v178h776q43 0 68.5 -19.5t25.5 -53.5q0 -40 -32 -83zM431 1375q0 55 37 91.5t91 36.5q55 0 90.5 -36.5t35.5 -91.5q0 -54 -36 -90.5t-90 -36.5t-91 36.5t-37 90.5z" />
    <glyph glyph-name="Zcaron" unicode="&#x17d;" horiz-adv-x="1156" 
d="M406 203h651v-203h-833q-68 0 -104 24t-36 69q0 43 34 99l626 1038h-616v202h796q68 0 103.5 -24.5t35.5 -68.5q0 -42 -34 -99zM463 1808l130 -151l133 151h191l-242 -262h-158l-247 262h193z" />
    <glyph glyph-name="zcaron" unicode="&#x17e;" horiz-adv-x="1124" 
d="M432 187h550v-187h-787q-43 0 -68.5 20t-25.5 54q0 40 32 83l554 759h-542v178h776q43 0 68.5 -19.5t25.5 -53.5q0 -40 -32 -83zM455 1572l121 -188l124 188h179l-226 -324h-149l-230 324h181z" />
    <glyph glyph-name="florin" unicode="&#x192;" horiz-adv-x="962" 
d="M364 877l29 208q21 155 126 236.5t263 81.5q77 0 145 -14l-24 -181q-49 9 -104 9q-50 0 -85 -18.5t-54.5 -54.5t-29 -70.5t-16.5 -85.5l-16 -111h260l-24 -179h-260l-77 -565q-27 -203 -140.5 -307t-297.5 -104q-42 0 -73 4l25 179h28q97 0 152.5 46.5t69.5 149.5l79 597
h-223l24 179h223z" />
    <glyph glyph-name="uni0218" unicode="&#x218;" horiz-adv-x="1122" 
d="M498 194q136 0 204.5 42.5t68.5 161.5q0 43 -13.5 76.5t-34 55t-54 39t-63.5 28t-74 23.5q-16 4 -24 7q-86 26 -142 47.5t-111 55.5t-85.5 75t-49 101.5t-18.5 139.5q0 218 125 309t380 91q201 0 395 -40l-22 -192q-182 28 -305 28q-34 0 -57 -0.5t-59.5 -4t-62 -10
t-55 -19t-48 -30t-30.5 -44.5t-12 -61q0 -47 12.5 -81.5t32.5 -56t55 -38.5t70 -28t86 -25q21 -5 31 -8q103 -28 172 -60.5t120.5 -82.5t75 -120t23.5 -167q0 -224 -132 -322.5t-393 -98.5q-201 0 -399 41l24 198q216 -30 369 -30zM423 -503l91 373h193l-141 -373h-143z" />
    <glyph glyph-name="uni0219" unicode="&#x219;" horiz-adv-x="1000" 
d="M415 173h42.5t45 2.5t50 6.5t43 13t39 22.5t24 34t10.5 47.5q0 26 -6 46.5t-19.5 36t-26 26t-36 19.5t-38.5 14t-44.5 13t-43.5 12q-144 43 -199 74q-123 69 -141 206q-3 25 -3 54q0 87 29 149t83.5 96t121 49t152.5 15q199 0 389 -42l-22 -172q-159 30 -274 30
q-27 0 -42 -0.5t-44.5 -2.5t-48 -6t-42 -12t-37 -19.5t-23 -30t-9.5 -41.5q0 -28 11 -50.5t25.5 -36.5t42 -27.5t45.5 -20t52 -17t47 -14.5q11 -4 33 -11q37 -12 55.5 -18.5t51 -19.5t49 -22t41.5 -25t37.5 -31.5t28.5 -38t23.5 -47.5t13 -57t5.5 -69q0 -92 -32 -156.5
t-92 -100t-133.5 -51t-168.5 -15.5q-203 0 -378 43l22 175q168 -30 291 -30zM363 -498l90 373h193l-141 -373h-142z" />
    <glyph glyph-name="uni021A" unicode="&#x21a;" horiz-adv-x="1053" 
d="M37 1432h979v-199h-365v-1233h-250v1233h-364v199zM627 -124l-140 -372h-143l90 372h193z" />
    <glyph glyph-name="uni021B" unicode="&#x21b;" horiz-adv-x="766" 
d="M694 168l18 -167q-91 -16 -166 -16q-165 0 -240.5 73t-75.5 226v637h-185v173h185v271l235 38v-309h227v-173h-227v-617q0 -78 34 -108.5t112 -30.5q41 0 83 3zM568 -131l-140 -373h-143l90 373h193z" />
    <glyph glyph-name="circumflex" unicode="&#x2c6;" horiz-adv-x="722" 
d="M237 1155h-178l226 324h148l231 -324h-181l-121 188z" />
    <glyph glyph-name="caron" unicode="&#x2c7;" horiz-adv-x="683" 
d="M39 1479h181l121 -187l125 187h178l-226 -324h-148z" />
    <glyph glyph-name="uni02C9" unicode="&#x2c9;" horiz-adv-x="886" 
d="M748 1222h-610v153h610v-153z" />
    <glyph glyph-name="breve" unicode="&#x2d8;" horiz-adv-x="680" 
d="M66 1456h136q7 -59 42.5 -98.5t95.5 -39.5t96 39.5t43 98.5h135q-10 -124 -78.5 -201t-195.5 -77t-195.5 77t-78.5 201z" />
    <glyph glyph-name="dotaccent" unicode="&#x2d9;" horiz-adv-x="424" 
d="M213 1187q-54 0 -91 36.5t-37 90.5q0 55 37 91.5t91 36.5q55 0 90.5 -36.5t35.5 -91.5q0 -54 -36 -90.5t-90 -36.5z" />
    <glyph glyph-name="ring" unicode="&#x2da;" horiz-adv-x="590" 
d="M507 1338q0 -88 -62 -149.5t-150 -61.5t-150 61.5t-62 149.5t62 150t150 62t150 -62t62 -150zM184 1338q0 -46 32.5 -78t78.5 -32t78.5 32t32.5 78t-32.5 79t-78.5 33t-78.5 -33t-32.5 -79z" />
    <glyph glyph-name="ogonek" unicode="&#x2db;" horiz-adv-x="448" 
d="M386 -275l37 -97q-36 -30 -85.5 -47t-95.5 -17q-87 0 -142.5 47t-55.5 128q0 71 45.5 141t104.5 120h134q-131 -125 -131 -216q0 -41 23 -66t63 -25q59 0 103 32z" />
    <glyph glyph-name="tilde" unicode="&#x2dc;" horiz-adv-x="746" 
d="M525 1430h129q-9 -117 -58 -181t-113 -64q-34 0 -62 11.5t-45.5 27.5t-32 32t-29.5 27.5t-30 11.5q-49 0 -63 -105h-128q9 117 58 181t113 64q34 0 62 -11.5t45.5 -27.5t32 -32t29.5 -27.5t30 -11.5q46 0 62 105z" />
    <glyph glyph-name="hungarumlaut" unicode="&#x2dd;" horiz-adv-x="855" 
d="M229 1148h-174l182 324h245zM587 1148h-175l182 324h245z" />
    <glyph glyph-name="uni03A9" unicode="&#x3a9;" horiz-adv-x="1549" 
d="M676 0h-580v194h258q-103 108 -165.5 252.5t-62.5 315.5q0 148 50.5 276t138 217.5t209 140t259.5 50.5q143 0 265 -56t204 -149.5t128 -216t46 -255.5q0 -175 -64 -322.5t-166 -252.5h257v-194h-577v145q132 80 222 236.5t90 362.5q0 90 -26.5 178.5t-75.5 163
t-128.5 120.5t-176.5 46q-124 0 -220 -69.5t-146.5 -185.5t-50.5 -257q0 -197 91.5 -357t220.5 -238v-145z" />
    <glyph glyph-name="uni03BC" unicode="&#x3bc;" horiz-adv-x="1295" 
d="M175 -403v1497h216v-666q0 -111 54 -179t154 -68q135 0 200.5 116.5t65.5 318.5v478h217v-676q0 -47 0.5 -68t3 -57t8.5 -53.5t16.5 -39.5t28 -35t41.5 -21v-159q-227 0 -283 213q-101 -213 -299 -213q-123 0 -208 91v-479h-215z" />
    <glyph glyph-name="pi" unicode="&#x3c0;" horiz-adv-x="1397" 
d="M1324 898h-258q-26 -155 -26 -385q0 -171 60.5 -257t189.5 -86l-17 -185q-110 0 -191 23.5t-130 62t-79 99t-40.5 124t-10.5 146.5q0 219 33 458h-301q-41 -639 -120 -898h-240q60 198 92.5 402.5t56.5 493.5h-51q-57 0 -99 -11t-99 -39l-55 131q111 117 329 117h978z
" />
    <glyph glyph-name="uni200A" unicode="&#x200a;" horiz-adv-x="44" 
 />
    <glyph glyph-name="uni2010" unicode="&#x2010;" horiz-adv-x="793" 
d="M662 446h-531v196h531v-196z" />
    <glyph glyph-name="endash" unicode="&#x2013;" horiz-adv-x="1250" 
d="M1119 452h-988v184h988v-184z" />
    <glyph glyph-name="emdash" unicode="&#x2014;" horiz-adv-x="2204" 
d="M2073 452h-1942v184h1942v-184z" />
    <glyph glyph-name="quoteleft" unicode="&#x2018;" horiz-adv-x="496" 
d="M264 1517h186l-118 -488h-252z" />
    <glyph glyph-name="quoteright" unicode="&#x2019;" horiz-adv-x="496" 
d="M267 1029h-187l118 488h252z" />
    <glyph glyph-name="quotesinglbase" unicode="&#x201a;" horiz-adv-x="495" 
d="M238 -255h-186l118 488h252z" />
    <glyph glyph-name="quotedblleft" unicode="&#x201c;" horiz-adv-x="872" 
d="M80 1029l184 488h186l-118 -488h-252zM455 1029l184 488h187l-118 -488h-253z" />
    <glyph glyph-name="quotedblright" unicode="&#x201d;" horiz-adv-x="872" 
d="M450 1517l-183 -488h-187l118 488h252zM826 1517l-183 -488h-187l119 488h251z" />
    <glyph glyph-name="quotedblbase" unicode="&#x201e;" horiz-adv-x="871" 
d="M238 -255h-186l118 488h252zM614 -255h-186l118 488h252z" />
    <glyph glyph-name="dagger" unicode="&#x2020;" horiz-adv-x="1124" 
d="M675 1078h380v-194h-380v-1142h-231v1142h-375v194h375v382h231v-382z" />
    <glyph glyph-name="daggerdbl" unicode="&#x2021;" horiz-adv-x="1168" 
d="M698 1124h377v-194h-377v-308h377v-192h-377v-688h-230v688h-375v192h375v308h-375v194h375v336h230v-336z" />
    <glyph glyph-name="bullet" unicode="&#x2022;" horiz-adv-x="772" 
d="M672 688q0 -119 -83.5 -203t-202.5 -84t-202.5 84t-83.5 203t83.5 202.5t202.5 83.5q118 0 202 -84t84 -202z" />
    <glyph glyph-name="ellipsis" unicode="&#x2026;" horiz-adv-x="1829" 
d="M259 -15q-82 0 -111.5 30.5t-29.5 111.5t30 111.5t111 30.5t111.5 -30.5t30.5 -111.5t-30 -111.5t-112 -30.5zM915 -15q-82 0 -111.5 30.5t-29.5 111.5t30 111.5t111 30.5t111 -30.5t30 -111.5t-29.5 -111.5t-111.5 -30.5zM1570 -15q-82 0 -111.5 30.5t-29.5 111.5
t30 111.5t111 30.5t111.5 -30.5t30.5 -111.5t-30 -111.5t-112 -30.5z" />
    <glyph glyph-name="perthousand" unicode="&#x2030;" horiz-adv-x="2484" 
d="M85 1014q0 91 7.5 154.5t27.5 117.5t55.5 86t90.5 49.5t133 17.5q77 0 132.5 -17.5t90.5 -49.5t55.5 -86t28 -118t7.5 -154t-7.5 -153.5t-28 -117.5t-55.5 -86t-90.5 -49.5t-132.5 -17.5q-78 0 -133 17.5t-90.5 49.5t-55.5 86t-27.5 117.5t-7.5 153.5zM543 1014
q0 53 -1 84t-5.5 69.5t-13.5 60t-24.5 42.5t-40.5 29.5t-59 8.5q-29 0 -51.5 -7.5t-37.5 -19t-25.5 -34.5t-16 -43t-8.5 -55.5t-3.5 -62t-0.5 -72.5t0.5 -72.5t3.5 -62t8.5 -55.5t16 -42.5t25.5 -34t37.5 -19t51.5 -7.5q34 0 59 8.5t40.5 29t24.5 42t13.5 60.5t5.5 69.5
t1 83.5zM1032 417q0 90 7.5 153.5t27.5 118t55.5 86.5t90.5 49.5t132 17.5q97 0 159 -25.5t95.5 -82t46 -130t12.5 -187.5t-12.5 -187.5t-46 -130t-95.5 -81.5t-159 -25q-96 0 -158 25t-96 81.5t-46.5 130t-12.5 187.5zM1488 417q0 46 -0.5 72.5t-3.5 62t-8.5 55.5t-16 43
t-25.5 34.5t-37.5 19t-51.5 7.5t-51.5 -7.5t-37.5 -19t-25.5 -34.5t-16 -43t-8.5 -55.5t-3.5 -62t-0.5 -72.5t0.5 -72.5t3.5 -62t8.5 -55.5t16 -42.5t25.5 -34t37.5 -19t51.5 -7.5t51.5 7.5t37.5 19t25.5 34t16 42.5t8.5 55.5t3.5 62t0.5 72.5zM1769 417q0 114 12.5 187.5
t46.5 130t96 82t159 25.5t159 -25.5t95.5 -82t46 -130t12.5 -187.5t-12.5 -187.5t-46 -130t-95.5 -81.5t-159 -25t-159 25t-96 81.5t-46.5 130t-12.5 187.5zM2226 417q0 46 -0.5 72.5t-3.5 62t-8.5 55.5t-16 43t-25.5 34.5t-37.5 19t-51.5 7.5t-51.5 -7.5t-37.5 -19
t-25.5 -34.5t-16 -43t-8.5 -55.5t-3.5 -62t-0.5 -72.5t0.5 -72.5t3.5 -62t8.5 -55.5t16 -42.5t25.5 -34t37.5 -19t51.5 -7.5t51.5 7.5t37.5 19t25.5 34t16 42.5t8.5 55.5t3.5 62t0.5 72.5zM1207 1461h169l-841 -1490h-168z" />
    <glyph glyph-name="guilsinglleft" unicode="&#x2039;" horiz-adv-x="661" 
d="M578 951l-270 -421l270 -421h-225l-298 421l298 421h225z" />
    <glyph glyph-name="guilsinglright" unicode="&#x203a;" horiz-adv-x="661" 
d="M353 530l-269 421h225l298 -421l-298 -421h-225z" />
    <glyph glyph-name="fraction" unicode="&#x2044;" horiz-adv-x="336" 
d="M-168 -29h-168l840 1490h169z" />
    <glyph glyph-name="uni2070" unicode="&#x2070;" horiz-adv-x="779" 
d="M390 1677q77 0 132.5 -17.5t90.5 -49.5t55.5 -86t28 -118t7.5 -154t-7.5 -153.5t-28 -117.5t-55.5 -86t-90.5 -49.5t-132.5 -17.5q-78 0 -133 17.5t-90.5 49.5t-55.5 86t-27.5 117.5t-7.5 153.5q0 91 7.5 154.5t27.5 117.5t55.5 86t90.5 49.5t133 17.5zM390 1546
q-29 0 -51.5 -7.5t-37.5 -19t-25.5 -34.5t-16 -43t-8.5 -55.5t-3.5 -62t-0.5 -72.5t0.5 -72.5t3.5 -62t8.5 -55t16 -42t25.5 -34t37.5 -19t51.5 -7.5t51.5 7.5t37.5 19t25.5 34t16 42t8.5 55t3.5 62t0.5 72.5t-0.5 72.5t-3.5 62t-8.5 55.5t-16 43t-25.5 34.5t-37.5 19
t-51.5 7.5z" />
    <glyph glyph-name="uni2074" unicode="&#x2074;" horiz-adv-x="740" 
d="M695 1150v-126h-103v-188h-167v188h-282q-61 0 -86 22t-25 63q0 51 58 124l285 368q33 42 62.5 58.5t66.5 16.5q39 0 63.5 -24.5t24.5 -71.5v-430h103zM425 1150v288l-216 -288h216z" />
    <glyph glyph-name="uni2075" unicode="&#x2075;" horiz-adv-x="712" 
d="M628 1669v-139h-369l-11 -170q30 2 41 2q70 0 119 -5t97.5 -21t77.5 -43.5t47 -75.5t18 -115q0 -143 -79.5 -207.5t-237.5 -64.5q-129 0 -269 29l17 127q135 -19 214 -19q105 0 142.5 27.5t37.5 122.5q0 31 -13 53t-33 34t-50 19t-56.5 9t-61.5 2q-83 0 -178 -5l30 440
h517z" />
    <glyph glyph-name="uni2076" unicode="&#x2076;" horiz-adv-x="759" 
d="M396 1366q76 0 129 -11.5t95.5 -40.5t63 -82t20.5 -131q0 -81 -22.5 -136t-67.5 -85t-101 -42.5t-134 -12.5q-91 0 -152.5 23.5t-94.5 71t-46 107.5t-13 145q0 100 7.5 170.5t28 129t53 95t85 61.5t122.5 35.5t166 10.5q37 0 103 -1l14 -129q-20 -1 -57 -2t-63 -2
t-62.5 -5t-62.5 -11t-55 -20.5t-48 -32.5t-33 -48.5t-19 -67.5q75 11 144 11zM241 1156q0 -44 4.5 -75t17.5 -61.5t41.5 -46.5t71.5 -16q91 0 125 32t34 114q0 80 -39 109t-121 29q-61 0 -132 -11q-2 -23 -2 -74z" />
    <glyph glyph-name="uni2077" unicode="&#x2077;" horiz-adv-x="651" 
d="M108 838l339 691h-410v139h495q46 0 72 -20.5t26 -54.5q0 -24 -13 -51l-318 -704h-191z" />
    <glyph glyph-name="uni2078" unicode="&#x2078;" horiz-adv-x="760" 
d="M685 1467q0 -72 -22.5 -115.5t-89.5 -82.5q63 -37 93 -82.5t30 -117.5q0 -58 -16.5 -101t-44 -69.5t-69 -42.5t-85.5 -22t-100 -6q-150 0 -232.5 55t-82.5 186q0 71 29.5 115t94.5 83q-59 35 -85.5 81t-26.5 119q0 210 303 210q47 0 87.5 -5t81.5 -19.5t70 -37.5t47 -61
t18 -87zM530 1072q0 65 -35.5 92.5t-146.5 38.5q-116 -24 -116 -131q0 -67 38.5 -91t110.5 -24q71 0 110 24.5t39 90.5zM381 1552q-45 0 -72.5 -6t-48.5 -30t-21 -68q0 -54 35.5 -82t140.5 -34q58 14 84 39.5t26 76.5q0 62 -37 83t-107 21z" />
    <glyph glyph-name="uni2079" unicode="&#x2079;" horiz-adv-x="759" 
d="M363 1139q-76 0 -129 11.5t-95.5 40.5t-63 82t-20.5 131q0 81 22.5 136t67.5 85t101 42.5t134 12.5q91 0 152.5 -23.5t94.5 -71t46 -107.5t13 -145q0 -100 -7.5 -170.5t-28 -129t-53 -95t-85 -61.5t-122.5 -35.5t-166 -10.5q-5 0 -16.5 0.5t-35.5 1t-52 0.5l-13 129
q20 1 65 2t74 3t70.5 7t69 17.5t55.5 31.5t44.5 51.5t21.5 75.5q-75 -11 -144 -11zM224 1402q0 -80 39 -108.5t121 -28.5q60 0 132 11q2 23 2 73q0 44 -4.5 75t-17.5 61.5t-41.5 46.5t-71.5 16q-91 0 -125 -32t-34 -114z" />
    <glyph glyph-name="uni2080" unicode="&#x2080;" horiz-adv-x="779" 
d="M390 603q77 0 132.5 -17.5t90.5 -49.5t55.5 -86t28 -118t7.5 -154t-7.5 -153.5t-28 -117.5t-55.5 -86t-90.5 -49.5t-132.5 -17.5q-78 0 -133 17.5t-90.5 49.5t-55.5 86t-27.5 117.5t-7.5 153.5q0 91 7.5 154.5t27.5 117.5t55.5 86t90.5 49.5t133 17.5zM390 472
q-29 0 -51.5 -7.5t-37.5 -19t-25.5 -34.5t-16 -43t-8.5 -55.5t-3.5 -62t-0.5 -72.5t0.5 -72.5t3.5 -62t8.5 -55t16 -42t25.5 -34t37.5 -19t51.5 -7.5t51.5 7.5t37.5 19t25.5 34t16 42t8.5 55t3.5 62t0.5 72.5t-0.5 72.5t-3.5 62t-8.5 55.5t-16 43t-25.5 34.5t-37.5 19
t-51.5 7.5z" />
    <glyph glyph-name="uni2081" unicode="&#x2081;" horiz-adv-x="479" 
d="M379 -237h-168v668q-88 -21 -186 -33l-7 130q127 18 230 66h131v-831z" />
    <glyph glyph-name="uni2082" unicode="&#x2082;" horiz-adv-x="714" 
d="M647 -98v-140h-589q12 65 19.5 102.5t19.5 83t24 71.5t30.5 55.5t42 49t55 39t72.5 37.5q84 35 119.5 70.5t35.5 95.5t-41 80t-154 20q-62 0 -193 -19l-15 126q159 29 274 29q68 0 119.5 -10t94 -33.5t64.5 -66t22 -102.5q0 -111 -61 -186t-184 -124q-82 -33 -111.5 -70
t-40.5 -108h397z" />
    <glyph glyph-name="uni2083" unicode="&#x2083;" horiz-adv-x="706" 
d="M319 603q53 0 95 -4.5t83.5 -18.5t69 -37t44.5 -62t17 -91q0 -126 -108 -189q121 -55 121 -183q0 -145 -82.5 -204.5t-243.5 -59.5q-113 0 -260 28l18 127q150 -19 211 -19q98 0 139.5 24.5t41.5 97.5q0 100 -85 111q-59 8 -169 8h-27v122q109 3 195 15q76 12 76 103
q0 62 -36.5 80t-113.5 18t-225 -19l-17 125q146 28 256 28z" />
    <glyph glyph-name="uni2084" unicode="&#x2084;" horiz-adv-x="740" 
d="M695 76v-126h-103v-188h-167v188h-282q-61 0 -86 22t-25 63q0 51 58 124l285 368q33 42 62.5 58.5t66.5 16.5q39 0 63.5 -24.5t24.5 -71.5v-430h103zM425 76v288l-216 -288h216z" />
    <glyph glyph-name="uni2085" unicode="&#x2085;" horiz-adv-x="712" 
d="M628 595v-139h-369l-11 -170q30 2 41 2q70 0 119 -5t97.5 -21t77.5 -43.5t47 -75.5t18 -115q0 -143 -79.5 -207.5t-237.5 -64.5q-129 0 -269 29l17 127q142 -20 214 -20q53 0 84 5t54.5 20.5t32.5 45.5t9 80q0 31 -13 53t-33 34t-50 19t-56.5 9t-61.5 2q-83 0 -178 -5
l30 440h517z" />
    <glyph glyph-name="uni2086" unicode="&#x2086;" horiz-adv-x="759" 
d="M396 292q76 0 129 -11.5t95.5 -40.5t63 -82t20.5 -131q0 -81 -22.5 -136t-67.5 -85t-101 -42.5t-134 -12.5q-91 0 -152.5 23.5t-94.5 71t-46 107.5t-13 145q0 100 7.5 170.5t28 129t53 95t85 61.5t122.5 35.5t166 10.5q5 0 16 -0.5t35 -1t52 -0.5l14 -129q-20 -1 -65 -2
t-74 -3t-70.5 -7t-69 -17.5t-55.5 -31.5t-44.5 -51.5t-21.5 -75.5q75 11 144 11zM241 82q0 -44 4.5 -75t17.5 -61.5t41.5 -46.5t71.5 -16q91 0 125 32t34 114q0 80 -39 109t-121 29q-54 0 -132 -12q-2 -23 -2 -73z" />
    <glyph glyph-name="uni2087" unicode="&#x2087;" horiz-adv-x="651" 
d="M108 -237l339 692h-410v139h495q46 0 72 -20.5t26 -54.5q0 -24 -13 -51l-318 -705h-191z" />
    <glyph glyph-name="uni2088" unicode="&#x2088;" horiz-adv-x="760" 
d="M685 393q0 -72 -22.5 -115.5t-89.5 -82.5q63 -37 93 -83t30 -118q0 -58 -16.5 -101t-44 -69t-69 -42t-85.5 -22t-100 -6q-73 0 -128 12t-98.5 38.5t-66 74t-22.5 115.5q0 71 29.5 115.5t94.5 83.5q-59 35 -85.5 81t-26.5 119q0 210 303 210q47 0 87.5 -5t81.5 -19.5
t70 -37.5t47 -61t18 -87zM530 -2q0 65 -35.5 92.5t-146.5 38.5q-116 -24 -116 -131q0 -67 38.5 -91t110.5 -24q71 0 110 24.5t39 90.5zM381 478q-45 0 -72.5 -6t-48.5 -30t-21 -68q0 -54 35.5 -82t140.5 -34q58 14 84 39.5t26 76.5q0 62 -37 83t-107 21z" />
    <glyph glyph-name="uni2089" unicode="&#x2089;" horiz-adv-x="759" 
d="M363 65q-76 0 -129 11.5t-95.5 40.5t-63 82t-20.5 131q0 81 22.5 136t67.5 85t101 42.5t134 12.5q91 0 152.5 -23.5t94.5 -71t46 -107.5t13 -145q0 -100 -7.5 -170.5t-28 -129t-53 -95t-85 -61.5t-122.5 -35.5t-166 -10.5q-5 0 -16.5 0.5t-35.5 1t-52 0.5l-13 129
q20 1 65 2t74 3t70.5 7t69 17.5t55.5 31.5t44.5 51.5t21.5 75.5q-75 -11 -144 -11zM224 328q0 -80 39 -109t121 -29q54 0 132 12q2 23 2 73q0 44 -4.5 75t-17.5 61.5t-41.5 46.5t-71.5 16q-91 0 -125 -32t-34 -114z" />
    <glyph glyph-name="Euro" unicode="&#x20ac;" horiz-adv-x="1138" 
d="M86 756l31 139h116q22 271 132 389.5t359 118.5q172 0 313 -42l-18 -184q-143 27 -248 27q-65 0 -114 -14.5t-80.5 -40t-52.5 -65.5t-31 -85t-14 -104h450l-31 -139h-424v-107h400l-30 -138h-366q5 -80 19.5 -135t46 -100.5t88 -68t139.5 -22.5q105 0 248 27l18 -184
q-144 -43 -313 -43q-130 0 -219.5 30.5t-147 97t-86.5 162.5t-39 236h-158l30 138h122v45q0 42 1 62h-141z" />
    <glyph glyph-name="uni2113" unicode="&#x2113;" horiz-adv-x="1042" 
d="M232 571q0 149 4 250t17 218.5t39.5 192.5t68 141.5t107.5 98t154 31.5q125 0 191 -87t66 -220q0 -312 -425 -658q6 -79 15 -137t25 -109.5t39 -82.5t57.5 -49t80.5 -18q55 0 105 31.5t119 100.5l84 -95q-144 -194 -356 -194q-89 0 -157.5 33.5t-112.5 94t-70 132.5
t-39 161l-133 -81l-62 121zM694 1203q0 155 -88 155q-27 0 -49 -13t-37 -39t-26.5 -56t-18.5 -73.5t-11.5 -81.5t-6.5 -90t-2.5 -89t-1 -88.5t-1.5 -78.5q120 120 181 228.5t61 225.5z" />
    <glyph glyph-name="trademark" unicode="&#x2122;" horiz-adv-x="1974" 
d="M1293 573l-249 637h-1v-637h-162v859h233l235 -599l231 599h231v-859h-161v638h-1l-249 -638h-107zM82 1432h681v-139h-259v-720h-162v720h-260v139z" />
    <glyph glyph-name="Omega" unicode="&#x2126;" horiz-adv-x="1549" 
d="M676 0h-580v194h258q-103 108 -165.5 252.5t-62.5 315.5q0 148 50.5 276t138 217.5t209 140t259.5 50.5q143 0 265 -56t204 -149.5t128 -216t46 -255.5q0 -175 -64 -322.5t-166 -252.5h257v-194h-577v145q132 80 222 236.5t90 362.5q0 90 -26.5 178.5t-75.5 163
t-128.5 120.5t-176.5 46q-124 0 -220 -69.5t-146.5 -185.5t-50.5 -257q0 -197 91.5 -357t220.5 -238v-145z" />
    <glyph glyph-name="estimated" unicode="&#x212e;" horiz-adv-x="1667" 
d="M1361 305h127q-125 -153 -282.5 -236.5t-366.5 -83.5q-163 0 -302.5 51.5t-236 141t-151 214t-54.5 266.5q0 134 52.5 255.5t147 214.5t236 148t308.5 55q171 0 308.5 -51t229 -142.5t144.5 -212.5t66 -267h-1167v-455q172 -145 419 -145q327 0 522 247zM420 1112v-381
h841v381q-184 147 -422 147q-249 0 -419 -147z" />
    <glyph glyph-name="uni2190" unicode="&#x2190;" horiz-adv-x="1437" 
d="M469 496l311 -390h-236l-461 495l461 495h236l-311 -389h886v-211h-886z" />
    <glyph glyph-name="uni2191" unicode="&#x2191;" horiz-adv-x="1156" 
d="M684 851v-886h-211v886l-390 -311v236l495 462l495 -462v-236z" />
    <glyph glyph-name="uni2192" unicode="&#x2192;" horiz-adv-x="1437" 
d="M1355 601l-462 -495h-236l312 390h-886v211h886l-312 389h236z" />
    <glyph glyph-name="uni2193" unicode="&#x2193;" horiz-adv-x="1156" 
d="M1073 663v-236l-495 -462l-495 462v236l390 -312v887h211v-887z" />
    <glyph glyph-name="uni21E8" unicode="&#x21e8;" horiz-adv-x="1637" 
d="M1595 602l-641 -621v342h-838v558h838v341zM1054 423v-201l399 380l-399 379v-201h-839v-357h839z" />
    <glyph glyph-name="partialdiff" unicode="&#x2202;" horiz-adv-x="1120" 
d="M469 -15q-95 0 -171 36.5t-123.5 98.5t-72.5 141.5t-25 168.5q0 233 126.5 377.5t345.5 144.5q72 0 133 -30t101 -72q-11 494 -298 494q-70 0 -121.5 -17t-114.5 -56l-43 140q151 106 331 106q121 0 213 -51.5t149 -146.5t85.5 -223.5t28.5 -289.5q0 -242 -63.5 -426.5
t-187.5 -289.5t-293 -105zM561 783q-77 0 -135 -51t-85.5 -130t-27.5 -172q0 -73 18.5 -135.5t60.5 -105t101 -42.5q67 0 119.5 45t84.5 121t50.5 160t25.5 178q-86 132 -212 132z" />
    <glyph glyph-name="Delta" unicode="&#x2206;" horiz-adv-x="1362" 
d="M65 138l495 1294h254l484 -1291v-141h-1233v138zM1039 187l-359 963l-363 -963h722z" />
    <glyph glyph-name="product" unicode="&#x220f;" horiz-adv-x="1593" 
d="M1298 -272h-241v1541h-519v-1541h-241v1541h-232v206h1464v-206h-231v-1541z" />
    <glyph glyph-name="summation" unicode="&#x2211;" horiz-adv-x="1257" 
d="M398 1278l489 -648l-533 -688h849v-214h-1151v146l561 726l-537 722v153h1094v-197h-772z" />
    <glyph glyph-name="minus" unicode="&#x2212;" horiz-adv-x="1182" 
d="M1100 496h-1017v211h1017v-211z" />
    <glyph glyph-name="uni2215" unicode="&#x2215;" horiz-adv-x="336" 
d="M-168 -29h-168l840 1490h169z" />
    <glyph glyph-name="uni2219" unicode="&#x2219;" horiz-adv-x="535" 
d="M267 445q-82 0 -111.5 30.5t-29.5 111.5t30 111.5t111 30.5t111.5 -30.5t30.5 -111.5t-30 -111.5t-112 -30.5z" />
    <glyph glyph-name="radical" unicode="&#x221a;" horiz-adv-x="1169" 
d="M1135 1761l-432 -1890h-201l-289 842l-141 -54l-49 156l341 134l231 -719l345 1531h195z" />
    <glyph glyph-name="infinity" unicode="&#x221e;" horiz-adv-x="1700" 
d="M91 601q0 145 96.5 254t238.5 109q187 0 357 -200q42 51 68.5 81t71 72.5t82.5 65.5t89 40.5t104 17.5q121 0 212.5 -62.5t136.5 -161.5t45 -216t-45 -216t-136.5 -161.5t-212.5 -62.5q-45 0 -86.5 10.5t-79.5 32.5t-68.5 44t-66 59t-57.5 62t-57 67q-167 -196 -357 -196
q-143 0 -239 108.5t-96 252.5zM288 601q0 -75 39 -118.5t99 -43.5q53 0 108.5 36.5t128.5 125.5q-73 90 -129 127.5t-108 37.5q-60 0 -99 -44.5t-39 -120.5zM907 601q163 -239 291 -239q84 0 137.5 63.5t53.5 175.5q0 113 -53.5 176.5t-137.5 63.5q-128 0 -291 -240z" />
    <glyph glyph-name="integral" unicode="&#x222b;" horiz-adv-x="761" 
d="M774 1473q-60 43 -123 43q-45 0 -78 -24.5t-50.5 -60t-28 -89t-13 -96.5t-2.5 -97q0 -163 18.5 -492t18.5 -500q0 -70 -9.5 -138t-35 -140.5t-64.5 -126.5t-105.5 -89t-150.5 -35q-51 0 -112.5 18.5t-96.5 39.5l43 167q68 -43 148 -43q48 0 80.5 24t51 72.5t26.5 111
t8 149.5q0 156 -17.5 500t-17.5 499q0 79 8.5 146.5t33.5 139.5t65.5 122t110 82.5t160.5 32.5q46 0 96 -17t81 -38z" />
    <glyph glyph-name="approxequal" unicode="&#x2248;" horiz-adv-x="1324" 
d="M431 990q66 0 129 -20.5t105.5 -44.5t104 -44.5t123.5 -20.5q80 0 160 28t132 83v-210q-53 -55 -132.5 -83.5t-159.5 -28.5q-66 0 -129 20.5t-105.5 45t-104 45t-123.5 20.5q-80 0 -159.5 -28.5t-132.5 -83.5v210q53 55 132.5 83.5t159.5 28.5zM1185 535v-211
q-52 -55 -132 -83t-160 -28q-66 0 -129 20.5t-105.5 44.5t-104 44.5t-123.5 20.5q-80 0 -159.5 -28.5t-132.5 -83.5v211q53 55 132.5 83t159.5 28q66 0 129 -20.5t105.5 -44.5t104 -44.5t123.5 -20.5q80 0 159.5 28.5t132.5 83.5z" />
    <glyph glyph-name="notequal" unicode="&#x2260;" horiz-adv-x="1296" 
d="M423 277h-284v211h376l99 227h-475v210h568l135 309h166l-135 -309h283v-210h-376l-99 -227h475v-211h-567l-135 -308h-166z" />
    <glyph glyph-name="lessequal" unicode="&#x2264;" horiz-adv-x="1284" 
d="M1144 476v-220l-1035 403v185l1035 403v-219l-741 -276zM1144 -45h-1035v211h1035v-211z" />
    <glyph glyph-name="greaterequal" unicode="&#x2265;" horiz-adv-x="1284" 
d="M1175 659l-1034 -403v220l741 276l-741 276v219l1034 -403v-185zM141 166h1034v-211h-1034v211z" />
    <glyph glyph-name="lozenge" unicode="&#x25ca;" horiz-adv-x="1151" 
d="M77 717l405 772h188l405 -772l-405 -774h-188zM303 717l273 -545l274 545l-274 546z" />
    <glyph glyph-name="zero.numerator" horiz-adv-x="779" 
d="M390 1439q77 0 132.5 -17.5t90.5 -49.5t55.5 -86t28 -118t7.5 -154t-7.5 -153.5t-28 -117.5t-55.5 -86t-90.5 -49.5t-132.5 -17.5q-78 0 -133 17.5t-90.5 49.5t-55.5 86t-27.5 117.5t-7.5 153.5q0 91 7.5 154.5t27.5 117.5t55.5 86t90.5 49.5t133 17.5zM390 1308
q-29 0 -51.5 -7.5t-37.5 -19t-25.5 -34.5t-16 -43t-8.5 -55.5t-3.5 -62t-0.5 -72.5t0.5 -72.5t3.5 -62t8.5 -55t16 -42t25.5 -34t37.5 -19t51.5 -7.5t51.5 7.5t37.5 19t25.5 34t16 42t8.5 55t3.5 62t0.5 72.5t-0.5 72.5t-3.5 62t-8.5 55.5t-16 43t-25.5 34.5t-37.5 19
t-51.5 7.5z" />
    <glyph glyph-name="one.numerator" horiz-adv-x="479" 
d="M379 600h-168v667q-88 -21 -186 -33l-7 130q127 18 230 66h131v-830z" />
    <glyph glyph-name="two.numerator" horiz-adv-x="714" 
d="M647 738v-140h-589q12 65 19.5 102.5t19.5 83t24 71.5t30.5 55.5t42 49t55 39t72.5 37.5q84 35 119.5 70.5t35.5 95.5t-41 80t-154 20q-69 0 -193 -18l-15 125q159 29 274 29q68 0 119.5 -10t94 -33.5t64.5 -66t22 -102.5q0 -111 -61 -186t-184 -124q-82 -33 -111.5 -70
t-40.5 -108h397z" />
    <glyph glyph-name="three.numerator" horiz-adv-x="706" 
d="M319 1439q53 0 95 -4.5t83.5 -18.5t69 -37t44.5 -62t17 -91q0 -126 -108 -189q121 -55 121 -182q0 -145 -82.5 -205t-243.5 -60q-107 0 -260 29l18 126q150 -19 211 -19q98 0 139.5 25t41.5 98q0 99 -85 110q-59 8 -169 8h-27v122q109 3 195 15q76 12 76 103
q0 62 -36.5 80.5t-113.5 18.5q-69 0 -225 -20l-17 125q146 28 256 28z" />
    <glyph glyph-name="four.numerator" horiz-adv-x="740" 
d="M695 912v-126h-103v-188h-167v188h-282q-61 0 -86 22t-25 63q0 51 58 124l285 368q33 42 62.5 58.5t66.5 16.5q39 0 63.5 -24.5t24.5 -71.5v-430h103zM425 912v288l-216 -288h216z" />
    <glyph glyph-name="five.numerator" horiz-adv-x="712" 
d="M628 1432v-140h-369l-11 -169q15 1 41 1q70 0 119 -5t97.5 -21t77.5 -43.5t47 -75.5t18 -115q0 -143 -79.5 -207.5t-237.5 -64.5q-129 0 -269 29l17 127q135 -19 214 -19q105 0 142.5 27.5t37.5 122.5q0 31 -13 53t-33 34t-50 19t-56.5 9t-61.5 2q-83 0 -178 -5l30 441
h517z" />
    <glyph glyph-name="six.numerator" horiz-adv-x="759" 
d="M396 1128q76 0 129 -11.5t95.5 -40.5t63 -82t20.5 -131q0 -81 -22.5 -136t-67.5 -85t-101 -42.5t-134 -12.5q-91 0 -152.5 23.5t-94.5 71t-46 107.5t-13 145q0 100 7.5 170.5t28 129.5t53 95.5t85 61.5t122.5 35.5t166 10.5q5 0 16 -0.5t35 -1t52 -0.5l14 -129
q-20 -1 -57 -2t-63 -2t-62.5 -5t-62.5 -11t-55 -20.5t-48 -32.5t-33 -48.5t-19 -67.5q75 11 144 11zM241 918q0 -44 4.5 -74.5t17.5 -61t41.5 -46.5t71.5 -16q91 0 125 31.5t34 113.5q0 80 -39 109t-121 29q-61 0 -132 -11q-2 -23 -2 -74z" />
    <glyph glyph-name="seven.numerator" horiz-adv-x="651" 
d="M108 600l339 692h-410v138h495q47 0 72.5 -20t25.5 -54q0 -25 -13 -52l-318 -704h-191z" />
    <glyph glyph-name="eight.numerator" horiz-adv-x="760" 
d="M685 1230q0 -72 -22.5 -115.5t-89.5 -82.5q63 -37 93 -83t30 -118q0 -58 -16.5 -101t-44 -69.5t-69 -42.5t-85.5 -22t-100 -6q-150 0 -232.5 55t-82.5 186q0 71 29.5 115t94.5 83q-59 35 -85.5 81.5t-26.5 119.5q0 209 303 209q304 0 304 -209zM530 834q0 65 -35.5 92.5
t-146.5 38.5q-116 -24 -116 -131q0 -67 38.5 -91t110.5 -24q71 0 110 24.5t39 90.5zM381 1314q-45 0 -72.5 -6t-48.5 -30t-21 -68q0 -54 35.5 -82t140.5 -34q58 14 84 39.5t26 76.5q0 62 -37 83t-107 21z" />
    <glyph glyph-name="nine.numerator" horiz-adv-x="759" 
d="M363 901q-76 0 -129 11.5t-95.5 40.5t-63 82t-20.5 131q0 81 22.5 136t67.5 85t101 42.5t134 12.5q73 0 127 -16t88 -44t54.5 -72.5t28.5 -95t8 -118.5q0 -100 -7.5 -170.5t-28 -129.5t-53 -95.5t-85 -61.5t-122.5 -35.5t-166 -10.5q-5 0 -16.5 0.5t-35.5 1t-52 0.5
l-13 129q20 1 65 2t74 3t70.5 7t69 17.5t55.5 31.5t44.5 51.5t21.5 75.5q-75 -11 -144 -11zM224 1164q0 -80 39 -108.5t121 -28.5q60 0 132 11q2 23 2 74q0 44 -4.5 74.5t-17.5 61t-41.5 46.5t-71.5 16q-91 0 -125 -32t-34 -114z" />
    <glyph glyph-name="zero.denominator" horiz-adv-x="779" 
d="M390 841q77 0 132.5 -17.5t90.5 -49t55.5 -85.5t28 -118t7.5 -154t-7.5 -153.5t-28 -117.5t-55.5 -86t-90.5 -49.5t-132.5 -17.5q-78 0 -133 17.5t-90.5 49.5t-55.5 86t-27.5 117.5t-7.5 153.5q0 114 12.5 187.5t46.5 130t96 81.5t159 25zM390 710q-29 0 -51.5 -7.5
t-37.5 -19t-25.5 -34t-16 -42.5t-8.5 -55.5t-3.5 -62t-0.5 -72.5t0.5 -72.5t3.5 -62t8.5 -55.5t16 -42.5t25.5 -34t37.5 -19t51.5 -7.5t51.5 7.5t37.5 19t25.5 34t16 42.5t8.5 55.5t3.5 62t0.5 72.5t-0.5 72.5t-3.5 62t-8.5 55.5t-16 42.5t-25.5 34t-37.5 19t-51.5 7.5z" />
    <glyph glyph-name="one.denominator" horiz-adv-x="479" 
d="M379 2h-168v667q-79 -19 -186 -32l-7 129q123 18 230 67h131v-831z" />
    <glyph glyph-name="two.denominator" horiz-adv-x="714" 
d="M647 140v-140h-589q12 65 19.5 102.5t19.5 83t24 71.5t30.5 55.5t42 49t55 39t72.5 37.5q84 35 119.5 70.5t35.5 95.5t-41 80t-154 20q-69 0 -193 -18l-15 125q159 29 274 29q68 0 119.5 -10t94 -33t64.5 -65.5t22 -102.5q0 -111 -61.5 -186.5t-183.5 -124.5
q-82 -33 -111.5 -70t-40.5 -108h397z" />
    <glyph glyph-name="three.denominator" horiz-adv-x="706" 
d="M319 841q53 0 95 -4.5t83.5 -18.5t69 -37t44.5 -62t17 -91q0 -126 -108 -189q121 -55 121 -182q0 -145 -82.5 -204.5t-243.5 -59.5q-113 0 -260 28l18 126q150 -19 211 -19q98 0 139.5 25t41.5 98q0 99 -85 110q-59 8 -169 8h-27v122q109 3 195 15q76 12 76 104
q0 62 -36.5 80t-113.5 18q-69 0 -225 -20l-17 126q140 27 256 27z" />
    <glyph glyph-name="four.denominator" horiz-adv-x="740" 
d="M695 315v-127h-103v-188h-167v188h-282q-61 0 -86 22t-25 63q0 51 58 124l285 368q33 42 62.5 58.5t66.5 16.5q39 0 63.5 -24.5t24.5 -71.5v-429h103zM425 315v287l-216 -287h216z" />
    <glyph glyph-name="five.denominator" horiz-adv-x="712" 
d="M628 834v-140h-369l-11 -169q15 1 41 1q70 0 119 -5t97.5 -21t77.5 -43.5t47 -75.5t18 -115q0 -143 -79.5 -207.5t-237.5 -64.5q-129 0 -269 29l17 127q135 -19 214 -19q105 0 142.5 27.5t37.5 122.5q0 31 -13 53t-33 34t-50 19t-56.5 9t-61.5 2q-83 0 -178 -5l30 441
h517z" />
    <glyph glyph-name="six.denominator" horiz-adv-x="759" 
d="M396 530q76 0 129 -11.5t95.5 -40.5t63 -82t20.5 -131q0 -81 -22.5 -136t-67.5 -85t-101 -42t-134 -12q-73 0 -127 16t-88 44t-54.5 72.5t-28.5 95t-8 118.5q0 100 7.5 170.5t28 129.5t53 95.5t85 61.5t122.5 35.5t166 10.5q5 0 16 -0.5t35 -1t52 -0.5l14 -129
q-20 -1 -57 -2t-63 -2t-62.5 -5t-62.5 -11t-55 -20.5t-48 -32.5t-33 -48.5t-19 -67.5q75 11 144 11zM241 320q0 -44 4.5 -74.5t17.5 -61t41.5 -46.5t71.5 -16q91 0 125 31.5t34 113.5q0 80 -39 109t-121 29q-61 0 -132 -11q-2 -23 -2 -74z" />
    <glyph glyph-name="seven.denominator" horiz-adv-x="651" 
d="M108 2l339 692h-410v139h495q46 0 72 -20.5t26 -54.5q0 -25 -13 -52l-318 -704h-191z" />
    <glyph glyph-name="eight.denominator" horiz-adv-x="760" 
d="M685 632q0 -72 -22.5 -115.5t-89.5 -82.5q63 -37 93 -83t30 -118q0 -58 -16.5 -101t-44 -69t-69 -42t-85.5 -22t-100 -6q-73 0 -128 12t-98.5 38.5t-66 74t-22.5 115.5q0 71 29.5 115t94.5 83q-59 35 -85.5 81.5t-26.5 119.5q0 209 303 209q304 0 304 -209zM530 237
q0 65 -35.5 92t-146.5 38q-116 -24 -116 -130q0 -67 38.5 -91.5t110.5 -24.5q70 0 109.5 25t39.5 91zM381 716q-45 0 -72.5 -6t-48.5 -30t-21 -68q0 -54 35.5 -82t140.5 -34q58 14 84 39.5t26 76.5q0 62 -37 83t-107 21z" />
    <glyph glyph-name="nine.denominator" horiz-adv-x="759" 
d="M363 304q-76 0 -129 11.5t-95.5 40t-63 81.5t-20.5 131q0 81 22.5 136t67.5 85t101 42.5t134 12.5q73 0 127 -16t88 -44t54.5 -72.5t28.5 -95t8 -118.5q0 -100 -7.5 -170.5t-28 -129.5t-53 -95.5t-85 -61.5t-122.5 -35.5t-166 -10.5q-5 0 -16.5 0.5t-35.5 1t-52 0.5
l-13 129q20 1 57 2t63 2t62.5 5t62.5 11t55 20.5t48 32.5t33 48.5t19 67.5q-75 -11 -144 -11zM224 567q0 -80 39 -109t121 -29q60 0 132 11q2 23 2 74q0 44 -4.5 74.5t-17.5 61t-41.5 46.5t-71.5 16q-91 0 -125 -31.5t-34 -113.5z" />
    <glyph glyph-name="zero.onum" horiz-adv-x="1171" 
d="M1057 583q0 -128 -11.5 -217.5t-41.5 -165.5t-82.5 -121t-135.5 -69.5t-199 -24.5t-199 24.5t-136 69.5t-83.5 121t-42 166t-11.5 217q0 128 11.5 217.5t42 165.5t83.5 121t135.5 69.5t199.5 24.5t199.5 -24.5t135 -69.5t82.5 -121t41.5 -165.5t11.5 -217.5zM349 583
q0 -49 0.5 -80t3 -71.5t7 -65.5t13 -56t20.5 -49t30 -37.5t41 -29.5t54 -16.5t69 -6.5q34 0 62.5 4.5t50.5 15t39.5 22.5t30.5 32.5t22 38.5t15 47.5t9.5 53t5 61t2 65.5t0.5 72q0 50 -0.5 80t-3 71.5t-7 66t-12.5 55.5t-20 49t-30 37.5t-41 29.5t-54 16.5t-69 6.5
q-68 0 -113.5 -21t-70 -50.5t-37 -90.5t-15 -110t-2.5 -140z" />
    <glyph glyph-name="one.onum" horiz-adv-x="702" 
d="M555 0h-231v935q-126 -33 -288 -53l-10 185q195 29 345 100h184v-1167z" />
    <glyph glyph-name="two.onum" horiz-adv-x="1056" 
d="M341 193h616v-193h-870q16 80 26 128t25.5 106.5t30 93t36 75t46 66t59 53.5t76.5 49.5t96 42.5q138 54 195.5 104t57.5 132q0 87 -67.5 115.5t-256.5 28.5q-111 0 -281 -24l-23 174q216 37 407 37q101 0 177 -14t138.5 -46.5t95 -91.5t32.5 -144q0 -160 -91.5 -264.5
t-275.5 -171.5q-72 -26 -117 -51t-72.5 -56.5t-39.5 -64t-20 -84.5z" />
    <glyph glyph-name="three.onum" horiz-adv-x="1058" 
d="M477 1181q55 0 102 -3.5t95.5 -13t87 -25t73 -40.5t57 -58t36 -79.5t13.5 -103.5q0 -203 -174 -293q194 -82 194 -283q0 -113 -33 -192t-99 -124.5t-153 -65t-206 -19.5q-173 0 -386 40l25 181q206 -28 314 -28q81 0 132 7.5t90.5 29t56.5 61t17 101.5q0 160 -146 180
q-103 13 -263 13h-28v172q149 3 291 24q132 19 132 168q0 44 -13 74t-32.5 47t-54.5 26t-67.5 11.5t-82.5 2.5q-127 0 -336 -28l-23 177q212 41 381 41z" />
    <glyph glyph-name="four.onum" horiz-adv-x="1114" 
d="M659 -106v292h-454q-87 0 -122 32t-35 92q0 74 87 187l444 572q48 63 91.5 87.5t96.5 24.5t86 -35.5t33 -103.5v-677h160v-179h-160v-292h-227zM659 863l-375 -498h375v498z" />
    <glyph glyph-name="five.onum" horiz-adv-x="1067" 
d="M941 1167v-199h-573l-19 -282q78 3 80 3q87 0 151 -5.5t129.5 -20t110.5 -42t81 -70.5t53.5 -107.5t17.5 -149.5q0 -218 -119.5 -316t-357.5 -98q-200 0 -402 42l25 180q190 -28 318 -28q70 0 114 5t81.5 19t57 41.5t30 70.5t10.5 108q0 50 -21.5 86t-53 55.5t-81 31
t-92 14.5t-98.5 3q-137 0 -260 -7l46 666h772z" />
    <glyph glyph-name="six.onum" horiz-adv-x="1141" 
d="M597 807q90 0 158 -10.5t126.5 -37.5t96 -72t58.5 -115t21 -166q0 -99 -23 -173t-63.5 -121t-103 -75.5t-133.5 -40t-164 -11.5q-111 0 -192 24.5t-132.5 68t-82 111.5t-42.5 146t-12 181q0 153 12 261.5t43 198t81 145.5t130 95t185.5 54.5t252.5 15.5q42 0 144 -2
l20 -184q-32 -2 -93.5 -4.5t-102.5 -4t-100.5 -9t-99 -19t-84.5 -34t-72.5 -53.5t-46.5 -78.5t-22 -108.5q132 18 241 18zM563 630q-87 0 -220 -19q-4 -39 -4 -121q0 -55 4 -96t18 -85t38 -72.5t66 -46.5t100 -18q149 0 205.5 52t56.5 184q0 67 -17 111.5t-53 68.5t-81.5 33
t-112.5 9z" />
    <glyph glyph-name="seven.onum" horiz-adv-x="976" 
d="M56 1167h752q65 0 101 -29t36 -78q0 -37 -18 -77l-493 -1089h-265l527 1074h-640v199z" />
    <glyph glyph-name="eight.onum" horiz-adv-x="1144" 
d="M573 -15q-87 0 -156.5 11t-130 37t-101 67.5t-63.5 104.5t-23 146q0 113 46 180t152 128q-97 53 -138 122.5t-41 186.5q0 318 455 318q58 0 110 -6t105 -19t95 -37t75.5 -58t52 -84.5t18.5 -113.5q0 -112 -35.5 -179t-143.5 -127q102 -57 149 -127t47 -185
q0 -87 -25 -152.5t-66.5 -105.5t-104 -64.5t-128.5 -33.5t-149 -9zM573 167q56 0 97 8t76.5 27.5t54 58t18.5 95.5q0 72 -22.5 111.5t-86.5 64t-188 36.5q-196 -41 -196 -212q0 -109 64 -149t183 -40zM627 750q94 25 139.5 67t45.5 121q0 43 -12.5 74.5t-33 50t-52.5 29
t-64.5 14t-76.5 3.5q-43 0 -75 -3.5t-64 -14t-52 -29t-32.5 -50t-12.5 -74.5t11 -72t40.5 -55t88.5 -41t150 -20z" />
    <glyph glyph-name="nine.onum" horiz-adv-x="1141" 
d="M544 359q-113 0 -193 17.5t-143 61.5t-94 124t-31 199q0 99 23 173t63.5 120.5t103 75.5t134 40t164.5 11q111 0 192 -24.5t132.5 -67.5t82 -111t42.5 -146t12 -181q0 -153 -12 -261.5t-43 -198.5t-81 -146t-130 -94.5t-186 -54.5t-252 -16q-8 0 -21 0.5t-47.5 1
t-76.5 1.5l-20 183q32 2 94 4.5t103 4t100 9t99 19t85 34t72.5 53.5t46.5 78.5t22 108.5q-132 -18 -241 -18zM802 677q0 55 -4 96t-18 85t-38 72t-66 46t-100 18q-150 0 -206.5 -52t-56.5 -184q0 -67 17 -111.5t53.5 -68.5t82 -33t112.5 -9q87 0 220 19q4 39 4 122z" />
    <glyph glyph-name="dollar.onum" horiz-adv-x="957" 
d="M89 208q185 -27 331 -27q116 0 175 36.5t59 138.5q0 37 -13 66t-29.5 46.5t-52 35t-59.5 25.5t-73 23q-77 23 -126.5 42.5t-98.5 50t-76.5 67t-44 90.5t-16.5 125q0 170 83.5 253t252.5 101v174h166v-170q160 -6 304 -36l-21 -181q-173 25 -274 25q-29 0 -48.5 -0.5
t-51.5 -3.5t-54 -8t-48 -15.5t-41.5 -25.5t-26 -37.5t-10.5 -51.5q0 -25 4 -46t14 -37.5t19 -29.5t27.5 -24t30 -18t36.5 -15t37 -11.5t40.5 -11t39.5 -10.5q92 -25 153.5 -54.5t107.5 -74t67 -108t21 -150.5q0 -170 -84.5 -258t-251.5 -110v-177h-166v170q-160 3 -325 37z
" />
    <glyph glyph-name="cent.onum" horiz-adv-x="819" 
d="M747 338l19 -168q-107 -25 -219 -33v-170h-155v171q-77 10 -134 43t-90 78.5t-53 111.5t-26.5 129.5t-6.5 144.5q0 112 13 190t46.5 142t95 101t155.5 51v176h155v-168q102 -2 217 -35l-17 -163q-123 20 -172 20q-64 0 -107 -5.5t-74 -22t-48.5 -37t-27.5 -59.5
t-12.5 -80.5t-2.5 -109.5q0 -51 1 -81t4.5 -67.5t11 -58t21 -44.5t33 -36t48 -23.5t66.5 -15.5t88 -4q60 0 171 23z" />
    <glyph glyph-name="Euro.onum" horiz-adv-x="1051" 
d="M79 685l32 138h105q20 246 121 354.5t330 108.5q155 0 291 -40l-18 -179q-140 26 -230 26q-71 0 -120 -18.5t-77.5 -56.5t-42 -84t-19.5 -111h410l-31 -138h-384v-85h366l-31 -137h-331q5 -69 18 -117t41 -88t78 -59.5t123 -19.5q90 0 230 26l18 -180q-136 -40 -291 -40
q-233 0 -333.5 111.5t-119.5 366.5h-146l31 137h110v85h-130z" />
    <glyph glyph-name="sterling.onum" horiz-adv-x="1117" 
d="M262 555h-184v176h159q-13 108 -13 198q0 83 24 146.5t64.5 103t100 64.5t124.5 34.5t144 9.5q65 0 115.5 -10.5t93 -34t71.5 -46.5t71 -64l-119 -140q-57 50 -108.5 74.5t-116.5 24.5q-129 0 -178 -47.5t-49 -156.5q0 -59 11 -156h280v-176h-262q4 -64 4 -99
q0 -104 -58 -258h245q171 0 314 23l21 -184q-153 -37 -432 -37h-300q-59 0 -88 25.5t-29 65.5q0 27 25.5 77.5t51.5 122t26 150.5q0 52 -8 114z" />
    <glyph glyph-name="yen.onum" horiz-adv-x="1051" 
d="M290 1274l237 -542l244 542h229l-270 -587h136v-149h-204l-21 -46v-61h225v-148h-225v-283h-233v283h-222v148h222v61l-21 46h-201v149h134l-268 587h238z" />
    <glyph glyph-name="zero.tnum" 
d="M1118 694q0 -151 -12.5 -257.5t-45.5 -196.5t-90.5 -143.5t-147 -82.5t-216.5 -29q-91 0 -162.5 14.5t-125 42t-92.5 73t-65 100.5t-41 131t-21 158.5t-6 189.5t6 189.5t21 158.5t41 131t65 100.5t92.5 73t125 42t162.5 14.5q127 0 216.5 -29t147 -82.5t90.5 -143.5
t45.5 -196.5t12.5 -257.5zM337 694q0 -62 0.5 -100t3.5 -89.5t8 -83t14.5 -70t23 -61.5t33.5 -47t46.5 -37t61.5 -21t78 -8q64 0 110.5 15t75.5 52t46 73.5t24.5 106t9.5 122.5t2 148q0 62 -0.5 100t-3 90t-8 83t-14.5 70t-22.5 61.5t-34 47t-46.5 37.5t-61 21t-78 8t-78 -8
t-61.5 -21t-46.5 -37t-33.5 -47t-23 -62t-14.5 -70.5t-8 -83t-3.5 -89.5t-0.5 -100z" />
    <glyph glyph-name="one.tnum" 
d="M630 1389h194v-1389h-240v1148q-137 -36 -319 -59l-10 189q204 31 375 111z" />
    <glyph glyph-name="two.tnum" 
d="M1075 0h-955q27 150 44.5 228t48.5 167t72.5 138t106.5 96.5t160 88.5q76 32 124.5 59.5t85.5 62.5t53 77.5t16 98.5q0 114 -74.5 151t-281.5 37q-135 0 -310 -28l-22 183q235 44 444 44q88 0 158.5 -9.5t133.5 -33.5t105.5 -62.5t67 -99t24.5 -139.5q0 -185 -101 -309.5
t-303 -206.5q-82 -33 -132 -64t-79.5 -73t-43 -85t-22.5 -114h680v-207z" />
    <glyph glyph-name="three.tnum" 
d="M547 1403q86 0 154.5 -8t136 -30.5t112.5 -60.5t73 -101.5t28 -148.5q0 -227 -201 -323q107 -42 165 -116t58 -195q0 -123 -36 -208.5t-107.5 -134.5t-166.5 -70.5t-224 -21.5q-180 0 -417 44l25 185q230 -29 341 -29q91 0 148.5 8.5t101.5 32.5t63 68.5t19 115.5
q0 184 -166 205q-119 14 -285 14h-29v177q162 3 314 25q81 12 115.5 60.5t34.5 132.5q0 50 -14.5 84.5t-36.5 53.5t-61.5 29.5t-75.5 13t-93 2.5q-144 0 -363 -29l-24 182q228 43 411 43z" />
    <glyph glyph-name="four.tnum" 
d="M723 0v321h-505q-92 0 -129.5 34t-37.5 96q0 80 95 202l488 629q53 68 99 94.5t103 26.5q55 0 89.5 -37t34.5 -109v-752h177v-184h-177v-321h-237zM724 1080l-433 -575h433v575z" />
    <glyph glyph-name="five.tnum" 
d="M128 30l25 186q206 -30 344 -30q65 0 109 3.5t84 14t63.5 29t42 49t25.5 74t7 104.5q0 48 -15.5 84.5t-45.5 59.5t-64.5 38t-82.5 22t-88.5 9.5t-92.5 2.5q-142 0 -279 -7l50 720h836v-206h-629l-23 -324q48 3 96 3q80 0 141.5 -4t126 -15t110.5 -30.5t88.5 -52t68.5 -77
t41 -107.5t15 -142q0 -236 -130 -342.5t-389 -106.5q-219 0 -434 45z" />
    <glyph glyph-name="six.tnum" 
d="M633 876q123 0 210 -19t155.5 -66.5t102 -134t33.5 -215.5q0 -108 -25 -188t-69.5 -131t-112.5 -82t-145.5 -43t-178.5 -12q-100 0 -178 17.5t-132.5 53.5t-92 84t-58.5 115.5t-30 140.5t-9 166q0 167 13 285.5t46.5 216.5t88 159t142 103.5t203 59.5t275.5 17
q41 0 153 -2l20 -190q-32 -2 -100 -3t-113 -2.5t-111 -9t-111 -20.5t-95 -39t-80.5 -62t-51 -92t-21.5 -128q155 21 272 21zM343 534q0 -61 4.5 -107t20 -95.5t42.5 -81t74.5 -52t113.5 -20.5q169 0 232 58.5t63 207.5q0 147 -72 199.5t-225 52.5q-89 0 -248 -23
q-5 -55 -5 -139z" />
    <glyph glyph-name="seven.tnum" 
d="M845 1183h-709v206h821q69 0 107 -30t38 -82q0 -37 -21 -82l-540 -1195h-277z" />
    <glyph glyph-name="eight.tnum" 
d="M112 1061q0 342 494 342q77 0 143 -8.5t133 -31.5t113.5 -60t76 -99t29.5 -143q0 -125 -40.5 -198.5t-164.5 -139.5q115 -63 169.5 -140.5t54.5 -202.5q0 -95 -27 -165.5t-72 -114t-113 -70t-139.5 -36t-162.5 -9.5q-94 0 -170 11.5t-141.5 40t-109.5 73t-69 113
t-25 157.5q0 123 53.5 198t171.5 142q-109 58 -156.5 136t-47.5 205zM327 386q0 -64 20.5 -107.5t60.5 -66t86.5 -31.5t111.5 -9q63 0 109.5 9t86.5 31.5t61 66t21 107.5q0 82 -26 127t-97.5 72t-212.5 41q-221 -41 -221 -240zM340 1027q0 -39 7 -67t27.5 -55t56 -44.5
t94.5 -30t141 -16.5q112 27 161 73t49 140q0 49 -14 85t-37 57t-59.5 33t-73 16t-86.5 4q-49 0 -84.5 -3.5t-71.5 -16t-59 -33t-37 -56.5t-14 -86z" />
    <glyph glyph-name="nine.tnum" 
d="M576 512q-98 0 -171.5 11.5t-137.5 41t-104.5 78.5t-63.5 125t-23 180q0 108 25 188t69 130.5t112 81.5t145.5 43t178.5 12q120 0 208 -26.5t144 -73.5t89 -121t46 -158.5t13 -196.5q0 -167 -13 -285.5t-46.5 -216.5t-88 -159.5t-141.5 -104t-202.5 -59.5t-275.5 -17
q-8 0 -21.5 0.5t-49.5 1t-83 1.5l-20 190q32 2 100 3t113 2.5t111 9t111 20.5t95 39t80.5 62t51 92t21.5 128q-163 -22 -272 -22zM866 855q0 61 -4.5 107t-20 95.5t-42.5 81t-74.5 52t-113.5 20.5q-169 0 -232 -58.5t-63 -207.5q0 -147 72 -199.5t225 -52.5q96 0 248 22
q5 55 5 140z" />
    <glyph glyph-name="dollar.tnum" 
d="M182 216q201 -29 359 -29q131 0 197.5 41.5t66.5 157.5q0 42 -13.5 75t-33.5 53.5t-52.5 37.5t-62.5 27.5t-71 22.5l-21 6q-59 18 -100.5 33t-86 35.5t-73.5 42t-56.5 51t-43.5 65t-25 81t-9 100.5q0 185 92 274t278 108v192h169v-188q178 -6 334 -38l-22 -186
q-183 27 -296 27q-33 0 -55 -0.5t-58 -4t-60.5 -9.5t-53 -18t-46 -28.5t-29.5 -43t-12 -59.5q0 -57 14 -94t59 -63t72.5 -35.5t108.5 -31.5q5 -2 8 -2.5t7.5 -2t8.5 -2.5q100 -27 167 -59t116.5 -80t72.5 -116.5t23 -162.5q0 -186 -93 -282t-277 -118v-194h-169v187
q-186 3 -357 39z" />
    <glyph glyph-name="cent.tnum" 
d="M970 359l21 -172q-116 -27 -241 -35v-188h-158v189q-85 10 -147.5 45.5t-99 85t-58.5 121.5t-29 142t-7 158q0 97 8.5 169t31 136.5t60.5 107.5t98 72.5t143 41.5v192h158v-185q125 -3 239 -36l-18 -168q-130 22 -184 22q-71 0 -120 -6t-84 -24.5t-54.5 -41.5t-30.5 -67
t-14 -90.5t-3 -122.5q0 -46 0.5 -74t3 -64t7 -57t12 -47t19.5 -41t28.5 -31.5t39 -25t51.5 -16.5t65 -11t81 -3q60 0 182 24z" />
    <glyph glyph-name="Euro.tnum" 
d="M122 756l31 139h116q22 270 132 389t360 119q171 0 312 -42l-18 -184q-143 27 -248 27q-65 0 -114 -14.5t-80.5 -40t-52.5 -65.5t-31 -85t-14 -104h450l-30 -139h-424v-107h400l-30 -138h-367q5 -80 19.5 -135t46 -100.5t88 -68t139.5 -22.5q105 0 248 27l18 -184
q-144 -43 -312 -43q-130 0 -219.5 30.5t-147 97t-87 162.5t-39.5 236h-158l30 138h122v45q0 42 1 62h-141z" />
    <glyph glyph-name="sterling.tnum" 
d="M286 611h-202v180h176q-15 110 -15 225q0 90 26 159t70 111.5t109 69.5t135.5 37t156.5 10q70 0 124.5 -11t100 -36.5t75.5 -49.5t76 -67l-122 -144q-62 54 -118 80t-129 26q-147 0 -202 -54t-55 -178q0 -65 13 -178h308v-180h-289q4 -74 4 -116q0 -59 -19 -140.5
t-46 -149.5h279q183 0 339 24l21 -189q-70 -17 -200 -28.5t-268 -11.5h-330q-62 0 -92 26t-30 68q0 24 18 64.5t39 81t39 106t18 133.5q0 59 -10 132z" />
    <glyph glyph-name="yen.tnum" 
d="M94 1389h248l264 -606l273 606h238l-297 -646h154v-151h-223l-25 -56v-75h248v-149h-248v-312h-243v312h-245v149h245v75l-25 56h-220v151h150z" />
    <glyph glyph-name="period.tnum" horiz-adv-x="605" 
d="M161 127q0 81 30 111.5t111 30.5t111.5 -30.5t30.5 -111.5t-30 -111.5t-112 -30.5t-111.5 30.5t-29.5 111.5z" />
    <glyph glyph-name="comma.tnum" horiz-adv-x="605" 
d="M221 245h265l-194 -514h-196z" />
    <glyph glyph-name="colon.tnum" horiz-adv-x="605" 
d="M162 127q0 81 30 111.5t111 30.5t111.5 -30.5t30.5 -111.5t-30 -111.5t-112 -30.5t-111.5 30.5t-29.5 111.5zM162 867q0 81 30 111.5t111 30.5t111.5 -30.5t30.5 -111.5t-30 -111.5t-112 -30.5t-111.5 30.5t-29.5 111.5z" />
    <glyph glyph-name="semicolon.tnum" horiz-adv-x="605" 
d="M498 867q0 -81 -30 -111.5t-112 -30.5t-112 30.5t-30 111.5q0 80 30.5 111t111.5 31t111.5 -30.5t30.5 -111.5zM291 -269h-197l125 514h265z" />
    <glyph glyph-name="zero.onum_tnum" horiz-adv-x="1112" 
d="M1027 583q0 -128 -11.5 -217.5t-41.5 -165.5t-82.5 -121t-135.5 -69.5t-199 -24.5t-199 24.5t-136 69.5t-83.5 121t-42 166t-11.5 217q0 128 11.5 217.5t42 165.5t83.5 121t135.5 69.5t199.5 24.5t199.5 -24.5t135 -69.5t82.5 -121t41.5 -165.5t11.5 -217.5zM319 583
q0 -49 0.5 -80t3 -71.5t7 -65.5t13 -56t20.5 -49t30 -37.5t41 -29.5t54 -16.5t69 -6.5q34 0 62.5 4.5t50.5 15t39.5 22.5t30.5 32.5t22 38.5t15 47.5t9.5 53t5 61t2 65.5t0.5 72q0 50 -0.5 80t-3 71.5t-7 66t-12.5 55.5t-20 49t-30 37.5t-41 29.5t-54 16.5t-69 6.5
q-68 0 -113.5 -21t-70 -50.5t-37 -90.5t-15 -110t-2.5 -140z" />
    <glyph glyph-name="one.onum_tnum" horiz-adv-x="1112" 
d="M759 0h-230v935q-126 -33 -288 -53l-11 185q196 29 346 100h183v-1167z" />
    <glyph glyph-name="two.onum_tnum" horiz-adv-x="1112" 
d="M369 193h615v-193h-870q16 80 26 128t25.5 106.5t30 93t36 75t46 66t59 53.5t76.5 49.5t96 42.5q138 54 196 104t58 132q0 87 -67.5 115.5t-256.5 28.5q-111 0 -281 -24l-23 174q216 37 406 37q101 0 177.5 -14t138.5 -46.5t95 -91.5t33 -144q0 -160 -91.5 -264.5
t-275.5 -171.5q-72 -26 -117 -51t-72.5 -56.5t-39.5 -64t-20 -84.5z" />
    <glyph glyph-name="three.onum_tnum" horiz-adv-x="1112" 
d="M504 1181q55 0 102 -3.5t95.5 -13t87 -25t73 -40.5t57 -58t36 -79.5t13.5 -103.5q0 -203 -174 -293q194 -82 194 -283q0 -113 -33 -192t-99 -124.5t-153 -65t-206 -19.5q-173 0 -386 40l25 181q206 -28 314 -28q81 0 132 7.5t90.5 29t56.5 61t17 101.5q0 160 -146 180
q-103 13 -263 13h-28v172q149 3 291 24q132 19 132 168q0 44 -13 74t-32.5 47t-54.5 26t-67.5 11.5t-82.5 2.5q-127 0 -336 -28l-22 177q212 41 380 41z" />
    <glyph glyph-name="four.onum_tnum" horiz-adv-x="1112" 
d="M657 -106v292h-453q-87 0 -122 32t-35 92q0 74 87 187l444 572q48 63 91.5 87.5t96.5 24.5t86 -35.5t33 -103.5v-677h160v-179h-160v-292h-228zM658 863l-375 -498h375v498z" />
    <glyph glyph-name="five.onum_tnum" horiz-adv-x="1112" 
d="M963 1167v-199h-573l-19 -282q78 3 80 3q87 0 151 -5.5t129.5 -20t110.5 -42t81 -70.5t53.5 -107.5t17.5 -149.5q0 -218 -119.5 -316t-357.5 -98q-199 0 -401 42l24 180q190 -28 318 -28q70 0 114 5t81.5 19t57 41.5t30 70.5t10.5 108q0 50 -21.5 86t-53 55.5t-80.5 31
t-91.5 14.5t-98.5 3q-138 0 -261 -7l46 666h772z" />
    <glyph glyph-name="six.onum_tnum" horiz-adv-x="1112" 
d="M582 807q114 0 193.5 -17.5t142.5 -61t94 -123.5t31 -199q0 -123 -34 -207.5t-101 -130t-151.5 -64.5t-201.5 -19q-111 0 -192 24.5t-132.5 68t-82 111.5t-42.5 146t-12 181q0 153 12 261.5t43 198t81 145.5t130 95t185.5 54.5t252.5 15.5q43 0 145 -2l19 -184
q-32 -2 -93.5 -4.5t-102.5 -4t-100.5 -9t-99 -19t-84.5 -34t-72.5 -53.5t-46.5 -78.5t-22 -108.5q132 18 241 18zM548 630q-87 0 -220 -19q-4 -39 -4 -121q0 -55 4 -96t18 -85t38 -72.5t66 -46.5t100 -18q149 0 205.5 52t56.5 184q0 67 -17 111.5t-53 68.5t-81.5 33
t-112.5 9z" />
    <glyph glyph-name="seven.onum_tnum" horiz-adv-x="1112" 
d="M124 1167h752q65 0 101 -29t36 -78q0 -37 -18 -77l-493 -1089h-265l527 1074h-640v199z" />
    <glyph glyph-name="eight.onum_tnum" horiz-adv-x="1112" 
d="M557 -15q-109 0 -192 18t-148.5 59t-100 113.5t-34.5 175.5q0 113 46 180t152 128q-97 53 -138 122.5t-41 186.5q0 75 26.5 132.5t69.5 92t104 56t122.5 29.5t133.5 8q71 0 132 -8t122 -29.5t104 -56t70 -92t27 -132.5q0 -112 -35.5 -179t-143.5 -127q102 -57 149.5 -127
t47.5 -185q0 -87 -25 -152.5t-66.5 -105.5t-104 -64.5t-128.5 -33.5t-149 -9zM557 167q56 0 96.5 8t76 27.5t54 58t18.5 95.5q0 72 -22.5 111.5t-86.5 64t-188 36.5q-196 -41 -196 -212q0 -57 18 -95.5t53.5 -58t77.5 -27.5t99 -8zM611 750q94 25 139.5 67t45.5 121
q0 43 -12.5 74.5t-33 50t-52.5 29t-64.5 14t-76.5 3.5q-43 0 -75 -3.5t-64 -14t-52 -29t-32.5 -50t-12.5 -74.5t11 -72t40.5 -55t88.5 -41t150 -20z" />
    <glyph glyph-name="nine.onum_tnum" horiz-adv-x="1112" 
d="M529 359q-113 0 -193 17.5t-143 61.5t-94 124t-31 199q0 99 23 173t63.5 120.5t103 75.5t134 40t164.5 11q111 0 192 -24.5t132.5 -67.5t82 -111t42.5 -146t12 -181q0 -153 -12 -261.5t-43 -198.5t-81 -146t-130 -94.5t-186 -54.5t-252 -16q-8 0 -21 0.5t-47.5 1
t-76.5 1.5l-19 183q32 2 93.5 4.5t102.5 4t100.5 9t99 19t84.5 34t72.5 53.5t46.5 78.5t22 108.5q-132 -18 -241 -18zM787 677q0 55 -4 96t-18 85t-38 72t-66 46t-100 18q-149 0 -205.5 -52t-56.5 -184q0 -67 17 -111.5t53 -68.5t81.5 -33t112.5 -9q87 0 220 19q4 39 4 122z
" />
    <glyph glyph-name="dollar.onum_tnum" horiz-adv-x="1112" 
d="M167 208q185 -27 331 -27q116 0 175 36.5t59 138.5q0 37 -13 66t-29.5 46.5t-52.5 35t-60 25.5t-73 23q-77 23 -126.5 42.5t-98.5 50t-76.5 67t-44 90.5t-16.5 125q0 170 84 253t253 101v174h165v-170q161 -6 305 -36l-21 -181q-173 25 -275 25q-34 0 -57.5 -1t-60.5 -5
t-61.5 -13t-49.5 -24t-37.5 -40.5t-12.5 -58.5q0 -25 4 -46t14 -37.5t19 -29.5t27.5 -24t30 -18t36.5 -15t37 -11.5t40.5 -11t39.5 -10.5q92 -25 153.5 -54.5t107.5 -74t67 -108t21 -150.5q0 -170 -85 -258t-252 -110v-177h-165v170q-160 3 -325 37z" />
    <glyph glyph-name="cent.onum_tnum" horiz-adv-x="1112" 
d="M893 338l19 -168q-107 -25 -219 -33v-170h-155v171q-77 10 -134 43t-90 78.5t-53 111.5t-26.5 129.5t-6.5 144.5q0 112 13 190t46.5 142t95 101t155.5 51v176h155v-168q103 -2 218 -35l-18 -163q-123 20 -172 20q-64 0 -107 -5.5t-74 -22t-48.5 -37t-27.5 -59.5
t-12.5 -80.5t-2.5 -109.5q0 -45 0.5 -73t3.5 -62t8.5 -54t15 -43.5t23.5 -36.5t34.5 -26.5t47.5 -20t62 -10.5t79 -4q59 0 170 23z" />
    <glyph glyph-name="Euro.onum_tnum" horiz-adv-x="1112" 
d="M110 685l31 138h105q20 246 121.5 354.5t330.5 108.5q155 0 291 -40l-18 -179q-140 26 -231 26q-71 0 -120 -18.5t-77 -56.5t-41.5 -84t-19.5 -111h410l-31 -138h-384v-85h365l-30 -137h-331q5 -69 18 -117t40.5 -88t77.5 -59.5t123 -19.5q91 0 231 26l18 -180
q-136 -40 -291 -40q-233 0 -333.5 111.5t-119.5 366.5h-146l31 137h110v85h-130z" />
    <glyph glyph-name="sterling.onum_tnum" horiz-adv-x="1112" 
d="M259 555h-184v176h158q-12 99 -12 198q0 83 24 146.5t64.5 103t100 64.5t124.5 34.5t144 9.5q65 0 115.5 -10.5t93 -34t71.5 -46.5t71 -64l-119 -140q-57 50 -108.5 74.5t-116.5 24.5q-129 0 -178 -47.5t-49 -156.5q0 -59 11 -156h280v-176h-262q4 -64 4 -99
q0 -104 -58 -258h245q171 0 314 23l21 -184q-153 -37 -432 -37h-300q-59 0 -88 25.5t-29 65.5q0 23 16 60t35.5 73.5t35.5 95.5t16 121q0 52 -8 114z" />
    <glyph glyph-name="yen.onum_tnum" horiz-adv-x="1112" 
d="M320 1274l237 -542l244 542h229l-270 -587h136v-149h-204l-21 -46v-61h225v-148h-225v-283h-233v283h-222v148h222v61l-21 46h-201v149h134l-268 587h238z" />
    <glyph glyph-name="parenleft.case" horiz-adv-x="635" 
d="M568 -103l-131 -107q-97 84 -165.5 191.5t-105.5 229.5t-52.5 243t-15.5 259t15.5 259t52.5 243t105.5 229.5t165.5 191.5l131 -108q-233 -233 -233 -815q0 -583 233 -816z" />
    <glyph glyph-name="parenright.case" horiz-adv-x="635" 
d="M198 -210l-130 107q232 232 232 816q0 583 -232 815l130 108q340 -293 340 -923t-340 -923z" />
    <glyph glyph-name="bracketleft.case" horiz-adv-x="644" 
d="M582 1448h-206v-1462h205v-177h-421v1814h422v-175z" />
    <glyph glyph-name="bracketright.case" horiz-adv-x="644" 
d="M64 -14h205v1462h-206v175h422v-1814h-421v177z" />
    <glyph glyph-name="braceleft.case" horiz-adv-x="646" 
d="M66 638v158q91 9 121.5 101t30.5 320q0 89 15.5 154t44 108.5t74.5 71.5t99.5 41.5t127.5 19.5l19 -156q-46 -6 -78 -23t-50 -39t-27.5 -58t-12 -68t-2.5 -81v-106q0 -46 -0.5 -69.5t-4 -68.5t-12 -73t-22.5 -61t-38 -56t-57 -37q44 -22 73 -63.5t41 -97.5t16 -100.5
t4 -103.5v-105q0 -49 2.5 -81t12 -68t27.5 -58t50 -38.5t78 -22.5l-19 -157q-93 8 -155.5 28.5t-111.5 64t-71.5 118.5t-22.5 185q0 228 -30.5 320t-121.5 101z" />
    <glyph glyph-name="braceright.case" horiz-adv-x="646" 
d="M218 1081v106q0 49 -2.5 81t-12 68t-27 58t-49.5 39t-78 23l18 156q74 -6 127.5 -19.5t99.5 -41.5t74.5 -71.5t44 -108.5t15.5 -154q0 -227 31 -319.5t122 -101.5v-158q-91 -9 -122 -101.5t-31 -319.5q0 -110 -22.5 -185t-71.5 -118.5t-111.5 -64t-155.5 -28.5l-18 157
q46 6 78 22.5t49.5 38.5t27 58t12 68t2.5 81v105q0 59 4 103.5t16.5 100.5t41.5 97.5t73 63.5q-33 14 -57 37t-38 56t-23 61.5t-12.5 72.5t-4 68.5t-0.5 69.5z" />
    <glyph glyph-name="questiondown.case" horiz-adv-x="1066" 
d="M730 1007l5 -132q2 -24 2 -50q0 -56 -14 -94.5t-38 -58.5t-55 -32t-65 -18l-68 -12t-65 -18t-55 -33t-38 -60.5t-14 -96.5q0 -129 62.5 -173.5t243.5 -44.5q180 0 333 30l41 -191q-203 -45 -409 -45q-73 0 -129 4t-113 15.5t-98.5 30.5t-78.5 51t-60 76t-36 106t-13 140
q0 100 25 170.5t64.5 106.5t87.5 58t96.5 32t89 20.5t66.5 32.5t27 60l4 126h202zM771 1297q0 -80 -30.5 -111t-111.5 -31t-111.5 30.5t-30.5 111.5t30 111.5t112 30.5t112 -30.5t30 -111.5z" />
    <glyph glyph-name="exclamdown.case" horiz-adv-x="559" 
d="M422 1297q0 -80 -30.5 -111t-111.5 -31t-111.5 30.5t-30.5 111.5t30 111.5t112 30.5t112 -30.5t30 -111.5zM420 -7h-279l40 1014h199z" />
    <glyph glyph-name="at.case" horiz-adv-x="1839" 
d="M1710 994q36 -125 36 -278q0 -380 -207 -555.5t-614 -175.5q-408 0 -614.5 175t-206.5 556q0 197 55 338.5t165 227t262.5 125t359.5 39.5q86 0 155 -17.5t125.5 -55.5t87.5 -107t31 -164v-430q0 -102 -9 -201q-70 -43 -185 -69.5t-243 -26.5q-217 0 -314.5 84t-97.5 257
q0 146 70 230t224 113q78 15 326 29q0 99 -38.5 136t-142.5 37q-147 0 -252.5 -26.5t-185 -88t-119 -168.5t-39.5 -262q0 -153 38.5 -259.5t116 -168.5t182.5 -89.5t249 -27.5q145 0 249.5 27.5t182 89.5t116 168.5t38.5 259.5q0 118 -25 212zM1116 734v201
q-163 -5 -235 -26q-61 -17 -91.5 -35t-47 -54.5t-16.5 -99.5q0 -98 52.5 -134.5t164.5 -36.5q34 0 87 11.5t80 26.5q6 53 6 147z" />
    <glyph glyph-name="guilsinglleft.case" horiz-adv-x="661" 
d="M578 1136l-270 -421l270 -420h-225l-298 420l298 421h225z" />
    <glyph glyph-name="guilsinglright.case" horiz-adv-x="661" 
d="M353 715l-269 421h225l298 -421l-298 -420h-225z" />
    <glyph glyph-name="guillemotleft.case" horiz-adv-x="1110" 
d="M55 715l298 421h226l-271 -421l271 -420h-226zM504 715l298 421h225l-269 -421l269 -420h-225z" />
    <glyph glyph-name="guillemotright.case" horiz-adv-x="1110" 
d="M353 715l-269 421h225l298 -421l-298 -420h-225zM803 715l-271 421h226l298 -421l-298 -420h-226z" />
    <glyph glyph-name="hyphen.case" horiz-adv-x="793" 
d="M662 618h-531v196h531v-196z" />
    <glyph glyph-name="endash.case" horiz-adv-x="1250" 
d="M1119 624h-988v183h988v-183z" />
    <glyph glyph-name="emdash.case" horiz-adv-x="2204" 
d="M2073 624h-1942v183h1942v-183z" />
    <glyph glyph-name="periodcentered.case" horiz-adv-x="535" 
d="M267 574q-82 0 -111.5 30.5t-29.5 111.5t30 111.5t111 30.5t111.5 -30.5t30.5 -111.5t-30 -111.5t-112 -30.5z" />
    </font>
</defs>
</svg>
