<?xml version="1.0" standalone="no"?>
<!DOCTYPE svg PUBLIC "-//W3C//DTD SVG 1.1//EN" "http://www.w3.org/Graphics/SVG/1.1/DTD/svg11.dtd" >
<svg xmlns="http://www.w3.org/2000/svg" xmlns:xlink="http://www.w3.org/1999/xlink" version="1.1">
<metadata>
Created by FontForge 20170731 at Tue Oct 13 00:50:26 2020
 By Aleksey,,,
Copyright (c) 2011-2012 Durotype, www.durotype.com. All rights reserved.
</metadata>
<defs>
<font id="Flexo-Regular" horiz-adv-x="1210" >
  <font-face 
    font-family="Flexo"
    font-weight="400"
    font-stretch="normal"
    units-per-em="2048"
    panose-1="0 0 0 0 0 0 0 0 0 0"
    ascent="1618"
    descent="-430"
    x-height="1094"
    cap-height="1432"
    bbox="-323 -524 2442 1955"
    underline-thickness="102"
    underline-position="-345"
    unicode-range="U+0020-FB04"
  />
<missing-glyph horiz-adv-x="1332" 
d="M155 0v1475h1022v-1475h-1022zM605 737l-347 537v-1074zM1014 105l-347 538l-348 -538h695zM1014 1369h-695l348 -537zM1075 1274l-347 -537l347 -537v1074z" />
    <glyph glyph-name="f_f" unicode="ff" horiz-adv-x="1347" 
d="M55 1094h194v118q0 157 79.5 238.5t236.5 81.5q47 0 93 -8l-12 -110h-51q-197 0 -197 -196v-124h505v118q0 157 79.5 238.5t236.5 81.5q47 0 93 -8l-11 -110h-52q-196 0 -196 -196v-124h245v-118h-245v-976h-150v976h-505v-976h-149v976h-194v118z" />
    <glyph glyph-name="fi" unicode="fi" horiz-adv-x="1188" 
d="M1035 0h-150v976h-487v-976h-149v976h-194v118h194v118q0 157 79.5 238.5t236.5 81.5q47 0 93 -8l-12 -110h-51q-197 0 -197 -196v-124h637v-1094zM960 1314q-52 0 -71 23.5t-19 84.5t19.5 85.5t70.5 24.5t70.5 -24.5t19.5 -85.5t-19 -84.5t-71 -23.5z" />
    <glyph glyph-name="fl" unicode="fl" horiz-adv-x="1194" 
d="M55 1094h194v118q0 157 79.5 238.5t236.5 81.5q203 0 461 -15v-1223q0 -166 87 -277l-126 -66q-110 125 -110 332v1131h-282q-197 0 -197 -196v-124h246v-118h-246v-976h-149v976h-194v118z" />
    <glyph glyph-name="f_f_i" unicode="ffi" horiz-adv-x="1843" 
d="M249 1094v118q0 157 79.5 238.5t236.5 81.5q47 0 93 -8l-12 -110h-51q-197 0 -197 -196v-124h505v118q0 157 79.5 238.5t236.5 81.5q47 0 93 -8l-11 -110h-52q-196 0 -196 -196v-124h636v-1094h-149v976h-487v-976h-150v976h-505v-976h-149v976h-194v118h194zM1614 1314
q-52 0 -71 23.5t-19 84.5t19.5 85.5t70.5 24.5t71 -24.5t20 -85.5t-19 -84.5t-72 -23.5z" />
    <glyph glyph-name="f_f_l" unicode="ffl" horiz-adv-x="1848" 
d="M1298 1094v-118h-245v-976h-150v976h-505v-976h-149v976h-194v118h194v118q0 157 79.5 238.5t236.5 81.5q47 0 93 -8l-12 -110h-51q-197 0 -197 -196v-124h505v118q0 157 79.5 238.5t236.5 81.5q203 0 461 -15v-1223q0 -165 88 -277l-126 -66q-111 126 -111 332v1131
h-282q-196 0 -196 -196v-124h245z" />
    <glyph glyph-name="f_b" unicode="fb" horiz-adv-x="1899" 
d="M249 1094v118q0 157 79.5 238.5t236.5 81.5q203 0 461 -15v-449q159 41 302 41q248 0 353.5 -126t105.5 -436q0 -213 -52 -336t-157 -174.5t-284 -51.5q-243 0 -411 88q-6 90 -6 187v1154h-282q-197 0 -197 -196v-124h246v-118h-246v-976h-149v976h-194v118h194z
M1030 158q108 -49 264 -49q101 0 168.5 26.5t106 83.5t54 135t15.5 193q0 98 -8 164t-30 122t-62 87.5t-103 48.5t-154 17q-128 0 -255 -43v-613q0 -68 4 -172z" />
    <glyph glyph-name="f_f_b" unicode="ffb" horiz-adv-x="2553" 
d="M1053 976v-976h-150v976h-505v-976h-149v976h-194v118h194v118q0 157 79.5 238.5t236.5 81.5q47 0 93 -8l-12 -110h-51q-197 0 -197 -196v-124h505v118q0 157 79.5 238.5t236.5 81.5q203 0 461 -15v-449q159 41 303 41q248 0 353.5 -126t105.5 -436q0 -213 -52 -336
t-157.5 -174.5t-284.5 -51.5q-243 0 -411 88q-5 75 -5 187v1154h-283q-196 0 -196 -196v-124h245v-118h-245zM1680 330q0 -68 4 -172q108 -49 264 -49q101 0 168.5 26.5t106 83.5t54 135t15.5 193q0 98 -8 164t-30 122t-62 87.5t-103 48.5t-154 17q-128 0 -255 -43v-613z
" />
    <glyph glyph-name="f_f_h" unicode="ffh" horiz-adv-x="2559" 
d="M398 1094h505v118q0 157 79.5 238.5t236.5 81.5q203 0 461 -15v-453q158 44 318 45q92 0 161 -12t115 -37.5t75.5 -57.5t45 -79.5t21 -94t5.5 -110.5v-718h-149v687q0 85 -10.5 135t-44 89.5t-97 55.5t-167.5 16q-141 0 -273 -48v-935h-149v1414h-282q-196 0 -196 -196
v-124h245v-118h-245v-976h-150v976h-505v-976h-149v976h-194v118h194v118q0 157 79.5 238.5t236.5 81.5q47 0 93 -8l-12 -110h-51q-197 0 -197 -196v-124z" />
    <glyph glyph-name="f_f_j" unicode="ffj" horiz-adv-x="1891" 
d="M398 976v-976h-149v976h-194v118h194v118q0 157 79.5 238.5t236.5 81.5q47 0 93 -8l-12 -110h-51q-197 0 -197 -196v-124h505v118q0 157 79.5 238.5t236.5 81.5q47 0 93 -8l-11 -110h-52q-196 0 -196 -196v-124h681v-1105q0 -217 -86 -312t-273 -95q-23 0 -35 1l11 114
q43 3 73 9.5t62.5 23.5t52.5 43.5t33 72.5t13 109v1021h-532v-976h-150v976h-505zM1570 1422q0 61 19.5 85.5t70.5 24.5t70 -24.5t19 -85.5t-18.5 -84.5t-70.5 -23.5t-71 23.5t-19 84.5z" />
    <glyph glyph-name="f_f_k" unicode="ffk" horiz-adv-x="2405" 
d="M1680 590l476 504h180l-512 -534l544 -560h-195l-493 516v-516h-148v1414h-283q-196 0 -196 -196v-124h245v-118h-245v-976h-150v976h-505v-976h-149v976h-194v118h194v118q0 157 79.5 238.5t236.5 81.5q47 0 93 -8l-12 -110h-51q-197 0 -197 -196v-124h505v118
q0 157 79.5 238.5t236.5 81.5q203 0 461 -15v-927z" />
    <glyph glyph-name="f_h" unicode="fh" horiz-adv-x="1905" 
d="M55 976v118h194v118q0 157 79.5 238.5t236.5 81.5q203 0 461 -15v-453q158 44 318 45q92 0 161 -12t115 -37.5t75.5 -57.5t45 -79.5t21 -94t5.5 -110.5v-718h-149v687q0 85 -10.5 135t-44 89.5t-97 55.5t-167.5 16q-141 0 -273 -48v-935h-149v1414h-282q-197 0 -197 -196
v-124h246v-118h-246v-976h-149v976h-194z" />
    <glyph glyph-name="f_j" unicode="fj" horiz-adv-x="1236" 
d="M398 1094h682v-1105q0 -217 -86 -312t-273 -95q-24 0 -36 1l12 114q43 3 73 9.5t62.5 23.5t52 43.5t32.5 72.5t13 109v1021h-532v-976h-149v976h-194v118h194v118q0 157 79.5 238.5t236.5 81.5q47 0 93 -8l-12 -110h-51q-197 0 -197 -196v-124zM916 1422q0 61 19 85.5
t70 24.5t70.5 -24.5t19.5 -85.5t-19 -84.5t-71 -23.5t-70.5 23.5t-18.5 84.5z" />
    <glyph glyph-name="f_k" unicode="fk" horiz-adv-x="1751" 
d="M55 1094h194v118q0 157 79.5 238.5t236.5 81.5q203 0 461 -15v-927l476 504h180l-513 -534l545 -560h-195l-493 516v-516h-149v1414h-282q-197 0 -197 -196v-124h246v-118h-246v-976h-149v976h-194v118z" />
    <glyph glyph-name=".notdef" horiz-adv-x="1332" 
d="M155 0v1475h1022v-1475h-1022zM605 737l-347 537v-1074zM1014 105l-347 538l-348 -538h695zM1014 1369h-695l348 -537zM1075 1274l-347 -537l347 -537v1074z" />
    <glyph glyph-name=".null" horiz-adv-x="0" 
 />
    <glyph glyph-name="nonmarkingreturn" horiz-adv-x="682" 
 />
    <glyph glyph-name="space" unicode=" " horiz-adv-x="583" 
 />
    <glyph glyph-name="exclam" unicode="!" horiz-adv-x="489" 
d="M245 -15q-52 0 -71 23.5t-19 84.5t19.5 85.5t70.5 24.5q52 0 71 -24.5t19 -85.5t-18.5 -84.5t-71.5 -23.5zM180 417l-26 1015h181l-25 -1015h-130z" />
    <glyph glyph-name="quotedbl" unicode="&#x22;" horiz-adv-x="704" 
d="M151 966l-17 551h152l-16 -551h-119zM436 966l-17 551h151l-16 -551h-118z" />
    <glyph glyph-name="numbersign" unicode="#" horiz-adv-x="1157" 
d="M141 1003h227q5 42 29.5 215.5t29.5 213.5h122l-59 -429h274q6 49 31.5 230.5t27.5 198.5h123l-60 -429h184v-118h-201l-45 -336h189v-118h-206l-60 -431h-122l60 431h-275l-59 -431h-122l59 431h-201v118h218l46 336h-210v118zM702 549l46 336h-275l-45 -336h274z" />
    <glyph glyph-name="dollar" unicode="$" horiz-adv-x="1020" 
d="M104 143q168 -26 335 -26q80 0 137.5 10.5t105.5 37.5t72.5 78t24.5 126q0 51 -15 90t-37.5 65.5t-66 49.5t-83.5 37.5t-106 34.5q-69 21 -115 37.5t-95 40.5t-79 51t-55.5 64t-36.5 85.5t-11 109.5q0 180 94 265.5t283 100.5v193h118v-190q166 -3 330 -31l-14 -123
q-155 24 -276 24q-67 0 -117.5 -4t-103 -17.5t-86 -36t-54.5 -62t-21 -93.5q0 -46 6 -79t24.5 -60t38.5 -44.5t62 -36t81 -31t108 -32.5q92 -26 156.5 -56t119 -76t82 -113t27.5 -156q0 -182 -94 -274t-282 -111v-196h-118v190q-191 0 -354 33z" />
    <glyph glyph-name="percent" unicode="%" horiz-adv-x="1683" 
d="M401 596q-92 0 -151.5 25t-92 81t-44.5 129.5t-12 186.5t12 186.5t44.5 129t92 80.5t151.5 25t151.5 -25t92.5 -80.5t45 -129t12 -186.5t-12 -186.5t-45 -129.5t-92.5 -81t-151.5 -25zM401 688q45 0 77.5 10t53 33t33 47.5t18 67.5t7 78.5t1.5 93.5t-1.5 93.5t-7 78.5
t-18 67.5t-33 47.5t-53 33t-77.5 10q-30 0 -54.5 -5t-43 -13.5t-32.5 -24t-23.5 -30t-16 -39.5t-10 -45t-5.5 -52.5t-2.5 -57t-0.5 -63.5t0.5 -63.5t2.5 -57t5.5 -52.5t10 -45t16 -39.5t23.5 -30t32.5 -24t43 -13.5t54.5 -5zM1274 -7q-92 0 -151.5 25t-91.5 81t-44 129
t-12 186t12 186.5t44 129.5t91.5 81t151.5 25q93 0 152.5 -25t92 -81t44.5 -129.5t12 -186.5t-12 -186.5t-44.5 -129t-92 -80.5t-152.5 -25zM1274 84q45 0 77.5 10t53 33t33 47.5t18 67.5t7 78.5t1.5 93.5t-1.5 93.5t-7 78.5t-18 68t-33 48t-53 33t-77.5 10
q-38 0 -67.5 -8.5t-49 -22t-33.5 -39t-21 -48.5t-11 -62.5t-5 -70t-1 -80.5q0 -59 1.5 -93.5t7 -78t17.5 -68t32.5 -47.5t53 -33t76.5 -10zM355 -29l841 1490h123l-841 -1490h-123z" />
    <glyph glyph-name="ampersand" unicode="&#x26;" horiz-adv-x="1359" 
d="M1281 0h-187l-112 131q-152 -146 -425 -146q-233 0 -346.5 99t-113.5 301q0 75 24.5 136.5t71 109.5t100.5 83.5t127 70.5q-38 45 -59.5 73t-49.5 74t-41.5 93.5t-13.5 98.5q0 168 99 245t263 77q71 0 131 -16.5t109.5 -51t78 -94.5t28.5 -140q0 -60 -19 -112.5
t-48.5 -91t-76 -74t-91 -60t-104.5 -51.5l352 -407q83 131 98 327l142 -6q-27 -266 -143 -434zM821 1123q0 110 -55 156.5t-155 46.5q-94 0 -152 -50t-58 -158q0 -40 12 -78t39 -77t43 -58.5t51 -59.5q51 26 82 42.5t72.5 44.5t64.5 54t39.5 61.5t16.5 75.5zM892 236
l-392 455q-61 -33 -99 -59.5t-76 -65.5t-56 -88.5t-18 -111.5q0 -58 20 -104t52 -74.5t76 -47t89 -26t94 -7.5q183 0 310 129z" />
    <glyph glyph-name="quotesingle" unicode="'" horiz-adv-x="419" 
d="M151 966l-17 551h151l-16 -551h-118z" />
    <glyph glyph-name="parenleft" unicode="(" horiz-adv-x="610" 
d="M437 1493l89 -74q-255 -253 -255 -849q0 -597 255 -850l-89 -73q-319 299 -319 923t319 923z" />
    <glyph glyph-name="parenright" unicode=")" horiz-adv-x="610" 
d="M173 -353l-88 73q255 253 255 850q0 596 -255 849l88 74q320 -301 320 -923t-320 -923z" />
    <glyph glyph-name="asterisk" unicode="*" horiz-adv-x="957" 
d="M629 713l-150 256l-148 -257l-99 56l152 262h-304v109h303l-151 261l99 56l148 -258l150 258l97 -56l-151 -261h302v-109h-303l152 -263z" />
    <glyph glyph-name="plus" unicode="+" horiz-adv-x="1193" 
d="M525 672v427h142v-427h428v-139h-428v-429h-142v429h-425v139h425z" />
    <glyph glyph-name="comma" unicode="," horiz-adv-x="462" 
d="M57 -269l137 514h175l-183 -514h-129z" />
    <glyph glyph-name="hyphen" unicode="-" horiz-adv-x="818" 
d="M146 479v130h526v-130h-526z" />
    <glyph glyph-name="period" unicode="." horiz-adv-x="450" 
d="M225 -15q-52 0 -71 23.5t-19 84.5t19.5 85.5t70.5 24.5t70.5 -24.5t19.5 -85.5t-19 -84.5t-71 -23.5z" />
    <glyph glyph-name="slash" unicode="/" horiz-adv-x="854" 
d="M59 -165l581 1647h141l-581 -1647h-141z" />
    <glyph glyph-name="zero" unicode="0" horiz-adv-x="1277" 
d="M638 -15q-123 0 -210 29t-143 82.5t-87.5 143.5t-43.5 196.5t-12 257.5t12 257.5t43.5 196.5t87.5 143.5t143 82.5t210 29q88 0 157.5 -14.5t122 -42t90 -73t62.5 -100.5t39.5 -131t20.5 -158.5t6 -189.5t-6 -189.5t-20.5 -158.5t-39.5 -131t-62.5 -100.5t-90 -73
t-122 -42t-157.5 -14.5zM638 114q54 0 98.5 9t78 24t59 41.5t43.5 53.5t30 69.5t19 79t10.5 92.5t4.5 100t1 111t-1 111.5t-4.5 100.5t-10.5 92.5t-19 79t-30 69.5t-43.5 53.5t-59 41.5t-78 24t-98.5 9q-69 0 -122.5 -15t-89.5 -38.5t-60.5 -68t-38.5 -85t-21 -109.5
t-8.5 -123t-1.5 -142q0 -60 0.5 -100t3 -92t8 -85.5t14 -74.5t22 -67.5t32 -55t43.5 -45.5t57 -32t72.5 -21.5t89.5 -6.5z" />
    <glyph glyph-name="one" unicode="1" horiz-adv-x="715" 
d="M389 0v1225q-169 -49 -345 -75l-7 127q201 32 381 112h123v-1389h-152z" />
    <glyph glyph-name="two" unicode="2" horiz-adv-x="1102" 
d="M123 1242l-15 121q220 40 416 40q109 0 192.5 -16.5t148 -53.5t98.5 -101.5t34 -154.5q0 -185 -101.5 -304.5t-300.5 -201.5q-90 -37 -149 -78.5t-94.5 -96.5t-53 -113.5t-30.5 -147.5h729v-135h-910q15 84 26.5 140.5t27 117.5t31.5 101.5t39 84t50.5 73.5t64 60.5
t81.5 55.5t102 49q78 33 134.5 66.5t104 76.5t71.5 97t24 118q0 131 -87 181t-302 50q-148 0 -331 -29z" />
    <glyph glyph-name="three" unicode="3" horiz-adv-x="1105" 
d="M470 1403q83 0 149.5 -7.5t132 -29t109.5 -57t71 -95.5t27 -141q0 -255 -219 -342q102 -30 172.5 -112.5t70.5 -212.5q0 -119 -35.5 -202t-106 -130.5t-163 -68t-218.5 -20.5q-190 0 -387 38l17 125q215 -29 327 -29q107 0 179.5 12.5t125.5 43t77 85t24 136.5
q0 112 -63.5 177.5t-172.5 77.5q-97 10 -231 10q-9 0 -28 -0.5t-29 -0.5v119q148 3 288 23q104 15 159.5 79t55.5 159q0 53 -11 92t-35.5 64t-53 41t-73.5 23.5t-85.5 10t-101.5 2.5q-136 0 -339 -29l-16 122q202 37 383 37z" />
    <glyph glyph-name="four" unicode="4" horiz-adv-x="1213" 
d="M782 0v336h-593q-70 0 -98 26t-28 72q0 58 76 155l558 720q74 94 151 94q39 0 62.5 -26t23.5 -79v-838h190v-124h-190v-336h-152zM783 1203l-571 -743h571v743z" />
    <glyph glyph-name="five" unicode="5" horiz-adv-x="1118" 
d="M313 1254l-30 -422q77 5 147 5q79 0 139.5 -4t123.5 -14.5t109 -29.5t87.5 -50t67 -74t40.5 -103.5t15 -137.5q0 -232 -126.5 -335.5t-379.5 -103.5q-210 0 -405 39l17 125q176 -29 332 -29q113 0 185 13.5t123.5 49.5t73 98.5t21.5 160.5q0 58 -15.5 102t-47.5 73
t-70.5 48t-95.5 28.5t-111.5 13t-128.5 3.5q-149 0 -253 -6l47 685h795v-135h-660z" />
    <glyph glyph-name="six" unicode="6" horiz-adv-x="1236" 
d="M651 853q119 0 203 -18.5t150 -65t98 -131t32 -210.5q0 -105 -24.5 -182.5t-67 -127t-108.5 -79.5t-142 -42t-174 -12q-97 0 -173 17.5t-128.5 53t-89 83t-57 114t-29 138.5t-8.5 164q0 168 13 287.5t47 218.5t89 161t143 104t204 59.5t277 17.5q73 0 115 -1l13 -126
q-26 -1 -80 -2q-220 -6 -320 -28q-212 -46 -287 -204q-42 -89 -47 -217q220 28 351 28zM610 729q-107 0 -319 -30q-5 -66 -5 -174q0 -58 4.5 -103.5t16 -95t34.5 -85.5t58 -66t89 -45.5t124 -15.5q206 0 287.5 71.5t81.5 245.5q0 92 -22.5 151.5t-73 91.5t-114 43.5
t-161.5 11.5z" />
    <glyph glyph-name="seven" unicode="7" horiz-adv-x="1035" 
d="M967 1245l-571 -1245h-173l598 1255h-770v134h819q56 0 85 -21t29 -59q0 -27 -17 -64z" />
    <glyph glyph-name="eight" unicode="8" horiz-adv-x="1243" 
d="M621 1403q144 0 248.5 -33.5t167.5 -110.5t63 -193q0 -128 -47.5 -207.5t-173.5 -136.5q116 -48 179 -130t63 -222q0 -92 -26.5 -161t-70.5 -111t-110 -68t-136 -35.5t-157 -9.5q-113 0 -200 19t-156.5 62.5t-106 120.5t-36.5 185q0 138 62 218.5t179 130.5
q-118 54 -168 135.5t-50 209.5q0 172 126 254.5t350 82.5zM621 112q79 0 137 11t108.5 38.5t77 81.5t26.5 134q0 141 -90.5 202t-290.5 76q-153 -19 -234.5 -81.5t-81.5 -196.5q0 -78 26.5 -132t76.5 -82t108.5 -39.5t136.5 -11.5zM654 781q69 11 119 28t93 45.5t65.5 74.5
t22.5 109q0 72 -26 121.5t-75 74.5t-104 35t-128 10q-57 0 -102 -5.5t-89 -21.5t-73 -42t-47 -69.5t-18 -102.5q0 -123 89.5 -184.5t272.5 -72.5z" />
    <glyph glyph-name="nine" unicode="9" horiz-adv-x="1233" 
d="M579 536q-119 0 -203 18.5t-150 65t-98 131t-32 210.5q0 104 24.5 182t67 127t109 79.5t142 42t174.5 11.5q116 0 201.5 -26.5t139.5 -72.5t86 -119.5t44.5 -156.5t12.5 -194q0 -168 -13 -288t-47 -219t-89 -160.5t-143 -104t-204 -60t-277 -17.5q-31 0 -115 2l-13 126
q26 1 80 2q221 6 320 28q212 46 287 204q42 89 47 217q-222 -28 -351 -28zM620 660q108 0 320 30q4 53 4 173q0 49 -3 88.5t-11.5 83.5t-23 77.5t-39 65t-58.5 52t-82.5 32.5t-108.5 12q-206 0 -287.5 -71t-81.5 -245q0 -92 22.5 -151.5t73 -91.5t114 -43.5t161.5 -11.5z
" />
    <glyph glyph-name="colon" unicode=":" horiz-adv-x="492" 
d="M246 -15q-52 0 -70.5 23.5t-18.5 84.5t19 85.5t70 24.5t70.5 -24.5t19.5 -85.5t-19 -84.5t-71 -23.5zM246 759q-52 0 -70.5 23.5t-18.5 84.5t19 85t70 24t70.5 -24t19.5 -85t-19 -84.5t-71 -23.5z" />
    <glyph glyph-name="semicolon" unicode=";" horiz-adv-x="520" 
d="M307 759q-52 0 -70.5 23.5t-18.5 84.5t19 85t70 24t71 -24t20 -85t-19 -84.5t-72 -23.5zM80 -269l137 514h176l-184 -514h-129z" />
    <glyph glyph-name="less" unicode="&#x3c;" horiz-adv-x="1222" 
d="M93 534v135l980 457v-150l-808 -374l808 -375v-151z" />
    <glyph glyph-name="equal" unicode="=" horiz-adv-x="1309" 
d="M157 323v137h995v-137h-995zM157 743v138h995v-138h-995z" />
    <glyph glyph-name="greater" unicode="&#x3e;" horiz-adv-x="1222" 
d="M149 227l809 375l-809 374v150l980 -457v-135l-980 -458v151z" />
    <glyph glyph-name="question" unicode="?" horiz-adv-x="1029" 
d="M466 417h-132l-2 124q0 6 -0.5 25.5t-0.5 26.5q0 50 15.5 84.5t42 53t60.5 30t71.5 19t75 15.5t71.5 24t60.5 40.5t42 69t15.5 105.5q0 114 -33.5 172t-115 82t-240.5 24q-140 0 -309 -30l-27 126q184 38 376 38q83 0 144.5 -5.5t123 -20.5t103 -43.5t74.5 -72.5t49 -110
t16 -153q0 -103 -26 -173.5t-68 -105t-92.5 -54t-101.5 -29.5t-93 -22.5t-69 -42t-28 -79.5zM310 93q0 61 19.5 85.5t70.5 24.5t70.5 -24.5t19.5 -85.5t-19 -84.5t-71 -23.5t-71 23.5t-19 84.5z" />
    <glyph glyph-name="at" unicode="@" horiz-adv-x="1891" 
d="M1753 796q24 -111 24 -249q0 -380 -209 -555t-620 -175q-412 0 -620 174.5t-208 555.5q0 197 55.5 338.5t166.5 227.5t265.5 125.5t362.5 39.5q81 0 146.5 -16.5t118.5 -53t82.5 -102t29.5 -155.5v-452q0 -95 -6 -187q-173 -88 -405 -88q-208 0 -301.5 79t-93.5 244
q0 134 69 217t204 110q106 22 386 31q0 141 -51.5 194t-188.5 53q-168 0 -290.5 -30t-214.5 -98.5t-138 -187t-46 -289.5q0 -168 45 -286t135 -187.5t211 -100t286 -30.5t286.5 30.5t211.5 100t135.5 187.5t45.5 286q0 117 -17 208zM1200 567v226q-250 -6 -334 -27
q-91 -22 -134 -72t-43 -143q0 -116 63.5 -161t198.5 -45q123 0 245 50q4 69 4 172z" />
    <glyph glyph-name="A" unicode="A" horiz-adv-x="1348" 
d="M218 0h-162l496 1339q39 107 125 107q89 0 127 -107l489 -1339h-169l-147 412h-612zM410 538h522l-260 727z" />
    <glyph glyph-name="B" unicode="B" horiz-adv-x="1314" 
d="M610 1446q64 0 117 -3.5t111.5 -13t104.5 -26t89 -44t71.5 -64t45.5 -89.5t17 -118q0 -279 -212 -356q54 -18 94.5 -45t73.5 -70.5t50.5 -109t17.5 -152.5q0 -76 -19.5 -135.5t-58 -99t-86.5 -67t-113.5 -42t-130.5 -20.5t-145 -6q-249 0 -464 35v1394q203 32 437 32z
M619 672h-290v-539q155 -18 297 -18q81 0 137 5.5t110.5 22t87 46t52 80t19.5 121.5t-21 122t-55.5 81.5t-89.5 48.5t-112 24t-135 6zM330 793h289q76 0 132 6t107 23t83 46.5t50.5 77.5t18.5 115q0 66 -20.5 113.5t-53 75t-87 43t-108.5 20t-131 4.5q-137 0 -280 -18v-506z
" />
    <glyph glyph-name="C" unicode="C" horiz-adv-x="1084" 
d="M1020 142l14 -124q-156 -33 -326 -33q-116 0 -203.5 18.5t-151.5 59t-106 97t-67.5 141.5t-36 184t-10.5 231t10.5 231t36 184t68 141.5t106.5 97t151 58.5t203 18q171 0 326 -31l-15 -126q-150 23 -250 23q-73 0 -132 -8t-105 -22t-81.5 -39t-60.5 -52t-42.5 -68.5
t-28 -80.5t-16 -96t-7.5 -108t-2 -122q0 -92 3.5 -155.5t15 -131t32 -111t55.5 -84.5t85.5 -64t121 -36.5t162.5 -13.5q101 0 251 22z" />
    <glyph glyph-name="D" unicode="D" horiz-adv-x="1372" 
d="M566 1314q-95 0 -235 -17v-1161q141 -19 235 -19q74 0 136 7t109.5 23.5t85 33.5t64.5 49.5t46 57.5t31 71t19 76.5t10 88.5t3.5 92t0.5 100t-0.5 100t-3.5 91.5t-10 88t-19 77t-31 71t-46 57t-64.5 49.5t-85 34t-109.5 23.5t-136 6.5zM173 19v1395q202 32 435 32
q113 0 201 -15.5t153.5 -43.5t112 -75.5t77 -103.5t48 -135t24 -163t6.5 -194q0 -130 -9.5 -224t-34.5 -181t-69 -144t-113 -100t-167 -62.5t-229 -19.5q-231 0 -435 34z" />
    <glyph glyph-name="E" unicode="E" horiz-adv-x="1103" 
d="M990 1427v-124h-359q-103 0 -160 -10t-92 -42.5t-45 -82t-10 -139.5v-236h636v-128h-636v-264q0 -90 10 -139t45 -81.5t92 -42.5t160 -10h359v-125q-160 -7 -353 -7q-54 0 -90 1t-84.5 5.5t-81 13.5t-69.5 24t-60.5 38.5t-44.5 55.5t-30.5 77t-9.5 101v806q0 50 8.5 91
t22.5 71.5t37.5 54.5t47 40t59 27.5t65.5 18t73.5 9.5t76 4t80.5 1q166 0 353 -8z" />
    <glyph glyph-name="F" unicode="F" horiz-adv-x="1072" 
d="M327 0h-157v1118q0 50 8.5 91t22.5 71.5t37.5 54.5t47 40t59 27.5t65.5 18t73.5 9.5t76 4t80.5 1q218 0 352 -8v-124h-358q-103 0 -160 -10t-92 -42.5t-45 -82t-10 -139.5v-236h636v-128h-636v-665z" />
    <glyph glyph-name="G" unicode="G" horiz-adv-x="1305" 
d="M758 624v127h416v-529q0 -47 -12.5 -83t-32 -61t-54.5 -42.5t-69 -27t-87 -15t-97.5 -7t-110.5 -1.5q-172 0 -284 41.5t-176.5 135t-89.5 224.5t-25 330q0 161 15.5 274.5t54 204t104.5 143.5t164 80.5t237 27.5q243 0 420 -32l-14 -127q-182 24 -345 24q-73 0 -132 -8
t-105 -22t-81.5 -38.5t-60.5 -51.5t-42.5 -68t-28 -80.5t-16 -96t-7.5 -108t-2 -122.5q0 -70 2 -121.5t7.5 -108t16.5 -96t28.5 -80.5t42.5 -68t60.5 -52t81.5 -39.5t105 -22.5t131 -8q68 0 115 9t72.5 22.5t39 38.5t16.5 47t3 59v328h-260z" />
    <glyph glyph-name="H" unicode="H" horiz-adv-x="1410" 
d="M1078 799v633h158v-1432h-158v667h-744v-667h-158v1432h158v-633h744z" />
    <glyph glyph-name="I" unicode="I" horiz-adv-x="505" 
d="M174 0v1432h158v-1432h-158z" />
    <glyph glyph-name="J" unicode="J" horiz-adv-x="798" 
d="M473 415v1017h158v-980q0 -255 -86.5 -361t-312.5 -106q-109 0 -201 33l14 122q79 -23 173 -23q57 0 100 13t79.5 44.5t56 92t19.5 148.5z" />
    <glyph glyph-name="K" unicode="K" horiz-adv-x="1214" 
d="M331 1432v-664l622 664h193l-656 -690l673 -742h-203l-629 703v-703h-158v1432h158z" />
    <glyph glyph-name="L" unicode="L" horiz-adv-x="991" 
d="M967 128v-126q-173 -6 -327 -6q-48 0 -80.5 1t-76.5 4t-73.5 9t-65 17.5t-59 27.5t-47 40t-37.5 54.5t-22.5 71.5t-8.5 91v1120h158v-1031q0 -90 10 -138.5t45 -81.5t92 -43t160 -10h332z" />
    <glyph glyph-name="M" unicode="M" horiz-adv-x="1741" 
d="M444 1347l425 -946l430 944q45 101 119 101q49 0 74 -26.5t28 -83.5l78 -1336h-156l-68 1199l-413 -927q-18 -40 -39 -59t-53 -19q-58 0 -93 78l-412 926l-70 -1198h-150l82 1336q4 58 28 84t72 26q74 0 118 -99z" />
    <glyph glyph-name="N" unicode="N" horiz-adv-x="1437" 
d="M412 1344l706 -1136v1224h145v-1334q0 -57 -26 -85t-71 -28q-42 0 -74.5 24.5t-65.5 78.5l-705 1137v-1225h-145v1334q0 57 26 84.5t71 27.5q76 0 139 -102z" />
    <glyph glyph-name="O" unicode="O" horiz-adv-x="1388" 
d="M694 -15q-162 0 -268.5 40t-170.5 132t-89.5 225t-25.5 334t25.5 334t89.5 224.5t170.5 131.5t268.5 40t268.5 -40t170.5 -131.5t89.5 -224.5t25.5 -334t-25.5 -334t-89.5 -225t-170.5 -132t-268.5 -40zM694 119q80 0 141 16t103 40t70.5 70t44 88t23.5 112.5t10 126
t2 144.5q0 62 -1 102.5t-3.5 93.5t-9 88t-16 77t-25 69.5t-37 57t-50.5 47.5t-65.5 33.5t-83.5 22t-103 6.5q-80 0 -141.5 -16t-103 -40t-70 -70t-44 -87.5t-23.5 -112.5t-10 -126t-2 -145t2 -144.5t10 -125.5t23.5 -113t44 -88t70 -70t103 -40t141.5 -16z" />
    <glyph glyph-name="P" unicode="P" horiz-adv-x="1247" 
d="M331 585v-585h-158v1413q200 33 437 33q101 0 176.5 -9t150.5 -36.5t123 -74t77.5 -125t29.5 -186.5q0 -106 -26.5 -184t-71.5 -127t-115.5 -78t-148 -40t-178.5 -11q-119 0 -296 10zM331 1298v-581q124 -13 279 -13q101 0 171.5 14t124 48t79 95.5t25.5 153.5
q0 163 -89 232.5t-303 69.5q-149 0 -287 -19z" />
    <glyph glyph-name="Q" unicode="Q" horiz-adv-x="1388" 
d="M694 -15q-130 0 -224 27t-158 80.5t-102 143t-54 204.5t-16 276q0 202 25.5 334.5t89 224t170 131.5t269.5 40q162 0 268.5 -40t170 -131.5t89.5 -224.5t26 -334q0 -346 -86 -513t-305 -205q45 -72 111 -118.5t180 -100.5l-111 -79q-9 5 -35.5 17.5t-38.5 18.5t-37.5 19
t-39.5 22t-37 24t-37.5 28t-33.5 31.5t-32.5 36.5t-27 41t-24.5 47zM1088 716q0 89 -2 144.5t-10 126t-24 113t-44.5 88t-70 69.5t-102.5 40t-141 16t-141.5 -16t-103 -40t-70 -70t-44 -87.5t-23.5 -112.5t-10 -126t-2 -145t2 -144.5t10 -125.5t23.5 -113t44 -88t70 -70
t103 -40t141.5 -16t141 16t102.5 40t70 70t44.5 88t24 112.5t10 126t2 144.5z" />
    <glyph glyph-name="R" unicode="R" horiz-adv-x="1285" 
d="M330 0h-157v1413q198 33 437 33q70 0 127 -4t116 -16t104 -31.5t85.5 -52t66.5 -76t41.5 -105.5t15.5 -139q0 -199 -90.5 -297t-261.5 -125l351 -600h-184l-333 587h-22q-118 0 -296 10v-597zM330 1299v-569q125 -13 280 -13q100 0 170 14t123.5 47.5t79.5 94t26 149.5
q0 160 -89 228t-303 68q-147 0 -287 -19z" />
    <glyph glyph-name="S" unicode="S" horiz-adv-x="1072" 
d="M645 1312q-70 0 -122 -4t-105.5 -18t-88 -37t-56 -63.5t-21.5 -96.5q0 -48 6 -82t25 -62t39.5 -46t64 -37t83 -31.5t111.5 -33.5q75 -21 131 -44t108.5 -57t85.5 -76.5t53 -102t20 -133.5q0 -215 -127 -309t-381 -94q-194 0 -367 34l16 129q179 -27 345 -27
q65 0 115.5 6.5t96 24t75 46t46.5 75t17 108.5q0 52 -15.5 92.5t-39 67.5t-68 51t-85.5 39t-109 36q-72 22 -119 38.5t-98 41t-81.5 52.5t-56.5 66t-37.5 87.5t-11.5 112.5q0 208 121.5 294.5t367.5 86.5q180 0 361 -32l-14 -127q-167 25 -285 25z" />
    <glyph glyph-name="T" unicode="T" horiz-adv-x="1032" 
d="M987 1432v-131h-392v-1301h-158v1301h-392v131h942z" />
    <glyph glyph-name="U" unicode="U" horiz-adv-x="1368" 
d="M1198 1432v-969q0 -93 -16 -166.5t-48.5 -126t-76 -88.5t-103.5 -57.5t-126 -30.5t-147 -9q-98 0 -174 13t-142 46t-109 86.5t-67 137t-24 195.5v969h156v-985q0 -169 84.5 -248t275.5 -79q193 0 276.5 79t83.5 248v985h157z" />
    <glyph glyph-name="V" unicode="V" horiz-adv-x="1281" 
d="M1226 1432l-467 -1339q-19 -57 -47.5 -82.5t-71.5 -25.5q-84 0 -121 108l-464 1339h168l418 -1243l424 1243h161z" />
    <glyph glyph-name="W" unicode="W" horiz-adv-x="1862" 
d="M246 1432l277 -1235l308 966q18 56 44 81t66 25t66.5 -25.5t43.5 -80.5l298 -966l274 1235h153l-308 -1336q-26 -111 -114 -111q-43 0 -71 27t-45 84l-300 967l-309 -967q-18 -57 -46 -84t-70 -27q-88 0 -114 111l-313 1336h160z" />
    <glyph glyph-name="X" unicode="X" horiz-adv-x="1246" 
d="M623 866l350 566h172l-437 -696l464 -736h-183l-373 598l-368 -598h-174l458 730l-441 702h181z" />
    <glyph glyph-name="Y" unicode="Y" horiz-adv-x="1158" 
d="M657 557v-557h-159v557l-457 875h172l366 -715l374 715h165z" />
    <glyph glyph-name="Z" unicode="Z" horiz-adv-x="1103" 
d="M991 1290l-714 -1158h736v-132h-842q-97 0 -97 63q0 31 29 79l715 1158h-696v132h800q97 0 97 -63q0 -34 -28 -79z" />
    <glyph glyph-name="bracketleft" unicode="[" horiz-adv-x="607" 
d="M318 1360v-1573h216v-121h-357v1814h358v-120h-217z" />
    <glyph glyph-name="backslash" unicode="\" horiz-adv-x="854" 
d="M655 -165l-581 1647h141l581 -1647h-141z" />
    <glyph glyph-name="bracketright" unicode="]" horiz-adv-x="608" 
d="M73 1360v120h358v-1814h-357v121h215v1573h-216z" />
    <glyph glyph-name="asciicircum" unicode="^" horiz-adv-x="1016" 
d="M432 1432h153l338 -755h-144l-270 597l-271 -597h-144z" />
    <glyph glyph-name="underscore" unicode="_" horiz-adv-x="1026" 
d="M-6 -289v103h1038v-103h-1038z" />
    <glyph glyph-name="grave" unicode="`" horiz-adv-x="467" 
d="M276 1171l-239 293h179l181 -293h-121z" />
    <glyph glyph-name="a" unicode="a" horiz-adv-x="1142" 
d="M173 953l-14 118q238 38 407 38q75 0 133.5 -8t113.5 -30.5t91 -58.5t57.5 -95.5t21.5 -139.5v-517q0 -97 -6 -187q-177 -88 -457 -88q-223 0 -325 76t-102 251q0 298 276 339q133 20 467 32v49q0 139 -62.5 195.5t-235.5 56.5q-152 0 -365 -31zM241 316
q0 -122 67 -165.5t228 -43.5q172 0 296 49q4 69 4 172v243q-293 -5 -415 -29q-97 -19 -138.5 -67.5t-41.5 -158.5z" />
    <glyph glyph-name="b" unicode="b" horiz-adv-x="1182" 
d="M160 260v1257h149v-449q157 41 302 41q167 0 265.5 -53.5t146 -176t47.5 -332.5q0 -213 -52 -336t-157 -174.5t-284 -51.5q-243 0 -411 88q-6 90 -6 187zM309 943v-613q0 -103 4 -172q107 -49 264 -49q101 0 168 26.5t105.5 83.5t54 135t15.5 193q0 98 -8 164t-30 122
t-62 87.5t-103 48.5t-154 17q-127 0 -254 -43z" />
    <glyph glyph-name="c" unicode="c" horiz-adv-x="922" 
d="M836 138l14 -121q-155 -32 -287 -32q-108 0 -187 30.5t-126 80t-75.5 126.5t-38 155.5t-9.5 181.5q0 114 11.5 195.5t42.5 152t84 113t137 66t201 23.5q128 0 245 -31l-12 -115q-103 19 -183 19q-86 0 -146.5 -9.5t-102.5 -33.5t-67 -54t-38 -82.5t-17 -106t-4 -137.5
q0 -69 2.5 -114.5t10.5 -97t24 -83.5t43 -63.5t66.5 -48.5t96 -27.5t130.5 -10.5q69 0 185 24z" />
    <glyph glyph-name="d" unicode="d" horiz-adv-x="1183" 
d="M869 1068v449h149v-1257q0 -97 -6 -187q-168 -88 -411 -88q-178 0 -283.5 51.5t-157.5 174.5t-52 336q0 310 105.5 436t353.5 126q143 0 302 -41zM869 943q-127 43 -255 43q-91 0 -154 -17t-102.5 -48.5t-61.5 -87.5t-30 -121.5t-8 -164.5q0 -115 15.5 -193t54 -135
t105.5 -83.5t168 -26.5q157 0 264 49q4 104 4 172v613z" />
    <glyph glyph-name="e" unicode="e" horiz-adv-x="1188" 
d="M578 -15q-105 0 -184.5 28t-130 76t-82 120.5t-44 154t-12.5 183.5q0 303 106.5 432.5t371.5 129.5q136 0 229.5 -34t145.5 -101.5t74 -153.5t22 -204q0 -54 -3 -104q-92 -16 -256.5 -31t-281.5 -20l-259 -11q7 -89 25.5 -148t58.5 -104.5t108 -66t170 -20.5
q155 0 386 31l14 -120q-243 -37 -458 -37zM270 563l290 14q189 8 361 30q3 33 3 77q0 147 -74.5 225t-246.5 78q-102 0 -168 -25.5t-102 -81.5t-49.5 -130t-13.5 -187z" />
    <glyph glyph-name="f" unicode="f" horiz-adv-x="693" 
d="M398 1218v-124h246v-118h-246v-976h-149v976h-194v118h194v118q0 157 79.5 238.5t236.5 81.5q47 0 93 -8l-12 -110h-51q-197 0 -197 -196z" />
    <glyph glyph-name="g" unicode="g" horiz-adv-x="1189" 
d="M193 -379l13 119q214 -33 373 -33q173 0 235.5 57t62.5 196v91q-159 -41 -302 -41q-166 0 -264.5 51t-147 171.5t-48.5 326.5q0 207 52.5 327.5t158 171.5t282.5 51q243 0 411 -88q7 -105 7 -187v-919q0 -99 -31.5 -166.5t-91.5 -103t-130 -49.5t-165 -14q-171 0 -415 39
zM608 986q-100 0 -167 -26t-105.5 -81.5t-54.5 -132t-16 -187.5q0 -79 5.5 -136t20 -107.5t40 -82.5t65 -55.5t95.5 -34t131 -10.5q128 0 255 43v588q0 68 -4 172q-109 50 -265 50z" />
    <glyph glyph-name="h" unicode="h" horiz-adv-x="1190" 
d="M1052 0h-149v687q0 85 -10.5 135t-44 89.5t-96.5 55.5t-167 16q-141 0 -273 -48v-935h-149v1517h149v-453q157 44 318 45q92 0 161 -12t114.5 -37.5t75.5 -57.5t45 -79.5t20.5 -94t5.5 -110.5v-718z" />
    <glyph glyph-name="i" unicode="i" horiz-adv-x="457" 
d="M229 1314q-52 0 -71 23.5t-19 84.5t19.5 85.5t70.5 24.5t70.5 -24.5t19.5 -85.5t-19 -84.5t-71 -23.5zM154 0v1094h150v-1094h-150z" />
    <glyph glyph-name="j" unicode="j" horiz-adv-x="463" 
d="M157 -45v1139h149v-1105q0 -217 -86 -312t-273 -95q-23 0 -35 1l12 114q43 3 73 9.5t62.5 23.5t52 43.5t32.5 72.5t13 109zM232 1314q-52 0 -71 23.5t-19 84.5t19.5 85.5t70.5 24.5t70.5 -24.5t19.5 -85.5t-19 -84.5t-71 -23.5z" />
    <glyph glyph-name="k" unicode="k" horiz-adv-x="1036" 
d="M311 1517v-927l476 504h180l-512 -534l544 -560h-195l-493 516v-516h-148v1517h148z" />
    <glyph glyph-name="l" unicode="l" horiz-adv-x="459" 
d="M141 283v1234h149v-1223q0 -165 88 -277l-127 -66q-110 125 -110 332z" />
    <glyph glyph-name="m" unicode="m" horiz-adv-x="1844" 
d="M309 759v-759h-149v831q0 82 7 187q92 39 215 65t234 26q194 0 284 -88q181 88 401 88q95 0 164.5 -21.5t110 -55.5t64 -88t31 -107.5t7.5 -125.5v-711h-149v685q0 82 -11.5 135t-42 91.5t-84 55t-136.5 16.5q-65 0 -143.5 -18.5t-144.5 -53.5q27 -80 27 -200v-711h-150
v685q0 82 -11.5 135t-41.5 91.5t-83.5 55t-137.5 16.5q-53 0 -130 -15.5t-127 -37.5q-4 -69 -4 -171z" />
    <glyph glyph-name="n" unicode="n" horiz-adv-x="1230" 
d="M308 759v-759h-148v831q0 112 5 187q209 91 494 91q78 0 140 -11t105 -29t73.5 -47.5t48.5 -60.5t28 -74.5t13 -83t3 -92.5v-711h-149v684q0 56 -4 94t-15.5 74.5t-33 59t-56 40t-84 25t-118.5 7.5q-70 0 -158.5 -15.5t-138.5 -38.5q-5 -87 -5 -171z" />
    <glyph glyph-name="o" unicode="o" horiz-adv-x="1220" 
d="M610 -15q-264 0 -372 127t-108 435t108 435t372 127q263 0 372 -128.5t109 -433.5q0 -304 -109 -433t-372 -129zM610 111q96 0 157.5 21t101.5 72.5t56 133.5t16 209q0 249 -71 342.5t-260 93.5q-96 0 -156 -19t-100.5 -69t-57 -133t-16.5 -215t16.5 -215t57 -133
t100.5 -69t156 -19z" />
    <glyph glyph-name="p" unicode="p" horiz-adv-x="1183" 
d="M309 26v-429h-148v1237q0 97 6 187q168 88 411 88q179 0 284 -51.5t157 -174.5t52 -336q0 -310 -105.5 -436t-353.5 -126q-144 0 -303 41zM309 152q127 -43 255 -43q91 0 154 17t103 48t62 87t30 122t8 164q0 115 -15.5 193.5t-54 135.5t-105.5 83.5t-168 26.5
q-155 0 -265 -50q-4 -104 -4 -172v-612z" />
    <glyph glyph-name="q" unicode="q" horiz-adv-x="1183" 
d="M1019 834v-1237h-149v429q-159 -41 -303 -41q-248 0 -353.5 126t-105.5 436q0 213 52.5 336t158 174.5t283.5 51.5q243 0 411 -88q6 -90 6 -187zM870 764q0 68 -4 172q-109 50 -264 50q-101 0 -168 -26.5t-105.5 -83.5t-54 -135.5t-15.5 -193.5q0 -82 5.5 -139.5
t19.5 -110t39 -85.5t64.5 -57.5t95.5 -35t132 -10.5q128 0 255 43v612z" />
    <glyph glyph-name="r" unicode="r" horiz-adv-x="718" 
d="M308 0h-149v834q0 97 6 187q168 88 411 88q62 0 102 -5l-13 -126q-36 4 -89 4q-155 0 -264 -50q-4 -69 -4 -172v-760z" />
    <glyph glyph-name="s" unicode="s" horiz-adv-x="966" 
d="M555 984q-35 0 -56.5 -0.5t-56.5 -3.5t-57 -9t-48.5 -17t-42 -27t-26 -41t-10.5 -56q0 -24 3.5 -44t13 -36t18 -28.5t27 -24t30.5 -18.5t38.5 -16t41.5 -14t48 -15t50 -15q75 -23 121.5 -41t93.5 -45t72 -58t41 -76.5t16 -105.5q0 -88 -31 -149.5t-89.5 -95.5t-131 -48.5
t-166.5 -14.5q-176 0 -348 37l14 117q156 -26 282 -26h45t46.5 1.5t48.5 4.5t45 9t43 14.5t35.5 21.5t30 29.5t17.5 39.5t7 51q0 40 -12 69.5t-29.5 49t-54 36.5t-68.5 28t-90 28q-9 3 -14 4q-140 42 -187 65q-121 60 -148 173q-8 36 -8 79q0 84 27 142t79.5 90.5
t118.5 46.5t153 14q181 0 357 -36l-15 -116q-158 27 -274 27z" />
    <glyph glyph-name="t" unicode="t" horiz-adv-x="720" 
d="M253 1379l149 24v-309h244v-118h-244v-684q0 -112 40.5 -148t145.5 -36q30 0 60 3l12 -114q-74 -12 -119 -12q-151 0 -219.5 68.5t-68.5 218.5v704h-200v118h200v285z" />
    <glyph glyph-name="u" unicode="u" horiz-adv-x="1226" 
d="M155 383v711h149v-684q0 -85 10 -135t42.5 -90.5t94.5 -57t164 -16.5q70 0 157.5 15t136.5 38q4 69 4 171v759h149v-830q0 -97 -6 -187q-211 -92 -491 -92q-108 0 -185 21t-120 54t-67.5 88t-31 107t-6.5 128z" />
    <glyph glyph-name="v" unicode="v" horiz-adv-x="1144" 
d="M1079 1094l-391 -1002q-22 -55 -49.5 -81t-67.5 -26q-79 0 -120 107l-385 1002h159l348 -931l354 931h152z" />
    <glyph glyph-name="w" unicode="w" horiz-adv-x="1743" 
d="M241 1094l241 -930l290 740q21 55 44.5 79.5t60.5 24.5q38 0 63 -25t45 -79l277 -739l247 929h147l-279 -1001q-30 -108 -112 -108q-40 0 -66.5 26.5t-47.5 81.5l-276 722l-287 -722q-22 -56 -47.5 -82t-65.5 -26q-84 0 -114 108l-273 1001h153z" />
    <glyph glyph-name="x" unicode="x" horiz-adv-x="1109" 
d="M559 686l272 408h163l-356 -521l391 -573h-176l-304 453l-302 -453h-167l389 569l-358 525h174z" />
    <glyph glyph-name="y" unicode="y" horiz-adv-x="1056" 
d="M567 272l275 822h151l-509 -1497h-152l166 480l-442 1017h159z" />
    <glyph glyph-name="z" unicode="z" horiz-adv-x="1074" 
d="M951 985l-655 -860h645v-125h-794q-32 0 -49.5 13.5t-17.5 36.5q0 29 24 60l656 863h-632v121h780q32 0 49.5 -13.5t17.5 -36.5q0 -27 -24 -59z" />
    <glyph glyph-name="braceleft" unicode="{" horiz-adv-x="615" 
d="M379 195v-108q0 -127 39 -204t137 -95l-12 -110q-151 24 -227 107.5t-76 270.5q0 234 -33 337.5t-127 124.5v111q94 20 127 124t33 338q0 186 76 270t227 108l12 -110q-97 -18 -136.5 -95.5t-39.5 -203.5v-109q0 -62 -4 -109t-17.5 -105.5t-45.5 -100.5t-81 -63
q38 -18 66.5 -52t43.5 -70.5t24 -85.5t11.5 -86.5t2.5 -83.5z" />
    <glyph glyph-name="bar" unicode="|" horiz-adv-x="487" 
d="M177 -403v1920h135v-1920h-135z" />
    <glyph glyph-name="braceright" unicode="}" horiz-adv-x="615" 
d="M535 629v-111q-94 -21 -127.5 -125t-33.5 -337q0 -187 -75.5 -270.5t-225.5 -107.5l-13 110q67 12 107 55.5t54 102t14 141.5v108q0 308 149 378q-49 21 -81 63t-45.5 100t-18 105.5t-4.5 109.5v109q0 127 -39 204t-136 95l13 110q150 -24 225.5 -108t75.5 -270
q0 -234 33.5 -338t127.5 -124z" />
    <glyph glyph-name="asciitilde" unicode="~" horiz-adv-x="1249" 
d="M989 804h138q-13 -151 -85 -232.5t-175 -81.5q-77 0 -147 29t-113.5 63t-97.5 63t-102 29q-59 0 -93.5 -42.5t-51.5 -132.5h-138q14 151 85 232t174 81q77 0 147 -29t114 -63t98 -63t102 -29q59 0 93.5 42.5t51.5 133.5z" />
    <glyph glyph-name="uni00A0" unicode="&#xa0;" horiz-adv-x="583" 
 />
    <glyph glyph-name="exclamdown" unicode="&#xa1;" horiz-adv-x="470" 
d="M235 878q-52 0 -71 24t-19 85t18.5 85t71.5 24q52 0 70.5 -24t18.5 -85t-19 -85t-70 -24zM144 -351l26 1015h130l26 -1015h-182z" />
    <glyph glyph-name="cent" unicode="&#xa2;" horiz-adv-x="881" 
d="M794 297l14 -116q-142 -29 -238 -31v-189h-112v192q-86 10 -149.5 44t-101.5 83t-61.5 119.5t-31.5 142.5t-8 164q0 99 9 172t32 138t62.5 107.5t101 71.5t147.5 39v193h112v-187q122 0 236 -31l-12 -110q-100 17 -176 17q-83 0 -142 -9t-100 -32.5t-65 -52.5t-37 -80
t-17 -103t-4 -133q0 -51 1.5 -87.5t5.5 -77.5t12 -69.5t21 -58.5t32 -49.5t46 -37.5t62 -28.5t80.5 -16.5t101.5 -6q67 0 179 22z" />
    <glyph glyph-name="sterling" unicode="&#xa3;" horiz-adv-x="1175" 
d="M312 641h-213v120h194q-21 137 -21 272q0 87 25.5 152.5t68 106.5t105.5 66.5t130.5 35t151.5 9.5q113 0 188.5 -33t147.5 -101l-79 -93q-114 94 -250 94q-97 0 -161.5 -16.5t-102.5 -53.5t-53 -88.5t-15 -128.5q0 -81 22 -222h325v-120h-309q10 -82 10 -157
q0 -98 -22 -175t-67 -175h366q157 0 316 22l15 -123q-178 -33 -448 -33h-354q-39 0 -59 17t-20 45q0 18 19 59t42.5 86.5t42.5 117t19 142.5q0 74 -14 174z" />
    <glyph glyph-name="currency" unicode="&#xa4;" horiz-adv-x="1235" 
d="M967 431l144 -140l-95 -94l-142 145q-117 -84 -256 -84q-144 0 -259 84l-142 -145l-92 95l144 140q-84 114 -84 253q0 142 85 256l-145 144l92 92l145 -145q116 84 256 84q142 0 256 -82l142 143l95 -92l-144 -141q87 -115 87 -259q0 -141 -87 -254zM617 391
q120 0 209.5 85.5t89.5 209.5q0 123 -86.5 210t-212.5 87q-121 0 -208.5 -86t-87.5 -211q0 -120 85.5 -207.5t210.5 -87.5z" />
    <glyph glyph-name="yen" unicode="&#xa5;" horiz-adv-x="1085" 
d="M234 1389l309 -683l315 683h155l-339 -728h192v-108h-242l-6 -13v-126h248v-107h-248v-307h-155v307h-243v107h243v126l-6 13h-237v108h187l-334 728h161z" />
    <glyph glyph-name="brokenbar" unicode="&#xa6;" horiz-adv-x="449" 
d="M157 -289v661h135v-661h-135zM157 743v660h135v-660h-135z" />
    <glyph glyph-name="section" unicode="&#xa7;" horiz-adv-x="1110" 
d="M645 893q43 -17 73.5 -30t72 -34t70 -41t59.5 -48t50 -57t31 -67t12 -80q0 -157 -217 -281q137 -109 137 -237q0 -71 -27 -127t-70 -90.5t-103 -57t-120.5 -31.5t-126.5 -9q-190 0 -356 37l16 122q179 -31 304 -31q31 0 52 0.5t58.5 4t63 10t57 20t50.5 32t32 47.5t13 66
q0 27 -9 51t-21 42t-38.5 37.5t-45 31.5t-57 29.5t-59.5 26t-67 26.5q-49 19 -78.5 31.5t-74.5 35.5t-73 42.5t-61 49.5t-51.5 61.5t-31 73.5t-12.5 89q0 172 207 279q-115 92 -115 214q0 142 104 228.5t286 86.5q189 0 356 -36l-15 -118q-156 30 -305 30q-127 0 -200.5 -47
t-73.5 -132q0 -27 9.5 -51.5t23 -43t39.5 -38.5t47 -33t58.5 -30.5t60.5 -27t66 -26.5zM435 423q41 -18 120.5 -45.5t130.5 -51.5q84 43 133 88.5t49 105.5q0 71 -49.5 123t-175.5 107q-29 13 -107.5 42t-126.5 53q-171 -81 -171 -192q0 -72 42 -125.5t155 -104.5z" />
    <glyph glyph-name="dieresis" unicode="&#xa8;" horiz-adv-x="769" 
d="M221 1209q-39 0 -66.5 27.5t-27.5 66.5t27.5 66.5t66.5 27.5t65.5 -27.5t26.5 -66.5t-26.5 -66.5t-65.5 -27.5zM550 1209q-40 0 -67 27.5t-27 66.5t27 66.5t67 27.5q39 0 66 -27.5t27 -66.5t-27 -66.5t-66 -27.5z" />
    <glyph glyph-name="copyright" unicode="&#xa9;" horiz-adv-x="1688" 
d="M1090 551h117q-12 -128 -112.5 -206t-239.5 -78q-123 0 -210 61.5t-127.5 161.5t-40.5 228q0 85 24.5 164t70.5 142.5t119.5 101.5t163.5 38q81 0 154.5 -26.5t129.5 -86.5t68 -144h-117q-12 74 -77 115t-158 41q-112 0 -183.5 -92t-71.5 -253q0 -162 68.5 -253
t186.5 -91q88 0 154.5 48t80.5 129zM844 1446q150 0 285.5 -57t233 -153.5t155 -232t57.5 -285.5t-57.5 -286t-155 -234t-233 -155.5t-285.5 -57.5t-285.5 57.5t-232.5 155.5t-154.5 234t-57.5 286t57 285.5t154.5 232t233 153.5t285.5 57zM844 1343q-128 0 -243 -48.5
t-197.5 -131.5t-131 -199t-48.5 -246q0 -175 82 -319.5t224.5 -227t313.5 -82.5q172 0 314.5 82.5t224.5 227t82 319.5q0 130 -48.5 246t-131 199t-198 131.5t-243.5 48.5z" />
    <glyph glyph-name="ordfeminine" unicode="&#xaa;" horiz-adv-x="861" 
d="M163 1298l-9 86q158 26 276 26q64 0 111.5 -9.5t88.5 -33t62 -69t21 -111.5v-342q0 -25 -5 -125q-122 -61 -309 -61q-151 0 -219.5 51t-68.5 169q0 199 188 228q86 13 303 21v29q0 90 -40 126.5t-150 36.5q-100 0 -249 -22zM222 882q0 -79 42.5 -107t145.5 -28
q109 0 190 32q2 68 2 111v157q-193 -4 -267 -20q-60 -12 -86.5 -43.5t-26.5 -101.5z" />
    <glyph glyph-name="guillemotleft" unicode="&#xab;" horiz-adv-x="987" 
d="M251 530l259 -403h-151l-285 403l285 403h151zM622 530l260 -403h-151l-286 403l286 403h151z" />
    <glyph glyph-name="logicalnot" unicode="&#xac;" horiz-adv-x="1302" 
d="M1132 794v-586h-150v449h-845v137h995z" />
    <glyph glyph-name="uni00AD" unicode="&#xad;" horiz-adv-x="818" 
d="M146 479v130h526v-130h-526z" />
    <glyph glyph-name="registered" unicode="&#xae;" horiz-adv-x="1098" 
d="M461 968v-213h-83v514h181q200 0 200 -149q0 -55 -28 -91t-80 -49l111 -225h-93l-103 213h-105zM105 1003q0 186 129 314.5t315 128.5t315 -128.5t129 -314.5t-129.5 -315t-314.5 -129q-186 0 -315 129t-129 315zM913 1003q0 154 -105.5 260.5t-258.5 106.5t-258 -106
t-105 -261q0 -156 105 -262t258 -106t258.5 106t105.5 262zM549 1198h-88v-160h91q125 0 125 82q0 42 -31.5 60t-96.5 18z" />
    <glyph glyph-name="macron" unicode="&#xaf;" horiz-adv-x="852" 
d="M145 1245v107h562v-107h-562z" />
    <glyph glyph-name="degree" unicode="&#xb0;" horiz-adv-x="777" 
d="M388 872q-119 0 -203 84t-84 203t84 203t203 84t203.5 -84t84.5 -203t-84.5 -203t-203.5 -84zM388 978q76 0 129 52.5t53 128.5q0 75 -53 128t-129 53t-128.5 -53t-52.5 -128q0 -76 52.5 -128.5t128.5 -52.5z" />
    <glyph glyph-name="plusminus" unicode="&#xb1;" horiz-adv-x="1233" 
d="M543 805v371h148v-371h424v-135h-424v-377h-148v377h-424v135h424zM119 26v137h996v-137h-996z" />
    <glyph glyph-name="twosuperior" unicode="&#xb2;" horiz-adv-x="670" 
d="M76 1561l-10 86q141 26 254 26q286 0 286 -199q0 -110 -61 -182t-179 -120q-95 -39 -132.5 -91.5t-51.5 -146.5h424v-95h-553q14 82 25.5 130.5t30 97t43.5 78.5t62.5 57t92.5 50q91 39 139.5 85t48.5 116q0 72 -48.5 99t-168.5 27q-83 0 -202 -18z" />
    <glyph glyph-name="threesuperior" unicode="&#xb3;" horiz-adv-x="670" 
d="M287 1674q64 0 112.5 -8t92.5 -28.5t67.5 -62t23.5 -102.5q0 -142 -115 -198q56 -23 92.5 -71t36.5 -119q0 -139 -80 -196.5t-235 -57.5q-123 0 -238 24l13 89q146 -19 199 -19q120 0 173 32.5t53 120.5q0 61 -34 97.5t-93 43.5q-47 6 -129 6h-49v84q80 1 177 15
q56 9 86.5 43.5t30.5 86.5q0 34 -10 58t-26 37.5t-43.5 21t-54 9.5t-66.5 2q-72 0 -207 -19l-12 87q130 24 235 24z" />
    <glyph glyph-name="acute" unicode="&#xb4;" horiz-adv-x="466" 
d="M70 1171l181 293h179l-239 -293h-121z" />
    <glyph glyph-name="mu" unicode="&#xb5;" horiz-adv-x="1220" 
d="M194 -403v1497h141v-701q0 -119 59 -196t170 -77q138 0 214.5 125.5t76.5 327.5v521h143v-719q0 -47 0.5 -69.5t3 -59t8.5 -55.5t16 -41.5t26.5 -35.5t39.5 -21v-108q-55 0 -96 19.5t-65 55t-37.5 74.5t-20.5 90h-1q-42 -114 -124.5 -176.5t-182.5 -62.5
q-70 0 -125.5 26.5t-105.5 84.5v-499h-140z" />
    <glyph glyph-name="paragraph" unicode="&#xb6;" horiz-adv-x="1265" 
d="M670 1320v-1635h-126v928q-106 1 -194.5 33t-148.5 86.5t-93 127.5t-33 156q0 206 131 311t364 105h516v-1747h-126v1635h-290z" />
    <glyph glyph-name="periodcentered" unicode="&#xb7;" horiz-adv-x="465" 
d="M232 478q-52 0 -70.5 23.5t-18.5 84.5t19 85.5t70 24.5t71 -24.5t20 -85.5t-19 -84.5t-72 -23.5z" />
    <glyph glyph-name="cedilla" unicode="&#xb8;" horiz-adv-x="447" 
d="M97 -160l95 160h100l-68 -106q67 -3 112.5 -40.5t45.5 -99.5q0 -83 -60.5 -123t-151.5 -40q-85 0 -145 34l28 75q61 -28 118 -28q39 0 67.5 17t28.5 56q0 47 -56 71t-114 24z" />
    <glyph glyph-name="onesuperior" unicode="&#xb9;" horiz-adv-x="446" 
d="M229 842v710q-96 -27 -201 -42l-5 91q124 20 230 66h85v-825h-109z" />
    <glyph glyph-name="ordmasculine" unicode="&#xba;" horiz-adv-x="899" 
d="M450 659q-178 0 -251.5 85.5t-73.5 290.5t73.5 290t251.5 85t251 -85.5t73 -289.5q0 -203 -73.5 -289.5t-250.5 -86.5zM450 750q120 0 166 61t46 224t-45 223.5t-167 60.5q-82 0 -126.5 -24t-65 -85t-20.5 -175q0 -167 45.5 -226t166.5 -59z" />
    <glyph glyph-name="guillemotright" unicode="&#xbb;" horiz-adv-x="986" 
d="M541 530l-285 -403h-152l260 403l-259 403h151zM913 530l-285 -403h-151l259 403l-259 403h151z" />
    <glyph glyph-name="onequarter" unicode="&#xbc;" horiz-adv-x="1485" 
d="M1169 0v196h-335q-84 0 -84 65q0 34 47 95l324 420q45 58 97 58q27 0 44 -17.5t17 -52.5v-480h111v-88h-111v-196h-110zM307 1432h85v-826h-109v711q-100 -27 -201 -41l-5 89q127 21 230 67zM1187 1461l-841 -1490h-124l841 1490h124zM866 284h303v396z" />
    <glyph glyph-name="onehalf" unicode="&#xbd;" horiz-adv-x="1642" 
d="M1003 722l-11 87q138 25 254 25q137 0 211.5 -46t74.5 -153q0 -110 -60.5 -182t-179.5 -120q-95 -39 -132.5 -91.5t-51.5 -146.5h424v-95h-553q12 69 21 111t23.5 87t30.5 72.5t41.5 55t58.5 48t79 39.5q91 39 139.5 85t48.5 116q0 72 -48 99t-168 27q-96 0 -202 -18z
M80 1365q127 21 230 67h85v-826h-109v711q-100 -27 -201 -41zM1067 1461h124l-841 -1490h-123z" />
    <glyph glyph-name="threequarters" unicode="&#xbe;" horiz-adv-x="1638" 
d="M337 1439q64 0 112 -8t92 -28.5t67.5 -62t23.5 -102.5q0 -142 -115 -198q56 -23 92.5 -71t36.5 -119q0 -139 -79.5 -196.5t-234.5 -57.5q-115 0 -238 24l12 88q139 -18 199 -18q120 0 173.5 33t53.5 121q0 61 -34.5 97t-93.5 43q-56 6 -122 6q-35 0 -55 -1v86
q96 1 177 13q56 9 86 44t30 87q0 35 -10 58.5t-25.5 37t-43.5 20.5t-53.5 9t-66.5 2q-79 0 -207 -18l-12 87q130 24 235 24zM1322 0v196h-335q-84 0 -84 65q0 35 46 95l325 420q45 58 96 58q27 0 44 -17.5t17 -52.5v-480h111v-88h-111v-196h-109zM1338 1461l-840 -1490h-123
l840 1490h123zM1018 284h304v396z" />
    <glyph glyph-name="questiondown" unicode="&#xbf;" horiz-adv-x="1029" 
d="M564 664h131l3 -125q0 -6 0.5 -25t0.5 -26q0 -50 -15.5 -84.5t-42 -53t-60.5 -30t-71.5 -19t-75 -15.5t-71.5 -24t-60.5 -40.5t-42 -69t-15.5 -105.5q0 -86 16.5 -137.5t62 -84t117.5 -44.5t192 -12q146 0 310 29l27 -126q-184 -38 -376 -38q-101 0 -172 8t-139 33
t-109 68.5t-66 118t-25 178.5q0 81 16 142t43.5 97.5t63.5 61t75.5 37t79 21t75.5 18t63.5 23t44.5 40t18 66.5zM539 987q0 61 19 85t72 24q52 0 70.5 -24t18.5 -85t-19 -85t-70 -24q-52 0 -71.5 24t-19.5 85z" />
    <glyph glyph-name="Agrave" unicode="&#xc0;" horiz-adv-x="1348" 
d="M218 0h-161l495 1339q38 107 126 107q87 0 126 -107l489 -1339h-168l-147 412h-612zM614 1587l-256 238h192l193 -238h-129zM411 538h522l-261 727z" />
    <glyph glyph-name="Aacute" unicode="&#xc1;" horiz-adv-x="1348" 
d="M218 0h-162l496 1339q39 107 126 107t126 -107l489 -1339h-168l-147 412h-612zM614 1575l193 238h192l-256 -238h-129zM410 538h522l-260 727z" />
    <glyph glyph-name="Acircumflex" unicode="&#xc2;" horiz-adv-x="1348" 
d="M218 0h-161l495 1339q38 107 126 107q87 0 126 -107l489 -1339h-168l-147 412h-612zM606 1813h132l210 -238h-131l-143 164l-144 -164h-129zM411 538h522l-261 727z" />
    <glyph glyph-name="Atilde" unicode="&#xc3;" horiz-adv-x="1348" 
d="M830 1789h93q-9 -93 -51 -143.5t-95 -50.5q-39 0 -69.5 15.5t-45.5 33.5t-34.5 33.5t-39.5 15.5q-52 0 -68 -94h-94q9 93 50.5 143.5t94.5 50.5q39 0 69.5 -15.5t46 -34t35 -34t39.5 -15.5q53 0 69 95zM57 0l495 1339q38 107 126 107q87 0 126 -107l489 -1339h-168
l-147 412h-612l-148 -412h-161zM932 538l-260 727l-262 -727h522z" />
    <glyph glyph-name="Adieresis" unicode="&#xc4;" horiz-adv-x="1348" 
d="M218 0h-162l496 1339q39 107 125 107q89 0 127 -107l489 -1339h-169l-147 412h-612zM512 1597q-39 0 -67 27t-28 66t28 66.5t67 27.5t66 -27.5t27 -66.5t-27 -66t-66 -27zM841 1597q-39 0 -66.5 27t-27.5 66t27.5 66.5t66.5 27.5t66 -27.5t27 -66.5t-26.5 -66t-66.5 -27z
M410 538h522l-260 727z" />
    <glyph glyph-name="Aring" unicode="&#xc5;" horiz-adv-x="1348" 
d="M218 0h-162l496 1339q39 107 126 107q88 0 126 -107l489 -1339h-169l-147 412h-612zM675 1555q-83 0 -142 59t-59 142q0 82 59 140.5t142 58.5t141 -58.5t58 -140.5q0 -83 -58.5 -142t-140.5 -59zM675 1637q49 0 83.5 35t34.5 84t-34.5 83t-83.5 34q-50 0 -84.5 -34
t-34.5 -83q0 -50 35 -84.5t84 -34.5zM410 538h522l-260 727z" />
    <glyph glyph-name="AE" unicode="&#xc6;" horiz-adv-x="1869" 
d="M218 0h-162l475 1280q62 166 286 166q140 0 209 -94q57 52 147.5 67.5t229.5 15.5q166 0 353 -8v-124h-359q-103 0 -160 -10t-92 -42.5t-45 -82t-10 -139.5v-236h636v-128h-636v-264q0 -90 10 -139t45 -81.5t92 -42.5t160 -10h359v-125q-160 -7 -353 -7q-48 0 -80.5 1
t-76.5 4t-73.5 9t-65 17.5t-59 27.5t-47 40t-37.5 54.5t-22.5 71.5t-8.5 91v100h-567zM631 1150l-221 -612h523v594q0 98 -32 139t-104 41q-37 0 -64.5 -11.5t-46.5 -37.5t-30 -49.5t-25 -63.5z" />
    <glyph glyph-name="Ccedilla" unicode="&#xc7;" horiz-adv-x="1084" 
d="M1035 1415l-15 -126q-150 23 -250 23q-73 0 -132.5 -8t-105.5 -22t-81 -39t-60.5 -52t-43 -68.5t-28 -80.5t-16 -96t-7.5 -108t-2 -122q0 -63 1.5 -111t6.5 -99t13 -89t21.5 -77t33 -67t46 -54t61 -43.5t78 -30.5t97 -19t118.5 -6q100 0 250 22l15 -124
q-141 -29 -290 -32l-53 -82q67 -3 112.5 -40.5t45.5 -100.5q0 -83 -60 -122.5t-152 -39.5q-84 0 -144 34l28 75q61 -28 117 -28q40 0 68.5 17t28.5 56q0 47 -56.5 71t-114.5 24l81 136q-123 6 -211 38t-146.5 87.5t-93 145t-48.5 198.5t-14 261q0 132 10.5 231t36 184
t68 141.5t106.5 97t151 58.5t203 18q172 0 327 -31z" />
    <glyph glyph-name="Egrave" unicode="&#xc8;" horiz-adv-x="1102" 
d="M989 1427v-124h-358q-103 0 -160 -10t-92 -42.5t-45 -82t-10 -139.5v-236h636v-128h-636v-264q0 -90 10 -139t45 -81.5t92 -42.5t160 -10h358v-125q-158 -7 -352 -7q-48 0 -80.5 1t-76.5 4t-73.5 9t-65 17.5t-59 27.5t-47 40t-37.5 54.5t-22.5 71.5t-8.5 91v806
q0 50 8.5 91t22.5 71.5t37.5 54.5t47 40t59 27.5t65.5 18t73.5 9.5t76 4t80.5 1q165 0 352 -8zM629 1564l-257 238h193l193 -238h-129z" />
    <glyph glyph-name="Eacute" unicode="&#xc9;" horiz-adv-x="1103" 
d="M989 1427v-124h-358q-103 0 -160 -10t-92 -42.5t-45 -82t-10 -139.5v-236h636v-128h-636v-264q0 -90 10 -139t45 -81.5t92 -42.5t160 -10h358v-125q-158 -7 -352 -7q-48 0 -80.5 1t-76.5 4t-73.5 9t-65 17.5t-59 27.5t-47 40t-37.5 54.5t-22.5 71.5t-8.5 91v806
q0 50 8.5 91t22.5 71.5t37.5 54.5t47 40t59 27.5t65.5 18t73.5 9.5t76 4t80.5 1q165 0 352 -8zM506 1564l193 238h193l-256 -238h-130z" />
    <glyph glyph-name="Ecircumflex" unicode="&#xca;" horiz-adv-x="1103" 
d="M989 1427v-124h-358q-103 0 -160 -10t-92 -42.5t-45 -82t-10 -139.5v-236h636v-128h-636v-264q0 -90 10 -139t45 -81.5t92 -42.5t160 -10h358v-125q-158 -7 -352 -7q-48 0 -80.5 1t-76.5 4t-73.5 9t-65 17.5t-59 27.5t-47 40t-37.5 54.5t-22.5 71.5t-8.5 91v806
q0 50 8.5 91t22.5 71.5t37.5 54.5t47 40t59 27.5t65.5 18t73.5 9.5t76 4t80.5 1q165 0 352 -8zM541 1802h132l210 -238h-131l-143 164l-144 -164h-129z" />
    <glyph glyph-name="Edieresis" unicode="&#xcb;" horiz-adv-x="1103" 
d="M989 1427v-124h-358q-103 0 -160 -10t-92 -42.5t-45 -82t-10 -139.5v-236h636v-128h-636v-264q0 -90 10 -139t45 -81.5t92 -42.5t160 -10h358v-125q-158 -7 -352 -7q-48 0 -80.5 1t-76.5 4t-73.5 9t-65 17.5t-59 27.5t-47 40t-37.5 54.5t-22.5 71.5t-8.5 91v806
q0 50 8.5 91t22.5 71.5t37.5 54.5t47 40t59 27.5t65.5 18t73.5 9.5t76 4t80.5 1q165 0 352 -8zM452 1587q-39 0 -66.5 27.5t-27.5 66.5t27.5 66.5t66.5 27.5t65.5 -27.5t26.5 -66.5t-26.5 -66.5t-65.5 -27.5zM781 1587q-39 0 -66.5 27.5t-27.5 66.5t27.5 66.5t66.5 27.5
t66 -27.5t27 -66.5t-27 -66.5t-66 -27.5z" />
    <glyph glyph-name="Igrave" unicode="&#xcc;" horiz-adv-x="505" 
d="M191 1569l-256 238h192l194 -238h-130zM174 0v1432h158v-1432h-158z" />
    <glyph glyph-name="Iacute" unicode="&#xcd;" horiz-adv-x="505" 
d="M174 0v1432h158v-1432h-158zM186 1569l193 238h192l-256 -238h-129z" />
    <glyph glyph-name="Icircumflex" unicode="&#xce;" horiz-adv-x="505" 
d="M185 1797h131l211 -238h-131l-143 164l-145 -164h-128zM174 0v1432h158v-1432h-158z" />
    <glyph glyph-name="Idieresis" unicode="&#xcf;" horiz-adv-x="505" 
d="M90 1583q-39 0 -67 27t-28 66t28 66.5t67 27.5t65.5 -27.5t26.5 -66.5t-26.5 -66t-65.5 -27zM418 1583q-39 0 -66.5 27t-27.5 66t27.5 66.5t66.5 27.5q40 0 67 -27.5t27 -66.5t-27 -66t-67 -27zM174 0v1432h158v-1432h-158z" />
    <glyph glyph-name="Eth" unicode="&#xd0;" horiz-adv-x="1431" 
d="M232 681h-125v117h125v616q202 32 435 32q113 0 201 -15.5t153.5 -43.5t112 -75.5t77 -103.5t48 -135t24 -163t6.5 -194q0 -130 -9.5 -224t-34.5 -181t-69 -144t-113 -100t-167 -62.5t-229 -19.5q-231 0 -435 34v662zM389 681v-545q141 -19 236 -19q105 0 185.5 17
t134 40.5t89.5 73t54.5 88t28 114.5t11 124t1.5 142q0 73 -0.5 111t-5 100.5t-13.5 95.5t-26 81t-42 73.5t-63 56t-88 45t-117 25t-149 10.5q-96 0 -236 -17v-499h231v-117h-231z" />
    <glyph glyph-name="Ntilde" unicode="&#xd1;" horiz-adv-x="1437" 
d="M412 1344l706 -1136v1224h145v-1334q0 -57 -26 -85t-71 -28q-42 0 -74.5 24.5t-65.5 78.5l-705 1137v-1225h-145v1334q0 57 26 84.5t71 27.5q76 0 139 -102zM880 1787h93q-9 -93 -50.5 -143.5t-94.5 -50.5q-39 0 -69.5 15.5t-46 34t-35 34t-39.5 15.5q-52 0 -68 -94h-93
q9 93 50 143.5t95 50.5q39 0 69 -15.5t46 -34t35.5 -34t39.5 -15.5q52 0 68 94z" />
    <glyph glyph-name="Ograve" unicode="&#xd2;" horiz-adv-x="1388" 
d="M694 -15q-162 0 -268.5 40t-170.5 132t-89.5 225t-25.5 334t25.5 334t89.5 224.5t170.5 131.5t268.5 40t268.5 -40t170.5 -131.5t89.5 -224.5t25.5 -334t-25.5 -334t-89.5 -225t-170.5 -132t-268.5 -40zM694 119q80 0 141 16t103 40t70.5 70t44 88t23.5 112.5t10 126
t2 144.5q0 62 -1 102.5t-3.5 93.5t-9 88t-16 77t-25 69.5t-37 57t-50.5 47.5t-65.5 33.5t-83.5 22t-103 6.5q-80 0 -141.5 -16t-103 -40t-70 -70t-44 -87.5t-23.5 -112.5t-10 -126t-2 -145t2 -144.5t10 -125.5t23.5 -113t44 -88t70 -70t103 -40t141.5 -16zM685 1568
l-256 238h192l194 -238h-130z" />
    <glyph glyph-name="Oacute" unicode="&#xd3;" horiz-adv-x="1388" 
d="M694 -15q-162 0 -268.5 40t-170.5 132t-89.5 225t-25.5 334t25.5 334t89.5 224.5t170.5 131.5t268.5 40t268.5 -40t170.5 -131.5t89.5 -224.5t25.5 -334t-25.5 -334t-89.5 -225t-170.5 -132t-268.5 -40zM694 119q80 0 141 16t103 40t70.5 70t44 88t23.5 112.5t10 126
t2 144.5q0 62 -1 102.5t-3.5 93.5t-9 88t-16 77t-25 69.5t-37 57t-50.5 47.5t-65.5 33.5t-83.5 22t-103 6.5q-80 0 -141.5 -16t-103 -40t-70 -70t-44 -87.5t-23.5 -112.5t-10 -126t-2 -145t2 -144.5t10 -125.5t23.5 -113t44 -88t70 -70t103 -40t141.5 -16zM586 1568l193 238
h192l-256 -238h-129z" />
    <glyph glyph-name="Ocircumflex" unicode="&#xd4;" horiz-adv-x="1388" 
d="M694 -15q-162 0 -268.5 40t-170.5 132t-89.5 225t-25.5 334t25.5 334t89.5 224.5t170.5 131.5t268.5 40t268.5 -40t170.5 -131.5t89.5 -224.5t25.5 -334t-25.5 -334t-89.5 -225t-170.5 -132t-268.5 -40zM694 119q80 0 141 16t103 40t70.5 70t44 88t23.5 112.5t10 126
t2 144.5q0 62 -1 102.5t-3.5 93.5t-9 88t-16 77t-25 69.5t-37 57t-50.5 47.5t-65.5 33.5t-83.5 22t-103 6.5q-80 0 -141.5 -16t-103 -40t-70 -70t-44 -87.5t-23.5 -112.5t-10 -126t-2 -145t2 -144.5t10 -125.5t23.5 -113t44 -88t70 -70t103 -40t141.5 -16zM626 1806h132
l210 -238h-131l-143 164l-144 -164h-129z" />
    <glyph glyph-name="Otilde" unicode="&#xd5;" horiz-adv-x="1388" 
d="M848 1772h93q-9 -93 -50 -143.5t-95 -50.5q-39 0 -69 15.5t-46 34t-35.5 34t-39.5 15.5q-51 0 -67 -95h-94q9 93 50.5 143.5t94.5 50.5q39 0 69 -15.5t46 -34t35.5 -34t39.5 -15.5q52 0 68 95zM694 1446q162 0 268.5 -40t170.5 -131.5t89.5 -224.5t25.5 -334t-25.5 -334
t-89.5 -225t-170.5 -132t-268.5 -40t-268.5 40t-170.5 132t-89.5 225t-25.5 334t25.5 334t89.5 224.5t170.5 131.5t268.5 40zM694 1313q-80 0 -141.5 -16t-103 -40t-70 -70t-44 -87.5t-23.5 -112.5t-10 -126t-2 -145t2 -144.5t10 -125.5t23.5 -113t44 -88t70 -70t103 -40
t141.5 -16t141 16t103 40t70.5 70t44 88t23.5 112.5t10 126t2 144.5q0 62 -1 102.5t-3.5 93.5t-9 88t-16 77t-25 69.5t-37 57t-50.5 47.5t-65.5 33.5t-83.5 22t-103 6.5z" />
    <glyph glyph-name="Odieresis" unicode="&#xd6;" horiz-adv-x="1388" 
d="M531 1579q-40 0 -67.5 27t-27.5 66t27.5 66.5t67.5 27.5q39 0 65.5 -27.5t26.5 -66.5t-26.5 -66t-65.5 -27zM694 -15q-162 0 -268.5 40t-170.5 132t-89.5 225t-25.5 334t25.5 334t89.5 224.5t170.5 131.5t268.5 40t268.5 -40t170.5 -131.5t89.5 -224.5t25.5 -334
t-25.5 -334t-89.5 -225t-170.5 -132t-268.5 -40zM694 119q80 0 141 16t103 40t70.5 70t44 88t23.5 112.5t10 126t2 144.5q0 62 -1 102.5t-3.5 93.5t-9 88t-16 77t-25 69.5t-37 57t-50.5 47.5t-65.5 33.5t-83.5 22t-103 6.5q-80 0 -141.5 -16t-103 -40t-70 -70t-44 -87.5
t-23.5 -112.5t-10 -126t-2 -145t2 -144.5t10 -125.5t23.5 -113t44 -88t70 -70t103 -40t141.5 -16zM860 1579q-39 0 -66.5 27t-27.5 66t27.5 66.5t66.5 27.5t65.5 -27.5t26.5 -66.5t-26.5 -66t-65.5 -27z" />
    <glyph glyph-name="multiply" unicode="&#xd7;" horiz-adv-x="1117" 
d="M657 603l347 -347l-98 -100l-348 348l-347 -348l-98 98l347 347l-346 347l99 98l347 -346l346 346l96 -97z" />
    <glyph glyph-name="Oslash" unicode="&#xd8;" horiz-adv-x="1388" 
d="M371 52l-80 -133l-103 64l87 147q-73 84 -104 226.5t-31 359.5q0 201 25.5 334t89.5 224.5t170.5 131.5t268.5 40q205 0 324 -67l79 134l103 -65l-87 -147q73 -84 104 -226t31 -359q0 -201 -25.5 -334t-89.5 -225t-170.5 -132t-268.5 -40q-204 0 -323 67zM694 1313
q-80 0 -141.5 -16t-103 -40t-70 -70t-44 -87.5t-23.5 -112.5t-10 -126t-2 -145q0 -166 11 -268t50 -174l582 979q-89 60 -249 60zM1027 1158l-582 -979q88 -60 249 -60q80 0 141 16t103 40t70.5 70t44 88t23.5 112.5t10 126t2 144.5q0 166 -11 268t-50 174z" />
    <glyph glyph-name="Ugrave" unicode="&#xd9;" horiz-adv-x="1367" 
d="M1197 1432v-969q0 -112 -24 -195.5t-67 -137t-109 -86.5t-142 -46t-174 -13t-174 13t-142 46t-109 86.5t-67 137t-24 195.5v969h156v-985q0 -169 84.5 -248t275.5 -79q193 0 276.5 79t83.5 248v985h156zM667 1558l-257 238h192l194 -238h-129z" />
    <glyph glyph-name="Uacute" unicode="&#xda;" horiz-adv-x="1367" 
d="M1197 1432v-969q0 -112 -24 -195.5t-67 -137t-109 -86.5t-142 -46t-174 -13t-174 13t-142 46t-109 86.5t-67 137t-24 195.5v969h156v-985q0 -169 84.5 -248t275.5 -79q193 0 276.5 79t83.5 248v985h156zM577 1558l193 238h192l-255 -238h-130z" />
    <glyph glyph-name="Ucircumflex" unicode="&#xdb;" horiz-adv-x="1367" 
d="M1197 1432v-969q0 -112 -24 -195.5t-67 -137t-109 -86.5t-142 -46t-174 -13t-174 13t-142 46t-109 86.5t-67 137t-24 195.5v969h156v-985q0 -169 84.5 -248t275.5 -79q193 0 276.5 79t83.5 248v985h156zM624 1796h132l209 -238h-131l-143 164l-144 -164h-129z" />
    <glyph glyph-name="Udieresis" unicode="&#xdc;" horiz-adv-x="1367" 
d="M1197 1432v-969q0 -112 -24 -195.5t-67 -137t-109 -86.5t-142 -46t-174 -13t-174 13t-142 46t-109 86.5t-67 137t-24 195.5v969h156v-985q0 -169 84.5 -248t275.5 -79q193 0 276.5 79t83.5 248v985h156zM517 1583q-39 0 -66.5 27.5t-27.5 66.5t27.5 66.5t66.5 27.5
t66 -27.5t27 -66.5t-27 -66.5t-66 -27.5zM846 1583q-39 0 -66.5 27.5t-27.5 66.5t27.5 66.5t66.5 27.5q40 0 67 -27.5t27 -66.5t-27 -66.5t-67 -27.5z" />
    <glyph glyph-name="Yacute" unicode="&#xdd;" horiz-adv-x="1158" 
d="M657 557v-557h-159v557l-457 875h172l366 -715l374 715h165zM488 1552l193 238h193l-256 -238h-130z" />
    <glyph glyph-name="Thorn" unicode="&#xde;" horiz-adv-x="1230" 
d="M162 0v1432h157v-271q140 14 279 14q70 0 127 -4t116 -16t104 -31.5t86 -51.5t67 -75t41.5 -104t15.5 -137q0 -103 -26.5 -179.5t-72 -123.5t-116 -75.5t-147.5 -39t-178 -10.5t-296 11v-339h-157zM319 1027v-557q123 -13 279 -13q100 0 170 13t124 45.5t80 92t26 148.5
q0 156 -89.5 223t-302.5 67q-147 0 -287 -19z" />
    <glyph glyph-name="germandbls" unicode="&#xdf;" horiz-adv-x="1259" 
d="M305 981v-981h-148v981q0 296 108 423.5t357 127.5q225 0 335 -90t110 -236q0 -59 -19 -105t-49 -74.5t-66.5 -51.5t-73.5 -42.5t-67 -40t-49 -51t-19 -70.5q0 -45 24.5 -77t63 -52t85.5 -38t94 -42t85.5 -56t63 -88t24.5 -131q0 -82 -25.5 -142t-72.5 -94t-105.5 -50
t-131.5 -16q-143 0 -292 41l12 118q147 -33 225 -33q24 0 40 0.5t43.5 4t46 9.5t41 18t36 29.5t23 44.5t9.5 61q0 49 -19 86t-49.5 58.5t-70 42t-80.5 35.5t-80.5 38.5t-70 51t-49.5 74t-19 107.5q0 59 19 103.5t49 71t66.5 47.5t73 40.5t66.5 42t49 59t19 85.5
q0 83 -73 134.5t-222 51.5q-117 0 -184.5 -39t-100 -131t-32.5 -255z" />
    <glyph glyph-name="agrave" unicode="&#xe0;" horiz-adv-x="1142" 
d="M173 953l-14 118q238 38 407 38q75 0 133.5 -8t113.5 -30.5t91 -58.5t57.5 -95.5t21.5 -139.5v-517q0 -112 -5 -187q-179 -88 -458 -88q-223 0 -325 76t-102 251q0 298 276 339q133 20 467 32v49q0 139 -62.5 195.5t-235.5 56.5q-152 0 -365 -31zM242 316
q0 -122 66.5 -165.5t227.5 -43.5q172 0 296 49q4 69 4 172v243q-293 -5 -415 -29q-97 -20 -138 -68t-41 -158zM458 1543l180 -294h-120l-240 294h180z" />
    <glyph glyph-name="aacute" unicode="&#xe1;" horiz-adv-x="1142" 
d="M173 953l-14 118q238 38 407 38q75 0 133.5 -8t113.5 -30.5t91 -58.5t57.5 -95.5t21.5 -139.5v-517q0 -97 -6 -187q-177 -88 -457 -88q-223 0 -325 76t-102 251q0 298 276 339q133 20 467 32v49q0 139 -62.5 195.5t-235.5 56.5q-152 0 -365 -31zM241 316
q0 -122 67 -165.5t228 -43.5q172 0 296 49q4 69 4 172v243q-293 -5 -415 -29q-97 -20 -138.5 -68.5t-41.5 -157.5zM840 1541l-240 -294h-121l181 294h180z" />
    <glyph glyph-name="acircumflex" unicode="&#xe2;" horiz-adv-x="1142" 
d="M173 953l-14 118q238 38 407 38q75 0 133.5 -8t113.5 -30.5t91 -58.5t57.5 -95.5t21.5 -139.5v-517q0 -112 -5 -187q-179 -88 -458 -88q-223 0 -325 76t-102 251q0 298 276 339q133 20 467 32v49q0 139 -62.5 195.5t-235.5 56.5q-152 0 -365 -31zM242 316
q0 -122 66.5 -165.5t227.5 -43.5q172 0 296 49q4 69 4 172v243q-293 -5 -415 -29q-97 -20 -138 -68t-41 -158zM822 1241h-123l-134 203l-135 -203h-120l192 294h124z" />
    <glyph glyph-name="atilde" unicode="&#xe3;" horiz-adv-x="1142" 
d="M173 953l-14 118q238 38 407 38q75 0 133.5 -8t113.5 -30.5t91 -58.5t57.5 -95.5t21.5 -139.5v-517q0 -112 -5 -187q-179 -88 -458 -88q-223 0 -325 76t-102 251q0 298 276 339q133 20 467 32v49q0 139 -62.5 195.5t-235.5 56.5q-152 0 -365 -31zM817 1493
q-9 -97 -50.5 -150t-94.5 -53q-39 0 -69.5 16t-46 35.5t-35 35.5t-39.5 16q-52 0 -68 -98h-93q9 97 50.5 149.5t94.5 52.5q39 0 69.5 -16t46 -35.5t35 -35.5t39.5 -16q52 0 68 99h93zM836 328v243q-293 -5 -415 -29q-97 -20 -138 -68t-41 -158q0 -122 66.5 -165.5
t227.5 -43.5q173 0 296 49q4 69 4 172z" />
    <glyph glyph-name="adieresis" unicode="&#xe4;" horiz-adv-x="1142" 
d="M173 953l-14 118q238 38 407 38q75 0 133.5 -8t113.5 -30.5t91 -58.5t57.5 -95.5t21.5 -139.5v-517q0 -112 -5 -187q-179 -88 -458 -88q-223 0 -325 76t-102 251q0 298 276 339q133 20 467 32v49q0 139 -62.5 195.5t-235.5 56.5q-152 0 -365 -31zM242 316
q0 -122 66.5 -165.5t227.5 -43.5q173 0 296 49q4 69 4 172v243q-293 -5 -415 -29q-97 -20 -138 -68t-41 -158zM408 1479q39 0 66 -27.5t27 -66.5t-27 -66t-66 -27t-66.5 27t-27.5 66t27.5 66.5t66.5 27.5zM737 1479q39 0 66 -27.5t27 -66.5t-27 -66t-66 -27q-40 0 -67 27
t-27 66t27 66.5t67 27.5z" />
    <glyph glyph-name="aring" unicode="&#xe5;" horiz-adv-x="1142" 
d="M173 953l-14 118q238 38 407 38q75 0 133.5 -8t113.5 -30.5t91 -58.5t57.5 -95.5t21.5 -139.5v-517q0 -112 -5 -187q-179 -88 -458 -88q-223 0 -325 76t-102 251q0 298 276 339q133 20 467 32v49q0 139 -62.5 195.5t-235.5 56.5q-152 0 -365 -31zM242 316
q0 -122 66.5 -165.5t227.5 -43.5q172 0 296 49q4 69 4 172v243q-293 -5 -415 -29q-97 -20 -138 -68t-41 -158zM563 1619q83 0 142 -58.5t59 -141.5t-59 -141.5t-142 -58.5t-141 58.5t-58 141.5t58.5 141.5t140.5 58.5zM563 1537q-49 0 -83.5 -34.5t-34.5 -83.5t34.5 -83.5
t83.5 -34.5q50 0 85 34.5t35 83.5t-35 83.5t-85 34.5z" />
    <glyph glyph-name="ae" unicode="&#xe6;" horiz-adv-x="1900" 
d="M961 115l-2 -51q-176 -79 -439 -79q-223 0 -325 76t-102 251q0 298 276 339q134 20 468 32v49q0 139 -63 195.5t-236 56.5q-152 0 -365 -31l-13 118q237 38 407 38q137 0 230 -33t137 -117q102 150 382 150q109 0 191 -23t135 -64t85.5 -104t45.5 -135.5t13 -166.5
q0 -54 -3 -104q-92 -16 -256 -31t-281 -20l-260 -11q7 -89 25.5 -148t58.5 -104.5t108 -66t170 -20.5q156 0 387 31l13 -120q-243 -37 -458 -37q-221 0 -329 130zM833 156q4 104 4 172v243q-295 -5 -415 -29q-97 -19 -138.5 -67.5t-41.5 -158.5q0 -122 67 -165.5t227 -43.5
q173 0 297 49zM1272 577q189 8 361 30q3 33 3 77q0 148 -74 225.5t-246 77.5q-102 0 -168 -25.5t-102 -81.5t-49.5 -130t-13.5 -187z" />
    <glyph glyph-name="ccedilla" unicode="&#xe7;" horiz-adv-x="922" 
d="M849 1078l-13 -115q-103 19 -182 19q-64 0 -114 -5.5t-89 -18.5t-66.5 -29.5t-47 -44.5t-31 -57.5t-18 -74t-8.5 -88t-2 -105.5q0 -69 2.5 -114.5t10.5 -97t24 -83.5t43 -63.5t66.5 -48.5t96 -27.5t130.5 -10.5q69 0 185 24l14 -121q-140 -28 -242 -31l-53 -82
q67 -3 112.5 -40.5t45.5 -100.5q0 -83 -60.5 -122.5t-152.5 -39.5q-84 0 -144 34l28 75q61 -28 117 -28q40 0 68.5 17t28.5 56q0 47 -56.5 71t-113.5 24l81 137q-94 7 -163 41t-110.5 84t-66.5 124.5t-33.5 150t-8.5 172.5q0 95 8 166t27.5 135.5t54 108.5t87 76.5t127 48
t172.5 15.5q127 0 246 -31z" />
    <glyph glyph-name="egrave" unicode="&#xe8;" horiz-adv-x="1188" 
d="M578 -15q-105 0 -184.5 28t-130 76t-82 120.5t-44 154t-12.5 183.5q0 303 106.5 432.5t371.5 129.5q136 0 229.5 -34t145.5 -101.5t74 -153.5t22 -204q0 -54 -3 -104q-92 -16 -256 -31t-281 -20l-259 -11q7 -89 25.5 -148t58.5 -104.5t108 -66t170 -20.5q154 0 385 31
l15 -120q-243 -37 -459 -37zM271 563l289 14q191 8 362 30q2 22 2 77q0 147 -74.5 225t-246.5 78q-102 0 -167.5 -25.5t-101.5 -81.5t-49.5 -130t-13.5 -187zM544 1543l181 -294h-121l-239 294h179z" />
    <glyph glyph-name="eacute" unicode="&#xe9;" horiz-adv-x="1188" 
d="M578 -15q-105 0 -184.5 28t-130 76t-82 120.5t-44 154t-12.5 183.5q0 303 106.5 432.5t371.5 129.5q136 0 229.5 -34t145.5 -101.5t74 -153.5t22 -204q0 -54 -3 -104q-92 -16 -256.5 -31t-281.5 -20l-259 -11q7 -89 25.5 -148t58.5 -104.5t108 -66t170 -20.5
q155 0 386 31l14 -120q-243 -37 -458 -37zM270 563l290 14q189 8 361 30q3 33 3 77q0 148 -74.5 225.5t-246.5 77.5q-102 0 -168 -25.5t-102 -81.5t-49.5 -130t-13.5 -187zM900 1538l-240 -294h-121l181 294h180z" />
    <glyph glyph-name="ecircumflex" unicode="&#xea;" horiz-adv-x="1188" 
d="M578 -15q-105 0 -184.5 28t-130 76t-82 120.5t-44 154t-12.5 183.5q0 303 106.5 432.5t371.5 129.5q136 0 229.5 -34t145.5 -101.5t74 -153.5t22 -204q0 -54 -3 -104q-92 -16 -256 -31t-281 -20l-259 -11q7 -89 25.5 -148t58.5 -104.5t108 -66t170 -20.5q154 0 385 31
l15 -120q-243 -37 -459 -37zM271 563l289 14q191 8 362 30q2 22 2 77q0 147 -74.5 225t-246.5 78q-102 0 -167.5 -25.5t-101.5 -81.5t-49.5 -130t-13.5 -187zM875 1241h-122l-134 203l-135 -203h-120l191 294h124z" />
    <glyph glyph-name="edieresis" unicode="&#xeb;" horiz-adv-x="1188" 
d="M578 -15q-105 0 -184.5 28t-130 76t-82 120.5t-44 154t-12.5 183.5q0 303 106.5 432.5t371.5 129.5q136 0 229.5 -34t145.5 -101.5t74 -153.5t22 -204q0 -54 -3 -104q-92 -16 -256 -31t-281 -20l-259 -11q7 -89 25.5 -148t58.5 -104.5t108 -66t170 -20.5q154 0 385 31
l15 -120q-243 -37 -459 -37zM466 1479q39 0 65.5 -27.5t26.5 -66.5t-26.5 -66t-65.5 -27q-40 0 -67.5 27t-27.5 66t27.5 66.5t67.5 27.5zM271 563l289 14q191 8 362 30q2 22 2 77q0 147 -74.5 225t-246.5 78q-102 0 -167.5 -25.5t-101.5 -81.5t-49.5 -130t-13.5 -187z
M794 1479q39 0 66 -27.5t27 -66.5t-27 -66t-66 -27t-66.5 27t-27.5 66t27.5 66.5t66.5 27.5z" />
    <glyph glyph-name="igrave" unicode="&#xec;" horiz-adv-x="457" 
d="M165 1263l-240 294h180l181 -294h-121zM154 0v1094h150v-1094h-150z" />
    <glyph glyph-name="iacute" unicode="&#xed;" horiz-adv-x="457" 
d="M154 0v1094h150v-1094h-150zM172 1263l181 294h180l-240 -294h-121z" />
    <glyph glyph-name="icircumflex" unicode="&#xee;" horiz-adv-x="457" 
d="M165 1563h124l196 -294h-122l-134 203l-136 -203h-119zM154 0v1094h150v-1094h-150z" />
    <glyph glyph-name="idieresis" unicode="&#xef;" horiz-adv-x="457" 
d="M65 1301q-39 0 -66.5 27t-27.5 66t27.5 66.5t66.5 27.5t66 -27.5t27 -66.5t-27 -66t-66 -27zM394 1301q-39 0 -66.5 27t-27.5 66t27.5 66.5t66.5 27.5t66 -27.5t27 -66.5t-26.5 -66t-66.5 -27zM154 0v1094h150v-1094h-150z" />
    <glyph glyph-name="eth" unicode="&#xf0;" horiz-adv-x="1198" 
d="M818 1389l174 63l49 -84l-171 -62q96 -166 145.5 -364t49.5 -401q0 -301 -108.5 -428.5t-371.5 -127.5q-264 0 -372.5 126t-108.5 430q0 296 108.5 420t372.5 124q159 0 254 -58q-41 120 -104 230l-176 -64l-48 84l173 63q-47 72 -116 149l131 43q61 -61 119 -143z
M916 541q0 237 -71.5 327.5t-259.5 90.5q-128 0 -197 -36t-101 -126t-32 -256q0 -172 32 -264.5t101 -129t197 -36.5q188 0 259.5 92t71.5 338z" />
    <glyph glyph-name="ntilde" unicode="&#xf1;" horiz-adv-x="1230" 
d="M308 759v-759h-148v831q0 97 6 187q209 91 494 91q78 0 140 -11t104.5 -29t73.5 -47.5t48.5 -60.5t27.5 -74.5t13 -83t3 -92.5v-711h-148v684q0 67 -6 111t-24.5 83t-53 60.5t-90.5 33.5t-138 12q-70 0 -158.5 -15.5t-138.5 -38.5q-5 -87 -5 -171zM779 1499h94
q-9 -97 -51 -150t-95 -53q-39 0 -69.5 16t-45.5 35.5t-34.5 35.5t-39.5 16q-53 0 -69 -98h-93q9 97 50.5 149.5t94.5 52.5q39 0 69.5 -16t46 -35.5t35 -35.5t39.5 -16q52 0 68 99z" />
    <glyph glyph-name="ograve" unicode="&#xf2;" horiz-adv-x="1219" 
d="M610 -15q-264 0 -372 127t-108 435t108 435t372 127q263 0 371.5 -128.5t108.5 -433.5q0 -304 -108.5 -433t-371.5 -129zM610 111q128 0 198 40.5t101 133.5t31 262t-30.5 262t-100.5 133.5t-199 40.5q-96 0 -156 -19t-100.5 -69t-57 -133t-16.5 -215t16.5 -215t57 -133
t100.5 -69t156 -19zM597 1249l-239 294h180l180 -294h-121z" />
    <glyph glyph-name="oacute" unicode="&#xf3;" horiz-adv-x="1220" 
d="M610 -15q-264 0 -372 127t-108 435t108 435t372 127q263 0 372 -128.5t109 -433.5q0 -304 -109 -433t-372 -129zM610 111q96 0 157.5 21t101.5 72.5t56 133.5t16 209q0 249 -71 342.5t-260 93.5q-128 0 -197 -37t-101 -130.5t-32 -268.5t32 -268.5t101 -130.5t197 -37z
M511 1258l180 294h180l-239 -294h-121z" />
    <glyph glyph-name="ocircumflex" unicode="&#xf4;" horiz-adv-x="1220" 
d="M610 -15q-264 0 -372 127t-108 435t108 435t372 127q263 0 372 -128.5t109 -433.5q0 -304 -109 -433t-372 -129zM610 111q96 0 157.5 21t101.5 72.5t56 133.5t16 209q0 249 -71 342.5t-260 93.5q-128 0 -197 -37t-101 -130.5t-32 -268.5t32 -268.5t101 -130.5t197 -37z
M546 1541h123l197 -294h-123l-133 203l-136 -203h-120z" />
    <glyph glyph-name="otilde" unicode="&#xf5;" horiz-adv-x="1219" 
d="M764 1486h94q-9 -97 -51 -149.5t-95 -52.5q-39 0 -69.5 16t-45.5 35.5t-34.5 35.5t-39.5 16q-51 0 -68 -98h-94q9 97 50.5 149.5t95.5 52.5q39 0 69 -16t45.5 -35.5t35 -35.5t39.5 -16q52 0 68 98zM610 1109q263 0 371.5 -128.5t108.5 -433.5q0 -304 -108.5 -433
t-371.5 -129q-264 0 -372 127t-108 435t108 435t372 127zM610 983q-96 0 -156 -19t-100.5 -69t-57 -133t-16.5 -215t16.5 -215t57 -133t100.5 -69t156 -19q128 0 198 40.5t101 133.5t31 262t-30.5 262t-100.5 133.5t-199 40.5z" />
    <glyph glyph-name="odieresis" unicode="&#xf6;" horiz-adv-x="1220" 
d="M446 1292q-39 0 -66.5 27t-27.5 66t27.5 66.5t66.5 27.5t66 -27.5t27 -66.5t-27 -66t-66 -27zM610 -15q-264 0 -372 127t-108 435t108 435t372 127q263 0 372 -128.5t109 -433.5q0 -304 -109 -433t-372 -129zM610 111q96 0 157.5 21t101.5 72.5t56 133.5t16 209
q0 249 -71 342.5t-260 93.5q-128 0 -197 -37t-101 -130.5t-32 -268.5t32 -268.5t101 -130.5t197 -37zM775 1292q-40 0 -67 27t-27 66t27 66.5t67 27.5q39 0 66 -27.5t27 -66.5t-27 -66t-66 -27z" />
    <glyph glyph-name="divide" unicode="&#xf7;" horiz-adv-x="1193" 
d="M597 63q-46 0 -79 33t-33 79q0 47 32.5 80t79.5 33t80 -33t33 -80q0 -46 -33.5 -79t-79.5 -33zM597 915q-47 0 -79.5 32.5t-32.5 79.5t32.5 79.5t79.5 32.5t80 -33t33 -79t-33 -79t-80 -33zM100 533v137h995v-137h-995z" />
    <glyph glyph-name="oslash" unicode="&#xf8;" horiz-adv-x="1219" 
d="M335 36l-75 -117l-79 54l76 118q-67 65 -97 176t-30 280q0 308 108 435t372 127q173 0 274 -52l76 118l79 -54l-77 -119q128 -124 128 -455q0 -304 -108.5 -433t-371.5 -129q-173 0 -275 51zM610 111q96 0 157 21t101 72.5t56 133.5t16 209q0 235 -61 329l-470 -726
q70 -39 201 -39zM339 218l471 725q-70 40 -200 40q-128 0 -197 -37t-101 -130.5t-32 -268.5q0 -235 59 -329z" />
    <glyph glyph-name="ugrave" unicode="&#xf9;" horiz-adv-x="1225" 
d="M155 383v711h149v-684q0 -56 4 -94t15.5 -74.5t33 -58.5t55.5 -39.5t84 -25t118 -7.5q70 0 157.5 15t136.5 38q4 69 4 171v759h149v-830q0 -112 -5 -187q-211 -92 -491 -92q-78 0 -140 11t-104.5 29t-73.5 47.5t-48.5 60.5t-27.5 74.5t-13 83t-3 92.5zM579 1263l-239 294
h180l180 -294h-121z" />
    <glyph glyph-name="uacute" unicode="&#xfa;" horiz-adv-x="1226" 
d="M155 383v711h149v-684q0 -85 10 -135t42.5 -90.5t94.5 -57t164 -16.5q69 0 157 15t137 38q4 69 4 171v759h149v-830q0 -97 -6 -187q-211 -92 -491 -92q-108 0 -185 21t-120 54t-67.5 88t-31 107t-6.5 128zM523 1276l181 293h179l-239 -293h-121z" />
    <glyph glyph-name="ucircumflex" unicode="&#xfb;" horiz-adv-x="1226" 
d="M155 383v711h149v-684q0 -56 4 -94t15.5 -74.5t33 -58.5t55.5 -39.5t84 -25t118 -7.5q70 0 158 15t137 38q4 104 4 171v759h149v-830q0 -97 -6 -187q-211 -92 -491 -92q-108 0 -185 21t-120 54t-67.5 88t-31 107t-6.5 128zM545 1575h123l197 -293h-123l-134 203
l-135 -203h-120z" />
    <glyph glyph-name="udieresis" unicode="&#xfc;" horiz-adv-x="1226" 
d="M155 383v711h149v-684q0 -56 4 -94t15.5 -74.5t33 -58.5t55.5 -39.5t84 -25t118 -7.5q70 0 158 15t137 38q4 104 4 171v759h149v-830q0 -97 -6 -187q-211 -92 -491 -92q-108 0 -185 21t-120 54t-67.5 88t-31 107t-6.5 128zM444 1314q-39 0 -66.5 27t-27.5 66t27.5 66.5
t66.5 27.5t65.5 -27.5t26.5 -66.5t-26.5 -66t-65.5 -27zM773 1314q-39 0 -66.5 27t-27.5 66t27.5 66.5t66.5 27.5t66 -27.5t27 -66.5t-26.5 -66t-66.5 -27z" />
    <glyph glyph-name="yacute" unicode="&#xfd;" horiz-adv-x="1056" 
d="M567 272l275 822h150l-509 -1497h-151l166 480l-442 1017h159zM460 1251l180 294h180l-239 -294h-121z" />
    <glyph glyph-name="thorn" unicode="&#xfe;" horiz-adv-x="1179" 
d="M157 -403v1835h149v-364q157 41 302 41q167 0 265.5 -53.5t146 -176t47.5 -332.5t-47.5 -332.5t-146 -176t-265.5 -53.5q-145 0 -302 41v-429h-149zM306 943v-791q127 -43 254 -43q91 0 154 17t103 48t62 87t30 122t8 164t-8 164t-30 122t-62 87.5t-103 48.5t-154 17
q-127 0 -254 -43z" />
    <glyph glyph-name="ydieresis" unicode="&#xff;" horiz-adv-x="1056" 
d="M382 1295q-39 0 -67 27.5t-28 66.5t28 66.5t67 27.5t65.5 -27.5t26.5 -66.5t-26.5 -66.5t-65.5 -27.5zM710 1295q-39 0 -66.5 27.5t-27.5 66.5t27.5 66.5t66.5 27.5q40 0 67 -27.5t27 -66.5t-27 -66.5t-67 -27.5zM567 272l275 822h151l-509 -1497h-152l166 480l-442 1017
h159z" />
    <glyph glyph-name="Abreve" unicode="&#x102;" horiz-adv-x="1348" 
d="M824 1791h97q-10 -95 -72 -154.5t-176 -59.5t-175.5 59.5t-71.5 154.5h96q8 -54 47 -89.5t104 -35.5t104 35.5t47 89.5zM56 0l496 1339q39 107 126 107q88 0 126 -107l489 -1339h-169l-147 412h-612l-147 -412h-162zM932 538l-260 727l-262 -727h522z" />
    <glyph glyph-name="abreve" unicode="&#x103;" horiz-adv-x="1142" 
d="M173 953l-13 118q237 38 406 38q75 0 133.5 -8t113.5 -30.5t91 -58.5t57.5 -95.5t21.5 -139.5v-517q0 -112 -5 -187q-177 -88 -458 -88q-223 0 -325 76t-102 251q0 298 276 339q134 20 468 32v49q0 139 -63 195.5t-236 56.5q-152 0 -365 -31zM242 316q0 -122 67 -165.5
t227 -43.5q173 0 296 49q5 87 5 172v243q-295 -5 -415 -29q-97 -19 -138.5 -67.5t-41.5 -158.5zM735 1506h96q-10 -109 -71 -177t-176 -68q-114 0 -175 68t-72 177h96q8 -60 47 -101t104 -41t104 41t47 101z" />
    <glyph glyph-name="Aogonek" unicode="&#x104;" horiz-adv-x="1348" 
d="M1331 -277l28 -72q-67 -53 -159 -53q-78 0 -128 43.5t-50 118.5q0 65 39 128.5t92 111.5h-28l-147 412h-612l-148 -412h-161l495 1339q38 107 126 107q87 0 126 -107l489 -1339h-47q-110 -112 -110 -199q0 -47 27 -75t73 -28q54 0 95 25zM411 538h522l-261 727z" />
    <glyph glyph-name="aogonek" unicode="&#x105;" horiz-adv-x="1142" 
d="M983 777v-517q0 -112 -5 -187q-70 -35 -160 -57q-87 -98 -87 -174q0 -47 27 -75t73 -28q54 0 95 25l28 -72q-67 -53 -159 -53q-78 0 -128 43.5t-50 118.5q0 95 87 195q-91 -11 -184 -11q-223 0 -325 76t-102 251q0 298 276 339q134 20 468 32v49q0 139 -62.5 195.5
t-235.5 56.5q-153 0 -366 -31l-13 118q237 38 407 38q75 0 133.5 -8t113 -30.5t90.5 -58.5t57.5 -95.5t21.5 -139.5zM837 328v243q-293 -5 -415 -29q-97 -19 -138.5 -67.5t-41.5 -158.5q0 -122 66.5 -165.5t227.5 -43.5q173 0 297 49q4 104 4 172z" />
    <glyph glyph-name="Cacute" unicode="&#x106;" horiz-adv-x="1084" 
d="M1020 142l15 -124q-156 -33 -327 -33q-116 0 -203.5 18.5t-151.5 59t-106 97t-67.5 141.5t-36 184t-10.5 231t10.5 231t36 184t68 141.5t106.5 97t151 58.5t203 18q172 0 327 -31l-15 -126q-150 23 -250 23q-73 0 -132.5 -8t-105.5 -22t-81 -39t-60.5 -52t-43 -68.5
t-28 -80.5t-16 -96t-7.5 -108t-2 -122q0 -63 1.5 -111t6.5 -99t13 -89t21.5 -77t33 -67t46 -54t61 -43.5t78 -30.5t97 -19t118.5 -6q100 0 250 22zM930 1805l-257 -238h-129l193 238h193z" />
    <glyph glyph-name="cacute" unicode="&#x107;" horiz-adv-x="922" 
d="M836 138l14 -121q-155 -32 -287 -32q-77 0 -140 15.5t-107.5 42.5t-78.5 69t-54.5 88.5t-33.5 107t-17.5 120t-4.5 131.5q0 95 8 166t27.5 135.5t54 108.5t87 76.5t127 48t172.5 15.5q128 0 245 -31l-12 -115q-103 19 -183 19q-86 0 -146.5 -9.5t-102.5 -33.5t-67 -54
t-38 -82.5t-17 -106t-4 -137.5q0 -69 2.5 -114.5t10.5 -97t24 -83.5t43 -63.5t66.5 -48.5t96 -27.5t130.5 -10.5q72 0 185 24zM780 1541l-240 -294h-121l181 294h180z" />
    <glyph glyph-name="Ccaron" unicode="&#x10c;" horiz-adv-x="1084" 
d="M1020 142l15 -124q-158 -33 -327 -33q-99 0 -177.5 14t-138.5 41.5t-104 72.5t-74 101.5t-48 134.5t-25.5 166t-7.5 201q0 159 15.5 272t54 204t104 144.5t164.5 81.5t237 28q170 0 327 -31l-16 -126q-148 23 -250 23q-73 0 -132 -8t-105 -22t-81.5 -39t-60.5 -52
t-42.5 -68.5t-28 -80.5t-16 -96t-7.5 -108t-2 -122q0 -92 3.5 -155.5t15 -131t32 -111t55.5 -84.5t85.5 -64t121 -36.5t162.5 -13.5q101 0 251 22zM641 1641l145 164h128l-205 -238h-131l-211 238h131z" />
    <glyph glyph-name="ccaron" unicode="&#x10d;" horiz-adv-x="922" 
d="M836 138l14 -121q-156 -32 -287 -32q-77 0 -140 15.5t-107.5 42.5t-78.5 69t-54.5 88.5t-33.5 107t-17.5 120t-4.5 131.5q0 95 8 166t27.5 135.5t54 108.5t87 76.5t127 48t172.5 15.5q127 0 246 -31l-13 -115q-103 19 -182 19q-86 0 -147 -9.5t-103 -33.5t-66.5 -54
t-38 -82.5t-17.5 -106t-4 -137.5q0 -69 2.5 -114.5t10.5 -97t24 -83.5t43 -63.5t66.5 -48.5t96 -27.5t130.5 -10.5q72 0 185 24zM529 1340l135 203h120l-192 -294h-123l-196 294h122z" />
    <glyph glyph-name="Dcaron" unicode="&#x10e;" horiz-adv-x="1373" 
d="M567 1314q-96 0 -236 -17v-1161q141 -19 236 -19q105 0 185.5 17t134 40.5t89.5 73t54.5 88t28 114.5t11 124t1.5 142q0 73 -0.5 111t-5 100.5t-13.5 95.5t-26 81t-42 73.5t-63 56t-88 45t-117 25t-149 10.5zM173 19v1395q202 32 435 32q113 0 201 -15.5t153.5 -43.5
t112 -75.5t77 -103.5t48 -135t24 -163t6.5 -194q0 -130 -9.5 -224t-34.5 -181t-69 -144t-113 -100t-167 -62.5t-229 -19.5q-231 0 -435 34zM647 1643l145 164h128l-205 -238h-131l-211 238h131z" />
    <glyph glyph-name="dcaron" unicode="&#x10f;" horiz-adv-x="1183" 
d="M869 1068v449h149v-1257q0 -97 -6 -187q-168 -88 -411 -88q-178 0 -283.5 51.5t-157.5 174.5t-52 336q0 210 47.5 332.5t146 176t265.5 53.5q143 0 302 -41zM869 943q-127 43 -255 43q-91 0 -154 -17t-102.5 -48.5t-61.5 -87.5t-30 -121.5t-8 -164.5q0 -115 15.5 -193
t54 -135t105.5 -83.5t168 -26.5q157 0 264 49q4 69 4 172v613zM1386 1517l-150 -421h-104l113 421h141z" />
    <glyph glyph-name="Dcroat" unicode="&#x110;" horiz-adv-x="1431" 
d="M232 681h-125v117h125v616q202 32 435 32q113 0 201 -15.5t153.5 -43.5t112 -75.5t77 -103.5t48 -135t24 -163t6.5 -194q0 -130 -9.5 -224t-34.5 -181t-69 -144t-113 -100t-167 -62.5t-229 -19.5q-231 0 -435 34v662zM389 681v-545q141 -19 236 -19q105 0 185.5 17
t134 40.5t89.5 73t54.5 88t28 114.5t11 124t1.5 142q0 73 -0.5 111t-5 100.5t-13.5 95.5t-26 81t-42 73.5t-63 56t-88 45t-117 25t-149 10.5q-96 0 -236 -17v-499h231v-117h-231z" />
    <glyph glyph-name="dcroat" unicode="&#x111;" horiz-adv-x="1182" 
d="M648 1250v99h221v168h149v-168h150v-99h-150v-990q0 -97 -6 -187q-168 -88 -411 -88q-179 0 -284 51.5t-157 174.5t-52 336q0 310 105.5 436t353.5 126q143 0 302 -41v182h-221zM869 943q-127 43 -255 43q-91 0 -154 -17t-103 -48.5t-62 -87.5t-30 -122t-8 -164
q0 -115 15.5 -193t54 -135t106 -83.5t168.5 -26.5q157 0 264 49q4 104 4 172v613z" />
    <glyph glyph-name="Eogonek" unicode="&#x118;" horiz-adv-x="1103" 
d="M989 1303h-358q-103 0 -160 -10t-92 -42.5t-45 -82t-10 -139.5v-236h636v-128h-636v-264q0 -90 10 -139t45 -81.5t92 -42.5t160 -10h358v-125q-41 -2 -125 -4q-108 -110 -108 -198q0 -47 27 -75t73 -28q54 0 95 25l27 -72q-67 -53 -158 -53q-78 0 -128.5 43.5
t-50.5 118.5q0 63 38.5 126.5t90.5 111.5q-92 -2 -133 -2q-48 0 -80.5 1t-76.5 4t-73.5 9t-65 17.5t-59 27.5t-47 40t-37.5 54.5t-22.5 71.5t-8.5 91v806q0 50 8.5 91t22.5 71.5t37.5 54.5t47 40t59 27.5t65.5 18t73.5 9.5t76 4t80.5 1q165 0 352 -8v-124z" />
    <glyph glyph-name="eogonek" unicode="&#x119;" horiz-adv-x="1188" 
d="M1022 142l14 -120q-141 -22 -228 -28q-98 -107 -98 -187q0 -47 27 -75t73 -28q54 0 95 25l28 -72q-67 -53 -159 -53q-78 0 -128 43.5t-50 118.5q0 110 112 222q-120 -3 -130 -3q-105 0 -184.5 28t-130 76t-82 120.5t-44 154t-12.5 183.5q0 303 106.5 432.5t371.5 129.5
q136 0 229.5 -34t145.5 -101.5t74 -153.5t22 -204q0 -54 -3 -104q-92 -16 -256.5 -31t-281.5 -20l-259 -11q7 -89 25.5 -148t58.5 -104.5t108 -66t170 -20.5q155 0 386 31zM603 987q-102 0 -168 -25.5t-102 -81.5t-49.5 -130t-13.5 -187l290 14q191 8 362 30q2 22 2 77
q0 147 -74.5 225t-246.5 78z" />
    <glyph glyph-name="Ecaron" unicode="&#x11a;" horiz-adv-x="1102" 
d="M989 1427v-124h-358q-103 0 -160 -10t-92 -42.5t-45 -82t-10 -139.5v-236h636v-128h-636v-264q0 -90 10 -139t45 -81.5t92 -42.5t160 -10h358v-125q-160 -7 -352 -7q-48 0 -80.5 1t-76.5 4t-73.5 9t-65 17.5t-59 27.5t-47 40t-37.5 54.5t-22.5 71.5t-8.5 91v806
q0 50 8.5 91t22.5 71.5t37.5 54.5t47 40t59 27.5t65.5 18t73.5 9.5t76 4t80.5 1q165 0 352 -8zM324 1802h131l143 -164l144 164h129l-206 -238h-131z" />
    <glyph glyph-name="ecaron" unicode="&#x11b;" horiz-adv-x="1188" 
d="M578 -15q-105 0 -184.5 28t-130 76t-82 120.5t-44 154t-12.5 183.5q0 303 106.5 432.5t371.5 129.5q136 0 229.5 -34t145.5 -101.5t74 -153.5t22 -204q0 -54 -3 -104q-92 -16 -256 -31t-281 -20l-259 -11q7 -89 25.5 -148t58.5 -104.5t108 -66t170 -20.5q154 0 385 31
l15 -120q-243 -37 -459 -37zM271 563l289 14q191 8 362 30q2 22 2 77q0 147 -74.5 225t-246.5 78q-102 0 -167.5 -25.5t-101.5 -81.5t-49.5 -130t-13.5 -187zM600 1334l135 203h120l-192 -294h-123l-197 294h123z" />
    <glyph glyph-name="Gbreve" unicode="&#x11e;" horiz-adv-x="1305" 
d="M758 624v127h416v-529q0 -47 -12.5 -83t-32 -61t-54.5 -42.5t-69 -27t-87 -15t-97.5 -7t-110.5 -1.5q-172 0 -284 41.5t-176.5 135t-89.5 224.5t-25 330q0 161 15.5 274.5t54 204t104.5 143.5t164 80.5t237 27.5q243 0 420 -32l-14 -127q-182 24 -345 24q-73 0 -132 -8
t-105 -22t-81.5 -38.5t-60.5 -51.5t-42.5 -68t-28 -80.5t-16 -96t-7.5 -108t-2 -122.5q0 -70 2 -121.5t7.5 -108t16.5 -96t28.5 -80.5t42.5 -68t60.5 -52t81.5 -39.5t105 -22.5t131 -8q68 0 115 9t72.5 22.5t39 38.5t16.5 47t3 59v328h-260zM442 1787h97q8 -54 46.5 -89
t103.5 -35t104.5 35.5t47.5 88.5h96q-10 -95 -71.5 -154t-176.5 -59q-114 0 -175.5 59t-71.5 154z" />
    <glyph glyph-name="gbreve" unicode="&#x11f;" horiz-adv-x="1188" 
d="M193 -379l13 119q214 -33 372 -33q173 0 235.5 57t62.5 196v91q-157 -41 -302 -41q-166 0 -264 51t-146.5 171.5t-48.5 326.5q0 207 52.5 327.5t158 171.5t282.5 51q243 0 411 -88q6 -90 6 -187v-919q0 -80 -21.5 -139.5t-57.5 -96t-91 -59t-113.5 -30.5t-133.5 -8
q-171 0 -415 39zM608 986q-100 0 -167 -26t-105.5 -81.5t-54.5 -132t-16 -187.5q0 -96 8 -160.5t30.5 -118.5t62.5 -84t102.5 -46.5t153.5 -16.5q127 0 254 43v588q0 103 -4 172q-109 50 -264 50zM753 1506h97q-10 -109 -71.5 -177t-175.5 -68t-175.5 68t-71.5 177h96
q8 -60 47 -101t104 -41t103.5 41t46.5 101z" />
    <glyph glyph-name="Idotaccent" unicode="&#x130;" horiz-adv-x="505" 
d="M253 1584q-41 0 -69.5 28.5t-28.5 69.5t28.5 69t69.5 28t69 -28t28 -69t-28 -69.5t-69 -28.5zM174 0v1432h158v-1432h-158z" />
    <glyph glyph-name="dotlessi" unicode="&#x131;" horiz-adv-x="457" 
d="M154 0v1094h150v-1094h-150z" />
    <glyph glyph-name="Lacute" unicode="&#x139;" horiz-adv-x="991" 
d="M967 128v-126q-173 -6 -327 -6q-48 0 -80.5 1t-76.5 4t-73.5 9t-65 17.5t-59 27.5t-47 40t-37.5 54.5t-22.5 71.5t-8.5 91v1120h158v-1031q0 -90 10 -138.5t45 -81.5t92 -43t160 -10h332zM570 1807l-257 -238h-129l193 238h193z" />
    <glyph glyph-name="lacute" unicode="&#x13a;" horiz-adv-x="459" 
d="M141 283v1234h149v-1223q0 -165 88 -277l-127 -66q-110 125 -110 332zM154 1622l193 237h192l-256 -237h-129z" />
    <glyph glyph-name="Lcaron" unicode="&#x13d;" horiz-adv-x="991" 
d="M967 128v-126q-173 -6 -327 -6q-48 0 -80.5 1t-76.5 4t-73.5 9t-65 17.5t-59 27.5t-47 40t-37.5 54.5t-22.5 71.5t-8.5 91v1120h158v-1031q0 -90 10 -138.5t45 -81.5t92 -43t160 -10h332zM732 1432l-150 -422h-104l112 422h142z" />
    <glyph glyph-name="lcaron" unicode="&#x13e;" horiz-adv-x="458" 
d="M141 283v1234h148v-1223q0 -165 88 -277l-126 -66q-110 125 -110 332zM404 1096l113 421h141l-150 -421h-104z" />
    <glyph glyph-name="Lslash" unicode="&#x141;" horiz-adv-x="1083" 
d="M262 713v719h158v-605l309 223v-136l-309 -222v-291q0 -90 10 -138.5t45 -81.5t92 -43t160 -10h332v-126q-174 -6 -327 -6q-48 0 -80.5 1t-76.5 4t-73.5 9t-65 17.5t-59 27.5t-47 40t-37.5 54.5t-22.5 71.5t-8.5 91v267l-174 -125v135z" />
    <glyph glyph-name="lslash" unicode="&#x142;" horiz-adv-x="496" 
d="M313 782v-488q0 -167 88 -277l-127 -66q-111 126 -111 332v374l-159 -132v138l159 133v721h150v-597l164 138v-139z" />
    <glyph glyph-name="Nacute" unicode="&#x143;" horiz-adv-x="1438" 
d="M413 1344l705 -1136v1224h145v-1334q0 -57 -26 -85t-71 -28q-42 0 -74.5 24.5t-65.5 78.5l-705 1137v-1225h-145v1334q0 57 26 84.5t71 27.5q41 0 74 -24.5t66 -77.5zM621 1566l193 237h192l-256 -237h-129z" />
    <glyph glyph-name="nacute" unicode="&#x144;" horiz-adv-x="1230" 
d="M308 759v-759h-148v831q0 97 6 187q209 91 494 91q78 0 140 -11t104.5 -29t73.5 -47.5t48.5 -60.5t27.5 -74.5t13 -83t3 -92.5v-711h-148v684q0 67 -6 111t-24.5 83t-53 60.5t-90.5 33.5t-138 12q-70 0 -158.5 -15.5t-138.5 -38.5q-5 -87 -5 -171zM523 1252l181 294h179
l-239 -294h-121z" />
    <glyph glyph-name="Ncaron" unicode="&#x147;" horiz-adv-x="1437" 
d="M412 1344l706 -1136v1224h145v-1334q0 -57 -26 -85t-71 -28q-42 0 -74.5 24.5t-65.5 78.5l-705 1137v-1225h-145v1334q0 57 26 84.5t71 27.5q76 0 139 -102zM444 1797h131l143 -164l145 164h128l-205 -237h-132z" />
    <glyph glyph-name="ncaron" unicode="&#x148;" horiz-adv-x="1230" 
d="M308 759v-759h-148v831q0 112 5 187q209 91 494 91q79 0 140.5 -11t104.5 -29t73.5 -47.5t48.5 -60.5t28 -74.5t13 -83t3 -92.5v-711h-148v684q0 67 -6 111t-24.5 83t-53 60.5t-90.5 33.5t-138 12q-70 0 -158.5 -15.5t-138.5 -38.5q-5 -87 -5 -171zM359 1541h123
l133 -203l135 203h121l-193 -294h-123z" />
    <glyph glyph-name="Ohungarumlaut" unicode="&#x150;" horiz-adv-x="1388" 
d="M694 -15q-162 0 -268.5 40t-170.5 132t-89.5 225t-25.5 334t25.5 334t89.5 224.5t170.5 131.5t268.5 40t268.5 -40t170.5 -131.5t89.5 -224.5t25.5 -334t-25.5 -334t-89.5 -225t-170.5 -132t-268.5 -40zM694 119q80 0 141 16t103 40t70.5 70t44 88t23.5 112.5t10 126
t2 144.5q0 62 -1 102.5t-3.5 93.5t-9 88t-16 77t-25 69.5t-37 57t-50.5 47.5t-65.5 33.5t-83.5 22t-103 6.5q-80 0 -141.5 -16t-103 -40t-70 -70t-44 -87.5t-23.5 -112.5t-10 -126t-2 -145t2 -144.5t10 -125.5t23.5 -113t44 -88t70 -70t103 -40t141.5 -16zM453 1573l183 237
h188l-248 -237h-123zM758 1573l184 237h188l-249 -237h-123z" />
    <glyph glyph-name="ohungarumlaut" unicode="&#x151;" horiz-adv-x="1219" 
d="M610 -15q-264 0 -372 127t-108 435t108 435t372 127q263 0 371.5 -128.5t108.5 -433.5q0 -304 -108.5 -433t-371.5 -129zM610 111q188 0 259.5 93.5t71.5 342.5t-71 342.5t-260 93.5q-128 0 -197 -37t-101 -130.5t-32 -268.5t32 -268.5t101 -130.5t197 -37zM377 1265
l171 294h176l-232 -294h-115zM662 1265l172 294h176l-233 -294h-115z" />
    <glyph glyph-name="OE" unicode="&#x152;" horiz-adv-x="2024" 
d="M1911 1303h-358q-103 0 -160 -10t-92 -42.5t-45 -82t-10 -139.5v-236h635v-128h-635v-264q0 -90 10 -139t45 -81.5t92 -42.5t160 -10h358v-125q-158 -7 -352 -7q-48 0 -81 1t-76.5 4.5t-73.5 10t-64.5 18.5t-58 29t-45 42.5t-34.5 58.5q-61 -90 -166 -132.5t-266 -42.5
q-162 0 -268.5 40t-170.5 132t-89.5 225t-25.5 334t25.5 334t89.5 224.5t170.5 131.5t268.5 40q161 0 266.5 -42.5t166.5 -132.5q15 38 39.5 66t59 45.5t69 28.5t83.5 16t87 6.5t94 1.5q165 0 352 -8v-124zM694 119q80 0 141 16t103 40t70.5 70t44 88t23.5 112.5t10 126
t2 144.5q0 62 -1 102.5t-3.5 93.5t-9 88t-16 77t-25 69.5t-37 57t-50.5 47.5t-65.5 33.5t-83.5 22t-103 6.5q-80 0 -141.5 -16t-103 -40t-70 -70t-44 -87.5t-23.5 -112.5t-10 -126t-2 -145t2 -144.5t10 -125.5t23.5 -113t44 -88t70 -70t103 -40t141.5 -16z" />
    <glyph glyph-name="oe" unicode="&#x153;" horiz-adv-x="2004" 
d="M610 1109q158 0 255.5 -45.5t148.5 -144.5q51 99 148.5 144.5t256.5 45.5q109 0 191 -23t135 -64t85.5 -104t45.5 -135.5t13 -166.5q0 -54 -3 -104q-92 -16 -256 -31t-281 -20l-259 -11q7 -89 25.5 -148t58.5 -104.5t108 -66t170 -20.5q155 0 386 31l14 -120
q-243 -37 -459 -37q-273 0 -375 197q-51 -103 -149.5 -150t-258.5 -47q-264 0 -372 127t-108 435t108 435t372 127zM610 983q-96 0 -156 -19t-100.5 -69t-57 -133t-16.5 -215t16.5 -215t57 -133t100.5 -69t156 -19q128 0 198 40.5t101 133.5t31 262q0 249 -70.5 342.5
t-259.5 93.5zM1086 563l289 14q191 8 362 30q3 33 3 77q0 147 -74.5 225t-246.5 78q-102 0 -168 -25.5t-102 -81.5t-49.5 -130t-13.5 -187z" />
    <glyph glyph-name="Racute" unicode="&#x154;" horiz-adv-x="1285" 
d="M330 0h-157v1413q198 33 437 33q70 0 127 -4t116 -16t104 -31.5t85.5 -52t66.5 -76t41.5 -105.5t15.5 -139q0 -199 -90.5 -297t-261.5 -125l350 -600h-183l-333 587h-22q-118 0 -296 10v-597zM330 1299v-569q125 -13 280 -13q100 0 170 14t123.5 47.5t79.5 94t26 149.5
q0 160 -89 228t-303 68q-147 0 -287 -19zM896 1807l-256 -238h-129l193 238h192z" />
    <glyph glyph-name="racute" unicode="&#x155;" horiz-adv-x="718" 
d="M307 0h-148v834q0 97 6 187q168 88 411 88q62 0 102 -5l-13 -126q-35 4 -89 4q-155 0 -264 -50q-5 -130 -5 -172v-760zM476 1547h180l-240 -293h-121z" />
    <glyph glyph-name="Rcaron" unicode="&#x158;" horiz-adv-x="1285" 
d="M330 0h-157v1413q198 33 437 33q70 0 127 -4t116 -16t104 -31.5t85.5 -52t66.5 -76t41.5 -105.5t15.5 -139q0 -199 -90.5 -297t-261.5 -125l350 -600h-183l-333 587h-22q-118 0 -296 10v-597zM330 1299v-569q125 -13 280 -13q100 0 170 14t123.5 47.5t79.5 94t26 149.5
q0 160 -89 228t-303 68q-147 0 -287 -19zM624 1643l145 164h129l-206 -238h-131l-211 238h132z" />
    <glyph glyph-name="rcaron" unicode="&#x159;" horiz-adv-x="718" 
d="M308 0h-149v834q0 97 6 187q168 88 411 88q62 0 102 -5l-13 -126q-36 4 -89 4q-155 0 -264 -50q-4 -69 -4 -172v-760zM280 1541l134 -203l135 203h120l-192 -294h-123l-197 294h123z" />
    <glyph glyph-name="Sacute" unicode="&#x15a;" horiz-adv-x="1072" 
d="M645 1312q-70 0 -122 -4t-105.5 -18t-88 -37t-56 -63.5t-21.5 -96.5q0 -48 6 -82t25 -62t39.5 -46t64 -37t83 -31.5t111.5 -33.5q75 -21 131 -44t108.5 -57t85.5 -76.5t53 -102t20 -133.5q0 -215 -127 -309t-381 -94q-194 0 -367 34l16 129q179 -27 345 -27
q65 0 115.5 6.5t96 24t75 46t46.5 75t17 108.5q0 52 -15.5 92.5t-39 67.5t-68 51t-85.5 39t-109 36q-72 22 -119 38.5t-98 41t-81.5 52.5t-56.5 66t-37.5 87.5t-11.5 112.5q0 208 121.5 294.5t367.5 86.5q180 0 361 -32l-14 -127q-167 25 -285 25zM852 1811l-256 -237h-130
l194 237h192z" />
    <glyph glyph-name="sacute" unicode="&#x15b;" horiz-adv-x="966" 
d="M555 984q-35 0 -56.5 -0.5t-56.5 -3.5t-57 -9t-48.5 -17t-42 -27t-26 -41t-10.5 -56q0 -24 3.5 -44t13 -36t18 -28.5t27 -24t30.5 -18.5t38.5 -16t41.5 -14t48 -15t50 -15q75 -23 121.5 -41t93.5 -45t72 -58t41 -76.5t16 -105.5q0 -88 -31 -149.5t-89.5 -95.5t-131 -48.5
t-166.5 -14.5q-176 0 -348 37l14 117q154 -26 282 -26h45t46.5 1.5t48.5 4.5t45 9t43 14.5t35.5 21.5t30 29.5t17.5 39.5t7 51q0 40 -12 69.5t-29.5 49t-54 36.5t-68.5 28t-90 28q-9 3 -14 4q-140 42 -187 65q-121 60 -148 173q-8 36 -8 79q0 84 27 142t79.5 90.5
t118.5 46.5t153 14q181 0 357 -36l-15 -116q-158 27 -274 27zM782 1553l-239 -293h-121l180 293h180z" />
    <glyph glyph-name="Scedilla" unicode="&#x15e;" horiz-adv-x="1072" 
d="M944 1414l-14 -127q-167 25 -285 25q-70 0 -122 -4t-105.5 -18t-88 -37t-56 -63.5t-21.5 -96.5q0 -48 6 -82t25 -62t39.5 -46t64 -37t83 -31.5t111.5 -33.5q75 -21 131 -44t108.5 -57t85.5 -76.5t53 -102t20 -133.5q0 -182 -91.5 -276.5t-271.5 -117.5l-58 -90
q67 -3 112.5 -40.5t45.5 -100.5q0 -83 -60.5 -122.5t-152.5 -39.5q-84 0 -144 34l28 75q61 -28 117 -28q40 0 68.5 17t28.5 56q0 47 -56 71t-114 24l80 136q-7 0 -20 -0.5t-20 -0.5q-194 0 -367 34l16 129q179 -27 345 -27q65 0 115.5 6.5t96 24t75 46t46.5 75t17 108.5
q0 52 -15.5 92.5t-39 67.5t-68 51t-85.5 39t-109 36q-72 22 -119 38.5t-98 41t-81.5 52.5t-56.5 66t-37.5 87.5t-11.5 112.5q0 208 121.5 294.5t367.5 86.5q180 0 361 -32z" />
    <glyph glyph-name="scedilla" unicode="&#x15f;" horiz-adv-x="966" 
d="M575 -7l-57 -90q67 -3 112.5 -40.5t45.5 -99.5q0 -83 -60.5 -122.5t-152.5 -39.5q-85 0 -144 33l28 75q59 -27 118 -27q40 0 68 16.5t28 55.5q0 47 -56 71t-114 24l80 136h-17q-176 0 -348 37l14 117q156 -26 282 -26h45t46.5 1.5t48.5 4.5t45 9t43 14.5t35.5 21.5
t30 29.5t17.5 39.5t7 51q0 40 -12 69.5t-29.5 49t-54 36.5t-68.5 28t-90 28q-9 3 -14 4q-140 42 -187 65q-121 60 -148 173q-8 36 -8 79q0 84 27 142t79.5 90.5t118.5 46.5t153 14q181 0 357 -36l-15 -116q-158 27 -274 27q-35 0 -56.5 -0.5t-56.5 -3.5t-57 -9t-48.5 -17
t-42 -27t-26 -41t-10.5 -56q0 -24 3.5 -44t13 -36t18 -28.5t27 -24t30.5 -18.5t38.5 -16t41.5 -14t48 -15t50 -15q75 -23 121.5 -41t93.5 -45t72 -58t41 -76.5t16 -105.5q0 -142 -77.5 -212t-219.5 -88z" />
    <glyph glyph-name="Scaron" unicode="&#x160;" horiz-adv-x="1072" 
d="M645 1312q-70 0 -122 -4t-105.5 -18t-88 -37t-56 -63.5t-21.5 -96.5q0 -48 6 -82t25 -62t39.5 -46t64 -37t83 -31.5t111.5 -33.5q95 -27 161.5 -57.5t123 -78t84.5 -116.5t28 -161q0 -215 -127 -309t-380 -94q-194 0 -367 34l16 129q179 -27 345 -27q65 0 115.5 6.5
t96 24t75 46t46.5 75t17 108.5q0 52 -15.5 92.5t-39 67.5t-68 51t-85.5 39t-109 36q-72 22 -119 38.5t-98 41t-81.5 52.5t-56.5 66t-37.5 87.5t-11.5 112.5q0 208 121.5 294.5t367.5 86.5q180 0 361 -32l-14 -127q-167 25 -285 25zM554 1647l145 164h128l-205 -237h-132
l-210 237h131z" />
    <glyph glyph-name="scaron" unicode="&#x161;" horiz-adv-x="966" 
d="M555 984q-35 0 -56.5 -0.5t-56.5 -3.5t-57 -9t-48.5 -17t-42 -27t-26 -41t-10.5 -56q0 -24 3.5 -44t13 -36t18 -28.5t27 -24t30.5 -18.5t38.5 -16.5t41 -14t47.5 -14.5t50 -15q75 -23 122 -41t94 -45t72 -58t41 -76.5t16 -105.5q0 -88 -31 -149.5t-89.5 -95.5t-131 -48.5
t-166.5 -14.5q-176 0 -348 37l14 117q154 -26 282 -26h45t46 1.5t48.5 4.5t45 9t43 14.5t35.5 21.5t29.5 29.5t17.5 39.5t7 51q0 49 -14 82t-55 57.5t-73.5 36.5t-111.5 35q-9 3 -13 4q-140 42 -187 65q-122 59 -148 172q-9 36 -9 80q0 161 99 227t280 66t357 -36l-15 -116
q-158 27 -274 27zM488 1340l135 203h120l-192 -294h-123l-196 294h123z" />
    <glyph glyph-name="uni0162" unicode="&#x162;" horiz-adv-x="1032" 
d="M987 1432v-131h-392v-1301h-158v1301h-392v131h942zM346 -516l104 392h132l-140 -392h-96z" />
    <glyph glyph-name="uni0163" unicode="&#x163;" horiz-adv-x="720" 
d="M253 1379l149 24v-309h244v-118h-244v-684q0 -112 41 -148t146 -36q29 0 59 3l13 -114q-74 -12 -119 -12q-152 0 -220.5 68.5t-68.5 218.5v704h-200v118h200v285zM292 -524l104 393h132l-140 -393h-96z" />
    <glyph glyph-name="Tcaron" unicode="&#x164;" horiz-adv-x="1033" 
d="M987 1432v-131h-391v-1301h-159v1301h-392v131h942zM242 1785h131l143 -164l145 164h128l-205 -238h-132z" />
    <glyph glyph-name="tcaron" unicode="&#x165;" horiz-adv-x="720" 
d="M253 1379l149 24v-309h244v-118h-244v-684q0 -112 41 -148t146 -36q29 0 59 3l12 -114q-72 -12 -118 -12q-152 0 -220.5 68.5t-68.5 218.5v704h-200v118h200v285zM525 1231l112 422h142l-151 -422h-103z" />
    <glyph glyph-name="Uring" unicode="&#x16e;" horiz-adv-x="1368" 
d="M1198 1432v-969q0 -93 -16 -166.5t-48.5 -126t-76 -88.5t-103.5 -57.5t-126 -30.5t-147 -9q-98 0 -174 13t-142 46t-109 86.5t-67 137t-24 195.5v969h156v-985q0 -169 84.5 -248t275.5 -79q193 0 277 79t84 248v985h156zM681 1521q-83 0 -141 58.5t-58 141.5t58.5 141.5
t140.5 58.5q83 0 142 -58.5t59 -141.5t-59 -141.5t-142 -58.5zM681 1603q50 0 84.5 34.5t34.5 83.5t-35 83.5t-84 34.5t-83.5 -34.5t-34.5 -83.5t34.5 -83.5t83.5 -34.5z" />
    <glyph glyph-name="uring" unicode="&#x16f;" horiz-adv-x="1226" 
d="M155 383v711h149v-684q0 -56 4 -94t15.5 -74.5t33 -58.5t55.5 -39.5t84 -25t118 -7.5q70 0 158 15t137 38q4 104 4 171v759h149v-830q0 -97 -6 -187q-211 -92 -491 -92q-108 0 -185 21t-120 54t-67.5 88t-31 107t-6.5 128zM608 1204q-83 0 -142 59t-59 142q0 82 59 140.5
t142 58.5q82 0 140.5 -58t58.5 -141t-58.5 -142t-140.5 -59zM608 1286q49 0 83.5 35t34.5 84t-34.5 83.5t-83.5 34.5t-84 -34.5t-35 -83.5t34.5 -84t84.5 -35z" />
    <glyph glyph-name="Uhungarumlaut" unicode="&#x170;" horiz-adv-x="1368" 
d="M1198 1432v-969q0 -93 -16 -166.5t-48.5 -126t-76 -88.5t-103.5 -57.5t-126 -30.5t-147 -9q-98 0 -174 13t-142 46t-109 86.5t-67 137t-24 195.5v969h156v-985q0 -169 84.5 -248t275.5 -79q193 0 276.5 79t83.5 248v985h157zM423 1575l183 238h188l-248 -238h-123z
M728 1575l183 238h188l-248 -238h-123z" />
    <glyph glyph-name="uhungarumlaut" unicode="&#x171;" horiz-adv-x="1226" 
d="M155 383v711h149v-684q0 -56 4 -94t15.5 -74.5t33 -58.5t55.5 -39.5t84 -25t118 -7.5q70 0 158 15t137 38q4 104 4 171v759h149v-830q0 -97 -6 -187q-211 -92 -491 -92q-108 0 -185 21t-120 54t-67.5 88t-31 107t-6.5 128zM373 1281l171 294h176l-232 -294h-115z
M658 1281l172 294h176l-232 -294h-116z" />
    <glyph glyph-name="Ydieresis" unicode="&#x178;" horiz-adv-x="1158" 
d="M428 1577q-39 0 -67 27t-28 66t28 66.5t67 27.5t65.5 -27.5t26.5 -66.5t-26.5 -66t-65.5 -27zM756 1577q-39 0 -66.5 27t-27.5 66t27.5 66.5t66.5 27.5q40 0 67 -27.5t27 -66.5t-27 -66t-67 -27zM656 557v-557h-158v557l-457 875h172l366 -715l373 715h166z" />
    <glyph glyph-name="Zacute" unicode="&#x179;" horiz-adv-x="1103" 
d="M990 1290l-713 -1158h736v-132h-842q-97 0 -97 63q0 31 29 79l715 1158h-696v132h800q97 0 97 -63q0 -32 -29 -79zM455 1558l194 238h192l-256 -238h-130z" />
    <glyph glyph-name="zacute" unicode="&#x17a;" horiz-adv-x="1074" 
d="M951 985l-655 -860h645v-125h-794q-32 0 -49.5 13.5t-17.5 36.5q0 27 24 60l656 863h-632v121h780q32 0 49.5 -13.5t17.5 -36.5q0 -27 -24 -59zM453 1263l181 294h179l-239 -294h-121z" />
    <glyph glyph-name="Zdotaccent" unicode="&#x17b;" horiz-adv-x="1103" 
d="M991 1290l-714 -1158h736v-132h-842q-97 0 -97 63q0 31 29 79l715 1158h-696v132h800q97 0 97 -63q0 -34 -28 -79zM558 1585q-41 0 -69.5 28t-28.5 69t28.5 69t69.5 28t68.5 -28t27.5 -69t-27.5 -69t-68.5 -28z" />
    <glyph glyph-name="zdotaccent" unicode="&#x17c;" horiz-adv-x="1074" 
d="M951 985l-655 -860h645v-125h-794q-32 0 -49.5 13.5t-17.5 36.5q0 29 24 60l656 863h-632v121h780q32 0 49.5 -13.5t17.5 -36.5q0 -27 -24 -59zM571 1278q-41 0 -69.5 28.5t-28.5 69.5t28.5 69t69.5 28t69 -28t28 -69t-28 -69.5t-69 -28.5z" />
    <glyph glyph-name="Zcaron" unicode="&#x17d;" horiz-adv-x="1103" 
d="M990 1290l-713 -1158h736v-132h-842q-97 0 -97 63q0 31 29 79l715 1158h-696v132h800q97 0 97 -63q0 -32 -29 -79zM291 1796h132l142 -164l145 164h129l-206 -238h-132z" />
    <glyph glyph-name="zcaron" unicode="&#x17e;" horiz-adv-x="1074" 
d="M951 985l-654 -860h644v-125h-794q-32 0 -49.5 13.5t-17.5 36.5q0 27 24 60l657 863h-633v121h781q32 0 49 -13.5t17 -36.5q0 -26 -24 -59zM289 1557h123l134 -203l135 203h120l-192 -294h-123z" />
    <glyph glyph-name="florin" unicode="&#x192;" horiz-adv-x="927" 
d="M382 857l33 243q20 140 114.5 221.5t238.5 81.5q52 0 107 -11l-16 -122q-34 7 -77 7q-190 0 -223 -234l-26 -186h268l-16 -121h-269l-88 -634q-26 -186 -126.5 -283t-249.5 -97q-32 0 -57 3l17 121h20q95 0 161 60t83 181l89 649h-229l16 121h230z" />
    <glyph glyph-name="uni0218" unicode="&#x218;" horiz-adv-x="1072" 
d="M645 1312q-70 0 -122 -4t-106 -18t-88 -37t-56 -63.5t-22 -96.5q0 -36 3.5 -64t14 -51.5t21.5 -41t34 -34t43.5 -27.5t58 -25t69.5 -24t86 -25q95 -27 161.5 -57.5t123 -78t84.5 -116.5t28 -161q0 -215 -127 -309t-380 -94q-194 0 -367 34l16 129q179 -27 345 -27
q65 0 115.5 6.5t96 24t75 46t46.5 75t17 108.5q0 52 -15.5 92.5t-39 67.5t-68 51t-85.5 39t-109 36q-61 18 -103 32.5t-88 34.5t-75.5 41t-58.5 50t-45 63t-25.5 78.5t-9.5 98.5q0 208 121.5 294.5t367.5 86.5q181 0 362 -32l-14 -127q-167 25 -285 25zM643 -130l-140 -392
h-97l105 392h132z" />
    <glyph glyph-name="uni0219" unicode="&#x219;" horiz-adv-x="966" 
d="M554 984q-35 0 -56.5 -0.5t-56.5 -3.5t-57 -9t-48.5 -17t-42 -27t-26 -41t-10.5 -56q0 -24 3.5 -44t13 -36t18 -28.5t27 -24t30.5 -18.5t38.5 -16t41.5 -14t48 -15t50 -15q75 -23 121.5 -41t94 -45t72.5 -58t41 -76.5t16 -105.5q0 -71 -21 -124.5t-57.5 -88t-90.5 -56.5
t-114.5 -30.5t-135.5 -8.5q-176 0 -348 37l15 117q156 -26 282 -26h45t46 1.5t48.5 4.5t45 9t43 14.5t35.5 21.5t29.5 29.5t17.5 39.5t7 51q0 40 -12 69.5t-29.5 49t-53.5 36.5t-68.5 28t-89.5 28q-9 3 -14 4q-140 42 -187 65q-122 59 -148 172q-9 36 -9 80q0 161 99 227
t280 66t357 -36l-16 -116q-158 27 -274 27zM597 -125l-140 -392h-96l104 392h132z" />
    <glyph glyph-name="uni021A" unicode="&#x21a;" horiz-adv-x="1033" 
d="M987 1432v-131h-392v-1301h-158v1301h-392v131h942zM346 -516l104 392h132l-140 -392h-96z" />
    <glyph glyph-name="uni021B" unicode="&#x21b;" horiz-adv-x="720" 
d="M253 1379l149 24v-309h244v-118h-244v-684q0 -112 40.5 -148t145.5 -36q30 0 60 3l12 -114q-74 -12 -119 -12q-152 0 -220 68.5t-68 218.5v704h-200v118h200v285zM291 -524l105 393h132l-140 -393h-97z" />
    <glyph glyph-name="circumflex" unicode="&#x2c6;" horiz-adv-x="674" 
d="M273 1464h124l196 -293h-122l-134 202l-135 -202h-120z" />
    <glyph glyph-name="caron" unicode="&#x2c7;" horiz-adv-x="640" 
d="M65 1464h122l134 -203l135 203h120l-192 -293h-123z" />
    <glyph glyph-name="uni02C9" unicode="&#x2c9;" horiz-adv-x="852" 
d="M145 1245v107h562v-107h-562z" />
    <glyph glyph-name="breve" unicode="&#x2d8;" horiz-adv-x="666" 
d="M484 1440h97q-10 -109 -72 -177t-176 -68t-175.5 68t-71.5 177h96q9 -61 47.5 -101.5t103.5 -40.5t104 41t47 101z" />
    <glyph glyph-name="dotaccent" unicode="&#x2d9;" horiz-adv-x="400" 
d="M200 1217q-41 0 -69 28t-28 69t28 69t69 28t69 -28t28 -69t-28 -69t-69 -28z" />
    <glyph glyph-name="ring" unicode="&#x2da;" horiz-adv-x="608" 
d="M304 1139q-83 0 -141.5 58.5t-58.5 141.5t59 141.5t141 58.5q83 0 141.5 -58.5t58.5 -141.5t-58.5 -141.5t-141.5 -58.5zM304 1220q50 0 84.5 35t34.5 84t-35 83.5t-84 34.5t-83.5 -34.5t-34.5 -83.5q0 -50 34.5 -84.5t83.5 -34.5z" />
    <glyph glyph-name="ogonek" unicode="&#x2db;" horiz-adv-x="438" 
d="M372 -283l29 -72q-70 -54 -160 -54q-78 0 -127.5 44t-49.5 119q0 67 41.5 132.5t96.5 113.5h92q-116 -116 -116 -205q0 -47 27 -75t73 -28q55 0 94 25z" />
    <glyph glyph-name="tilde" unicode="&#x2dc;" horiz-adv-x="721" 
d="M516 1409h93q-9 -97 -50.5 -150t-94.5 -53q-39 0 -69.5 16t-46 35.5t-35 35.5t-39.5 16q-52 0 -68 -98h-94q9 97 51 149.5t95 52.5q39 0 69 -16t46 -35t35.5 -35t39.5 -16q52 0 68 98z" />
    <glyph glyph-name="hungarumlaut" unicode="&#x2dd;" horiz-adv-x="739" 
d="M70 1163l171 294h176l-232 -294h-115zM355 1163l172 294h175l-231 -294h-116z" />
    <glyph glyph-name="uni03A9" unicode="&#x3a9;" horiz-adv-x="1514" 
d="M114 0v129h295q-118 111 -191.5 275t-73.5 359q0 197 82 354t223.5 243t315.5 86q135 0 250.5 -55.5t193 -149t121 -215.5t43.5 -255q0 -201 -76 -369.5t-192 -272.5h295v-129h-500v102q62 41 117.5 100.5t102.5 139t74.5 184.5t27.5 219q0 103 -29.5 202.5t-85 183
t-145 134.5t-199.5 51q-141 0 -248.5 -77t-163 -207t-55.5 -291q0 -210 95 -383t226 -256v-102h-503z" />
    <glyph glyph-name="uni03BC" unicode="&#x3bc;" horiz-adv-x="1220" 
d="M194 -403v1497h141v-701q0 -119 59 -196t170 -77q138 0 214.5 125.5t76.5 327.5v521h143v-719q0 -47 0.5 -69.5t3 -59t8.5 -55.5t16 -41.5t26.5 -35.5t39.5 -21v-108q-55 0 -96 19.5t-65 55t-37.5 74.5t-20.5 90h-1q-42 -114 -124.5 -176.5t-182.5 -62.5
q-70 0 -125.5 26.5t-105.5 84.5v-499h-140z" />
    <glyph glyph-name="pi" unicode="&#x3c0;" horiz-adv-x="1396" 
d="M1320 963h-274q-34 -201 -34 -452q0 -204 62 -301.5t201 -97.5l-11 -127q-95 0 -165.5 23t-113.5 61.5t-69.5 97t-36 122t-9.5 144.5q0 254 43 530h-410q-44 -718 -120 -963h-163q58 196 91 416.5t59 546.5h-82q-59 0 -103.5 -10t-101.5 -37l-36 84q93 94 298 94h990z
" />
    <glyph glyph-name="uni200A" unicode="&#x200a;" horiz-adv-x="44" 
 />
    <glyph glyph-name="uni2010" unicode="&#x2010;" horiz-adv-x="818" 
d="M146 479v130h526v-130h-526z" />
    <glyph glyph-name="endash" unicode="&#x2013;" horiz-adv-x="1279" 
d="M146 484v121h988v-121h-988z" />
    <glyph glyph-name="emdash" unicode="&#x2014;" horiz-adv-x="2234" 
d="M146 484v121h1942v-121h-1942z" />
    <glyph glyph-name="quoteleft" unicode="&#x2018;" horiz-adv-x="444" 
d="M88 1029l176 488h122l-130 -488h-168z" />
    <glyph glyph-name="quoteright" unicode="&#x2019;" horiz-adv-x="444" 
d="M88 1029l131 488h167l-175 -488h-123z" />
    <glyph glyph-name="quotesinglbase" unicode="&#x201a;" horiz-adv-x="439" 
d="M55 -255l129 488h167l-174 -488h-122z" />
    <glyph glyph-name="quotedblleft" unicode="&#x201c;" horiz-adv-x="739" 
d="M88 1029l175 488h122l-129 -488h-168zM385 1029l174 488h122l-129 -488h-167z" />
    <glyph glyph-name="quotedblright" unicode="&#x201d;" horiz-adv-x="739" 
d="M88 1029l130 488h167l-174 -488h-123zM385 1029l129 488h167l-174 -488h-122z" />
    <glyph glyph-name="quotedblbase" unicode="&#x201e;" horiz-adv-x="735" 
d="M55 -255l129 488h167l-174 -488h-122zM351 -255l130 488h166l-174 -488h-122z" />
    <glyph glyph-name="dagger" unicode="&#x2020;" horiz-adv-x="1102" 
d="M474 1046v414h148v-414h400v-129h-400v-1175h-148v1175h-393v129h393z" />
    <glyph glyph-name="daggerdbl" unicode="&#x2021;" horiz-adv-x="1153" 
d="M503 -258v720h-394v128h394v373h-394v130h394v367h147v-367h395v-130h-395v-373h395v-128h-395v-720h-147z" />
    <glyph glyph-name="bullet" unicode="&#x2022;" horiz-adv-x="800" 
d="M399 407q-116 0 -197.5 82.5t-81.5 198.5t81.5 198t197.5 82t198.5 -82t82.5 -198t-82.5 -198.5t-198.5 -82.5z" />
    <glyph glyph-name="ellipsis" unicode="&#x2026;" horiz-adv-x="1761" 
d="M225 -15q-52 0 -71 23.5t-19 84.5t19.5 85.5t70.5 24.5t70.5 -24.5t19.5 -85.5t-19 -84.5t-71 -23.5zM881 -15q-52 0 -71 23.5t-19 84.5t19.5 85.5t70.5 24.5t70 -24.5t19 -85.5t-18.5 -84.5t-70.5 -23.5zM1536 -15q-52 0 -71 23.5t-19 84.5t19.5 85.5t70.5 24.5
t70.5 -24.5t19.5 -85.5t-19 -84.5t-71 -23.5z" />
    <glyph glyph-name="perthousand" unicode="&#x2030;" horiz-adv-x="2389" 
d="M401 596q-74 0 -127 17.5t-86.5 49t-53 85.5t-26.5 117t-7 153q0 113 12 186t44 129t91.5 81t152.5 25q92 0 151.5 -25t92.5 -80.5t45 -129t12 -186.5t-12 -186.5t-45 -129.5t-92.5 -81t-151.5 -25zM401 688q33 0 60 5.5t46 19t33 28t23 39.5t14.5 47t8.5 57t3.5 63
t0.5 71t-0.5 71t-3.5 63t-8.5 57t-14.5 47t-23 39.5t-33 28t-46 19t-60 5.5q-38 0 -67.5 -8.5t-49.5 -22t-33.5 -38.5t-21 -48t-11.5 -62.5t-5 -70t-1 -80.5t1 -80.5t5 -70t11.5 -62.5t21 -48t33.5 -38.5t49.5 -22t67.5 -8.5zM1275 -7q-92 0 -151.5 25t-92 80.5t-44.5 129
t-12 186.5t12 186.5t44.5 129.5t92 81t151.5 25t151.5 -25t92.5 -81t45 -129.5t12 -186.5t-12 -186.5t-45 -129t-92.5 -80.5t-151.5 -25zM1275 84q45 0 77.5 10t53 33t33 47.5t18 67.5t7 78.5t1.5 93.5t-1.5 93.5t-7 78.5t-18 68t-33 48t-53 33t-77.5 10q-38 0 -67.5 -8.5
t-49.5 -22t-33.5 -39t-21 -48.5t-11.5 -62.5t-5 -70t-1 -80.5q0 -43 0.5 -71t3.5 -63t8.5 -57t14.5 -47t23 -39.5t33 -28t46 -19t60 -5.5zM1980 -7q-92 0 -151.5 25t-91.5 81t-44 129t-12 186t12 186.5t44 129.5t91.5 81t151.5 25q93 0 152.5 -25t92 -81t44.5 -129.5
t12 -186.5t-12 -186.5t-44.5 -129t-92 -80.5t-152.5 -25zM1980 84q45 0 77.5 10t53 33t33 47.5t18 67.5t7 78.5t1.5 93.5t-1.5 93.5t-7 78.5t-18 68t-33 48t-53 33t-77.5 10q-38 0 -67.5 -9t-49.5 -22t-33.5 -38.5t-21 -48.5t-11 -62.5t-4.5 -69.5t-1 -81q0 -39 0.5 -63.5
t2.5 -57t5.5 -52.5t10 -45t16 -39.5t23.5 -30t32.5 -24t43 -13.5t54.5 -5zM356 -29l840 1490h124l-841 -1490h-123z" />
    <glyph glyph-name="guilsinglleft" unicode="&#x2039;" horiz-adv-x="615" 
d="M251 530l259 -403h-151l-285 403l285 403h151z" />
    <glyph glyph-name="guilsinglright" unicode="&#x203a;" horiz-adv-x="614" 
d="M541 530l-285 -403h-152l260 403l-259 403h151z" />
    <glyph glyph-name="fraction" unicode="&#x2044;" horiz-adv-x="318" 
d="M-323 -29l840 1490h124l-841 -1490h-123z" />
    <glyph glyph-name="uni2070" unicode="&#x2070;" horiz-adv-x="772" 
d="M386 831q-74 0 -127 17.5t-86.5 49t-53 85.5t-26.5 117t-7 153q0 113 12 186t44 129t91.5 81t152.5 25q92 0 151.5 -25t92.5 -80.5t45 -129t12 -186.5t-12 -186.5t-45 -129.5t-92.5 -81t-151.5 -25zM386 923q38 0 67.5 8.5t49.5 22t34 38t21.5 48t11.5 62.5t5 70.5
t1 80.5q0 38 -0.5 63t-2.5 57t-6 53t-10.5 45t-16.5 39t-24.5 30.5t-32.5 24t-42.5 13.5t-54.5 5q-38 0 -67.5 -8.5t-49.5 -22t-33.5 -38.5t-21 -48.5t-11.5 -62.5t-5 -69.5t-1 -80.5q0 -44 0.5 -71.5t3 -63t8 -57t14.5 -46.5t23 -40t33.5 -28t46 -18.5t60.5 -5.5z" />
    <glyph glyph-name="uni2074" unicode="&#x2074;" horiz-adv-x="731" 
d="M457 839v196h-335q-47 0 -65.5 17t-18.5 48q0 35 46 95l326 419q46 59 96 59q27 0 44 -17.5t17 -52.5v-480h111v-88h-111v-196h-110zM457 1518l-303 -395h303v395z" />
    <glyph glyph-name="uni2075" unicode="&#x2075;" horiz-adv-x="680" 
d="M206 1572l-15 -229q42 2 74 2q68 0 115.5 -4.5t95 -20t76 -42t46 -72t17.5 -109.5q0 -139 -76.5 -201.5t-228.5 -62.5q-124 0 -249 25l13 88q108 -18 203 -18q125 0 174.5 37t49.5 142q0 38 -13.5 65.5t-35 43.5t-57.5 25t-71.5 11.5t-85.5 2.5q-91 0 -159 -4l29 415h484
v-94h-386z" />
    <glyph glyph-name="uni2076" unicode="&#x2076;" horiz-adv-x="747" 
d="M393 1352q72 0 122.5 -11t90.5 -39t59.5 -79t19.5 -127q0 -78 -21.5 -131t-64.5 -82t-97 -41t-129 -12q-87 0 -145.5 23t-90.5 69.5t-44.5 105.5t-12.5 142q0 100 8 171t28 129.5t53 95t85 61.5t121.5 35.5t165.5 10.5q29 0 78 -1l9 -89q-152 -6 -181 -9
q-153 -18 -209 -108q-31 -52 -38 -129q133 15 193 15zM369 1263q-62 0 -176 -16q-3 -47 -3 -94q0 -40 3.5 -69.5t14.5 -61.5t30 -52.5t52.5 -34t79.5 -13.5q114 0 159.5 39.5t45.5 135.5q0 99 -48.5 132.5t-157.5 33.5z" />
    <glyph glyph-name="uni2077" unicode="&#x2077;" horiz-adv-x="626" 
d="M585 1571l-335 -730h-124l349 731h-444v93h488q76 0 76 -54q0 -19 -10 -40z" />
    <glyph glyph-name="uni2078" unicode="&#x2078;" horiz-adv-x="751" 
d="M375 1674q133 0 211.5 -50t78.5 -154q0 -73 -25.5 -119.5t-93.5 -81.5q132 -62 132 -205q0 -69 -23.5 -116.5t-67.5 -72t-94.5 -34.5t-117.5 -10q-142 0 -221.5 53.5t-79.5 179.5q0 79 33.5 126.5t97.5 77.5q-63 32 -90.5 80.5t-27.5 121.5q0 105 76.5 154.5t211.5 49.5z
M375 921q91 0 142 31.5t51 115.5q0 77 -50.5 111t-160.5 43q-84 -11 -129 -45.5t-45 -108.5q0 -83 51 -115t141 -32zM394 1311q79 14 122 45t43 97q0 40 -14.5 67t-41.5 41t-57.5 19.5t-70.5 5.5q-84 0 -132.5 -28.5t-48.5 -104.5q0 -68 49.5 -101.5t150.5 -40.5z" />
    <glyph glyph-name="uni2079" unicode="&#x2079;" horiz-adv-x="746" 
d="M351 1153q-148 0 -220.5 55t-72.5 202q0 150 79.5 208t233.5 58q88 0 146.5 -23t90 -70t44 -105.5t12.5 -142.5q0 -120 -12 -200t-41.5 -141.5t-83.5 -95.5t-132 -50t-193 -16q-28 0 -77 1l-9 89q152 6 181 9q151 18 207 107q33 51 40 130q-135 -15 -193 -15zM375 1242
q62 0 176 16q2 31 2 94q0 51 -6 87t-23.5 71.5t-55 54t-94.5 18.5q-114 0 -159 -39.5t-45 -135.5q0 -99 48 -132.5t157 -33.5z" />
    <glyph glyph-name="uni2080" unicode="&#x2080;" horiz-adv-x="772" 
d="M386 -243q-74 0 -127 17.5t-86.5 49t-53 85.5t-26.5 117t-7 153q0 113 12 186t44 129t91.5 81t152.5 25q92 0 151.5 -25t92.5 -80.5t45 -129t12 -186.5t-12 -186.5t-45 -129.5t-92.5 -81t-151.5 -25zM386 -151q38 0 67.5 8.5t49.5 22t34 38t21.5 48t11.5 62.5t5 70.5
t1 80.5q0 38 -0.5 63t-2.5 57t-6 53t-10.5 45t-16.5 39t-24.5 30.5t-32.5 24t-42.5 13.5t-54.5 5q-38 0 -67.5 -8.5t-49.5 -22t-33.5 -38.5t-21 -48.5t-11.5 -62.5t-5 -69.5t-1 -80.5q0 -44 0.5 -71.5t3 -63t8 -57t14.5 -46.5t23 -40t33.5 -28t46 -18.5t60.5 -5.5z" />
    <glyph glyph-name="uni2081" unicode="&#x2081;" horiz-adv-x="446" 
d="M229 -232v710q-96 -27 -201 -42l-5 91q124 20 230 66h85v-825h-109z" />
    <glyph glyph-name="uni2082" unicode="&#x2082;" horiz-adv-x="670" 
d="M76 487l-10 86q136 25 254 25q137 0 211.5 -46t74.5 -152q0 -110 -61 -182t-179 -120q-95 -39 -132.5 -91.5t-51.5 -146.5h424v-95h-553q14 82 25.5 130.5t30 97t43.5 78.5t62.5 57t92.5 50q91 39 139.5 85t48.5 116q0 72 -48.5 99t-168.5 27q-83 0 -202 -18z" />
    <glyph glyph-name="uni2083" unicode="&#x2083;" horiz-adv-x="670" 
d="M287 600q64 0 112.5 -8t92.5 -28.5t67.5 -62t23.5 -102.5q0 -142 -115 -198q56 -22 92.5 -71t36.5 -120q0 -139 -80 -196t-235 -57q-123 0 -238 24l13 89q146 -19 199 -19q120 0 173 32.5t53 120.5q0 61 -34 97.5t-93 43.5q-47 6 -129 6h-49v84q88 1 177 14q56 9 86.5 44
t30.5 87q0 34 -10 58t-26 37.5t-43.5 21t-54 9.5t-66.5 2q-72 0 -207 -19l-12 87q130 24 235 24z" />
    <glyph glyph-name="uni2084" unicode="&#x2084;" horiz-adv-x="731" 
d="M457 -235v196h-335q-47 0 -65.5 17t-18.5 48q0 34 46 94l326 420q45 58 96 58q27 0 44 -17.5t17 -52.5v-479h111v-88h-111v-196h-110zM457 444l-303 -395h303v395z" />
    <glyph glyph-name="uni2085" unicode="&#x2085;" horiz-adv-x="680" 
d="M206 498l-15 -229q42 2 74 2q68 0 115.5 -4.5t95 -20t76 -42t46 -72t17.5 -109.5q0 -139 -76.5 -201.5t-228.5 -62.5q-124 0 -249 25l13 88q108 -18 203 -18q125 0 174.5 37t49.5 142q0 38 -13.5 65.5t-35 43.5t-57.5 25t-71.5 11.5t-85.5 2.5q-91 0 -159 -4l29 415h484
v-94h-386z" />
    <glyph glyph-name="uni2086" unicode="&#x2086;" horiz-adv-x="747" 
d="M393 278q72 0 122.5 -11t90.5 -39t59.5 -79t19.5 -127q0 -78 -21.5 -131.5t-64.5 -82.5t-97 -41t-129 -12q-87 0 -145.5 23t-90.5 70t-44.5 105.5t-12.5 142.5q0 100 8 171t28 129.5t53 95t85 61.5t121.5 35.5t165.5 10.5q29 0 78 -1l9 -89q-152 -6 -181 -9
q-153 -18 -209 -108q-31 -51 -38 -129q133 15 193 15zM369 189q-62 0 -176 -16q-3 -47 -3 -94q0 -40 3.5 -69.5t14.5 -61.5t30 -52.5t52.5 -34t79.5 -13.5q114 0 159.5 39.5t45.5 135.5q0 99 -48.5 132.5t-157.5 33.5z" />
    <glyph glyph-name="uni2087" unicode="&#x2087;" horiz-adv-x="626" 
d="M585 496l-335 -729h-124l349 731h-444v93h488q76 0 76 -55q0 -19 -10 -40z" />
    <glyph glyph-name="uni2088" unicode="&#x2088;" horiz-adv-x="751" 
d="M375 600q133 0 211.5 -50t78.5 -154q0 -73 -25.5 -119.5t-93.5 -81.5q132 -62 132 -205q0 -69 -23.5 -116.5t-67.5 -72t-94.5 -34.5t-117.5 -10q-142 0 -221.5 53.5t-79.5 179.5q0 79 33.5 126.5t97.5 77.5q-63 32 -90.5 80.5t-27.5 121.5q0 105 76.5 154.5t211.5 49.5z
M375 -153q91 0 142 31.5t51 115.5q0 77 -50.5 110.5t-160.5 42.5q-85 -11 -129.5 -45t-44.5 -108q0 -83 51 -115t141 -32zM394 237q79 14 122 45t43 97q0 40 -14.5 67t-41.5 41t-57.5 19.5t-70.5 5.5q-84 0 -132.5 -28.5t-48.5 -104.5q0 -68 49.5 -101.5t150.5 -40.5z" />
    <glyph glyph-name="uni2089" unicode="&#x2089;" horiz-adv-x="746" 
d="M351 79q-148 0 -220.5 54.5t-72.5 201.5q0 150 79.5 208.5t233.5 58.5q88 0 146.5 -23t90 -70t44 -105.5t12.5 -142.5q0 -120 -12 -200t-41.5 -141.5t-83.5 -95.5t-132 -50t-193 -16q-28 0 -77 1l-9 89q152 6 181 9q151 18 207 107q33 51 40 130q-135 -15 -193 -15z
M375 168q62 0 176 16q2 31 2 94q0 51 -6 87t-23.5 71.5t-55 54t-94.5 18.5q-114 0 -159 -39.5t-45 -135.5q0 -99 48 -132.5t157 -33.5z" />
    <glyph glyph-name="Euro" unicode="&#x20ac;" horiz-adv-x="1082" 
d="M981 139l12 -121q-134 -33 -275 -33q-126 0 -212.5 31t-141.5 100t-82 168t-36 244h-156l22 103h130q-1 20 -1 63q0 54 1 80h-140l23 103h122q19 281 123.5 403.5t347.5 122.5q145 0 275 -32l-12 -122q-138 24 -225 24q-100 0 -167.5 -25t-106 -78.5t-56.5 -122
t-24 -170.5h475l-22 -103h-456q-1 -26 -1 -80v-63h425l-23 -103h-398q6 -106 23.5 -177.5t56 -127t106 -81.5t168.5 -26q85 0 225 23z" />
    <glyph glyph-name="uni2113" unicode="&#x2113;" horiz-adv-x="986" 
d="M243 553q0 97 1.5 167t5.5 154.5t11.5 144.5t20.5 126t31.5 111.5t45 88.5t60.5 68.5t79.5 41t99.5 15.5q109 0 166.5 -81t57.5 -205q0 -310 -432 -665q16 -218 68.5 -319.5t175.5 -101.5q63 0 110.5 30t112.5 96l59 -68q-125 -171 -316 -171q-302 0 -352 445l-142 -87
l-41 85zM388 661q154 147 231.5 270.5t77.5 258.5q0 33 -5.5 62t-17 55.5t-34 42t-53.5 15.5q-35 0 -63 -16t-47.5 -47t-34.5 -67.5t-23.5 -87.5t-14.5 -96.5t-8.5 -104.5t-3.5 -102t-2 -98.5t-2 -84.5z" />
    <glyph glyph-name="trademark" unicode="&#x2122;" horiz-adv-x="1992" 
d="M1814 574h-115v721h-1l-309 -721h-77l-308 721h-1v-721h-116v858h178l289 -676l284 676h176v-858zM761 1432v-100h-278v-758h-114v758h-278v100h670z" />
    <glyph glyph-name="Omega" unicode="&#x2126;" horiz-adv-x="1514" 
d="M114 0v129h295q-118 111 -191.5 275t-73.5 359q0 197 82 354t223.5 243t315.5 86q135 0 250.5 -55.5t193 -149t121 -215.5t43.5 -255q0 -201 -76 -369.5t-192 -272.5h295v-129h-500v102q62 41 117.5 100.5t102.5 139t74.5 184.5t27.5 219q0 103 -29.5 202.5t-85 183
t-145 134.5t-199.5 51q-141 0 -248.5 -77t-163 -207t-55.5 -291q0 -210 95 -383t226 -256v-102h-503z" />
    <glyph glyph-name="estimated" unicode="&#x212e;" horiz-adv-x="1700" 
d="M1377 305h127q-125 -153 -282.5 -236.5t-366.5 -83.5q-163 0 -302.5 51.5t-236 141t-151 214t-54.5 266.5q0 134 52.5 255.5t147 214.5t236 148t308.5 55q171 0 308.5 -51t229 -142.5t144.5 -212.5t66 -267h-1167v-455q172 -145 419 -145q327 0 522 247zM436 1112v-381
h841v381q-185 147 -422 147q-249 0 -419 -147z" />
    <glyph glyph-name="uni2190" unicode="&#x2190;" horiz-adv-x="1443" 
d="M355 532l351 -414h-159l-447 483l447 483h159l-351 -414h990v-138h-990z" />
    <glyph glyph-name="uni2191" unicode="&#x2191;" horiz-adv-x="1164" 
d="M652 968v-990h-138v990l-414 -350v157l483 449l482 -449v-157z" />
    <glyph glyph-name="uni2192" unicode="&#x2192;" horiz-adv-x="1443" 
d="M1345 601l-449 -483h-158l351 414h-989v138h989l-351 414h158z" />
    <glyph glyph-name="uni2193" unicode="&#x2193;" horiz-adv-x="1164" 
d="M1065 586v-159l-482 -449l-483 449v159l414 -351v989h138v-989z" />
    <glyph glyph-name="uni21E8" unicode="&#x21e8;" horiz-adv-x="1637" 
d="M954 323h-838v558h838v341l641 -620l-641 -621v342zM1453 602l-399 379v-201h-839v-357h839v-201z" />
    <glyph glyph-name="partialdiff" unicode="&#x2202;" horiz-adv-x="1086" 
d="M449 -15q-115 0 -197.5 60t-121 154t-38.5 208q0 224 117 363t321 139q92 0 167.5 -44.5t112.5 -100.5h2q-2 304 -83.5 452.5t-258.5 148.5q-64 0 -111 -15.5t-103 -48.5l-29 96q124 87 288 87q112 0 197.5 -50.5t139 -143.5t80 -218.5t26.5 -281.5q0 -237 -59 -418
t-175.5 -284t-274.5 -103zM542 794q-138 0 -218 -113t-80 -273q0 -82 23.5 -151t76 -115t124.5 -46q77 0 139 47t101 125.5t61.5 168.5t29.5 187q-101 170 -257 170z" />
    <glyph glyph-name="Delta" unicode="&#x2206;" horiz-adv-x="1315" 
d="M1238 108v-108h-1161v104l496 1328h180zM1072 127l-415 1138l-419 -1138h834z" />
    <glyph glyph-name="product" unicode="&#x220f;" horiz-adv-x="1585" 
d="M1509 1475v-137h-241v-1611h-154v1611h-641v-1611h-153v1611h-244v137h1433z" />
    <glyph glyph-name="summation" unicode="&#x2211;" horiz-adv-x="1228" 
d="M87 1475h1044v-131h-839l547 -722l-584 -753h910v-142h-1102v111l591 766l-567 761v110z" />
    <glyph glyph-name="minus" unicode="&#x2212;" horiz-adv-x="1193" 
d="M100 532v138h995v-138h-995z" />
    <glyph glyph-name="uni2215" unicode="&#x2215;" horiz-adv-x="318" 
d="M-323 -29l840 1490h124l-841 -1490h-123z" />
    <glyph glyph-name="uni2219" unicode="&#x2219;" horiz-adv-x="465" 
d="M232 478q-52 0 -70.5 23.5t-18.5 84.5t19 85.5t70 24.5t71 -24.5t20 -85.5t-19 -84.5t-72 -23.5z" />
    <glyph glyph-name="radical" unicode="&#x221a;" horiz-adv-x="1132" 
d="M1076 1741l-422 -1849h-146l-294 856l-140 -55l-35 110l279 109l258 -800l365 1629h135z" />
    <glyph glyph-name="infinity" unicode="&#x221e;" horiz-adv-x="1653" 
d="M409 926q181 0 350 -213q38 47 61.5 75t59.5 66.5t65.5 61t66 44.5t75 32t79.5 10q109 0 191 -57t122.5 -147t40.5 -196q0 -165 -96 -283t-258 -118q-49 0 -97.5 17t-84.5 40t-80.5 67t-72 75.5t-72.5 87.5q-164 -209 -350 -209q-126 0 -211.5 97t-85.5 226t85.5 226.5
t211.5 97.5zM409 410q61 0 125 43.5t148 148.5q-84 105 -148 148.5t-125 43.5q-73 0 -120.5 -52t-47.5 -140t47.5 -140t120.5 -52zM1166 335q97 0 157.5 70.5t60.5 196.5t-60.5 196t-157.5 70q-144 0 -324 -266q179 -267 324 -267z" />
    <glyph glyph-name="integral" unicode="&#x222b;" horiz-adv-x="712" 
d="M721 1514q-45 32 -100 32q-39 0 -70.5 -14t-52.5 -36t-36.5 -55.5t-24 -66t-13 -74.5t-6 -74.5t-1.5 -72.5q0 -163 18 -495t18 -503q0 -67 -8.5 -131.5t-31.5 -134t-58.5 -121t-95.5 -85t-137 -33.5q-42 0 -92 13.5t-77 29.5l30 120q65 -36 129 -36q195 0 195 386
q0 157 -17.5 503.5t-17.5 501.5q0 75 7.5 139.5t30.5 133.5t59.5 116.5t99.5 78.5t146 31q35 0 77 -12.5t62 -26.5z" />
    <glyph glyph-name="approxequal" unicode="&#x2248;" horiz-adv-x="1333" 
d="M1176 503v-139q-49 -53 -126 -80t-155 -27q-53 0 -102.5 13.5t-88.5 32.5t-78 37.5t-87.5 32t-99.5 13.5q-78 0 -155 -26.5t-127 -79.5v139q50 53 127 79.5t155 26.5q53 0 102.5 -13.5t88.5 -32.5t78 -37.5t87.5 -32t99.5 -13.5q78 0 155 27t126 80zM1176 923v-140
q-49 -52 -126 -79t-155 -27q-53 0 -102.5 13.5t-88.5 32t-78 37.5t-87.5 32.5t-99.5 13.5q-78 0 -155 -27t-127 -80v140q50 53 126.5 80t155.5 27q64 0 126 -20.5t104 -44.5t103 -44.5t123 -20.5q78 0 155 27t126 80z" />
    <glyph glyph-name="notequal" unicode="&#x2260;" horiz-adv-x="1309" 
d="M157 322v138h378l124 282h-502v137h563l149 342h114l-150 -342h319v-137h-379l-124 -282h503v-138h-563l-150 -341h-113l149 341h-318z" />
    <glyph glyph-name="lessequal" unicode="&#x2264;" horiz-adv-x="1257" 
d="M128 664v130l978 419v-151l-799 -333l799 -334v-150zM128 -10v138h978v-138h-978z" />
    <glyph glyph-name="greaterequal" unicode="&#x2265;" horiz-adv-x="1258" 
d="M152 395l799 334l-799 333v151l978 -419v-130l-978 -419v150zM152 -10v138h978v-138h-978z" />
    <glyph glyph-name="lozenge" unicode="&#x25ca;" horiz-adv-x="1088" 
d="M997 718l-381 -758h-143l-381 758l381 754h143zM544 103l300 615l-300 616l-299 -616z" />
    <glyph glyph-name="zero.numerator" horiz-adv-x="772" 
d="M386 597q-93 0 -152.5 25t-91.5 81t-44 129t-12 186t12 186t44 129t91.5 81t152.5 25q92 0 151.5 -25t92.5 -80.5t45 -129t12 -186.5t-12 -186.5t-45 -129t-92.5 -80.5t-151.5 -25zM386 688q38 0 67.5 8.5t49.5 22t34 38t21.5 48t11.5 62.5t5 70.5t1 80.5q0 38 -0.5 63
t-2.5 57t-6 53t-10.5 45t-16.5 39t-24.5 30.5t-32.5 24t-42.5 13.5t-54.5 5q-38 0 -67.5 -8.5t-49.5 -22t-33.5 -38.5t-21 -48.5t-11.5 -62.5t-5 -69.5t-1 -80.5q0 -44 0.5 -71.5t3 -63t8 -57t14.5 -46.5t23 -40t33.5 -28t46 -18.5t60.5 -5.5z" />
    <glyph glyph-name="one.numerator" horiz-adv-x="446" 
d="M229 607v710q-89 -25 -201 -41l-5 90q124 20 230 66h85v-825h-109z" />
    <glyph glyph-name="two.numerator" horiz-adv-x="670" 
d="M76 1326l-10 87q136 25 254 25q286 0 286 -199q0 -110 -61 -182t-179 -120q-95 -39 -132.5 -91.5t-51.5 -146.5h424v-95h-553q14 82 25.5 130.5t30 97t43.5 78.5t62.5 57t92.5 50q91 39 139.5 85t48.5 116q0 72 -48.5 99t-168.5 27q-83 0 -202 -18z" />
    <glyph glyph-name="three.numerator" horiz-adv-x="670" 
d="M287 1439q65 0 113 -8t92 -28t67.5 -61.5t23.5 -102.5q0 -143 -115 -199q56 -23 92.5 -71t36.5 -119q0 -139 -80 -196t-235 -57q-123 0 -238 24l13 88q146 -19 199 -19q120 0 173 33t53 121q0 61 -34 97t-93 43q-47 6 -129 6h-49v85q88 1 177 14q56 9 86.5 44t30.5 87
q0 42 -13.5 68.5t-43.5 39t-61 16t-82 3.5q-72 0 -207 -19l-12 88q125 23 235 23z" />
    <glyph glyph-name="four.numerator" horiz-adv-x="731" 
d="M457 604v196h-335q-47 0 -65.5 17t-18.5 48q0 35 46 95l326 419q46 59 96 59q27 0 44 -17.5t17 -52.5v-480h111v-88h-111v-196h-110zM457 1283l-303 -395h303v395z" />
    <glyph glyph-name="five.numerator" horiz-adv-x="680" 
d="M206 1337l-15 -229q42 2 74 2q68 0 115.5 -4.5t95 -20t76 -42t46 -72t17.5 -109.5q0 -139 -76.5 -201.5t-228.5 -62.5q-124 0 -249 25l13 89q114 -19 203 -19q125 0 174.5 37t49.5 142q0 38 -13.5 65.5t-35 43.5t-57 25t-71.5 12t-86 3q-74 0 -159 -5l29 416h484v-95
h-386z" />
    <glyph glyph-name="six.numerator" horiz-adv-x="747" 
d="M393 1117q72 0 122.5 -11t90.5 -39t59.5 -79t19.5 -127q0 -78 -21.5 -131t-64.5 -82t-97 -41t-129 -12q-87 0 -145.5 23t-90.5 69.5t-44.5 105.5t-12.5 142q0 100 8 171t28 129.5t53 95t85 61.5t121.5 35.5t165.5 10.5q29 0 78 -1l9 -89q-152 -6 -181 -9
q-153 -18 -209 -108q-31 -52 -38 -129q133 15 193 15zM369 1029q-55 0 -176 -17q-3 -47 -3 -94q0 -40 3.5 -69.5t14.5 -61.5t30 -52.5t52.5 -34t79.5 -13.5q114 0 159.5 40t45.5 136q0 99 -48.5 132.5t-157.5 33.5z" />
    <glyph glyph-name="seven.numerator" horiz-adv-x="626" 
d="M585 1336l-335 -730h-124l349 731h-444v93h488q76 0 76 -54q0 -19 -10 -40z" />
    <glyph glyph-name="eight.numerator" horiz-adv-x="751" 
d="M375 1439q133 0 211.5 -50t78.5 -154q0 -73 -25.5 -119.5t-93.5 -81.5q132 -62 132 -205q0 -69 -23.5 -116.5t-67.5 -71.5t-94.5 -34t-117.5 -10q-142 0 -221.5 53.5t-79.5 179.5q0 79 33.5 126.5t97.5 77.5q-63 32 -90.5 80t-27.5 121q0 105 76.5 154.5t211.5 49.5z
M375 686q91 0 142 31.5t51 115.5q0 77 -50.5 111t-160.5 43q-84 -11 -129 -45.5t-45 -108.5q0 -83 51 -115t141 -32zM394 1077q79 14 122 44.5t43 96.5q0 40 -14.5 67t-41.5 41t-57.5 19.5t-70.5 5.5q-84 0 -132.5 -28.5t-48.5 -104.5q0 -67 49.5 -100.5t150.5 -40.5z" />
    <glyph glyph-name="nine.numerator" horiz-adv-x="746" 
d="M351 919q-148 0 -220.5 54.5t-72.5 201.5q0 150 79.5 208t233.5 58q88 0 146.5 -23t90 -70t44 -105.5t12.5 -142.5q0 -120 -12 -200t-41.5 -141.5t-83.5 -95.5t-132 -50t-193 -16q-28 0 -77 1l-9 90q153 6 179 9q151 17 208 104q34 52 41 132q-126 -14 -193 -14z
M375 1007q55 0 176 17q2 31 2 94q0 51 -6 87t-23.5 71.5t-55 54t-94.5 18.5q-114 0 -159 -40t-45 -136q0 -99 48 -132.5t157 -33.5z" />
    <glyph glyph-name="zero.denominator" horiz-adv-x="772" 
d="M386 -7q-93 0 -152.5 25t-91.5 81t-44 129t-12 186t12 186t44 129t91.5 81t152.5 25q92 0 151.5 -25t92.5 -80.5t45 -129t12 -186.5t-12 -186.5t-45 -129t-92.5 -80.5t-151.5 -25zM386 84q38 0 67.5 8.5t49.5 22t34 38t21.5 48t11.5 62.5t5 70.5t1 80.5q0 38 -0.5 63
t-2.5 57t-6 53t-10.5 45t-16.5 39t-24.5 30.5t-32.5 24t-42.5 13.5t-54.5 5q-38 0 -67.5 -8.5t-49.5 -22t-33.5 -38.5t-21 -48.5t-11.5 -62.5t-5 -69.5t-1 -80.5q0 -44 0.5 -71.5t3 -63t8 -57t14.5 -46.5t23 -40t33.5 -28t46 -18.5t60.5 -5.5z" />
    <glyph glyph-name="one.denominator" horiz-adv-x="446" 
d="M229 3v710q-89 -25 -201 -41l-5 90q124 20 230 66h85v-825h-109z" />
    <glyph glyph-name="two.denominator" horiz-adv-x="670" 
d="M76 722l-10 87q136 25 254 25q286 0 286 -199q0 -110 -61 -182t-179 -120q-95 -39 -132.5 -91.5t-51.5 -146.5h424v-95h-553q14 82 25.5 130.5t30 97t43.5 78.5t62.5 57t92.5 50q91 39 139.5 85t48.5 116q0 72 -48.5 99t-168.5 27q-83 0 -202 -18z" />
    <glyph glyph-name="three.denominator" horiz-adv-x="670" 
d="M287 835q65 0 113 -8t92 -28t67.5 -61.5t23.5 -102.5q0 -143 -115 -199q56 -23 92.5 -71t36.5 -119q0 -139 -80 -196t-235 -57q-123 0 -238 24l13 88q146 -19 199 -19q120 0 173 33t53 121q0 61 -34 97t-93 43q-47 6 -129 6h-49v85q88 1 177 14q56 9 86.5 44t30.5 87
q0 42 -13.5 68.5t-43.5 39t-61 16t-82 3.5q-72 0 -207 -19l-12 88q125 23 235 23z" />
    <glyph glyph-name="four.denominator" horiz-adv-x="731" 
d="M457 0v196h-335q-47 0 -65.5 17t-18.5 48q0 35 46 95l326 419q46 59 96 59q27 0 44 -17.5t17 -52.5v-480h111v-88h-111v-196h-110zM457 679l-303 -395h303v395z" />
    <glyph glyph-name="five.denominator" horiz-adv-x="680" 
d="M206 733l-15 -229q42 2 74 2q68 0 115.5 -4.5t95 -20t76 -42t46 -72t17.5 -109.5q0 -139 -76.5 -201.5t-228.5 -62.5q-124 0 -249 25l13 89q114 -19 203 -19q125 0 174.5 37t49.5 142q0 38 -13.5 65.5t-35 43.5t-57 25t-71.5 12t-86 3q-74 0 -159 -5l29 416h484v-95h-386
z" />
    <glyph glyph-name="six.denominator" horiz-adv-x="747" 
d="M393 513q72 0 122.5 -11t90.5 -39t59.5 -79t19.5 -127q0 -78 -21.5 -131t-64.5 -82t-97 -41t-129 -12q-87 0 -145.5 23t-90.5 69.5t-44.5 105.5t-12.5 142q0 100 8 171t28 129.5t53 95t85 61.5t121.5 35.5t165.5 10.5q29 0 78 -1l9 -89q-152 -6 -181 -9
q-153 -18 -209 -108q-31 -51 -38 -129q133 15 193 15zM369 425q-55 0 -176 -17q-3 -47 -3 -94q0 -40 3.5 -69.5t14.5 -61.5t30 -52.5t52.5 -34t79.5 -13.5q114 0 159.5 40t45.5 136q0 99 -48.5 132.5t-157.5 33.5z" />
    <glyph glyph-name="seven.denominator" horiz-adv-x="626" 
d="M585 732l-335 -730h-124l349 731h-444v93h488q76 0 76 -54q0 -19 -10 -40z" />
    <glyph glyph-name="eight.denominator" horiz-adv-x="751" 
d="M375 835q133 0 211.5 -50t78.5 -154q0 -73 -25.5 -119.5t-93.5 -81.5q132 -62 132 -205q0 -69 -23.5 -116.5t-67.5 -71.5t-94.5 -34t-117.5 -10q-142 0 -221.5 53.5t-79.5 179.5q0 79 33.5 126.5t97.5 77.5q-63 32 -90.5 80t-27.5 121q0 105 76.5 154.5t211.5 49.5z
M375 82q91 0 142 31.5t51 115.5q0 77 -50.5 111t-160.5 43q-84 -11 -129 -45.5t-45 -108.5q0 -83 51 -115t141 -32zM394 473q79 14 122 44.5t43 96.5q0 40 -14.5 67t-41.5 41t-57.5 19.5t-70.5 5.5q-84 0 -132.5 -28.5t-48.5 -104.5q0 -67 49.5 -100.5t150.5 -40.5z" />
    <glyph glyph-name="nine.denominator" horiz-adv-x="746" 
d="M351 315q-148 0 -220.5 54.5t-72.5 201.5q0 150 79.5 208t233.5 58q88 0 146.5 -23t90 -70t44 -105.5t12.5 -142.5q0 -120 -12 -200t-41.5 -141.5t-83.5 -95.5t-132 -50t-193 -16q-28 0 -77 1l-9 90q153 6 179 9q151 17 208 104q34 52 41 132q-126 -14 -193 -14zM375 403
q55 0 176 17q2 31 2 94q0 51 -6 87t-23.5 71.5t-55 54t-94.5 18.5q-114 0 -159 -40t-45 -136q0 -99 48 -132.5t157 -33.5z" />
    <glyph glyph-name="zero.onum" horiz-adv-x="1176" 
d="M588 -15q-113 0 -193 24.5t-131.5 69.5t-81 121t-40.5 166t-11 217q0 128 11 217.5t40.5 165.5t80.5 121t131.5 69.5t193.5 24.5q95 0 166 -16t121.5 -50.5t84 -81.5t52.5 -117t26.5 -148.5t7.5 -184.5t-7.5 -184.5t-26.5 -148.5t-52.5 -117t-84 -81.5t-121.5 -50.5
t-166 -16zM588 110q49 0 88.5 7.5t69.5 19.5t53.5 33.5t39.5 43.5t27 56.5t17 64.5t9.5 75.5t4.5 82t1 90.5t-1 90.5t-4.5 82t-9.5 75.5t-17 64.5t-27 56.5t-39.5 43.5t-53.5 33.5t-69.5 19.5t-88.5 7.5q-44 0 -80.5 -5.5t-65 -17.5t-51 -26t-39 -37t-29 -44.5t-20 -55
t-12.5 -61t-7.5 -69.5t-3 -75t-0.5 -82t0.5 -82t3 -75t7.5 -69.5t12.5 -61t20 -55t29 -44.5t39 -37t51 -26t65 -17.5t80.5 -5.5z" />
    <glyph glyph-name="one.onum" horiz-adv-x="690" 
d="M374 0v1007q-177 -50 -332 -72l-6 125q205 32 368 107h118v-1167h-148z" />
    <glyph glyph-name="two.onum" horiz-adv-x="1050" 
d="M119 1030l-16 118q211 33 397 33q104 0 183.5 -14.5t141 -46t94 -87t32.5 -132.5q0 -156 -98 -257t-286 -170q-159 -57 -224 -134t-87 -211h694v-129h-867q20 97 34.5 157t37.5 123t49 102t66 78t92.5 67t124.5 55q154 57 236.5 124.5t82.5 164.5q0 104 -83.5 143.5
t-288.5 39.5q-125 0 -315 -24z" />
    <glyph glyph-name="three.onum" horiz-adv-x="1018" 
d="M434 1181q77 0 137.5 -6.5t121 -26.5t101 -53t65.5 -88.5t25 -130.5q0 -224 -191 -311q91 -30 151.5 -105t60.5 -192q0 -110 -32.5 -186t-97 -120t-149 -63t-200.5 -19q-174 0 -359 35l18 123q207 -28 300 -28q194 0 280 53.5t86 195.5q0 99 -57 158t-153 70
q-81 9 -204 9q-10 0 -31 -0.5t-32 -0.5v117q135 3 267 22q92 13 141.5 70t49.5 141q0 56 -16 95t-41 61t-70 34t-87.5 15t-108.5 3q-126 0 -313 -27l-16 120q187 35 354 35z" />
    <glyph glyph-name="four.onum" horiz-adv-x="1115" 
d="M713 -106v306h-535q-120 0 -120 94q0 53 70 143l508 656q68 88 141 88q37 0 60 -25t23 -76v-759h174v-121h-174v-306h-147zM713 980l-505 -659h505v659z" />
    <glyph glyph-name="five.onum" horiz-adv-x="1030" 
d="M295 1036l-26 -375q112 4 129 4q72 0 128 -3.5t114 -13.5t100 -27.5t80 -46.5t61.5 -68.5t37 -95.5t13.5 -126q0 -214 -116 -309t-348 -95q-192 0 -375 36l17 123q162 -27 307 -27q102 0 166.5 12t110.5 44.5t65.5 88t19.5 143.5q0 62 -22 106.5t-57 70t-92 40.5
t-114.5 19.5t-137.5 4.5q-124 0 -236 -7l43 633h735v-131h-603z" />
    <glyph glyph-name="six.onum" horiz-adv-x="1137" 
d="M598 784q110 0 187 -17t138 -59.5t90.5 -120.5t29.5 -194q0 -97 -22.5 -168.5t-61.5 -117t-100 -73t-130.5 -38.5t-160.5 -11q-133 0 -222 35.5t-137 107.5t-67 162t-19 219q0 154 12 263.5t43 200.5t81.5 147.5t131 95t187 54.5t253.5 16q33 0 109 -2l13 -123
q-217 -9 -224 -9q-214 -16 -314 -94q-120 -94 -131 -299q192 25 314 25zM562 662q-92 0 -287 -26q-4 -55 -4 -154q0 -63 5.5 -111t23 -99.5t48.5 -84.5t85.5 -54.5t129.5 -21.5q185 0 258.5 64t73.5 220q0 83 -20 136t-65 81.5t-102.5 39t-145.5 10.5z" />
    <glyph glyph-name="seven.onum" horiz-adv-x="953" 
d="M890 1030l-521 -1136h-168l545 1143h-699v130h750q53 0 80.5 -20.5t27.5 -56.5q0 -27 -15 -60z" />
    <glyph glyph-name="eight.onum" horiz-adv-x="1143" 
d="M571 1286q98 0 177 -18t138.5 -54.5t92 -97t32.5 -141.5q0 -115 -42 -188t-152 -126q104 -44 159.5 -119t55.5 -202q0 -85 -24.5 -148.5t-65 -102.5t-101.5 -62.5t-125.5 -32.5t-144.5 -9q-104 0 -184 17.5t-143.5 57.5t-97.5 111t-34 171q0 126 54 199.5t158 119.5
q-104 49 -147.5 123t-43.5 191q0 160 116 235.5t322 75.5zM571 109q71 0 123 10t97.5 35t69.5 73.5t24 119.5q0 125 -81.5 180t-260.5 69q-137 -18 -210.5 -74t-73.5 -175q0 -57 16.5 -99.5t43.5 -68.5t68 -42t85 -22t99 -6zM602 719q60 11 104.5 26t83.5 41t59.5 67
t20.5 96q0 64 -23.5 108t-67 66.5t-93 31.5t-115.5 9q-51 0 -92 -5t-80 -19t-65 -37.5t-41.5 -62.5t-15.5 -91q0 -110 80.5 -164.5t244.5 -65.5z" />
    <glyph glyph-name="nine.onum" horiz-adv-x="1134" 
d="M533 382q-87 0 -152.5 10t-122.5 36.5t-93 70.5t-56.5 112.5t-20.5 162.5q0 97 22.5 168.5t61.5 117t100 73t130.5 38t160.5 10.5q107 0 185.5 -24.5t128.5 -67t79.5 -110t41 -144t11.5 -178.5q0 -154 -12 -263.5t-43.5 -200.5t-82 -147.5t-131 -95t-187 -54.5
t-253.5 -16q-32 0 -108 2l-13 124q24 1 73 2q209 6 301 28q192 44 257 194q33 74 38 177q-192 -25 -315 -25zM570 504q92 0 287 26q4 55 4 155q0 63 -5.5 111t-23.5 99t-49 84t-85.5 54.5t-129.5 21.5q-185 0 -258 -64t-73 -220q0 -83 20 -136t65 -81.5t102.5 -39
t145.5 -10.5z" />
    <glyph glyph-name="dollar.onum" horiz-adv-x="940" 
d="M96 139q159 -25 309 -25q72 0 123.5 9.5t94.5 33.5t65 69.5t22 112.5q0 54 -18.5 93.5t-59 68t-84.5 47t-115 40.5q-77 23 -125 41.5t-97.5 47.5t-76.5 63.5t-44 85.5t-17 118q0 165 85.5 244.5t257.5 93.5v177h116v-173q150 -3 302 -29l-14 -121q-145 22 -256 22
q-60 0 -105.5 -3.5t-92.5 -15.5t-77 -32t-49 -55t-19 -83q0 -36 6 -64t15 -49t29.5 -39t38.5 -30t54 -25.5t64.5 -22.5t80.5 -24q85 -25 143.5 -52t109.5 -69.5t76 -104t25 -143.5q0 -167 -86 -252t-257 -103v-179h-116v173q-173 1 -323 31z" />
    <glyph glyph-name="cent.onum" horiz-adv-x="814" 
d="M733 280l14 -115q-123 -27 -218 -29v-172h-111v175q-78 9 -136 40.5t-93 76t-55.5 109.5t-28 131t-7.5 150q0 90 8 157t29 126.5t56.5 99t92 66t134.5 36.5v177h111v-171q114 -1 216 -28l-11 -110q-100 17 -166 17q-64 0 -112 -7t-83.5 -19.5t-59 -36.5t-38 -50
t-22 -68.5t-10 -84t-2.5 -104.5q0 -60 2 -100t9.5 -85t21 -73t37 -55.5t58 -42.5t84 -24t113.5 -9q54 0 167 23z" />
    <glyph glyph-name="Euro.onum" horiz-adv-x="999" 
d="M812 806l-24 -103h-414v-68v-52h388l-23 -103h-362q6 -94 22 -157.5t51 -113.5t95 -73t150 -23q83 0 209 22l12 -118q-128 -32 -255 -32q-227 0 -322.5 115.5t-111.5 379.5h-144l23 103h117q-1 17 -1 52q0 46 1 68h-129l23 103h110q9 128 34.5 215.5t76.5 148.5t130 88.5
t193 27.5q135 0 255 -30l-12 -120q-119 22 -209 22q-89 0 -149 -22.5t-95 -70t-51 -108.5t-22 -151h434z" />
    <glyph glyph-name="sterling.onum" horiz-adv-x="1082" 
d="M285 584h-194v119h176q-19 131 -19 243q0 80 23.5 140.5t62.5 98t97 61t120.5 32.5t139.5 9q104 0 175 -31.5t137 -94.5l-78 -92q-107 88 -228 88q-170 0 -234 -60t-64 -197q0 -68 19 -197h297v-119h-280q8 -70 8 -138q0 -90 -19 -159t-60 -156h327q158 0 293 21l13 -121
q-174 -31 -412 -31h-323q-38 0 -57 17t-19 44q0 17 17.5 55t38.5 79t38.5 105.5t17.5 129.5q0 59 -13 154z" />
    <glyph glyph-name="yen.onum" horiz-adv-x="1004" 
d="M224 1274l278 -615l285 615h150l-309 -663h173v-107h-223l-3 -9v-109h226v-106h-226v-280h-150v280h-222v106h222v109l-4 9h-218v107h169l-304 663h156z" />
    <glyph glyph-name="zero.tnum" 
d="M605 -15q-123 0 -210.5 29t-143 82.5t-87.5 143.5t-44 196.5t-12 257.5t12 257.5t44 196.5t87.5 143.5t143 82.5t210.5 29t210.5 -29t143 -82.5t87.5 -143.5t44 -196.5t12 -257.5t-12 -257.5t-44 -196.5t-87.5 -143.5t-143 -82.5t-210.5 -29zM605 114q54 0 98.5 9
t77.5 24t59 41.5t43.5 53.5t29.5 69.5t19 78.5t10.5 92.5t4.5 100.5t1 111q0 88 -1.5 142t-9 123t-21 110t-38.5 85t-61 67.5t-89.5 38.5t-122.5 15t-122.5 -15t-89.5 -38.5t-61 -67.5t-38.5 -85t-21 -110t-9 -123t-1.5 -142q0 -67 1 -111t4.5 -100.5t10.5 -92.5t19 -78.5
t29.5 -69.5t43.5 -53.5t59 -41.5t77.5 -24t98.5 -9z" />
    <glyph glyph-name="one.tnum" 
d="M637 0v1225q-169 -49 -345 -75l-8 127q202 32 382 112h123v-1389h-152z" />
    <glyph glyph-name="two.tnum" 
d="M177 1242l-15 121q220 40 416 40q109 0 192.5 -16.5t148 -53.5t98.5 -101.5t34 -154.5q0 -185 -101.5 -304.5t-300.5 -201.5q-90 -37 -149 -78.5t-94.5 -96.5t-53 -113.5t-30.5 -147.5h729v-135h-910q15 84 26.5 140.5t27 117.5t31.5 101.5t39 84t50.5 73.5t64 60.5
t81.5 55.5t102 49q78 33 134.5 66.5t104 76.5t71.5 97t24 118q0 131 -87 181t-302 50q-148 0 -331 -29z" />
    <glyph glyph-name="three.tnum" 
d="M523 1403q83 0 149 -7.5t132 -29t109.5 -57t70.5 -95.5t27 -141q0 -255 -218 -342q102 -29 172 -112t70 -213q0 -119 -35.5 -202t-105.5 -130.5t-162.5 -68t-218.5 -20.5q-191 0 -388 38l18 125q215 -29 326 -29q216 0 311.5 59t95.5 218q0 112 -63.5 177.5t-172.5 77.5
q-97 10 -231 10q-9 0 -28 -0.5t-29 -0.5v119q148 3 288 23q104 15 159.5 79t55.5 159q0 53 -11 92t-35.5 64t-53 41t-73.5 23.5t-85.5 10t-101.5 2.5q-137 0 -340 -29l-16 122q202 37 384 37z" />
    <glyph glyph-name="four.tnum" 
d="M780 0v336h-593q-70 0 -98 26t-28 72q0 58 76 155l558 720q74 94 151 94q39 0 62.5 -26t23.5 -79v-838h191v-124h-191v-336h-152zM781 1203l-571 -743h571v743z" />
    <glyph glyph-name="five.tnum" 
d="M359 1254l-30 -422q78 5 147 5q79 0 139.5 -4t123.5 -14.5t109 -29.5t87.5 -50t67 -74t40.5 -103.5t15 -137.5q0 -232 -126.5 -335.5t-379.5 -103.5q-210 0 -405 39l17 125q176 -29 332 -29q113 0 185 13.5t123.5 49.5t73 98.5t21.5 160.5q0 58 -15.5 102t-47.5 73
t-70.5 48t-95.5 28.5t-111.5 13t-128.5 3.5q-149 0 -253 -6l47 685h795v-135h-660z" />
    <glyph glyph-name="six.tnum" 
d="M638 853q119 0 203 -18.5t150 -65t98 -131t32 -210.5q0 -105 -24.5 -182.5t-67 -127t-108.5 -79.5t-142 -42t-174 -12q-97 0 -173 17.5t-128.5 53t-89 83t-57 114t-29 138.5t-8.5 164q0 168 13 287.5t47 218.5t89 161t143 104t204 59.5t277 17.5q73 0 115 -1l13 -126
q-26 -1 -80 -2q-220 -6 -320 -28q-211 -46 -286 -205q-42 -88 -47 -216q220 28 350 28zM597 729q-107 0 -319 -30q-5 -66 -5 -174q0 -58 4.5 -103.5t16 -95t34.5 -85.5t58 -66t89 -45.5t124 -15.5q206 0 287.5 71.5t81.5 245.5q0 92 -22.5 151.5t-73 91.5t-114 43.5
t-161.5 11.5z" />
    <glyph glyph-name="seven.tnum" 
d="M1054 1245l-570 -1245h-174l598 1255h-770v134h819q56 0 85 -21t29 -59q0 -27 -17 -64z" />
    <glyph glyph-name="eight.tnum" 
d="M605 1403q107 0 192.5 -19.5t150.5 -59t100 -105t35 -153.5q0 -128 -47.5 -207.5t-173.5 -136.5q116 -48 179.5 -130.5t63.5 -221.5q0 -92 -26.5 -161t-70.5 -111t-110 -68t-136 -35.5t-157 -9.5q-113 0 -200 19t-156.5 62.5t-106 120.5t-36.5 185q0 138 62 218.5
t179 130.5q-118 54 -168.5 135.5t-50.5 209.5q0 172 126.5 254.5t350.5 82.5zM605 112q79 0 137 11t108.5 38.5t77 81.5t26.5 134q0 141 -90.5 202t-290.5 76q-154 -19 -235.5 -81.5t-81.5 -196.5q0 -63 18.5 -110.5t49 -76.5t76.5 -47t95 -24.5t110 -6.5zM638 781
q54 9 96 21t81.5 32t65 47t41 66.5t15.5 90.5q0 72 -26 121.5t-74.5 74.5t-103.5 35t-128 10q-57 0 -102 -5.5t-89 -21.5t-73 -42t-47 -69.5t-18 -102.5q0 -123 89.5 -184.5t272.5 -72.5z" />
    <glyph glyph-name="nine.tnum" 
d="M568 536q-119 0 -203 18.5t-150 65t-98 131t-32 210.5q0 105 24.5 182.5t67 126.5t108.5 79.5t141.5 42t174.5 11.5q116 0 201.5 -26.5t139.5 -72.5t86 -119.5t44.5 -156.5t12.5 -194q0 -125 -7 -222t-25 -183t-45.5 -148t-71.5 -113.5t-101 -84.5t-135 -56t-172.5 -32.5
t-214.5 -9.5q-32 0 -116 2l-13 126q26 1 80 2q220 6 320 27q212 46 288 205q42 90 47 217q-222 -28 -351 -28zM608 660q108 0 320 30q5 66 5 173q0 49 -3 88.5t-11.5 83.5t-23 77.5t-39.5 65t-58.5 52t-82.5 32.5t-109 12q-206 0 -287.5 -71t-81.5 -245q0 -92 22.5 -151.5
t73 -91.5t114 -43.5t161.5 -11.5z" />
    <glyph glyph-name="dollar.tnum" 
d="M200 143q168 -26 334 -26q80 0 137.5 10.5t105.5 37.5t72.5 78t24.5 126q0 51 -15 90t-37.5 65.5t-66 49.5t-83.5 37.5t-106 34.5q-69 21 -115 37.5t-95 40.5t-78.5 51t-55 64t-36.5 85.5t-11 109.5q0 180 93.5 265.5t282.5 100.5v193h118v-190q167 -3 331 -31l-14 -123
q-155 24 -277 24q-67 0 -117.5 -4t-102.5 -17.5t-85.5 -36t-54.5 -62t-21 -93.5q0 -46 6 -79t24 -60t38.5 -44.5t62 -36t80.5 -31t108 -32.5q92 -26 156.5 -56t119 -76t82 -113t27.5 -156q0 -182 -94 -274t-282 -111v-196h-118v190q-190 0 -354 33z" />
    <glyph glyph-name="cent.tnum" 
d="M959 297l14 -116q-142 -29 -239 -31v-189h-111v192q-86 10 -149.5 44t-101.5 83t-61.5 119.5t-31.5 142.5t-8 164q0 99 9 172t32 138t62.5 107.5t101 71.5t147.5 39v193h111v-187q123 0 237 -31l-12 -110q-100 17 -177 17q-63 0 -111 -5t-85.5 -18t-64.5 -29t-45.5 -43
t-30 -55.5t-17.5 -72t-8 -85.5t-2 -102q0 -51 1.5 -87.5t5.5 -77.5t12 -69.5t21 -58.5t32 -49.5t46 -37.5t62 -28.5t80.5 -16.5t101.5 -6q67 0 179 22z" />
    <glyph glyph-name="Euro.tnum" 
d="M1045 139l12 -121q-134 -33 -275 -33q-126 0 -212.5 31t-141.5 100t-82 168t-36 244h-156l22 103h130q-1 20 -1 63q0 54 1 80h-140l23 103h122q19 281 123.5 403.5t347.5 122.5q145 0 275 -32l-12 -122q-138 24 -225 24q-100 0 -167.5 -25t-106 -78.5t-56.5 -122
t-24 -170.5h475l-22 -103h-456q-1 -26 -1 -80v-63h425l-23 -103h-398q6 -106 23.5 -177.5t56 -127t106 -81.5t168.5 -26q85 0 225 23z" />
    <glyph glyph-name="sterling.tnum" 
d="M329 641h-212v120h194q-22 143 -22 272q0 87 25.5 152.5t68 106.5t105.5 66.5t131 35t152 9.5q113 0 188.5 -33t147.5 -101l-79 -93q-114 94 -250 94q-97 0 -161.5 -16.5t-102.5 -53.5t-53 -88.5t-15 -128.5q0 -81 22 -222h325v-120h-309q9 -73 9 -157q0 -99 -21.5 -176
t-66.5 -174h366q157 0 316 22l15 -123q-178 -33 -448 -33h-354q-39 0 -59 17t-20 45q0 18 19 59t42.5 86.5t42.5 117t19 142.5q0 67 -15 174z" />
    <glyph glyph-name="yen.tnum" 
d="M297 1389l309 -683l314 683h155l-338 -728h192v-108h-243l-6 -13v-126h249v-107h-249v-307h-154v307h-243v107h243v126l-6 13h-237v108h187l-334 728h161z" />
    <glyph glyph-name="period.tnum" horiz-adv-x="605" 
d="M302 -15q-52 0 -70.5 23.5t-18.5 84.5t19 85.5t70 24.5t71 -24.5t20 -85.5t-19 -84.5t-72 -23.5z" />
    <glyph glyph-name="comma.tnum" horiz-adv-x="605" 
d="M129 -269l136 514h176l-184 -514h-128z" />
    <glyph glyph-name="colon.tnum" horiz-adv-x="605" 
d="M303 -15q-52 0 -71 23.5t-19 84.5t19.5 85.5t70.5 24.5t70.5 -24.5t19.5 -85.5t-19 -84.5t-71 -23.5zM303 759q-52 0 -71 23.5t-19 84.5t19.5 85t70.5 24t70.5 -24t19.5 -85t-19 -84.5t-71 -23.5z" />
    <glyph glyph-name="semicolon.tnum" horiz-adv-x="605" 
d="M350 759q-52 0 -71 23.5t-19 84.5t19.5 85t70.5 24t70.5 -24t19.5 -85t-19 -84.5t-71 -23.5zM122 -269l137 514h176l-184 -514h-129z" />
    <glyph glyph-name="zero.onum_tnum" horiz-adv-x="1112" 
d="M556 -15q-113 0 -193 24.5t-131.5 69.5t-81 121t-40.5 166t-11 217q0 128 11 217.5t40.5 165.5t80.5 121t131.5 69.5t193.5 24.5q95 0 166 -16t121.5 -50.5t84 -81.5t52.5 -117t26.5 -148.5t7.5 -184.5t-7.5 -184.5t-26.5 -148.5t-52.5 -117t-84 -81.5t-121.5 -50.5
t-166 -16zM556 110q49 0 88.5 7.5t69.5 19.5t53.5 33.5t39.5 43.5t27 56.5t17 64.5t9.5 75.5t4.5 82t1 90.5t-1 90.5t-4.5 82t-9.5 75.5t-17 64.5t-27 56.5t-39.5 43.5t-53.5 33.5t-69.5 19.5t-88.5 7.5q-44 0 -80.5 -5.5t-65 -17.5t-51 -26t-39 -37t-29 -44.5t-20 -55
t-12.5 -61t-7.5 -69.5t-3 -75t-0.5 -82t0.5 -82t3 -75t7.5 -69.5t12.5 -61t20 -55t29 -44.5t39 -37t51 -26t65 -17.5t80.5 -5.5z" />
    <glyph glyph-name="one.onum_tnum" horiz-adv-x="1112" 
d="M586 0v1007q-177 -50 -332 -72l-7 125q205 32 368 107h119v-1167h-148z" />
    <glyph glyph-name="two.onum_tnum" horiz-adv-x="1112" 
d="M150 1030l-16 118q211 33 397 33q104 0 183.5 -14.5t141 -46t93.5 -87t32 -132.5q0 -156 -97.5 -257.5t-285.5 -169.5q-159 -57 -224.5 -134.5t-87.5 -210.5h695v-129h-867q20 97 34.5 156.5t37 123.5t48.5 102.5t66 77.5t92.5 67t124.5 55q154 57 237 124.5t83 164.5
q0 104 -83.5 143.5t-288.5 39.5q-125 0 -315 -24z" />
    <glyph glyph-name="three.onum_tnum" horiz-adv-x="1112" 
d="M482 1181q77 0 137.5 -6.5t121 -26.5t100.5 -53t65 -88.5t25 -130.5q0 -224 -191 -311q91 -30 151.5 -105t60.5 -192q0 -110 -32.5 -186t-97 -120t-149 -63t-200.5 -19q-173 0 -359 35l18 123q207 -28 301 -28q193 0 279 53.5t86 195.5q0 99 -57 158t-153 70
q-81 9 -203 9q-10 0 -31.5 -0.5t-32.5 -0.5v117q135 3 267 22q92 13 142 70t50 141q0 47 -10 82t-32 57.5t-47.5 36.5t-66 21t-77 9t-91.5 2q-126 0 -313 -27l-16 120q187 35 355 35z" />
    <glyph glyph-name="four.onum_tnum" horiz-adv-x="1112" 
d="M711 -106v306h-535q-119 0 -119 94q0 53 70 143l507 656q68 88 141 88q37 0 60 -25t23 -76v-759h174v-121h-174v-306h-147zM712 980l-506 -659h506v659z" />
    <glyph glyph-name="five.onum_tnum" horiz-adv-x="1112" 
d="M336 1036l-26 -375q112 4 129 4q72 0 128 -3.5t114 -13.5t100 -27.5t80 -46.5t61.5 -68.5t37 -95.5t13.5 -126q0 -214 -116 -309t-348 -95q-192 0 -375 36l17 123q162 -27 307 -27q102 0 166.5 12t110.5 44.5t65.5 88t19.5 143.5q0 62 -21.5 106.5t-56.5 70t-92 40.5
t-114.5 19.5t-137.5 4.5q-124 0 -236 -7l43 633h734v-131h-603z" />
    <glyph glyph-name="six.onum_tnum" horiz-adv-x="1112" 
d="M586 784q110 0 187 -17t137.5 -59.5t90 -120.5t29.5 -194q0 -97 -22.5 -168.5t-61.5 -117t-100 -73t-130.5 -38.5t-160.5 -11q-133 0 -222 35.5t-137 107.5t-67 162t-19 219q0 154 12 263.5t43 200.5t81.5 147.5t131 95t187 54.5t253.5 16q33 0 109 -2l13 -123
q-217 -9 -224 -9q-214 -16 -314 -94q-120 -94 -131 -299q192 25 315 25zM549 662q-92 0 -287 -26q-4 -55 -4 -154q0 -63 5.5 -111t23.5 -99.5t49 -84.5t85.5 -54.5t129.5 -21.5q185 0 258 64t73 220q0 83 -20 136t-65 81.5t-102.5 39t-145.5 10.5z" />
    <glyph glyph-name="seven.onum_tnum" horiz-adv-x="1112" 
d="M970 1030l-521 -1136h-168l545 1143h-699v130h750q53 0 80.5 -20.5t27.5 -56.5q0 -27 -15 -60z" />
    <glyph glyph-name="eight.onum_tnum" horiz-adv-x="1112" 
d="M555 1286q98 0 177 -18t138.5 -54.5t92 -97t32.5 -141.5q0 -115 -42 -188t-152 -126q104 -44 159.5 -119t55.5 -202q0 -85 -24.5 -148.5t-65 -102.5t-101.5 -62.5t-125.5 -32.5t-144.5 -9q-104 0 -184 17.5t-143.5 57.5t-97.5 111t-34 171q0 126 54 199.5t158 119.5
q-104 49 -147.5 123t-43.5 191q0 160 116 235.5t322 75.5zM555 109q71 0 123 10t97.5 35t69.5 73.5t24 119.5q0 125 -81.5 180t-260.5 69q-137 -18 -210.5 -74t-73.5 -175q0 -57 16.5 -99.5t43.5 -68.5t68 -42t85 -22t99 -6zM586 719q60 11 104.5 26t83.5 41t59.5 67
t20.5 96q0 64 -23.5 108t-67 66.5t-93 31.5t-115.5 9q-51 0 -92 -5t-80 -19t-65 -37.5t-41.5 -62.5t-15.5 -91q0 -110 80.5 -164.5t244.5 -65.5z" />
    <glyph glyph-name="nine.onum_tnum" horiz-adv-x="1112" 
d="M522 382q-87 0 -152.5 10t-122.5 36.5t-93 70.5t-56.5 112.5t-20.5 162.5q0 97 22.5 168.5t61.5 117t100 73t130.5 38t160.5 10.5q133 0 222 -35.5t137 -107.5t67 -162t19 -219q0 -154 -12 -263.5t-43 -200.5t-81.5 -147.5t-131 -95t-187 -54.5t-253.5 -16q-33 0 -109 2
l-13 124q24 1 73 2q209 6 301 28q192 44 257 194q33 74 38 177q-192 -25 -314 -25zM559 504q91 0 286 26q4 55 4 155q0 63 -5.5 111t-23 99.5t-48.5 84t-85.5 54t-129.5 21.5q-185 0 -258 -64t-73 -220q0 -83 20 -136t65 -81.5t102.5 -39t145.5 -10.5z" />
    <glyph glyph-name="dollar.onum_tnum" horiz-adv-x="1112" 
d="M182 139q159 -25 309 -25q72 0 123.5 9.5t94.5 33.5t65 69.5t22 112.5q0 54 -18.5 93.5t-59 68t-84.5 47t-115 40.5q-77 23 -125 41.5t-97.5 47.5t-76.5 63.5t-44 85.5t-17 118q0 165 85.5 244.5t257.5 93.5v177h116v-173q150 -3 302 -29l-14 -121q-145 22 -256 22
q-60 0 -105.5 -3.5t-92.5 -15.5t-77 -32t-49 -55t-19 -83q0 -36 6 -64t15 -49t29.5 -39t38.5 -30t54 -25.5t64.5 -22.5t80.5 -24q85 -25 143.5 -52t109.5 -69.5t76 -104t25 -143.5q0 -167 -86 -252t-257 -103v-179h-116v173q-173 1 -323 31z" />
    <glyph glyph-name="cent.onum_tnum" horiz-adv-x="1112" 
d="M882 280l13 -115q-123 -27 -217 -29v-172h-111v175q-78 9 -136 40.5t-93 76t-55.5 109.5t-28 131t-7.5 150q0 90 8 157t29 126.5t56.5 99t92 66t134.5 36.5v177h111v-171q113 -1 215 -28l-11 -110q-100 17 -165 17q-64 0 -112 -7t-83.5 -19.5t-59 -36.5t-38 -50
t-22 -68.5t-10 -84t-2.5 -104.5q0 -60 2 -100t9.5 -85t21 -73t37 -55.5t58 -42.5t84 -24t113.5 -9q54 0 167 23z" />
    <glyph glyph-name="Euro.onum_tnum" horiz-adv-x="1112" 
d="M869 806l-24 -103h-414q-1 -22 -1 -68v-52h388l-22 -103h-362q6 -94 22 -157.5t50.5 -113.5t94.5 -73t150 -23q83 0 210 22l11 -118q-128 -32 -254 -32q-227 0 -323 115.5t-112 379.5h-144l23 103h118q-1 17 -1 52q0 46 1 68h-129l23 103h110q9 128 34.5 215.5
t76.5 148.5t130 88.5t193 27.5q135 0 255 -30l-13 -120q-119 22 -209 22q-89 0 -149 -22.5t-95 -70t-51 -108.5t-22 -151h435z" />
    <glyph glyph-name="sterling.onum_tnum" horiz-adv-x="1112" 
d="M300 584h-194v119h175q-18 124 -18 243q0 80 23.5 140.5t62.5 98t97 61t120 32.5t139 9q104 0 175.5 -31.5t137.5 -94.5l-78 -92q-107 88 -228 88q-170 0 -234 -60t-64 -197q0 -68 19 -197h297v-119h-280q8 -70 8 -138q0 -90 -19 -159t-60 -156h326q158 0 293 21l14 -121
q-174 -31 -412 -31h-323q-38 0 -57 17t-19 44q0 17 17.5 55t38.5 79t38.5 105.5t17.5 129.5q0 59 -13 154z" />
    <glyph glyph-name="yen.onum_tnum" horiz-adv-x="1112" 
d="M278 1274l278 -615l285 615h150l-309 -663h173v-107h-223l-3 -9v-109h226v-106h-226v-280h-150v280h-222v106h222v109l-4 9h-218v107h169l-304 663h156z" />
    <glyph glyph-name="parenleft.case" horiz-adv-x="610" 
d="M437 1636l89 -73q-255 -253 -255 -850q0 -596 255 -849l-89 -74q-319 299 -319 923t319 923z" />
    <glyph glyph-name="parenright.case" horiz-adv-x="610" 
d="M173 -210l-88 74q255 253 255 849q0 597 -255 850l88 73q320 -301 320 -923t-320 -923z" />
    <glyph glyph-name="bracketleft.case" horiz-adv-x="607" 
d="M318 1503v-1572h216v-122h-357v1814h358v-120h-217z" />
    <glyph glyph-name="bracketright.case" horiz-adv-x="608" 
d="M73 1503v120h358v-1814h-357v122h215v1572h-216z" />
    <glyph glyph-name="braceleft.case" horiz-adv-x="615" 
d="M379 339v-109q0 -127 39 -204t137 -95l-12 -110q-151 24 -227 107.5t-76 270.5q0 234 -33 337.5t-127 124.5v111q94 20 127 124t33 338q0 186 76 270t227 108l12 -110q-97 -18 -136.5 -95.5t-39.5 -203.5v-109q0 -62 -4 -109t-17.5 -105.5t-45.5 -100.5t-81 -63
q38 -18 66.5 -51.5t43.5 -70.5t24 -85.5t11.5 -86t2.5 -83.5z" />
    <glyph glyph-name="braceright.case" horiz-adv-x="615" 
d="M535 772v-111q-94 -21 -127.5 -125t-33.5 -337q0 -187 -75.5 -270.5t-225.5 -107.5l-13 110q67 12 107 55.5t54 102t14 141.5v109q0 307 149 377q-49 21 -81 63t-45.5 100t-18 105.5t-4.5 109.5v109q0 127 -39 204t-136 95l13 110q150 -24 225.5 -108t75.5 -270
q0 -234 33.5 -338t127.5 -124z" />
    <glyph glyph-name="questiondown.case" horiz-adv-x="1029" 
d="M564 1007h131l3 -124q0 -6 0.5 -25.5t0.5 -26.5q0 -56 -19.5 -93t-51.5 -53.5t-72.5 -29t-83.5 -18t-83.5 -21t-72.5 -38.5t-51.5 -70.5t-19.5 -116.5q0 -114 33.5 -172.5t114.5 -82.5t240 -24q141 0 310 30l27 -126q-184 -38 -376 -38q-71 0 -125 3.5t-109.5 14.5
t-95.5 29.5t-76 49t-58 73t-34.5 101.5t-12.5 134q0 81 16 142t43.5 97.5t63.5 61t75.5 37t79 21t75.5 18t63.5 23t44.5 40t18 66.5zM539 1331q0 61 19 84.5t72 23.5q52 0 70.5 -23.5t18.5 -84.5t-19 -85t-70 -24q-52 0 -71.5 24t-19.5 85z" />
    <glyph glyph-name="exclamdown.case" horiz-adv-x="470" 
d="M235 1222q-52 0 -71 24t-19 85t18.5 84.5t71.5 23.5q52 0 70.5 -23.5t18.5 -84.5t-19 -85t-70 -24zM144 -7l26 1014h130l26 -1014h-182z" />
    <glyph glyph-name="at.case" horiz-adv-x="1891" 
d="M1753 965q24 -111 24 -249q0 -380 -209 -555.5t-620 -175.5q-412 0 -620 175t-208 556q0 197 55.5 338.5t166.5 227t265.5 125t362.5 39.5q81 0 146.5 -16.5t118.5 -52.5t82.5 -101.5t29.5 -155.5v-453q0 -95 -6 -187q-171 -87 -405 -87q-208 0 -301.5 79t-93.5 244
q0 134 69 216.5t204 109.5q106 22 386 31q0 141 -51.5 194t-188.5 53q-134 0 -238 -18t-190.5 -61t-142.5 -112t-87 -172.5t-31 -240.5q0 -168 45 -286.5t135 -187.5t211 -100t286 -31t286.5 31t211.5 100t135.5 187.5t45.5 286.5q0 116 -17 207zM1200 735v227
q-246 -5 -334 -28q-91 -22 -134 -71.5t-43 -142.5q0 -116 63.5 -161t198.5 -45q126 0 245 49q4 69 4 172z" />
    <glyph glyph-name="guilsinglleft.case" horiz-adv-x="615" 
d="M251 715l259 -402h-151l-285 402l285 403h151z" />
    <glyph glyph-name="guilsinglright.case" horiz-adv-x="614" 
d="M541 715l-285 -402h-152l260 402l-259 403h151z" />
    <glyph glyph-name="guillemotleft.case" horiz-adv-x="986" 
d="M251 715l259 -402h-151l-285 402l285 403h151zM622 715l260 -402h-151l-286 402l286 403h151z" />
    <glyph glyph-name="guillemotright.case" horiz-adv-x="986" 
d="M541 715l-285 -402h-152l260 402l-259 403h151zM913 715l-285 -402h-151l259 402l-259 403h151z" />
    <glyph glyph-name="hyphen.case" horiz-adv-x="818" 
d="M146 651v129h526v-129h-526z" />
    <glyph glyph-name="endash.case" horiz-adv-x="1279" 
d="M146 655v122h988v-122h-988z" />
    <glyph glyph-name="emdash.case" horiz-adv-x="2234" 
d="M146 655v122h1942v-122h-1942z" />
    <glyph glyph-name="periodcentered.case" horiz-adv-x="465" 
d="M232 607q-52 0 -70.5 23.5t-18.5 84.5t19 85.5t70 24.5t71 -24.5t20 -85.5t-19 -84.5t-72 -23.5z" />
    </font>
</defs>
</svg>
