<?xml version="1.0" standalone="no"?>
<!DOCTYPE svg PUBLIC "-//W3C//DTD SVG 1.1//EN" "http://www.w3.org/Graphics/SVG/1.1/DTD/svg11.dtd" >
<svg xmlns="http://www.w3.org/2000/svg" xmlns:xlink="http://www.w3.org/1999/xlink" version="1.1">
<metadata>
Created by FontForge 20170731 at Tue Oct 13 00:50:31 2020
 By Aleksey,,,
Copyright (c) 2011-2012 Durotype, www.durotype.com. All rights reserved.
</metadata>
<defs>
<font id="Flexo-Heavy" horiz-adv-x="1210" >
  <font-face 
    font-family="Flexo Medium"
    font-weight="800"
    font-stretch="normal"
    units-per-em="2048"
    panose-1="0 0 0 0 0 0 0 0 0 0"
    ascent="1618"
    descent="-430"
    x-height="1094"
    cap-height="1432"
    bbox="-362 -519 2695 1972"
    underline-thickness="102"
    underline-position="-345"
    unicode-range="U+0020-FB04"
  />
<missing-glyph horiz-adv-x="1251" 
d="M114 0v1475h1022v-1475h-1022zM564 737l-347 537v-1074zM973 105l-347 538l-348 -538h695zM973 1369h-695l348 -537zM1034 1274l-347 -537l347 -537v1074z" />
    <glyph glyph-name="f_f" unicode="ff" horiz-adv-x="1539" 
d="M54 1094h176v86q0 169 91.5 260.5t273.5 91.5q90 0 193 -14l-24 -220h-89q-69 0 -100 -29.5t-31 -93.5v-81h418v86q0 169 91.5 260.5t273.5 91.5q90 0 193 -14l-24 -220h-89q-69 0 -100 -29.5t-31 -93.5v-81h218v-244h-218v-850h-314v850h-418v-850h-314v850h-176v244z
" />
    <glyph glyph-name="fi" unicode="fi" horiz-adv-x="1400" 
d="M1263 0h-317v850h-402v-850h-314v850h-176v244h176v86q0 169 91.5 260.5t273.5 91.5q90 0 193 -14l-24 -220h-89q-69 0 -100 -29.5t-31 -93.5v-81h719v-1094zM1104 1196q-102 0 -142 38t-40 130t40 130t142 38q101 0 141 -38t40 -130t-40 -130t-141 -38z" />
    <glyph glyph-name="fl" unicode="fl" horiz-adv-x="1393" 
d="M54 1094h176v86q0 169 91.5 260.5t273.5 91.5q325 0 654 -15v-1213q0 -71 16.5 -123.5t56.5 -109.5l-282 -131q-54 64 -80 142.5t-26 190.5v1025h-259q-69 0 -100 -29.5t-31 -93.5v-81h217v-244h-217v-850h-314v850h-176v244z" />
    <glyph glyph-name="f_f_i" unicode="ffi" horiz-adv-x="2133" 
d="M230 1094v86q0 169 91.5 260.5t273.5 91.5q90 0 193 -14l-24 -220h-89q-69 0 -100 -29.5t-31 -93.5v-81h418v86q0 169 91.5 260.5t273.5 91.5q90 0 193 -14l-24 -220h-89q-69 0 -100 -29.5t-31 -93.5v-81h719v-1094h-317v850h-402v-850h-314v850h-418v-850h-314v850h-176
v244h176zM1836 1196q-102 0 -141.5 38t-39.5 130t40 130t141 38t141 -38t40 -130t-40 -130t-141 -38z" />
    <glyph glyph-name="f_f_l" unicode="ffl" horiz-adv-x="2126" 
d="M1494 1094v-244h-218v-850h-314v850h-418v-850h-314v850h-176v244h176v86q0 169 91.5 260.5t273.5 91.5q90 0 193 -14l-24 -220h-89q-69 0 -100 -29.5t-31 -93.5v-81h418v86q0 169 91.5 260.5t273.5 91.5q327 0 655 -15v-1213q0 -71 16 -123.5t56 -109.5l-281 -131
q-54 64 -80.5 142.5t-26.5 190.5v1025h-259q-69 0 -100 -29.5t-31 -93.5v-81h218z" />
    <glyph glyph-name="f_b" unicode="fb" horiz-adv-x="2016" 
d="M230 1094v86q0 169 91.5 260.5t273.5 91.5q325 0 654 -15v-424q90 16 177 16q175 0 281 -51.5t160 -175.5t54 -335q0 -215 -55.5 -338t-167.5 -173.5t-303 -50.5q-123 0 -243 27t-209 81q-9 111 -9 215v990h-259q-69 0 -100 -29.5t-31 -93.5v-81h217v-244h-217v-850h-314
v850h-176v244h176zM1256 256q51 -21 139 -21q43 0 76 9.5t55 24.5t37.5 40.5t23.5 49t12.5 59.5t5.5 62t1 67q0 45 -1 73t-6 65t-14 58.5t-26.5 46t-42.5 37.5t-62 21.5t-85 8.5q-64 0 -120 -16v-438q0 -85 7 -147z" />
    <glyph glyph-name="f_f_b" unicode="ffb" horiz-adv-x="2748" 
d="M1276 850v-850h-314v850h-418v-850h-314v850h-176v244h176v86q0 169 91.5 260.5t273.5 91.5q90 0 193 -14l-24 -220h-89q-69 0 -100 -29.5t-31 -93.5v-81h418v86q0 169 91.5 260.5t273.5 91.5q327 0 655 -15v-424q90 16 177 16q175 0 281 -51.5t160 -175.5t54 -335
q0 -162 -29.5 -269.5t-95.5 -173t-162.5 -92.5t-239.5 -27q-123 0 -242.5 27t-208.5 81q-10 123 -10 215v990h-259q-69 0 -100 -29.5t-31 -93.5v-81h218v-244h-218zM1982 403q0 -94 6 -147q51 -21 139 -21q43 0 76 9.5t55 24.5t37.5 40.5t23.5 49t12.5 59.5t5.5 62t1 67
q0 45 -1 73t-6 65t-14 58.5t-26.5 46t-42.5 37.5t-62 21.5t-85 8.5q-63 0 -119 -16v-438z" />
    <glyph glyph-name="f_f_h" unicode="ffh" horiz-adv-x="2766" 
d="M544 1094h418v86q0 169 91.5 260.5t273.5 91.5q327 0 655 -15v-436q104 28 213 28q84 0 150.5 -12t112.5 -31.5t79 -51.5t52 -65.5t30 -80t14 -88t3 -97.5v-683h-316v657q0 56 -6.5 88.5t-27 58t-59 36t-102.5 10.5q-74 0 -143 -25v-825h-316v1298h-259q-69 0 -100 -29.5
t-31 -93.5v-81h218v-244h-218v-850h-314v850h-418v-850h-314v850h-176v244h176v86q0 169 91.5 260.5t273.5 91.5q90 0 193 -14l-24 -220h-89q-69 0 -100 -29.5t-31 -93.5v-81z" />
    <glyph glyph-name="f_f_j" unicode="ffj" horiz-adv-x="2180" 
d="M544 850v-850h-314v850h-176v244h176v86q0 169 91.5 260.5t273.5 91.5q90 0 193 -14l-24 -220h-89q-69 0 -100 -29.5t-31 -93.5v-81h418v86q0 169 91.5 260.5t273.5 91.5q90 0 193 -14l-24 -220h-89q-69 0 -100 -29.5t-31 -93.5v-81h764v-1063q0 -244 -108.5 -346.5
t-357.5 -102.5q-53 0 -94 4l25 234q45 5 70.5 9.5t57.5 16.5t48.5 29t28.5 47.5t12 73.5v854h-446v-850h-314v850h-418zM1700 1364q0 92 39.5 130t140.5 38t141.5 -38t40.5 -130t-40 -130t-142 -38q-101 0 -140.5 38t-39.5 130z" />
    <glyph glyph-name="f_f_k" unicode="ffk" horiz-adv-x="2716" 
d="M1982 622l331 472h364l-368 -497l386 -597h-380l-333 551v-551h-314v1298h-261q-69 0 -100 -29.5t-31 -93.5v-81h218v-244h-218v-850h-314v850h-418v-850h-314v850h-176v244h176v86q0 169 91.5 260.5t273.5 91.5q90 0 193 -14l-24 -220h-89q-69 0 -100 -29.5t-31 -93.5
v-81h418v86q0 169 91.5 260.5t273.5 91.5q327 0 655 -15v-895z" />
    <glyph glyph-name="f_h" unicode="fh" horiz-adv-x="2033" 
d="M54 850v244h176v86q0 169 91.5 260.5t273.5 91.5q325 0 654 -15v-436q104 28 213 28q84 0 151 -12t113 -31.5t79 -51.5t52 -65.5t29.5 -80t14 -88t3.5 -97.5v-683h-316v657q0 55 -6.5 88t-27 58.5t-59.5 36t-103 10.5q-74 0 -143 -25v-825h-316v1298h-258
q-69 0 -100 -29.5t-31 -93.5v-81h217v-244h-217v-850h-314v850h-176z" />
    <glyph glyph-name="f_j" unicode="fj" horiz-adv-x="1448" 
d="M544 1094h764v-1063q0 -244 -109 -346.5t-358 -102.5q-53 0 -94 4l26 234q45 5 70.5 9.5t57.5 16.5t48.5 29t28 47.5t11.5 73.5v854h-445v-850h-314v850h-176v244h176v86q0 169 91.5 260.5t273.5 91.5q90 0 193 -14l-24 -220h-89q-69 0 -100 -29.5t-31 -93.5v-81z
M967 1364q0 92 40 130t141 38t141.5 -38t40.5 -130t-40 -130t-142 -38q-101 0 -141 38t-40 130z" />
    <glyph glyph-name="f_k" unicode="fk" horiz-adv-x="1984" 
d="M54 1094h176v86q0 169 91.5 260.5t273.5 91.5q325 0 654 -15v-895l332 472h363l-368 -497l387 -597h-381l-333 551v-551h-314v1298h-260q-69 0 -100 -29.5t-31 -93.5v-81h217v-244h-217v-850h-314v850h-176v244z" />
    <glyph glyph-name=".notdef" horiz-adv-x="1251" 
d="M114 0v1475h1022v-1475h-1022zM564 737l-347 537v-1074zM973 105l-347 538l-348 -538h695zM973 1369h-695l348 -537zM1034 1274l-347 -537l347 -537v1074z" />
    <glyph glyph-name=".null" horiz-adv-x="0" 
 />
    <glyph glyph-name="nonmarkingreturn" horiz-adv-x="682" 
 />
    <glyph glyph-name="space" unicode=" " horiz-adv-x="506" 
 />
    <glyph glyph-name="exclam" unicode="!" horiz-adv-x="635" 
d="M318 -15q-102 0 -142 38t-40 130t40.5 130t141.5 38t141 -38t40 -130t-40 -130t-141 -38zM181 421l-46 1011h366l-46 -1011h-274z" />
    <glyph glyph-name="quotedbl" unicode="&#x22;" horiz-adv-x="888" 
d="M125 904l-21 613h271l-20 -613h-230zM534 904l-21 613h271l-20 -613h-230z" />
    <glyph glyph-name="numbersign" unicode="#" horiz-adv-x="1225" 
d="M362 1034l60 398h213l-59 -398h184l60 398h214l-60 -398h177v-211h-208l-31 -213h181v-210h-213l-60 -400h-215l60 400h-184l-59 -400h-214l60 400h-194v210h226l32 213h-205v211h235zM514 610h184l31 213h-184z" />
    <glyph glyph-name="dollar" unicode="$" horiz-adv-x="1086" 
d="M102 287q220 -33 370 -33q105 0 155 32t50 112q0 30 -10 53.5t-24.5 39.5t-44 31t-55 24.5t-70.5 23.5q-68 21 -117 40t-97 45.5t-79.5 57.5t-57 71.5t-37 93.5t-11.5 118q0 189 90.5 282.5t272.5 116.5v193h221v-187q164 -8 334 -45l-30 -249q-202 33 -316 33
q-33 0 -56 -1t-55 -4.5t-53.5 -11.5t-42 -21t-31 -34.5t-10.5 -49.5q0 -40 13 -67t44.5 -45t67 -29.5t97.5 -28.5q6 -1 9 -2q211 -57 296 -153t85 -281q0 -189 -91.5 -289.5t-270.5 -126.5v-195h-222v185q-177 5 -355 46z" />
    <glyph glyph-name="percent" unicode="%" horiz-adv-x="1787" 
d="M387 585q-100 0 -164 25.5t-99 82t-48 131t-13 188.5t13 188.5t48 131t99 82t164 25.5t164 -25.5t98.5 -82t47.5 -131t13 -188.5t-13 -188.5t-47.5 -131t-98.5 -82t-164 -25.5zM387 755q22 0 38.5 6.5t28 16.5t19 30t11.5 37t6 49t2.5 54.5t0.5 63.5q0 47 -0.5 73.5
t-4 61t-10 53t-18 36.5t-30 25.5t-43.5 7.5q-26 0 -44 -7.5t-29.5 -26t-18.5 -36.5t-10 -53t-3.5 -60.5t-0.5 -73.5q0 -42 0.5 -64t2.5 -54t6 -48.5t11.5 -37t18.5 -30t28 -16.5t39 -7zM1386 -7q-100 0 -164 25.5t-99 82t-48 131t-13 188.5t13 188.5t48 131t99 82t164 25.5
t164 -25.5t99 -82t48 -131t13 -188.5t-13 -188.5t-48 -131t-99 -82t-164 -25.5zM1386 163q22 0 38.5 6.5t28 16.5t19 30t11.5 37t6 49t2.5 54.5t0.5 63.5t-0.5 63.5t-2.5 54.5t-6 49t-11.5 37t-19 30t-28 16.5t-38.5 6.5t-38.5 -6.5t-28 -16.5t-19 -30t-11.5 -37t-6 -49
t-2.5 -54.5t-0.5 -63.5t0.5 -63.5t2.5 -54.5t6 -49t11.5 -37t19 -30t28 -16.5t38.5 -6.5zM361 -29l840 1490h211l-841 -1490h-210z" />
    <glyph glyph-name="ampersand" unicode="&#x26;" horiz-adv-x="1423" 
d="M1397 0h-387l-74 87q-67 -54 -155.5 -78t-220.5 -24q-248 0 -369.5 107t-121.5 323q0 138 65.5 226.5t191.5 145.5q-32 43 -45 62.5t-34.5 59.5t-30 82t-8.5 95q0 97 31 168t88 112t129.5 60.5t162.5 19.5q80 0 149 -19t125.5 -58t88.5 -106.5t32 -157.5
q0 -259 -264 -382l176 -190q21 57 27 148l279 -12q-22 -225 -104 -370zM723 1084q0 120 -110 120q-50 0 -80.5 -30t-30.5 -93q0 -51 20.5 -90t61.5 -82q139 71 139 175zM760 291l-269 302q-59 -40 -85 -83t-26 -108q0 -81 60.5 -126.5t145.5 -45.5q102 0 174 61z" />
    <glyph glyph-name="quotesingle" unicode="'" horiz-adv-x="479" 
d="M126 904l-22 613h271l-20 -613h-229z" />
    <glyph glyph-name="parenleft" unicode="(" horiz-adv-x="693" 
d="M453 1493l182 -150q-67 -64 -114 -159.5t-69.5 -205.5t-32 -207.5t-9.5 -200.5q0 -568 225 -771l-182 -152q-362 287 -362 923q0 638 362 923z" />
    <glyph glyph-name="parenright" unicode=")" horiz-adv-x="693" 
d="M241 -353l-182 152q225 203 225 771q0 103 -9.5 201t-32.5 207t-70 205t-114 160l183 150q362 -285 362 -923q0 -636 -362 -923z" />
    <glyph glyph-name="asterisk" unicode="*" horiz-adv-x="924" 
d="M577 695l-116 198l-115 -197l-165 92l117 202h-232v185h231l-116 203l165 93l115 -201l116 201l165 -93l-120 -203h236v-185h-235l117 -204z" />
    <glyph glyph-name="plus" unicode="+" horiz-adv-x="1172" 
d="M456 730v380h259v-380h380v-255h-380v-382h-259v382h-378v255h378z" />
    <glyph glyph-name="comma" unicode="," horiz-adv-x="599" 
d="M45 -264l133 581h342l-224 -581h-251z" />
    <glyph glyph-name="hyphen" unicode="-" horiz-adv-x="801" 
d="M125 423v243h551v-243h-551z" />
    <glyph glyph-name="period" unicode="." horiz-adv-x="567" 
d="M283 -15q-105 0 -143.5 37.5t-38.5 137.5q0 99 39 136t143 37t143.5 -37t39.5 -136q0 -100 -39 -137.5t-144 -37.5z" />
    <glyph glyph-name="slash" unicode="/" horiz-adv-x="942" 
d="M44 -165l580 1647h263l-581 -1647h-262z" />
    <glyph glyph-name="zero" unicode="0" horiz-adv-x="1274" 
d="M637 -15q-93 0 -166.5 14.5t-128.5 42t-95 73t-66.5 100.5t-41.5 131t-21.5 158.5t-6.5 189.5t6.5 189.5t21.5 158.5t41.5 131t66.5 100.5t95 73t128.5 42t166.5 14.5q130 0 222.5 -29t151.5 -82.5t92.5 -143.5t46.5 -196.5t13 -257.5t-13 -257.5t-46.5 -196.5
t-92.5 -143.5t-151.5 -82.5t-222.5 -29zM637 250q32 0 58.5 7t46 17.5t34.5 32t25 40t16.5 53t10.5 60t5.5 71t2 77t0.5 86.5t-0.5 86.5t-2.5 77t-5.5 71.5t-10.5 60t-17 53t-25 40.5t-34.5 32t-45.5 17.5t-58 7t-58 -7t-45.5 -17.5t-34.5 -32t-25 -40.5t-17 -53t-10.5 -60
t-5.5 -71.5t-2.5 -77t-0.5 -86.5t0.5 -86.5t2 -77t5.5 -71t10.5 -60t16.5 -53t25 -40t34.5 -32t46 -17.5t58.5 -7z" />
    <glyph glyph-name="one" unicode="1" horiz-adv-x="815" 
d="M343 0v1064q-116 -29 -292 -46l-14 261q216 33 379 110h251v-1389h-324z" />
    <glyph glyph-name="two" unicode="2" horiz-adv-x="1178" 
d="M125 1099l-30 254q250 50 470 50q113 0 199 -16.5t157.5 -56t109.5 -113t38 -179.5q0 -194 -98.5 -319.5t-308.5 -206.5q-123 -48 -167 -97t-56 -134h629v-281h-997q17 98 25.5 143t24.5 118.5t27.5 107t30.5 87t39.5 79.5t49.5 63.5t64.5 61t79.5 49t100 49.5
q124 53 176 100.5t52 123.5q0 90 -62 119t-241 29q-130 0 -312 -31z" />
    <glyph glyph-name="three" unicode="3" horiz-adv-x="1154" 
d="M524 1403q89 0 159.5 -8.5t140 -32.5t116 -64t75 -107.5t28.5 -158.5q0 -99 -46 -177t-139 -124q110 -43 157.5 -112t47.5 -182q0 -103 -24.5 -180.5t-69.5 -129t-113.5 -83.5t-150.5 -45.5t-187 -13.5q-174 0 -445 51l35 256q250 -32 358 -32q142 0 201 33.5t59 132.5
q0 138 -131 153q-127 16 -291 16h-22v240q149 3 313 28q61 9 89 43.5t28 98.5q0 41 -15 68t-45.5 39.5t-64 17t-84.5 4.5q-131 0 -383 -33l-33 252q246 50 437 50z" />
    <glyph glyph-name="four" unicode="4" horiz-adv-x="1238" 
d="M688 0v303h-426q-112 0 -158 42.5t-46 122.5q0 29 4 51t29 71t72 110l439 565q64 83 115.5 110.5t122.5 27.5q72 0 117.5 -47.5t45.5 -137.5v-659h164v-256h-164v-303h-315zM689 979l-310 -420h310v420z" />
    <glyph glyph-name="five" unicode="5" horiz-adv-x="1176" 
d="M450 1110l-14 -219q52 2 78 2q73 0 132 -4.5t118.5 -17t104.5 -33.5t85 -55t66 -80.5t40.5 -111t14.5 -144.5q0 -242 -133.5 -352t-398.5 -110q-235 0 -459 52l34 256q227 -33 359 -33q78 0 123.5 7.5t78.5 30t45.5 63t12.5 108.5q0 52 -22 86t-67 51t-96 23t-126 6
q-166 0 -309 -8l53 762h874v-279h-594z" />
    <glyph glyph-name="six" unicode="6" horiz-adv-x="1243" 
d="M1056 1400l25 -251q-26 -1 -83 -1h-57q-61 0 -101.5 -1t-97.5 -6.5t-94.5 -15.5t-79 -29t-66 -46t-41 -67.5t-16.5 -92.5q108 13 200 13q101 0 177 -12t142 -42.5t108 -80.5t65.5 -128.5t23.5 -185.5q0 -111 -26 -193.5t-71 -134.5t-114.5 -84t-148.5 -44.5t-182 -12.5
q-104 0 -184 18t-136.5 54.5t-95 85t-60.5 116.5t-31 142.5t-9 168.5q0 165 13 282.5t46.5 214.5t87.5 158t140.5 102.5t201.5 58.5t274 17q60 0 190 -3zM613 251q130 0 177.5 44.5t47.5 162.5q0 112 -56.5 154t-170.5 42q-93 0 -181 -14q-4 -44 -4 -104q0 -50 3.5 -87
t15 -76.5t31 -64.5t54.5 -41t83 -16z" />
    <glyph glyph-name="seven" unicode="7" horiz-adv-x="1086" 
d="M1032 1144l-514 -1144h-363l542 1107h-639v282h810q90 0 138.5 -39.5t48.5 -108.5q0 -46 -23 -97z" />
    <glyph glyph-name="eight" unicode="8" horiz-adv-x="1238" 
d="M621 1403q510 0 510 -357q0 -120 -41.5 -190t-153.5 -132q105 -61 158.5 -135t53.5 -193q0 -99 -27.5 -172.5t-73.5 -118.5t-116 -72.5t-143.5 -37.5t-166.5 -10q-123 0 -216 20.5t-165.5 66t-110.5 127t-38 196.5q0 80 28 141t70.5 100t114.5 83q-94 51 -144 126
t-50 201q0 357 511 357zM621 244q97 0 153 35t56 122q0 67 -19.5 102.5t-77 58t-173.5 35.5q-151 -36 -151 -196q0 -89 54.5 -123t157.5 -34zM681 842q76 22 110.5 58.5t34.5 109.5q0 81 -52 111t-153 30q-47 0 -81 -5.5t-63 -20.5t-44 -43.5t-15 -71.5q0 -39 9 -64.5
t35.5 -49t80.5 -37t138 -17.5z" />
    <glyph glyph-name="nine" unicode="9" horiz-adv-x="1244" 
d="M597 485q-101 0 -177.5 12t-142.5 42.5t-108 81t-65.5 129t-23.5 185.5q0 138 38 231.5t113 144.5t169 71.5t224 20.5q124 0 214.5 -27t148 -74.5t92 -122.5t47.5 -160.5t13 -199.5q0 -165 -13 -282.5t-46 -215t-87.5 -158t-141 -102.5t-201.5 -59t-274 -17q-17 0 -190 4
l-25 251q26 1 83 1q9 0 28.5 -0.5t29.5 -0.5q61 0 101.5 1t97 6.5t94 15.5t79 29.5t66 46.5t41 67.5t16.5 92.5q-116 -14 -200 -14zM631 734q93 0 182 14q4 44 4 104q0 41 -2.5 73t-9.5 66.5t-20.5 59t-33.5 45.5t-51 31.5t-71 10.5q-130 0 -177.5 -45t-47.5 -163
q0 -112 56.5 -154t170.5 -42z" />
    <glyph glyph-name="colon" unicode=":" horiz-adv-x="635" 
d="M318 -15q-106 0 -144 37.5t-38 137.5q0 99 38.5 136t143.5 37q104 0 143 -37t39 -136q0 -100 -38.5 -137.5t-143.5 -37.5zM318 678q-106 0 -144 37t-38 137q0 99 38.5 136.5t143.5 37.5q104 0 143 -37.5t39 -136.5q0 -100 -38.5 -137t-143.5 -37z" />
    <glyph glyph-name="semicolon" unicode=";" horiz-adv-x="641" 
d="M373 678q-105 0 -143.5 37t-38.5 137q0 99 39 136.5t143 37.5t143 -37.5t39 -136.5q0 -100 -38.5 -137t-143.5 -37zM63 -264l132 581h343l-224 -581h-251z" />
    <glyph glyph-name="less" unicode="&#x3c;" horiz-adv-x="1269" 
d="M74 491v221l1054 427v-266l-681 -271l681 -272v-266z" />
    <glyph glyph-name="equal" unicode="=" horiz-adv-x="1279" 
d="M131 253v255h1017v-255h-1017zM131 695v255h1017v-255h-1017z" />
    <glyph glyph-name="greater" unicode="&#x3e;" horiz-adv-x="1269" 
d="M141 330l682 272l-682 271v266l1055 -427v-221l-1055 -427v266z" />
    <glyph glyph-name="question" unicode="?" horiz-adv-x="1109" 
d="M602 421h-279l-5 137q-2 24 -2 49q0 74 21 121t54 66.5t73.5 28.5t81 16t73.5 20.5t54 50t21 96.5q0 89 -50 124.5t-182 35.5q-195 0 -352 -34l-56 262q213 52 440 52q75 0 132.5 -4t116.5 -16t101.5 -32.5t80.5 -53.5t61.5 -79.5t37 -111t13.5 -145.5q0 -100 -23.5 -172
t-61 -109.5t-83 -61.5t-91.5 -35t-84 -21.5t-62.5 -30.5t-25.5 -54zM281 153q0 92 40.5 130t141.5 38t141 -38t40 -130t-40 -130t-141 -38q-102 0 -142 38t-40 130z" />
    <glyph glyph-name="at" unicode="@" horiz-adv-x="1808" 
d="M1685 838q40 -129 40 -291q0 -380 -206 -555t-612 -175q-407 0 -613 175t-206 555q0 197 55 338.5t164.5 227.5t261.5 125.5t358 39.5q87 0 157.5 -17.5t128.5 -57t90 -110t32 -167.5v-421q0 -99 -11 -206q-67 -45 -183.5 -72.5t-250.5 -27.5q-222 0 -321 86t-99 262
q0 151 70.5 236.5t231.5 114.5q67 13 305 27q0 81 -34.5 111.5t-125.5 30.5q-139 0 -239.5 -25t-175.5 -83.5t-112.5 -161t-37.5 -250.5q0 -146 36.5 -247.5t110 -160t172.5 -84.5t236 -26q138 0 237.5 25.5t173 84t110 160t36.5 248.5q0 127 -27 219zM1077 566v184
q-148 -5 -210 -23q-79 -22 -108 -55.5t-29 -116.5q0 -90 46.5 -123.5t150.5 -33.5q29 0 74.5 10t68.5 23q7 57 7 135z" />
    <glyph glyph-name="A" unicode="A" horiz-adv-x="1383" 
d="M368 0h-345l416 1216q42 122 103.5 176t153.5 54q177 0 255 -230l410 -1216h-355l-97 327h-447zM537 586h295l-149 505z" />
    <glyph glyph-name="B" unicode="B" horiz-adv-x="1313" 
d="M624 1446q64 0 118 -4t115 -15t109.5 -29t94 -48.5t76 -71.5t49 -100t18.5 -132q0 -102 -55 -189t-157 -125q107 -36 170 -119t63 -220q0 -84 -21 -149.5t-62 -109.5t-92 -74t-119 -46t-135 -22.5t-149 -6.5q-272 0 -498 40v1378q209 43 475 43zM634 608h-154v-344
q67 -10 161 -10q61 0 102.5 6.5t77.5 24t53.5 52.5t17.5 89q0 57 -19 94.5t-56.5 56t-79.5 25t-103 6.5zM481 855h153q46 0 80 3.5t66.5 14t53 28.5t33 48t12.5 72t-12.5 71.5t-32.5 46.5t-54.5 26.5t-69 12t-86.5 2.5q-77 0 -143 -9v-316z" />
    <glyph glyph-name="C" unicode="C" horiz-adv-x="1159" 
d="M1066 295l30 -263q-156 -47 -389 -47q-144 0 -246.5 28t-171 82t-108.5 145t-56.5 204t-16.5 272t16.5 272t56.5 204t108.5 144.5t171 81.5t246.5 28q227 0 389 -47l-29 -262q-167 27 -309 27q-49 0 -89.5 -7.5t-71 -19t-53.5 -32.5t-39 -42t-27 -54t-17 -61t-9 -71.5
t-4 -76.5t-1 -84q0 -97 3 -149t19 -119t48 -99.5t92 -56.5t149 -24q156 0 308 27z" />
    <glyph glyph-name="D" unicode="D" horiz-adv-x="1370" 
d="M587 1170q-47 0 -103 -8v-893q49 -7 103 -7q70 0 124 13t89.5 31t60 55t37 67t19 87t7.5 94t1 107t-1 107t-7.5 94t-19 87t-37 67t-60 55t-89.5 31t-124 13zM149 27v1376q215 43 477 43q115 0 205 -15.5t156.5 -43.5t114.5 -75.5t79 -103.5t48.5 -135t24.5 -163t7 -194
t-7 -194t-24.5 -163.5t-48.5 -135.5t-79 -103t-114.5 -75.5t-156.5 -44t-205 -15.5q-262 0 -477 42z" />
    <glyph glyph-name="E" unicode="E" horiz-adv-x="1191" 
d="M1050 1424v-263h-408q-104 0 -135 -31.5t-31 -132.5v-135h548v-269h-548v-156q0 -102 31 -133.5t135 -31.5h408v-263q-250 -13 -402 -13q-52 0 -87.5 1t-82 5t-79 11t-70.5 20t-63 31.5t-50 46t-40 62.5t-24 82t-9 104v716q0 57 9 104t23.5 81.5t40 62t50.5 45.5t63 31
t70 20t79.5 10.5t82.5 4.5t87 1q197 0 402 -11z" />
    <glyph glyph-name="F" unicode="F" horiz-adv-x="1126" 
d="M482 0h-335v1075q0 57 9 104t23.5 81.5t40.5 62t51 45.5t63 31t70 20t79.5 10.5t82.5 4.5t87 1q145 0 401 -11v-263h-408q-104 0 -134 -31t-30 -133v-135h547v-269h-547v-593z" />
    <glyph glyph-name="G" unicode="G" horiz-adv-x="1324" 
d="M679 560v260h527v-537q0 -60 -13.5 -106t-34.5 -77t-59 -53t-74 -34t-94 -18.5t-105 -8t-119 -1.5q-144 0 -246.5 28t-171 82t-108.5 145t-56.5 204t-16.5 272q0 160 16.5 274t56.5 204.5t108.5 143.5t171 80.5t246.5 27.5q258 0 470 -46l-29 -259q-175 26 -390 26
q-44 0 -81.5 -5t-66 -17t-51.5 -25.5t-40 -36.5t-29 -43.5t-20 -52.5t-12.5 -58t-7 -66t-3 -70.5t-0.5 -76.5q0 -47 0.5 -77.5t3 -70.5t7 -66.5t12 -58.5t19.5 -52.5t29 -43t39.5 -36t51.5 -25.5t66 -17t81 -5q90 0 117.5 26.5t27.5 95.5v174h-222z" />
    <glyph glyph-name="H" unicode="H" horiz-adv-x="1413" 
d="M927 869v563h336v-1432h-336v592h-442v-592h-334v1432h334v-563h442z" />
    <glyph glyph-name="I" unicode="I" horiz-adv-x="630" 
d="M147 0v1432h336v-1432h-336z" />
    <glyph glyph-name="J" unicode="J" horiz-adv-x="895" 
d="M417 447v985h337v-945q0 -139 -21.5 -231t-74 -154.5t-138.5 -89.5t-218 -27q-69 0 -145 13.5t-126 38.5l28 251q108 -39 203 -39q155 0 155 198z" />
    <glyph glyph-name="K" unicode="K" horiz-adv-x="1317" 
d="M484 1432v-664l424 664h390l-461 -684l466 -748h-405l-414 703v-703h-335v1432h335z" />
    <glyph glyph-name="L" unicode="L" horiz-adv-x="1065" 
d="M1032 272v-265q-267 -11 -379 -11q-52 0 -87.5 1t-82.5 5t-79 11t-70 20t-63.5 31.5t-50.5 46t-40 62.5t-24 82t-9 104v1073h335v-995q0 -102 31 -133.5t135 -31.5h384z" />
    <glyph glyph-name="M" unicode="M" horiz-adv-x="1706" 
d="M608 1235l242 -622l245 618q42 105 103 160t132 55q109 0 153.5 -54.5t51.5 -195.5l54 -1196h-323l-23 951h-1l-209 -600q-57 -164 -181 -164q-64 0 -107 40t-74 124l-219 598h-2l-21 -949h-311l55 1198q6 131 53 189.5t151 58.5q148 0 231 -211z" />
    <glyph glyph-name="N" unicode="N" horiz-adv-x="1463" 
d="M623 1229l388 -772v975h303v-1190q0 -257 -201 -257q-91 0 -150.5 47t-122.5 172l-388 774v-978h-301v1191q0 255 199 255q85 0 149.5 -49.5t123.5 -167.5z" />
    <glyph glyph-name="O" unicode="O" horiz-adv-x="1373" 
d="M687 -15q-136 0 -233.5 27t-164.5 80.5t-107 143t-57 204.5t-17 276q0 201 27 334t93.5 224.5t178 131.5t280.5 40t280 -40t177.5 -131.5t93.5 -224.5t27 -334q0 -160 -17 -275.5t-57 -205t-107 -143t-164.5 -80.5t-232.5 -27zM687 264q35 0 64 5t51.5 17t40 24.5
t30 35.5t22 42t15 52.5t9 58t5 67t2 71.5t0.5 79q0 101 -2 153t-14.5 120t-37 100.5t-70.5 56t-115 23.5q-39 0 -70.5 -7.5t-55 -18.5t-41.5 -32.5t-30 -41t-20.5 -54.5t-12.5 -61.5t-6.5 -72.5t-3 -78t-0.5 -87q0 -49 0.5 -78.5t2 -71.5t5 -67t9.5 -58t15 -52.5t22 -42.5
t30.5 -36t40 -24.5t51.5 -16.5t64 -5z" />
    <glyph glyph-name="P" unicode="P" horiz-adv-x="1273" 
d="M483 517v-517h-334v1405q213 41 475 41q107 0 186 -9.5t157.5 -38.5t128 -79t80 -134.5t30.5 -201.5q0 -113 -27.5 -197t-75.5 -136t-121.5 -83.5t-155 -43t-188.5 -11.5q-42 0 -155 5zM483 1171v-386q48 -6 144 -6q127 0 187 44t60 160q0 109 -52.5 153.5t-189.5 44.5
q-80 0 -149 -10z" />
    <glyph glyph-name="Q" unicode="Q" horiz-adv-x="1373" 
d="M687 -15q-136 0 -233.5 27t-164.5 80.5t-107 143t-57 204.5t-17 276q0 201 27 334t93.5 224.5t178 131.5t280.5 40t280 -40t177.5 -131.5t93.5 -224.5t27 -334q0 -283 -58.5 -443.5t-200.5 -228.5q30 -43 70.5 -77.5t73.5 -54t100 -55.5l-220 -157q-9 5 -35.5 17.5
t-38.5 18.5t-37.5 19t-39.5 22t-37 24t-37.5 28t-33.5 31.5t-32.5 36.5t-27 41t-24.5 47zM926 716q0 101 -2 153t-14.5 120t-37 100.5t-70.5 56t-115 23.5q-39 0 -70.5 -7.5t-55 -18.5t-41.5 -32.5t-30 -41t-20.5 -54.5t-12.5 -61.5t-6.5 -72.5t-3 -78t-0.5 -87
q0 -49 0.5 -78.5t2 -71.5t5 -67t9.5 -58t15 -52.5t22 -42.5t30.5 -36t40 -24.5t51.5 -16.5t64 -5t64 5t51.5 17t40 24.5t30 35.5t22 42t15 52.5t9 58t5 67t2 71.5t0.5 79z" />
    <glyph glyph-name="R" unicode="R" horiz-adv-x="1332" 
d="M483 528v-528h-334v1405q213 41 475 41q106 0 185.5 -9.5t157.5 -38.5t128 -78.5t80.5 -133t30.5 -198.5q0 -176 -65 -277t-187 -146l320 -565h-381l-282 522q-29 1 -128 6zM483 1172v-375q48 -6 144 -6q126 0 186.5 43t60.5 155q0 105 -53 149t-189 44q-69 0 -149 -10z
" />
    <glyph glyph-name="S" unicode="S" horiz-adv-x="1144" 
d="M681 1175q-42 0 -69.5 -1t-66.5 -8t-62 -19.5t-40 -37t-17 -59.5q0 -34 12 -59t22.5 -39.5t51 -30.5t58.5 -21.5t84 -23.5l3 -1.5t3 -1t4 -0.5q217 -58 305 -157.5t88 -290.5q0 -234 -135.5 -337t-403.5 -103q-209 0 -429 48l33 263q231 -34 381 -34q108 0 159 33t51 116
q0 39 -13 66t-44.5 47.5t-63 33t-89.5 30.5q-85 26 -142.5 50t-112 60t-86.5 79.5t-51 106t-19 142.5q0 118 33.5 199.5t102 130t162 69.5t223.5 21q208 0 425 -49l-30 -256q-202 34 -327 34z" />
    <glyph glyph-name="T" unicode="T" horiz-adv-x="1080" 
d="M1046 1432v-274h-339v-1158h-336v1158h-337v274h1012z" />
    <glyph glyph-name="U" unicode="U" horiz-adv-x="1372" 
d="M1229 1432v-942q0 -147 -37.5 -247.5t-112 -156t-169 -78.5t-225.5 -23q-86 0 -155.5 9.5t-132.5 32t-109 61t-80 93.5t-51 132.5t-17 176.5v942h331v-958q0 -114 47 -159.5t167 -45.5q119 0 166 45.5t47 159.5v958h331z" />
    <glyph glyph-name="V" unicode="V" horiz-adv-x="1333" 
d="M1312 1432l-400 -1230q-37 -114 -96 -165.5t-147 -51.5q-91 0 -147 48.5t-96 168.5l-404 1230h357l292 -1038l297 1038h344z" />
    <glyph glyph-name="W" unicode="W" horiz-adv-x="1804" 
d="M44 1432h337l165 -1023h1l136 617q29 134 85.5 191.5t137.5 57.5t136 -58t85 -193l133 -613h1l170 1021h330l-261 -1214q-27 -124 -80.5 -178.5t-142.5 -54.5q-93 0 -150 53t-85 178l-143 631h-1l-135 -631q-48 -231 -236 -231q-89 0 -142.5 54t-80.5 177z" />
    <glyph glyph-name="X" unicode="X" horiz-adv-x="1357" 
d="M682 1007l264 425h362l-447 -696l474 -736h-386l-280 452l-273 -452h-373l467 728l-450 704h383z" />
    <glyph glyph-name="Y" unicode="Y" horiz-adv-x="1273" 
d="M804 551v-551h-335v551l-462 881h362l269 -547l279 547h349z" />
    <glyph glyph-name="Z" unicode="Z" horiz-adv-x="1167" 
d="M1042 1185l-536 -905h569v-280h-817q-93 0 -141 33t-48 96q0 49 39 117l540 907h-538v279h783q94 0 140.5 -33.5t46.5 -95.5q0 -53 -38 -118z" />
    <glyph glyph-name="bracketleft" unicode="[" horiz-adv-x="698" 
d="M444 1234v-1320h193v-248h-489v1814h490v-246h-194z" />
    <glyph glyph-name="backslash" unicode="\" horiz-adv-x="941" 
d="M636 -165l-581 1647h263l580 -1647h-262z" />
    <glyph glyph-name="bracketright" unicode="]" horiz-adv-x="699" 
d="M60 1234v246h491v-1814h-490v248h194v1320h-195z" />
    <glyph glyph-name="asciicircum" unicode="^" horiz-adv-x="1069" 
d="M424 1432h222l357 -832h-269l-199 471l-200 -471h-269z" />
    <glyph glyph-name="underscore" unicode="_" horiz-adv-x="1026" 
d="M-6 -289v103h1038v-103h-1038z" />
    <glyph glyph-name="grave" unicode="`" horiz-adv-x="563" 
d="M273 1150l-263 334h312l189 -334h-238z" />
    <glyph glyph-name="a" unicode="a" horiz-adv-x="1133" 
d="M512 -15q-228 0 -330.5 87.5t-102.5 269.5q0 152 73.5 239.5t238.5 114.5q110 18 312 26q0 73 -39.5 104.5t-128.5 31.5q-158 0 -392 -30l-26 237q246 44 437 44q79 0 143 -9.5t124 -34t100.5 -64.5t64.5 -104t24 -148v-441q0 -109 -10 -215q-179 -108 -488 -108z
M703 396v120q-147 -9 -205 -23q-62 -15 -86 -44.5t-24 -102.5q0 -66 38 -92.5t115 -26.5q94 0 155 22q7 62 7 147z" />
    <glyph glyph-name="b" unicode="b" 
d="M128 308v1209h316v-424q90 16 177 16q175 0 281 -51.5t160 -175.5t54 -335q0 -162 -29.5 -269.5t-95.5 -173t-162.5 -92.5t-239.5 -27q-123 0 -242.5 27t-208.5 81q-10 123 -10 215zM444 841v-438q0 -94 6 -147q51 -21 139 -21q43 0 76 9.5t55 24.5t37.5 40.5t23.5 49
t12.5 59.5t5.5 62t1 67q0 45 -1 73t-6 65t-14 58.5t-26.5 46t-42.5 37.5t-62 21.5t-85 8.5q-63 0 -119 -16z" />
    <glyph glyph-name="c" unicode="c" horiz-adv-x="975" 
d="M869 268l27 -237q-173 -46 -376 -46q-77 0 -139.5 17t-106 45.5t-76 72t-52 90.5t-31 107.5t-15.5 116.5t-4 123q0 114 12 195.5t43.5 152.5t86.5 113.5t141.5 66.5t206.5 24q169 0 309 -46l-26 -230q-141 29 -207 29q-68 0 -111.5 -10t-72 -29.5t-42.5 -58.5t-19 -85
t-5 -122q0 -55 1.5 -88t6.5 -71t15.5 -59t28.5 -43t45.5 -32.5t65.5 -17t90 -6.5q70 0 204 28z" />
    <glyph glyph-name="d" unicode="d" horiz-adv-x="1212" 
d="M767 1093v424h315v-1209q0 -120 -9 -215q-89 -54 -209 -81t-243 -27q-191 0 -303 50.5t-167.5 173.5t-55.5 338q0 211 54 335t160 175.5t281 51.5q89 0 177 -16zM767 841q-56 16 -120 16q-48 0 -85 -8.5t-62 -21.5t-42.5 -37.5t-26.5 -46t-14 -58.5t-6 -65t-1 -73
q0 -41 1 -67t5.5 -62t12.5 -59.5t23.5 -49t37.5 -40.5t55 -24.5t76 -9.5q88 0 139 21q7 62 7 147v438z" />
    <glyph glyph-name="e" unicode="e" horiz-adv-x="1163" 
d="M563 -15q-110 0 -193 28t-135.5 76t-85.5 120.5t-46 154t-13 183.5q0 302 111.5 432t384.5 130q119 0 205.5 -25.5t140 -70t84.5 -116t42.5 -150.5t11.5 -187q0 -48 -3 -94q-215 -40 -497 -55l-168 -9q5 -93 57.5 -127.5t166.5 -34.5q164 0 396 29l27 -240
q-259 -44 -486 -44zM394 618l153 8q114 6 207 18q2 20 2 36q0 93 -39 139t-131 46q-62 0 -101.5 -17.5t-58.5 -53.5t-25.5 -76t-6.5 -100z" />
    <glyph glyph-name="f" unicode="f" horiz-adv-x="806" 
d="M544 1175v-81h217v-244h-217v-850h-314v850h-176v244h176v86q0 169 91.5 260.5t273.5 91.5q90 0 193 -14l-24 -220h-89q-69 0 -100 -29.5t-31 -93.5z" />
    <glyph glyph-name="g" unicode="g" horiz-adv-x="1204" 
d="M149 -368l25 235q238 -33 399 -33q186 0 186 175v17q-90 -16 -176 -16q-131 0 -221 27t-153 91t-92.5 169.5t-29.5 261.5q0 157 31 263t98 169.5t162.5 90.5t235.5 27q123 0 243 -26.5t208 -80.5q9 -95 9 -215v-840q0 -85 -24.5 -150t-65 -105t-101 -65.5t-125.5 -35
t-144 -9.5q-201 0 -465 50zM614 859q-47 0 -83 -11.5t-58.5 -34.5t-37 -49.5t-21.5 -63.5t-9.5 -68.5t-2.5 -72.5q0 -42 1 -69.5t6.5 -61.5t15 -56t26.5 -45t42 -35.5t62 -21t84 -8.5q62 0 120 16v413q0 94 -6 147q-51 21 -139 21z" />
    <glyph glyph-name="h" unicode="h" horiz-adv-x="1231" 
d="M1101 0h-315v657q0 55 -6.5 88t-27 58.5t-59.5 36t-103 10.5q-74 0 -143 -25v-825h-316v1517h316v-436q104 28 214 28q84 0 150.5 -12t112.5 -31.5t79 -51.5t51.5 -65.5t29.5 -80.5t14 -88t3 -97v-683z" />
    <glyph glyph-name="i" unicode="i" horiz-adv-x="593" 
d="M296 1196q-101 0 -141 38t-40 130t40 130t141 38t141 -38t40 -130t-40 -130t-141 -38zM138 0v1094h318v-1094h-318z" />
    <glyph glyph-name="j" unicode="j" horiz-adv-x="599" 
d="M141 -4v1098h317v-1063q0 -244 -108.5 -346.5t-357.5 -102.5q-52 0 -93 4l25 234q45 5 70.5 9.5t57.5 16.5t48.5 29t28.5 47.5t12 73.5zM299 1196q-101 0 -141 38t-40 130t40 130t141 38t141.5 -38t40.5 -130t-40.5 -130t-141.5 -38z" />
    <glyph glyph-name="k" unicode="k" horiz-adv-x="1180" 
d="M445 1517v-895l332 472h364l-369 -497l387 -597h-380l-334 551v-551h-314v1517h314z" />
    <glyph glyph-name="l" unicode="l" horiz-adv-x="575" 
d="M116 273v1244h316v-1213q0 -71 16 -123.5t56 -109.5l-281 -131q-54 64 -80.5 142.5t-26.5 190.5z" />
    <glyph glyph-name="m" unicode="m" horiz-adv-x="1722" 
d="M442 686v-686h-313v787q0 104 9 215q185 107 472 107q164 0 257 -56q156 56 314 56q104 0 180 -22.5t120 -58.5t70 -93t34 -113t8 -131v-691h-314v667q0 97 -32.5 142t-123.5 45q-65 0 -117 -24q11 -54 11 -139v-691h-313v667q0 94 -30.5 140.5t-114.5 46.5
q-63 0 -110 -21q-7 -62 -7 -147z" />
    <glyph glyph-name="n" unicode="n" horiz-adv-x="1197" 
d="M440 686v-686h-312v787q0 120 9 215q184 107 485 107q85 0 152 -10.5t114 -29t80.5 -48.5t53.5 -62t31.5 -78t15 -89t3.5 -101v-691h-313v667q0 106 -34 146.5t-142 41.5q-83 0 -136 -22q-7 -62 -7 -147z" />
    <glyph glyph-name="o" unicode="o" horiz-adv-x="1170" 
d="M585 -15q-271 0 -382.5 127.5t-111.5 434.5q0 306 111.5 434t382.5 128t382.5 -128.5t111.5 -433.5q0 -306 -111.5 -434t-382.5 -128zM585 241q108 0 143.5 62t35.5 244q0 181 -35.5 243.5t-143.5 62.5t-143.5 -61.5t-35.5 -244.5q0 -185 35 -245.5t144 -60.5z" />
    <glyph glyph-name="p" unicode="p" horiz-adv-x="1211" 
d="M445 2v-405h-315v1190q0 120 9 215q88 54 208 80.5t243 26.5q143 0 239.5 -27t162.5 -92.5t95.5 -173t29.5 -269.5q0 -211 -54 -335t-160 -175.5t-281 -51.5q-82 0 -177 17zM445 254q61 -17 120 -17q48 0 85 8.5t62 21.5t42.5 37.5t26.5 46t14 58.5t6 65t1 73
q0 40 -1 66.5t-5.5 62.5t-12.5 59.5t-24 49t-38 40.5t-55 24.5t-76 9.5q-87 0 -138 -21q-7 -62 -7 -147v-437z" />
    <glyph glyph-name="q" unicode="q" 
d="M1081 787v-1190h-315v405q-94 -17 -177 -17q-175 0 -281 51.5t-160 175.5t-54 335q0 215 55.5 338t167.5 173.5t303 50.5q124 0 244 -26.5t208 -80.5q9 -95 9 -215zM766 691q0 85 -7 147q-51 21 -139 21q-43 0 -76 -9.5t-55 -24.5t-37.5 -40.5t-23.5 -49t-12.5 -59.5
t-5.5 -62t-1 -67q0 -45 1 -73t6 -65t14 -58.5t26.5 -46t42.5 -37.5t62 -21.5t85 -8.5q60 0 120 17v437z" />
    <glyph glyph-name="r" unicode="r" horiz-adv-x="752" 
d="M439 0h-312v787q0 120 9 215q88 54 208 80.5t243 26.5q69 0 121 -7l-25 -253q-44 4 -75 4q-103 0 -163 -31q-6 -66 -6 -147v-675z" />
    <glyph glyph-name="s" unicode="s" horiz-adv-x="1005" 
d="M601 866q-28 0 -44 -0.5t-41.5 -2.5t-41 -7t-31 -12.5t-23 -21t-7.5 -31.5t8 -33t18.5 -24.5t31.5 -19t35.5 -14.5t43.5 -13.5t43 -13.5q135 -45 177 -67q108 -56 139 -161q15 -51 15 -119q0 -97 -33 -165t-94.5 -105.5t-137 -54t-171.5 -16.5q-219 0 -403 51l30 234
q183 -37 305 -37q30 0 42.5 0.5t40.5 2t41.5 7t31 14t25 24t7.5 35.5t-7 35t-16.5 24.5t-28.5 18.5t-32 13t-39.5 11.5t-38.5 11.5q-43 13 -71.5 23t-68.5 27t-66 34.5t-54.5 44.5t-45.5 57.5t-28 73t-11 91.5q0 328 397 328q209 0 415 -49l-29 -228q-168 34 -283 34z" />
    <glyph glyph-name="t" unicode="t" horiz-adv-x="833" 
d="M224 1352l312 51v-309h212v-242h-212v-512q0 -57 26.5 -85t86.5 -28q54 0 101 4l25 -224q-121 -22 -211 -22q-177 0 -258.5 78.5t-81.5 240.5v548h-172v242h172v258z" />
    <glyph glyph-name="u" unicode="u" horiz-adv-x="1193" 
d="M123 403v691h313v-667q0 -106 33.5 -146.5t140.5 -40.5q84 0 133 21q7 62 7 147v686h313v-786q0 -120 -9 -215q-188 -108 -483 -108q-85 0 -151.5 10.5t-113.5 29t-80.5 48.5t-53 62t-31 78t-15 89t-3.5 101z" />
    <glyph glyph-name="v" unicode="v" horiz-adv-x="1177" 
d="M1142 1094l-329 -924q-65 -185 -225 -185q-158 0 -223 185l-329 924h330l229 -763l227 763h320z" />
    <glyph glyph-name="w" unicode="w" horiz-adv-x="1636" 
d="M362 1094l143 -752h1l116 457q53 213 201 213q146 0 200 -213l119 -457l143 752h310l-230 -899q-54 -210 -210 -210q-157 0 -219 210l-119 405l-113 -405q-59 -210 -220 -210q-81 0 -131.5 50t-79.5 162l-231 897h320z" />
    <glyph glyph-name="x" unicode="x" horiz-adv-x="1219" 
d="M620 799l196 295h340l-371 -525l400 -569h-368l-220 328l-215 -328h-348l399 564l-372 530h362z" />
    <glyph glyph-name="y" unicode="y" horiz-adv-x="1157" 
d="M603 479l193 615h321l-509 -1497h-322l175 483l-439 1014h335z" />
    <glyph glyph-name="z" unicode="z" horiz-adv-x="1095" 
d="M969 883l-447 -624h456v-259h-769q-62 0 -97 29t-35 78q0 48 41 106l450 633h-450v248h759q61 0 96 -28.5t35 -77.5q0 -51 -39 -105z" />
    <glyph glyph-name="braceleft" unicode="{" horiz-adv-x="708" 
d="M493 226v-101q0 -42 1.5 -65.5t10.5 -55.5t25.5 -49.5t49 -33t79.5 -20.5l-29 -223q-78 6 -133.5 16t-106 29.5t-83 49t-57 74t-35 106.5t-10.5 144q0 210 -27 284t-116 83v219q88 8 115.5 83t27.5 285q0 82 10.5 143.5t35 106t57 74t83 49t106 29.5t133.5 16l29 -223
q-47 -6 -79.5 -21t-49 -32.5t-25.5 -49.5t-10.5 -55.5t-1.5 -65.5v-122q0 -50 -1 -79.5t-7.5 -75.5t-18.5 -75t-36 -57t-59 -42q34 -16 57.5 -46t36 -62t19 -78t8 -78.5t1.5 -80.5z" />
    <glyph glyph-name="bar" unicode="|" horiz-adv-x="547" 
d="M147 -403v1920h253v-1920h-253z" />
    <glyph glyph-name="braceright" unicode="}" horiz-adv-x="708" 
d="M78 -322l-28 223q34 4 60 13t43.5 19.5t29.5 28.5t18 33t9.5 40.5t4 42.5t0.5 47v101q0 60 3.5 102t14.5 95t37.5 90.5t67.5 57.5q-35 14 -59 42t-36.5 57t-19 74.5t-7.5 76t-1 79.5v122q0 30 -0.5 47.5t-4 42.5t-9.5 40t-18 33t-29.5 28.5t-43.5 19.5t-60 13l28 223
q78 -6 133.5 -16t106 -29.5t83 -49t57 -74t35 -106t10.5 -143.5q0 -210 27.5 -285t115.5 -83v-219q-89 -9 -116 -83t-27 -284q0 -82 -10.5 -144t-35 -106.5t-57 -74t-83 -49t-106 -29.5t-133.5 -16z" />
    <glyph glyph-name="asciitilde" unicode="~" horiz-adv-x="1249" 
d="M914 863h245q-18 -209 -103.5 -319.5t-206.5 -110.5q-68 0 -122.5 17.5t-88.5 43t-63 51t-61.5 43t-68.5 17.5q-81 0 -109 -164h-246q18 209 103.5 319t206.5 110q68 0 122.5 -17.5t88.5 -43t63 -50.5t61.5 -42.5t68.5 -17.5q80 0 110 164z" />
    <glyph glyph-name="uni00A0" unicode="&#xa0;" horiz-adv-x="506" 
 />
    <glyph glyph-name="exclamdown" unicode="&#xa1;" horiz-adv-x="617" 
d="M309 760q-101 0 -141.5 38t-40.5 130t40 130t142 38q101 0 141 -38t40 -130t-40 -130t-141 -38zM125 -351l47 1011h274l46 -1011h-367z" />
    <glyph glyph-name="cent" unicode="&#xa2;" horiz-adv-x="927" 
d="M835 423l26 -229q-119 -31 -234 -40v-188h-207v188q-84 11 -146 47.5t-98 86.5t-57 122t-28 140t-7 154q0 120 14.5 204.5t51 154t103 110.5t167.5 57v193h207v-185q123 -8 232 -43l-24 -223q-142 28 -201 28q-82 0 -129 -13.5t-73 -51t-33.5 -88.5t-7.5 -143
q0 -46 1 -75t4.5 -63t10.5 -54t19 -42t30 -33.5t43 -22t59 -14.5t78 -4q64 0 199 27z" />
    <glyph glyph-name="sterling" unicode="&#xa3;" horiz-adv-x="1228" 
d="M271 586h-194v235h161q-9 78 -9 177q0 95 27 166.5t72 116.5t111.5 72.5t138.5 38.5t161 11q77 0 135.5 -12t109 -42t82 -56.5t87.5 -80.5l-162 -193q-65 59 -118 86.5t-126 27.5q-112 0 -154 -41.5t-42 -137.5q0 -39 8 -133h294v-235h-272q2 -52 2 -80q0 -104 -48 -233
h204q193 0 360 27l27 -253q-179 -47 -486 -47h-311q-80 0 -119.5 35.5t-39.5 91.5q0 37 26.5 88.5t53.5 121.5t27 153q0 48 -6 96z" />
    <glyph glyph-name="currency" unicode="&#xa4;" horiz-adv-x="1315" 
d="M1083 436l153 -147l-177 -177l-153 155q-119 -68 -249 -68q-135 0 -251 67l-153 -154l-174 177l152 148q-69 114 -69 248q0 136 70 252l-153 151l174 175l154 -155q115 67 250 67q137 0 250 -65l152 152l177 -174l-153 -148q73 -119 73 -255q0 -131 -73 -249zM657 442
q96 0 168 71t72 172q0 102 -69.5 174.5t-170.5 72.5q-97 0 -167 -72t-70 -175q0 -99 68.5 -171t168.5 -72z" />
    <glyph glyph-name="yen" unicode="&#xa5;" horiz-adv-x="1204" 
d="M380 1389l224 -525l233 525h314l-277 -606h145v-188h-231l-27 -59v-74h258v-185h-258v-277h-319v277h-256v185h256v74l-27 59h-229v188h144l-276 606h326z" />
    <glyph glyph-name="brokenbar" unicode="&#xa6;" horiz-adv-x="508" 
d="M128 -289v661h252v-661h-252zM128 743v660h252v-660h-252z" />
    <glyph glyph-name="section" unicode="&#xa7;" horiz-adv-x="1158" 
d="M691 933q48 -20 78.5 -33t76 -37t74.5 -45t62.5 -52.5t52.5 -65t32 -78t13 -94.5q0 -155 -147 -260q74 -84 74 -200q0 -101 -43.5 -175t-117.5 -114t-156 -58t-174 -18q-216 0 -421 48l30 235q185 -36 358 -36h39t39 2t40.5 5.5t33.5 11t30 18t18 27t8 38.5q0 19 -7 35.5
t-24.5 31.5t-32.5 25.5t-46 25t-48.5 22t-56.5 23.5q-53 21 -81.5 33.5t-77.5 37t-76.5 45t-63 54t-54 67.5t-32 81t-13.5 101q0 166 143 269q-61 78 -61 178q0 162 117.5 263.5t322.5 101.5q212 0 421 -50l-29 -229q-187 37 -359 37q-161 0 -161 -102q0 -22 13 -43
t31 -36.5t50.5 -33t58 -28.5t66.5 -28zM740 406q54 36 54 97q0 48 -41.5 88.5t-130.5 82.5q-29 13 -103 40.5t-111 46.5q-54 -34 -54 -102q0 -46 36 -84.5t118 -77.5q36 -17 116.5 -45.5t115.5 -45.5z" />
    <glyph glyph-name="dieresis" unicode="&#xa8;" horiz-adv-x="908" 
d="M240 1155q-63 0 -106.5 42.5t-43.5 105.5t43.5 105t106.5 42t104.5 -42t41.5 -105t-41.5 -105.5t-104.5 -42.5zM671 1155q-63 0 -106 42.5t-43 105.5t43 105t106 42t105 -42t42 -105t-42 -105.5t-105 -42.5z" />
    <glyph glyph-name="copyright" unicode="&#xa9;" horiz-adv-x="1618" 
d="M981 608h181q-12 -143 -111 -230t-235 -87q-121 0 -206 57.5t-125 152t-40 217.5q0 111 41 205t127 155.5t203 61.5q78 0 150 -30t127.5 -98.5t68.5 -164.5h-181q-10 66 -54.5 102.5t-110.5 36.5q-81 0 -130 -72t-49 -196t47.5 -194.5t131.5 -70.5q62 0 107.5 42
t57.5 113zM809 1446q199 0 367 -97t266 -264.5t98 -366.5q0 -149 -58 -284.5t-155.5 -234t-233 -156.5t-284.5 -58q-199 0 -367 98.5t-265.5 267t-97.5 367.5q0 149 57.5 284t155.5 232t233 154.5t284 57.5zM809 1278q-154 0 -281 -74t-200 -202.5t-73 -283.5
q0 -118 43 -223t116.5 -179.5t176.5 -118t218 -43.5t218 43.5t176.5 118t116.5 179.5t43 223q0 155 -73 283.5t-200 202.5t-281 74z" />
    <glyph glyph-name="ordfeminine" unicode="&#xaa;" horiz-adv-x="848" 
d="M393 635q-158 0 -229.5 60.5t-71.5 185.5q0 206 218 243q78 13 215 17q0 54 -27.5 77t-88.5 23q-113 0 -273 -21l-17 160q167 30 303 30q69 0 122.5 -11t99.5 -37.5t70.5 -76.5t24.5 -122v-306q0 -59 -7 -147q-124 -75 -339 -75zM525 917v87q-112 -8 -142 -16
q-41 -10 -58 -31.5t-17 -72.5q0 -47 26 -66.5t79 -19.5q64 0 107 16q5 53 5 103z" />
    <glyph glyph-name="guillemotleft" unicode="&#xab;" horiz-adv-x="1203" 
d="M362 530l275 -428h-285l-302 428l302 427h285zM856 530l275 -428h-285l-303 428l303 427h285z" />
    <glyph glyph-name="logicalnot" unicode="&#xac;" horiz-adv-x="1280" 
d="M1124 829v-655h-267v399h-750v256h1017z" />
    <glyph glyph-name="uni00AD" unicode="&#xad;" horiz-adv-x="801" 
d="M125 423v243h551v-243h-551z" />
    <glyph glyph-name="registered" unicode="&#xae;" horiz-adv-x="1024" 
d="M466 959v-179h-116v469h172q188 0 188 -144q0 -96 -82 -127l97 -198h-130l-86 179h-43zM68 1003q0 184 129.5 313.5t314.5 129.5q184 0 314 -129.5t130 -313.5t-130 -314.5t-314 -130.5t-314 130t-130 315zM836 1003q0 139 -93.5 233t-230.5 94t-230.5 -94t-93.5 -233
q0 -140 93.5 -234.5t230.5 -94.5t230.5 94.5t93.5 234.5zM508 1151h-42v-94h44q85 0 85 48q0 25 -20.5 35.5t-66.5 10.5z" />
    <glyph glyph-name="macron" unicode="&#xaf;" horiz-adv-x="881" 
d="M117 1204v190h646v-190h-646z" />
    <glyph glyph-name="degree" unicode="&#xb0;" horiz-adv-x="806" 
d="M402 777q-138 0 -236 98.5t-98 236.5t98 236t236 98t237 -98t99 -236t-99 -236.5t-237 -98.5zM402 950q68 0 115.5 47t47.5 115q0 67 -47.5 114.5t-115.5 47.5q-67 0 -114 -47t-47 -115t46.5 -115t114.5 -47z" />
    <glyph glyph-name="plusminus" unicode="&#xb1;" horiz-adv-x="1203" 
d="M469 903v304h266v-304h375v-255h-375v-305h-266v305h-376v255h376zM93 -5v255h1017v-255h-1017z" />
    <glyph glyph-name="twosuperior" unicode="&#xb2;" horiz-adv-x="728" 
d="M79 1482l-21 164q162 32 292 32q70 0 123 -10t97 -34t67.5 -69t23.5 -110q0 -115 -61 -191.5t-188 -126.5q-65 -25 -91 -52.5t-33 -71.5h373v-180h-617q41 232 84.5 317t185.5 145q70 30 99 56.5t29 69.5q0 50 -34.5 66t-133.5 16q-80 0 -195 -21z" />
    <glyph glyph-name="threesuperior" unicode="&#xb3;" horiz-adv-x="713" 
d="M325 1679q55 0 98.5 -5t86.5 -19.5t71.5 -39t46 -65.5t17.5 -97q0 -120 -104 -178q62 -26 89 -68t27 -107q0 -150 -84.5 -212t-251.5 -62q-97 0 -276 32l23 164q150 -20 222 -20q78 0 110.5 18.5t32.5 73.5q0 75 -67 84q-75 9 -171 9h-25v155q94 1 195 17q60 9 60 78
q0 43 -28 56.5t-84 13.5q-64 0 -238 -21l-22 161q158 32 272 32z" />
    <glyph glyph-name="acute" unicode="&#xb4;" horiz-adv-x="563" 
d="M52 1150l190 334h311l-262 -334h-239z" />
    <glyph glyph-name="mu" unicode="&#xb5;" horiz-adv-x="1315" 
d="M158 -403v1497h291v-654q0 -93 43.5 -150.5t119.5 -57.5q61 0 103 27.5t64.5 82t32 121.5t9.5 158v473h292v-664q0 -49 0.5 -71t5 -57.5t14 -53t28 -35.5t46.5 -27v-201q-132 0 -211 43.5t-112 112.5q-56 -84 -121 -120t-153 -36q-101 0 -163 57v-445h-289z" />
    <glyph glyph-name="paragraph" unicode="&#xb6;" horiz-adv-x="1343" 
d="M763 1234v-1549h-226v873q-210 10 -345 133t-135 297q0 219 146 331.5t408 112.5h578v-1747h-226v1549h-200z" />
    <glyph glyph-name="periodcentered" unicode="&#xb7;" horiz-adv-x="608" 
d="M304 413q-105 0 -143.5 37t-38.5 137q0 99 39 136.5t143 37.5t143 -37.5t39 -136.5q0 -100 -38.5 -137t-143.5 -37z" />
    <glyph glyph-name="cedilla" unicode="&#xb8;" horiz-adv-x="448" 
d="M50 -197l117 197h167l-75 -116q64 -10 109.5 -49t45.5 -99q0 -92 -70.5 -136.5t-176.5 -44.5q-99 0 -182 49l43 113q74 -37 136 -37q63 0 63 51q0 21 -18.5 36.5t-48 22.5t-56.5 10t-54 3z" />
    <glyph glyph-name="onesuperior" unicode="&#xb9;" horiz-adv-x="514" 
d="M205 835v627q-69 -15 -172 -25l-10 167q131 20 234 67h164v-836h-216z" />
    <glyph glyph-name="ordmasculine" unicode="&#xba;" horiz-adv-x="862" 
d="M431 635q-188 0 -265.5 88t-77.5 300q0 211 77.5 299t265.5 88t265.5 -88.5t77.5 -298.5q0 -211 -77 -299.5t-266 -88.5zM431 809q75 0 99.5 43t24.5 171q0 127 -25 170.5t-99 43.5q-75 0 -99.5 -43t-24.5 -171q0 -129 24.5 -171.5t99.5 -42.5z" />
    <glyph glyph-name="guillemotright" unicode="&#xbb;" horiz-adv-x="1204" 
d="M661 530l-303 -428h-285l275 428l-275 427h285zM1155 530l-303 -428h-285l275 428l-275 427h285z" />
    <glyph glyph-name="onequarter" unicode="&#xbc;" horiz-adv-x="1580" 
d="M1208 0v180h-240q-73 0 -103 27t-30 79q0 56 65 140l260 335q39 51 71.5 67.5t78.5 16.5q48 0 78.5 -30t30.5 -86v-384h97v-165h-97v-180h-211zM280 1430h164v-836h-215v626q-75 -15 -173 -24l-10 168q135 20 234 66zM1290 1461l-840 -1490h-211l840 1490h211zM1054 345
h155v209z" />
    <glyph glyph-name="onehalf" unicode="&#xbd;" horiz-adv-x="1754" 
d="M1086 649l-21 165q157 31 292 31q70 0 123 -10t97 -34t67.5 -69t23.5 -110q0 -115 -61 -192t-188 -126q-65 -26 -90.5 -53.5t-32.5 -71.5h372v-179h-617q10 57 15.5 86.5t15 73t17 65t19 53t24.5 48.5t30.5 39t39.5 36.5t49 30t61 30.5q69 29 98.5 56.5t29.5 70.5
q0 49 -34.5 65t-134.5 16q-71 0 -195 -21zM48 1364q133 20 233 66h164v-836h-215v626q-75 -15 -173 -24zM1080 1461h212l-841 -1490h-211z" />
    <glyph glyph-name="threequarters" unicode="&#xbe;" horiz-adv-x="1719" 
d="M1350 0v180h-241q-73 0 -102.5 27t-29.5 79q0 56 65 140l259 335q39 51 71.5 67.5t79.5 16.5q48 0 78.5 -30t30.5 -86v-384h97v-165h-97v-180h-211zM353 1439q69 0 121.5 -9t99.5 -32.5t72.5 -70t25.5 -115.5q0 -119 -104 -177q63 -27 90 -68.5t27 -106.5
q0 -151 -85 -213t-251 -62q-97 0 -276 32l22 165q160 -21 223 -21q78 0 110 18.5t32 73.5q0 75 -67 84q-78 9 -174 9h-22v156q102 1 196 16q59 9 59 78q0 42 -28 56t-84 14q-80 0 -238 -21l-22 162q169 32 273 32zM1432 1461l-841 -1490h-211l841 1490h211zM1196 345h155
v209z" />
    <glyph glyph-name="questiondown" unicode="&#xbf;" horiz-adv-x="1109" 
d="M507 660h279l5 -137q2 -24 2 -49q0 -74 -21 -121t-54 -66.5t-73.5 -29t-81 -16.5t-73.5 -20.5t-54 -50t-21 -96.5q0 -89 49.5 -124t181.5 -35q194 0 353 34l55 -262q-217 -53 -439 -53q-75 0 -132.5 4t-116.5 16t-101.5 32.5t-80.5 54t-61.5 79.5t-37 111t-13.5 146
q0 100 23.5 172t61 109.5t83 61t91 34.5t83.5 21.5t63 30.5t26 54zM465 928q0 92 40 130t141 38q102 0 142 -38t40 -130t-40.5 -130t-141.5 -38t-141 38t-40 130z" />
    <glyph glyph-name="Agrave" unicode="&#xc0;" horiz-adv-x="1383" 
d="M368 0h-345l416 1216q42 122 103.5 176t153.5 54q177 0 255 -230l410 -1216h-355l-97 327h-447zM571 1571l-281 270h334l202 -270h-255zM537 586h296l-150 505z" />
    <glyph glyph-name="Aacute" unicode="&#xc1;" horiz-adv-x="1383" 
d="M368 0h-345l416 1216q42 122 103.5 176t153.5 54q177 0 255 -230l410 -1216h-355l-97 327h-447zM568 1558l203 271h333l-281 -271h-255zM537 586h296l-150 505z" />
    <glyph glyph-name="Acircumflex" unicode="&#xc2;" horiz-adv-x="1383" 
d="M367 0h-345l417 1216q42 122 103.5 176t153.5 54q177 0 255 -230l409 -1216h-354l-97 327h-448zM602 1830h177l273 -272h-239l-120 131l-123 -131h-236zM536 586h296l-149 505z" />
    <glyph glyph-name="Atilde" unicode="&#xc3;" horiz-adv-x="1383" 
d="M841 1826h158q-10 -129 -65.5 -199t-126.5 -70q-42 0 -77 17.5t-53.5 38t-38 38t-35.5 17.5q-46 0 -62 -106h-158q10 128 66 198.5t127 70.5q43 0 78 -17.5t53 -38t37.5 -38t35.5 -17.5q45 0 61 106zM22 0l417 1216q42 122 103.5 176t153.5 54q177 0 255 -230l409 -1216
h-354l-97 327h-448l-94 -327h-345zM832 586l-149 505l-147 -505h296z" />
    <glyph glyph-name="Adieresis" unicode="&#xc4;" horiz-adv-x="1383" 
d="M368 0h-345l416 1216q42 122 104 176t154 54q176 0 254 -230l410 -1216h-355l-97 327h-447zM479 1543q-63 0 -106.5 42t-43.5 105t43.5 105.5t106.5 42.5t104 -42.5t41 -105.5t-41 -105t-104 -42zM910 1543q-63 0 -106 42t-43 105t43 105.5t106 42.5t104.5 -42.5
t41.5 -105.5t-41.5 -105t-104.5 -42zM537 586h296l-150 505z" />
    <glyph glyph-name="Aring" unicode="&#xc5;" horiz-adv-x="1383" 
d="M367 0h-345l417 1216q42 122 103.5 176t153.5 54q177 0 255 -230l409 -1216h-354l-97 327h-448zM692 1538q-89 0 -153 64t-64 154q0 89 64 152.5t153 63.5q90 0 153.5 -63.5t63.5 -152.5q0 -90 -63.5 -154t-153.5 -64zM692 1655q42 0 71 29.5t29 71.5q0 41 -29 70.5
t-71 29.5q-41 0 -70.5 -29.5t-29.5 -70.5q0 -42 29.5 -71.5t70.5 -29.5zM536 586h296l-149 505z" />
    <glyph glyph-name="AE" unicode="&#xc6;" horiz-adv-x="1877" 
d="M23 0l419 1222q24 69 59.5 114.5t84.5 68.5t100 32t120 9q134 0 212 -47q59 23 133 29.5t184 6.5q199 0 401 -11v-263h-408q-104 0 -134.5 -31.5t-30.5 -132.5v-135h548v-269h-548v-156q0 -102 30.5 -133.5t134.5 -31.5h408v-263q-250 -13 -401 -13q-57 0 -95.5 1.5
t-89 6t-84.5 14t-73 25.5t-64.5 40.5t-48.5 58t-35 80.5t-15 105h-364l-97 -327h-346zM691 1087l-148 -501h286v496q0 85 -59 85q-31 0 -49 -19.5t-30 -60.5z" />
    <glyph glyph-name="Ccedilla" unicode="&#xc7;" horiz-adv-x="1159" 
d="M1096 1399l-29 -262q-167 27 -309 27q-45 0 -82 -5t-66 -17t-52 -25.5t-39.5 -36t-29 -43t-20 -52.5t-12 -57.5t-7 -65.5t-3 -70t-0.5 -76q0 -97 3 -149t19 -119t48 -99.5t92 -56.5t149 -24q155 0 307 27l31 -263q-133 -39 -317 -46l-59 -91q64 -10 109 -49.5t45 -99.5
q0 -92 -70.5 -136t-176.5 -44q-102 0 -181 48l42 113q73 -37 136 -37q64 0 64 51q0 21 -18.5 36t-48 22.5t-57 10.5t-53.5 3l103 175q-121 8 -207.5 41.5t-144.5 89.5t-92 144.5t-48 196.5t-14 256q0 159 16.5 272t56.5 204t108.5 144.5t171 81.5t246.5 28q225 0 389 -47z
" />
    <glyph glyph-name="Egrave" unicode="&#xc8;" horiz-adv-x="1191" 
d="M1050 1424v-263h-408q-104 0 -134.5 -31.5t-30.5 -132.5v-135h547v-269h-547v-156q0 -102 30.5 -133.5t134.5 -31.5h408v-263q-250 -13 -402 -13q-52 0 -87.5 1t-82 5t-79 11t-70.5 20t-63 31.5t-50 46t-40 62.5t-24 82t-9 104v716q0 57 9 104t23.5 81.5t40 62t50.5 45.5
t63 31t70 20t79.5 10.5t82.5 4.5t87 1q197 0 402 -11zM590 1547l-280 271h333l202 -271h-255z" />
    <glyph glyph-name="Eacute" unicode="&#xc9;" horiz-adv-x="1191" 
d="M1050 1424v-263h-408q-104 0 -134.5 -31.5t-30.5 -132.5v-135h547v-269h-547v-156q0 -102 30.5 -133.5t134.5 -31.5h408v-263q-250 -13 -402 -13q-52 0 -87.5 1t-82 5t-79 11t-70.5 20t-63 31.5t-50 46t-40 62.5t-24 82t-9 104v716q0 57 9 104t23.5 81.5t40 62t50.5 45.5
t63 31t70 20t79.5 10.5t82.5 4.5t87 1q197 0 402 -11zM457 1547l202 271h333l-280 -271h-255z" />
    <glyph glyph-name="Ecircumflex" unicode="&#xca;" horiz-adv-x="1191" 
d="M1049 1424v-263h-407q-104 0 -135 -31.5t-31 -132.5v-135h548v-269h-548v-156q0 -102 31 -133.5t135 -31.5h407v-263q-250 -13 -401 -13q-52 0 -87.5 1t-82 5t-79 11t-70.5 20t-63 31.5t-50 46t-40 62.5t-24 82t-9 104v716q0 57 9 104t23.5 81.5t40 62t50.5 45.5t63 31
t70 20t79.5 10.5t82.5 4.5t87 1q199 0 401 -11zM536 1819h177l273 -272h-239l-120 130l-123 -130h-236z" />
    <glyph glyph-name="Edieresis" unicode="&#xcb;" horiz-adv-x="1192" 
d="M1050 1424v-263h-408q-104 0 -134.5 -31.5t-30.5 -132.5v-135h547v-269h-547v-156q0 -102 30.5 -133.5t134.5 -31.5h408v-263q-250 -13 -402 -13q-52 0 -87.5 1t-82 5t-79 11t-70.5 20t-63 31.5t-50 46t-40 62.5t-24 82t-9 104v716q0 57 9 104t23.5 81.5t40 62t50.5 45.5
t63 31t70 20t79.5 10.5t82.5 4.5t87 1q200 0 402 -11zM415 1533q-63 0 -106 42.5t-43 105.5t43 105t106 42t104.5 -42t41.5 -105t-41.5 -105.5t-104.5 -42.5zM847 1533q-63 0 -106 42.5t-43 105.5t43 105t106 42t104.5 -42t41.5 -105t-41.5 -105.5t-104.5 -42.5z" />
    <glyph glyph-name="Igrave" unicode="&#xcc;" horiz-adv-x="630" 
d="M147 1432h336v-1432h-336v1432zM459 1552h-255l-280 270h332z" />
    <glyph glyph-name="Iacute" unicode="&#xcd;" horiz-adv-x="630" 
d="M147 0v1432h336v-1432h-336zM171 1552l203 270h333l-281 -270h-255z" />
    <glyph glyph-name="Icircumflex" unicode="&#xce;" horiz-adv-x="630" 
d="M224 1814h178l273 -272h-240l-120 131l-123 -131h-236zM147 0v1432h336v-1432h-336z" />
    <glyph glyph-name="Idieresis" unicode="&#xcf;" horiz-adv-x="630" 
d="M101 1529q-63 0 -106 42t-43 105t43 105.5t106 42.5t104.5 -42.5t41.5 -105.5t-41.5 -105t-104.5 -42zM533 1529q-63 0 -106 42t-43 105t43 105.5t106 42.5t104.5 -42.5t41.5 -105.5t-41.5 -105t-104.5 -42zM147 0v1432h336v-1432h-336z" />
    <glyph glyph-name="Eth" unicode="&#xd0;" horiz-adv-x="1411" 
d="M190 632h-107v210h107v561q215 43 477 43q115 0 205 -15.5t156.5 -43.5t114.5 -75.5t79 -103.5t48.5 -135t24.5 -163t7 -194t-7 -194t-24.5 -163.5t-48.5 -135.5t-79 -103t-114.5 -75.5t-156.5 -44t-205 -15.5q-262 0 -477 42v605zM525 632v-363q49 -7 103 -7
q70 0 124 13t90 31t60 55t37 67t19.5 86.5t7.5 94t1 107.5t-1 107.5t-7.5 94t-19.5 86.5t-37 67t-60 55t-90 31t-124 13q-47 0 -103 -8v-320h201v-210h-201z" />
    <glyph glyph-name="Ntilde" unicode="&#xd1;" horiz-adv-x="1463" 
d="M624 1229l388 -772v975h302v-1190q0 -257 -200 -257q-91 0 -151 47t-123 172l-387 774v-978h-302v1191q0 255 199 255q85 0 150 -49.5t124 -167.5zM888 1825h157q-10 -129 -65.5 -199t-126.5 -70q-35 0 -64.5 11.5t-48 27.5t-34 32t-30 27.5t-27.5 11.5q-45 0 -62 -105
h-157q10 129 65.5 199t126.5 70q43 0 78 -17.5t53.5 -38t37.5 -38t35 -17.5q46 0 62 106z" />
    <glyph glyph-name="Ograve" unicode="&#xd2;" horiz-adv-x="1373" 
d="M687 -15q-136 0 -233.5 27t-164.5 80.5t-107 143t-57 204.5t-17 276q0 201 27 334t93.5 224.5t178 131.5t280.5 40t280 -40t177.5 -131.5t93.5 -224.5t27 -334q0 -160 -17 -275.5t-57 -205t-107 -143t-164.5 -80.5t-232.5 -27zM687 264q35 0 64 5t51.5 17t40 24.5
t30 35.5t22 42t15 52.5t9 58t5 67t2 71.5t0.5 79q0 101 -2 153t-14.5 120t-37 100.5t-70.5 56t-115 23.5q-39 0 -70.5 -7.5t-55 -18.5t-41.5 -32.5t-30 -41t-20.5 -54.5t-12.5 -61.5t-6.5 -72.5t-3 -78t-0.5 -87q0 -49 0.5 -78.5t2 -71.5t5 -67t9.5 -58t15 -52.5t22 -42.5
t30.5 -36t40 -24.5t51.5 -16.5t64 -5zM617 1552l-281 270h334l202 -270h-255z" />
    <glyph glyph-name="Oacute" unicode="&#xd3;" horiz-adv-x="1373" 
d="M686 -15q-135 0 -232.5 27t-164.5 80.5t-107 143t-57 205t-17 275.5q0 201 27 334t93.5 224.5t177.5 131.5t280 40t280.5 -40t178 -131.5t93.5 -224.5t27 -334q0 -161 -17 -276t-57 -204.5t-107 -143t-164.5 -80.5t-233.5 -27zM686 264q35 0 64 5t51.5 17t40 24.5
t30 35.5t22 42t15 52.5t9 58t5 67t2 71.5t0.5 79q0 101 -2 153t-14.5 120t-37 100.5t-70.5 56t-115 23.5t-115 -23.5t-70.5 -56t-37 -100.5t-14.5 -120t-2 -153q0 -50 0.5 -79t2 -71.5t5 -67t9 -58t15 -52.5t22 -42t30 -35.5t40 -24.5t51.5 -17t64 -5zM511 1552l202 270h334
l-281 -270h-255z" />
    <glyph glyph-name="Ocircumflex" unicode="&#xd4;" horiz-adv-x="1372" 
d="M686 -15q-135 0 -232.5 27t-164.5 80.5t-107 143t-57 205t-17 275.5q0 201 27 334t93.5 224.5t177.5 131.5t280 40t280.5 -40t178 -131.5t93.5 -224.5t27 -334q0 -161 -17 -276t-57 -204.5t-107 -143t-164.5 -80.5t-233.5 -27zM686 264q35 0 64 5t51.5 17t40 24.5
t30 35.5t22 42t15 52.5t9 58t5 67t2 71.5t0.5 79q0 101 -2 153t-14.5 120t-37 100.5t-70.5 56t-115 23.5t-115 -23.5t-70.5 -56t-37 -100.5t-14.5 -120t-2 -153q0 -50 0.5 -79t2 -71.5t5 -67t9 -58t15 -52.5t22 -42t30 -35.5t40 -24.5t51.5 -17t64 -5zM595 1823h178
l273 -272h-239l-120 131l-123 -131h-236z" />
    <glyph glyph-name="Otilde" unicode="&#xd5;" horiz-adv-x="1373" 
d="M837 1810h157q-10 -129 -65.5 -199.5t-126.5 -70.5q-43 0 -78 17.5t-53 38t-37.5 38t-35.5 17.5q-45 0 -62 -106h-157q10 129 65.5 199.5t126.5 70.5q43 0 78 -17.5t53.5 -38t38 -38t35.5 -17.5q45 0 61 106zM687 1446q169 0 280 -40t177.5 -131.5t93.5 -224.5t27 -334
q0 -160 -17 -275.5t-57 -205t-107 -143t-164.5 -80.5t-232.5 -27q-136 0 -233.5 27t-164.5 80.5t-107 143t-57 204.5t-17 276q0 201 27 334t93.5 224.5t178 131.5t280.5 40zM687 1169q-39 0 -70.5 -7.5t-55 -18.5t-41.5 -32.5t-30 -41t-20.5 -54.5t-12.5 -61.5t-6.5 -72.5
t-3 -78t-0.5 -87q0 -49 0.5 -78.5t2 -71.5t5 -67t9.5 -58t15 -52.5t22 -42.5t30.5 -36t40 -24.5t51.5 -16.5t64 -5t64 5t51.5 17t40 24.5t30 35.5t22 42t15 52.5t9 58t5 67t2 71.5t0.5 79q0 101 -2 153t-14.5 120t-37 100.5t-70.5 56t-115 23.5z" />
    <glyph glyph-name="Odieresis" unicode="&#xd6;" horiz-adv-x="1373" 
d="M473 1524q-63 0 -106 42.5t-43 105.5t43 105t106 42t104.5 -42t41.5 -105t-41.5 -105.5t-104.5 -42.5zM686 -15q-135 0 -232.5 27t-164.5 80.5t-107 143t-57 205t-17 275.5q0 201 27 334t93.5 224.5t177.5 131.5t280 40t280.5 -40t178 -131.5t93.5 -224.5t27 -334
q0 -161 -17 -276t-57 -204.5t-107 -143t-164.5 -80.5t-233.5 -27zM686 264q35 0 64 5t51.5 16.5t40 24.5t30.5 36t22 42.5t15 52.5t9.5 58t5 67t2 71.5t0.5 78.5q0 55 -0.5 87t-3 78t-6.5 72.5t-12.5 61.5t-20.5 54.5t-30 41t-41.5 32.5t-55 18.5t-70.5 7.5
q-69 0 -115 -23.5t-70.5 -56t-37 -100.5t-14.5 -120t-2 -153q0 -50 0.5 -79t2 -71.5t5 -67t9 -58t15 -52.5t22 -42t30 -35.5t40 -24.5t51.5 -17t64 -5zM904 1524q-62 0 -105 42.5t-43 105.5t42.5 105t105.5 42t105 -42t42 -105t-42 -105.5t-105 -42.5z" />
    <glyph glyph-name="multiply" unicode="&#xd7;" horiz-adv-x="1077" 
d="M710 603l285 -285l-170 -174l-287 286l-285 -286l-171 172l285 285l-286 286l175 171l283 -284l286 285l169 -172z" />
    <glyph glyph-name="Oslash" unicode="&#xd8;" horiz-adv-x="1373" 
d="M433 17l-93 -172l-183 116l91 170q-75 85 -107.5 227.5t-32.5 357.5q0 201 27 334t93.5 224.5t177.5 131.5t280 40q151 0 254 -32l93 173l183 -117l-92 -170q76 -85 108.5 -226.5t32.5 -357.5q0 -161 -17 -276t-57 -204.5t-107 -143t-164.5 -80.5t-233.5 -27
q-151 0 -253 32zM686 264q35 0 64 5t51.5 17t40 24.5t30 35.5t22 42t15 52.5t9 58t5 67t2 71.5t0.5 79q0 145 -6 203h-1l-342 -636q46 -19 110 -19zM454 513l343 636q-45 20 -111 20q-69 0 -115 -23.5t-70.5 -56t-37 -100.5t-14.5 -120t-2 -153q0 -145 6 -203h1z" />
    <glyph glyph-name="Ugrave" unicode="&#xd9;" horiz-adv-x="1372" 
d="M1229 1432v-942q0 -118 -25.5 -206.5t-70.5 -145t-115 -91t-150 -48.5t-183 -14q-86 0 -155.5 9.5t-132.5 32t-109 61t-80 93.5t-51 132.5t-17 176.5v942h330v-958q0 -114 47.5 -159.5t167.5 -45.5q119 0 166 45.5t47 159.5v958h331zM611 1542l-281 270h334l202 -270
h-255z" />
    <glyph glyph-name="Uacute" unicode="&#xda;" horiz-adv-x="1372" 
d="M1229 1432v-942q0 -118 -25.5 -206.5t-70.5 -145t-115 -91t-150 -48.5t-183 -14q-86 0 -155.5 9.5t-132.5 32t-109 61t-80 93.5t-51 132.5t-17 176.5v942h330v-958q0 -114 47.5 -159.5t167.5 -45.5q119 0 166 45.5t47 159.5v958h331zM514 1542l203 270h333l-281 -270
h-255z" />
    <glyph glyph-name="Ucircumflex" unicode="&#xdb;" horiz-adv-x="1372" 
d="M1229 1432v-942q0 -147 -37.5 -247.5t-112 -156t-169 -78.5t-225.5 -23q-86 0 -155.5 9.5t-132.5 32t-109 61t-80 93.5t-51 132.5t-17 176.5v942h331v-958q0 -114 47 -159.5t167 -45.5q119 0 166 45.5t47 159.5v958h331zM603 1813h178l273 -272h-239l-120 131l-123 -131
h-237z" />
    <glyph glyph-name="Udieresis" unicode="&#xdc;" horiz-adv-x="1372" 
d="M1229 1432v-942q0 -118 -25.5 -206.5t-70.5 -145t-115 -91t-150 -48.5t-183 -14q-86 0 -155.5 9.5t-132.5 32t-109 61t-80 93.5t-51 132.5t-17 176.5v942h330v-958q0 -114 47.5 -159.5t167.5 -45.5q118 0 165.5 46t47.5 159v958h331zM470 1529q-63 0 -106.5 42.5
t-43.5 105.5t43.5 105t106.5 42q62 0 104 -42t42 -105t-42 -105.5t-104 -42.5zM901 1529q-63 0 -105.5 42.5t-42.5 105.5t42.5 105t105.5 42t105 -42t42 -105t-42 -105.5t-105 -42.5z" />
    <glyph glyph-name="Yacute" unicode="&#xdd;" horiz-adv-x="1273" 
d="M804 551v-551h-335v551l-462 881h362l269 -547l279 547h349zM476 1536l202 270h334l-281 -270h-255z" />
    <glyph glyph-name="Thorn" unicode="&#xde;" horiz-adv-x="1239" 
d="M129 0v1432h334v-228q90 4 142 4q74 0 133.5 -4.5t121.5 -17t109 -33.5t89 -55.5t69 -81t43 -112.5t16 -148q0 -111 -28 -192.5t-75.5 -132t-122 -81t-155.5 -41.5t-187 -11q-65 0 -155 6v-304h-334zM463 933v-362q48 -6 144 -6q126 0 187 41t61 150q0 102 -53.5 144.5
t-189.5 42.5q-69 0 -149 -10z" />
    <glyph glyph-name="germandbls" unicode="&#xdf;" horiz-adv-x="1339" 
d="M444 958v-958h-316v958q0 309 126 441.5t416 132.5q265 0 394.5 -101t129.5 -267q0 -66 -23 -118t-57 -82.5t-74 -57.5t-74 -45.5t-57 -43t-23 -53.5q0 -32 22 -54t56.5 -36t77 -27.5t84.5 -35.5t76.5 -54t56.5 -89.5t22 -135.5q0 -94 -29.5 -162.5t-84 -108t-123.5 -58
t-155 -18.5q-76 0 -177 14.5t-179 38.5l28 233q172 -37 280 -37q19 0 37 3.5t38.5 12.5t33 29t12.5 49q0 38 -21.5 63t-56 39.5t-76.5 28.5t-83.5 35t-76 52t-56 87.5t-21.5 134.5q0 55 17 98.5t44 71t59.5 50.5t65.5 41t60 37t44 44.5t17 57.5q0 48 -51 77t-149 29
q-128 0 -181 -69t-53 -247z" />
    <glyph glyph-name="agrave" unicode="&#xe0;" horiz-adv-x="1132" 
d="M511 -15q-228 0 -330 87.5t-102 269.5q0 152 73.5 239.5t238.5 114.5q110 18 311 26q0 74 -39 105t-128 31q-158 0 -392 -30l-26 237q246 44 437 44q79 0 143 -9.5t123.5 -34.5t100 -64.5t64.5 -103.5t24 -148v-441q0 -120 -9 -215q-179 -108 -489 -108zM702 396v120
q-146 -9 -204 -23q-62 -15 -86 -44.5t-24 -102.5q0 -66 38 -92.5t114 -26.5q95 0 156 22q6 53 6 147zM513 1563l189 -334h-238l-262 334h311z" />
    <glyph glyph-name="aacute" unicode="&#xe1;" horiz-adv-x="1133" 
d="M511 -15q-227 0 -329.5 87.5t-102.5 269.5q0 152 73.5 239.5t238.5 114.5q109 18 311 26q0 74 -39 105t-128 31q-158 0 -392 -30l-26 237q246 44 437 44q79 0 143 -9.5t124 -34t100.5 -64.5t64.5 -104t24 -148v-441q0 -92 -10 -215q-179 -108 -489 -108zM702 396v120
q-146 -9 -204 -23q-61 -15 -85.5 -44.5t-24.5 -102.5q0 -66 38 -92.5t114 -26.5q96 0 156 22q6 53 6 147zM914 1561l-261 -334h-239l189 334h311z" />
    <glyph glyph-name="acircumflex" unicode="&#xe2;" horiz-adv-x="1133" 
d="M511 -15q-227 0 -329.5 87.5t-102.5 269.5q0 152 73.5 239.5t238.5 114.5q109 18 311 26q0 74 -39 105t-128 31q-158 0 -392 -30l-26 237q246 44 437 44q79 0 143 -9.5t124 -34t100.5 -64.5t64.5 -104t24 -148v-441q0 -92 -10 -215q-179 -108 -489 -108zM702 396v120
q-147 -9 -204 -23q-61 -15 -85.5 -44.5t-24.5 -102.5q0 -66 38 -92.5t114 -26.5q96 0 156 22q6 53 6 147zM908 1220h-224l-112 161l-115 -161h-221l250 336h166z" />
    <glyph glyph-name="atilde" unicode="&#xe3;" horiz-adv-x="1133" 
d="M511 -15q-227 0 -329.5 87.5t-102.5 269.5q0 152 73.5 239.5t238.5 114.5q109 18 311 26q0 74 -39 105t-128 31q-158 0 -392 -30l-26 237q246 44 437 44q79 0 143 -9.5t124 -34t100.5 -64.5t64.5 -104t24 -148v-441q0 -92 -10 -215q-179 -108 -489 -108zM719 1531h157
q-10 -134 -65 -207.5t-126 -73.5q-43 0 -78 18t-53.5 40t-38 40t-35.5 18q-45 0 -62 -110h-157q10 134 65.5 207.5t126.5 73.5q43 0 78 -18t53.5 -40t38 -40t35.5 -18q45 0 61 110zM388 346q0 -66 38 -92.5t114 -26.5q96 0 156 22q6 53 6 147v120q-147 -9 -204 -23
q-61 -15 -85.5 -44.5t-24.5 -102.5z" />
    <glyph glyph-name="adieresis" unicode="&#xe4;" horiz-adv-x="1132" 
d="M511 -15q-228 0 -330 87.5t-102 269.5q0 152 73.5 239.5t238.5 114.5q110 18 311 26q0 74 -39 105t-128 31q-161 0 -392 -30l-26 237q246 44 437 44q79 0 143 -9.5t123.5 -34t100 -64.5t64.5 -104t24 -148v-441q0 -120 -9 -215q-179 -108 -489 -108zM702 396v120
q-146 -9 -204 -23q-62 -15 -86 -44.5t-24 -102.5q0 -66 38 -92.5t114 -26.5q95 0 156 22q6 53 6 147zM357 1532q62 0 104 -42t42 -105t-42 -105t-104 -42q-63 0 -106.5 42t-43.5 105t43.5 105t106.5 42zM788 1532q63 0 105 -42t42 -105t-42 -105t-105 -42t-106 42t-43 105
t43 105t106 42z" />
    <glyph glyph-name="aring" unicode="&#xe5;" horiz-adv-x="1132" 
d="M511 -15q-228 0 -330 87.5t-102 269.5q0 152 73.5 239.5t238.5 114.5q109 18 311 26q0 74 -39 105t-128 31q-158 0 -392 -30l-26 237q246 44 437 44q79 0 143 -9.5t123.5 -34t100 -64.5t64.5 -104t24 -148v-441q0 -120 -9 -215q-179 -108 -489 -108zM702 396v120
q-146 -9 -204 -23q-61 -15 -85.5 -44.5t-24.5 -102.5q0 -66 38 -92.5t114 -26.5q96 0 156 22q6 53 6 147zM563 1636q90 0 153.5 -64t63.5 -153q0 -90 -63.5 -153.5t-153.5 -63.5t-153.5 63.5t-63.5 153.5q0 89 63.5 153t153.5 64zM563 1520q-41 0 -70.5 -30t-29.5 -71
q0 -42 29.5 -71t70.5 -29t70.5 29t29.5 71q0 41 -29.5 71t-70.5 30z" />
    <glyph glyph-name="ae" unicode="&#xe6;" horiz-adv-x="1775" 
d="M1634 269l27 -240q-259 -44 -486 -44q-166 0 -269 62q-154 -62 -395 -62q-228 0 -330 87.5t-102 269.5q0 152 73.5 239.5t238.5 114.5q110 18 311 26q0 74 -39 105t-128 31q-158 0 -392 -30l-26 237q246 44 437 44q214 0 323 -76q111 76 321 76q119 0 205.5 -25.5
t140 -70t84.5 -116t42.5 -150.5t11.5 -187q0 -32 -4 -94q-215 -40 -496 -55l-168 -9q5 -93 57.5 -127.5t166.5 -34.5q164 0 396 29zM702 516q-146 -9 -204 -23q-62 -15 -86 -44.5t-24 -102.5q0 -66 38 -92.5t114 -26.5q95 0 156 22q6 53 6 147v120zM1366 644q2 20 2 36
q0 93 -39 139t-131 46q-62 0 -101.5 -17.5t-58.5 -53.5t-25.5 -76t-6.5 -100l152 8q112 5 208 18z" />
    <glyph glyph-name="ccedilla" unicode="&#xe7;" horiz-adv-x="976" 
d="M895 1063l-25 -230q-141 29 -208 29q-56 0 -95.5 -6t-67.5 -22t-44.5 -37t-26 -58t-12.5 -78t-3 -104q0 -42 0.5 -69t3.5 -59.5t8 -52t13.5 -42t22 -35.5t32 -26t43.5 -19t57 -10t72 -4q69 0 205 28l26 -237q-121 -32 -242 -41l-61 -96q64 -10 109.5 -49t45.5 -99
q0 -92 -70.5 -136.5t-176.5 -44.5q-98 0 -181 49l42 113q73 -37 136 -37t63 51q0 21 -18.5 36.5t-48 22.5t-56.5 10t-54 3l103 173q-71 3 -128.5 22t-97.5 48.5t-70 73t-48 90t-28.5 105t-14.5 113t-4 119.5q0 114 12 196t44 152.5t86.5 113t141 66.5t206.5 24
q169 0 309 -46z" />
    <glyph glyph-name="egrave" unicode="&#xe8;" horiz-adv-x="1163" 
d="M563 -15q-110 0 -193 28t-135.5 76t-85.5 120.5t-46 154t-13 183.5q0 302 111.5 432t384.5 130q119 0 205.5 -25.5t140 -70t84.5 -116t42.5 -150.5t11.5 -187q0 -48 -3 -94q-215 -40 -497 -55l-168 -9q5 -93 57.5 -127.5t166.5 -34.5q164 0 396 29l27 -240
q-259 -44 -486 -44zM394 618l153 8q114 6 207 18q2 20 2 36q0 93 -39 139t-131 46q-62 0 -101.5 -17.5t-58.5 -53.5t-25.5 -76t-6.5 -100zM583 1563l189 -334h-238l-262 334h311z" />
    <glyph glyph-name="eacute" unicode="&#xe9;" horiz-adv-x="1163" 
d="M564 -15q-110 0 -193 28t-136 76t-86 120.5t-46 154t-13 183.5q0 302 111.5 432t384.5 130q119 0 205.5 -25.5t140 -70t85 -115.5t43 -150.5t11.5 -187.5q0 -32 -4 -94q-215 -40 -497 -55l-167 -9q5 -93 57 -127.5t166 -34.5q165 0 397 29l27 -240q-259 -44 -486 -44z
M394 618l153 8q115 5 208 18q1 10 1 36q0 93 -39 139t-131 46q-62 0 -101.5 -17.5t-58.5 -53.5t-25.5 -76t-6.5 -100zM957 1558l-261 -334h-239l189 334h311z" />
    <glyph glyph-name="ecircumflex" unicode="&#xea;" horiz-adv-x="1163" 
d="M564 -15q-110 0 -193 28t-136 76t-86 120.5t-46 154t-13 183.5q0 302 111.5 432t384.5 130q119 0 205.5 -25.5t140 -70t84.5 -116t42.5 -150.5t11.5 -187q0 -48 -3 -94q-201 -37 -497 -55l-167 -9q5 -93 57 -127.5t166 -34.5q164 0 396 29l27 -240q-259 -44 -485 -44z
M394 618l153 8q114 6 207 18q2 10 2 36q0 93 -39 139t-131 46q-62 0 -101.5 -17.5t-58.5 -53.5t-25.5 -76t-6.5 -100zM936 1220h-224l-112 161l-115 -161h-221l250 336h166z" />
    <glyph glyph-name="edieresis" unicode="&#xeb;" horiz-adv-x="1163" 
d="M563 -15q-110 0 -193 28t-135.5 76t-85.5 120.5t-46 154t-13 183.5q0 302 111.5 432t384.5 130q119 0 205.5 -25.5t140 -70t84.5 -116t42.5 -150.5t11.5 -187q0 -48 -3 -94q-215 -40 -497 -55l-168 -9q5 -93 57.5 -127.5t166.5 -34.5q164 0 396 29l27 -240
q-259 -44 -486 -44zM396 1532q63 0 104.5 -42t41.5 -105t-41.5 -105t-104.5 -42t-106.5 42t-43.5 105t43.5 105t106.5 42zM394 618l153 8q114 6 207 18q2 20 2 36q0 93 -39 139t-131 46q-62 0 -101.5 -17.5t-58.5 -53.5t-25.5 -76t-6.5 -100zM827 1532q63 0 104.5 -42
t41.5 -105t-41.5 -105t-104.5 -42t-106 42t-43 105t43 105t106 42z" />
    <glyph glyph-name="igrave" unicode="&#xec;" horiz-adv-x="592" 
d="M138 0v1094h317v-1094h-317zM184 1242l-261 335h310l190 -335h-239z" />
    <glyph glyph-name="iacute" unicode="&#xed;" horiz-adv-x="593" 
d="M138 0v1094h318v-1094h-318zM171 1243l189 334h312l-263 -334h-238z" />
    <glyph glyph-name="icircumflex" unicode="&#xee;" horiz-adv-x="593" 
d="M212 1584h166l255 -335h-224l-112 161l-115 -161h-221zM138 0v1094h318v-1094h-318z" />
    <glyph glyph-name="idieresis" unicode="&#xef;" horiz-adv-x="592" 
d="M83 1247q-63 0 -106 42t-43 105t43 105.5t106 42.5t104.5 -42.5t41.5 -105.5t-41.5 -105t-104.5 -42zM514 1247q-63 0 -105.5 42t-42.5 105t43 105.5t105 42.5q63 0 105 -42.5t42 -105.5t-42 -105t-105 -42zM138 0v1094h317v-1094h-317z" />
    <glyph glyph-name="eth" unicode="&#xf0;" horiz-adv-x="1163" 
d="M764 1436l172 63l88 -140l-160 -59q204 -324 204 -753q0 -306 -111 -434t-383 -128q-271 0 -382.5 127.5t-111.5 434.5q0 291 111.5 414t380.5 124q52 0 94 -11q-27 58 -73 126l-170 -62l-88 141l153 56q-40 46 -97 105l281 92q44 -41 92 -96zM754 547q0 165 -36 223.5
t-144 58.5q-107 0 -143 -58t-36 -224q0 -76 5 -126t16 -87t32.5 -56.5t51 -28t74.5 -8.5q109 0 144.5 62t35.5 244z" />
    <glyph glyph-name="ntilde" unicode="&#xf1;" horiz-adv-x="1197" 
d="M441 686v-686h-313v787q0 120 9 215q186 107 485 107q85 0 152 -10.5t114 -29t80.5 -48.5t53.5 -62t31.5 -78t15 -89t3.5 -101v-691h-313v667q0 106 -34 146.5t-142 41.5q-84 0 -136 -22q-6 -53 -6 -147zM759 1537h158q-10 -134 -66 -207t-127 -73q-42 0 -77 18
t-53.5 39.5t-38 39.5t-35.5 18q-45 0 -61 -110h-158q10 134 65.5 207.5t126.5 73.5q43 0 78 -18t53.5 -40t38 -40t35.5 -18q45 0 61 110z" />
    <glyph glyph-name="ograve" unicode="&#xf2;" horiz-adv-x="1169" 
d="M585 -15q-271 0 -382.5 127.5t-111.5 434.5q0 306 111.5 434t382.5 128t382 -128.5t111 -433.5q0 -306 -111 -434t-382 -128zM585 241q108 0 143.5 62t35.5 244q0 181 -35.5 243.5t-143.5 62.5t-143.5 -61.5t-35.5 -244.5q0 -185 35 -245.5t144 -60.5zM518 1229l-262 334
h311l189 -334h-238z" />
    <glyph glyph-name="oacute" unicode="&#xf3;" horiz-adv-x="1170" 
d="M585 -15q-271 0 -382.5 127.5t-111.5 434.5q0 306 111.5 434t382.5 128t382.5 -128.5t111.5 -433.5q0 -306 -111.5 -434t-382.5 -128zM585 241q108 0 143.5 62t35.5 244q0 181 -35.5 243.5t-143.5 62.5t-143.5 -61.5t-35.5 -244.5q0 -185 35 -245.5t144 -60.5zM422 1238
l189 333h312l-262 -333h-239z" />
    <glyph glyph-name="ocircumflex" unicode="&#xf4;" horiz-adv-x="1169" 
d="M584 -15q-271 0 -382 127.5t-111 434.5t111 434.5t382 127.5t382.5 -128.5t111.5 -433.5q0 -306 -111 -434t-383 -128zM584 241q109 0 144.5 62t35.5 244q0 181 -36 243.5t-144 62.5t-143 -61t-35 -245q0 -185 35 -245.5t143 -60.5zM500 1562h166l255 -336h-224l-111 161
l-116 -161h-221z" />
    <glyph glyph-name="otilde" unicode="&#xf5;" horiz-adv-x="1169" 
d="M734 1525h158q-10 -134 -65.5 -207.5t-126.5 -73.5q-42 0 -77 18t-53.5 40t-38 40t-35.5 18q-46 0 -62 -110h-157q10 134 65.5 207.5t126.5 73.5q43 0 78 -18t53 -40t37.5 -40t35.5 -18q45 0 61 110zM584 1109q271 0 382.5 -128.5t111.5 -433.5q0 -306 -111.5 -434
t-382.5 -128t-382 127.5t-111 434.5t111 434.5t382 127.5zM584 853q-108 0 -143 -61t-35 -245q0 -185 34.5 -245.5t143.5 -60.5t144.5 62t35.5 244q0 181 -36 243.5t-144 62.5z" />
    <glyph glyph-name="odieresis" unicode="&#xf6;" horiz-adv-x="1169" 
d="M371 1238q-63 0 -106 42t-43 105t43 105t106 42t104.5 -42t41.5 -105t-41.5 -105t-104.5 -42zM584 -15q-271 0 -382 127.5t-111 434.5t111 434.5t382 127.5t382.5 -128.5t111.5 -433.5q0 -306 -111.5 -434t-382.5 -128zM584 241q109 0 144.5 62t35.5 244q0 181 -36 243.5
t-144 62.5t-143 -61t-35 -245q0 -185 35 -245.5t143 -60.5zM802 1238q-63 0 -105.5 42t-42.5 105t42.5 105t105.5 42t105 -42t42 -105t-42 -105t-105 -42z" />
    <glyph glyph-name="divide" unicode="&#xf7;" horiz-adv-x="1172" 
d="M586 25q-69 0 -117.5 48.5t-48.5 117.5q0 70 48.5 118.5t117.5 48.5t118 -48.5t49 -118.5q0 -69 -49 -117.5t-118 -48.5zM586 845q-69 0 -117.5 48t-48.5 118q0 69 48.5 117.5t117.5 48.5t118 -48.5t49 -117.5t-49 -117.5t-118 -48.5zM78 473v256h1017v-256h-1017z" />
    <glyph glyph-name="oslash" unicode="&#xf8;" horiz-adv-x="1169" 
d="M363 13l-83 -146l-121 75l78 137q-76 64 -111 177.5t-35 290.5q0 307 111 434.5t382 127.5q131 0 222 -28l83 146l121 -75l-78 -138q77 -64 111.5 -177.5t34.5 -289.5q0 -306 -111.5 -434t-382.5 -128q-126 0 -221 28zM584 241q109 0 144.5 62t35.5 244q0 95 -9 156
l-255 -450q34 -12 84 -12zM414 390l256 451q-31 12 -86 12q-108 0 -143 -61t-35 -245q0 -102 8 -157z" />
    <glyph glyph-name="ugrave" unicode="&#xf9;" horiz-adv-x="1193" 
d="M123 403v691h313v-667q0 -53 6.5 -85.5t25 -57t53 -34.5t89.5 -10q84 0 133 21q7 62 7 147v686h313v-786q0 -120 -9 -215q-188 -108 -483 -108q-85 0 -151.5 10.5t-113.5 29t-80.5 48.5t-53 62t-31 78t-15 89t-3.5 101zM511 1243l-262 334h311l190 -334h-239z" />
    <glyph glyph-name="uacute" unicode="&#xfa;" horiz-adv-x="1193" 
d="M123 403v691h313v-667q0 -106 33.5 -146.5t140.5 -40.5q82 0 133 21q7 62 7 147v686h313v-786q0 -104 -9 -215q-188 -108 -483 -108q-85 0 -151.5 10.5t-113.5 29t-80.5 48.5t-53 62t-31 78t-15 89t-3.5 101zM445 1255l190 334h311l-262 -334h-239z" />
    <glyph glyph-name="ucircumflex" unicode="&#xfb;" horiz-adv-x="1193" 
d="M123 403v691h313v-667q0 -106 33.5 -146.5t140.5 -40.5q82 0 133 21q7 62 7 147v686h313v-786q0 -104 -9 -215q-188 -108 -484 -108q-85 0 -151.5 10.5t-113 29t-80 48.5t-53 62t-31 78t-15 89t-3.5 101zM508 1596h166l256 -335h-224l-112 161l-115 -161h-222z" />
    <glyph glyph-name="udieresis" unicode="&#xfc;" horiz-adv-x="1193" 
d="M123 403v691h313v-667q0 -106 33.5 -146.5t140.5 -40.5q84 0 133 21q7 62 7 147v686h313v-786q0 -120 -9 -215q-188 -108 -483 -108q-85 0 -151.5 10.5t-113.5 29t-80.5 48.5t-53 62t-31 78t-15 89t-3.5 101zM379 1260q-63 0 -106 42t-43 105t43 105.5t106 42.5
t104.5 -42.5t41.5 -105.5t-41.5 -105t-104.5 -42zM810 1260q-63 0 -105.5 42t-42.5 105t42.5 105.5t105.5 42.5t105 -42.5t42 -105.5t-42 -105t-105 -42z" />
    <glyph glyph-name="yacute" unicode="&#xfd;" horiz-adv-x="1157" 
d="M603 479l192 615h321l-509 -1497h-322l175 483l-438 1014h334zM441 1231l189 333h311l-262 -333h-238z" />
    <glyph glyph-name="thorn" unicode="&#xfe;" horiz-adv-x="1202" 
d="M121 -403v1835h315v-339q90 16 177 16q175 0 281 -51.5t160 -175.5t54 -335t-54 -335t-160 -175.5t-281 -51.5q-82 0 -177 17v-405h-315zM436 841v-587q61 -17 120 -17q48 0 85 8.5t62 21.5t42.5 37.5t26.5 46t14 58.5t6 65t1 73t-1 73t-6 65t-14 58.5t-26.5 46
t-42.5 37.5t-62 21.5t-85 8.5q-62 0 -120 -16z" />
    <glyph glyph-name="ydieresis" unicode="&#xff;" horiz-adv-x="1157" 
d="M375 1241q-63 0 -106 42.5t-43 105.5t43 105t106 42t104.5 -42t41.5 -105t-41.5 -105.5t-104.5 -42.5zM807 1241q-63 0 -106.5 42.5t-43.5 105.5t43.5 105t106.5 42t104.5 -42t41.5 -105t-41.5 -105.5t-104.5 -42.5zM603 479l192 615h322l-509 -1497h-323l175 483
l-438 1014h335z" />
    <glyph glyph-name="Abreve" unicode="&#x102;" horiz-adv-x="1383" 
d="M817 1815h170q-11 -117 -85 -190t-211 -73q-136 0 -210 73t-85 190h170q8 -48 40 -80t85 -32q54 0 86.5 32t39.5 80zM22 0l417 1216q42 122 103.5 176t153.5 54q177 0 255 -230l409 -1216h-354l-97 327h-448l-94 -327h-345zM832 586l-149 505l-147 -505h296z" />
    <glyph glyph-name="abreve" unicode="&#x103;" horiz-adv-x="1133" 
d="M511 -15q-227 0 -329.5 87.5t-102.5 269.5q0 152 73.5 239.5t238.5 114.5q109 18 311 26q0 74 -39 105t-128 31q-158 0 -392 -30l-26 237q246 44 437 44q79 0 143 -9.5t124 -34t100.5 -64.5t64.5 -104t24 -148v-441q0 -92 -10 -215q-179 -108 -489 -108zM702 396v120
q-147 -9 -204 -23q-61 -15 -85.5 -44.5t-24.5 -102.5q0 -66 38 -92.5t114 -26.5q96 0 156 22q6 53 6 147zM584 1233q-136 0 -210.5 83.5t-85.5 217.5h170q8 -55 40.5 -91.5t85.5 -36.5q54 0 86 36.5t39 91.5h171q-11 -134 -85 -217.5t-211 -83.5z" />
    <glyph glyph-name="Aogonek" unicode="&#x104;" horiz-adv-x="1383" 
d="M1306 -260l42 -109q-39 -32 -93 -51t-102 -19q-93 0 -153 48.5t-60 132.5q0 68 44 137t104 121h-82l-97 327h-448l-94 -327h-345l417 1216q42 122 103.5 176t153.5 54q177 0 255 -230l409 -1216h-105q-130 -127 -130 -214q0 -38 18.5 -60t49.5 -22q66 0 113 36zM536 586
h296l-149 505z" />
    <glyph glyph-name="aogonek" unicode="&#x105;" horiz-adv-x="1133" 
d="M1010 749v-441q0 -92 -10 -215q-48 -30 -110 -52q-128 -128 -128 -212q0 -38 18.5 -60t49.5 -22q66 0 113 36l42 -109q-39 -32 -93 -51t-102 -19q-93 0 -153 48.5t-60 132.5q0 100 98 209q-78 -9 -164 -9q-227 0 -329.5 87.5t-102.5 269.5q0 152 73.5 239.5t238.5 114.5
q109 18 311 26q0 74 -39 105t-128 31q-158 0 -392 -30l-26 237q246 44 437 44q79 0 143 -9.5t124 -34t100.5 -64.5t64.5 -104t24 -148zM702 396v120q-147 -9 -204 -23q-61 -15 -85.5 -44.5t-24.5 -102.5q0 -66 38 -92.5t114 -26.5q96 0 156 22q6 53 6 147z" />
    <glyph glyph-name="Cacute" unicode="&#x106;" horiz-adv-x="1159" 
d="M1066 295l30 -263q-156 -47 -389 -47q-120 0 -211 18.5t-157.5 58.5t-111 97.5t-71 142t-37.5 183.5t-11 231q0 159 16.5 272t56.5 204t108.5 144.5t171 81.5t246.5 28q227 0 389 -47l-29 -262q-167 27 -309 27q-49 0 -89.5 -7.5t-71 -19t-53.5 -32.5t-39 -42t-27 -54
t-17 -61t-9 -71.5t-4 -76.5t-1 -84q0 -97 3 -149t19 -119t48 -99.5t92 -56.5t149 -24q156 0 308 27zM1024 1821l-281 -270h-255l203 270h333z" />
    <glyph glyph-name="cacute" unicode="&#x107;" horiz-adv-x="975" 
d="M870 268l26 -237q-173 -46 -376 -46q-77 0 -139.5 17t-106 45.5t-76 72t-52 90.5t-31 107.5t-15.5 116.5t-4 123q0 114 12 195.5t43.5 152.5t86.5 113.5t141.5 66.5t206.5 24q169 0 309 -46l-26 -230q-139 29 -207 29t-111.5 -10t-72 -29.5t-42.5 -58.5t-19 -85t-5 -122
q0 -55 1.5 -88t6.5 -71t15.5 -59t28.5 -43t45.5 -32.5t65.5 -17t90 -6.5q69 0 205 28zM858 1561l-261 -334h-239l189 334h311z" />
    <glyph glyph-name="Ccaron" unicode="&#x10c;" horiz-adv-x="1159" 
d="M1066 295l30 -263q-156 -47 -389 -47q-120 0 -211 18.5t-157.5 58.5t-111 97.5t-71 142t-37.5 183.5t-11 231q0 159 16.5 272t56.5 204t108.5 144.5t171 81.5t246.5 28q227 0 389 -47l-29 -262q-167 27 -309 27q-49 0 -89.5 -7.5t-71 -19t-53.5 -32.5t-39 -42t-27 -54
t-17 -61t-9 -71.5t-4 -76.5t-1 -84q0 -97 3 -149t19 -119t48 -99.5t92 -56.5t149 -24q156 0 308 27zM653 1692l123 130h236l-268 -272h-177l-273 272h239z" />
    <glyph glyph-name="ccaron" unicode="&#x10d;" horiz-adv-x="975" 
d="M870 268l26 -237q-173 -46 -376 -46q-77 0 -139.5 17t-106 45.5t-76 72t-52 90.5t-31 107.5t-15.5 116.5t-4 123q0 114 12 196t44 152.5t86.5 113t141 66.5t206.5 24q169 0 309 -46l-26 -230q-139 29 -207 29t-111.5 -10t-72 -29.5t-42.5 -58.5t-19 -85t-5 -122
q0 -55 1.5 -88t6.5 -71t15.5 -59t28.5 -43t45.5 -32.5t65.5 -17t90 -6.5q69 0 205 28zM530 1403l115 161h221l-250 -336h-166l-255 336h223z" />
    <glyph glyph-name="Dcaron" unicode="&#x10e;" horiz-adv-x="1370" 
d="M587 1170q-47 0 -103 -8v-893q49 -7 103 -7q70 0 124 13t90 31t60 55t37 67t19.5 86.5t7.5 94t1 107.5t-1 107.5t-7.5 94t-19.5 86.5t-37 67t-60 55t-90 31t-124 13zM149 27v1376q215 43 477 43q115 0 205 -15.5t156.5 -43.5t114.5 -75.5t79 -103.5t48.5 -135t24.5 -163
t7 -194t-7 -194t-24.5 -163.5t-48.5 -135.5t-79 -103t-114.5 -75.5t-156.5 -44t-205 -15.5q-262 0 -477 42zM651 1693l124 131h236l-269 -272h-177l-273 272h240z" />
    <glyph glyph-name="dcaron" unicode="&#x10f;" horiz-adv-x="1212" 
d="M767 1093v424h315v-1209q0 -120 -9 -215q-89 -54 -208.5 -81t-242.5 -27q-143 0 -239.5 27t-162.5 92.5t-95.5 173t-29.5 269.5q0 211 54 335t160 175.5t281 51.5q87 0 177 -16zM767 841q-56 16 -119 16q-48 0 -85 -8.5t-62 -21.5t-42.5 -37.5t-26.5 -46t-14 -58.5
t-6 -65t-1 -73q0 -41 1 -67t5.5 -62t12.5 -59.5t23.5 -49t37.5 -40.5t55 -24.5t76 -9.5q88 0 139 21q6 53 6 147v438zM1513 1517l-163 -425h-183l98 425h248z" />
    <glyph glyph-name="Dcroat" unicode="&#x110;" horiz-adv-x="1411" 
d="M190 632h-107v210h107v561q215 43 477 43q115 0 205 -15.5t156.5 -43.5t114.5 -75.5t79 -103.5t48.5 -135t24.5 -163t7 -194t-7 -194t-24.5 -163.5t-48.5 -135.5t-79 -103t-114.5 -75.5t-156.5 -44t-205 -15.5q-262 0 -477 42v605zM525 632v-363q49 -7 103 -7
q70 0 124 13t90 31t60 55t37 67t19.5 86.5t7.5 94t1 107.5t-1 107.5t-7.5 94t-19.5 86.5t-37 67t-60 55t-90 31t-124 13q-47 0 -103 -8v-320h201v-210h-201z" />
    <glyph glyph-name="dcroat" unicode="&#x111;" horiz-adv-x="1212" 
d="M565 1215v170h202v132h315v-132h131v-170h-131v-907q0 -120 -9 -215q-89 -54 -208.5 -81t-242.5 -27q-143 0 -239.5 27t-162.5 92.5t-95.5 173t-29.5 269.5q0 211 54 335t160 175.5t281 51.5q87 0 177 -16v122h-202zM767 841q-56 16 -120 16q-48 0 -85 -8.5t-62 -21.5
t-42.5 -37.5t-26.5 -46t-14 -58.5t-6 -65t-1 -73q0 -40 1 -66.5t5.5 -62.5t12.5 -59.5t24 -49t38 -40.5t55 -24.5t76 -9.5q88 0 139 21q6 53 6 147v438z" />
    <glyph glyph-name="Eogonek" unicode="&#x118;" horiz-adv-x="1192" 
d="M1050 1161h-408q-104 0 -134.5 -31.5t-30.5 -132.5v-135h547v-269h-547v-156q0 -102 30.5 -133.5t134.5 -31.5h408v-263q-35 -2 -123 -6q-133 -125 -133 -217q0 -37 18.5 -59.5t49.5 -22.5q66 0 113 37l43 -109q-39 -32 -93 -51t-103 -19q-93 0 -152.5 48.5t-59.5 132.5
q0 67 43 134t102 121q-84 -2 -107 -2q-52 0 -87.5 1t-82 5t-79 11t-70.5 20t-63 31.5t-50 46t-40 62.5t-24 82t-9 104v716q0 57 9 104t23.5 81.5t40 62t50.5 45.5t63 31t70 20t79.5 10.5t82.5 4.5t87 1q200 0 402 -11v-263z" />
    <glyph glyph-name="eogonek" unicode="&#x119;" horiz-adv-x="1163" 
d="M1022 269l27 -240q-104 -17 -194 -28q-124 -121 -124 -209q0 -37 18 -59t49 -22q67 0 114 36l42 -109q-39 -32 -93 -51t-103 -19q-93 0 -152.5 48.5t-59.5 132.5q0 116 127 239q-53 -3 -110 -3q-110 0 -193 28t-135.5 76t-85.5 120.5t-46 154t-13 183.5q0 302 111.5 432
t384.5 130q119 0 205.5 -25.5t140 -70t84.5 -116t42.5 -150.5t11.5 -187q0 -48 -3 -94q-215 -40 -497 -55l-168 -9q5 -93 57.5 -127.5t166.5 -34.5q164 0 396 29zM586 865q-62 0 -101.5 -17.5t-58.5 -53.5t-25.5 -76t-6.5 -100l153 8q114 6 207 18q2 20 2 36q0 93 -39 139
t-131 46z" />
    <glyph glyph-name="Ecaron" unicode="&#x11a;" horiz-adv-x="1191" 
d="M1050 1424v-263h-408q-104 0 -134.5 -31.5t-30.5 -132.5v-135h547v-269h-547v-156q0 -102 30.5 -133.5t134.5 -31.5h408v-263q-250 -13 -402 -13q-52 0 -87.5 1t-82 5t-79 11t-70.5 20t-63 31.5t-50 46t-40 62.5t-24 82t-9 104v716q0 57 9 104t23.5 81.5t40 62t50.5 45.5
t63 31t70 20t79.5 10.5t82.5 4.5t87 1q197 0 402 -11zM257 1819h239l120 -131l123 131h236l-268 -272h-177z" />
    <glyph glyph-name="ecaron" unicode="&#x11b;" horiz-adv-x="1163" 
d="M564 -15q-110 0 -193 28t-136 76t-86 120.5t-46 154t-13 183.5q0 302 111.5 432t384.5 130q119 0 205.5 -25.5t140 -70t84.5 -116t42.5 -150.5t11.5 -187q0 -48 -3 -94q-201 -37 -497 -55l-167 -9q5 -93 57 -127.5t166 -34.5q164 0 396 29l27 -240q-259 -44 -485 -44z
M394 618l153 8q114 6 207 18q2 20 2 36q0 93 -39 139t-131 46q-62 0 -101.5 -17.5t-58.5 -53.5t-25.5 -76t-6.5 -100zM580 1397l116 161h220l-251 -336h-165l-255 336h223z" />
    <glyph glyph-name="Gbreve" unicode="&#x11e;" horiz-adv-x="1323" 
d="M679 560v260h526v-537q0 -47 -8 -85t-21 -67t-36.5 -51t-47 -37.5t-60 -26.5t-68 -17t-79 -9t-85.5 -4t-93 -1q-120 0 -210.5 18.5t-157 58.5t-111 97.5t-71.5 142t-38 183.5t-11 231q0 133 11 233t38 184.5t71 141t111 96t157.5 57.5t210.5 18q258 0 470 -46l-29 -259
q-175 26 -390 26q-44 0 -81.5 -5t-66 -17t-51.5 -25.5t-40 -36.5t-29 -43.5t-20 -52.5t-12.5 -58t-7 -66t-3 -70.5t-0.5 -76.5q0 -47 0.5 -77.5t3 -70.5t7 -66.5t12 -58.5t19.5 -52.5t29 -43t39.5 -36t51.5 -25.5t66 -17t81 -5q91 0 117.5 26t26.5 96v174h-221zM394 1812
h171q7 -48 39.5 -80t86.5 -32q53 0 85.5 32t39.5 80h170q-11 -117 -84.5 -190t-210.5 -73t-211.5 73t-85.5 190z" />
    <glyph glyph-name="gbreve" unicode="&#x11f;" horiz-adv-x="1205" 
d="M149 -368l26 235q235 -33 398 -33q186 0 186 175v17q-90 -16 -176 -16q-131 0 -221 27t-153 91t-92.5 169.5t-29.5 261.5q0 157 31 263t98 169.5t162.5 90.5t235.5 27q276 0 451 -107q10 -123 10 -215v-840q0 -85 -24.5 -150t-65.5 -105t-101.5 -65.5t-125.5 -35
t-144 -9.5q-198 0 -465 50zM614 859q-56 0 -96 -18t-62 -45t-34.5 -70t-15.5 -79.5t-3 -87.5q0 -60 2.5 -96t15.5 -79t37.5 -66.5t70 -39.5t111.5 -16q63 0 119 16v413q0 94 -6 147q-51 21 -139 21zM740 1534h171q-11 -134 -85 -217.5t-211 -83.5t-211 83.5t-85 217.5h170
q8 -55 40 -91.5t86 -36.5q53 0 85.5 37t39.5 91z" />
    <glyph glyph-name="Idotaccent" unicode="&#x130;" horiz-adv-x="630" 
d="M316 1528q-65 0 -109.5 44.5t-44.5 109.5t44.5 109t109.5 44t108.5 -44t43.5 -109t-43.5 -109.5t-108.5 -44.5zM147 0v1432h336v-1432h-336z" />
    <glyph glyph-name="dotlessi" unicode="&#x131;" horiz-adv-x="593" 
d="M138 0v1094h318v-1094h-318z" />
    <glyph glyph-name="Lacute" unicode="&#x139;" horiz-adv-x="1066" 
d="M1032 272v-265q-264 -11 -378 -11q-67 0 -112 2t-103 9.5t-96 22t-78.5 41t-64 64.5t-38.5 94.5t-15 129.5v1073h336v-995q0 -102 30.5 -133.5t134.5 -31.5h384zM723 1822l-280 -270h-256l203 270h333z" />
    <glyph glyph-name="lacute" unicode="&#x13a;" horiz-adv-x="575" 
d="M116 273v1244h315v-1213q0 -71 16.5 -123.5t56.5 -109.5l-282 -131q-54 64 -80 142.5t-26 190.5zM147 1609l203 271h333l-281 -271h-255z" />
    <glyph glyph-name="Lcaron" unicode="&#x13d;" horiz-adv-x="1065" 
d="M1032 272v-265q-267 -11 -379 -11q-52 0 -87.5 1t-82.5 5t-79 11t-70 20t-63.5 31.5t-50.5 46t-40 62.5t-24 82t-9 104v1073h335v-995q0 -102 31 -133.5t135 -31.5h384zM965 1432l-164 -426h-183l98 426h249z" />
    <glyph glyph-name="lcaron" unicode="&#x13e;" horiz-adv-x="575" 
d="M116 273v1244h315v-1213q0 -71 16.5 -123.5t56.5 -109.5l-282 -131q-54 64 -80 142.5t-26 190.5zM516 1092l97 425h250l-164 -425h-183z" />
    <glyph glyph-name="Lslash" unicode="&#x141;" horiz-adv-x="1153" 
d="M236 743v689h335v-466l313 208v-228l-313 -209v-300q0 -102 30.5 -133.5t134.5 -31.5h385v-265q-267 -11 -379 -11q-52 0 -87.5 1t-82.5 5t-79 11t-70 20t-63.5 31.5t-50.5 46t-40 62.5t-24 82t-9 104v156l-176 -117v229z" />
    <glyph glyph-name="lslash" unicode="&#x142;" horiz-adv-x="679" 
d="M494 810v-506q0 -71 16.5 -123.5t56.5 -109.5l-282 -131q-54 64 -80 142.5t-26 190.5v298l-180 -137v236l180 137v710h315v-471l187 143v-236z" />
    <glyph glyph-name="Nacute" unicode="&#x143;" horiz-adv-x="1463" 
d="M623 1229l388 -772v975h303v-1190q0 -257 -201 -257q-91 0 -151 47t-123 172l-387 774v-978h-301v1191q0 255 199 255q85 0 149.5 -49.5t123.5 -167.5zM568 1549l203 270h333l-281 -270h-255z" />
    <glyph glyph-name="nacute" unicode="&#x144;" horiz-adv-x="1197" 
d="M440 686v-686h-312v787q0 120 9 215q186 107 485 107q85 0 152 -10.5t114 -29t80.5 -48.5t53.5 -62t31.5 -78t15 -89t3.5 -101v-691h-313v667q0 106 -34 146.5t-142 41.5q-83 0 -136 -22q-7 -62 -7 -147zM443 1232l189 334h312l-263 -334h-238z" />
    <glyph glyph-name="Ncaron" unicode="&#x147;" horiz-adv-x="1463" 
d="M623 1229l388 -772v975h303v-1190q0 -257 -201 -257q-91 0 -151 47t-123 172l-387 774v-978h-301v1191q0 255 199 255q85 0 149.5 -49.5t123.5 -167.5zM372 1815h239l120 -131l124 131h236l-269 -273h-177z" />
    <glyph glyph-name="ncaron" unicode="&#x148;" horiz-adv-x="1197" 
d="M441 686v-686h-313v787q0 120 9 215q186 107 485 107q85 0 152 -10.5t114 -29t80.5 -48.5t53.5 -62t31.5 -78t15 -89t3.5 -101v-691h-313v667q0 106 -34 146.5t-142 41.5q-84 0 -136 -22q-6 -53 -6 -147zM264 1562h224l112 -161l115 161h221l-251 -336h-166z" />
    <glyph glyph-name="Ohungarumlaut" unicode="&#x150;" horiz-adv-x="1373" 
d="M687 -15q-136 0 -233.5 27t-164.5 80.5t-107 143t-57 204.5t-17 276q0 201 27 334t93.5 224.5t178 131.5t280.5 40t280 -40t177.5 -131.5t93.5 -224.5t27 -334q0 -160 -17 -275.5t-57 -205t-107 -143t-164.5 -80.5t-232.5 -27zM687 264q35 0 64 5t51.5 17t40 24.5
t30 35.5t22 42t15 52.5t9 58t5 67t2 71.5t0.5 79q0 101 -2 153t-14.5 120t-37 100.5t-70.5 56t-115 23.5q-39 0 -70.5 -7.5t-55 -18.5t-41.5 -32.5t-30 -41t-20.5 -54.5t-12.5 -61.5t-6.5 -72.5t-3 -78t-0.5 -87q0 -49 0.5 -78.5t2 -71.5t5 -67t9.5 -58t15 -52.5t22 -42.5
t30.5 -36t40 -24.5t51.5 -16.5t64 -5zM315 1556l193 271h323l-267 -271h-249zM747 1556l193 271h323l-266 -271h-250z" />
    <glyph glyph-name="ohungarumlaut" unicode="&#x151;" horiz-adv-x="1169" 
d="M584 -15q-271 0 -382 127.5t-111 434.5t111 434.5t382 127.5t382.5 -128.5t111.5 -433.5q0 -306 -111.5 -434t-382.5 -128zM584 241q109 0 144.5 62t35.5 244q0 181 -36 243.5t-144 62.5t-143 -61t-35 -245q0 -185 34.5 -245.5t143.5 -60.5zM222 1245l179 334h303
l-249 -334h-233zM626 1245l180 334h302l-249 -334h-233z" />
    <glyph glyph-name="OE" unicode="&#x152;" horiz-adv-x="1974" 
d="M1833 1161h-407q-104 0 -135 -31.5t-31 -132.5v-135h547v-269h-547v-156q0 -102 31 -133.5t135 -31.5h407v-263q-250 -13 -401 -13q-139 0 -229.5 13.5t-154.5 59.5q-128 -84 -361 -84q-136 0 -233.5 27t-164.5 80.5t-107 143t-57 204.5t-17 276q0 201 27 334t93.5 224.5
t178 131.5t280.5 40q236 0 361 -83q63 46 153.5 59t230.5 13q196 0 401 -11v-263zM687 264q35 0 64 5t51.5 17t40 24.5t30 35.5t22 42t15 52.5t9 58t5 67t2 71.5t0.5 79q0 101 -2 153t-14.5 120t-37 100.5t-70.5 56t-115 23.5q-39 0 -70.5 -7.5t-55 -18.5t-41.5 -32.5
t-30 -41t-20.5 -54.5t-12.5 -61.5t-6.5 -72.5t-3 -78t-0.5 -87q0 -49 0.5 -78.5t2 -71.5t5 -67t9.5 -58t15 -52.5t22 -42.5t30.5 -36t40 -24.5t51.5 -16.5t64 -5z" />
    <glyph glyph-name="oe" unicode="&#x153;" horiz-adv-x="1837" 
d="M584 1109q226 0 338 -90q114 90 338 90q119 0 205.5 -25.5t140 -70t84.5 -116t42.5 -150.5t11.5 -187q0 -48 -3 -94q-215 -40 -497 -55l-167 -9q5 -93 57 -127.5t166 -34.5q165 0 397 29l26 -240q-259 -44 -485 -44q-202 0 -312 93q-110 -93 -342 -93q-271 0 -382 127.5
t-111 434.5t111 434.5t382 127.5zM584 853q-108 0 -143 -61t-35 -245q0 -185 35 -245.5t143 -60.5q109 0 144.5 62t35.5 244q0 181 -36 243.5t-144 62.5zM1068 618l153 8q114 6 207 18q2 20 2 36q0 93 -39 139t-131 46q-62 0 -101.5 -17.5t-58.5 -53.5t-25.5 -76t-6.5 -100z
" />
    <glyph glyph-name="Racute" unicode="&#x154;" horiz-adv-x="1332" 
d="M484 528v-528h-335v1405q213 41 476 41q106 0 185 -9.5t157.5 -38.5t128 -78.5t80 -133t30.5 -198.5q0 -176 -64.5 -277t-187.5 -146l320 -565h-381l-282 522q-28 1 -127 6zM484 1172v-375q48 -6 143 -6q126 0 187 43t61 155q0 105 -53.5 149t-189.5 44q-68 0 -148 -10z
M1014 1823l-280 -271h-255l202 271h333z" />
    <glyph glyph-name="racute" unicode="&#x155;" horiz-adv-x="752" 
d="M439 0h-312v787q0 120 9 215q88 54 208 80.5t243 26.5q69 0 121 -7l-25 -253q-44 4 -75 4q-103 0 -163 -31q-6 -66 -6 -147v-675zM429 1567h311l-262 -334h-239z" />
    <glyph glyph-name="Rcaron" unicode="&#x158;" horiz-adv-x="1332" 
d="M484 528v-528h-335v1405q213 41 476 41q106 0 185 -9.5t157.5 -38.5t128 -78.5t80 -133t30.5 -198.5q0 -176 -64.5 -277t-187.5 -146l320 -565h-381l-282 522q-28 1 -127 6zM484 1172v-375q48 -6 143 -6q126 0 187 43t61 155q0 105 -53.5 149t-189.5 44q-68 0 -148 -10z
M659 1693l123 131h236l-268 -272h-177l-273 272h239z" />
    <glyph glyph-name="rcaron" unicode="&#x159;" horiz-adv-x="752" 
d="M439 0h-312v787q0 104 9 215q88 54 208 80.5t244 26.5q68 0 120 -7l-25 -253q-44 4 -74 4q-103 0 -163 -31q-7 -62 -7 -147v-675zM310 1562l112 -161l114 161h222l-251 -336h-166l-255 336h224z" />
    <glyph glyph-name="Sacute" unicode="&#x15a;" horiz-adv-x="1144" 
d="M681 1175q-34 0 -57 -1t-56.5 -4.5t-55 -12t-43 -21.5t-32 -35t-10.5 -51q0 -42 12 -69t48 -46.5t66 -29.5t100 -29q7 -2 11 -3q217 -58 305 -157.5t88 -290.5q0 -234 -135 -337t-403 -103q-210 0 -430 48l33 263q233 -34 381 -34q109 0 160 33t51 116q0 39 -13 66
t-45 47.5t-63 33t-90 30.5q-84 26 -142 50t-112.5 60t-86 79.5t-50.5 106t-19 142.5q0 118 33.5 199.5t102 130t162 69.5t222.5 21q208 0 425 -49l-30 -256q-200 34 -327 34zM973 1827l-281 -270h-255l202 270h334z" />
    <glyph glyph-name="sacute" unicode="&#x15b;" horiz-adv-x="1005" 
d="M601 866q-42 0 -66.5 -1.5t-57 -8t-48.5 -23t-16 -42.5q0 -18 8 -33t18.5 -24.5t31.5 -19t35.5 -14.5t43.5 -13.5t43 -13.5l27 -9q36 -12 54.5 -18.5t50.5 -19t48.5 -22t41.5 -26t38 -32.5t29.5 -39.5t24 -49t13 -59t5.5 -72.5q0 -97 -33 -165t-95 -105.5t-137 -54
t-172 -16.5q-219 0 -403 51l30 234q183 -37 305 -37q30 0 42.5 0.5t40.5 2t41.5 7t31 14t25 24t7.5 35.5t-7 35t-16.5 24.5t-28.5 18.5t-32 13t-39.5 11.5t-38.5 11.5q-43 13 -71.5 23t-68.5 27t-66 34.5t-54.5 44.5t-45.5 57.5t-28 73t-11 91.5q0 328 397 328
q209 0 415 -49l-29 -228q-168 34 -283 34zM877 1573l-262 -334h-238l189 334h311z" />
    <glyph glyph-name="Scedilla" unicode="&#x15e;" horiz-adv-x="1144" 
d="M696 -2l-67 -104q64 -10 109.5 -49t45.5 -99q0 -92 -71 -136.5t-177 -44.5q-98 0 -181 49l43 113q73 -37 135 -37q64 0 64 51q0 21 -18.5 36.5t-48 22.5t-56.5 10t-54 3l102 172h-3q-210 0 -430 48l33 263q233 -34 381 -34q109 0 160 33t51 116q0 39 -13 66t-45 47.5
t-63 33t-90 30.5q-84 26 -142 50t-112.5 60t-86 79.5t-50.5 106t-19 142.5q0 118 33.5 199.5t102 130t162 69.5t222.5 21q208 0 425 -49l-30 -256q-202 34 -326 34q-42 0 -69.5 -1t-66.5 -8t-62 -19.5t-40 -37t-17 -59.5q0 -34 12 -59t22.5 -39.5t51 -30.5t58.5 -21.5
t84 -23.5l3 -1.5t3 -1t4 -0.5q217 -58 304.5 -157.5t87.5 -290.5q0 -193 -91 -296t-270 -131z" />
    <glyph glyph-name="scedilla" unicode="&#x15f;" horiz-adv-x="1005" 
d="M913 1060l-29 -228q-168 34 -283 34q-42 0 -66.5 -1.5t-57 -8t-48.5 -23t-16 -42.5q0 -18 8 -33t18.5 -24.5t31.5 -19t35.5 -14.5t43.5 -13.5t43 -13.5l27 -9q36 -12 54.5 -18.5t50.5 -19t48.5 -22t41.5 -26t38 -32.5t29.5 -39.5t24 -49t13 -59t5.5 -72.5
q0 -282 -292 -330l-66 -102q64 -10 109.5 -49.5t45.5 -99.5q0 -92 -71 -136.5t-177 -44.5q-97 0 -180 49l42 114q75 -38 136 -38q63 0 63 51q0 21 -18.5 36.5t-48 22.5t-56.5 10t-54 3l103 174q-208 3 -376 50l30 234q183 -37 305 -37q30 0 42.5 0.5t40.5 2t41.5 7t31 14
t25 24t7.5 35.5t-7 35t-16.5 24.5t-28.5 18.5t-32 13t-39.5 11.5t-38.5 11.5q-43 13 -71.5 23t-68.5 27t-66 34.5t-54.5 44.5t-45.5 57.5t-28 73t-11 91.5q0 328 397 328q209 0 415 -49z" />
    <glyph glyph-name="Scaron" unicode="&#x160;" horiz-adv-x="1144" 
d="M681 1175q-42 0 -69.5 -1t-66.5 -8t-62 -19.5t-40 -37t-17 -59.5q0 -34 12 -59t22.5 -39.5t51 -30.5t58.5 -21.5t84 -23.5l3 -1.5t3 -1t4 -0.5q217 -58 305 -157.5t88 -290.5q0 -234 -135.5 -337t-403.5 -103q-209 0 -429 48l33 263q231 -34 381 -34q108 0 159 33t51 116
q0 39 -13 66t-44.5 47.5t-63 33t-89.5 30.5q-85 26 -142.5 50t-112 60t-86.5 79.5t-51 106t-19 142.5q0 118 33.5 199.5t102 130t162 69.5t223.5 21q208 0 425 -49l-30 -256q-202 34 -327 34zM591 1698l124 131h236l-268 -273h-178l-273 273h239z" />
    <glyph glyph-name="scaron" unicode="&#x161;" horiz-adv-x="1005" 
d="M601 866q-42 0 -66.5 -1.5t-57 -8t-48.5 -23t-16 -42.5q0 -18 8 -33t18.5 -24.5t31.5 -19t35.5 -14.5t43.5 -13.5t43 -13.5l27 -9q36 -12 54.5 -18.5t50.5 -19t48.5 -22t41.5 -26t38 -32.5t29.5 -39.5t24 -49t13 -59t5.5 -72.5q0 -97 -33 -165t-95 -105.5t-137 -54
t-172 -16.5q-219 0 -403 51l30 234q183 -37 305 -37q30 0 42.5 0.5t40.5 2t41.5 7t31 14t25 24t7.5 35.5t-7 35t-16.5 24.5t-28.5 18.5t-32 13t-39.5 11.5t-38.5 11.5q-43 13 -71.5 23t-68.5 27t-66 34.5t-54.5 44.5t-45.5 57.5t-28 73t-11 91.5q0 328 397 328
q209 0 415 -49l-29 -228q-168 34 -283 34zM504 1403l115 161h222l-251 -336h-166l-255 336h224z" />
    <glyph glyph-name="uni0162" unicode="&#x162;" horiz-adv-x="1080" 
d="M1046 1432v-274h-339v-1158h-336v1158h-337v274h1012zM339 -511l90 395h232l-153 -395h-169z" />
    <glyph glyph-name="uni0163" unicode="&#x163;" horiz-adv-x="834" 
d="M224 1352l313 51v-309h212v-242h-212v-512q0 -57 26.5 -85t85.5 -28q55 0 102 4l24 -224q-121 -22 -210 -22q-177 0 -259 78.5t-82 240.5v548h-172v242h172v258zM297 -519l91 395h232l-152 -395h-171z" />
    <glyph glyph-name="Tcaron" unicode="&#x164;" horiz-adv-x="1080" 
d="M1045 1432v-274h-339v-1158h-335v1158h-337v274h1011zM181 1802h239l119 -131l124 131h236l-268 -272h-178z" />
    <glyph glyph-name="tcaron" unicode="&#x165;" horiz-adv-x="834" 
d="M224 1352l313 51v-309h212v-242h-212v-512q0 -58 26 -85.5t86 -27.5q54 0 102 4l24 -224q-121 -22 -210 -22q-178 0 -259.5 78.5t-81.5 240.5v548h-172v242h172v258zM638 1224l98 425h249l-164 -425h-183z" />
    <glyph glyph-name="Uring" unicode="&#x16e;" horiz-adv-x="1372" 
d="M1229 1432v-942q0 -118 -25.5 -206.5t-70.5 -145t-115 -91t-150 -48.5t-183 -14q-86 0 -155.5 9.5t-132.5 32t-109 61t-80 93.5t-51 132.5t-17 176.5v942h330v-958q0 -114 47.5 -159.5t167.5 -45.5q118 0 165.5 46t47.5 159v958h331zM685 1504q-90 0 -154 63.5t-64 153.5
q0 89 64 153t154 64t153 -63.5t63 -153.5t-63 -153.5t-153 -63.5zM685 1621q41 0 70.5 29t29.5 71q0 41 -29.5 70.5t-70.5 29.5t-71 -29.5t-30 -70.5q0 -42 29.5 -71t71.5 -29z" />
    <glyph glyph-name="uring" unicode="&#x16f;" horiz-adv-x="1193" 
d="M123 403v691h313v-667q0 -106 33.5 -146.5t140.5 -40.5q82 0 133 21q7 62 7 147v686h313v-786q0 -104 -9 -215q-188 -108 -484 -108q-85 0 -151 10.5t-113 29t-80.5 48.5t-53 62t-31 78t-15 89t-3.5 101zM594 1187q-89 0 -153 64t-64 154q0 89 64 153t153 64
q90 0 153 -63.5t63 -153.5t-63 -154t-153 -64zM594 1305q41 0 70.5 29t29.5 71q0 41 -29.5 70.5t-70.5 29.5t-71 -29.5t-30 -70.5q0 -42 29.5 -71t71.5 -29z" />
    <glyph glyph-name="Uhungarumlaut" unicode="&#x170;" horiz-adv-x="1372" 
d="M1229 1432v-942q0 -147 -37.5 -247.5t-112 -156t-169 -78.5t-225.5 -23q-86 0 -155.5 9.5t-132.5 32t-109 61t-80 93.5t-51 132.5t-17 176.5v942h331v-958q0 -114 47 -159.5t167 -45.5q119 0 166 45.5t47 159.5v958h331zM299 1559l192 270h324l-268 -270h-248zM731 1559
l193 270h323l-267 -270h-249z" />
    <glyph glyph-name="uhungarumlaut" unicode="&#x171;" horiz-adv-x="1193" 
d="M123 403v691h313v-667q0 -106 33.5 -146.5t140.5 -40.5q82 0 133 21q7 62 7 147v686h313v-786q0 -104 -9 -215q-188 -108 -483 -108q-85 0 -151.5 10.5t-113.5 29t-80.5 48.5t-53 62t-31 78t-15 89t-3.5 101zM246 1261l180 334h303l-249 -334h-234zM651 1261l180 334h302
l-249 -334h-233z" />
    <glyph glyph-name="Ydieresis" unicode="&#x178;" horiz-adv-x="1273" 
d="M435 1523q-63 0 -106 42t-43 105t43 105.5t106 42.5t104.5 -42.5t41.5 -105.5t-41.5 -105t-104.5 -42zM866 1523q-63 0 -105.5 42t-42.5 105t43 105.5t105 42.5q63 0 105 -42.5t42 -105.5t-42 -105t-105 -42zM804 551v-551h-335v551l-462 881h362l269 -547l279 547h349z
" />
    <glyph glyph-name="Zacute" unicode="&#x179;" horiz-adv-x="1167" 
d="M1042 1185l-536 -905h569v-280h-817q-93 0 -141 33t-48 96q0 49 39 117l540 907h-538v279h783q94 0 140.5 -33.5t46.5 -95.5q0 -53 -38 -118zM415 1542l203 270h333l-281 -270h-255z" />
    <glyph glyph-name="zacute" unicode="&#x17a;" horiz-adv-x="1095" 
d="M969 883l-447 -624h456v-259h-769q-62 0 -97 29t-35 78q0 48 41 106l450 633h-450v248h759q60 0 95.5 -28.5t35.5 -77.5q0 -52 -39 -105zM403 1243l189 334h312l-263 -334h-238z" />
    <glyph glyph-name="Zdotaccent" unicode="&#x17b;" horiz-adv-x="1167" 
d="M1042 1185l-536 -905h568v-280h-817q-92 0 -140 33t-48 96q0 49 39 117l540 907h-539v279h784q94 0 140.5 -33.5t46.5 -95.5q0 -53 -38 -118zM586 1529q-65 0 -110 44t-45 109t45 109t110 44t109 -44t44 -109t-44 -109t-109 -44z" />
    <glyph glyph-name="zdotaccent" unicode="&#x17c;" horiz-adv-x="1095" 
d="M969 883l-446 -624h455v-259h-768q-62 0 -97.5 29t-35.5 78q0 48 41 106l450 633h-450v248h759q61 0 96.5 -28.5t35.5 -77.5t-40 -105zM552 1222q-65 0 -109.5 44.5t-44.5 109.5t44.5 109t109.5 44t109 -44t44 -109t-44 -109.5t-109 -44.5z" />
    <glyph glyph-name="Zcaron" unicode="&#x17d;" horiz-adv-x="1167" 
d="M1042 1185l-536 -905h568v-280h-817q-92 0 -140 33t-48 96q0 49 39 117l540 907h-539v279h784q94 0 140.5 -33.5t46.5 -95.5q0 -53 -38 -118zM235 1813h239l120 -131l123 131h237l-269 -272h-177z" />
    <glyph glyph-name="zcaron" unicode="&#x17e;" horiz-adv-x="1095" 
d="M969 883l-446 -624h455v-259h-768q-62 0 -97.5 29t-35.5 78q0 48 41 106l450 633h-449v248h759q60 0 95.5 -28.5t35.5 -77.5t-40 -105zM226 1578h223l112 -161l116 161h220l-250 -336h-166z" />
    <glyph glyph-name="florin" unicode="&#x192;" horiz-adv-x="1030" 
d="M373 900l22 167q23 173 134 254.5t285 81.5q95 0 183 -17l-33 -242q-62 9 -108 9t-77.5 -16t-49 -48t-26 -63.5t-15.5 -78.5l-7 -47h251l-32 -239h-251l-68 -504q-30 -220 -151.5 -327.5t-338.5 -107.5q-49 0 -89 5l32 240h36q97 0 144 44t58 130l69 520h-216l32 239h216
z" />
    <glyph glyph-name="uni0218" unicode="&#x218;" horiz-adv-x="1144" 
d="M681 1175q-42 0 -69.5 -1t-66.5 -8t-62 -19.5t-40 -37t-17 -59.5q0 -34 12 -59t22.5 -39.5t51 -30.5t58.5 -21.5t84 -23.5l3 -1.5t3 -1t4 -0.5q217 -58 305 -157.5t88 -290.5q0 -234 -135 -337t-403 -103q-210 0 -430 48l33 263q233 -34 381 -34q109 0 160 33t51 116
q0 39 -13 66t-45 47.5t-63 33t-90 30.5q-84 26 -142 50t-112.5 60t-86 79.5t-50.5 106t-19 142.5q0 118 33.5 199.5t102 130t162 69.5t222.5 21q208 0 425 -49l-30 -256q-202 34 -327 34zM736 -122l-153 -395h-170l90 395h233z" />
    <glyph glyph-name="uni0219" unicode="&#x219;" horiz-adv-x="1005" 
d="M601 866q-28 0 -44 -0.5t-41.5 -2.5t-41 -7t-31 -12.5t-23 -21t-7.5 -31.5t8 -33t18.5 -24.5t31.5 -19t35.5 -14.5t43.5 -13.5t43 -13.5q135 -45 177 -67q108 -56 139 -161q15 -51 15 -119q0 -97 -33 -165t-94.5 -105.5t-137 -54t-171.5 -16.5q-219 0 -403 51l29 234
q185 -37 306 -37q30 0 42.5 0.5t40.5 2t41.5 7t31 14t25 24t7.5 35.5t-7 35t-16.5 24.5t-28.5 18.5t-32 13t-39.5 11.5t-38.5 11.5q-43 13 -71.5 23t-68.5 27t-66 34.5t-54.5 44.5t-45.5 57.5t-28 73t-11 91.5q0 328 397 328q209 0 415 -49l-29 -228q-168 34 -283 34z
M669 -117l-153 -395h-170l90 395h233z" />
    <glyph glyph-name="uni021A" unicode="&#x21a;" horiz-adv-x="1080" 
d="M1046 1432v-274h-339v-1158h-336v1158h-337v274h1012zM339 -511l90 395h232l-153 -395h-169z" />
    <glyph glyph-name="uni021B" unicode="&#x21b;" horiz-adv-x="834" 
d="M224 1352l313 51v-309h212v-242h-212v-512q0 -57 26.5 -85t85.5 -28q55 0 102 4l24 -224q-121 -22 -210 -22q-177 0 -259 78.5t-82 240.5v548h-172v242h172v258zM297 -519l91 395h232l-152 -395h-171z" />
    <glyph glyph-name="circumflex" unicode="&#x2c6;" horiz-adv-x="768" 
d="M299 1485h166l255 -335h-224l-111 161l-116 -161h-220z" />
    <glyph glyph-name="caron" unicode="&#x2c7;" horiz-adv-x="716" 
d="M22 1485h224l112 -161l115 161h221l-251 -335h-166z" />
    <glyph glyph-name="uni02C9" unicode="&#x2c9;" horiz-adv-x="881" 
d="M117 1204v190h646v-190h-646z" />
    <glyph glyph-name="breve" unicode="&#x2d8;" horiz-adv-x="679" 
d="M465 1468h170q-7 -87 -39 -153t-98 -107.5t-158 -41.5q-136 0 -210.5 84t-85.5 218h170q8 -55 40.5 -91.5t85.5 -36.5q54 0 86 36.5t39 91.5z" />
    <glyph glyph-name="dotaccent" unicode="&#x2d9;" horiz-adv-x="447" 
d="M225 1161q-65 0 -110 44t-45 109t45 109t110 44t108.5 -44t43.5 -109t-43.5 -109t-108.5 -44z" />
    <glyph glyph-name="ring" unicode="&#x2da;" horiz-adv-x="570" 
d="M286 1121q-90 0 -154 64t-64 154q0 89 64 153t154 64t153.5 -64t63.5 -153q0 -90 -63.5 -154t-153.5 -64zM286 1239q41 0 70.5 29t29.5 71q0 41 -29.5 70.5t-70.5 29.5t-70.5 -29.5t-29.5 -70.5q0 -42 29.5 -71t70.5 -29z" />
    <glyph glyph-name="ogonek" unicode="&#x2db;" horiz-adv-x="446" 
d="M383 -266l42 -109q-39 -32 -93 -51t-102 -19q-93 0 -153 48.5t-60 132.5q0 70 47 141t109 123h165q-136 -133 -136 -221q0 -38 18.5 -59.5t49.5 -21.5q66 0 113 36z" />
    <glyph glyph-name="tilde" unicode="&#x2dc;" horiz-adv-x="770" 
d="M535 1448h158q-10 -134 -65.5 -207.5t-126.5 -73.5q-43 0 -78 18t-53 39.5t-37.5 39.5t-35.5 18q-46 0 -62 -110h-158q10 134 66 207.5t127 73.5q43 0 78 -18t53 -39.5t37.5 -39.5t35.5 -18q45 0 61 110z" />
    <glyph glyph-name="hungarumlaut" unicode="&#x2dd;" horiz-adv-x="949" 
d="M52 1143l180 334h303l-250 -334h-233zM457 1143l180 334h302l-250 -334h-232z" />
    <glyph glyph-name="uni03A9" unicode="&#x3a9;" horiz-adv-x="1599" 
d="M90 0v243h222q-193 226 -193 517q0 198 90.5 355.5t247.5 244t350 86.5q150 0 278.5 -56t214 -150t134 -217t48.5 -256q0 -297 -193 -524h221v-243h-638v182q129 77 216 223t87 338q0 65 -14.5 129.5t-45 124.5t-73.5 105.5t-104 73t-132 27.5q-170 0 -275 -133.5
t-105 -329.5q0 -183 88.5 -333.5t215.5 -224.5v-182h-640z" />
    <glyph glyph-name="uni03BC" unicode="&#x3bc;" horiz-adv-x="1315" 
d="M158 -403v1497h291v-654q0 -93 43.5 -150.5t119.5 -57.5q61 0 103 27.5t64.5 82t32 121.5t9.5 158v473h292v-664q0 -49 0.5 -71t5 -57.5t14 -53t28 -35.5t46.5 -27v-201q-132 0 -211 43.5t-112 112.5q-56 -84 -121 -120t-153 -36q-101 0 -163 57v-445h-289z" />
    <glyph glyph-name="pi" unicode="&#x3c0;" horiz-adv-x="1420" 
d="M316 845h-31q-51 0 -89.5 -13t-89.5 -43q-16 40 -71 168q129 137 358 137h972q-9 -73 -28 -247h-237q-21 -140 -21 -333q0 -303 239 -303l-21 -226q-124 0 -215 23.5t-147 62.5t-89.5 100t-45.5 125.5t-12 148.5q0 198 27 402h-213q-40 -589 -120 -847h-314
q61 201 93.5 393t54.5 452z" />
    <glyph glyph-name="uni200A" unicode="&#x200a;" horiz-adv-x="44" 
 />
    <glyph glyph-name="uni2010" unicode="&#x2010;" horiz-adv-x="801" 
d="M125 423v243h551v-243h-551z" />
    <glyph glyph-name="endash" unicode="&#x2013;" horiz-adv-x="1238" 
d="M125 428v232h988v-232h-988z" />
    <glyph glyph-name="emdash" unicode="&#x2014;" horiz-adv-x="2192" 
d="M125 428v232h1942v-232h-1942z" />
    <glyph glyph-name="quoteleft" unicode="&#x2018;" horiz-adv-x="546" 
d="M68 966l213 551h238l-126 -551h-325z" />
    <glyph glyph-name="quoteright" unicode="&#x2019;" horiz-adv-x="546" 
d="M68 966l126 551h325l-212 -551h-239z" />
    <glyph glyph-name="quotesinglbase" unicode="&#x201a;" horiz-adv-x="569" 
d="M44 -250l126 551h325l-213 -551h-238z" />
    <glyph glyph-name="quotedblleft" unicode="&#x201c;" horiz-adv-x="991" 
d="M68 966l213 551h238l-126 -551h-325zM512 966l213 551h238l-125 -551h-326z" />
    <glyph glyph-name="quotedblright" unicode="&#x201d;" horiz-adv-x="990" 
d="M68 966l126 551h325l-213 -551h-238zM512 966l126 551h325l-212 -551h-239z" />
    <glyph glyph-name="quotedblbase" unicode="&#x201e;" horiz-adv-x="1013" 
d="M44 -250l126 551h325l-213 -551h-238zM488 -250l126 551h324l-212 -551h-238z" />
    <glyph glyph-name="dagger" unicode="&#x2020;" horiz-adv-x="1166" 
d="M424 1116v344h313v-344h360v-269h-360v-1105h-313v1105h-355v269h355z" />
    <glyph glyph-name="daggerdbl" unicode="&#x2021;" horiz-adv-x="1212" 
d="M449 -258v651h-354v266h354v232h-354v270h354v299h312v-299h357v-270h-357v-232h357v-266h-357v-651h-312z" />
    <glyph glyph-name="bullet" unicode="&#x2022;" horiz-adv-x="745" 
d="M372 401q-119 0 -202.5 84t-83.5 203t83.5 202.5t202.5 83.5t203 -84t84 -202q0 -119 -84 -203t-203 -84z" />
    <glyph glyph-name="ellipsis" unicode="&#x2026;" horiz-adv-x="1877" 
d="M283 -15q-105 0 -143.5 37.5t-38.5 137.5q0 99 39 136t143 37t143 -37t39 -136q0 -100 -38.5 -137.5t-143.5 -37.5zM939 -15q-105 0 -143.5 37.5t-38.5 137.5q0 99 39 136t143 37t143 -37t39 -136q0 -100 -38.5 -137.5t-143.5 -37.5zM1594 -15q-105 0 -143.5 37.5
t-38.5 137.5q0 99 39 136t143 37t143 -37t39 -136q0 -100 -38.5 -137.5t-143.5 -37.5z" />
    <glyph glyph-name="perthousand" unicode="&#x2030;" horiz-adv-x="2543" 
d="M387 585q-100 0 -164 25.5t-99 82t-48 131t-13 188.5t13 188.5t48 131t99 82t164 25.5t164 -25.5t99 -82t48 -131t13 -188.5t-13 -188.5t-48 -131t-99 -82t-164 -25.5zM387 755q22 0 38.5 6.5t28 16.5t19 30t11.5 37t6 49t2.5 54.5t0.5 63.5q0 48 -0.5 73.5t-3.5 60.5
t-10 53t-18.5 36.5t-29.5 26t-44 7.5t-44 -7.5t-29.5 -26t-18.5 -36.5t-10 -53t-3.5 -60.5t-0.5 -73.5q0 -41 0.5 -63.5t2.5 -54.5t6 -49t11.5 -37t19 -30t28 -16.5t38.5 -6.5zM1389 -7q-100 0 -164 25.5t-99.5 82t-48.5 131t-13 188.5t13 188.5t48.5 131t99.5 82t164 25.5
t164 -25.5t98.5 -82t47.5 -131t13 -188.5t-13 -188.5t-47.5 -131t-98.5 -82t-164 -25.5zM1389 163q22 0 38.5 7t27.5 16.5t18.5 30t11.5 37t6 48.5t2.5 54t0.5 64t-0.5 64t-2.5 54t-6 48.5t-11.5 37t-18.5 30t-27.5 16.5t-38.5 7q-26 0 -44 -7.5t-30 -25.5t-18.5 -36.5
t-9.5 -53t-4 -61t-1 -73.5t1 -73.5t4 -61t9.5 -53t18.5 -36.5t30 -25.5t44 -7.5zM2141 -7q-100 0 -164 25.5t-99 82t-48 131t-13 188.5t13 188.5t48 131t99 82t164 25.5t164 -25.5t99.5 -82t48.5 -131t13 -188.5t-13 -188.5t-48.5 -131t-99.5 -82t-164 -25.5zM2141 163
q26 0 44 7.5t30 25.5t18.5 36.5t9.5 53t4 61t1 73.5t-1 73.5t-4 61t-9.5 53t-18.5 36.5t-30 25.5t-44 7.5q-22 0 -38.5 -7t-27.5 -16.5t-18.5 -30t-11.5 -37t-6 -48.5t-2.5 -54t-0.5 -64t0.5 -64t2.5 -54t6 -48.5t11.5 -37t18.5 -30t27.5 -16.5t38.5 -7zM361 -29l840 1490
h212l-841 -1490h-211z" />
    <glyph glyph-name="guilsinglleft" unicode="&#x2039;" horiz-adv-x="710" 
d="M363 530l274 -428h-284l-303 428l303 427h284z" />
    <glyph glyph-name="guilsinglright" unicode="&#x203a;" horiz-adv-x="710" 
d="M661 530l-303 -428h-285l275 428l-275 427h285z" />
    <glyph glyph-name="fraction" unicode="&#x2044;" horiz-adv-x="328" 
d="M-362 -29l841 1490h211l-841 -1490h-211z" />
    <glyph glyph-name="uni2070" unicode="&#x2070;" horiz-adv-x="785" 
d="M393 826q-80 0 -137 17.5t-93.5 49.5t-57 86t-28.5 118t-8 155t8 155t28.5 118.5t57 86.5t93.5 49.5t137 17.5t137 -17.5t93.5 -49.5t57 -86.5t28.5 -118.5t8 -155t-8 -155t-28.5 -118t-57 -86t-93.5 -49.5t-137 -17.5zM393 996q26 0 44 7.5t29.5 25.5t18.5 36t10 53
t3.5 60.5t0.5 73.5t-0.5 74t-3.5 61t-10 53t-18.5 36.5t-29.5 26t-44 7.5t-44 -7.5t-29.5 -26t-18.5 -36.5t-10 -53t-3.5 -61t-0.5 -74q0 -42 0.5 -63.5t2.5 -54t6 -49t11.5 -37t18.5 -29.5t28 -16t39 -7z" />
    <glyph glyph-name="uni2074" unicode="&#x2074;" horiz-adv-x="760" 
d="M409 833v180h-241q-73 0 -102.5 26.5t-29.5 78.5q0 56 64 140l260 335q39 51 72 68t79 17q48 0 78.5 -30t30.5 -87v-383h96v-165h-96v-180h-211zM409 1387l-154 -209h154v209z" />
    <glyph glyph-name="uni2075" unicode="&#x2075;" horiz-adv-x="726" 
d="M293 1494l-8 -116q12 1 35 1q81 0 137.5 -10t106.5 -38t75 -83.5t25 -139.5q0 -147 -82 -213.5t-245 -66.5q-149 0 -285 33l22 164q152 -22 223 -22q83 0 113 22.5t30 95.5q0 29 -12.5 47.5t-37.5 27.5t-53 12.5t-70 3.5q-115 0 -195 -5l32 465h542v-178h-353z" />
    <glyph glyph-name="uni2076" unicode="&#x2076;" horiz-adv-x="766" 
d="M652 1674l17 -161h-48h-47q-45 0 -76.5 -1.5t-72.5 -9.5t-66.5 -22.5t-45 -41.5t-22.5 -65q66 8 106 8q160 0 239.5 -59.5t79.5 -214.5q0 -83 -23.5 -140t-69.5 -88t-103.5 -43.5t-137.5 -12.5q-95 0 -158.5 23.5t-97.5 72t-48 109t-14 147.5q0 119 12 199t41.5 141.5
t83.5 95t132.5 50t194.5 16.5q8 0 124 -3zM379 994q71 0 96 24.5t25 91.5q0 62 -31 85.5t-92 23.5q-45 0 -96 -7q-2 -34 -2 -56q0 -36 3.5 -61.5t13.5 -50t30.5 -37.5t52.5 -13z" />
    <glyph glyph-name="uni2077" unicode="&#x2077;" horiz-adv-x="670" 
d="M636 1516l-306 -681h-240l322 656h-376v180h492q59 0 91 -25.5t32 -69.5q0 -24 -15 -60z" />
    <glyph glyph-name="uni2078" unicode="&#x2078;" horiz-adv-x="762" 
d="M382 1679q314 0 314 -218q0 -71 -23.5 -112.5t-87.5 -78.5q60 -37 91 -81t31 -113q0 -75 -24.5 -125.5t-71.5 -77t-101.5 -37t-127.5 -10.5q-156 0 -241 56.5t-85 192.5q0 68 30 110.5t93 81.5q-54 31 -83 76t-29 118q0 218 315 218zM382 992q112 0 112 86
q0 55 -27.5 77.5t-119.5 32.5q-78 -21 -78 -110q0 -49 29 -67.5t84 -18.5zM415 1347q40 12 58.5 32t18.5 61q0 44 -28 60.5t-82 16.5q-52 0 -80 -16t-28 -61q0 -44 27.5 -66t113.5 -27z" />
    <glyph glyph-name="uni2079" unicode="&#x2079;" horiz-adv-x="766" 
d="M369 1125q-78 0 -133.5 12t-99 42t-65 84.5t-21.5 134.5q0 84 23.5 141t69.5 87.5t103.5 43t137.5 12.5q95 0 158 -23.5t97.5 -72t48 -109t13.5 -147.5q0 -99 -7.5 -169.5t-28 -129.5t-53.5 -95.5t-85.5 -61.5t-122 -35.5t-166.5 -10.5q-9 0 -124 3l-18 161h15h18h16h46
q58 0 97 3.5t85 16.5t71.5 43t29.5 77q-56 -7 -105 -7zM388 1286q46 0 97 7q2 36 2 56q0 36 -3.5 61.5t-13.5 50.5t-30.5 38t-52.5 13q-70 0 -95.5 -25.5t-25.5 -91.5q0 -62 30.5 -85.5t91.5 -23.5z" />
    <glyph glyph-name="uni2080" unicode="&#x2080;" horiz-adv-x="785" 
d="M393 -248q-80 0 -137 17.5t-93.5 49.5t-57 86t-28.5 118t-8 155t8 155t28.5 118.5t57 86.5t93.5 49.5t137 17.5t137 -17.5t93.5 -49.5t57 -86.5t28.5 -118.5t8 -155t-8 -155t-28.5 -118t-57 -86t-93.5 -49.5t-137 -17.5zM393 -78q26 0 44 7.5t29.5 25.5t18.5 36t10 53
t3.5 60.5t0.5 73.5t-0.5 74t-3.5 61t-10 53t-18.5 36.5t-29.5 26t-44 7.5t-44 -7.5t-29.5 -26t-18.5 -36.5t-10 -53t-3.5 -61t-0.5 -74q0 -42 0.5 -63.5t2.5 -54t6 -49t11.5 -37t18.5 -29.5t28 -16t39 -7z" />
    <glyph glyph-name="uni2081" unicode="&#x2081;" horiz-adv-x="514" 
d="M205 -239v627q-69 -15 -172 -25l-10 167q131 20 234 67h164v-836h-216z" />
    <glyph glyph-name="uni2082" unicode="&#x2082;" horiz-adv-x="728" 
d="M79 408l-21 164q162 32 292 32q70 0 123 -10t97 -34t67.5 -69t23.5 -110q0 -115 -61 -191.5t-188 -126.5q-65 -25 -91 -52.5t-33 -71.5h373v-180h-617q41 232 84.5 317t185.5 145q70 30 99 56.5t29 69.5q0 50 -34.5 66t-133.5 16q-80 0 -195 -21z" />
    <glyph glyph-name="uni2083" unicode="&#x2083;" horiz-adv-x="713" 
d="M325 605q55 0 98.5 -5t86.5 -19.5t71.5 -39t46 -65.5t17.5 -97q0 -120 -104 -178q62 -26 89 -68t27 -107q0 -150 -84.5 -212t-251.5 -62q-97 0 -276 32l23 164q150 -20 222 -20q78 0 110.5 18.5t32.5 73.5q0 75 -67 84q-67 8 -171 8h-25v156q94 1 195 17q60 9 60 78
q0 43 -28 56.5t-84 13.5q-64 0 -238 -21l-22 161q158 32 272 32z" />
    <glyph glyph-name="uni2084" unicode="&#x2084;" horiz-adv-x="760" 
d="M409 -241v180h-241q-73 0 -102.5 26.5t-29.5 78.5q0 56 64 140l260 335q39 51 72 68t79 17q48 0 78.5 -30t30.5 -87v-383h96v-165h-96v-180h-211zM409 313l-154 -209h154v209z" />
    <glyph glyph-name="uni2085" unicode="&#x2085;" horiz-adv-x="726" 
d="M293 420l-8 -116q12 1 35 1q81 0 137.5 -10t106.5 -38t75 -83.5t25 -139.5q0 -147 -82 -213.5t-245 -66.5q-149 0 -285 33l22 164q152 -22 223 -22q83 0 113 22.5t30 95.5q0 29 -12.5 47.5t-37.5 27.5t-53 12.5t-70 3.5q-115 0 -195 -5l32 465h542v-178h-353z" />
    <glyph glyph-name="uni2086" unicode="&#x2086;" horiz-adv-x="766" 
d="M652 600l17 -161h-14.5h-17.5h-16h-47q-45 0 -76.5 -1.5t-72.5 -9.5t-66.5 -22.5t-45 -41.5t-22.5 -65q66 8 106 8q160 0 239.5 -59.5t79.5 -214.5q0 -83 -23.5 -140t-69.5 -88t-103.5 -43.5t-137.5 -12.5q-95 0 -158.5 23.5t-97.5 72t-48 109t-14 147.5q0 119 12 199
t41.5 141.5t83.5 95t132.5 50t194.5 16.5q8 0 124 -3zM379 -80q71 0 96 24.5t25 91.5q0 62 -31 85.5t-92 23.5q-45 0 -96 -7q-2 -34 -2 -56q0 -36 3.5 -61.5t13.5 -50t30.5 -37.5t52.5 -13z" />
    <glyph glyph-name="uni2087" unicode="&#x2087;" horiz-adv-x="670" 
d="M636 442l-306 -681h-240l322 656h-376v180h492q59 0 91 -25.5t32 -69.5q0 -24 -15 -60z" />
    <glyph glyph-name="uni2088" unicode="&#x2088;" horiz-adv-x="762" 
d="M382 605q314 0 314 -218q0 -71 -23.5 -112.5t-87.5 -78.5q60 -37 91 -81t31 -113q0 -75 -24.5 -125.5t-71.5 -77t-101.5 -37t-127.5 -10.5q-156 0 -241 56.5t-85 192.5q0 68 30 110.5t93 81.5q-54 31 -83 76t-29 118q0 218 315 218zM382 -82q112 0 112 86
q0 55 -27.5 77.5t-119.5 32.5q-78 -21 -78 -110q0 -49 29 -67.5t84 -18.5zM415 273q40 12 58.5 32t18.5 61q0 44 -28 60.5t-82 16.5q-52 0 -80 -16t-28 -61q0 -44 27.5 -66t113.5 -27z" />
    <glyph glyph-name="uni2089" unicode="&#x2089;" horiz-adv-x="766" 
d="M369 51q-78 0 -133.5 12t-99 42t-65 84.5t-21.5 134.5q0 84 23.5 141t69.5 87.5t103.5 43t137.5 12.5q95 0 158 -23.5t97.5 -72t48 -109t13.5 -147.5q0 -99 -7.5 -169.5t-28 -129.5t-53.5 -95.5t-85.5 -61.5t-122 -35.5t-166.5 -10.5q-9 0 -124 3l-18 161h49h46
q58 0 97 3.5t85 16.5t71.5 43t29.5 77q-56 -7 -105 -7zM388 212q46 0 97 7q2 36 2 56q0 36 -3.5 61.5t-13.5 50.5t-30.5 38t-52.5 13q-70 0 -95.5 -25.5t-25.5 -91.5q0 -62 30.5 -85.5t91.5 -23.5z" />
    <glyph glyph-name="Euro" unicode="&#x20ac;" horiz-adv-x="1122" 
d="M82 743l36 166h96q12 131 43 222t90 153t148 90.5t216 28.5q189 0 324 -48l-24 -253q-132 27 -250 27q-111 0 -162.5 -55.5t-66.5 -164.5h406l-36 -166h-379v-92h359l-35 -165h-317q14 -112 65 -169t166 -57q125 0 249 28l25 -256q-138 -47 -324 -47q-128 0 -217.5 29
t-148.5 92t-89.5 155t-42.5 225h-144l35 165h101v43q0 33 1 49h-124z" />
    <glyph glyph-name="uni2113" unicode="&#x2113;" horiz-adv-x="1082" 
d="M235 586q0 85 1.5 149.5t5 140.5t11 133t18.5 119t28 107.5t39.5 90.5t53 75.5t68 54.5t85 35.5t104.5 11.5q139 0 211.5 -91t72.5 -229q0 -308 -419 -647q15 -182 54.5 -268.5t130.5 -86.5q47 0 100 34t127 105l111 -123q-160 -212 -386 -212q-90 0 -161 30.5t-117 85.5
t-75 122t-44 151l-121 -73l-83 160zM512 817q91 99 138 188t47 185q0 126 -66 126q-90 0 -110 -250q-6 -68 -9 -249z" />
    <glyph glyph-name="trademark" unicode="&#x2122;" horiz-adv-x="1946" 
d="M1798 573h-189v542h-1l-212 -542h-125l-212 542h-1v-542h-189v859h252l215 -547l212 547h250v-859zM751 1432v-166h-250v-693h-189v693h-249v166h688z" />
    <glyph glyph-name="Omega" unicode="&#x2126;" horiz-adv-x="1599" 
d="M90 0v243h222q-193 226 -193 517q0 198 90.5 355.5t247.5 244t350 86.5q150 0 278.5 -56t214 -150t134 -217t48.5 -256q0 -297 -193 -524h221v-243h-638v182q129 77 216 223t87 338q0 65 -14.5 129.5t-45 124.5t-73.5 105.5t-104 73t-132 27.5q-170 0 -275 -133.5
t-105 -329.5q0 -183 88.5 -333.5t215.5 -224.5v-182h-640z" />
    <glyph glyph-name="estimated" unicode="&#x212e;" horiz-adv-x="1652" 
d="M1349 305h127q-125 -153 -282 -236.5t-366 -83.5q-163 0 -302.5 51.5t-236.5 141t-151.5 214t-54.5 266.5q0 134 53 255.5t147 214.5t236 148t309 55q171 0 308.5 -51t228.5 -142.5t144 -212.5t66 -267h-1166v-455q172 -145 419 -145q326 0 521 247zM409 1112v-381h840
v381q-185 147 -421 147q-250 0 -419 -147z" />
    <glyph glyph-name="uni2190" unicode="&#x2190;" horiz-adv-x="1427" 
d="M541 473l295 -369h-294l-464 498l464 496h294l-295 -369h809v-256h-809z" />
    <glyph glyph-name="uni2191" unicode="&#x2191;" horiz-adv-x="1149" 
d="M703 775v-810h-256v810l-369 -295v294l497 464l497 -464v-294z" />
    <glyph glyph-name="uni2192" unicode="&#x2192;" horiz-adv-x="1427" 
d="M1350 602l-463 -498h-295l295 369h-809v256h809l-295 369h295z" />
    <glyph glyph-name="uni2193" unicode="&#x2193;" horiz-adv-x="1148" 
d="M1071 723v-294l-496 -464l-497 464v294l369 -295v810h255v-810z" />
    <glyph glyph-name="uni21E8" unicode="&#x21e8;" horiz-adv-x="1637" 
d="M954 323h-838v558h838v341l641 -620l-641 -621v342zM1453 602l-399 379v-201h-839v-357h839v-201z" />
    <glyph glyph-name="partialdiff" unicode="&#x2202;" horiz-adv-x="1149" 
d="M489 -15q-102 0 -183 37.5t-131.5 101t-77 145t-26.5 173.5q0 237 132 384t362 147q95 0 181 -58q-25 378 -242 378q-72 0 -130 -19.5t-126 -64.5l-56 186q174 122 362 122q127 0 223 -51.5t156 -147t90 -224.5t30 -290q0 -241 -65.5 -425t-194 -289t-304.5 -105z
M578 753q-92 0 -145 -91.5t-53 -219.5q0 -99 34 -171t98 -72q53 0 95 40t68.5 107.5t42 143t22.5 159.5q-34 50 -72 77t-90 27z" />
    <glyph glyph-name="Delta" unicode="&#x2206;" horiz-adv-x="1419" 
d="M1358 168v-168h-1297v165l502 1267h303zM1016 237l-309 800l-312 -800h621z" />
    <glyph glyph-name="product" unicode="&#x220f;" horiz-adv-x="1619" 
d="M1558 1475v-257h-223v-1490h-314v1490h-421v-1490h-314v1490h-225v257h1497z" />
    <glyph glyph-name="summation" unicode="&#x2211;" horiz-adv-x="1296" 
d="M68 1475h1139v-249h-720l452 -597l-493 -636h793v-265h-1195v177l538 696l-514 691v183z" />
    <glyph glyph-name="minus" unicode="&#x2212;" horiz-adv-x="1172" 
d="M78 473v256h1017v-256h-1017z" />
    <glyph glyph-name="uni2215" unicode="&#x2215;" horiz-adv-x="328" 
d="M-362 -29l841 1490h211l-841 -1490h-211z" />
    <glyph glyph-name="uni2219" unicode="&#x2219;" horiz-adv-x="608" 
d="M304 413q-105 0 -143.5 37t-38.5 137q0 99 39 136.5t143 37.5t143 -37.5t39 -136.5q0 -100 -38.5 -137t-143.5 -37z" />
    <glyph glyph-name="radical" unicode="&#x221a;" horiz-adv-x="1212" 
d="M1190 1761l-432 -1890h-250l-278 810l-138 -54l-63 200l393 155l197 -613l313 1392h258z" />
    <glyph glyph-name="infinity" unicode="&#x221e;" horiz-adv-x="1719" 
d="M434 986q187 0 358 -190q39 47 67.5 79t71.5 70.5t82 61.5t90 39t104 16q128 0 224 -65.5t143.5 -168.5t47.5 -226t-47.5 -226.5t-143.5 -169.5t-224 -66q-53 0 -104 16t-90 38.5t-82 61t-71.5 70t-67.5 78.5q-168 -185 -358 -185q-151 0 -253.5 115t-102.5 268
t102.5 268.5t253.5 115.5zM434 459q47 0 96.5 32.5t114.5 110.5q-65 79 -115 111.5t-96 32.5q-51 0 -84.5 -39t-33.5 -105t33 -104.5t85 -38.5zM1207 382q76 0 124 58t48 162q0 103 -48 161t-124 58q-115 0 -267 -219q153 -220 267 -220z" />
    <glyph glyph-name="integral" unicode="&#x222b;" horiz-adv-x="814" 
d="M785 1422q-69 51 -140 51q-43 0 -72 -28t-43 -79.5t-19 -105t-5 -123.5q0 -160 18 -480.5t18 -488.5q0 -72 -10 -141t-37.5 -143t-70 -129.5t-113 -91t-160.5 -35.5q-59 0 -129 22.5t-110 49.5l52 200q68 -49 164 -49q79 0 107 75.5t28 249.5q0 152 -17 489t-17 490
q0 80 9 149.5t36 142.5t70 124.5t116.5 84.5t170.5 33q103 0 209 -70z" />
    <glyph glyph-name="approxequal" unicode="&#x2248;" horiz-adv-x="1322" 
d="M1191 568v-255q-58 -61 -142 -91.5t-166 -30.5q-66 0 -128 19t-102.5 42.5t-98 42.5t-115.5 19q-82 0 -166 -31t-142 -91v255q58 60 142 91t166 31q66 0 128 -19.5t103 -42.5t98 -42.5t115 -19.5q81 0 165.5 31.5t142.5 91.5zM1191 1010v-255q-58 -61 -142 -91.5
t-166 -30.5q-66 0 -128 19t-102.5 42.5t-98 42.5t-115.5 19q-82 0 -166 -30.5t-142 -91.5v255q58 60 142 91t166 31q66 0 128 -19t103 -42.5t98 -42.5t115 -19q82 0 166 31t142 91z" />
    <glyph glyph-name="notequal" unicode="&#x2260;" horiz-adv-x="1279" 
d="M131 253v255h365l82 187h-447v255h558l125 284h205l-124 -284h253v-255h-364l-82 -187h446v-255h-558l-124 -284h-205l124 284h-254z" />
    <glyph glyph-name="lessequal" unicode="&#x2264;" horiz-adv-x="1290" 
d="M101 667v199l1058 396v-260l-658 -235l658 -235v-261zM101 -60v255h1058v-255h-1058z" />
    <glyph glyph-name="greaterequal" unicode="&#x2265;" horiz-adv-x="1290" 
d="M132 532l658 235l-658 235v260l1058 -396v-199l-1058 -396v261zM132 -60v255h1058v-255h-1058z" />
    <glyph glyph-name="lozenge" unicode="&#x25ca;" 
d="M1137 717l-418 -774h-227l-418 774l418 772h227zM606 249l243 468l-243 470l-244 -470z" />
    <glyph glyph-name="zero.numerator" horiz-adv-x="785" 
d="M393 586q-80 0 -137 17.5t-93.5 49.5t-57 86t-28.5 118t-8 155t8 155t28.5 118.5t57 86.5t93.5 49.5t137 17.5t137 -17.5t93.5 -49.5t57 -86.5t28.5 -118.5t8 -155t-8 -155t-28.5 -118t-57 -86t-93.5 -49.5t-137 -17.5zM393 756q26 0 44 7.5t29.5 25.5t18.5 36t10 53
t3.5 60.5t0.5 73.5q0 41 -0.5 63.5t-2.5 54.5t-6 49t-11.5 37t-19 30t-28 16.5t-38.5 6.5t-38.5 -6.5t-28 -16.5t-19 -30t-11.5 -37t-6 -49t-2.5 -54.5t-0.5 -63.5q0 -42 0.5 -63.5t2.5 -54t6 -49t11.5 -37t18.5 -29.5t28 -16t39 -7z" />
    <glyph glyph-name="one.numerator" horiz-adv-x="514" 
d="M205 595v627q-77 -17 -172 -26l-10 168q135 20 234 66h164v-835h-216z" />
    <glyph glyph-name="two.numerator" horiz-adv-x="728" 
d="M79 1242l-21 164q162 32 292 32q70 0 123 -10t97 -34t67.5 -69t23.5 -110q0 -115 -61 -192t-188 -127q-65 -25 -91 -52.5t-33 -71.5h373v-179h-617q41 232 84.5 317t185.5 145q70 30 99 56.5t29 69.5q0 50 -34.5 66t-133.5 16q-80 0 -195 -21z" />
    <glyph glyph-name="three.numerator" horiz-adv-x="713" 
d="M325 1439q55 0 98.5 -5t86.5 -19.5t71.5 -39t46 -65.5t17.5 -97q0 -120 -104 -178q62 -26 89 -68t27 -107q0 -150 -84.5 -212t-251.5 -62q-97 0 -276 32l23 164q150 -20 222 -20q78 0 110.5 18t32.5 73q0 76 -67 85q-67 8 -171 8h-25v156q94 1 195 17q60 9 60 77
q0 43 -28 56.5t-84 13.5q-72 0 -238 -20l-22 161q158 32 272 32z" />
    <glyph glyph-name="four.numerator" horiz-adv-x="760" 
d="M409 593v180h-241q-73 0 -102.5 26.5t-29.5 78.5q0 56 64 140l260 335q39 51 72 68t79 17q48 0 78.5 -30t30.5 -87v-383h96v-165h-96v-180h-211zM409 1147l-154 -209h154v209z" />
    <glyph glyph-name="five.numerator" horiz-adv-x="726" 
d="M293 1254l-8 -117q24 2 35 2q81 0 137.5 -10t106.5 -38t75 -83.5t25 -139.5q0 -147 -82 -214t-245 -67q-144 0 -285 34l22 164q152 -22 223 -22q83 0 113 22.5t30 95.5q0 29 -12.5 47.5t-37.5 27.5t-53 12.5t-70 3.5q-115 0 -195 -5l32 465h542v-178h-353z" />
    <glyph glyph-name="six.numerator" horiz-adv-x="766" 
d="M652 1434l17 -161h-48h-47q-45 0 -76.5 -1.5t-72.5 -9.5t-66.5 -22.5t-45 -41.5t-22.5 -65q58 7 106 7q78 0 133.5 -12t99 -42t65 -84.5t21.5 -134.5q0 -83 -23.5 -140t-69.5 -88t-103.5 -43.5t-137.5 -12.5q-95 0 -158.5 23.5t-97.5 72t-48 109t-14 147.5q0 119 12 199
t41.5 141.5t83.5 95t132.5 50t194.5 16.5q8 0 124 -3zM379 753q70 0 95.5 25t25.5 92q0 62 -31 85.5t-92 23.5q-45 0 -96 -7q-2 -34 -2 -56q0 -36 3.5 -61.5t13.5 -50.5t30.5 -38t52.5 -13z" />
    <glyph glyph-name="seven.numerator" horiz-adv-x="670" 
d="M636 1276l-306 -681h-240l322 655h-376v180h492q59 0 91 -25t32 -69q0 -24 -15 -60z" />
    <glyph glyph-name="eight.numerator" horiz-adv-x="762" 
d="M382 1439q314 0 314 -218q0 -71 -23.5 -112.5t-87.5 -78.5q60 -37 91 -81t31 -113q0 -75 -24.5 -125.5t-71.5 -77t-101.5 -37t-127.5 -10.5q-156 0 -241 56t-85 192q0 68 30.5 111t92.5 82q-54 31 -83 76t-29 118q0 218 315 218zM382 752q112 0 112 86q0 55 -27.5 77.5
t-119.5 32.5q-78 -21 -78 -110q0 -49 29 -67.5t84 -18.5zM415 1107q40 12 58.5 32t18.5 60q0 44 -28 61t-82 17q-52 0 -80 -16.5t-28 -61.5q0 -43 27.5 -65t113.5 -27z" />
    <glyph glyph-name="nine.numerator" horiz-adv-x="766" 
d="M369 885q-78 0 -133.5 12t-99 42t-65 84.5t-21.5 134.5q0 84 23.5 141t69.5 87.5t103.5 43t137.5 12.5q95 0 158 -23.5t97.5 -72.5t48 -109.5t13.5 -147.5q0 -150 -18.5 -240.5t-71 -152t-140.5 -85t-233 -23.5q-47 0 -124 2l-18 161q15 1 49 1h46q58 0 97 3.5t85 16.5
t71.5 43t29.5 77q-56 -7 -105 -7zM388 1046q46 0 97 7q2 36 2 56q0 36 -3.5 61.5t-13.5 50.5t-30.5 38t-52.5 13q-70 0 -95.5 -25.5t-25.5 -91.5q0 -62 30.5 -85.5t91.5 -23.5z" />
    <glyph glyph-name="zero.denominator" horiz-adv-x="785" 
d="M393 -7q-80 0 -137 17.5t-93.5 49.5t-57 86t-28.5 118t-8 155t8 155t28.5 118.5t57 86.5t93.5 49.5t137 17.5t137 -17.5t93.5 -49.5t57 -86.5t28.5 -118.5t8 -155t-8 -155t-28.5 -118t-57 -86t-93.5 -49.5t-137 -17.5zM393 163q26 0 44 7.5t29.5 25.5t18.5 36t10 53
t3.5 60.5t0.5 73.5t-0.5 74t-3.5 61t-10 53t-18.5 36.5t-29.5 26t-44 7.5t-44 -7.5t-29.5 -26t-18.5 -36.5t-10 -53t-3.5 -61t-0.5 -74q0 -42 0.5 -63.5t2.5 -54t6 -49t11.5 -37t18.5 -29.5t28 -16t39 -7z" />
    <glyph glyph-name="one.denominator" horiz-adv-x="514" 
d="M205 2v627q-77 -17 -172 -26l-10 168q131 20 234 67h164v-836h-216z" />
    <glyph glyph-name="two.denominator" horiz-adv-x="728" 
d="M79 649l-21 164q162 32 292 32q70 0 123 -10t97 -34t67.5 -69t23.5 -110q0 -115 -61 -191.5t-188 -126.5q-65 -25 -91 -53t-33 -72h373v-179h-617q41 232 84.5 317t185.5 145q70 30 99 56.5t29 69.5q0 50 -34.5 66t-133.5 16q-80 0 -195 -21z" />
    <glyph glyph-name="three.denominator" horiz-adv-x="713" 
d="M325 846q55 0 98.5 -5t86.5 -19.5t71.5 -39t46 -65.5t17.5 -97q0 -120 -104 -178q62 -26 89 -68t27 -107q0 -150 -84.5 -212t-251.5 -62q-97 0 -276 32l23 164q150 -20 222 -20q78 0 110.5 18.5t32.5 73.5q0 75 -67 84q-67 8 -171 8h-25v156q94 1 195 17q60 9 60 77
q0 43 -28 56.5t-84 13.5q-72 0 -238 -20l-22 161q158 32 272 32z" />
    <glyph glyph-name="four.denominator" horiz-adv-x="760" 
d="M409 0v180h-241q-73 0 -102.5 26.5t-29.5 78.5q0 56 64 140l260 335q39 51 72 68t79 17q48 0 78.5 -30t30.5 -87v-383h96v-165h-96v-180h-211zM409 554l-154 -209h154v209z" />
    <glyph glyph-name="five.denominator" horiz-adv-x="726" 
d="M293 661l-8 -117q24 2 35 2q81 0 137.5 -10t106.5 -38t75 -83.5t25 -139.5q0 -147 -82 -214t-245 -67q-144 0 -285 34l22 164q152 -22 223 -22q83 0 113 22.5t30 95.5q0 29 -12.5 47.5t-37.5 27.5t-53 12.5t-70 3.5q-115 0 -195 -5l32 465h542v-178h-353z" />
    <glyph glyph-name="six.denominator" horiz-adv-x="766" 
d="M652 841l17 -161h-14.5h-17.5h-16h-47q-45 0 -76.5 -1.5t-72.5 -9.5t-66.5 -22.5t-45 -41.5t-22.5 -65q58 7 106 7q78 0 133.5 -12t99 -42t65 -84.5t21.5 -134.5q0 -83 -23.5 -140t-69.5 -88t-103.5 -43.5t-137.5 -12.5q-95 0 -158.5 23.5t-97.5 72t-48 109t-14 147.5
q0 119 12 199t41.5 141.5t83.5 95t132.5 50t194.5 16.5q8 0 124 -3zM379 160q70 0 95.5 25t25.5 92q0 62 -31 85.5t-92 23.5q-45 0 -96 -7q-2 -34 -2 -56q0 -36 3.5 -61.5t13.5 -50.5t30.5 -38t52.5 -13z" />
    <glyph glyph-name="seven.denominator" horiz-adv-x="670" 
d="M636 683l-306 -681h-240l322 655h-376v181h492q59 0 91 -25.5t32 -69.5q0 -24 -15 -60z" />
    <glyph glyph-name="eight.denominator" horiz-adv-x="762" 
d="M382 846q314 0 314 -218q0 -71 -23.5 -112.5t-87.5 -78.5q60 -37 91 -81t31 -113q0 -75 -24.5 -125.5t-71.5 -77t-101.5 -37t-127.5 -10.5q-156 0 -241 56t-85 192q0 68 30.5 111t92.5 82q-54 31 -83 76t-29 118q0 218 315 218zM382 159q112 0 112 86q0 55 -27.5 77.5
t-119.5 32.5q-78 -21 -78 -110q0 -49 29 -67.5t84 -18.5zM415 514q40 12 58.5 32t18.5 60q0 44 -28 61t-82 17q-52 0 -80 -16.5t-28 -61.5q0 -43 27.5 -65t113.5 -27z" />
    <glyph glyph-name="nine.denominator" horiz-adv-x="766" 
d="M369 292q-78 0 -133.5 12t-99 42t-65 84.5t-21.5 134.5q0 84 23.5 141t69.5 87.5t103.5 43t137.5 12.5q95 0 158 -23.5t97.5 -72.5t48 -109.5t13.5 -147.5q0 -150 -18.5 -240.5t-71 -152t-140.5 -85t-233 -23.5q-9 0 -124 3l-18 161h49h46q58 0 97 3.5t85 16.5t71.5 43
t29.5 77q-56 -7 -105 -7zM388 453q46 0 97 7q2 36 2 56q0 36 -3.5 61.5t-13.5 50.5t-30.5 38t-52.5 13q-70 0 -95.5 -25.5t-25.5 -91.5q0 -62 30.5 -85.5t91.5 -23.5z" />
    <glyph glyph-name="zero.onum" horiz-adv-x="1171" 
d="M586 -15q-119 0 -204 24.5t-139.5 69.5t-85.5 121t-43 166t-12 217t12 217t43 166t85.5 121t139.5 69.5t204 24.5t204 -24.5t139 -69.5t85.5 -121t43 -166t11.5 -217q0 -106 -8 -184.5t-28 -148.5t-55.5 -117t-88.5 -81.5t-128 -50.5t-175 -16zM586 238q36 0 63 9
t45.5 22t31 40t19 49.5t10 65t4 73t0.5 86.5q0 44 -0.5 68t-2 60t-4.5 55.5t-9 46.5t-14.5 41t-21.5 30.5t-30 24.5t-40 13.5t-51 5.5t-51 -5.5t-40 -13.5t-30 -24.5t-22 -31t-15 -41t-9 -46.5t-4.5 -55.5t-2 -60t-0.5 -67.5t0.5 -67.5t2 -60t4.5 -55.5t9 -46.5t15 -41
t22 -31t30 -24.5t40 -13.5t51 -5.5z" />
    <glyph glyph-name="one.onum" horiz-adv-x="757" 
d="M312 0v858q-106 -25 -264 -40l-14 249q197 29 349 100h236v-1167h-307z" />
    <glyph glyph-name="two.onum" horiz-adv-x="1061" 
d="M119 896l-33 243q237 42 425 42q102 0 178.5 -14t140.5 -48t98 -97.5t34 -155.5q0 -165 -89 -272.5t-275 -174.5q-97 -35 -137 -68.5t-53 -85.5h554v-265h-898q18 94 27 138.5t25.5 113t29.5 100t35 79t46 71.5t59 55t77.5 52.5t98.5 43.5q108 42 154.5 78.5t46.5 88.5
q0 62 -54.5 82t-211.5 20q-113 0 -278 -26z" />
    <glyph glyph-name="three.onum" horiz-adv-x="1064" 
d="M484 1181q82 0 146.5 -7.5t128.5 -30t106.5 -59.5t69 -99.5t26.5 -146.5q0 -186 -158 -272q95 -40 136 -103.5t41 -164.5q0 -118 -34 -200t-101 -128.5t-156 -67t-210 -20.5q-163 0 -412 47l34 245q236 -30 330 -30q125 0 177.5 29t52.5 116q0 117 -113 131
q-120 15 -267 15h-23v230q143 3 290 26q100 14 100 122q0 47 -25.5 72.5t-61.5 32t-96 6.5q-119 0 -353 -31l-32 242q228 46 404 46z" />
    <glyph glyph-name="four.onum" horiz-adv-x="1139" 
d="M625 -104v274h-380q-105 0 -148.5 40.5t-43.5 115.5q0 25 4.5 47t27.5 67.5t66 100.5l398 512q60 77 107 102.5t113 25.5q68 0 111.5 -45.5t43.5 -129.5v-591h149v-245h-149v-274h-299zM626 769l-262 -354h262v354z" />
    <glyph glyph-name="five.onum" horiz-adv-x="1083" 
d="M423 902l-13 -186q44 2 65 2q96 0 167 -8.5t140 -34.5t112.5 -70.5t70 -119.5t26.5 -178q0 -223 -123 -324.5t-367 -101.5q-207 0 -424 49l34 245q205 -32 330 -32q134 0 182 35t48 149q0 37 -14 63t-36.5 41.5t-59.5 24.5t-75 12t-91 3q-158 0 -287 -8l49 704h806v-265
h-540z" />
    <glyph glyph-name="six.onum" horiz-adv-x="1143" 
d="M593 831q93 0 163 -11t131 -39t99.5 -74.5t60.5 -119t22 -170.5q0 -102 -23.5 -178t-65 -124t-106 -77.5t-137 -41t-167.5 -11.5q-114 0 -197.5 25t-136.5 68.5t-85 113t-44 148t-12 182.5q0 151 11.5 258.5t42.5 196.5t80.5 144.5t129 93.5t184.5 53.5t251 15.5
q60 0 177 -3l26 -239q-34 -1 -94.5 -1.5t-99 -1t-93 -4.5t-90.5 -11.5t-76 -23.5t-64 -39t-41.5 -59t-20.5 -82q95 11 175 11zM562 592q-75 0 -158 -11q-4 -37 -4 -89q0 -44 3 -77t13.5 -68t27.5 -57t47.5 -36.5t72.5 -14.5q114 0 156 39.5t42 143.5q0 98 -49.5 134
t-150.5 36z" />
    <glyph glyph-name="seven.onum" horiz-adv-x="1000" 
d="M949 936l-467 -1041h-344l492 1005h-577v267h741q86 0 131.5 -37.5t45.5 -103.5q0 -42 -22 -90z" />
    <glyph glyph-name="eight.onum" horiz-adv-x="1138" 
d="M571 1284q469 0 469 -330q0 -109 -36 -173t-134 -120q92 -55 139 -122.5t47 -174.5q0 -113 -37 -190t-107 -117t-151 -56t-190 -16q-113 0 -198.5 19t-152 61t-101.5 117.5t-35 181.5q0 104 46 169t141 124q-84 48 -127 115.5t-43 181.5q0 330 470 330zM571 233
q86 0 134.5 30t48.5 106q0 58 -17 89t-68.5 51.5t-152.5 31.5q-61 -16 -96 -59t-35 -113q0 -78 48 -107t138 -29zM625 775q64 19 95 51.5t31 94.5q0 71 -45.5 96.5t-134.5 25.5q-86 0 -131.5 -25.5t-45.5 -96.5q0 -33 8 -55.5t31.5 -43t70.5 -32t121 -15.5z" />
    <glyph glyph-name="nine.onum" horiz-adv-x="1144" 
d="M549 335q-93 0 -163 11t-130.5 39t-99.5 74.5t-60.5 119t-21.5 170.5q0 102 23.5 178t65 124t106 77.5t137 41t167.5 11.5q114 0 197.5 -25t136 -68.5t84 -112.5t43.5 -147.5t12 -182.5q0 -151 -11.5 -258.5t-42 -196.5t-80 -144.5t-129 -94t-184.5 -54t-251 -15.5
q-60 0 -178 3l-24 240q34 1 94.5 1.5t99 1t93 4.5t90 11.5t75.5 23.5t64 39t41 59t20 82q-104 -12 -174 -12zM580 574q69 0 159 12q3 42 3 89q0 55 -6 95t-22 78.5t-50 58.5t-86 20q-115 0 -156.5 -39t-41.5 -143q0 -98 49.5 -134.5t150.5 -36.5z" />
    <glyph glyph-name="dollar.onum" horiz-adv-x="1000" 
d="M96 273q190 -31 341 -31q92 0 135.5 27.5t43.5 96.5q0 60 -41 89.5t-140 60.5q-95 29 -155.5 57.5t-112 73t-75 108.5t-23.5 154q0 173 82 259.5t247 107.5v176h213v-170q147 -8 305 -43l-29 -237q-190 31 -293 31q-36 0 -59.5 -1t-57 -7t-53.5 -16.5t-34.5 -31
t-14.5 -49.5q0 -33 12 -56t40.5 -39t54.5 -25t77 -23q14 -4 22 -6q190 -52 270 -142t80 -258q0 -173 -82.5 -265.5t-245.5 -117.5v-178h-214v168q-165 7 -324 43z" />
    <glyph glyph-name="cent.onum" horiz-adv-x="857" 
d="M772 397l24 -221q-95 -27 -213 -37v-172h-201v172q-76 10 -132 44t-88.5 80t-52 112t-25.5 128t-6 141q0 110 13 187t46 141t93.5 102t151.5 53v176h201v-169q106 -8 211 -40l-23 -214q-142 26 -188 26q-48 0 -82 -5t-58 -19t-38 -32t-22.5 -50t-11 -67t-2.5 -89
q0 -47 1 -75.5t5.5 -61.5t13.5 -51t24.5 -37t38.5 -28t56 -14.5t77 -5.5q63 0 187 26z" />
    <glyph glyph-name="Euro.onum" horiz-adv-x="1036" 
d="M76 672l35 165h86q23 237 126 342t331 105q172 0 302 -45l-24 -242q-123 25 -233 25q-95 0 -140 -46.5t-59 -138.5h369l-36 -165h-343v-69h328l-35 -164h-285q13 -95 58 -143.5t143 -48.5q114 0 233 26l24 -244q-127 -44 -302 -44q-230 0 -332.5 106t-124.5 348h-134
l36 164h90v69h-113z" />
    <glyph glyph-name="sterling.onum" horiz-adv-x="1131" 
d="M247 532h-176v225h145q-8 90 -8 155q0 87 24.5 153.5t66 107.5t103.5 66.5t128 35.5t148 10q71 0 124.5 -11t100.5 -39t77 -53t82 -75l-156 -185q-60 55 -108 80.5t-113 25.5q-97 0 -134 -36.5t-37 -120.5q0 -55 6 -114h267v-225h-247q2 -44 2 -67q0 -86 -41 -205h177
q170 0 332 26l25 -242q-169 -44 -448 -44h-282q-76 0 -113 34t-37 88q0 28 15 64.5t33.5 68.5t33.5 85t15 112q0 37 -5 80z" />
    <glyph glyph-name="yen.onum" horiz-adv-x="1114" 
d="M359 1273l200 -466l207 466h298l-250 -550h128v-183h-212l-23 -50v-58h235v-181h-235v-251h-301v251h-233v181h233v60l-23 48h-210v183h127l-250 550h309z" />
    <glyph glyph-name="zero.tnum" 
d="M605 -15q-93 0 -166.5 14.5t-128.5 42t-95 73t-66.5 100.5t-41.5 131t-21.5 158.5t-6.5 189.5t6.5 189.5t21.5 158.5t41.5 131t66.5 100.5t95 73t128.5 42t166.5 14.5q130 0 222.5 -29t151.5 -82.5t92.5 -143.5t46.5 -196.5t13 -257.5t-13 -257.5t-46.5 -196.5
t-92.5 -143.5t-151.5 -82.5t-222.5 -29zM605 250q32 0 58.5 7t46 17.5t34.5 32t25 40t16.5 53t10.5 60t5.5 71t2 77t0.5 86.5t-0.5 86.5t-2.5 77t-5.5 71.5t-10.5 60t-17 53t-25 40.5t-34.5 32t-45.5 17.5t-58 7t-58 -7t-45.5 -17.5t-34.5 -32t-25 -40.5t-17 -53t-10.5 -60
t-5.5 -71.5t-2.5 -77t-0.5 -86.5t0.5 -86.5t2 -77t5.5 -71t10.5 -60t16.5 -53t25 -40t34.5 -32t46 -17.5t58.5 -7z" />
    <glyph glyph-name="one.tnum" 
d="M541 0v1064q-116 -29 -292 -46l-14 261q216 33 379 110h251v-1389h-324z" />
    <glyph glyph-name="two.tnum" 
d="M141 1099l-30 254q250 50 470 50q113 0 199 -16.5t157.5 -56t109.5 -113t38 -179.5q0 -194 -98.5 -319.5t-308.5 -206.5q-123 -48 -167 -97t-56 -134h629v-281h-997q17 98 25.5 143t24.5 118.5t27.5 107t30.5 87t39.5 79.5t49.5 63.5t64.5 61t79.5 49t100 49.5
q124 53 176 100.5t52 123.5q0 90 -62 119t-241 29q-130 0 -312 -31z" />
    <glyph glyph-name="three.tnum" 
d="M552 1403q89 0 159.5 -8.5t140 -32.5t116 -64t75 -107.5t28.5 -158.5q0 -99 -45.5 -177t-138.5 -124q110 -43 157 -112t47 -182q0 -103 -24.5 -180.5t-69.5 -129t-113.5 -83.5t-150.5 -45.5t-187 -13.5q-174 0 -445 51l35 256q250 -32 358 -32q142 0 201 33.5t59 132.5
q0 138 -131 153q-127 16 -291 16h-22v240q149 3 313 28q61 9 89 43.5t28 98.5q0 33 -10.5 57t-27.5 38t-45.5 21.5t-56.5 10t-68 2.5q-132 0 -384 -33l-33 252q246 50 437 50z" />
    <glyph glyph-name="four.tnum" 
d="M674 0v303h-426q-112 0 -158 42.5t-46 122.5q0 29 4 51t29 71t72 110l439 565q64 83 115.5 110.5t122.5 27.5q72 0 117.5 -47.5t45.5 -137.5v-659h164v-256h-164v-303h-315zM675 979l-311 -420h311v420z" />
    <glyph glyph-name="five.tnum" 
d="M468 1110l-15 -219q52 2 79 2q73 0 132 -4.5t118.5 -17t104.5 -33.5t85 -55t66 -80.5t40.5 -111t14.5 -144.5q0 -242 -134 -352t-399 -110q-235 0 -459 52l34 256q227 -33 360 -33q78 0 123.5 7.5t78.5 30t45.5 63t12.5 108.5q0 42 -15.5 72t-41.5 48t-67.5 28.5t-85 14
t-102.5 3.5q-165 0 -308 -8l52 762h874v-279h-593z" />
    <glyph glyph-name="six.tnum" 
d="M1039 1400l26 -251q-26 -1 -83 -1h-58q-61 0 -101.5 -1t-97.5 -6.5t-94.5 -15.5t-79 -29t-66 -46t-41 -67.5t-16.5 -92.5q108 13 200 13q101 0 177.5 -12t142.5 -42.5t108 -80.5t65.5 -128.5t23.5 -185.5q0 -111 -26 -193.5t-71 -134.5t-115 -84t-149 -44.5t-182 -12.5
q-104 0 -184 18t-136.5 54.5t-94.5 85t-60 116.5t-31 142.5t-9 168.5q0 165 13 282.5t46 214.5t87 158t141 102.5t201.5 58.5t273.5 17q60 0 190 -3zM597 251q130 0 177.5 44.5t47.5 162.5q0 112 -57 154t-171 42q-94 0 -181 -14q-4 -44 -4 -104q0 -50 3.5 -87t15 -76.5
t31.5 -64.5t55 -41t83 -16z" />
    <glyph glyph-name="seven.tnum" 
d="M1094 1144l-514 -1144h-363l542 1107h-639v282h810q90 0 138.5 -39.5t48.5 -108.5q0 -46 -23 -97z" />
    <glyph glyph-name="eight.tnum" 
d="M606 1403q510 0 510 -357q0 -120 -41 -190t-153 -132q105 -61 158.5 -135t53.5 -193q0 -99 -28 -172.5t-74 -118.5t-115.5 -72.5t-143.5 -37.5t-167 -10q-98 0 -176 12t-145 41.5t-112 76t-70.5 117t-25.5 163.5q0 80 28 141t70.5 100t114.5 83q-94 51 -144 126t-50 201
q0 357 510 357zM606 244q97 0 153 35t56 122q0 67 -19 102.5t-77 58.5t-173 35q-151 -36 -151 -196q0 -89 54 -123t157 -34zM667 842q76 22 110.5 58.5t34.5 109.5q0 81 -52 111t-154 30q-98 0 -150 -29.5t-52 -111.5q0 -39 9 -64.5t35.5 -49t80.5 -37t138 -17.5z" />
    <glyph glyph-name="nine.tnum" 
d="M580 485q-101 0 -177.5 12t-142.5 42.5t-108 81t-65.5 129t-23.5 185.5q0 111 26 193.5t71 134.5t115 83.5t149 44t182 12.5q124 0 214.5 -27t148 -74.5t92 -122.5t47.5 -160.5t13 -199.5q0 -165 -12.5 -282.5t-46 -215t-87.5 -158t-140.5 -102.5t-201.5 -59t-274 -17
q-17 0 -190 4l-25 251q26 1 83 1q9 0 28 -0.5t29 -0.5q61 0 101.5 1t97.5 6.5t94.5 15.5t79 29.5t66 46.5t41 67.5t16.5 92.5q-116 -14 -200 -14zM614 734q93 0 182 14q3 33 3 104q0 50 -3.5 87t-15 76.5t-31.5 65t-54.5 41.5t-82.5 16q-130 0 -177.5 -45t-47.5 -163
q0 -112 56.5 -154t170.5 -42z" />
    <glyph glyph-name="dollar.tnum" 
d="M164 287q220 -33 370 -33q105 0 155 32t50 112q0 30 -10 53.5t-24.5 39.5t-44 31t-55 24.5t-70.5 23.5q-68 21 -117 40t-97 45.5t-79.5 57.5t-57 71.5t-37 93.5t-11.5 118q0 189 90.5 282.5t272.5 116.5v193h221v-187q164 -8 334 -45l-30 -249q-202 33 -316 33
q-33 0 -56 -1t-55 -4.5t-53.5 -11.5t-42 -21t-31 -34.5t-10.5 -49.5q0 -40 13 -67t44.5 -45t67 -29.5t97.5 -28.5q6 -1 9 -2q211 -57 296 -153t85 -281q0 -189 -91.5 -289.5t-270.5 -126.5v-195h-222v185q-177 5 -355 46z" />
    <glyph glyph-name="cent.tnum" 
d="M977 423l26 -229q-119 -31 -234 -40v-188h-207v188q-84 11 -146 47.5t-98 86.5t-57 122t-28 140t-7 154q0 120 14.5 204.5t51 154t103 110.5t167.5 57v193h207v-185q123 -8 232 -43l-24 -223q-142 28 -202 28q-65 0 -107.5 -10t-70 -28.5t-41.5 -56.5t-18.5 -82.5
t-4.5 -118.5q0 -46 1 -75t4.5 -63t10.5 -54t19 -42t30 -33.5t43 -22t59 -14.5t78 -4q64 0 199 27z" />
    <glyph glyph-name="Euro.tnum" 
d="M127 743l35 166h96q12 131 43 222t90 153t148 90.5t216 28.5q190 0 325 -48l-25 -253q-132 27 -250 27q-111 0 -162.5 -55.5t-66.5 -164.5h406l-36 -166h-379v-92h360l-36 -165h-316q14 -112 64.5 -169t165.5 -57q125 0 249 28l26 -256q-138 -47 -325 -47
q-128 0 -217.5 29t-148.5 92t-89.5 155t-42.5 225h-144l35 165h101v43q0 33 1 49h-123z" />
    <glyph glyph-name="sterling.tnum" 
d="M262 586h-194v235h161q-10 87 -10 177q0 95 27 166.5t72 116.5t112 72.5t139 38.5t161 11q77 0 135.5 -12t109 -42t82 -56.5t87.5 -80.5l-163 -193q-65 59 -117.5 86.5t-125.5 27.5q-112 0 -154 -41.5t-42 -137.5q0 -39 8 -133h294v-235h-273q2 -52 2 -80
q0 -104 -48 -233h205q193 0 360 27l27 -253q-179 -47 -487 -47h-310q-80 0 -120 35.5t-40 91.5q0 31 17 70.5t37 74.5t37 94t17 124q0 48 -6 96z" />
    <glyph glyph-name="yen.tnum" 
d="M383 1389l224 -525l233 525h314l-277 -606h145v-188h-231l-27 -59v-74h258v-185h-258v-277h-319v277h-256v185h256v74l-27 59h-229v188h144l-276 606h326z" />
    <glyph glyph-name="period.tnum" horiz-adv-x="605" 
d="M302 -15q-105 0 -143.5 37.5t-38.5 137.5q0 99 39 136t143 37t143.5 -37t39.5 -136q0 -100 -39 -137.5t-144 -37.5z" />
    <glyph glyph-name="comma.tnum" horiz-adv-x="605" 
d="M49 -264l132 581h343l-225 -581h-250z" />
    <glyph glyph-name="colon.tnum" horiz-adv-x="605" 
d="M302 -15q-106 0 -144 37.5t-38 137.5q0 99 38.5 136t143.5 37q104 0 143 -37t39 -136q0 -100 -38.5 -137.5t-143.5 -37.5zM302 678q-106 0 -144 37t-38 137q0 99 38.5 136.5t143.5 37.5q104 0 143 -37.5t39 -136.5q0 -100 -38.5 -137t-143.5 -37z" />
    <glyph glyph-name="semicolon.tnum" horiz-adv-x="605" 
d="M355 678q-105 0 -143.5 37t-38.5 137q0 99 39 136.5t143 37.5t143 -37.5t39 -136.5q0 -100 -38.5 -137t-143.5 -37zM45 -264l132 581h342l-223 -581h-251z" />
    <glyph glyph-name="zero.onum_tnum" horiz-adv-x="1112" 
d="M557 -15q-119 0 -204 24.5t-139.5 69.5t-85.5 121t-43 166t-12 217t12 217t43 166t85.5 121t139.5 69.5t204 24.5t204 -24.5t139 -69.5t85.5 -121t43 -166t11.5 -217q0 -106 -8 -184.5t-28 -148.5t-55.5 -117t-88.5 -81.5t-128 -50.5t-175 -16zM557 238q36 0 63 9
t45.5 22t31 40t19 49.5t10 65t4 73t0.5 86.5q0 44 -0.5 68t-2 60t-4.5 55.5t-9 46.5t-14.5 41t-21.5 30.5t-30 24.5t-40 13.5t-51 5.5q-36 0 -63.5 -9t-46 -22t-31 -39.5t-19.5 -49.5t-10.5 -65.5t-4 -73.5t-0.5 -86t0.5 -86t4 -73.5t10.5 -65.5t19.5 -49.5t31 -39.5t46 -22
t63.5 -9z" />
    <glyph glyph-name="one.onum_tnum" horiz-adv-x="1112" 
d="M490 0v858q-106 -25 -264 -40l-14 249q196 29 348 100h236v-1167h-306z" />
    <glyph glyph-name="two.onum_tnum" horiz-adv-x="1112" 
d="M144 896l-32 243q237 42 424 42q102 0 178.5 -14t141 -48t98.5 -97.5t34 -155.5q0 -165 -89 -272.5t-275 -174.5q-97 -35 -137 -68.5t-53 -85.5h553v-265h-897q18 94 27 138.5t25.5 113t29.5 100t35 79t46 71.5t59 55t77.5 52.5t98.5 43.5q108 42 154.5 78.5t46.5 88.5
q0 62 -54.5 82t-211.5 20q-114 0 -279 -26z" />
    <glyph glyph-name="three.onum_tnum" horiz-adv-x="1112" 
d="M508 1181q82 0 146.5 -7.5t128.5 -30t106.5 -59.5t69 -99.5t26.5 -146.5q0 -186 -158 -272q95 -40 136 -103.5t41 -164.5q0 -118 -34 -200t-101 -128.5t-156 -67t-210 -20.5q-163 0 -412 47l34 245q236 -30 330 -30q125 0 177.5 29t52.5 116q0 117 -113 131
q-120 15 -267 15h-23v230q143 3 290 26q100 14 100 122q0 47 -25.5 72.5t-61.5 32t-96 6.5q-119 0 -353 -31l-32 242q228 46 404 46z" />
    <glyph glyph-name="four.onum_tnum" horiz-adv-x="1112" 
d="M611 -104v274h-379q-105 0 -148.5 40.5t-43.5 115.5q0 90 97 215l398 512q60 77 107 102.5t113 25.5q68 0 112 -45.5t44 -129.5v-591h148v-245h-148v-274h-300zM613 769l-263 -354h263v354z" />
    <glyph glyph-name="five.onum_tnum" horiz-adv-x="1112" 
d="M437 902l-12 -186q44 2 64 2q96 0 167 -8.5t140 -34.5t112.5 -70.5t70 -119.5t26.5 -178q0 -223 -122.5 -324.5t-366.5 -101.5q-208 0 -425 49l34 245q205 -32 330 -32q134 0 182 35t48 149q0 37 -14 63t-36.5 41.5t-59.5 24.5t-75 12t-91 3q-158 0 -287 -8l49 704h806
v-265h-540z" />
    <glyph glyph-name="six.onum_tnum" horiz-adv-x="1112" 
d="M577 831q93 0 163 -11t131 -39t99.5 -74.5t60.5 -119t22 -170.5q0 -102 -23.5 -178t-65 -124t-106 -77.5t-137 -41t-167.5 -11.5q-114 0 -197.5 25t-136.5 68.5t-85 113t-44 148t-12 182.5q0 151 11.5 258.5t42.5 196.5t80.5 144.5t129 93.5t184.5 53.5t251 15.5
q60 0 177 -3l26 -239q-34 -1 -94.5 -1.5t-99 -1t-93 -4.5t-90.5 -11.5t-76 -23.5t-64 -39t-41.5 -59t-20.5 -82q95 11 175 11zM546 592q-76 0 -158 -11q-4 -37 -4 -89q0 -44 3 -77t13.5 -68t27.5 -57t47.5 -36.5t72.5 -14.5q114 0 156 39.5t42 143.5q0 98 -49.5 134
t-150.5 36z" />
    <glyph glyph-name="seven.onum_tnum" horiz-adv-x="1112" 
d="M1005 936l-467 -1041h-344l492 1005h-577v267h741q86 0 131.5 -37.5t45.5 -103.5q0 -42 -22 -90z" />
    <glyph glyph-name="eight.onum_tnum" horiz-adv-x="1112" 
d="M557 1284q469 0 469 -330q0 -109 -35.5 -173t-133.5 -120q92 -55 138.5 -122.5t46.5 -174.5q0 -113 -37 -190t-107 -117t-151 -56t-190 -16q-113 0 -198.5 19t-152 61t-101.5 117.5t-35 181.5q0 104 46 169t141 124q-84 48 -126.5 115.5t-42.5 181.5q0 330 469 330z
M557 233q86 0 134.5 30t48.5 106q0 44 -8.5 70.5t-34 48t-71.5 33.5t-123 20q-61 -16 -96 -59t-35 -113q0 -78 47.5 -107t137.5 -29zM611 775q64 20 95.5 52t31.5 94q0 71 -46 96.5t-135 25.5q-86 0 -131.5 -25.5t-45.5 -96.5q0 -33 8 -55.5t31.5 -43t70.5 -32t121 -15.5z
" />
    <glyph glyph-name="nine.onum_tnum" horiz-adv-x="1112" 
d="M533 335q-93 0 -163 11t-130.5 39t-99.5 74.5t-60.5 119t-21.5 170.5q0 102 23.5 178t65 124t106 77.5t137 41t167.5 11.5q114 0 197.5 -25t136 -68.5t84 -112.5t43.5 -147.5t12 -182.5q0 -151 -11.5 -258.5t-42 -196.5t-80 -144.5t-129 -94t-184.5 -54t-251 -15.5
q-60 0 -178 3l-24 240q34 1 94.5 1.5t99 1t93 4.5t90 11.5t75.5 23.5t64 39t41 59t20 82q-104 -12 -174 -12zM564 574q69 0 159 12q3 42 3 89q0 55 -6 95t-22 78.5t-50 58.5t-86 20q-115 0 -156.5 -39t-41.5 -143q0 -98 49.5 -134.5t150.5 -36.5z" />
    <glyph glyph-name="dollar.onum_tnum" horiz-adv-x="1112" 
d="M152 273q190 -31 341 -31q92 0 135.5 27.5t43.5 96.5q0 60 -41 89.5t-140 60.5q-95 29 -155.5 57.5t-112 73t-75 108.5t-23.5 154q0 173 82 259.5t247 107.5v176h213v-170q145 -8 304 -43l-28 -237q-190 31 -293 31q-36 0 -59.5 -1t-57 -7t-53.5 -16.5t-34.5 -31
t-14.5 -49.5q0 -33 12 -56t40.5 -39t54.5 -25t77 -23q14 -4 22 -6q190 -52 270 -142t80 -258q0 -173 -82.5 -265.5t-245.5 -117.5v-178h-214v168q-165 7 -324 43z" />
    <glyph glyph-name="cent.onum_tnum" horiz-adv-x="1112" 
d="M900 397l24 -221q-95 -27 -213 -37v-172h-201v172q-76 10 -132 44t-88.5 80t-52 112t-25.5 128t-6 141q0 110 13 187t46 141t93.5 102t151.5 53v176h201v-169q106 -8 211 -40l-23 -214q-142 26 -189 26q-48 0 -81.5 -5t-58 -19t-38.5 -32t-22 -50t-10.5 -67t-2.5 -89
q0 -47 1 -75.5t5.5 -61.5t13.5 -51t24.5 -37t38.5 -28t56 -14.5t77 -5.5q63 0 187 26z" />
    <glyph glyph-name="Euro.onum_tnum" horiz-adv-x="1112" 
d="M114 672l35 165h86q23 237 126 342t331 105q172 0 302 -45l-24 -242q-123 25 -233 25q-95 0 -140 -46.5t-59 -138.5h369l-36 -165h-343v-69h328l-35 -164h-285q13 -95 58 -143.5t143 -48.5q114 0 233 26l24 -244q-127 -44 -302 -44q-230 0 -332.5 106t-124.5 348h-134
l36 164h90v69h-113z" />
    <glyph glyph-name="sterling.onum_tnum" horiz-adv-x="1112" 
d="M237 532h-176v225h145q-8 90 -8 155q0 87 24.5 153.5t66 107.5t103.5 66.5t128 35.5t148 10q71 0 124.5 -11t100.5 -38.5t77.5 -53t82.5 -75.5l-157 -185q-60 55 -108 80.5t-113 25.5q-97 0 -134 -36.5t-37 -120.5q0 -55 6 -114h267v-225h-247q2 -44 2 -67
q0 -86 -41 -205h177q170 0 332 26l26 -242q-169 -44 -449 -44h-281q-76 0 -113.5 34.5t-37.5 87.5q0 28 15 64.5t33.5 68.5t33.5 85t15 112q0 37 -5 80z" />
    <glyph glyph-name="yen.onum_tnum" horiz-adv-x="1112" 
d="M358 1273l199 -466l207 466h299l-251 -550h129v-183h-212l-23 -50v-58h235v-181h-235v-251h-302v251h-233v181h233v60l-22 48h-211v183h128l-250 550h309z" />
    <glyph glyph-name="parenleft.case" horiz-adv-x="693" 
d="M453 1636l182 -150q-67 -64 -114 -159.5t-69.5 -205.5t-32 -207.5t-9.5 -200.5q0 -568 225 -771l-182 -152q-362 287 -362 923q0 638 362 923z" />
    <glyph glyph-name="parenright.case" horiz-adv-x="693" 
d="M241 -210l-182 152q225 203 225 771q0 103 -9.5 201t-32.5 207t-70 205t-114 160l183 150q362 -285 362 -923q0 -636 -362 -923z" />
    <glyph glyph-name="bracketleft.case" horiz-adv-x="698" 
d="M444 1377v-1320h193v-248h-489v1814h490v-246h-194z" />
    <glyph glyph-name="bracketright.case" horiz-adv-x="699" 
d="M60 1377v246h491v-1814h-490v248h194v1320h-195z" />
    <glyph glyph-name="braceleft.case" horiz-adv-x="708" 
d="M493 369v-101q0 -42 1.5 -65.5t10.5 -55.5t25.5 -49.5t49 -33t79.5 -20.5l-29 -223q-78 6 -133.5 16t-106 29.5t-83 49t-57 74t-35 106.5t-10.5 144q0 210 -27 284t-116 83v219q88 8 115.5 83t27.5 285q0 82 10.5 143.5t35 106t57 74t83 49t106 29.5t133.5 16l29 -223
q-47 -6 -79.5 -21t-49 -32.5t-25.5 -49.5t-10.5 -55.5t-1.5 -65.5v-122q0 -50 -1 -79.5t-7.5 -75.5t-18.5 -74.5t-36 -56.5t-59 -42q34 -16 57.5 -46.5t36 -62t19 -78t8 -79t1.5 -80.5z" />
    <glyph glyph-name="braceright.case" horiz-adv-x="708" 
d="M78 -179l-28 223q34 4 60 13t43.5 19.5t29.5 28.5t18 33t9.5 40.5t4 42.5t0.5 47v101q0 60 3.5 102t14.5 95.5t37.5 91t67.5 57.5q-35 14 -59 42t-36.5 57t-19 74t-7.5 75.5t-1 79.5v122q0 30 -0.5 47.5t-4 42.5t-9.5 40t-18 33t-29.5 28.5t-43.5 19.5t-60 13l28 223
q78 -6 133.5 -16t106 -29.5t83 -49t57 -74t35 -106t10.5 -143.5q0 -210 27.5 -285t115.5 -83v-219q-89 -9 -116 -83t-27 -284q0 -82 -10.5 -144t-35 -106.5t-57 -74t-83 -49t-106 -29.5t-133.5 -16z" />
    <glyph glyph-name="questiondown.case" horiz-adv-x="1109" 
d="M507 1003h279l5 -137q2 -24 2 -49q0 -74 -21 -121t-54 -66.5t-73.5 -28.5t-81 -16t-73.5 -20.5t-54 -50t-21 -96.5q0 -89 49.5 -124t181.5 -35q198 0 353 33l55 -262q-213 -52 -439 -52q-75 0 -132.5 4t-116.5 16t-101.5 32.5t-80.5 53.5t-61.5 79.5t-37 111t-13.5 145.5
q0 88 18 155t48 104.5t68.5 65t78.5 38.5t78.5 22.5t69 20.5t50 28.5t20.5 49.5zM465 1271q0 92 40 130t141 38q102 0 142 -38t40 -130t-40.5 -129.5t-141.5 -37.5t-141 37.5t-40 129.5z" />
    <glyph glyph-name="exclamdown.case" horiz-adv-x="617" 
d="M309 1104q-101 0 -141.5 37.5t-40.5 129.5t40 130t142 38q101 0 141 -38t40 -130t-40 -129.5t-141 -37.5zM125 -7l47 1010h274l46 -1010h-367z" />
    <glyph glyph-name="at.case" horiz-adv-x="1808" 
d="M1685 1006q40 -129 40 -290q0 -380 -206 -555.5t-612 -175.5q-407 0 -613 175t-206 556q0 197 55 338.5t164.5 227t261.5 125t358 39.5q87 0 157.5 -17.5t128.5 -57t90 -110t32 -167.5v-421q0 -99 -11 -206q-67 -45 -183.5 -72.5t-250.5 -27.5q-222 0 -321 86.5
t-99 262.5q0 151 70.5 236t231.5 114q75 14 305 28q0 81 -34.5 111t-125.5 30q-139 0 -239.5 -25t-175.5 -83.5t-112.5 -160.5t-37.5 -250q0 -146 36.5 -247.5t110 -160.5t172.5 -85t236 -26q138 0 237.5 25.5t173 84.5t110 160.5t36.5 248.5q0 127 -27 219zM1077 734v185
q-144 -5 -210 -24q-79 -22 -108 -55.5t-29 -116.5q0 -90 46.5 -123t150.5 -33q29 0 74.5 9.5t68.5 22.5q7 57 7 135z" />
    <glyph glyph-name="guilsinglleft.case" horiz-adv-x="710" 
d="M363 716l274 -428h-284l-303 428l303 428h284z" />
    <glyph glyph-name="guilsinglright.case" horiz-adv-x="710" 
d="M661 716l-303 -428h-285l275 428l-275 428h285z" />
    <glyph glyph-name="guillemotleft.case" horiz-adv-x="1203" 
d="M362 716l275 -428h-285l-302 428l302 428h285zM856 716l275 -428h-285l-303 428l303 428h285z" />
    <glyph glyph-name="guillemotright.case" horiz-adv-x="1204" 
d="M661 716l-303 -428h-285l275 428l-275 428h285zM1155 716l-303 -428h-285l275 428l-275 428h285z" />
    <glyph glyph-name="hyphen.case" horiz-adv-x="801" 
d="M125 594v244h551v-244h-551z" />
    <glyph glyph-name="endash.case" horiz-adv-x="1237" 
d="M125 600v231h988v-231h-988z" />
    <glyph glyph-name="emdash.case" horiz-adv-x="2191" 
d="M125 600v231h1942v-231h-1942z" />
    <glyph glyph-name="periodcentered.case" horiz-adv-x="608" 
d="M304 542q-105 0 -143.5 37t-38.5 137q0 99 39 136.5t143 37.5t143 -37.5t39 -136.5q0 -100 -38.5 -137t-143.5 -37z" />
    </font>
</defs>
</svg>
